%TF.GenerationSoftware,KiCad,Pcbnew,(6.0.9)*%
%TF.CreationDate,2023-01-01T04:26:49+02:00*%
%TF.ProjectId,ESP32_LEDCONTROLLER,45535033-325f-44c4-9544-434f4e54524f,rev?*%
%TF.SameCoordinates,Original*%
%TF.FileFunction,Legend,Top*%
%TF.FilePolarity,Positive*%
%FSLAX46Y46*%
G04 Gerber Fmt 4.6, Leading zero omitted, Abs format (unit mm)*
G04 Created by KiCad (PCBNEW (6.0.9)) date 2023-01-01 04:26:49*
%MOMM*%
%LPD*%
G01*
G04 APERTURE LIST*
%ADD10C,0.150000*%
%ADD11C,0.200000*%
%ADD12C,0.127000*%
%ADD13C,0.120000*%
G04 APERTURE END LIST*
D10*
%TO.C,U2*%
X127433095Y-152542380D02*
X127433095Y-153351904D01*
X127480714Y-153447142D01*
X127528333Y-153494761D01*
X127623571Y-153542380D01*
X127814047Y-153542380D01*
X127909285Y-153494761D01*
X127956904Y-153447142D01*
X128004523Y-153351904D01*
X128004523Y-152542380D01*
X128433095Y-152637619D02*
X128480714Y-152590000D01*
X128575952Y-152542380D01*
X128814047Y-152542380D01*
X128909285Y-152590000D01*
X128956904Y-152637619D01*
X129004523Y-152732857D01*
X129004523Y-152828095D01*
X128956904Y-152970952D01*
X128385476Y-153542380D01*
X129004523Y-153542380D01*
%TO.C,C2*%
X90627142Y-113064343D02*
X90674761Y-113111962D01*
X90722380Y-113254819D01*
X90722380Y-113350057D01*
X90674761Y-113492915D01*
X90579523Y-113588153D01*
X90484285Y-113635772D01*
X90293809Y-113683391D01*
X90150952Y-113683391D01*
X89960476Y-113635772D01*
X89865238Y-113588153D01*
X89770000Y-113492915D01*
X89722380Y-113350057D01*
X89722380Y-113254819D01*
X89770000Y-113111962D01*
X89817619Y-113064343D01*
X89817619Y-112683391D02*
X89770000Y-112635772D01*
X89722380Y-112540534D01*
X89722380Y-112302438D01*
X89770000Y-112207200D01*
X89817619Y-112159581D01*
X89912857Y-112111962D01*
X90008095Y-112111962D01*
X90150952Y-112159581D01*
X90722380Y-112731010D01*
X90722380Y-112111962D01*
%TO.C,L1*%
X96393333Y-102052380D02*
X95917142Y-102052380D01*
X95917142Y-101052380D01*
X97250476Y-102052380D02*
X96679047Y-102052380D01*
X96964761Y-102052380D02*
X96964761Y-101052380D01*
X96869523Y-101195238D01*
X96774285Y-101290476D01*
X96679047Y-101338095D01*
%TO.C,U1*%
X108868095Y-98972380D02*
X108868095Y-99781904D01*
X108915714Y-99877142D01*
X108963333Y-99924761D01*
X109058571Y-99972380D01*
X109249047Y-99972380D01*
X109344285Y-99924761D01*
X109391904Y-99877142D01*
X109439523Y-99781904D01*
X109439523Y-98972380D01*
X110439523Y-99972380D02*
X109868095Y-99972380D01*
X110153809Y-99972380D02*
X110153809Y-98972380D01*
X110058571Y-99115238D01*
X109963333Y-99210476D01*
X109868095Y-99258095D01*
%TO.C,R8*%
X123642380Y-132246666D02*
X123166190Y-132580000D01*
X123642380Y-132818095D02*
X122642380Y-132818095D01*
X122642380Y-132437142D01*
X122690000Y-132341904D01*
X122737619Y-132294285D01*
X122832857Y-132246666D01*
X122975714Y-132246666D01*
X123070952Y-132294285D01*
X123118571Y-132341904D01*
X123166190Y-132437142D01*
X123166190Y-132818095D01*
X123070952Y-131675238D02*
X123023333Y-131770476D01*
X122975714Y-131818095D01*
X122880476Y-131865714D01*
X122832857Y-131865714D01*
X122737619Y-131818095D01*
X122690000Y-131770476D01*
X122642380Y-131675238D01*
X122642380Y-131484761D01*
X122690000Y-131389523D01*
X122737619Y-131341904D01*
X122832857Y-131294285D01*
X122880476Y-131294285D01*
X122975714Y-131341904D01*
X123023333Y-131389523D01*
X123070952Y-131484761D01*
X123070952Y-131675238D01*
X123118571Y-131770476D01*
X123166190Y-131818095D01*
X123261428Y-131865714D01*
X123451904Y-131865714D01*
X123547142Y-131818095D01*
X123594761Y-131770476D01*
X123642380Y-131675238D01*
X123642380Y-131484761D01*
X123594761Y-131389523D01*
X123547142Y-131341904D01*
X123451904Y-131294285D01*
X123261428Y-131294285D01*
X123166190Y-131341904D01*
X123118571Y-131389523D01*
X123070952Y-131484761D01*
%TO.C,J5*%
X96822380Y-127163333D02*
X97536666Y-127163333D01*
X97679523Y-127210952D01*
X97774761Y-127306190D01*
X97822380Y-127449047D01*
X97822380Y-127544285D01*
X96822380Y-126210952D02*
X96822380Y-126687142D01*
X97298571Y-126734761D01*
X97250952Y-126687142D01*
X97203333Y-126591904D01*
X97203333Y-126353809D01*
X97250952Y-126258571D01*
X97298571Y-126210952D01*
X97393809Y-126163333D01*
X97631904Y-126163333D01*
X97727142Y-126210952D01*
X97774761Y-126258571D01*
X97822380Y-126353809D01*
X97822380Y-126591904D01*
X97774761Y-126687142D01*
X97727142Y-126734761D01*
%TO.C,J4*%
X96722380Y-143843333D02*
X97436666Y-143843333D01*
X97579523Y-143890952D01*
X97674761Y-143986190D01*
X97722380Y-144129047D01*
X97722380Y-144224285D01*
X97055714Y-142938571D02*
X97722380Y-142938571D01*
X96674761Y-143176666D02*
X97389047Y-143414761D01*
X97389047Y-142795714D01*
%TO.C,J3*%
X135962380Y-127333333D02*
X136676666Y-127333333D01*
X136819523Y-127380952D01*
X136914761Y-127476190D01*
X136962380Y-127619047D01*
X136962380Y-127714285D01*
X135962380Y-126952380D02*
X135962380Y-126333333D01*
X136343333Y-126666666D01*
X136343333Y-126523809D01*
X136390952Y-126428571D01*
X136438571Y-126380952D01*
X136533809Y-126333333D01*
X136771904Y-126333333D01*
X136867142Y-126380952D01*
X136914761Y-126428571D01*
X136962380Y-126523809D01*
X136962380Y-126809523D01*
X136914761Y-126904761D01*
X136867142Y-126952380D01*
%TO.C,J2*%
X136062380Y-143673333D02*
X136776666Y-143673333D01*
X136919523Y-143720952D01*
X137014761Y-143816190D01*
X137062380Y-143959047D01*
X137062380Y-144054285D01*
X136157619Y-143244761D02*
X136110000Y-143197142D01*
X136062380Y-143101904D01*
X136062380Y-142863809D01*
X136110000Y-142768571D01*
X136157619Y-142720952D01*
X136252857Y-142673333D01*
X136348095Y-142673333D01*
X136490952Y-142720952D01*
X137062380Y-143292380D01*
X137062380Y-142673333D01*
%TO.C,C1*%
X146677142Y-113986666D02*
X146724761Y-114034285D01*
X146772380Y-114177142D01*
X146772380Y-114272380D01*
X146724761Y-114415238D01*
X146629523Y-114510476D01*
X146534285Y-114558095D01*
X146343809Y-114605714D01*
X146200952Y-114605714D01*
X146010476Y-114558095D01*
X145915238Y-114510476D01*
X145820000Y-114415238D01*
X145772380Y-114272380D01*
X145772380Y-114177142D01*
X145820000Y-114034285D01*
X145867619Y-113986666D01*
X146772380Y-113034285D02*
X146772380Y-113605714D01*
X146772380Y-113320000D02*
X145772380Y-113320000D01*
X145915238Y-113415238D01*
X146010476Y-113510476D01*
X146058095Y-113605714D01*
%TO.C,R5*%
X118562380Y-132246666D02*
X118086190Y-132580000D01*
X118562380Y-132818095D02*
X117562380Y-132818095D01*
X117562380Y-132437142D01*
X117610000Y-132341904D01*
X117657619Y-132294285D01*
X117752857Y-132246666D01*
X117895714Y-132246666D01*
X117990952Y-132294285D01*
X118038571Y-132341904D01*
X118086190Y-132437142D01*
X118086190Y-132818095D01*
X117562380Y-131341904D02*
X117562380Y-131818095D01*
X118038571Y-131865714D01*
X117990952Y-131818095D01*
X117943333Y-131722857D01*
X117943333Y-131484761D01*
X117990952Y-131389523D01*
X118038571Y-131341904D01*
X118133809Y-131294285D01*
X118371904Y-131294285D01*
X118467142Y-131341904D01*
X118514761Y-131389523D01*
X118562380Y-131484761D01*
X118562380Y-131722857D01*
X118514761Y-131818095D01*
X118467142Y-131865714D01*
%TO.C,R4*%
X110942380Y-142406666D02*
X110466190Y-142740000D01*
X110942380Y-142978095D02*
X109942380Y-142978095D01*
X109942380Y-142597142D01*
X109990000Y-142501904D01*
X110037619Y-142454285D01*
X110132857Y-142406666D01*
X110275714Y-142406666D01*
X110370952Y-142454285D01*
X110418571Y-142501904D01*
X110466190Y-142597142D01*
X110466190Y-142978095D01*
X110275714Y-141549523D02*
X110942380Y-141549523D01*
X109894761Y-141787619D02*
X110609047Y-142025714D01*
X110609047Y-141406666D01*
%TO.C,R3*%
X116022380Y-142406666D02*
X115546190Y-142740000D01*
X116022380Y-142978095D02*
X115022380Y-142978095D01*
X115022380Y-142597142D01*
X115070000Y-142501904D01*
X115117619Y-142454285D01*
X115212857Y-142406666D01*
X115355714Y-142406666D01*
X115450952Y-142454285D01*
X115498571Y-142501904D01*
X115546190Y-142597142D01*
X115546190Y-142978095D01*
X115022380Y-142073333D02*
X115022380Y-141454285D01*
X115403333Y-141787619D01*
X115403333Y-141644761D01*
X115450952Y-141549523D01*
X115498571Y-141501904D01*
X115593809Y-141454285D01*
X115831904Y-141454285D01*
X115927142Y-141501904D01*
X115974761Y-141549523D01*
X116022380Y-141644761D01*
X116022380Y-141930476D01*
X115974761Y-142025714D01*
X115927142Y-142073333D01*
%TO.C,R1*%
X126182380Y-142406666D02*
X125706190Y-142740000D01*
X126182380Y-142978095D02*
X125182380Y-142978095D01*
X125182380Y-142597142D01*
X125230000Y-142501904D01*
X125277619Y-142454285D01*
X125372857Y-142406666D01*
X125515714Y-142406666D01*
X125610952Y-142454285D01*
X125658571Y-142501904D01*
X125706190Y-142597142D01*
X125706190Y-142978095D01*
X126182380Y-141454285D02*
X126182380Y-142025714D01*
X126182380Y-141740000D02*
X125182380Y-141740000D01*
X125325238Y-141835238D01*
X125420476Y-141930476D01*
X125468095Y-142025714D01*
%TO.C,D1*%
X123721904Y-93187380D02*
X123721904Y-92187380D01*
X123960000Y-92187380D01*
X124102857Y-92235000D01*
X124198095Y-92330238D01*
X124245714Y-92425476D01*
X124293333Y-92615952D01*
X124293333Y-92758809D01*
X124245714Y-92949285D01*
X124198095Y-93044523D01*
X124102857Y-93139761D01*
X123960000Y-93187380D01*
X123721904Y-93187380D01*
X125245714Y-93187380D02*
X124674285Y-93187380D01*
X124960000Y-93187380D02*
X124960000Y-92187380D01*
X124864761Y-92330238D01*
X124769523Y-92425476D01*
X124674285Y-92473095D01*
X117848095Y-94772380D02*
X117848095Y-93772380D01*
X118419523Y-94772380D02*
X117990952Y-94200952D01*
X118419523Y-93772380D02*
X117848095Y-94343809D01*
%TO.C,R2*%
X121102380Y-142406666D02*
X120626190Y-142740000D01*
X121102380Y-142978095D02*
X120102380Y-142978095D01*
X120102380Y-142597142D01*
X120150000Y-142501904D01*
X120197619Y-142454285D01*
X120292857Y-142406666D01*
X120435714Y-142406666D01*
X120530952Y-142454285D01*
X120578571Y-142501904D01*
X120626190Y-142597142D01*
X120626190Y-142978095D01*
X120197619Y-142025714D02*
X120150000Y-141978095D01*
X120102380Y-141882857D01*
X120102380Y-141644761D01*
X120150000Y-141549523D01*
X120197619Y-141501904D01*
X120292857Y-141454285D01*
X120388095Y-141454285D01*
X120530952Y-141501904D01*
X121102380Y-142073333D01*
X121102380Y-141454285D01*
%TO.C,R6*%
X113482380Y-132246666D02*
X113006190Y-132580000D01*
X113482380Y-132818095D02*
X112482380Y-132818095D01*
X112482380Y-132437142D01*
X112530000Y-132341904D01*
X112577619Y-132294285D01*
X112672857Y-132246666D01*
X112815714Y-132246666D01*
X112910952Y-132294285D01*
X112958571Y-132341904D01*
X113006190Y-132437142D01*
X113006190Y-132818095D01*
X112482380Y-131389523D02*
X112482380Y-131580000D01*
X112530000Y-131675238D01*
X112577619Y-131722857D01*
X112720476Y-131818095D01*
X112910952Y-131865714D01*
X113291904Y-131865714D01*
X113387142Y-131818095D01*
X113434761Y-131770476D01*
X113482380Y-131675238D01*
X113482380Y-131484761D01*
X113434761Y-131389523D01*
X113387142Y-131341904D01*
X113291904Y-131294285D01*
X113053809Y-131294285D01*
X112958571Y-131341904D01*
X112910952Y-131389523D01*
X112863333Y-131484761D01*
X112863333Y-131675238D01*
X112910952Y-131770476D01*
X112958571Y-131818095D01*
X113053809Y-131865714D01*
%TO.C,J1*%
X135442380Y-103203333D02*
X136156666Y-103203333D01*
X136299523Y-103250952D01*
X136394761Y-103346190D01*
X136442380Y-103489047D01*
X136442380Y-103584285D01*
X136442380Y-102203333D02*
X136442380Y-102774761D01*
X136442380Y-102489047D02*
X135442380Y-102489047D01*
X135585238Y-102584285D01*
X135680476Y-102679523D01*
X135728095Y-102774761D01*
%TO.C,R7*%
X108402380Y-132246666D02*
X107926190Y-132580000D01*
X108402380Y-132818095D02*
X107402380Y-132818095D01*
X107402380Y-132437142D01*
X107450000Y-132341904D01*
X107497619Y-132294285D01*
X107592857Y-132246666D01*
X107735714Y-132246666D01*
X107830952Y-132294285D01*
X107878571Y-132341904D01*
X107926190Y-132437142D01*
X107926190Y-132818095D01*
X107402380Y-131913333D02*
X107402380Y-131246666D01*
X108402380Y-131675238D01*
D11*
%TO.C,U2*%
X131790000Y-141245000D02*
G75*
G03*
X131790000Y-141245000I-100000J0D01*
G01*
D12*
X131120000Y-100255000D02*
X131120000Y-151205000D01*
X120051000Y-151205000D02*
X113340000Y-151205000D01*
X102610000Y-151205000D02*
X102610000Y-100255000D01*
X131120000Y-100255000D02*
X125750000Y-100255000D01*
X102610000Y-151205000D02*
X102610000Y-100255000D01*
X113340000Y-151205000D02*
X102610000Y-151205000D01*
X102610000Y-100255000D02*
X131120000Y-100255000D01*
X131120000Y-100255000D02*
X131120000Y-151205000D01*
X125750000Y-100255000D02*
X108060000Y-100255000D01*
X131120000Y-151205000D02*
X102610000Y-151205000D01*
X131120000Y-151205000D02*
X120051000Y-151205000D01*
X108060000Y-100255000D02*
X102610000Y-100255000D01*
D13*
%TO.C,C2*%
X101640000Y-112897677D02*
G75*
G03*
X101640000Y-112897677I-5120000J0D01*
G01*
X91975000Y-110616677D02*
X95279000Y-110616677D01*
X91455000Y-112497677D02*
X101585000Y-112497677D01*
X91442000Y-112737677D02*
X101598000Y-112737677D01*
X93466000Y-108816677D02*
X99574000Y-108816677D01*
X91782000Y-111056677D02*
X95279000Y-111056677D01*
X93266000Y-108976677D02*
X99774000Y-108976677D01*
X94155000Y-108376677D02*
X98885000Y-108376677D01*
X97761000Y-110976677D02*
X101227000Y-110976677D01*
X97761000Y-111616677D02*
X101438000Y-111616677D01*
X93645000Y-118377323D02*
X93645000Y-117377323D01*
X91452000Y-112537677D02*
X101588000Y-112537677D01*
X97761000Y-111016677D02*
X101243000Y-111016677D01*
X97761000Y-110376677D02*
X100937000Y-110376677D01*
X94311000Y-108296677D02*
X98729000Y-108296677D01*
X93811000Y-108576677D02*
X99229000Y-108576677D01*
X92841000Y-109376677D02*
X95279000Y-109376677D01*
X97761000Y-110616677D02*
X101065000Y-110616677D01*
X97761000Y-111176677D02*
X101303000Y-111176677D01*
X92354000Y-109976677D02*
X95279000Y-109976677D01*
X91523000Y-111976677D02*
X101517000Y-111976677D01*
X93128000Y-109096677D02*
X99912000Y-109096677D01*
X92731000Y-109496677D02*
X95279000Y-109496677D01*
X97761000Y-109296677D02*
X100121000Y-109296677D01*
X91917000Y-110736677D02*
X95279000Y-110736677D01*
X91502000Y-112096677D02*
X101538000Y-112096677D01*
X97761000Y-111336677D02*
X101357000Y-111336677D01*
X97761000Y-109376677D02*
X100199000Y-109376677D01*
X97761000Y-110096677D02*
X100767000Y-110096677D01*
X97761000Y-109456677D02*
X100273000Y-109456677D01*
X91546000Y-111856677D02*
X101494000Y-111856677D01*
X97761000Y-109976677D02*
X100686000Y-109976677D01*
X92326000Y-110016677D02*
X95279000Y-110016677D01*
X93042000Y-109176677D02*
X95279000Y-109176677D01*
X97761000Y-109176677D02*
X99998000Y-109176677D01*
X92080000Y-110416677D02*
X95279000Y-110416677D01*
X91899000Y-110776677D02*
X95279000Y-110776677D01*
X97761000Y-110936677D02*
X101210000Y-110936677D01*
X95458000Y-107896677D02*
X97582000Y-107896677D01*
X92662000Y-109576677D02*
X95279000Y-109576677D01*
X97761000Y-111136677D02*
X101288000Y-111136677D01*
X91646000Y-111456677D02*
X95279000Y-111456677D01*
X94395000Y-108256677D02*
X98645000Y-108256677D01*
X91564000Y-111776677D02*
X101476000Y-111776677D01*
X94010000Y-108456677D02*
X99030000Y-108456677D01*
X97761000Y-110776677D02*
X101141000Y-110776677D01*
X91936000Y-110696677D02*
X95279000Y-110696677D01*
X93875000Y-108536677D02*
X99165000Y-108536677D01*
X97761000Y-109816677D02*
X100570000Y-109816677D01*
X91696000Y-111296677D02*
X95279000Y-111296677D01*
X93690000Y-108656677D02*
X99350000Y-108656677D01*
X97761000Y-109536677D02*
X100344000Y-109536677D01*
X93414000Y-108856677D02*
X99626000Y-108856677D01*
X92197000Y-110216677D02*
X95279000Y-110216677D01*
X92595000Y-109656677D02*
X95279000Y-109656677D01*
X91441000Y-112777677D02*
X101599000Y-112777677D01*
X91475000Y-112297677D02*
X101565000Y-112297677D01*
X95658000Y-107856677D02*
X97382000Y-107856677D01*
X91635000Y-111496677D02*
X95279000Y-111496677D01*
X97761000Y-109496677D02*
X100309000Y-109496677D01*
X92173000Y-110256677D02*
X95279000Y-110256677D01*
X93631000Y-108696677D02*
X99409000Y-108696677D01*
X91846000Y-110896677D02*
X95279000Y-110896677D01*
X97761000Y-109696677D02*
X100477000Y-109696677D01*
X97761000Y-110176677D02*
X100818000Y-110176677D01*
X97761000Y-111576677D02*
X101427000Y-111576677D01*
X97761000Y-111096677D02*
X101274000Y-111096677D01*
X92696000Y-109536677D02*
X95279000Y-109536677D01*
X97761000Y-109656677D02*
X100445000Y-109656677D01*
X94231000Y-108336677D02*
X98809000Y-108336677D01*
X97761000Y-110656677D02*
X101084000Y-110656677D01*
X91766000Y-111096677D02*
X95279000Y-111096677D01*
X92058000Y-110456677D02*
X95279000Y-110456677D01*
X91881000Y-110816677D02*
X95279000Y-110816677D01*
X92299000Y-110056677D02*
X95279000Y-110056677D01*
X91509000Y-112056677D02*
X101531000Y-112056677D01*
X97761000Y-109416677D02*
X100236000Y-109416677D01*
X91752000Y-111136677D02*
X95279000Y-111136677D01*
X92959000Y-109256677D02*
X95279000Y-109256677D01*
X91462000Y-112417677D02*
X101578000Y-112417677D01*
X97761000Y-111056677D02*
X101258000Y-111056677D01*
X97761000Y-110736677D02*
X101123000Y-110736677D01*
X91582000Y-111696677D02*
X101458000Y-111696677D01*
X92804000Y-109416677D02*
X95279000Y-109416677D01*
X97761000Y-110816677D02*
X101159000Y-110816677D01*
X91623000Y-111536677D02*
X95279000Y-111536677D01*
X97761000Y-111496677D02*
X101405000Y-111496677D01*
X92500000Y-109776677D02*
X95279000Y-109776677D01*
X91683000Y-111336677D02*
X95279000Y-111336677D01*
X97761000Y-109216677D02*
X100040000Y-109216677D01*
X94890000Y-108056677D02*
X98150000Y-108056677D01*
X97761000Y-109776677D02*
X100540000Y-109776677D01*
X91480000Y-112257677D02*
X101560000Y-112257677D01*
X93084000Y-109136677D02*
X99956000Y-109136677D01*
X91555000Y-111816677D02*
X101485000Y-111816677D01*
X94483000Y-108216677D02*
X98557000Y-108216677D01*
X92016000Y-110536677D02*
X95279000Y-110536677D01*
X91496000Y-112136677D02*
X101544000Y-112136677D01*
X91443000Y-112697677D02*
X101597000Y-112697677D01*
X91863000Y-110856677D02*
X95279000Y-110856677D01*
X95921000Y-107816677D02*
X97119000Y-107816677D01*
X91737000Y-111176677D02*
X95279000Y-111176677D01*
X97761000Y-110536677D02*
X101024000Y-110536677D01*
X91450000Y-112577677D02*
X101590000Y-112577677D01*
X93520000Y-108776677D02*
X99520000Y-108776677D01*
X97761000Y-109336677D02*
X100160000Y-109336677D01*
X92149000Y-110296677D02*
X95279000Y-110296677D01*
X92919000Y-109296677D02*
X95279000Y-109296677D01*
X91490000Y-112176677D02*
X101550000Y-112176677D01*
X91995000Y-110576677D02*
X95279000Y-110576677D01*
X97761000Y-110056677D02*
X100741000Y-110056677D01*
X91447000Y-112617677D02*
X101593000Y-112617677D01*
X91440000Y-112857677D02*
X101600000Y-112857677D01*
X92880000Y-109336677D02*
X95279000Y-109336677D01*
X92563000Y-109696677D02*
X95279000Y-109696677D01*
X92531000Y-109736677D02*
X95279000Y-109736677D01*
X91956000Y-110656677D02*
X95279000Y-110656677D01*
X91466000Y-112377677D02*
X101574000Y-112377677D01*
X93000000Y-109216677D02*
X95279000Y-109216677D01*
X91658000Y-111416677D02*
X95279000Y-111416677D01*
X92767000Y-109456677D02*
X95279000Y-109456677D01*
X93364000Y-108896677D02*
X99676000Y-108896677D01*
X93145000Y-117877323D02*
X94145000Y-117877323D01*
X91830000Y-110936677D02*
X95279000Y-110936677D01*
X91723000Y-111216677D02*
X95279000Y-111216677D01*
X97761000Y-110416677D02*
X100960000Y-110416677D01*
X97761000Y-111416677D02*
X101382000Y-111416677D01*
X97761000Y-110016677D02*
X100714000Y-110016677D01*
X97761000Y-110136677D02*
X100793000Y-110136677D01*
X97761000Y-110256677D02*
X100867000Y-110256677D01*
X97761000Y-111376677D02*
X101370000Y-111376677D01*
X95142000Y-107976677D02*
X97898000Y-107976677D01*
X97761000Y-111216677D02*
X101317000Y-111216677D01*
X97761000Y-111256677D02*
X101331000Y-111256677D01*
X95010000Y-108016677D02*
X98030000Y-108016677D01*
X97761000Y-111456677D02*
X101394000Y-111456677D01*
X91813000Y-110976677D02*
X95279000Y-110976677D01*
X91670000Y-111376677D02*
X95279000Y-111376677D01*
X97761000Y-109936677D02*
X100658000Y-109936677D01*
X91470000Y-112337677D02*
X101570000Y-112337677D01*
X92470000Y-109816677D02*
X95279000Y-109816677D01*
X94778000Y-108096677D02*
X98262000Y-108096677D01*
X91797000Y-111016677D02*
X95279000Y-111016677D01*
X91458000Y-112457677D02*
X101582000Y-112457677D01*
X91602000Y-111616677D02*
X95279000Y-111616677D01*
X91440000Y-112817677D02*
X101600000Y-112817677D01*
X97761000Y-110856677D02*
X101177000Y-110856677D01*
X95290000Y-107936677D02*
X97750000Y-107936677D01*
X94576000Y-108176677D02*
X98464000Y-108176677D01*
X97761000Y-110576677D02*
X101045000Y-110576677D01*
X92410000Y-109896677D02*
X95279000Y-109896677D01*
X91485000Y-112217677D02*
X101555000Y-112217677D01*
X91445000Y-112657677D02*
X101595000Y-112657677D01*
X97761000Y-109576677D02*
X100378000Y-109576677D01*
X91573000Y-111736677D02*
X101467000Y-111736677D01*
X93941000Y-108496677D02*
X99099000Y-108496677D01*
X94081000Y-108416677D02*
X98959000Y-108416677D01*
X92440000Y-109856677D02*
X95279000Y-109856677D01*
X92103000Y-110376677D02*
X95279000Y-110376677D01*
X97761000Y-111296677D02*
X101344000Y-111296677D01*
X92247000Y-110136677D02*
X95279000Y-110136677D01*
X91530000Y-111936677D02*
X101510000Y-111936677D01*
X97761000Y-110336677D02*
X100915000Y-110336677D01*
X91613000Y-111576677D02*
X95279000Y-111576677D01*
X91592000Y-111656677D02*
X101448000Y-111656677D01*
X91516000Y-112016677D02*
X101524000Y-112016677D01*
X97761000Y-109616677D02*
X100412000Y-109616677D01*
X97761000Y-110456677D02*
X100982000Y-110456677D01*
X97761000Y-110216677D02*
X100843000Y-110216677D01*
X92222000Y-110176677D02*
X95279000Y-110176677D01*
X91538000Y-111896677D02*
X101502000Y-111896677D01*
X91709000Y-111256677D02*
X95279000Y-111256677D01*
X92628000Y-109616677D02*
X95279000Y-109616677D01*
X92382000Y-109936677D02*
X95279000Y-109936677D01*
X91440000Y-112897677D02*
X101600000Y-112897677D01*
X97761000Y-110496677D02*
X101003000Y-110496677D01*
X93219000Y-109016677D02*
X99821000Y-109016677D01*
X97761000Y-109736677D02*
X100509000Y-109736677D01*
X92273000Y-110096677D02*
X95279000Y-110096677D01*
X93575000Y-108736677D02*
X99465000Y-108736677D01*
X97761000Y-110696677D02*
X101104000Y-110696677D01*
X92037000Y-110496677D02*
X95279000Y-110496677D01*
X97761000Y-109856677D02*
X100600000Y-109856677D01*
X93750000Y-108616677D02*
X99290000Y-108616677D01*
X92125000Y-110336677D02*
X95279000Y-110336677D01*
X97761000Y-109256677D02*
X100081000Y-109256677D01*
X94674000Y-108136677D02*
X98366000Y-108136677D01*
X93173000Y-109056677D02*
X99867000Y-109056677D01*
X93314000Y-108936677D02*
X99726000Y-108936677D01*
X97761000Y-110896677D02*
X101194000Y-110896677D01*
X97761000Y-109896677D02*
X100630000Y-109896677D01*
X97761000Y-110296677D02*
X100891000Y-110296677D01*
X97761000Y-111536677D02*
X101417000Y-111536677D01*
%TO.C,L1*%
X101430000Y-101600000D02*
G75*
G03*
X101430000Y-101600000I-4870000J0D01*
G01*
%TO.C,U1*%
X111480000Y-98520000D02*
X111480000Y-97010000D01*
X114751000Y-93879000D02*
X104510000Y-93879000D01*
X107780000Y-98520000D02*
X107780000Y-97010000D01*
X114751000Y-97010000D02*
X104510000Y-97010000D01*
X114751000Y-98520000D02*
X114751000Y-93879000D01*
X104510000Y-98520000D02*
X104510000Y-93879000D01*
X114751000Y-98520000D02*
X104510000Y-98520000D01*
%TO.C,R8*%
X122150000Y-128810000D02*
X121820000Y-128810000D01*
X124230000Y-128810000D02*
X124560000Y-128810000D01*
X121820000Y-128810000D02*
X121820000Y-135350000D01*
X124560000Y-135350000D02*
X124230000Y-135350000D01*
X124560000Y-128810000D02*
X124560000Y-135350000D01*
X121820000Y-135350000D02*
X122150000Y-135350000D01*
%TO.C,J5*%
X90750000Y-119180000D02*
X89010000Y-119180000D01*
X96370000Y-134240000D02*
X89250000Y-134240000D01*
X89010000Y-119180000D02*
X89010000Y-120680000D01*
X89250000Y-119420000D02*
X89250000Y-134240000D01*
X96370000Y-119420000D02*
X89250000Y-119420000D01*
X96370000Y-119420000D02*
X96370000Y-134240000D01*
X90810000Y-119420000D02*
X90810000Y-134240000D01*
X93518000Y-120148000D02*
G75*
G03*
X92302258Y-120147891I-608000J-1432000D01*
G01*
X94342000Y-122188000D02*
G75*
G03*
X94342109Y-120972258I-1432000J608000D01*
G01*
X91478000Y-120972000D02*
G75*
G03*
X91354507Y-121607011I1431988J-607998D01*
G01*
X92302000Y-123012000D02*
G75*
G03*
X93517742Y-123012109I607999J1432003D01*
G01*
X91355000Y-121580000D02*
G75*
G03*
X91478615Y-122187587I1555000J0D01*
G01*
X94465000Y-125080000D02*
G75*
G03*
X94465000Y-125080000I-1555000J0D01*
G01*
X94465000Y-132080000D02*
G75*
G03*
X94465000Y-132080000I-1555000J0D01*
G01*
X94465000Y-128580000D02*
G75*
G03*
X94465000Y-128580000I-1555000J0D01*
G01*
%TO.C,J4*%
X94365000Y-145260000D02*
G75*
G03*
X94365000Y-145260000I-1555000J0D01*
G01*
X94365000Y-148760000D02*
G75*
G03*
X94365000Y-148760000I-1555000J0D01*
G01*
X94365000Y-141760000D02*
G75*
G03*
X94365000Y-141760000I-1555000J0D01*
G01*
X91255000Y-138260000D02*
G75*
G03*
X91378615Y-138867587I1555000J0D01*
G01*
X92202000Y-139692000D02*
G75*
G03*
X93417742Y-139692109I607999J1432003D01*
G01*
X91378000Y-137652000D02*
G75*
G03*
X91254507Y-138287011I1431988J-607998D01*
G01*
X94242000Y-138868000D02*
G75*
G03*
X94242109Y-137652258I-1432000J608000D01*
G01*
X93418000Y-136828000D02*
G75*
G03*
X92202258Y-136827891I-608000J-1432000D01*
G01*
X90710000Y-136100000D02*
X90710000Y-150920000D01*
X96270000Y-136100000D02*
X96270000Y-150920000D01*
X96270000Y-136100000D02*
X89150000Y-136100000D01*
X89150000Y-136100000D02*
X89150000Y-150920000D01*
X88910000Y-135860000D02*
X88910000Y-137360000D01*
X96270000Y-150920000D02*
X89150000Y-150920000D01*
X90650000Y-135860000D02*
X88910000Y-135860000D01*
%TO.C,J3*%
X143130000Y-134650000D02*
X144870000Y-134650000D01*
X137510000Y-119590000D02*
X144630000Y-119590000D01*
X144870000Y-134650000D02*
X144870000Y-133150000D01*
X144630000Y-134410000D02*
X144630000Y-119590000D01*
X137510000Y-134410000D02*
X144630000Y-134410000D01*
X137510000Y-134410000D02*
X137510000Y-119590000D01*
X143070000Y-134410000D02*
X143070000Y-119590000D01*
X140362000Y-133682000D02*
G75*
G03*
X141577742Y-133682109I608000J1432000D01*
G01*
X139538000Y-131642000D02*
G75*
G03*
X139537891Y-132857742I1432000J-608000D01*
G01*
X142402000Y-132858000D02*
G75*
G03*
X142525493Y-132222989I-1431988J607998D01*
G01*
X141578000Y-130818000D02*
G75*
G03*
X140362258Y-130817891I-607999J-1432003D01*
G01*
X142525000Y-132250000D02*
G75*
G03*
X142401385Y-131642413I-1555000J0D01*
G01*
X142525000Y-128750000D02*
G75*
G03*
X142525000Y-128750000I-1555000J0D01*
G01*
X142525000Y-121750000D02*
G75*
G03*
X142525000Y-121750000I-1555000J0D01*
G01*
X142525000Y-125250000D02*
G75*
G03*
X142525000Y-125250000I-1555000J0D01*
G01*
%TO.C,J2*%
X143230000Y-150990000D02*
X144970000Y-150990000D01*
X137610000Y-135930000D02*
X144730000Y-135930000D01*
X144970000Y-150990000D02*
X144970000Y-149490000D01*
X144730000Y-150750000D02*
X144730000Y-135930000D01*
X137610000Y-150750000D02*
X144730000Y-150750000D01*
X137610000Y-150750000D02*
X137610000Y-135930000D01*
X143170000Y-150750000D02*
X143170000Y-135930000D01*
X140462000Y-150022000D02*
G75*
G03*
X141677742Y-150022109I608000J1432000D01*
G01*
X139638000Y-147982000D02*
G75*
G03*
X139637891Y-149197742I1432000J-608000D01*
G01*
X142502000Y-149198000D02*
G75*
G03*
X142625493Y-148562989I-1431988J607998D01*
G01*
X141678000Y-147158000D02*
G75*
G03*
X140462258Y-147157891I-607999J-1432003D01*
G01*
X142625000Y-148590000D02*
G75*
G03*
X142501385Y-147982413I-1555000J0D01*
G01*
X142625000Y-145090000D02*
G75*
G03*
X142625000Y-145090000I-1555000J0D01*
G01*
X142625000Y-138090000D02*
G75*
G03*
X142625000Y-138090000I-1555000J0D01*
G01*
X142625000Y-141590000D02*
G75*
G03*
X142625000Y-141590000I-1555000J0D01*
G01*
%TO.C,C1*%
X145190000Y-113820000D02*
G75*
G03*
X145190000Y-113820000I-4120000J0D01*
G01*
X143977000Y-116701000D02*
X138163000Y-116701000D01*
X145094000Y-114500000D02*
X137046000Y-114500000D01*
X145149000Y-113940000D02*
X136991000Y-113940000D01*
X144959000Y-115061000D02*
X142110000Y-115061000D01*
X144792000Y-115501000D02*
X142110000Y-115501000D01*
X145122000Y-114300000D02*
X137018000Y-114300000D01*
X140030000Y-116101000D02*
X137678000Y-116101000D01*
X140030000Y-114821000D02*
X137113000Y-114821000D01*
X140030000Y-114541000D02*
X137053000Y-114541000D01*
X140030000Y-114581000D02*
X137060000Y-114581000D01*
X140030000Y-115101000D02*
X137193000Y-115101000D01*
X144610000Y-115861000D02*
X142110000Y-115861000D01*
X140030000Y-115261000D02*
X137249000Y-115261000D01*
X140030000Y-114901000D02*
X137134000Y-114901000D01*
X140030000Y-116461000D02*
X137946000Y-116461000D01*
X140030000Y-116421000D02*
X137914000Y-116421000D01*
X144462000Y-116101000D02*
X142110000Y-116101000D01*
X140030000Y-116141000D02*
X137705000Y-116141000D01*
X142523000Y-117661000D02*
X139617000Y-117661000D01*
X140030000Y-116541000D02*
X138015000Y-116541000D01*
X144290000Y-116341000D02*
X142110000Y-116341000D01*
X145072000Y-114621000D02*
X142110000Y-114621000D01*
X145064000Y-114661000D02*
X142110000Y-114661000D01*
X143767000Y-116901000D02*
X138373000Y-116901000D01*
X144774000Y-115541000D02*
X142110000Y-115541000D01*
X143385000Y-109410302D02*
X143385000Y-110210302D01*
X142018000Y-117821000D02*
X140122000Y-117821000D01*
X145146000Y-114020000D02*
X136994000Y-114020000D01*
X140030000Y-115141000D02*
X137207000Y-115141000D01*
X140030000Y-116021000D02*
X137626000Y-116021000D01*
X140030000Y-114781000D02*
X137103000Y-114781000D01*
X143357000Y-117221000D02*
X138783000Y-117221000D01*
X140030000Y-115621000D02*
X137404000Y-115621000D01*
X140030000Y-115181000D02*
X137220000Y-115181000D01*
X145006000Y-114901000D02*
X142110000Y-114901000D01*
X143298000Y-117261000D02*
X138842000Y-117261000D01*
X144320000Y-116301000D02*
X142110000Y-116301000D01*
X145144000Y-114060000D02*
X136996000Y-114060000D01*
X144844000Y-115381000D02*
X142110000Y-115381000D01*
X140030000Y-115541000D02*
X137366000Y-115541000D01*
X140030000Y-116301000D02*
X137820000Y-116301000D01*
X143236000Y-117301000D02*
X138904000Y-117301000D01*
X145150000Y-113820000D02*
X136990000Y-113820000D01*
X140030000Y-115301000D02*
X137265000Y-115301000D01*
X143854000Y-116821000D02*
X138286000Y-116821000D01*
X145037000Y-114781000D02*
X142110000Y-114781000D01*
X140030000Y-115701000D02*
X137443000Y-115701000D01*
X145135000Y-114180000D02*
X137005000Y-114180000D01*
X140030000Y-115901000D02*
X137553000Y-115901000D01*
X144350000Y-116261000D02*
X142110000Y-116261000D01*
X144984000Y-114981000D02*
X142110000Y-114981000D01*
X145150000Y-113860000D02*
X136990000Y-113860000D01*
X140030000Y-115821000D02*
X137508000Y-115821000D01*
X145131000Y-114220000D02*
X137009000Y-114220000D01*
X144408000Y-116181000D02*
X142110000Y-116181000D01*
X142416000Y-117701000D02*
X139724000Y-117701000D01*
X144259000Y-116381000D02*
X142110000Y-116381000D01*
X144676000Y-115741000D02*
X142110000Y-115741000D01*
X140030000Y-116061000D02*
X137652000Y-116061000D01*
X145138000Y-114140000D02*
X137002000Y-114140000D01*
X142299000Y-117741000D02*
X139841000Y-117741000D01*
X140030000Y-114701000D02*
X137085000Y-114701000D01*
X140030000Y-116181000D02*
X137732000Y-116181000D01*
X143785000Y-109810302D02*
X142985000Y-109810302D01*
X142960000Y-117461000D02*
X139180000Y-117461000D01*
X144488000Y-116061000D02*
X142110000Y-116061000D01*
X145127000Y-114260000D02*
X137013000Y-114260000D01*
X140030000Y-115941000D02*
X137577000Y-115941000D01*
X140030000Y-115581000D02*
X137384000Y-115581000D01*
X145055000Y-114701000D02*
X142110000Y-114701000D01*
X142801000Y-117541000D02*
X139339000Y-117541000D01*
X144995000Y-114941000D02*
X142110000Y-114941000D01*
X144810000Y-115461000D02*
X142110000Y-115461000D01*
X143811000Y-116861000D02*
X138329000Y-116861000D01*
X144379000Y-116221000D02*
X142110000Y-116221000D01*
X140030000Y-115661000D02*
X137423000Y-115661000D01*
X144563000Y-115941000D02*
X142110000Y-115941000D01*
X144905000Y-115221000D02*
X142110000Y-115221000D01*
X143104000Y-117381000D02*
X139036000Y-117381000D01*
X144539000Y-115981000D02*
X142110000Y-115981000D01*
X142715000Y-117581000D02*
X139425000Y-117581000D01*
X140030000Y-115341000D02*
X137280000Y-115341000D01*
X144920000Y-115181000D02*
X142110000Y-115181000D01*
X142622000Y-117621000D02*
X139518000Y-117621000D01*
X142168000Y-117781000D02*
X139972000Y-117781000D01*
X140030000Y-115981000D02*
X137601000Y-115981000D01*
X144053000Y-116621000D02*
X138087000Y-116621000D01*
X140030000Y-115061000D02*
X137181000Y-115061000D01*
X143896000Y-116781000D02*
X138244000Y-116781000D01*
X144756000Y-115581000D02*
X142110000Y-115581000D01*
X144435000Y-116141000D02*
X142110000Y-116141000D01*
X140030000Y-115421000D02*
X137313000Y-115421000D01*
X143470000Y-117141000D02*
X138670000Y-117141000D01*
X145107000Y-114420000D02*
X137033000Y-114420000D01*
X144827000Y-115421000D02*
X142110000Y-115421000D01*
X140030000Y-114621000D02*
X137068000Y-114621000D01*
X144972000Y-115021000D02*
X142110000Y-115021000D01*
X145147000Y-113980000D02*
X136993000Y-113980000D01*
X140030000Y-115861000D02*
X137530000Y-115861000D01*
X144125000Y-116541000D02*
X142110000Y-116541000D01*
X144654000Y-115781000D02*
X142110000Y-115781000D01*
X144717000Y-115661000D02*
X142110000Y-115661000D01*
X145087000Y-114541000D02*
X142110000Y-114541000D01*
X140030000Y-116221000D02*
X137761000Y-116221000D01*
X144089000Y-116581000D02*
X142110000Y-116581000D01*
X145046000Y-114741000D02*
X142110000Y-114741000D01*
X145017000Y-114861000D02*
X142110000Y-114861000D01*
X144194000Y-116461000D02*
X142110000Y-116461000D01*
X144875000Y-115301000D02*
X142110000Y-115301000D01*
X143524000Y-117101000D02*
X138616000Y-117101000D01*
X143721000Y-116941000D02*
X138419000Y-116941000D01*
X144015000Y-116661000D02*
X138125000Y-116661000D01*
X145141000Y-114100000D02*
X136999000Y-114100000D01*
X140030000Y-116341000D02*
X137850000Y-116341000D01*
X140030000Y-115381000D02*
X137296000Y-115381000D01*
X144514000Y-116021000D02*
X142110000Y-116021000D01*
X145100000Y-114460000D02*
X137040000Y-114460000D01*
X143626000Y-117021000D02*
X138514000Y-117021000D01*
X140030000Y-116261000D02*
X137790000Y-116261000D01*
X144587000Y-115901000D02*
X142110000Y-115901000D01*
X140030000Y-115781000D02*
X137486000Y-115781000D01*
X145118000Y-114340000D02*
X137022000Y-114340000D01*
X140030000Y-115461000D02*
X137330000Y-115461000D01*
X144697000Y-115701000D02*
X142110000Y-115701000D01*
X143674000Y-116981000D02*
X138466000Y-116981000D01*
X144947000Y-115101000D02*
X142110000Y-115101000D01*
X140030000Y-114941000D02*
X137145000Y-114941000D01*
X145080000Y-114581000D02*
X142110000Y-114581000D01*
X144860000Y-115341000D02*
X142110000Y-115341000D01*
X144160000Y-116501000D02*
X142110000Y-116501000D01*
X143034000Y-117421000D02*
X139106000Y-117421000D01*
X144226000Y-116421000D02*
X142110000Y-116421000D01*
X145112000Y-114380000D02*
X137028000Y-114380000D01*
X140030000Y-114741000D02*
X137094000Y-114741000D01*
X140030000Y-114861000D02*
X137123000Y-114861000D01*
X145027000Y-114821000D02*
X142110000Y-114821000D01*
X143172000Y-117341000D02*
X138968000Y-117341000D01*
X140030000Y-114981000D02*
X137156000Y-114981000D01*
X140030000Y-115021000D02*
X137168000Y-115021000D01*
X140030000Y-116501000D02*
X137980000Y-116501000D01*
X143937000Y-116741000D02*
X138203000Y-116741000D01*
X143575000Y-117061000D02*
X138565000Y-117061000D01*
X141838000Y-117861000D02*
X140302000Y-117861000D01*
X144632000Y-115821000D02*
X142110000Y-115821000D01*
X140030000Y-115501000D02*
X137348000Y-115501000D01*
X140030000Y-116581000D02*
X138051000Y-116581000D01*
X140030000Y-116381000D02*
X137881000Y-116381000D01*
X142883000Y-117501000D02*
X139257000Y-117501000D01*
X144891000Y-115261000D02*
X142110000Y-115261000D01*
X140030000Y-115221000D02*
X137235000Y-115221000D01*
X141603000Y-117901000D02*
X140537000Y-117901000D01*
X145150000Y-113900000D02*
X136990000Y-113900000D01*
X144736000Y-115621000D02*
X142110000Y-115621000D01*
X143415000Y-117181000D02*
X138725000Y-117181000D01*
X140030000Y-114661000D02*
X137076000Y-114661000D01*
X144933000Y-115141000D02*
X142110000Y-115141000D01*
X140030000Y-115741000D02*
X137464000Y-115741000D01*
%TO.C,R5*%
X117070000Y-128810000D02*
X116740000Y-128810000D01*
X119150000Y-128810000D02*
X119480000Y-128810000D01*
X116740000Y-128810000D02*
X116740000Y-135350000D01*
X116740000Y-135350000D02*
X117070000Y-135350000D01*
X119480000Y-128810000D02*
X119480000Y-135350000D01*
X119480000Y-135350000D02*
X119150000Y-135350000D01*
%TO.C,R4*%
X111530000Y-138970000D02*
X111860000Y-138970000D01*
X111860000Y-145510000D02*
X111530000Y-145510000D01*
X111860000Y-138970000D02*
X111860000Y-145510000D01*
X109120000Y-138970000D02*
X109120000Y-145510000D01*
X109450000Y-138970000D02*
X109120000Y-138970000D01*
X109120000Y-145510000D02*
X109450000Y-145510000D01*
%TO.C,R3*%
X114200000Y-138970000D02*
X114200000Y-145510000D01*
X116940000Y-145510000D02*
X116610000Y-145510000D01*
X114200000Y-145510000D02*
X114530000Y-145510000D01*
X116940000Y-138970000D02*
X116940000Y-145510000D01*
X114530000Y-138970000D02*
X114200000Y-138970000D01*
X116610000Y-138970000D02*
X116940000Y-138970000D01*
%TO.C,R1*%
X126770000Y-138970000D02*
X127100000Y-138970000D01*
X124360000Y-138970000D02*
X124360000Y-145510000D01*
X124360000Y-145510000D02*
X124690000Y-145510000D01*
X124690000Y-138970000D02*
X124360000Y-138970000D01*
X127100000Y-145510000D02*
X126770000Y-145510000D01*
X127100000Y-138970000D02*
X127100000Y-145510000D01*
%TO.C,D1*%
X129340000Y-93735000D02*
X119580000Y-93735000D01*
X121248000Y-93735000D02*
X121248000Y-99305000D01*
X119580000Y-93735000D02*
X119580000Y-99305000D01*
X129370000Y-96520000D02*
X129340000Y-96520000D01*
X119580000Y-99305000D02*
X129340000Y-99305000D01*
X119550000Y-96520000D02*
X119580000Y-96520000D01*
X129340000Y-99305000D02*
X129340000Y-93735000D01*
X121128000Y-93735000D02*
X121128000Y-99305000D01*
X121008000Y-93735000D02*
X121008000Y-99305000D01*
%TO.C,R2*%
X119280000Y-138970000D02*
X119280000Y-145510000D01*
X122020000Y-138970000D02*
X122020000Y-145510000D01*
X122020000Y-145510000D02*
X121690000Y-145510000D01*
X119280000Y-145510000D02*
X119610000Y-145510000D01*
X119610000Y-138970000D02*
X119280000Y-138970000D01*
X121690000Y-138970000D02*
X122020000Y-138970000D01*
%TO.C,R6*%
X114400000Y-135350000D02*
X114070000Y-135350000D01*
X114070000Y-128810000D02*
X114400000Y-128810000D01*
X111660000Y-128810000D02*
X111660000Y-135350000D01*
X111660000Y-135350000D02*
X111990000Y-135350000D01*
X111990000Y-128810000D02*
X111660000Y-128810000D01*
X114400000Y-128810000D02*
X114400000Y-135350000D01*
%TO.C,J1*%
X137260000Y-97790000D02*
X137260000Y-107950000D01*
X144880000Y-107950000D02*
X144880000Y-97790000D01*
X143610000Y-97790000D02*
X143610000Y-107950000D01*
X144880000Y-97790000D02*
X137260000Y-97790000D01*
X137260000Y-107950000D02*
X144880000Y-107950000D01*
%TO.C,R7*%
X109320000Y-128810000D02*
X109320000Y-135350000D01*
X106580000Y-135350000D02*
X106910000Y-135350000D01*
X106580000Y-128810000D02*
X106580000Y-135350000D01*
X108990000Y-128810000D02*
X109320000Y-128810000D01*
X109320000Y-135350000D02*
X108990000Y-135350000D01*
X106910000Y-128810000D02*
X106580000Y-128810000D01*
%TD*%
M02*
