%TF.GenerationSoftware,KiCad,Pcbnew,(6.0.9)*%
%TF.CreationDate,2023-01-01T04:27:09+02:00*%
%TF.ProjectId,ESP32_LEDCONTROLLER,45535033-325f-44c4-9544-434f4e54524f,rev?*%
%TF.SameCoordinates,Original*%
%TF.FileFunction,Drillmap*%
%TF.FilePolarity,Positive*%
%FSLAX45Y45*%
G04 Gerber Fmt 4.5, Leading zero omitted, Abs format (unit mm)*
G04 Created by KiCad (PCBNEW (6.0.9)) date 2023-01-01 04:27:09*
%MOMM*%
%LPD*%
G01*
G04 APERTURE LIST*
%ADD10C,0.100000*%
%ADD11C,0.200000*%
%ADD12C,0.080000*%
%ADD13C,0.102000*%
%ADD14C,0.110000*%
%ADD15C,0.120000*%
%ADD16C,0.130000*%
%ADD17C,0.152000*%
G04 APERTURE END LIST*
D10*
X14668500Y-15494000D02*
G75*
G03*
X14668500Y-15494000I-127000J0D01*
G01*
X14160500Y-9461500D02*
G75*
G03*
X14160500Y-9461500I-127000J0D01*
G01*
X9398000Y-9461500D02*
G75*
G03*
X9398000Y-9461500I-127000J0D01*
G01*
X8953500Y-15494000D02*
G75*
G03*
X8953500Y-15494000I-127000J0D01*
G01*
X14732000Y-9715500D02*
X14732000Y-15684500D01*
X8636000Y-15684500D01*
X8636000Y-11747500D01*
X8890000Y-11493500D01*
X8890000Y-9398000D01*
X9334500Y-9017000D01*
X13970000Y-9017000D01*
X14732000Y-9715500D01*
D11*
D12*
X10755000Y-12787000D02*
X10835000Y-12867000D01*
X10835000Y-12787000D02*
X10755000Y-12867000D01*
X10755000Y-13549000D02*
X10835000Y-13629000D01*
X10835000Y-13549000D02*
X10755000Y-13629000D01*
X11009000Y-13803000D02*
X11089000Y-13883000D01*
X11089000Y-13803000D02*
X11009000Y-13883000D01*
X11009000Y-14565000D02*
X11089000Y-14645000D01*
X11089000Y-14565000D02*
X11009000Y-14645000D01*
X11263000Y-12787000D02*
X11343000Y-12867000D01*
X11343000Y-12787000D02*
X11263000Y-12867000D01*
X11263000Y-13549000D02*
X11343000Y-13629000D01*
X11343000Y-13549000D02*
X11263000Y-13629000D01*
X11517000Y-13803000D02*
X11597000Y-13883000D01*
X11597000Y-13803000D02*
X11517000Y-13883000D01*
X11517000Y-14565000D02*
X11597000Y-14645000D01*
X11597000Y-14565000D02*
X11517000Y-14645000D01*
X11771000Y-12787000D02*
X11851000Y-12867000D01*
X11851000Y-12787000D02*
X11771000Y-12867000D01*
X11771000Y-13549000D02*
X11851000Y-13629000D01*
X11851000Y-13549000D02*
X11771000Y-13629000D01*
X12025000Y-13803000D02*
X12105000Y-13883000D01*
X12105000Y-13803000D02*
X12025000Y-13883000D01*
X12025000Y-14565000D02*
X12105000Y-14645000D01*
X12105000Y-14565000D02*
X12025000Y-14645000D01*
X12279000Y-12787000D02*
X12359000Y-12867000D01*
X12359000Y-12787000D02*
X12279000Y-12867000D01*
X12279000Y-13549000D02*
X12359000Y-13629000D01*
X12359000Y-13549000D02*
X12279000Y-13629000D01*
X12533000Y-13803000D02*
X12613000Y-13883000D01*
X12613000Y-13803000D02*
X12533000Y-13883000D01*
X12533000Y-14565000D02*
X12613000Y-14645000D01*
X12613000Y-14565000D02*
X12533000Y-14645000D01*
X14067000Y-11167000D02*
X14147000Y-11247000D01*
X14147000Y-11167000D02*
X14067000Y-11247000D01*
X14067000Y-11517000D02*
X14147000Y-11597000D01*
X14147000Y-11517000D02*
X14067000Y-11597000D01*
D10*
X9702000Y-11039768D02*
G75*
G03*
X9702000Y-11039768I-50000J0D01*
G01*
X9702000Y-11539768D02*
G75*
G03*
X9702000Y-11539768I-50000J0D01*
G01*
D13*
X10414000Y-10517500D02*
X10414000Y-10619500D01*
X10363000Y-10568500D02*
X10465000Y-10568500D01*
X10414000Y-10771500D02*
X10414000Y-10873500D01*
X10363000Y-10822500D02*
X10465000Y-10822500D01*
X10414000Y-11025500D02*
X10414000Y-11127500D01*
X10363000Y-11076500D02*
X10465000Y-11076500D01*
X10414000Y-11279500D02*
X10414000Y-11381500D01*
X10363000Y-11330500D02*
X10465000Y-11330500D01*
X10414000Y-11533500D02*
X10414000Y-11635500D01*
X10363000Y-11584500D02*
X10465000Y-11584500D01*
X10414000Y-11787500D02*
X10414000Y-11889500D01*
X10363000Y-11838500D02*
X10465000Y-11838500D01*
X10414000Y-12041500D02*
X10414000Y-12143500D01*
X10363000Y-12092500D02*
X10465000Y-12092500D01*
X10414000Y-12295500D02*
X10414000Y-12397500D01*
X10363000Y-12346500D02*
X10465000Y-12346500D01*
X10414000Y-12549500D02*
X10414000Y-12651500D01*
X10363000Y-12600500D02*
X10465000Y-12600500D01*
X10414000Y-12803500D02*
X10414000Y-12905500D01*
X10363000Y-12854500D02*
X10465000Y-12854500D01*
X10414000Y-13057500D02*
X10414000Y-13159500D01*
X10363000Y-13108500D02*
X10465000Y-13108500D01*
X10414000Y-13311500D02*
X10414000Y-13413500D01*
X10363000Y-13362500D02*
X10465000Y-13362500D01*
X10414000Y-13565500D02*
X10414000Y-13667500D01*
X10363000Y-13616500D02*
X10465000Y-13616500D01*
X10414000Y-13819500D02*
X10414000Y-13921500D01*
X10363000Y-13870500D02*
X10465000Y-13870500D01*
X10414000Y-14073500D02*
X10414000Y-14175500D01*
X10363000Y-14124500D02*
X10465000Y-14124500D01*
X12954000Y-10517500D02*
X12954000Y-10619500D01*
X12903000Y-10568500D02*
X13005000Y-10568500D01*
X12954000Y-10771500D02*
X12954000Y-10873500D01*
X12903000Y-10822500D02*
X13005000Y-10822500D01*
X12954000Y-11025500D02*
X12954000Y-11127500D01*
X12903000Y-11076500D02*
X13005000Y-11076500D01*
X12954000Y-11279500D02*
X12954000Y-11381500D01*
X12903000Y-11330500D02*
X13005000Y-11330500D01*
X12954000Y-11533500D02*
X12954000Y-11635500D01*
X12903000Y-11584500D02*
X13005000Y-11584500D01*
X12954000Y-11787500D02*
X12954000Y-11889500D01*
X12903000Y-11838500D02*
X13005000Y-11838500D01*
X12954000Y-12041500D02*
X12954000Y-12143500D01*
X12903000Y-12092500D02*
X13005000Y-12092500D01*
X12954000Y-12295500D02*
X12954000Y-12397500D01*
X12903000Y-12346500D02*
X13005000Y-12346500D01*
X12954000Y-12549500D02*
X12954000Y-12651500D01*
X12903000Y-12600500D02*
X13005000Y-12600500D01*
X12954000Y-12803500D02*
X12954000Y-12905500D01*
X12903000Y-12854500D02*
X13005000Y-12854500D01*
X12954000Y-13057500D02*
X12954000Y-13159500D01*
X12903000Y-13108500D02*
X13005000Y-13108500D01*
X12954000Y-13311500D02*
X12954000Y-13413500D01*
X12903000Y-13362500D02*
X13005000Y-13362500D01*
X12954000Y-13565500D02*
X12954000Y-13667500D01*
X12903000Y-13616500D02*
X13005000Y-13616500D01*
X12954000Y-13819500D02*
X12954000Y-13921500D01*
X12903000Y-13870500D02*
X13005000Y-13870500D01*
X12954000Y-14073500D02*
X12954000Y-14175500D01*
X12903000Y-14124500D02*
X13005000Y-14124500D01*
D14*
X10661891Y-9563891D02*
X10661891Y-9486109D01*
X10584109Y-9486109D01*
X10584109Y-9563891D01*
X10661891Y-9563891D01*
X10831891Y-9563891D02*
X10831891Y-9486109D01*
X10754109Y-9486109D01*
X10754109Y-9563891D01*
X10831891Y-9563891D01*
X11001891Y-9563891D02*
X11001891Y-9486109D01*
X10924109Y-9486109D01*
X10924109Y-9563891D01*
X11001891Y-9563891D01*
X11171891Y-9563891D02*
X11171891Y-9486109D01*
X11094109Y-9486109D01*
X11094109Y-9563891D01*
X11171891Y-9563891D01*
X11341891Y-9563891D02*
X11341891Y-9486109D01*
X11264109Y-9486109D01*
X11264109Y-9563891D01*
X11341891Y-9563891D01*
D15*
X9281000Y-13886000D02*
X9341000Y-13826000D01*
X9281000Y-13766000D01*
X9221000Y-13826000D01*
X9281000Y-13886000D01*
X9281000Y-14236000D02*
X9341000Y-14176000D01*
X9281000Y-14116000D01*
X9221000Y-14176000D01*
X9281000Y-14236000D01*
X9281000Y-14586000D02*
X9341000Y-14526000D01*
X9281000Y-14466000D01*
X9221000Y-14526000D01*
X9281000Y-14586000D01*
X9281000Y-14936000D02*
X9341000Y-14876000D01*
X9281000Y-14816000D01*
X9221000Y-14876000D01*
X9281000Y-14936000D01*
X9291000Y-12218000D02*
X9351000Y-12158000D01*
X9291000Y-12098000D01*
X9231000Y-12158000D01*
X9291000Y-12218000D01*
X9291000Y-12568000D02*
X9351000Y-12508000D01*
X9291000Y-12448000D01*
X9231000Y-12508000D01*
X9291000Y-12568000D01*
X9291000Y-12918000D02*
X9351000Y-12858000D01*
X9291000Y-12798000D01*
X9231000Y-12858000D01*
X9291000Y-12918000D01*
X9291000Y-13268000D02*
X9351000Y-13208000D01*
X9291000Y-13148000D01*
X9231000Y-13208000D01*
X9291000Y-13268000D01*
X11811000Y-9712000D02*
X11871000Y-9652000D01*
X11811000Y-9592000D01*
X11751000Y-9652000D01*
X11811000Y-9712000D01*
X13081000Y-9712000D02*
X13141000Y-9652000D01*
X13081000Y-9592000D01*
X13021000Y-9652000D01*
X13081000Y-9712000D01*
X14097000Y-12235000D02*
X14157000Y-12175000D01*
X14097000Y-12115000D01*
X14037000Y-12175000D01*
X14097000Y-12235000D01*
X14097000Y-12585000D02*
X14157000Y-12525000D01*
X14097000Y-12465000D01*
X14037000Y-12525000D01*
X14097000Y-12585000D01*
X14097000Y-12935000D02*
X14157000Y-12875000D01*
X14097000Y-12815000D01*
X14037000Y-12875000D01*
X14097000Y-12935000D01*
X14097000Y-13285000D02*
X14157000Y-13225000D01*
X14097000Y-13165000D01*
X14037000Y-13225000D01*
X14097000Y-13285000D01*
X14107000Y-13869000D02*
X14167000Y-13809000D01*
X14107000Y-13749000D01*
X14047000Y-13809000D01*
X14107000Y-13869000D01*
X14107000Y-14219000D02*
X14167000Y-14159000D01*
X14107000Y-14099000D01*
X14047000Y-14159000D01*
X14107000Y-14219000D01*
X14107000Y-14569000D02*
X14167000Y-14509000D01*
X14107000Y-14449000D01*
X14047000Y-14509000D01*
X14107000Y-14569000D01*
X14107000Y-14919000D02*
X14167000Y-14859000D01*
X14107000Y-14799000D01*
X14047000Y-14859000D01*
X14107000Y-14919000D01*
D16*
X9341000Y-10095000D02*
X9471000Y-10225000D01*
X9471000Y-10095000D02*
X9341000Y-10225000D01*
X9471000Y-10160000D02*
G75*
G03*
X9471000Y-10160000I-65000J0D01*
G01*
X9841000Y-10095000D02*
X9971000Y-10225000D01*
X9971000Y-10095000D02*
X9841000Y-10225000D01*
X9971000Y-10160000D02*
G75*
G03*
X9971000Y-10160000I-65000J0D01*
G01*
D17*
X14031000Y-9957000D02*
X14183000Y-10109000D01*
X14183000Y-9957000D02*
X14031000Y-10109000D01*
X14107000Y-9957000D02*
X14107000Y-10109000D01*
X14031000Y-10033000D02*
X14183000Y-10033000D01*
X14031000Y-10465000D02*
X14183000Y-10617000D01*
X14183000Y-10465000D02*
X14031000Y-10617000D01*
X14107000Y-10465000D02*
X14107000Y-10617000D01*
X14031000Y-10541000D02*
X14183000Y-10541000D01*
D11*
X8888619Y-15999976D02*
X8888619Y-15799976D01*
X8936238Y-15799976D01*
X8964810Y-15809500D01*
X8983857Y-15828548D01*
X8993381Y-15847595D01*
X9002905Y-15885690D01*
X9002905Y-15914262D01*
X8993381Y-15952357D01*
X8983857Y-15971405D01*
X8964810Y-15990452D01*
X8936238Y-15999976D01*
X8888619Y-15999976D01*
X9088619Y-15999976D02*
X9088619Y-15866643D01*
X9088619Y-15904738D02*
X9098143Y-15885690D01*
X9107667Y-15876167D01*
X9126714Y-15866643D01*
X9145762Y-15866643D01*
X9212429Y-15999976D02*
X9212429Y-15866643D01*
X9212429Y-15799976D02*
X9202905Y-15809500D01*
X9212429Y-15819024D01*
X9221952Y-15809500D01*
X9212429Y-15799976D01*
X9212429Y-15819024D01*
X9336238Y-15999976D02*
X9317190Y-15990452D01*
X9307667Y-15971405D01*
X9307667Y-15799976D01*
X9441000Y-15999976D02*
X9421952Y-15990452D01*
X9412429Y-15971405D01*
X9412429Y-15799976D01*
X9669571Y-15999976D02*
X9669571Y-15799976D01*
X9736238Y-15942833D01*
X9802905Y-15799976D01*
X9802905Y-15999976D01*
X9983857Y-15999976D02*
X9983857Y-15895214D01*
X9974333Y-15876167D01*
X9955286Y-15866643D01*
X9917190Y-15866643D01*
X9898143Y-15876167D01*
X9983857Y-15990452D02*
X9964810Y-15999976D01*
X9917190Y-15999976D01*
X9898143Y-15990452D01*
X9888619Y-15971405D01*
X9888619Y-15952357D01*
X9898143Y-15933309D01*
X9917190Y-15923786D01*
X9964810Y-15923786D01*
X9983857Y-15914262D01*
X10079095Y-15866643D02*
X10079095Y-16066643D01*
X10079095Y-15876167D02*
X10098143Y-15866643D01*
X10136238Y-15866643D01*
X10155286Y-15876167D01*
X10164810Y-15885690D01*
X10174333Y-15904738D01*
X10174333Y-15961881D01*
X10164810Y-15980928D01*
X10155286Y-15990452D01*
X10136238Y-15999976D01*
X10098143Y-15999976D01*
X10079095Y-15990452D01*
X10260048Y-15980928D02*
X10269571Y-15990452D01*
X10260048Y-15999976D01*
X10250524Y-15990452D01*
X10260048Y-15980928D01*
X10260048Y-15999976D01*
X10260048Y-15876167D02*
X10269571Y-15885690D01*
X10260048Y-15895214D01*
X10250524Y-15885690D01*
X10260048Y-15876167D01*
X10260048Y-15895214D01*
D12*
X8551000Y-16289500D02*
X8631000Y-16369500D01*
X8631000Y-16289500D02*
X8551000Y-16369500D01*
D11*
X8926714Y-16219976D02*
X8945762Y-16219976D01*
X8964810Y-16229500D01*
X8974333Y-16239024D01*
X8983857Y-16258071D01*
X8993381Y-16296167D01*
X8993381Y-16343786D01*
X8983857Y-16381881D01*
X8974333Y-16400928D01*
X8964810Y-16410452D01*
X8945762Y-16419976D01*
X8926714Y-16419976D01*
X8907667Y-16410452D01*
X8898143Y-16400928D01*
X8888619Y-16381881D01*
X8879095Y-16343786D01*
X8879095Y-16296167D01*
X8888619Y-16258071D01*
X8898143Y-16239024D01*
X8907667Y-16229500D01*
X8926714Y-16219976D01*
X9079095Y-16400928D02*
X9088619Y-16410452D01*
X9079095Y-16419976D01*
X9069571Y-16410452D01*
X9079095Y-16400928D01*
X9079095Y-16419976D01*
X9202905Y-16305690D02*
X9183857Y-16296167D01*
X9174333Y-16286643D01*
X9164810Y-16267595D01*
X9164810Y-16258071D01*
X9174333Y-16239024D01*
X9183857Y-16229500D01*
X9202905Y-16219976D01*
X9241000Y-16219976D01*
X9260048Y-16229500D01*
X9269571Y-16239024D01*
X9279095Y-16258071D01*
X9279095Y-16267595D01*
X9269571Y-16286643D01*
X9260048Y-16296167D01*
X9241000Y-16305690D01*
X9202905Y-16305690D01*
X9183857Y-16315214D01*
X9174333Y-16324738D01*
X9164810Y-16343786D01*
X9164810Y-16381881D01*
X9174333Y-16400928D01*
X9183857Y-16410452D01*
X9202905Y-16419976D01*
X9241000Y-16419976D01*
X9260048Y-16410452D01*
X9269571Y-16400928D01*
X9279095Y-16381881D01*
X9279095Y-16343786D01*
X9269571Y-16324738D01*
X9260048Y-16315214D01*
X9241000Y-16305690D01*
X9402905Y-16219976D02*
X9421952Y-16219976D01*
X9441000Y-16229500D01*
X9450524Y-16239024D01*
X9460048Y-16258071D01*
X9469571Y-16296167D01*
X9469571Y-16343786D01*
X9460048Y-16381881D01*
X9450524Y-16400928D01*
X9441000Y-16410452D01*
X9421952Y-16419976D01*
X9402905Y-16419976D01*
X9383857Y-16410452D01*
X9374333Y-16400928D01*
X9364810Y-16381881D01*
X9355286Y-16343786D01*
X9355286Y-16296167D01*
X9364810Y-16258071D01*
X9374333Y-16239024D01*
X9383857Y-16229500D01*
X9402905Y-16219976D01*
X9593381Y-16219976D02*
X9612429Y-16219976D01*
X9631476Y-16229500D01*
X9641000Y-16239024D01*
X9650524Y-16258071D01*
X9660048Y-16296167D01*
X9660048Y-16343786D01*
X9650524Y-16381881D01*
X9641000Y-16400928D01*
X9631476Y-16410452D01*
X9612429Y-16419976D01*
X9593381Y-16419976D01*
X9574333Y-16410452D01*
X9564810Y-16400928D01*
X9555286Y-16381881D01*
X9545762Y-16343786D01*
X9545762Y-16296167D01*
X9555286Y-16258071D01*
X9564810Y-16239024D01*
X9574333Y-16229500D01*
X9593381Y-16219976D01*
X9745762Y-16419976D02*
X9745762Y-16286643D01*
X9745762Y-16305690D02*
X9755286Y-16296167D01*
X9774333Y-16286643D01*
X9802905Y-16286643D01*
X9821952Y-16296167D01*
X9831476Y-16315214D01*
X9831476Y-16419976D01*
X9831476Y-16315214D02*
X9841000Y-16296167D01*
X9860048Y-16286643D01*
X9888619Y-16286643D01*
X9907667Y-16296167D01*
X9917190Y-16315214D01*
X9917190Y-16419976D01*
X10012429Y-16419976D02*
X10012429Y-16286643D01*
X10012429Y-16305690D02*
X10021952Y-16296167D01*
X10041000Y-16286643D01*
X10069571Y-16286643D01*
X10088619Y-16296167D01*
X10098143Y-16315214D01*
X10098143Y-16419976D01*
X10098143Y-16315214D02*
X10107667Y-16296167D01*
X10126714Y-16286643D01*
X10155286Y-16286643D01*
X10174333Y-16296167D01*
X10183857Y-16315214D01*
X10183857Y-16419976D01*
X10574333Y-16210452D02*
X10402905Y-16467595D01*
X10831476Y-16219976D02*
X10850524Y-16219976D01*
X10869571Y-16229500D01*
X10879095Y-16239024D01*
X10888619Y-16258071D01*
X10898143Y-16296167D01*
X10898143Y-16343786D01*
X10888619Y-16381881D01*
X10879095Y-16400928D01*
X10869571Y-16410452D01*
X10850524Y-16419976D01*
X10831476Y-16419976D01*
X10812429Y-16410452D01*
X10802905Y-16400928D01*
X10793381Y-16381881D01*
X10783857Y-16343786D01*
X10783857Y-16296167D01*
X10793381Y-16258071D01*
X10802905Y-16239024D01*
X10812429Y-16229500D01*
X10831476Y-16219976D01*
X10983857Y-16400928D02*
X10993381Y-16410452D01*
X10983857Y-16419976D01*
X10974333Y-16410452D01*
X10983857Y-16400928D01*
X10983857Y-16419976D01*
X11117190Y-16219976D02*
X11136238Y-16219976D01*
X11155286Y-16229500D01*
X11164810Y-16239024D01*
X11174333Y-16258071D01*
X11183857Y-16296167D01*
X11183857Y-16343786D01*
X11174333Y-16381881D01*
X11164810Y-16400928D01*
X11155286Y-16410452D01*
X11136238Y-16419976D01*
X11117190Y-16419976D01*
X11098143Y-16410452D01*
X11088619Y-16400928D01*
X11079095Y-16381881D01*
X11069571Y-16343786D01*
X11069571Y-16296167D01*
X11079095Y-16258071D01*
X11088619Y-16239024D01*
X11098143Y-16229500D01*
X11117190Y-16219976D01*
X11250524Y-16219976D02*
X11374333Y-16219976D01*
X11307667Y-16296167D01*
X11336238Y-16296167D01*
X11355286Y-16305690D01*
X11364809Y-16315214D01*
X11374333Y-16334262D01*
X11374333Y-16381881D01*
X11364809Y-16400928D01*
X11355286Y-16410452D01*
X11336238Y-16419976D01*
X11279095Y-16419976D01*
X11260048Y-16410452D01*
X11250524Y-16400928D01*
X11564809Y-16419976D02*
X11450524Y-16419976D01*
X11507667Y-16419976D02*
X11507667Y-16219976D01*
X11488619Y-16248548D01*
X11469571Y-16267595D01*
X11450524Y-16277119D01*
X11745762Y-16219976D02*
X11650524Y-16219976D01*
X11641000Y-16315214D01*
X11650524Y-16305690D01*
X11669571Y-16296167D01*
X11717190Y-16296167D01*
X11736238Y-16305690D01*
X11745762Y-16315214D01*
X11755286Y-16334262D01*
X11755286Y-16381881D01*
X11745762Y-16400928D01*
X11736238Y-16410452D01*
X11717190Y-16419976D01*
X11669571Y-16419976D01*
X11650524Y-16410452D01*
X11641000Y-16400928D01*
X11831476Y-16219976D02*
X11831476Y-16258071D01*
X11907667Y-16219976D02*
X11907667Y-16258071D01*
X12202905Y-16496167D02*
X12193381Y-16486643D01*
X12174333Y-16458071D01*
X12164809Y-16439024D01*
X12155286Y-16410452D01*
X12145762Y-16362833D01*
X12145762Y-16324738D01*
X12155286Y-16277119D01*
X12164809Y-16248548D01*
X12174333Y-16229500D01*
X12193381Y-16200928D01*
X12202905Y-16191405D01*
X12383857Y-16419976D02*
X12269571Y-16419976D01*
X12326714Y-16419976D02*
X12326714Y-16219976D01*
X12307667Y-16248548D01*
X12288619Y-16267595D01*
X12269571Y-16277119D01*
X12498143Y-16305690D02*
X12479095Y-16296167D01*
X12469571Y-16286643D01*
X12460048Y-16267595D01*
X12460048Y-16258071D01*
X12469571Y-16239024D01*
X12479095Y-16229500D01*
X12498143Y-16219976D01*
X12536238Y-16219976D01*
X12555286Y-16229500D01*
X12564809Y-16239024D01*
X12574333Y-16258071D01*
X12574333Y-16267595D01*
X12564809Y-16286643D01*
X12555286Y-16296167D01*
X12536238Y-16305690D01*
X12498143Y-16305690D01*
X12479095Y-16315214D01*
X12469571Y-16324738D01*
X12460048Y-16343786D01*
X12460048Y-16381881D01*
X12469571Y-16400928D01*
X12479095Y-16410452D01*
X12498143Y-16419976D01*
X12536238Y-16419976D01*
X12555286Y-16410452D01*
X12564809Y-16400928D01*
X12574333Y-16381881D01*
X12574333Y-16343786D01*
X12564809Y-16324738D01*
X12555286Y-16315214D01*
X12536238Y-16305690D01*
X12812428Y-16419976D02*
X12812428Y-16219976D01*
X12898143Y-16419976D02*
X12898143Y-16315214D01*
X12888619Y-16296167D01*
X12869571Y-16286643D01*
X12841000Y-16286643D01*
X12821952Y-16296167D01*
X12812428Y-16305690D01*
X13021952Y-16419976D02*
X13002905Y-16410452D01*
X12993381Y-16400928D01*
X12983857Y-16381881D01*
X12983857Y-16324738D01*
X12993381Y-16305690D01*
X13002905Y-16296167D01*
X13021952Y-16286643D01*
X13050524Y-16286643D01*
X13069571Y-16296167D01*
X13079095Y-16305690D01*
X13088619Y-16324738D01*
X13088619Y-16381881D01*
X13079095Y-16400928D01*
X13069571Y-16410452D01*
X13050524Y-16419976D01*
X13021952Y-16419976D01*
X13202905Y-16419976D02*
X13183857Y-16410452D01*
X13174333Y-16391405D01*
X13174333Y-16219976D01*
X13355286Y-16410452D02*
X13336238Y-16419976D01*
X13298143Y-16419976D01*
X13279095Y-16410452D01*
X13269571Y-16391405D01*
X13269571Y-16315214D01*
X13279095Y-16296167D01*
X13298143Y-16286643D01*
X13336238Y-16286643D01*
X13355286Y-16296167D01*
X13364809Y-16315214D01*
X13364809Y-16334262D01*
X13269571Y-16353309D01*
X13441000Y-16410452D02*
X13460048Y-16419976D01*
X13498143Y-16419976D01*
X13517190Y-16410452D01*
X13526714Y-16391405D01*
X13526714Y-16381881D01*
X13517190Y-16362833D01*
X13498143Y-16353309D01*
X13469571Y-16353309D01*
X13450524Y-16343786D01*
X13441000Y-16324738D01*
X13441000Y-16315214D01*
X13450524Y-16296167D01*
X13469571Y-16286643D01*
X13498143Y-16286643D01*
X13517190Y-16296167D01*
X13593381Y-16496167D02*
X13602905Y-16486643D01*
X13621952Y-16458071D01*
X13631476Y-16439024D01*
X13641000Y-16410452D01*
X13650524Y-16362833D01*
X13650524Y-16324738D01*
X13641000Y-16277119D01*
X13631476Y-16248548D01*
X13621952Y-16229500D01*
X13602905Y-16200928D01*
X13593381Y-16191405D01*
D10*
X8631000Y-16593500D02*
G75*
G03*
X8631000Y-16593500I-50000J0D01*
G01*
D11*
X8993381Y-16683976D02*
X8879095Y-16683976D01*
X8936238Y-16683976D02*
X8936238Y-16483976D01*
X8917190Y-16512548D01*
X8898143Y-16531595D01*
X8879095Y-16541119D01*
X9079095Y-16664928D02*
X9088619Y-16674452D01*
X9079095Y-16683976D01*
X9069571Y-16674452D01*
X9079095Y-16664928D01*
X9079095Y-16683976D01*
X9212429Y-16483976D02*
X9231476Y-16483976D01*
X9250524Y-16493500D01*
X9260048Y-16503024D01*
X9269571Y-16522071D01*
X9279095Y-16560167D01*
X9279095Y-16607786D01*
X9269571Y-16645881D01*
X9260048Y-16664928D01*
X9250524Y-16674452D01*
X9231476Y-16683976D01*
X9212429Y-16683976D01*
X9193381Y-16674452D01*
X9183857Y-16664928D01*
X9174333Y-16645881D01*
X9164810Y-16607786D01*
X9164810Y-16560167D01*
X9174333Y-16522071D01*
X9183857Y-16503024D01*
X9193381Y-16493500D01*
X9212429Y-16483976D01*
X9402905Y-16483976D02*
X9421952Y-16483976D01*
X9441000Y-16493500D01*
X9450524Y-16503024D01*
X9460048Y-16522071D01*
X9469571Y-16560167D01*
X9469571Y-16607786D01*
X9460048Y-16645881D01*
X9450524Y-16664928D01*
X9441000Y-16674452D01*
X9421952Y-16683976D01*
X9402905Y-16683976D01*
X9383857Y-16674452D01*
X9374333Y-16664928D01*
X9364810Y-16645881D01*
X9355286Y-16607786D01*
X9355286Y-16560167D01*
X9364810Y-16522071D01*
X9374333Y-16503024D01*
X9383857Y-16493500D01*
X9402905Y-16483976D01*
X9593381Y-16483976D02*
X9612429Y-16483976D01*
X9631476Y-16493500D01*
X9641000Y-16503024D01*
X9650524Y-16522071D01*
X9660048Y-16560167D01*
X9660048Y-16607786D01*
X9650524Y-16645881D01*
X9641000Y-16664928D01*
X9631476Y-16674452D01*
X9612429Y-16683976D01*
X9593381Y-16683976D01*
X9574333Y-16674452D01*
X9564810Y-16664928D01*
X9555286Y-16645881D01*
X9545762Y-16607786D01*
X9545762Y-16560167D01*
X9555286Y-16522071D01*
X9564810Y-16503024D01*
X9574333Y-16493500D01*
X9593381Y-16483976D01*
X9745762Y-16683976D02*
X9745762Y-16550643D01*
X9745762Y-16569690D02*
X9755286Y-16560167D01*
X9774333Y-16550643D01*
X9802905Y-16550643D01*
X9821952Y-16560167D01*
X9831476Y-16579214D01*
X9831476Y-16683976D01*
X9831476Y-16579214D02*
X9841000Y-16560167D01*
X9860048Y-16550643D01*
X9888619Y-16550643D01*
X9907667Y-16560167D01*
X9917190Y-16579214D01*
X9917190Y-16683976D01*
X10012429Y-16683976D02*
X10012429Y-16550643D01*
X10012429Y-16569690D02*
X10021952Y-16560167D01*
X10041000Y-16550643D01*
X10069571Y-16550643D01*
X10088619Y-16560167D01*
X10098143Y-16579214D01*
X10098143Y-16683976D01*
X10098143Y-16579214D02*
X10107667Y-16560167D01*
X10126714Y-16550643D01*
X10155286Y-16550643D01*
X10174333Y-16560167D01*
X10183857Y-16579214D01*
X10183857Y-16683976D01*
X10574333Y-16474452D02*
X10402905Y-16731595D01*
X10831476Y-16483976D02*
X10850524Y-16483976D01*
X10869571Y-16493500D01*
X10879095Y-16503024D01*
X10888619Y-16522071D01*
X10898143Y-16560167D01*
X10898143Y-16607786D01*
X10888619Y-16645881D01*
X10879095Y-16664928D01*
X10869571Y-16674452D01*
X10850524Y-16683976D01*
X10831476Y-16683976D01*
X10812429Y-16674452D01*
X10802905Y-16664928D01*
X10793381Y-16645881D01*
X10783857Y-16607786D01*
X10783857Y-16560167D01*
X10793381Y-16522071D01*
X10802905Y-16503024D01*
X10812429Y-16493500D01*
X10831476Y-16483976D01*
X10983857Y-16664928D02*
X10993381Y-16674452D01*
X10983857Y-16683976D01*
X10974333Y-16674452D01*
X10983857Y-16664928D01*
X10983857Y-16683976D01*
X11117190Y-16483976D02*
X11136238Y-16483976D01*
X11155286Y-16493500D01*
X11164810Y-16503024D01*
X11174333Y-16522071D01*
X11183857Y-16560167D01*
X11183857Y-16607786D01*
X11174333Y-16645881D01*
X11164810Y-16664928D01*
X11155286Y-16674452D01*
X11136238Y-16683976D01*
X11117190Y-16683976D01*
X11098143Y-16674452D01*
X11088619Y-16664928D01*
X11079095Y-16645881D01*
X11069571Y-16607786D01*
X11069571Y-16560167D01*
X11079095Y-16522071D01*
X11088619Y-16503024D01*
X11098143Y-16493500D01*
X11117190Y-16483976D01*
X11250524Y-16483976D02*
X11374333Y-16483976D01*
X11307667Y-16560167D01*
X11336238Y-16560167D01*
X11355286Y-16569690D01*
X11364809Y-16579214D01*
X11374333Y-16598262D01*
X11374333Y-16645881D01*
X11364809Y-16664928D01*
X11355286Y-16674452D01*
X11336238Y-16683976D01*
X11279095Y-16683976D01*
X11260048Y-16674452D01*
X11250524Y-16664928D01*
X11469571Y-16683976D02*
X11507667Y-16683976D01*
X11526714Y-16674452D01*
X11536238Y-16664928D01*
X11555286Y-16636357D01*
X11564809Y-16598262D01*
X11564809Y-16522071D01*
X11555286Y-16503024D01*
X11545762Y-16493500D01*
X11526714Y-16483976D01*
X11488619Y-16483976D01*
X11469571Y-16493500D01*
X11460048Y-16503024D01*
X11450524Y-16522071D01*
X11450524Y-16569690D01*
X11460048Y-16588738D01*
X11469571Y-16598262D01*
X11488619Y-16607786D01*
X11526714Y-16607786D01*
X11545762Y-16598262D01*
X11555286Y-16588738D01*
X11564809Y-16569690D01*
X11736238Y-16550643D02*
X11736238Y-16683976D01*
X11688619Y-16474452D02*
X11641000Y-16617309D01*
X11764809Y-16617309D01*
X11831476Y-16483976D02*
X11831476Y-16522071D01*
X11907667Y-16483976D02*
X11907667Y-16522071D01*
X12202905Y-16760167D02*
X12193381Y-16750643D01*
X12174333Y-16722071D01*
X12164809Y-16703024D01*
X12155286Y-16674452D01*
X12145762Y-16626833D01*
X12145762Y-16588738D01*
X12155286Y-16541119D01*
X12164809Y-16512548D01*
X12174333Y-16493500D01*
X12193381Y-16464928D01*
X12202905Y-16455405D01*
X12269571Y-16503024D02*
X12279095Y-16493500D01*
X12298143Y-16483976D01*
X12345762Y-16483976D01*
X12364809Y-16493500D01*
X12374333Y-16503024D01*
X12383857Y-16522071D01*
X12383857Y-16541119D01*
X12374333Y-16569690D01*
X12260048Y-16683976D01*
X12383857Y-16683976D01*
X12621952Y-16683976D02*
X12621952Y-16483976D01*
X12707667Y-16683976D02*
X12707667Y-16579214D01*
X12698143Y-16560167D01*
X12679095Y-16550643D01*
X12650524Y-16550643D01*
X12631476Y-16560167D01*
X12621952Y-16569690D01*
X12831476Y-16683976D02*
X12812428Y-16674452D01*
X12802905Y-16664928D01*
X12793381Y-16645881D01*
X12793381Y-16588738D01*
X12802905Y-16569690D01*
X12812428Y-16560167D01*
X12831476Y-16550643D01*
X12860048Y-16550643D01*
X12879095Y-16560167D01*
X12888619Y-16569690D01*
X12898143Y-16588738D01*
X12898143Y-16645881D01*
X12888619Y-16664928D01*
X12879095Y-16674452D01*
X12860048Y-16683976D01*
X12831476Y-16683976D01*
X13012428Y-16683976D02*
X12993381Y-16674452D01*
X12983857Y-16655405D01*
X12983857Y-16483976D01*
X13164809Y-16674452D02*
X13145762Y-16683976D01*
X13107667Y-16683976D01*
X13088619Y-16674452D01*
X13079095Y-16655405D01*
X13079095Y-16579214D01*
X13088619Y-16560167D01*
X13107667Y-16550643D01*
X13145762Y-16550643D01*
X13164809Y-16560167D01*
X13174333Y-16579214D01*
X13174333Y-16598262D01*
X13079095Y-16617309D01*
X13250524Y-16674452D02*
X13269571Y-16683976D01*
X13307667Y-16683976D01*
X13326714Y-16674452D01*
X13336238Y-16655405D01*
X13336238Y-16645881D01*
X13326714Y-16626833D01*
X13307667Y-16617309D01*
X13279095Y-16617309D01*
X13260048Y-16607786D01*
X13250524Y-16588738D01*
X13250524Y-16579214D01*
X13260048Y-16560167D01*
X13279095Y-16550643D01*
X13307667Y-16550643D01*
X13326714Y-16560167D01*
X13402905Y-16760167D02*
X13412428Y-16750643D01*
X13431476Y-16722071D01*
X13441000Y-16703024D01*
X13450524Y-16674452D01*
X13460048Y-16626833D01*
X13460048Y-16588738D01*
X13450524Y-16541119D01*
X13441000Y-16512548D01*
X13431476Y-16493500D01*
X13412428Y-16464928D01*
X13402905Y-16455405D01*
D13*
X8580000Y-16806500D02*
X8580000Y-16908500D01*
X8529000Y-16857500D02*
X8631000Y-16857500D01*
D11*
X8993381Y-16947976D02*
X8879095Y-16947976D01*
X8936238Y-16947976D02*
X8936238Y-16747976D01*
X8917190Y-16776548D01*
X8898143Y-16795595D01*
X8879095Y-16805119D01*
X9079095Y-16928929D02*
X9088619Y-16938452D01*
X9079095Y-16947976D01*
X9069571Y-16938452D01*
X9079095Y-16928929D01*
X9079095Y-16947976D01*
X9212429Y-16747976D02*
X9231476Y-16747976D01*
X9250524Y-16757500D01*
X9260048Y-16767024D01*
X9269571Y-16786071D01*
X9279095Y-16824167D01*
X9279095Y-16871786D01*
X9269571Y-16909881D01*
X9260048Y-16928929D01*
X9250524Y-16938452D01*
X9231476Y-16947976D01*
X9212429Y-16947976D01*
X9193381Y-16938452D01*
X9183857Y-16928929D01*
X9174333Y-16909881D01*
X9164810Y-16871786D01*
X9164810Y-16824167D01*
X9174333Y-16786071D01*
X9183857Y-16767024D01*
X9193381Y-16757500D01*
X9212429Y-16747976D01*
X9355286Y-16767024D02*
X9364810Y-16757500D01*
X9383857Y-16747976D01*
X9431476Y-16747976D01*
X9450524Y-16757500D01*
X9460048Y-16767024D01*
X9469571Y-16786071D01*
X9469571Y-16805119D01*
X9460048Y-16833690D01*
X9345762Y-16947976D01*
X9469571Y-16947976D01*
X9593381Y-16747976D02*
X9612429Y-16747976D01*
X9631476Y-16757500D01*
X9641000Y-16767024D01*
X9650524Y-16786071D01*
X9660048Y-16824167D01*
X9660048Y-16871786D01*
X9650524Y-16909881D01*
X9641000Y-16928929D01*
X9631476Y-16938452D01*
X9612429Y-16947976D01*
X9593381Y-16947976D01*
X9574333Y-16938452D01*
X9564810Y-16928929D01*
X9555286Y-16909881D01*
X9545762Y-16871786D01*
X9545762Y-16824167D01*
X9555286Y-16786071D01*
X9564810Y-16767024D01*
X9574333Y-16757500D01*
X9593381Y-16747976D01*
X9745762Y-16947976D02*
X9745762Y-16814643D01*
X9745762Y-16833690D02*
X9755286Y-16824167D01*
X9774333Y-16814643D01*
X9802905Y-16814643D01*
X9821952Y-16824167D01*
X9831476Y-16843214D01*
X9831476Y-16947976D01*
X9831476Y-16843214D02*
X9841000Y-16824167D01*
X9860048Y-16814643D01*
X9888619Y-16814643D01*
X9907667Y-16824167D01*
X9917190Y-16843214D01*
X9917190Y-16947976D01*
X10012429Y-16947976D02*
X10012429Y-16814643D01*
X10012429Y-16833690D02*
X10021952Y-16824167D01*
X10041000Y-16814643D01*
X10069571Y-16814643D01*
X10088619Y-16824167D01*
X10098143Y-16843214D01*
X10098143Y-16947976D01*
X10098143Y-16843214D02*
X10107667Y-16824167D01*
X10126714Y-16814643D01*
X10155286Y-16814643D01*
X10174333Y-16824167D01*
X10183857Y-16843214D01*
X10183857Y-16947976D01*
X10574333Y-16738452D02*
X10402905Y-16995595D01*
X10831476Y-16747976D02*
X10850524Y-16747976D01*
X10869571Y-16757500D01*
X10879095Y-16767024D01*
X10888619Y-16786071D01*
X10898143Y-16824167D01*
X10898143Y-16871786D01*
X10888619Y-16909881D01*
X10879095Y-16928929D01*
X10869571Y-16938452D01*
X10850524Y-16947976D01*
X10831476Y-16947976D01*
X10812429Y-16938452D01*
X10802905Y-16928929D01*
X10793381Y-16909881D01*
X10783857Y-16871786D01*
X10783857Y-16824167D01*
X10793381Y-16786071D01*
X10802905Y-16767024D01*
X10812429Y-16757500D01*
X10831476Y-16747976D01*
X10983857Y-16928929D02*
X10993381Y-16938452D01*
X10983857Y-16947976D01*
X10974333Y-16938452D01*
X10983857Y-16928929D01*
X10983857Y-16947976D01*
X11117190Y-16747976D02*
X11136238Y-16747976D01*
X11155286Y-16757500D01*
X11164810Y-16767024D01*
X11174333Y-16786071D01*
X11183857Y-16824167D01*
X11183857Y-16871786D01*
X11174333Y-16909881D01*
X11164810Y-16928929D01*
X11155286Y-16938452D01*
X11136238Y-16947976D01*
X11117190Y-16947976D01*
X11098143Y-16938452D01*
X11088619Y-16928929D01*
X11079095Y-16909881D01*
X11069571Y-16871786D01*
X11069571Y-16824167D01*
X11079095Y-16786071D01*
X11088619Y-16767024D01*
X11098143Y-16757500D01*
X11117190Y-16747976D01*
X11355286Y-16814643D02*
X11355286Y-16947976D01*
X11307667Y-16738452D02*
X11260048Y-16881310D01*
X11383857Y-16881310D01*
X11498143Y-16747976D02*
X11517190Y-16747976D01*
X11536238Y-16757500D01*
X11545762Y-16767024D01*
X11555286Y-16786071D01*
X11564809Y-16824167D01*
X11564809Y-16871786D01*
X11555286Y-16909881D01*
X11545762Y-16928929D01*
X11536238Y-16938452D01*
X11517190Y-16947976D01*
X11498143Y-16947976D01*
X11479095Y-16938452D01*
X11469571Y-16928929D01*
X11460048Y-16909881D01*
X11450524Y-16871786D01*
X11450524Y-16824167D01*
X11460048Y-16786071D01*
X11469571Y-16767024D01*
X11479095Y-16757500D01*
X11498143Y-16747976D01*
X11641000Y-16767024D02*
X11650524Y-16757500D01*
X11669571Y-16747976D01*
X11717190Y-16747976D01*
X11736238Y-16757500D01*
X11745762Y-16767024D01*
X11755286Y-16786071D01*
X11755286Y-16805119D01*
X11745762Y-16833690D01*
X11631476Y-16947976D01*
X11755286Y-16947976D01*
X11831476Y-16747976D02*
X11831476Y-16786071D01*
X11907667Y-16747976D02*
X11907667Y-16786071D01*
X12202905Y-17024167D02*
X12193381Y-17014643D01*
X12174333Y-16986071D01*
X12164809Y-16967024D01*
X12155286Y-16938452D01*
X12145762Y-16890833D01*
X12145762Y-16852738D01*
X12155286Y-16805119D01*
X12164809Y-16776548D01*
X12174333Y-16757500D01*
X12193381Y-16728928D01*
X12202905Y-16719405D01*
X12260048Y-16747976D02*
X12383857Y-16747976D01*
X12317190Y-16824167D01*
X12345762Y-16824167D01*
X12364809Y-16833690D01*
X12374333Y-16843214D01*
X12383857Y-16862262D01*
X12383857Y-16909881D01*
X12374333Y-16928929D01*
X12364809Y-16938452D01*
X12345762Y-16947976D01*
X12288619Y-16947976D01*
X12269571Y-16938452D01*
X12260048Y-16928929D01*
X12507667Y-16747976D02*
X12526714Y-16747976D01*
X12545762Y-16757500D01*
X12555286Y-16767024D01*
X12564809Y-16786071D01*
X12574333Y-16824167D01*
X12574333Y-16871786D01*
X12564809Y-16909881D01*
X12555286Y-16928929D01*
X12545762Y-16938452D01*
X12526714Y-16947976D01*
X12507667Y-16947976D01*
X12488619Y-16938452D01*
X12479095Y-16928929D01*
X12469571Y-16909881D01*
X12460048Y-16871786D01*
X12460048Y-16824167D01*
X12469571Y-16786071D01*
X12479095Y-16767024D01*
X12488619Y-16757500D01*
X12507667Y-16747976D01*
X12812428Y-16947976D02*
X12812428Y-16747976D01*
X12898143Y-16947976D02*
X12898143Y-16843214D01*
X12888619Y-16824167D01*
X12869571Y-16814643D01*
X12841000Y-16814643D01*
X12821952Y-16824167D01*
X12812428Y-16833690D01*
X13021952Y-16947976D02*
X13002905Y-16938452D01*
X12993381Y-16928929D01*
X12983857Y-16909881D01*
X12983857Y-16852738D01*
X12993381Y-16833690D01*
X13002905Y-16824167D01*
X13021952Y-16814643D01*
X13050524Y-16814643D01*
X13069571Y-16824167D01*
X13079095Y-16833690D01*
X13088619Y-16852738D01*
X13088619Y-16909881D01*
X13079095Y-16928929D01*
X13069571Y-16938452D01*
X13050524Y-16947976D01*
X13021952Y-16947976D01*
X13202905Y-16947976D02*
X13183857Y-16938452D01*
X13174333Y-16919405D01*
X13174333Y-16747976D01*
X13355286Y-16938452D02*
X13336238Y-16947976D01*
X13298143Y-16947976D01*
X13279095Y-16938452D01*
X13269571Y-16919405D01*
X13269571Y-16843214D01*
X13279095Y-16824167D01*
X13298143Y-16814643D01*
X13336238Y-16814643D01*
X13355286Y-16824167D01*
X13364809Y-16843214D01*
X13364809Y-16862262D01*
X13269571Y-16881310D01*
X13441000Y-16938452D02*
X13460048Y-16947976D01*
X13498143Y-16947976D01*
X13517190Y-16938452D01*
X13526714Y-16919405D01*
X13526714Y-16909881D01*
X13517190Y-16890833D01*
X13498143Y-16881310D01*
X13469571Y-16881310D01*
X13450524Y-16871786D01*
X13441000Y-16852738D01*
X13441000Y-16843214D01*
X13450524Y-16824167D01*
X13469571Y-16814643D01*
X13498143Y-16814643D01*
X13517190Y-16824167D01*
X13593381Y-17024167D02*
X13602905Y-17014643D01*
X13621952Y-16986071D01*
X13631476Y-16967024D01*
X13641000Y-16938452D01*
X13650524Y-16890833D01*
X13650524Y-16852738D01*
X13641000Y-16805119D01*
X13631476Y-16776548D01*
X13621952Y-16757500D01*
X13602905Y-16728928D01*
X13593381Y-16719405D01*
D14*
X8614891Y-17160391D02*
X8614891Y-17082609D01*
X8537109Y-17082609D01*
X8537109Y-17160391D01*
X8614891Y-17160391D01*
D11*
X8993381Y-17211976D02*
X8879095Y-17211976D01*
X8936238Y-17211976D02*
X8936238Y-17011976D01*
X8917190Y-17040548D01*
X8898143Y-17059595D01*
X8879095Y-17069119D01*
X9079095Y-17192929D02*
X9088619Y-17202452D01*
X9079095Y-17211976D01*
X9069571Y-17202452D01*
X9079095Y-17192929D01*
X9079095Y-17211976D01*
X9279095Y-17211976D02*
X9164810Y-17211976D01*
X9221952Y-17211976D02*
X9221952Y-17011976D01*
X9202905Y-17040548D01*
X9183857Y-17059595D01*
X9164810Y-17069119D01*
X9402905Y-17011976D02*
X9421952Y-17011976D01*
X9441000Y-17021500D01*
X9450524Y-17031024D01*
X9460048Y-17050071D01*
X9469571Y-17088167D01*
X9469571Y-17135786D01*
X9460048Y-17173881D01*
X9450524Y-17192929D01*
X9441000Y-17202452D01*
X9421952Y-17211976D01*
X9402905Y-17211976D01*
X9383857Y-17202452D01*
X9374333Y-17192929D01*
X9364810Y-17173881D01*
X9355286Y-17135786D01*
X9355286Y-17088167D01*
X9364810Y-17050071D01*
X9374333Y-17031024D01*
X9383857Y-17021500D01*
X9402905Y-17011976D01*
X9593381Y-17011976D02*
X9612429Y-17011976D01*
X9631476Y-17021500D01*
X9641000Y-17031024D01*
X9650524Y-17050071D01*
X9660048Y-17088167D01*
X9660048Y-17135786D01*
X9650524Y-17173881D01*
X9641000Y-17192929D01*
X9631476Y-17202452D01*
X9612429Y-17211976D01*
X9593381Y-17211976D01*
X9574333Y-17202452D01*
X9564810Y-17192929D01*
X9555286Y-17173881D01*
X9545762Y-17135786D01*
X9545762Y-17088167D01*
X9555286Y-17050071D01*
X9564810Y-17031024D01*
X9574333Y-17021500D01*
X9593381Y-17011976D01*
X9745762Y-17211976D02*
X9745762Y-17078643D01*
X9745762Y-17097690D02*
X9755286Y-17088167D01*
X9774333Y-17078643D01*
X9802905Y-17078643D01*
X9821952Y-17088167D01*
X9831476Y-17107214D01*
X9831476Y-17211976D01*
X9831476Y-17107214D02*
X9841000Y-17088167D01*
X9860048Y-17078643D01*
X9888619Y-17078643D01*
X9907667Y-17088167D01*
X9917190Y-17107214D01*
X9917190Y-17211976D01*
X10012429Y-17211976D02*
X10012429Y-17078643D01*
X10012429Y-17097690D02*
X10021952Y-17088167D01*
X10041000Y-17078643D01*
X10069571Y-17078643D01*
X10088619Y-17088167D01*
X10098143Y-17107214D01*
X10098143Y-17211976D01*
X10098143Y-17107214D02*
X10107667Y-17088167D01*
X10126714Y-17078643D01*
X10155286Y-17078643D01*
X10174333Y-17088167D01*
X10183857Y-17107214D01*
X10183857Y-17211976D01*
X10574333Y-17002452D02*
X10402905Y-17259595D01*
X10831476Y-17011976D02*
X10850524Y-17011976D01*
X10869571Y-17021500D01*
X10879095Y-17031024D01*
X10888619Y-17050071D01*
X10898143Y-17088167D01*
X10898143Y-17135786D01*
X10888619Y-17173881D01*
X10879095Y-17192929D01*
X10869571Y-17202452D01*
X10850524Y-17211976D01*
X10831476Y-17211976D01*
X10812429Y-17202452D01*
X10802905Y-17192929D01*
X10793381Y-17173881D01*
X10783857Y-17135786D01*
X10783857Y-17088167D01*
X10793381Y-17050071D01*
X10802905Y-17031024D01*
X10812429Y-17021500D01*
X10831476Y-17011976D01*
X10983857Y-17192929D02*
X10993381Y-17202452D01*
X10983857Y-17211976D01*
X10974333Y-17202452D01*
X10983857Y-17192929D01*
X10983857Y-17211976D01*
X11117190Y-17011976D02*
X11136238Y-17011976D01*
X11155286Y-17021500D01*
X11164810Y-17031024D01*
X11174333Y-17050071D01*
X11183857Y-17088167D01*
X11183857Y-17135786D01*
X11174333Y-17173881D01*
X11164810Y-17192929D01*
X11155286Y-17202452D01*
X11136238Y-17211976D01*
X11117190Y-17211976D01*
X11098143Y-17202452D01*
X11088619Y-17192929D01*
X11079095Y-17173881D01*
X11069571Y-17135786D01*
X11069571Y-17088167D01*
X11079095Y-17050071D01*
X11088619Y-17031024D01*
X11098143Y-17021500D01*
X11117190Y-17011976D01*
X11355286Y-17078643D02*
X11355286Y-17211976D01*
X11307667Y-17002452D02*
X11260048Y-17145310D01*
X11383857Y-17145310D01*
X11441000Y-17011976D02*
X11564809Y-17011976D01*
X11498143Y-17088167D01*
X11526714Y-17088167D01*
X11545762Y-17097690D01*
X11555286Y-17107214D01*
X11564809Y-17126262D01*
X11564809Y-17173881D01*
X11555286Y-17192929D01*
X11545762Y-17202452D01*
X11526714Y-17211976D01*
X11469571Y-17211976D01*
X11450524Y-17202452D01*
X11441000Y-17192929D01*
X11631476Y-17011976D02*
X11755286Y-17011976D01*
X11688619Y-17088167D01*
X11717190Y-17088167D01*
X11736238Y-17097690D01*
X11745762Y-17107214D01*
X11755286Y-17126262D01*
X11755286Y-17173881D01*
X11745762Y-17192929D01*
X11736238Y-17202452D01*
X11717190Y-17211976D01*
X11660048Y-17211976D01*
X11641000Y-17202452D01*
X11631476Y-17192929D01*
X11831476Y-17011976D02*
X11831476Y-17050071D01*
X11907667Y-17011976D02*
X11907667Y-17050071D01*
X12202905Y-17288167D02*
X12193381Y-17278643D01*
X12174333Y-17250071D01*
X12164809Y-17231024D01*
X12155286Y-17202452D01*
X12145762Y-17154833D01*
X12145762Y-17116738D01*
X12155286Y-17069119D01*
X12164809Y-17040548D01*
X12174333Y-17021500D01*
X12193381Y-16992929D01*
X12202905Y-16983405D01*
X12374333Y-17011976D02*
X12279095Y-17011976D01*
X12269571Y-17107214D01*
X12279095Y-17097690D01*
X12298143Y-17088167D01*
X12345762Y-17088167D01*
X12364809Y-17097690D01*
X12374333Y-17107214D01*
X12383857Y-17126262D01*
X12383857Y-17173881D01*
X12374333Y-17192929D01*
X12364809Y-17202452D01*
X12345762Y-17211976D01*
X12298143Y-17211976D01*
X12279095Y-17202452D01*
X12269571Y-17192929D01*
X12621952Y-17211976D02*
X12621952Y-17011976D01*
X12707667Y-17211976D02*
X12707667Y-17107214D01*
X12698143Y-17088167D01*
X12679095Y-17078643D01*
X12650524Y-17078643D01*
X12631476Y-17088167D01*
X12621952Y-17097690D01*
X12831476Y-17211976D02*
X12812428Y-17202452D01*
X12802905Y-17192929D01*
X12793381Y-17173881D01*
X12793381Y-17116738D01*
X12802905Y-17097690D01*
X12812428Y-17088167D01*
X12831476Y-17078643D01*
X12860048Y-17078643D01*
X12879095Y-17088167D01*
X12888619Y-17097690D01*
X12898143Y-17116738D01*
X12898143Y-17173881D01*
X12888619Y-17192929D01*
X12879095Y-17202452D01*
X12860048Y-17211976D01*
X12831476Y-17211976D01*
X13012428Y-17211976D02*
X12993381Y-17202452D01*
X12983857Y-17183405D01*
X12983857Y-17011976D01*
X13164809Y-17202452D02*
X13145762Y-17211976D01*
X13107667Y-17211976D01*
X13088619Y-17202452D01*
X13079095Y-17183405D01*
X13079095Y-17107214D01*
X13088619Y-17088167D01*
X13107667Y-17078643D01*
X13145762Y-17078643D01*
X13164809Y-17088167D01*
X13174333Y-17107214D01*
X13174333Y-17126262D01*
X13079095Y-17145310D01*
X13250524Y-17202452D02*
X13269571Y-17211976D01*
X13307667Y-17211976D01*
X13326714Y-17202452D01*
X13336238Y-17183405D01*
X13336238Y-17173881D01*
X13326714Y-17154833D01*
X13307667Y-17145310D01*
X13279095Y-17145310D01*
X13260048Y-17135786D01*
X13250524Y-17116738D01*
X13250524Y-17107214D01*
X13260048Y-17088167D01*
X13279095Y-17078643D01*
X13307667Y-17078643D01*
X13326714Y-17088167D01*
X13402905Y-17288167D02*
X13412428Y-17278643D01*
X13431476Y-17250071D01*
X13441000Y-17231024D01*
X13450524Y-17202452D01*
X13460048Y-17154833D01*
X13460048Y-17116738D01*
X13450524Y-17069119D01*
X13441000Y-17040548D01*
X13431476Y-17021500D01*
X13412428Y-16992929D01*
X13402905Y-16983405D01*
D15*
X8571000Y-17445500D02*
X8631000Y-17385500D01*
X8571000Y-17325500D01*
X8511000Y-17385500D01*
X8571000Y-17445500D01*
D11*
X8993381Y-17475976D02*
X8879095Y-17475976D01*
X8936238Y-17475976D02*
X8936238Y-17275976D01*
X8917190Y-17304548D01*
X8898143Y-17323595D01*
X8879095Y-17333119D01*
X9079095Y-17456929D02*
X9088619Y-17466452D01*
X9079095Y-17475976D01*
X9069571Y-17466452D01*
X9079095Y-17456929D01*
X9079095Y-17475976D01*
X9164810Y-17295024D02*
X9174333Y-17285500D01*
X9193381Y-17275976D01*
X9241000Y-17275976D01*
X9260048Y-17285500D01*
X9269571Y-17295024D01*
X9279095Y-17314071D01*
X9279095Y-17333119D01*
X9269571Y-17361690D01*
X9155286Y-17475976D01*
X9279095Y-17475976D01*
X9402905Y-17275976D02*
X9421952Y-17275976D01*
X9441000Y-17285500D01*
X9450524Y-17295024D01*
X9460048Y-17314071D01*
X9469571Y-17352167D01*
X9469571Y-17399786D01*
X9460048Y-17437881D01*
X9450524Y-17456929D01*
X9441000Y-17466452D01*
X9421952Y-17475976D01*
X9402905Y-17475976D01*
X9383857Y-17466452D01*
X9374333Y-17456929D01*
X9364810Y-17437881D01*
X9355286Y-17399786D01*
X9355286Y-17352167D01*
X9364810Y-17314071D01*
X9374333Y-17295024D01*
X9383857Y-17285500D01*
X9402905Y-17275976D01*
X9593381Y-17275976D02*
X9612429Y-17275976D01*
X9631476Y-17285500D01*
X9641000Y-17295024D01*
X9650524Y-17314071D01*
X9660048Y-17352167D01*
X9660048Y-17399786D01*
X9650524Y-17437881D01*
X9641000Y-17456929D01*
X9631476Y-17466452D01*
X9612429Y-17475976D01*
X9593381Y-17475976D01*
X9574333Y-17466452D01*
X9564810Y-17456929D01*
X9555286Y-17437881D01*
X9545762Y-17399786D01*
X9545762Y-17352167D01*
X9555286Y-17314071D01*
X9564810Y-17295024D01*
X9574333Y-17285500D01*
X9593381Y-17275976D01*
X9745762Y-17475976D02*
X9745762Y-17342643D01*
X9745762Y-17361690D02*
X9755286Y-17352167D01*
X9774333Y-17342643D01*
X9802905Y-17342643D01*
X9821952Y-17352167D01*
X9831476Y-17371214D01*
X9831476Y-17475976D01*
X9831476Y-17371214D02*
X9841000Y-17352167D01*
X9860048Y-17342643D01*
X9888619Y-17342643D01*
X9907667Y-17352167D01*
X9917190Y-17371214D01*
X9917190Y-17475976D01*
X10012429Y-17475976D02*
X10012429Y-17342643D01*
X10012429Y-17361690D02*
X10021952Y-17352167D01*
X10041000Y-17342643D01*
X10069571Y-17342643D01*
X10088619Y-17352167D01*
X10098143Y-17371214D01*
X10098143Y-17475976D01*
X10098143Y-17371214D02*
X10107667Y-17352167D01*
X10126714Y-17342643D01*
X10155286Y-17342643D01*
X10174333Y-17352167D01*
X10183857Y-17371214D01*
X10183857Y-17475976D01*
X10574333Y-17266452D02*
X10402905Y-17523595D01*
X10831476Y-17275976D02*
X10850524Y-17275976D01*
X10869571Y-17285500D01*
X10879095Y-17295024D01*
X10888619Y-17314071D01*
X10898143Y-17352167D01*
X10898143Y-17399786D01*
X10888619Y-17437881D01*
X10879095Y-17456929D01*
X10869571Y-17466452D01*
X10850524Y-17475976D01*
X10831476Y-17475976D01*
X10812429Y-17466452D01*
X10802905Y-17456929D01*
X10793381Y-17437881D01*
X10783857Y-17399786D01*
X10783857Y-17352167D01*
X10793381Y-17314071D01*
X10802905Y-17295024D01*
X10812429Y-17285500D01*
X10831476Y-17275976D01*
X10983857Y-17456929D02*
X10993381Y-17466452D01*
X10983857Y-17475976D01*
X10974333Y-17466452D01*
X10983857Y-17456929D01*
X10983857Y-17475976D01*
X11117190Y-17275976D02*
X11136238Y-17275976D01*
X11155286Y-17285500D01*
X11164810Y-17295024D01*
X11174333Y-17314071D01*
X11183857Y-17352167D01*
X11183857Y-17399786D01*
X11174333Y-17437881D01*
X11164810Y-17456929D01*
X11155286Y-17466452D01*
X11136238Y-17475976D01*
X11117190Y-17475976D01*
X11098143Y-17466452D01*
X11088619Y-17456929D01*
X11079095Y-17437881D01*
X11069571Y-17399786D01*
X11069571Y-17352167D01*
X11079095Y-17314071D01*
X11088619Y-17295024D01*
X11098143Y-17285500D01*
X11117190Y-17275976D01*
X11355286Y-17342643D02*
X11355286Y-17475976D01*
X11307667Y-17266452D02*
X11260048Y-17409310D01*
X11383857Y-17409310D01*
X11441000Y-17275976D02*
X11574333Y-17275976D01*
X11488619Y-17475976D01*
X11641000Y-17295024D02*
X11650524Y-17285500D01*
X11669571Y-17275976D01*
X11717190Y-17275976D01*
X11736238Y-17285500D01*
X11745762Y-17295024D01*
X11755286Y-17314071D01*
X11755286Y-17333119D01*
X11745762Y-17361690D01*
X11631476Y-17475976D01*
X11755286Y-17475976D01*
X11831476Y-17275976D02*
X11831476Y-17314071D01*
X11907667Y-17275976D02*
X11907667Y-17314071D01*
X12202905Y-17552167D02*
X12193381Y-17542643D01*
X12174333Y-17514071D01*
X12164809Y-17495024D01*
X12155286Y-17466452D01*
X12145762Y-17418833D01*
X12145762Y-17380738D01*
X12155286Y-17333119D01*
X12164809Y-17304548D01*
X12174333Y-17285500D01*
X12193381Y-17256929D01*
X12202905Y-17247405D01*
X12383857Y-17475976D02*
X12269571Y-17475976D01*
X12326714Y-17475976D02*
X12326714Y-17275976D01*
X12307667Y-17304548D01*
X12288619Y-17323595D01*
X12269571Y-17333119D01*
X12498143Y-17361690D02*
X12479095Y-17352167D01*
X12469571Y-17342643D01*
X12460048Y-17323595D01*
X12460048Y-17314071D01*
X12469571Y-17295024D01*
X12479095Y-17285500D01*
X12498143Y-17275976D01*
X12536238Y-17275976D01*
X12555286Y-17285500D01*
X12564809Y-17295024D01*
X12574333Y-17314071D01*
X12574333Y-17323595D01*
X12564809Y-17342643D01*
X12555286Y-17352167D01*
X12536238Y-17361690D01*
X12498143Y-17361690D01*
X12479095Y-17371214D01*
X12469571Y-17380738D01*
X12460048Y-17399786D01*
X12460048Y-17437881D01*
X12469571Y-17456929D01*
X12479095Y-17466452D01*
X12498143Y-17475976D01*
X12536238Y-17475976D01*
X12555286Y-17466452D01*
X12564809Y-17456929D01*
X12574333Y-17437881D01*
X12574333Y-17399786D01*
X12564809Y-17380738D01*
X12555286Y-17371214D01*
X12536238Y-17361690D01*
X12812428Y-17475976D02*
X12812428Y-17275976D01*
X12898143Y-17475976D02*
X12898143Y-17371214D01*
X12888619Y-17352167D01*
X12869571Y-17342643D01*
X12841000Y-17342643D01*
X12821952Y-17352167D01*
X12812428Y-17361690D01*
X13021952Y-17475976D02*
X13002905Y-17466452D01*
X12993381Y-17456929D01*
X12983857Y-17437881D01*
X12983857Y-17380738D01*
X12993381Y-17361690D01*
X13002905Y-17352167D01*
X13021952Y-17342643D01*
X13050524Y-17342643D01*
X13069571Y-17352167D01*
X13079095Y-17361690D01*
X13088619Y-17380738D01*
X13088619Y-17437881D01*
X13079095Y-17456929D01*
X13069571Y-17466452D01*
X13050524Y-17475976D01*
X13021952Y-17475976D01*
X13202905Y-17475976D02*
X13183857Y-17466452D01*
X13174333Y-17447405D01*
X13174333Y-17275976D01*
X13355286Y-17466452D02*
X13336238Y-17475976D01*
X13298143Y-17475976D01*
X13279095Y-17466452D01*
X13269571Y-17447405D01*
X13269571Y-17371214D01*
X13279095Y-17352167D01*
X13298143Y-17342643D01*
X13336238Y-17342643D01*
X13355286Y-17352167D01*
X13364809Y-17371214D01*
X13364809Y-17390262D01*
X13269571Y-17409310D01*
X13441000Y-17466452D02*
X13460048Y-17475976D01*
X13498143Y-17475976D01*
X13517190Y-17466452D01*
X13526714Y-17447405D01*
X13526714Y-17437881D01*
X13517190Y-17418833D01*
X13498143Y-17409310D01*
X13469571Y-17409310D01*
X13450524Y-17399786D01*
X13441000Y-17380738D01*
X13441000Y-17371214D01*
X13450524Y-17352167D01*
X13469571Y-17342643D01*
X13498143Y-17342643D01*
X13517190Y-17352167D01*
X13593381Y-17552167D02*
X13602905Y-17542643D01*
X13621952Y-17514071D01*
X13631476Y-17495024D01*
X13641000Y-17466452D01*
X13650524Y-17418833D01*
X13650524Y-17380738D01*
X13641000Y-17333119D01*
X13631476Y-17304548D01*
X13621952Y-17285500D01*
X13602905Y-17256929D01*
X13593381Y-17247405D01*
D16*
X8501000Y-17584500D02*
X8631000Y-17714500D01*
X8631000Y-17584500D02*
X8501000Y-17714500D01*
X8631000Y-17649500D02*
G75*
G03*
X8631000Y-17649500I-65000J0D01*
G01*
D11*
X8993381Y-17739976D02*
X8879095Y-17739976D01*
X8936238Y-17739976D02*
X8936238Y-17539976D01*
X8917190Y-17568548D01*
X8898143Y-17587595D01*
X8879095Y-17597119D01*
X9079095Y-17720929D02*
X9088619Y-17730452D01*
X9079095Y-17739976D01*
X9069571Y-17730452D01*
X9079095Y-17720929D01*
X9079095Y-17739976D01*
X9155286Y-17539976D02*
X9279095Y-17539976D01*
X9212429Y-17616167D01*
X9241000Y-17616167D01*
X9260048Y-17625690D01*
X9269571Y-17635214D01*
X9279095Y-17654262D01*
X9279095Y-17701881D01*
X9269571Y-17720929D01*
X9260048Y-17730452D01*
X9241000Y-17739976D01*
X9183857Y-17739976D01*
X9164810Y-17730452D01*
X9155286Y-17720929D01*
X9402905Y-17539976D02*
X9421952Y-17539976D01*
X9441000Y-17549500D01*
X9450524Y-17559024D01*
X9460048Y-17578071D01*
X9469571Y-17616167D01*
X9469571Y-17663786D01*
X9460048Y-17701881D01*
X9450524Y-17720929D01*
X9441000Y-17730452D01*
X9421952Y-17739976D01*
X9402905Y-17739976D01*
X9383857Y-17730452D01*
X9374333Y-17720929D01*
X9364810Y-17701881D01*
X9355286Y-17663786D01*
X9355286Y-17616167D01*
X9364810Y-17578071D01*
X9374333Y-17559024D01*
X9383857Y-17549500D01*
X9402905Y-17539976D01*
X9593381Y-17539976D02*
X9612429Y-17539976D01*
X9631476Y-17549500D01*
X9641000Y-17559024D01*
X9650524Y-17578071D01*
X9660048Y-17616167D01*
X9660048Y-17663786D01*
X9650524Y-17701881D01*
X9641000Y-17720929D01*
X9631476Y-17730452D01*
X9612429Y-17739976D01*
X9593381Y-17739976D01*
X9574333Y-17730452D01*
X9564810Y-17720929D01*
X9555286Y-17701881D01*
X9545762Y-17663786D01*
X9545762Y-17616167D01*
X9555286Y-17578071D01*
X9564810Y-17559024D01*
X9574333Y-17549500D01*
X9593381Y-17539976D01*
X9745762Y-17739976D02*
X9745762Y-17606643D01*
X9745762Y-17625690D02*
X9755286Y-17616167D01*
X9774333Y-17606643D01*
X9802905Y-17606643D01*
X9821952Y-17616167D01*
X9831476Y-17635214D01*
X9831476Y-17739976D01*
X9831476Y-17635214D02*
X9841000Y-17616167D01*
X9860048Y-17606643D01*
X9888619Y-17606643D01*
X9907667Y-17616167D01*
X9917190Y-17635214D01*
X9917190Y-17739976D01*
X10012429Y-17739976D02*
X10012429Y-17606643D01*
X10012429Y-17625690D02*
X10021952Y-17616167D01*
X10041000Y-17606643D01*
X10069571Y-17606643D01*
X10088619Y-17616167D01*
X10098143Y-17635214D01*
X10098143Y-17739976D01*
X10098143Y-17635214D02*
X10107667Y-17616167D01*
X10126714Y-17606643D01*
X10155286Y-17606643D01*
X10174333Y-17616167D01*
X10183857Y-17635214D01*
X10183857Y-17739976D01*
X10574333Y-17530452D02*
X10402905Y-17787595D01*
X10831476Y-17539976D02*
X10850524Y-17539976D01*
X10869571Y-17549500D01*
X10879095Y-17559024D01*
X10888619Y-17578071D01*
X10898143Y-17616167D01*
X10898143Y-17663786D01*
X10888619Y-17701881D01*
X10879095Y-17720929D01*
X10869571Y-17730452D01*
X10850524Y-17739976D01*
X10831476Y-17739976D01*
X10812429Y-17730452D01*
X10802905Y-17720929D01*
X10793381Y-17701881D01*
X10783857Y-17663786D01*
X10783857Y-17616167D01*
X10793381Y-17578071D01*
X10802905Y-17559024D01*
X10812429Y-17549500D01*
X10831476Y-17539976D01*
X10983857Y-17720929D02*
X10993381Y-17730452D01*
X10983857Y-17739976D01*
X10974333Y-17730452D01*
X10983857Y-17720929D01*
X10983857Y-17739976D01*
X11117190Y-17539976D02*
X11136238Y-17539976D01*
X11155286Y-17549500D01*
X11164810Y-17559024D01*
X11174333Y-17578071D01*
X11183857Y-17616167D01*
X11183857Y-17663786D01*
X11174333Y-17701881D01*
X11164810Y-17720929D01*
X11155286Y-17730452D01*
X11136238Y-17739976D01*
X11117190Y-17739976D01*
X11098143Y-17730452D01*
X11088619Y-17720929D01*
X11079095Y-17701881D01*
X11069571Y-17663786D01*
X11069571Y-17616167D01*
X11079095Y-17578071D01*
X11088619Y-17559024D01*
X11098143Y-17549500D01*
X11117190Y-17539976D01*
X11364809Y-17539976D02*
X11269571Y-17539976D01*
X11260048Y-17635214D01*
X11269571Y-17625690D01*
X11288619Y-17616167D01*
X11336238Y-17616167D01*
X11355286Y-17625690D01*
X11364809Y-17635214D01*
X11374333Y-17654262D01*
X11374333Y-17701881D01*
X11364809Y-17720929D01*
X11355286Y-17730452D01*
X11336238Y-17739976D01*
X11288619Y-17739976D01*
X11269571Y-17730452D01*
X11260048Y-17720929D01*
X11564809Y-17739976D02*
X11450524Y-17739976D01*
X11507667Y-17739976D02*
X11507667Y-17539976D01*
X11488619Y-17568548D01*
X11469571Y-17587595D01*
X11450524Y-17597119D01*
X11641000Y-17559024D02*
X11650524Y-17549500D01*
X11669571Y-17539976D01*
X11717190Y-17539976D01*
X11736238Y-17549500D01*
X11745762Y-17559024D01*
X11755286Y-17578071D01*
X11755286Y-17597119D01*
X11745762Y-17625690D01*
X11631476Y-17739976D01*
X11755286Y-17739976D01*
X11831476Y-17539976D02*
X11831476Y-17578071D01*
X11907667Y-17539976D02*
X11907667Y-17578071D01*
X12202905Y-17816167D02*
X12193381Y-17806643D01*
X12174333Y-17778071D01*
X12164809Y-17759024D01*
X12155286Y-17730452D01*
X12145762Y-17682833D01*
X12145762Y-17644738D01*
X12155286Y-17597119D01*
X12164809Y-17568548D01*
X12174333Y-17549500D01*
X12193381Y-17520929D01*
X12202905Y-17511405D01*
X12269571Y-17559024D02*
X12279095Y-17549500D01*
X12298143Y-17539976D01*
X12345762Y-17539976D01*
X12364809Y-17549500D01*
X12374333Y-17559024D01*
X12383857Y-17578071D01*
X12383857Y-17597119D01*
X12374333Y-17625690D01*
X12260048Y-17739976D01*
X12383857Y-17739976D01*
X12621952Y-17739976D02*
X12621952Y-17539976D01*
X12707667Y-17739976D02*
X12707667Y-17635214D01*
X12698143Y-17616167D01*
X12679095Y-17606643D01*
X12650524Y-17606643D01*
X12631476Y-17616167D01*
X12621952Y-17625690D01*
X12831476Y-17739976D02*
X12812428Y-17730452D01*
X12802905Y-17720929D01*
X12793381Y-17701881D01*
X12793381Y-17644738D01*
X12802905Y-17625690D01*
X12812428Y-17616167D01*
X12831476Y-17606643D01*
X12860048Y-17606643D01*
X12879095Y-17616167D01*
X12888619Y-17625690D01*
X12898143Y-17644738D01*
X12898143Y-17701881D01*
X12888619Y-17720929D01*
X12879095Y-17730452D01*
X12860048Y-17739976D01*
X12831476Y-17739976D01*
X13012428Y-17739976D02*
X12993381Y-17730452D01*
X12983857Y-17711405D01*
X12983857Y-17539976D01*
X13164809Y-17730452D02*
X13145762Y-17739976D01*
X13107667Y-17739976D01*
X13088619Y-17730452D01*
X13079095Y-17711405D01*
X13079095Y-17635214D01*
X13088619Y-17616167D01*
X13107667Y-17606643D01*
X13145762Y-17606643D01*
X13164809Y-17616167D01*
X13174333Y-17635214D01*
X13174333Y-17654262D01*
X13079095Y-17673310D01*
X13250524Y-17730452D02*
X13269571Y-17739976D01*
X13307667Y-17739976D01*
X13326714Y-17730452D01*
X13336238Y-17711405D01*
X13336238Y-17701881D01*
X13326714Y-17682833D01*
X13307667Y-17673310D01*
X13279095Y-17673310D01*
X13260048Y-17663786D01*
X13250524Y-17644738D01*
X13250524Y-17635214D01*
X13260048Y-17616167D01*
X13279095Y-17606643D01*
X13307667Y-17606643D01*
X13326714Y-17616167D01*
X13402905Y-17816167D02*
X13412428Y-17806643D01*
X13431476Y-17778071D01*
X13441000Y-17759024D01*
X13450524Y-17730452D01*
X13460048Y-17682833D01*
X13460048Y-17644738D01*
X13450524Y-17597119D01*
X13441000Y-17568548D01*
X13431476Y-17549500D01*
X13412428Y-17520929D01*
X13402905Y-17511405D01*
D17*
X8479000Y-17837500D02*
X8631000Y-17989500D01*
X8631000Y-17837500D02*
X8479000Y-17989500D01*
X8555000Y-17837500D02*
X8555000Y-17989500D01*
X8479000Y-17913500D02*
X8631000Y-17913500D01*
D11*
X8993381Y-18003976D02*
X8879095Y-18003976D01*
X8936238Y-18003976D02*
X8936238Y-17803976D01*
X8917190Y-17832548D01*
X8898143Y-17851595D01*
X8879095Y-17861119D01*
X9079095Y-17984929D02*
X9088619Y-17994452D01*
X9079095Y-18003976D01*
X9069571Y-17994452D01*
X9079095Y-17984929D01*
X9079095Y-18003976D01*
X9269571Y-17803976D02*
X9174333Y-17803976D01*
X9164810Y-17899214D01*
X9174333Y-17889690D01*
X9193381Y-17880167D01*
X9241000Y-17880167D01*
X9260048Y-17889690D01*
X9269571Y-17899214D01*
X9279095Y-17918262D01*
X9279095Y-17965881D01*
X9269571Y-17984929D01*
X9260048Y-17994452D01*
X9241000Y-18003976D01*
X9193381Y-18003976D01*
X9174333Y-17994452D01*
X9164810Y-17984929D01*
X9355286Y-17823024D02*
X9364810Y-17813500D01*
X9383857Y-17803976D01*
X9431476Y-17803976D01*
X9450524Y-17813500D01*
X9460048Y-17823024D01*
X9469571Y-17842071D01*
X9469571Y-17861119D01*
X9460048Y-17889690D01*
X9345762Y-18003976D01*
X9469571Y-18003976D01*
X9593381Y-17803976D02*
X9612429Y-17803976D01*
X9631476Y-17813500D01*
X9641000Y-17823024D01*
X9650524Y-17842071D01*
X9660048Y-17880167D01*
X9660048Y-17927786D01*
X9650524Y-17965881D01*
X9641000Y-17984929D01*
X9631476Y-17994452D01*
X9612429Y-18003976D01*
X9593381Y-18003976D01*
X9574333Y-17994452D01*
X9564810Y-17984929D01*
X9555286Y-17965881D01*
X9545762Y-17927786D01*
X9545762Y-17880167D01*
X9555286Y-17842071D01*
X9564810Y-17823024D01*
X9574333Y-17813500D01*
X9593381Y-17803976D01*
X9745762Y-18003976D02*
X9745762Y-17870643D01*
X9745762Y-17889690D02*
X9755286Y-17880167D01*
X9774333Y-17870643D01*
X9802905Y-17870643D01*
X9821952Y-17880167D01*
X9831476Y-17899214D01*
X9831476Y-18003976D01*
X9831476Y-17899214D02*
X9841000Y-17880167D01*
X9860048Y-17870643D01*
X9888619Y-17870643D01*
X9907667Y-17880167D01*
X9917190Y-17899214D01*
X9917190Y-18003976D01*
X10012429Y-18003976D02*
X10012429Y-17870643D01*
X10012429Y-17889690D02*
X10021952Y-17880167D01*
X10041000Y-17870643D01*
X10069571Y-17870643D01*
X10088619Y-17880167D01*
X10098143Y-17899214D01*
X10098143Y-18003976D01*
X10098143Y-17899214D02*
X10107667Y-17880167D01*
X10126714Y-17870643D01*
X10155286Y-17870643D01*
X10174333Y-17880167D01*
X10183857Y-17899214D01*
X10183857Y-18003976D01*
X10574333Y-17794452D02*
X10402905Y-18051595D01*
X10831476Y-17803976D02*
X10850524Y-17803976D01*
X10869571Y-17813500D01*
X10879095Y-17823024D01*
X10888619Y-17842071D01*
X10898143Y-17880167D01*
X10898143Y-17927786D01*
X10888619Y-17965881D01*
X10879095Y-17984929D01*
X10869571Y-17994452D01*
X10850524Y-18003976D01*
X10831476Y-18003976D01*
X10812429Y-17994452D01*
X10802905Y-17984929D01*
X10793381Y-17965881D01*
X10783857Y-17927786D01*
X10783857Y-17880167D01*
X10793381Y-17842071D01*
X10802905Y-17823024D01*
X10812429Y-17813500D01*
X10831476Y-17803976D01*
X10983857Y-17984929D02*
X10993381Y-17994452D01*
X10983857Y-18003976D01*
X10974333Y-17994452D01*
X10983857Y-17984929D01*
X10983857Y-18003976D01*
X11117190Y-17803976D02*
X11136238Y-17803976D01*
X11155286Y-17813500D01*
X11164810Y-17823024D01*
X11174333Y-17842071D01*
X11183857Y-17880167D01*
X11183857Y-17927786D01*
X11174333Y-17965881D01*
X11164810Y-17984929D01*
X11155286Y-17994452D01*
X11136238Y-18003976D01*
X11117190Y-18003976D01*
X11098143Y-17994452D01*
X11088619Y-17984929D01*
X11079095Y-17965881D01*
X11069571Y-17927786D01*
X11069571Y-17880167D01*
X11079095Y-17842071D01*
X11088619Y-17823024D01*
X11098143Y-17813500D01*
X11117190Y-17803976D01*
X11364809Y-17803976D02*
X11269571Y-17803976D01*
X11260048Y-17899214D01*
X11269571Y-17889690D01*
X11288619Y-17880167D01*
X11336238Y-17880167D01*
X11355286Y-17889690D01*
X11364809Y-17899214D01*
X11374333Y-17918262D01*
X11374333Y-17965881D01*
X11364809Y-17984929D01*
X11355286Y-17994452D01*
X11336238Y-18003976D01*
X11288619Y-18003976D01*
X11269571Y-17994452D01*
X11260048Y-17984929D01*
X11469571Y-18003976D02*
X11507667Y-18003976D01*
X11526714Y-17994452D01*
X11536238Y-17984929D01*
X11555286Y-17956357D01*
X11564809Y-17918262D01*
X11564809Y-17842071D01*
X11555286Y-17823024D01*
X11545762Y-17813500D01*
X11526714Y-17803976D01*
X11488619Y-17803976D01*
X11469571Y-17813500D01*
X11460048Y-17823024D01*
X11450524Y-17842071D01*
X11450524Y-17889690D01*
X11460048Y-17908738D01*
X11469571Y-17918262D01*
X11488619Y-17927786D01*
X11526714Y-17927786D01*
X11545762Y-17918262D01*
X11555286Y-17908738D01*
X11564809Y-17889690D01*
X11679095Y-17889690D02*
X11660048Y-17880167D01*
X11650524Y-17870643D01*
X11641000Y-17851595D01*
X11641000Y-17842071D01*
X11650524Y-17823024D01*
X11660048Y-17813500D01*
X11679095Y-17803976D01*
X11717190Y-17803976D01*
X11736238Y-17813500D01*
X11745762Y-17823024D01*
X11755286Y-17842071D01*
X11755286Y-17851595D01*
X11745762Y-17870643D01*
X11736238Y-17880167D01*
X11717190Y-17889690D01*
X11679095Y-17889690D01*
X11660048Y-17899214D01*
X11650524Y-17908738D01*
X11641000Y-17927786D01*
X11641000Y-17965881D01*
X11650524Y-17984929D01*
X11660048Y-17994452D01*
X11679095Y-18003976D01*
X11717190Y-18003976D01*
X11736238Y-17994452D01*
X11745762Y-17984929D01*
X11755286Y-17965881D01*
X11755286Y-17927786D01*
X11745762Y-17908738D01*
X11736238Y-17899214D01*
X11717190Y-17889690D01*
X11831476Y-17803976D02*
X11831476Y-17842071D01*
X11907667Y-17803976D02*
X11907667Y-17842071D01*
X12202905Y-18080167D02*
X12193381Y-18070643D01*
X12174333Y-18042071D01*
X12164809Y-18023024D01*
X12155286Y-17994452D01*
X12145762Y-17946833D01*
X12145762Y-17908738D01*
X12155286Y-17861119D01*
X12164809Y-17832548D01*
X12174333Y-17813500D01*
X12193381Y-17784929D01*
X12202905Y-17775405D01*
X12269571Y-17823024D02*
X12279095Y-17813500D01*
X12298143Y-17803976D01*
X12345762Y-17803976D01*
X12364809Y-17813500D01*
X12374333Y-17823024D01*
X12383857Y-17842071D01*
X12383857Y-17861119D01*
X12374333Y-17889690D01*
X12260048Y-18003976D01*
X12383857Y-18003976D01*
X12621952Y-18003976D02*
X12621952Y-17803976D01*
X12707667Y-18003976D02*
X12707667Y-17899214D01*
X12698143Y-17880167D01*
X12679095Y-17870643D01*
X12650524Y-17870643D01*
X12631476Y-17880167D01*
X12621952Y-17889690D01*
X12831476Y-18003976D02*
X12812428Y-17994452D01*
X12802905Y-17984929D01*
X12793381Y-17965881D01*
X12793381Y-17908738D01*
X12802905Y-17889690D01*
X12812428Y-17880167D01*
X12831476Y-17870643D01*
X12860048Y-17870643D01*
X12879095Y-17880167D01*
X12888619Y-17889690D01*
X12898143Y-17908738D01*
X12898143Y-17965881D01*
X12888619Y-17984929D01*
X12879095Y-17994452D01*
X12860048Y-18003976D01*
X12831476Y-18003976D01*
X13012428Y-18003976D02*
X12993381Y-17994452D01*
X12983857Y-17975405D01*
X12983857Y-17803976D01*
X13164809Y-17994452D02*
X13145762Y-18003976D01*
X13107667Y-18003976D01*
X13088619Y-17994452D01*
X13079095Y-17975405D01*
X13079095Y-17899214D01*
X13088619Y-17880167D01*
X13107667Y-17870643D01*
X13145762Y-17870643D01*
X13164809Y-17880167D01*
X13174333Y-17899214D01*
X13174333Y-17918262D01*
X13079095Y-17937310D01*
X13250524Y-17994452D02*
X13269571Y-18003976D01*
X13307667Y-18003976D01*
X13326714Y-17994452D01*
X13336238Y-17975405D01*
X13336238Y-17965881D01*
X13326714Y-17946833D01*
X13307667Y-17937310D01*
X13279095Y-17937310D01*
X13260048Y-17927786D01*
X13250524Y-17908738D01*
X13250524Y-17899214D01*
X13260048Y-17880167D01*
X13279095Y-17870643D01*
X13307667Y-17870643D01*
X13326714Y-17880167D01*
X13402905Y-18080167D02*
X13412428Y-18070643D01*
X13431476Y-18042071D01*
X13441000Y-18023024D01*
X13450524Y-17994452D01*
X13460048Y-17946833D01*
X13460048Y-17908738D01*
X13450524Y-17861119D01*
X13441000Y-17832548D01*
X13431476Y-17813500D01*
X13412428Y-17784929D01*
X13402905Y-17775405D01*
M02*
