%TF.GenerationSoftware,KiCad,Pcbnew,(6.0.9)*%
%TF.CreationDate,2023-01-01T04:26:49+02:00*%
%TF.ProjectId,ESP32_LEDCONTROLLER,45535033-325f-44c4-9544-434f4e54524f,rev?*%
%TF.SameCoordinates,Original*%
%TF.FileFunction,Copper,L1,Top*%
%TF.FilePolarity,Positive*%
%FSLAX46Y46*%
G04 Gerber Fmt 4.6, Leading zero omitted, Abs format (unit mm)*
G04 Created by KiCad (PCBNEW (6.0.9)) date 2023-01-01 04:26:49*
%MOMM*%
%LPD*%
G01*
G04 APERTURE LIST*
%TA.AperFunction,ComponentPad*%
%ADD10C,2.000000*%
%TD*%
%TA.AperFunction,ComponentPad*%
%ADD11R,2.000000X2.000000*%
%TD*%
%TA.AperFunction,ComponentPad*%
%ADD12C,2.600000*%
%TD*%
%TA.AperFunction,ComponentPad*%
%ADD13R,1.275000X1.800000*%
%TD*%
%TA.AperFunction,ComponentPad*%
%ADD14O,1.275000X1.800000*%
%TD*%
%TA.AperFunction,ComponentPad*%
%ADD15O,1.600000X1.600000*%
%TD*%
%TA.AperFunction,ComponentPad*%
%ADD16C,1.600000*%
%TD*%
%TA.AperFunction,ComponentPad*%
%ADD17R,2.400000X2.400000*%
%TD*%
%TA.AperFunction,ComponentPad*%
%ADD18C,2.400000*%
%TD*%
%TA.AperFunction,ComponentPad*%
%ADD19R,1.600000X1.600000*%
%TD*%
%TA.AperFunction,ComponentPad*%
%ADD20O,2.400000X2.400000*%
%TD*%
%TA.AperFunction,ComponentPad*%
%ADD21C,3.000000*%
%TD*%
%TA.AperFunction,ComponentPad*%
%ADD22R,3.000000X3.000000*%
%TD*%
%TA.AperFunction,Conductor*%
%ADD23C,0.500000*%
%TD*%
%TA.AperFunction,Conductor*%
%ADD24C,0.250000*%
%TD*%
%TA.AperFunction,Conductor*%
%ADD25C,2.000000*%
%TD*%
%TA.AperFunction,Conductor*%
%ADD26C,1.000000*%
%TD*%
G04 APERTURE END LIST*
D10*
%TO.P,U2,30,VIN*%
%TO.N,VCC*%
X104140000Y-141245000D03*
%TO.P,U2,29,GND*%
%TO.N,GND*%
X104140000Y-138705000D03*
%TO.P,U2,28,D13*%
%TO.N,unconnected-(U2-Pad28)*%
X104140000Y-136165000D03*
%TO.P,U2,27,D12*%
%TO.N,unconnected-(U2-Pad27)*%
X104140000Y-133625000D03*
%TO.P,U2,26,D14*%
%TO.N,unconnected-(U2-Pad26)*%
X104140000Y-131085000D03*
%TO.P,U2,25,D27*%
%TO.N,Net-(U2-Pad25)*%
X104140000Y-128545000D03*
%TO.P,U2,24,D26*%
%TO.N,Net-(R6-Pad1)*%
X104140000Y-126005000D03*
%TO.P,U2,23,D25*%
%TO.N,Net-(U2-Pad23)*%
X104140000Y-123465000D03*
%TO.P,U2,22,D33*%
%TO.N,Net-(R8-Pad1)*%
X104140000Y-120925000D03*
%TO.P,U2,21,D32*%
%TO.N,unconnected-(U2-Pad21)*%
X104140000Y-118385000D03*
%TO.P,U2,20,D35*%
%TO.N,unconnected-(U2-Pad20)*%
X104140000Y-115845000D03*
%TO.P,U2,19,D34*%
%TO.N,unconnected-(U2-Pad19)*%
X104140000Y-113305000D03*
%TO.P,U2,18,VN*%
%TO.N,unconnected-(U2-Pad18)*%
X104140000Y-110765000D03*
%TO.P,U2,17,VP*%
%TO.N,unconnected-(U2-Pad17)*%
X104140000Y-108225000D03*
%TO.P,U2,16,EN*%
%TO.N,unconnected-(U2-Pad16)*%
X104140000Y-105685000D03*
%TO.P,U2,15,D23*%
%TO.N,unconnected-(U2-Pad15)*%
X129540000Y-105685000D03*
%TO.P,U2,14,D22*%
%TO.N,unconnected-(U2-Pad14)*%
X129540000Y-108225000D03*
%TO.P,U2,13,TX0*%
%TO.N,unconnected-(U2-Pad13)*%
X129540000Y-110765000D03*
%TO.P,U2,12,RX0*%
%TO.N,unconnected-(U2-Pad12)*%
X129540000Y-113305000D03*
%TO.P,U2,11,D21*%
%TO.N,unconnected-(U2-Pad11)*%
X129540000Y-115845000D03*
%TO.P,U2,10,D19*%
%TO.N,unconnected-(U2-Pad10)*%
X129540000Y-118385000D03*
%TO.P,U2,9,D18*%
%TO.N,Net-(R4-Pad1)*%
X129540000Y-120925000D03*
%TO.P,U2,8,D5*%
%TO.N,Net-(R3-Pad1)*%
X129540000Y-123465000D03*
%TO.P,U2,7,TX2*%
%TO.N,unconnected-(U2-Pad7)*%
X129540000Y-126005000D03*
%TO.P,U2,6,RX2*%
%TO.N,unconnected-(U2-Pad6)*%
X129540000Y-128545000D03*
%TO.P,U2,5,D4*%
%TO.N,Net-(R2-Pad1)*%
X129540000Y-131085000D03*
%TO.P,U2,4,D2*%
%TO.N,Net-(R1-Pad1)*%
X129540000Y-133625000D03*
%TO.P,U2,3,D15*%
%TO.N,unconnected-(U2-Pad3)*%
X129540000Y-136165000D03*
%TO.P,U2,2,GND*%
%TO.N,GND*%
X129540000Y-138705000D03*
D11*
%TO.P,U2,1,3V3*%
%TO.N,unconnected-(U2-Pad1)*%
X129540000Y-141245000D03*
%TD*%
D10*
%TO.P,C2,2*%
%TO.N,GND*%
X96520000Y-110397677D03*
D11*
%TO.P,C2,1*%
%TO.N,VCC*%
X96520000Y-115397677D03*
%TD*%
D12*
%TO.P,L1,1,1*%
%TO.N,Net-(D1-Pad1)*%
X99060000Y-101600000D03*
%TO.P,L1,2,2*%
%TO.N,VCC*%
X94060000Y-101600000D03*
%TD*%
D13*
%TO.P,U1,1,VIN*%
%TO.N,VSS*%
X113030000Y-95250000D03*
D14*
%TO.P,U1,2,OUT*%
%TO.N,Net-(D1-Pad1)*%
X111330000Y-95250000D03*
%TO.P,U1,3,GND*%
%TO.N,GND*%
X109630000Y-95250000D03*
%TO.P,U1,4,FB*%
%TO.N,VCC*%
X107930000Y-95250000D03*
%TO.P,U1,5,~{ON}/OFF*%
%TO.N,GND*%
X106230000Y-95250000D03*
%TD*%
D15*
%TO.P,R8,2*%
%TO.N,Net-(J4-Pad3)*%
X123190000Y-135890000D03*
D16*
%TO.P,R8,1*%
%TO.N,Net-(R8-Pad1)*%
X123190000Y-128270000D03*
%TD*%
D17*
%TO.P,J5,1,Pin_1*%
%TO.N,GND*%
X92910000Y-121580000D03*
D18*
%TO.P,J5,2,Pin_2*%
%TO.N,Net-(J5-Pad2)*%
X92910000Y-125080000D03*
%TO.P,J5,3,Pin_3*%
%TO.N,Net-(J5-Pad3)*%
X92910000Y-128580000D03*
%TO.P,J5,4,Pin_4*%
%TO.N,VSS*%
X92910000Y-132080000D03*
%TD*%
%TO.P,J4,4,Pin_4*%
%TO.N,GND*%
X92810000Y-148760000D03*
%TO.P,J4,3,Pin_3*%
%TO.N,Net-(J4-Pad3)*%
X92810000Y-145260000D03*
%TO.P,J4,2,Pin_2*%
%TO.N,Net-(J4-Pad2)*%
X92810000Y-141760000D03*
D17*
%TO.P,J4,1,Pin_1*%
%TO.N,VSS*%
X92810000Y-138260000D03*
%TD*%
%TO.P,J3,1,Pin_1*%
%TO.N,VSS*%
X140970000Y-132250000D03*
D18*
%TO.P,J3,2,Pin_2*%
%TO.N,Net-(J3-Pad2)*%
X140970000Y-128750000D03*
%TO.P,J3,3,Pin_3*%
%TO.N,Net-(J3-Pad3)*%
X140970000Y-125250000D03*
%TO.P,J3,4,Pin_4*%
%TO.N,GND*%
X140970000Y-121750000D03*
%TD*%
D17*
%TO.P,J2,1,Pin_1*%
%TO.N,VSS*%
X141070000Y-148590000D03*
D18*
%TO.P,J2,2,Pin_2*%
%TO.N,Net-(J2-Pad2)*%
X141070000Y-145090000D03*
%TO.P,J2,3,Pin_3*%
%TO.N,Net-(J2-Pad3)*%
X141070000Y-141590000D03*
%TO.P,J2,4,Pin_4*%
%TO.N,GND*%
X141070000Y-138090000D03*
%TD*%
D16*
%TO.P,C1,2*%
%TO.N,GND*%
X141070000Y-115570000D03*
D19*
%TO.P,C1,1*%
%TO.N,VSS*%
X141070000Y-112070000D03*
%TD*%
D15*
%TO.P,R5,2*%
%TO.N,Net-(J4-Pad2)*%
X118110000Y-135890000D03*
D16*
%TO.P,R5,1*%
%TO.N,Net-(U2-Pad23)*%
X118110000Y-128270000D03*
%TD*%
%TO.P,R4,1*%
%TO.N,Net-(R4-Pad1)*%
X110490000Y-138430000D03*
D15*
%TO.P,R4,2*%
%TO.N,Net-(J2-Pad2)*%
X110490000Y-146050000D03*
%TD*%
D16*
%TO.P,R3,1*%
%TO.N,Net-(R3-Pad1)*%
X115570000Y-138430000D03*
D15*
%TO.P,R3,2*%
%TO.N,Net-(J2-Pad3)*%
X115570000Y-146050000D03*
%TD*%
D16*
%TO.P,R1,1*%
%TO.N,Net-(R1-Pad1)*%
X125730000Y-138430000D03*
D15*
%TO.P,R1,2*%
%TO.N,Net-(J3-Pad3)*%
X125730000Y-146050000D03*
%TD*%
D20*
%TO.P,D1,2,A*%
%TO.N,GND*%
X130810000Y-96520000D03*
D17*
%TO.P,D1,1,K*%
%TO.N,Net-(D1-Pad1)*%
X118110000Y-96520000D03*
%TD*%
D16*
%TO.P,R2,1*%
%TO.N,Net-(R2-Pad1)*%
X120650000Y-138430000D03*
D15*
%TO.P,R2,2*%
%TO.N,Net-(J3-Pad2)*%
X120650000Y-146050000D03*
%TD*%
%TO.P,R6,2*%
%TO.N,Net-(J5-Pad3)*%
X113030000Y-135890000D03*
D16*
%TO.P,R6,1*%
%TO.N,Net-(R6-Pad1)*%
X113030000Y-128270000D03*
%TD*%
D21*
%TO.P,J1,2,Pin_2*%
%TO.N,VSS*%
X141070000Y-100330000D03*
D22*
%TO.P,J1,1,Pin_1*%
%TO.N,GND*%
X141070000Y-105410000D03*
%TD*%
D15*
%TO.P,R7,2*%
%TO.N,Net-(J5-Pad2)*%
X107950000Y-135890000D03*
D16*
%TO.P,R7,1*%
%TO.N,Net-(U2-Pad25)*%
X107950000Y-128270000D03*
%TD*%
D23*
%TO.N,Net-(D1-Pad1)*%
X111330000Y-96950000D02*
X112170000Y-97790000D01*
X111330000Y-95250000D02*
X111330000Y-96950000D01*
X118110000Y-99060000D02*
X118110000Y-96520000D01*
X107315000Y-99060000D02*
X118110000Y-99060000D01*
X104775000Y-101600000D02*
X107315000Y-99060000D01*
X99060000Y-101600000D02*
X104775000Y-101600000D01*
D24*
%TO.N,Net-(J2-Pad2)*%
X141070000Y-145090000D02*
X139065000Y-147095000D01*
X139065000Y-147095000D02*
X139065000Y-147955000D01*
%TO.N,Net-(J4-Pad3)*%
X123190000Y-138430000D02*
X120650000Y-140970000D01*
X123190000Y-135890000D02*
X123190000Y-138430000D01*
X93600000Y-146050000D02*
X92810000Y-145260000D01*
X105411396Y-146050000D02*
X93600000Y-146050000D01*
%TO.N,Net-(J5-Pad2)*%
X97140000Y-125080000D02*
X92910000Y-125080000D01*
D25*
%TO.N,VSS*%
X89070000Y-138260000D02*
X92810000Y-138260000D01*
X88900000Y-138430000D02*
X89070000Y-138260000D01*
X88900000Y-138430000D02*
X88900000Y-133985000D01*
X88900000Y-149225000D02*
X88900000Y-138430000D01*
X88900000Y-151130000D02*
X88900000Y-149225000D01*
X88900000Y-133985000D02*
X90805000Y-132080000D01*
X92710000Y-154940000D02*
X88900000Y-151130000D01*
X140970000Y-154940000D02*
X92710000Y-154940000D01*
X144780000Y-151130000D02*
X140970000Y-154940000D01*
X90805000Y-132080000D02*
X92910000Y-132080000D01*
X144780000Y-148590000D02*
X144780000Y-151130000D01*
D24*
%TO.N,Net-(J3-Pad2)*%
X139220000Y-128750000D02*
X140970000Y-128750000D01*
X136525000Y-131445000D02*
X139220000Y-128750000D01*
X136525000Y-142875000D02*
X136525000Y-131445000D01*
X132080000Y-147320000D02*
X136525000Y-142875000D01*
X121920000Y-147320000D02*
X132080000Y-147320000D01*
X120650000Y-146050000D02*
X121920000Y-147320000D01*
%TO.N,Net-(J3-Pad3)*%
X135255000Y-128905000D02*
X137160000Y-127000000D01*
X131445000Y-146050000D02*
X133985000Y-143510000D01*
X133985000Y-143510000D02*
X135255000Y-142240000D01*
X135255000Y-142240000D02*
X135255000Y-128905000D01*
X125730000Y-146050000D02*
X131445000Y-146050000D01*
%TO.N,Net-(J2-Pad2)*%
X135255000Y-151765000D02*
X139065000Y-147955000D01*
X113030000Y-146050000D02*
X118745000Y-151765000D01*
X118745000Y-151765000D02*
X135255000Y-151765000D01*
X110490000Y-146050000D02*
X113030000Y-146050000D01*
%TO.N,Net-(J2-Pad3)*%
X134620000Y-150495000D02*
X137160000Y-147955000D01*
X120015000Y-150495000D02*
X134620000Y-150495000D01*
X117475000Y-147955000D02*
X120015000Y-150495000D01*
X138430000Y-142875000D02*
X139715000Y-141590000D01*
X138430000Y-146685000D02*
X138430000Y-142875000D01*
X137160000Y-147955000D02*
X138430000Y-146685000D01*
X139715000Y-141590000D02*
X141070000Y-141590000D01*
X115570000Y-146050000D02*
X117475000Y-147955000D01*
%TO.N,Net-(J3-Pad3)*%
X138910000Y-125250000D02*
X140970000Y-125250000D01*
X137160000Y-127000000D02*
X138910000Y-125250000D01*
%TO.N,Net-(J5-Pad3)*%
X108268198Y-141288198D02*
X109855000Y-139701396D01*
X102683604Y-143960000D02*
X105596396Y-143960000D01*
X99880000Y-140335000D02*
X99880000Y-141156396D01*
X99880000Y-131630000D02*
X99880000Y-140335000D01*
X96830000Y-128580000D02*
X99880000Y-131630000D01*
X99880000Y-141156396D02*
X102683604Y-143960000D01*
X105596396Y-143960000D02*
X108268198Y-141288198D01*
%TO.N,Net-(J4-Pad3)*%
X110491396Y-140970000D02*
X105411396Y-146050000D01*
X120650000Y-140970000D02*
X110491396Y-140970000D01*
%TO.N,Net-(J4-Pad2)*%
X105595000Y-145230000D02*
X102050000Y-145230000D01*
X110490000Y-140335000D02*
X105595000Y-145230000D01*
X116205000Y-140335000D02*
X110490000Y-140335000D01*
X118110000Y-138430000D02*
X116205000Y-140335000D01*
X98580000Y-141760000D02*
X92810000Y-141760000D01*
X118110000Y-135890000D02*
X118110000Y-138430000D01*
X102050000Y-145230000D02*
X98580000Y-141760000D01*
%TO.N,Net-(J5-Pad3)*%
X111760000Y-139700000D02*
X109855000Y-139700000D01*
X113030000Y-138430000D02*
X111760000Y-139700000D01*
X113030000Y-135890000D02*
X113030000Y-138430000D01*
X96830000Y-128580000D02*
X92910000Y-128580000D01*
%TO.N,Net-(J5-Pad2)*%
X100330000Y-128270000D02*
X97140000Y-125080000D01*
X100330000Y-140970000D02*
X100330000Y-128270000D01*
X102870000Y-143510000D02*
X100330000Y-140970000D01*
X105410000Y-143510000D02*
X102870000Y-143510000D01*
X107950000Y-140970000D02*
X105410000Y-143510000D01*
X107950000Y-135890000D02*
X107950000Y-140970000D01*
D25*
%TO.N,VSS*%
X144610000Y-132250000D02*
X140970000Y-132250000D01*
X144780000Y-132080000D02*
X144610000Y-132250000D01*
X144780000Y-132080000D02*
X144780000Y-148590000D01*
X144780000Y-115780000D02*
X144780000Y-132080000D01*
X144780000Y-148590000D02*
X141070000Y-148590000D01*
X141070000Y-112070000D02*
X144780000Y-115780000D01*
X144780000Y-104040000D02*
X144780000Y-108360000D01*
X144780000Y-108360000D02*
X141070000Y-112070000D01*
X141070000Y-100330000D02*
X144780000Y-104040000D01*
D23*
%TO.N,Net-(D1-Pad1)*%
X113030000Y-97790000D02*
X112170000Y-97790000D01*
X114300000Y-96520000D02*
X113030000Y-97790000D01*
X118110000Y-96520000D02*
X114300000Y-96520000D01*
D26*
%TO.N,VCC*%
X101600000Y-138705000D02*
X104140000Y-141245000D01*
X101600000Y-116840000D02*
X101600000Y-138705000D01*
X100157677Y-115397677D02*
X101600000Y-116840000D01*
X96520000Y-115397677D02*
X100157677Y-115397677D01*
X95077677Y-115397677D02*
X96520000Y-115397677D01*
X93980000Y-114300000D02*
X95077677Y-115397677D01*
X93980000Y-101680000D02*
X93980000Y-114300000D01*
X96520000Y-99140000D02*
X93980000Y-101680000D01*
X106680000Y-92710000D02*
X107950000Y-93980000D01*
D24*
X107950000Y-93980000D02*
X107930000Y-94000000D01*
D26*
X100330000Y-92710000D02*
X106680000Y-92710000D01*
X96520000Y-96520000D02*
X100330000Y-92710000D01*
X96520000Y-99140000D02*
X96520000Y-96520000D01*
X107930000Y-94000000D02*
X107930000Y-95250000D01*
%TO.N,VSS*%
X115570000Y-92710000D02*
X113030000Y-95250000D01*
X133450000Y-92710000D02*
X115570000Y-92710000D01*
X141070000Y-100330000D02*
X133450000Y-92710000D01*
D24*
%TO.N,Net-(U2-Pad23)*%
X104140000Y-123465000D02*
X113305000Y-123465000D01*
X113305000Y-123465000D02*
X118110000Y-128270000D01*
%TO.N,Net-(R8-Pad1)*%
X115845000Y-120925000D02*
X123190000Y-128270000D01*
%TO.N,Net-(R6-Pad1)*%
X104140000Y-126005000D02*
X110765000Y-126005000D01*
X110765000Y-126005000D02*
X113030000Y-128270000D01*
%TO.N,Net-(R8-Pad1)*%
X104140000Y-120925000D02*
X115845000Y-120925000D01*
%TO.N,Net-(U2-Pad25)*%
X104140000Y-128545000D02*
X107675000Y-128545000D01*
%TO.N,Net-(R4-Pad1)*%
X125730000Y-123190000D02*
X125730000Y-129540000D01*
%TO.N,Net-(R3-Pad1)*%
X127000000Y-126005000D02*
X127000000Y-130810000D01*
%TO.N,Net-(R4-Pad1)*%
X127995000Y-120925000D02*
X125730000Y-123190000D01*
%TO.N,Net-(R3-Pad1)*%
X129540000Y-123465000D02*
X127000000Y-126005000D01*
%TO.N,Net-(R4-Pad1)*%
X129540000Y-120925000D02*
X127995000Y-120925000D01*
X125730000Y-129540000D02*
X124460000Y-130810000D01*
%TO.N,Net-(R1-Pad1)*%
X126725000Y-133625000D02*
X125730000Y-134620000D01*
X129540000Y-133625000D02*
X126725000Y-133625000D01*
%TO.N,Net-(R3-Pad1)*%
X127000000Y-130810000D02*
X125730000Y-132080000D01*
X125730000Y-132080000D02*
X118110000Y-132080000D01*
%TO.N,Net-(R2-Pad1)*%
X127000000Y-132080000D02*
X125730000Y-133350000D01*
X125730000Y-133350000D02*
X121920000Y-133350000D01*
X128270000Y-132080000D02*
X127000000Y-132080000D01*
%TO.N,Net-(R1-Pad1)*%
X125730000Y-134620000D02*
X125730000Y-138430000D01*
%TO.N,Net-(R2-Pad1)*%
X128545000Y-132080000D02*
X128270000Y-132080000D01*
X129540000Y-131085000D02*
X128545000Y-132080000D01*
X120650000Y-134620000D02*
X120650000Y-138430000D01*
X121920000Y-133350000D02*
X120650000Y-134620000D01*
%TO.N,Net-(R3-Pad1)*%
X118110000Y-132080000D02*
X115570000Y-134620000D01*
X115570000Y-134620000D02*
X115570000Y-138430000D01*
%TO.N,Net-(R4-Pad1)*%
X110490000Y-133350000D02*
X110490000Y-138430000D01*
X113030000Y-130810000D02*
X110490000Y-133350000D01*
X124460000Y-130810000D02*
X113030000Y-130810000D01*
%TO.N,Net-(U2-Pad25)*%
X107675000Y-128545000D02*
X107950000Y-128270000D01*
%TD*%
%TA.AperFunction,Conductor*%
%TO.N,GND*%
G36*
X139500633Y-90697454D02*
G01*
X139573600Y-90743949D01*
X140701757Y-91778093D01*
X146730755Y-97304674D01*
X146788190Y-97383034D01*
X146811265Y-97477409D01*
X146811500Y-97488225D01*
X146811500Y-153268344D01*
X146792546Y-153363632D01*
X146738570Y-153444414D01*
X146657788Y-153498390D01*
X146562500Y-153517344D01*
X146467212Y-153498390D01*
X146420571Y-153472934D01*
X146320188Y-153403296D01*
X146083106Y-153286380D01*
X145921948Y-153234793D01*
X145840148Y-153208608D01*
X145840145Y-153208607D01*
X145831347Y-153205791D01*
X145822233Y-153204307D01*
X145822230Y-153204306D01*
X145753797Y-153193161D01*
X145570441Y-153163300D01*
X145561211Y-153163179D01*
X145561209Y-153163179D01*
X145479096Y-153162104D01*
X145384064Y-153141904D01*
X145303996Y-153086874D01*
X145251082Y-153005393D01*
X145233377Y-152909865D01*
X145253577Y-152814833D01*
X145306286Y-152737055D01*
X145828508Y-152214833D01*
X145833459Y-152210020D01*
X145904681Y-152142668D01*
X145921821Y-152120250D01*
X145950453Y-152082801D01*
X145958639Y-152072656D01*
X146000987Y-152022897D01*
X146007470Y-152015280D01*
X146012655Y-152006719D01*
X146021036Y-151992881D01*
X146036212Y-151970633D01*
X146046049Y-151957767D01*
X146046051Y-151957764D01*
X146052120Y-151949826D01*
X146074246Y-151908561D01*
X146087731Y-151883412D01*
X146094174Y-151872116D01*
X146133221Y-151807642D01*
X146136964Y-151798378D01*
X146136968Y-151798370D01*
X146143038Y-151783347D01*
X146154456Y-151758972D01*
X146162106Y-151744704D01*
X146162108Y-151744700D01*
X146166831Y-151735891D01*
X146191367Y-151664635D01*
X146195923Y-151652449D01*
X146220410Y-151591844D01*
X146220412Y-151591838D01*
X146224156Y-151582571D01*
X146229960Y-151557026D01*
X146237337Y-151531127D01*
X146238349Y-151528188D01*
X146245862Y-151506369D01*
X146258689Y-151432106D01*
X146261244Y-151419322D01*
X146266225Y-151397397D01*
X146277935Y-151345855D01*
X146279580Y-151319709D01*
X146282722Y-151292966D01*
X146285847Y-151274876D01*
X146285847Y-151274874D01*
X146287179Y-151267164D01*
X146288500Y-151238075D01*
X146288500Y-151185770D01*
X146288991Y-151170134D01*
X146291472Y-151130702D01*
X146293178Y-151103587D01*
X146289688Y-151067993D01*
X146288500Y-151043695D01*
X146288500Y-148630618D01*
X146288756Y-148619322D01*
X146292033Y-148547167D01*
X146292033Y-148547162D01*
X146292486Y-148537183D01*
X146290150Y-148516992D01*
X146288500Y-148488375D01*
X146288500Y-132135771D01*
X146288991Y-132120135D01*
X146293178Y-132053588D01*
X146289688Y-132017995D01*
X146288500Y-131993697D01*
X146288500Y-115805719D01*
X146288597Y-115798765D01*
X146291055Y-115710792D01*
X146291055Y-115710788D01*
X146291334Y-115700795D01*
X146288016Y-115675929D01*
X146281368Y-115626100D01*
X146279983Y-115613140D01*
X146275641Y-115559176D01*
X146273940Y-115538035D01*
X146267692Y-115512596D01*
X146262692Y-115486133D01*
X146260553Y-115470099D01*
X146260552Y-115470093D01*
X146259229Y-115460180D01*
X146237450Y-115388046D01*
X146234014Y-115375485D01*
X146223212Y-115331507D01*
X146216037Y-115302294D01*
X146212132Y-115293095D01*
X146212129Y-115293085D01*
X146205800Y-115278174D01*
X146196636Y-115252859D01*
X146191958Y-115237364D01*
X146191954Y-115237353D01*
X146189067Y-115227792D01*
X146184686Y-115218810D01*
X146184683Y-115218802D01*
X146156034Y-115160063D01*
X146150627Y-115148199D01*
X146144019Y-115132630D01*
X146121188Y-115078844D01*
X146107233Y-115056685D01*
X146094135Y-115033153D01*
X146082654Y-115009612D01*
X146039213Y-114948031D01*
X146031994Y-114937207D01*
X145997157Y-114881887D01*
X145997156Y-114881885D01*
X145991833Y-114873433D01*
X145974505Y-114853778D01*
X145957831Y-114832665D01*
X145942726Y-114811253D01*
X145923091Y-114789750D01*
X145886095Y-114752754D01*
X145875387Y-114741350D01*
X145837912Y-114698843D01*
X145831302Y-114691345D01*
X145803669Y-114668647D01*
X145785647Y-114652306D01*
X143379411Y-112246070D01*
X143325435Y-112165288D01*
X143306481Y-112070000D01*
X143325435Y-111974712D01*
X143379411Y-111893930D01*
X144518100Y-110755242D01*
X145828509Y-109444833D01*
X145833494Y-109439986D01*
X145897413Y-109379541D01*
X145904681Y-109372668D01*
X145950460Y-109312792D01*
X145958614Y-109302687D01*
X146007470Y-109245280D01*
X146012654Y-109236721D01*
X146021036Y-109222881D01*
X146036212Y-109200633D01*
X146046049Y-109187767D01*
X146046051Y-109187764D01*
X146052120Y-109179826D01*
X146056840Y-109171024D01*
X146056846Y-109171014D01*
X146087735Y-109113406D01*
X146094193Y-109102084D01*
X146123472Y-109053738D01*
X146133220Y-109037643D01*
X146136963Y-109028380D01*
X146136967Y-109028371D01*
X146143032Y-109013359D01*
X146154457Y-108988969D01*
X146162105Y-108974707D01*
X146162110Y-108974696D01*
X146166831Y-108965891D01*
X146191359Y-108894657D01*
X146195923Y-108882449D01*
X146220410Y-108821841D01*
X146220411Y-108821837D01*
X146224155Y-108812571D01*
X146229956Y-108787038D01*
X146237336Y-108761130D01*
X146242606Y-108745825D01*
X146245862Y-108736369D01*
X146258692Y-108662091D01*
X146261240Y-108649340D01*
X146277935Y-108575856D01*
X146278563Y-108565878D01*
X146278565Y-108565862D01*
X146279581Y-108549709D01*
X146282722Y-108522967D01*
X146285847Y-108504875D01*
X146287179Y-108497164D01*
X146288500Y-108468075D01*
X146288500Y-108415771D01*
X146288991Y-108400135D01*
X146292550Y-108343563D01*
X146293178Y-108333588D01*
X146289688Y-108297995D01*
X146288500Y-108273697D01*
X146288500Y-104065719D01*
X146288597Y-104058765D01*
X146291055Y-103970792D01*
X146291055Y-103970788D01*
X146291334Y-103960795D01*
X146288016Y-103935929D01*
X146281368Y-103886100D01*
X146279983Y-103873140D01*
X146278080Y-103849491D01*
X146273940Y-103798035D01*
X146267692Y-103772596D01*
X146262692Y-103746133D01*
X146260553Y-103730099D01*
X146260552Y-103730093D01*
X146259229Y-103720180D01*
X146237450Y-103648046D01*
X146234014Y-103635485D01*
X146218420Y-103571998D01*
X146216037Y-103562294D01*
X146212132Y-103553095D01*
X146212129Y-103553085D01*
X146205800Y-103538174D01*
X146196636Y-103512859D01*
X146191958Y-103497364D01*
X146191954Y-103497353D01*
X146189067Y-103487792D01*
X146184686Y-103478810D01*
X146184683Y-103478802D01*
X146156034Y-103420063D01*
X146150627Y-103408199D01*
X146150145Y-103407062D01*
X146121188Y-103338844D01*
X146107233Y-103316685D01*
X146094135Y-103293153D01*
X146093097Y-103291025D01*
X146082654Y-103269612D01*
X146039213Y-103208031D01*
X146031994Y-103197207D01*
X145997157Y-103141887D01*
X145997156Y-103141885D01*
X145991833Y-103133433D01*
X145974505Y-103113778D01*
X145957831Y-103092665D01*
X145942726Y-103071253D01*
X145923091Y-103049750D01*
X145886095Y-103012754D01*
X145875387Y-103001350D01*
X145837912Y-102958843D01*
X145831302Y-102951345D01*
X145803669Y-102928647D01*
X145785647Y-102912306D01*
X143140407Y-100267066D01*
X143086431Y-100186284D01*
X143068054Y-100107931D01*
X143065144Y-100065239D01*
X143065144Y-100065236D01*
X143064567Y-100056778D01*
X143009032Y-99788612D01*
X142917617Y-99530465D01*
X142893488Y-99483715D01*
X142795903Y-99294648D01*
X142795900Y-99294644D01*
X142792013Y-99287112D01*
X142773118Y-99260226D01*
X142639422Y-99069996D01*
X142639420Y-99069994D01*
X142634545Y-99063057D01*
X142566630Y-98989971D01*
X142453903Y-98868663D01*
X142448125Y-98862445D01*
X142365963Y-98795196D01*
X142242768Y-98694361D01*
X142242761Y-98694356D01*
X142236205Y-98688990D01*
X142002704Y-98545901D01*
X141751945Y-98435825D01*
X141488566Y-98360800D01*
X141480180Y-98359606D01*
X141480173Y-98359605D01*
X141330417Y-98338292D01*
X141217443Y-98322213D01*
X141089290Y-98321542D01*
X140952070Y-98320824D01*
X140952065Y-98320824D01*
X140943591Y-98320780D01*
X140923637Y-98323407D01*
X140680485Y-98355418D01*
X140680482Y-98355419D01*
X140672078Y-98356525D01*
X140671969Y-98355697D01*
X140582042Y-98355937D01*
X140492184Y-98318997D01*
X140453898Y-98287663D01*
X136734548Y-94568314D01*
X138552124Y-94568314D01*
X138552568Y-94577549D01*
X138553856Y-94604367D01*
X138553856Y-94604368D01*
X138564130Y-94818255D01*
X138564807Y-94832352D01*
X138616378Y-95091616D01*
X138619499Y-95100308D01*
X138619499Y-95100309D01*
X138699830Y-95324049D01*
X138705704Y-95340410D01*
X138830822Y-95573267D01*
X138988985Y-95785073D01*
X139176718Y-95971174D01*
X139184155Y-95976627D01*
X139184162Y-95976633D01*
X139380764Y-96120787D01*
X139389896Y-96127483D01*
X139398060Y-96131779D01*
X139398066Y-96131782D01*
X139615653Y-96246260D01*
X139615656Y-96246261D01*
X139623836Y-96250565D01*
X139632565Y-96253613D01*
X139632569Y-96253615D01*
X139736827Y-96290023D01*
X139873400Y-96337716D01*
X140023805Y-96366271D01*
X140124027Y-96385299D01*
X140124031Y-96385299D01*
X140133104Y-96387022D01*
X140142330Y-96387385D01*
X140142334Y-96387385D01*
X140251707Y-96391682D01*
X140397243Y-96397401D01*
X140406418Y-96396396D01*
X140406422Y-96396396D01*
X140650834Y-96369628D01*
X140650840Y-96369627D01*
X140660015Y-96368622D01*
X140915647Y-96301320D01*
X141033782Y-96250565D01*
X141150035Y-96200619D01*
X141150038Y-96200618D01*
X141158523Y-96196972D01*
X141263869Y-96131782D01*
X141375457Y-96062729D01*
X141375459Y-96062727D01*
X141383307Y-96057871D01*
X141585063Y-95887073D01*
X141759356Y-95688329D01*
X141902359Y-95466006D01*
X142010930Y-95224988D01*
X142053712Y-95073295D01*
X142080173Y-94979471D01*
X142080174Y-94979467D01*
X142082683Y-94970570D01*
X142087079Y-94936019D01*
X142102919Y-94811500D01*
X142116043Y-94708340D01*
X142117300Y-94660347D01*
X142118324Y-94621240D01*
X142118324Y-94621232D01*
X142118487Y-94615000D01*
X142098897Y-94351384D01*
X142040557Y-94093559D01*
X142037211Y-94084956D01*
X142037209Y-94084948D01*
X141948096Y-93855795D01*
X141948094Y-93855791D01*
X141944749Y-93847189D01*
X141940169Y-93839175D01*
X141818159Y-93625701D01*
X141818155Y-93625695D01*
X141813578Y-93617687D01*
X141807866Y-93610441D01*
X141807861Y-93610434D01*
X141664099Y-93428074D01*
X141649925Y-93410094D01*
X141457385Y-93228970D01*
X141240188Y-93078296D01*
X141003106Y-92961380D01*
X140841948Y-92909793D01*
X140760148Y-92883608D01*
X140760145Y-92883607D01*
X140751347Y-92880791D01*
X140742233Y-92879307D01*
X140742230Y-92879306D01*
X140673797Y-92868161D01*
X140490441Y-92838300D01*
X140481211Y-92838179D01*
X140481209Y-92838179D01*
X140293252Y-92835719D01*
X140226121Y-92834840D01*
X139964192Y-92870486D01*
X139710410Y-92944457D01*
X139702031Y-92948320D01*
X139702025Y-92948322D01*
X139478740Y-93051258D01*
X139478737Y-93051259D01*
X139470348Y-93055127D01*
X139462622Y-93060193D01*
X139462621Y-93060193D01*
X139359815Y-93127596D01*
X139249282Y-93200065D01*
X139052067Y-93376086D01*
X138883036Y-93579324D01*
X138745901Y-93805314D01*
X138742332Y-93813825D01*
X138742330Y-93813829D01*
X138706454Y-93899385D01*
X138643677Y-94049091D01*
X138641403Y-94058045D01*
X138641402Y-94058048D01*
X138630095Y-94102571D01*
X138578608Y-94305301D01*
X138577682Y-94314492D01*
X138577682Y-94314495D01*
X138553147Y-94558159D01*
X138552124Y-94568314D01*
X136734548Y-94568314D01*
X134211554Y-92045320D01*
X134193576Y-92025283D01*
X134174032Y-92000975D01*
X134134460Y-91967770D01*
X134130889Y-91964655D01*
X134127925Y-91961691D01*
X134095210Y-91934818D01*
X134093267Y-91933204D01*
X134031193Y-91881118D01*
X134031188Y-91881114D01*
X134022526Y-91873846D01*
X134017856Y-91871278D01*
X134013739Y-91867897D01*
X133999213Y-91860108D01*
X133932454Y-91824313D01*
X133930162Y-91823068D01*
X133859129Y-91784017D01*
X133859110Y-91784008D01*
X133849213Y-91778567D01*
X133844131Y-91776955D01*
X133839437Y-91774438D01*
X133828636Y-91771136D01*
X133828631Y-91771134D01*
X133751212Y-91747465D01*
X133748721Y-91746689D01*
X133671473Y-91722184D01*
X133671467Y-91722182D01*
X133660694Y-91718765D01*
X133655398Y-91718171D01*
X133650302Y-91716613D01*
X133639053Y-91715470D01*
X133639051Y-91715470D01*
X133558411Y-91707278D01*
X133555879Y-91707008D01*
X133506773Y-91701500D01*
X133502543Y-91701500D01*
X133498007Y-91701143D01*
X133470579Y-91698357D01*
X133465648Y-91697856D01*
X133465647Y-91697856D01*
X133453538Y-91696626D01*
X133422092Y-91699599D01*
X133413666Y-91700395D01*
X133390233Y-91701500D01*
X115638505Y-91701500D01*
X115611612Y-91700043D01*
X115592719Y-91697990D01*
X115592705Y-91697990D01*
X115580611Y-91696676D01*
X115568483Y-91697737D01*
X115568479Y-91697737D01*
X115529144Y-91701178D01*
X115524426Y-91701500D01*
X115520231Y-91701500D01*
X115514166Y-91702095D01*
X115514161Y-91702095D01*
X115484562Y-91704998D01*
X115478197Y-91705622D01*
X115475614Y-91705862D01*
X115466877Y-91706627D01*
X115394842Y-91712928D01*
X115394835Y-91712929D01*
X115383587Y-91713913D01*
X115378468Y-91715400D01*
X115373167Y-91715920D01*
X115362355Y-91719184D01*
X115362352Y-91719185D01*
X115284744Y-91742616D01*
X115282247Y-91743355D01*
X115204514Y-91765939D01*
X115204508Y-91765941D01*
X115193663Y-91769092D01*
X115188934Y-91771543D01*
X115183831Y-91773084D01*
X115102241Y-91816466D01*
X115100052Y-91817615D01*
X115028111Y-91854905D01*
X115028106Y-91854908D01*
X115018074Y-91860108D01*
X115013911Y-91863431D01*
X115009204Y-91865934D01*
X115000447Y-91873076D01*
X115000443Y-91873079D01*
X114937643Y-91924298D01*
X114935630Y-91925923D01*
X114897027Y-91956739D01*
X114894037Y-91959729D01*
X114890581Y-91962681D01*
X114855938Y-91990935D01*
X114848179Y-92000314D01*
X114848177Y-92000316D01*
X114830410Y-92021793D01*
X114814622Y-92039144D01*
X113085196Y-93768570D01*
X113004414Y-93822546D01*
X112909126Y-93841500D01*
X112344366Y-93841500D01*
X112337678Y-93842226D01*
X112337669Y-93842227D01*
X112297701Y-93846569D01*
X112297698Y-93846570D01*
X112282184Y-93848255D01*
X112145795Y-93899385D01*
X112131602Y-93910022D01*
X112100549Y-93933295D01*
X112012931Y-93975274D01*
X111915919Y-93980528D01*
X111853066Y-93960619D01*
X111852502Y-93962032D01*
X111667476Y-93888214D01*
X111656876Y-93883985D01*
X111450303Y-93842895D01*
X111335856Y-93841397D01*
X111251106Y-93840287D01*
X111251103Y-93840287D01*
X111239701Y-93840138D01*
X111228465Y-93842069D01*
X111228461Y-93842069D01*
X111139709Y-93857320D01*
X111032123Y-93875806D01*
X111021414Y-93879757D01*
X111021413Y-93879757D01*
X110845234Y-93944753D01*
X110845231Y-93944755D01*
X110834520Y-93948706D01*
X110653512Y-94056394D01*
X110644325Y-94064451D01*
X110643718Y-94064801D01*
X110635694Y-94070631D01*
X110635081Y-94069788D01*
X110560190Y-94113028D01*
X110463867Y-94125711D01*
X110370022Y-94100568D01*
X110328567Y-94074790D01*
X110320669Y-94068730D01*
X110161927Y-93968571D01*
X110148990Y-93961979D01*
X110133494Y-93959107D01*
X110130000Y-93977297D01*
X110130000Y-96523495D01*
X110133760Y-96542395D01*
X110142318Y-96540693D01*
X110195187Y-96509239D01*
X110286770Y-96476808D01*
X110383792Y-96481892D01*
X110471482Y-96523718D01*
X110536492Y-96595918D01*
X110568923Y-96687501D01*
X110571500Y-96723231D01*
X110571500Y-96873628D01*
X110569109Y-96905245D01*
X110568976Y-96909050D01*
X110566801Y-96923349D01*
X110567974Y-96937767D01*
X110570680Y-96971040D01*
X110571038Y-96979855D01*
X110571081Y-96979853D01*
X110571500Y-96987067D01*
X110571500Y-96994293D01*
X110572336Y-97001467D01*
X110572337Y-97001478D01*
X110574542Y-97020392D01*
X110575397Y-97029035D01*
X110581140Y-97099637D01*
X110585267Y-97112376D01*
X110586818Y-97125681D01*
X110591752Y-97139275D01*
X110591754Y-97139282D01*
X110610994Y-97192288D01*
X110613815Y-97200504D01*
X110631188Y-97254131D01*
X110631191Y-97254137D01*
X110635649Y-97267899D01*
X110642599Y-97279352D01*
X110647167Y-97291937D01*
X110655095Y-97304029D01*
X110655097Y-97304033D01*
X110686016Y-97351191D01*
X110690636Y-97358513D01*
X110727405Y-97419107D01*
X110734803Y-97427484D01*
X110737529Y-97430210D01*
X110738499Y-97431242D01*
X110744144Y-97439852D01*
X110754646Y-97449800D01*
X110754647Y-97449802D01*
X110799131Y-97491942D01*
X110803958Y-97496639D01*
X111183749Y-97876430D01*
X111237725Y-97957212D01*
X111256679Y-98052500D01*
X111237725Y-98147788D01*
X111183749Y-98228570D01*
X111102967Y-98282546D01*
X111007679Y-98301500D01*
X107391365Y-98301500D01*
X107359764Y-98299110D01*
X107355947Y-98298977D01*
X107341651Y-98296802D01*
X107327238Y-98297974D01*
X107327230Y-98297974D01*
X107293958Y-98300680D01*
X107285146Y-98301038D01*
X107285149Y-98301081D01*
X107277937Y-98301500D01*
X107270707Y-98301500D01*
X107244594Y-98304544D01*
X107235965Y-98305397D01*
X107179782Y-98309967D01*
X107179781Y-98309967D01*
X107165363Y-98311140D01*
X107152624Y-98315267D01*
X107139319Y-98316818D01*
X107125725Y-98321752D01*
X107125718Y-98321754D01*
X107072712Y-98340994D01*
X107064496Y-98343815D01*
X107010869Y-98361188D01*
X107010863Y-98361191D01*
X106997101Y-98365649D01*
X106985648Y-98372599D01*
X106973063Y-98377167D01*
X106913827Y-98416004D01*
X106906487Y-98420635D01*
X106845892Y-98457405D01*
X106837516Y-98464803D01*
X106834793Y-98467526D01*
X106833757Y-98468500D01*
X106825148Y-98474144D01*
X106774495Y-98527614D01*
X106773058Y-98529131D01*
X106768361Y-98533958D01*
X104533749Y-100768570D01*
X104452967Y-100822546D01*
X104357679Y-100841500D01*
X100854112Y-100841500D01*
X100758824Y-100822546D01*
X100678042Y-100768570D01*
X100637930Y-100716058D01*
X100568099Y-100593878D01*
X100568095Y-100593872D01*
X100563518Y-100585864D01*
X100397105Y-100374769D01*
X100257636Y-100243570D01*
X100208042Y-100196917D01*
X100208040Y-100196916D01*
X100201317Y-100190591D01*
X100167813Y-100167348D01*
X99988051Y-100042642D01*
X99988049Y-100042641D01*
X99980457Y-100037374D01*
X99972168Y-100033286D01*
X99972164Y-100033284D01*
X99747662Y-99922572D01*
X99747660Y-99922571D01*
X99739376Y-99918486D01*
X99593091Y-99871660D01*
X99492168Y-99839354D01*
X99492165Y-99839353D01*
X99483370Y-99836538D01*
X99353774Y-99815432D01*
X99227178Y-99794814D01*
X99227172Y-99794813D01*
X99218063Y-99793330D01*
X99208833Y-99793209D01*
X99208831Y-99793209D01*
X99024994Y-99790803D01*
X98949284Y-99789812D01*
X98940129Y-99791058D01*
X98940128Y-99791058D01*
X98903036Y-99796106D01*
X98682937Y-99826060D01*
X98424874Y-99901278D01*
X98416489Y-99905143D01*
X98416485Y-99905145D01*
X98197715Y-100006000D01*
X98180763Y-100013815D01*
X98151068Y-100033284D01*
X97963694Y-100156131D01*
X97963689Y-100156135D01*
X97955968Y-100161197D01*
X97755426Y-100340188D01*
X97583544Y-100546854D01*
X97562023Y-100582320D01*
X97448885Y-100768763D01*
X97448882Y-100768769D01*
X97444096Y-100776656D01*
X97440527Y-100785167D01*
X97440525Y-100785171D01*
X97416387Y-100842735D01*
X97340148Y-101024545D01*
X97273981Y-101285077D01*
X97247050Y-101552526D01*
X97259947Y-101821019D01*
X97312388Y-102084656D01*
X97403220Y-102337646D01*
X97407592Y-102345783D01*
X97407594Y-102345787D01*
X97471844Y-102465361D01*
X97530450Y-102574431D01*
X97691281Y-102789810D01*
X97882180Y-102979050D01*
X98098954Y-103137995D01*
X98336840Y-103263154D01*
X98345560Y-103266199D01*
X98345562Y-103266200D01*
X98422744Y-103293153D01*
X98590613Y-103351775D01*
X98791606Y-103389935D01*
X98845622Y-103400190D01*
X98845624Y-103400190D01*
X98854698Y-103401913D01*
X98863923Y-103402275D01*
X98863928Y-103402276D01*
X98982467Y-103406933D01*
X99123293Y-103412466D01*
X99132468Y-103411461D01*
X99132474Y-103411461D01*
X99381313Y-103384209D01*
X99381316Y-103384208D01*
X99390497Y-103383203D01*
X99521445Y-103348727D01*
X99641498Y-103317120D01*
X99641504Y-103317118D01*
X99650441Y-103314765D01*
X99897414Y-103208657D01*
X100125990Y-103067210D01*
X100331149Y-102893530D01*
X100422109Y-102789810D01*
X100502290Y-102698381D01*
X100502292Y-102698378D01*
X100508382Y-102691434D01*
X100649014Y-102472797D01*
X100716504Y-102402910D01*
X100805601Y-102364169D01*
X100858433Y-102358500D01*
X104698628Y-102358500D01*
X104730245Y-102360891D01*
X104734050Y-102361024D01*
X104748349Y-102363199D01*
X104786291Y-102360113D01*
X104796040Y-102359320D01*
X104804855Y-102358962D01*
X104804853Y-102358919D01*
X104812067Y-102358500D01*
X104819293Y-102358500D01*
X104826467Y-102357664D01*
X104826478Y-102357663D01*
X104845392Y-102355458D01*
X104854035Y-102354603D01*
X104910218Y-102350033D01*
X104910219Y-102350033D01*
X104924637Y-102348860D01*
X104937376Y-102344733D01*
X104950681Y-102343182D01*
X104964275Y-102338248D01*
X104964282Y-102338246D01*
X105017288Y-102319006D01*
X105025504Y-102316185D01*
X105079131Y-102298812D01*
X105079137Y-102298809D01*
X105092899Y-102294351D01*
X105104352Y-102287401D01*
X105116937Y-102282833D01*
X105129029Y-102274905D01*
X105129033Y-102274903D01*
X105176191Y-102243984D01*
X105183513Y-102239364D01*
X105244107Y-102202595D01*
X105252484Y-102195197D01*
X105255210Y-102192471D01*
X105256242Y-102191501D01*
X105264852Y-102185856D01*
X105316942Y-102130869D01*
X105321639Y-102126042D01*
X107556251Y-99891430D01*
X107637033Y-99837454D01*
X107732321Y-99818500D01*
X107901036Y-99818500D01*
X107996324Y-99837454D01*
X108077106Y-99891430D01*
X108131082Y-99972212D01*
X108150036Y-100067500D01*
X108131082Y-100162788D01*
X108077106Y-100243570D01*
X108068882Y-100250319D01*
X108065755Y-100255000D01*
X108060000Y-100255000D01*
X108060000Y-106745000D01*
X125750000Y-106745000D01*
X125750000Y-100255000D01*
X118460038Y-100255000D01*
X118364750Y-100236046D01*
X118283968Y-100182070D01*
X118229992Y-100101288D01*
X118211038Y-100006000D01*
X118229992Y-99910712D01*
X118283968Y-99829930D01*
X118362547Y-99776879D01*
X118381910Y-99768640D01*
X118394440Y-99763704D01*
X118438342Y-99747768D01*
X118438343Y-99747768D01*
X118451937Y-99742833D01*
X118464034Y-99734902D01*
X118469645Y-99732092D01*
X118475056Y-99729006D01*
X118488364Y-99723343D01*
X118537641Y-99687079D01*
X118548703Y-99679391D01*
X118587752Y-99653789D01*
X118599852Y-99645856D01*
X118609803Y-99635352D01*
X118614601Y-99631340D01*
X118619165Y-99627083D01*
X118630818Y-99618508D01*
X118643686Y-99603361D01*
X118670427Y-99571886D01*
X118679422Y-99561861D01*
X118704760Y-99535113D01*
X118721490Y-99517453D01*
X118728756Y-99504945D01*
X118732494Y-99499948D01*
X118735968Y-99494739D01*
X118745333Y-99483715D01*
X118773157Y-99429226D01*
X118779593Y-99417422D01*
X118803059Y-99377021D01*
X118810326Y-99364510D01*
X118814520Y-99350663D01*
X118817013Y-99344929D01*
X118819189Y-99339078D01*
X118825769Y-99326192D01*
X118840309Y-99266768D01*
X118843865Y-99253773D01*
X118857401Y-99209083D01*
X118857402Y-99209076D01*
X118861595Y-99195233D01*
X118862491Y-99180792D01*
X118864300Y-99170735D01*
X118864385Y-99170334D01*
X118865172Y-99165163D01*
X118867808Y-99154390D01*
X118868500Y-99143236D01*
X118868500Y-99091647D01*
X118868978Y-99076229D01*
X118871651Y-99033146D01*
X118871651Y-99033145D01*
X118872547Y-99018702D01*
X118870096Y-99004438D01*
X118869314Y-98990001D01*
X118869869Y-98989971D01*
X118868500Y-98973915D01*
X118868500Y-98477500D01*
X118887454Y-98382212D01*
X118941430Y-98301430D01*
X119022212Y-98247454D01*
X119117500Y-98228500D01*
X119358134Y-98228500D01*
X119364822Y-98227774D01*
X119364831Y-98227773D01*
X119404799Y-98223431D01*
X119404802Y-98223430D01*
X119420316Y-98221745D01*
X119556705Y-98170615D01*
X119673261Y-98083261D01*
X119760615Y-97966705D01*
X119811745Y-97830316D01*
X119813431Y-97814799D01*
X119817773Y-97774831D01*
X119817774Y-97774822D01*
X119818500Y-97768134D01*
X119818500Y-97023996D01*
X129179123Y-97023996D01*
X129181952Y-97040245D01*
X129242165Y-97207954D01*
X129249664Y-97224795D01*
X129361076Y-97432145D01*
X129370976Y-97447684D01*
X129511811Y-97636284D01*
X129523909Y-97650201D01*
X129691069Y-97815908D01*
X129705083Y-97827877D01*
X129894916Y-97967069D01*
X129910530Y-97976825D01*
X130118846Y-98086426D01*
X130135755Y-98093778D01*
X130286844Y-98146541D01*
X130307328Y-98149420D01*
X130310000Y-98133662D01*
X130310000Y-98130120D01*
X131310000Y-98130120D01*
X131314069Y-98150578D01*
X131318532Y-98151465D01*
X131325520Y-98150561D01*
X131358690Y-98141828D01*
X131376121Y-98135826D01*
X131592391Y-98042908D01*
X131608734Y-98034401D01*
X131808899Y-97910535D01*
X131823803Y-97899706D01*
X132003461Y-97747615D01*
X132016595Y-97734710D01*
X132171800Y-97557731D01*
X132182896Y-97543005D01*
X132310228Y-97345046D01*
X132319024Y-97328846D01*
X132415702Y-97114227D01*
X132422001Y-97096922D01*
X132437038Y-97043604D01*
X132438674Y-97022811D01*
X132435618Y-97021253D01*
X132426558Y-97020000D01*
X131334527Y-97020000D01*
X131314069Y-97024069D01*
X131310000Y-97044527D01*
X131310000Y-98130120D01*
X130310000Y-98130120D01*
X130310000Y-97044527D01*
X130305931Y-97024069D01*
X130285473Y-97020000D01*
X129199210Y-97020000D01*
X129179123Y-97023996D01*
X119818500Y-97023996D01*
X119818500Y-96017058D01*
X129179625Y-96017058D01*
X129184234Y-96019257D01*
X129190181Y-96020000D01*
X130285473Y-96020000D01*
X130305931Y-96015931D01*
X130310000Y-95995473D01*
X131310000Y-95995473D01*
X131314069Y-96015931D01*
X131334527Y-96020000D01*
X132423595Y-96020000D01*
X132444053Y-96015931D01*
X132444907Y-96011635D01*
X132444587Y-96010586D01*
X132359290Y-95791244D01*
X132351348Y-95774594D01*
X132234553Y-95570246D01*
X132224245Y-95554963D01*
X132078522Y-95370114D01*
X132066071Y-95356526D01*
X131894623Y-95195244D01*
X131880300Y-95183645D01*
X131686902Y-95049481D01*
X131671014Y-95040122D01*
X131459914Y-94936019D01*
X131442817Y-94929111D01*
X131333357Y-94894073D01*
X131312636Y-94891712D01*
X131312056Y-94892758D01*
X131310000Y-94905923D01*
X131310000Y-95995473D01*
X130310000Y-95995473D01*
X130310000Y-94911107D01*
X130305931Y-94890649D01*
X130303111Y-94890088D01*
X130293021Y-94891529D01*
X130219042Y-94913092D01*
X130201780Y-94919545D01*
X129988013Y-95018093D01*
X129971895Y-95027028D01*
X129775046Y-95156087D01*
X129760429Y-95167304D01*
X129584811Y-95324049D01*
X129572019Y-95337296D01*
X129421505Y-95518269D01*
X129410794Y-95533285D01*
X129288689Y-95734508D01*
X129280320Y-95750933D01*
X129189297Y-95967999D01*
X129183447Y-95985482D01*
X129180717Y-95996229D01*
X129179625Y-96017058D01*
X119818500Y-96017058D01*
X119818500Y-95271866D01*
X119817774Y-95265178D01*
X119817773Y-95265169D01*
X119813431Y-95225201D01*
X119813430Y-95225198D01*
X119811745Y-95209684D01*
X119760615Y-95073295D01*
X119673261Y-94956739D01*
X119589646Y-94894073D01*
X119570898Y-94880022D01*
X119556705Y-94869385D01*
X119420316Y-94818255D01*
X119404802Y-94816570D01*
X119404799Y-94816569D01*
X119364831Y-94812227D01*
X119364822Y-94812226D01*
X119358134Y-94811500D01*
X116861866Y-94811500D01*
X116855178Y-94812226D01*
X116855169Y-94812227D01*
X116815201Y-94816569D01*
X116815198Y-94816570D01*
X116799684Y-94818255D01*
X116663295Y-94869385D01*
X116649102Y-94880022D01*
X116630354Y-94894073D01*
X116546739Y-94956739D01*
X116459385Y-95073295D01*
X116408255Y-95209684D01*
X116406570Y-95225198D01*
X116406569Y-95225201D01*
X116402227Y-95265169D01*
X116402226Y-95265178D01*
X116401500Y-95271866D01*
X116401500Y-95512500D01*
X116382546Y-95607788D01*
X116328570Y-95688570D01*
X116247788Y-95742546D01*
X116152500Y-95761500D01*
X114545875Y-95761500D01*
X114450587Y-95742546D01*
X114369805Y-95688570D01*
X114315829Y-95607788D01*
X114296875Y-95512500D01*
X114315829Y-95417212D01*
X114369805Y-95336430D01*
X115914805Y-93791430D01*
X115995587Y-93737454D01*
X116090875Y-93718500D01*
X132929125Y-93718500D01*
X133024413Y-93737454D01*
X133105195Y-93791430D01*
X139030767Y-99717001D01*
X139084743Y-99797783D01*
X139103697Y-99893071D01*
X139097981Y-99946116D01*
X139080211Y-100027615D01*
X139080209Y-100027628D01*
X139078404Y-100035907D01*
X139077739Y-100044356D01*
X139077738Y-100044363D01*
X139060840Y-100259069D01*
X139056917Y-100308918D01*
X139072682Y-100582320D01*
X139125405Y-100851053D01*
X139214112Y-101110144D01*
X139217918Y-101117712D01*
X139217920Y-101117716D01*
X139333354Y-101347232D01*
X139337160Y-101354799D01*
X139492274Y-101580490D01*
X139497976Y-101586756D01*
X139670879Y-101776776D01*
X139670883Y-101776780D01*
X139676582Y-101783043D01*
X139886675Y-101958707D01*
X139893852Y-101963209D01*
X139893856Y-101963212D01*
X139905417Y-101970464D01*
X140118664Y-102104234D01*
X140177654Y-102130869D01*
X140336509Y-102202595D01*
X140368257Y-102216930D01*
X140538211Y-102267272D01*
X140622706Y-102292301D01*
X140622709Y-102292302D01*
X140630836Y-102294709D01*
X140639214Y-102295991D01*
X140869556Y-102331238D01*
X140960881Y-102364387D01*
X141007962Y-102401303D01*
X141621865Y-103015206D01*
X141675841Y-103095988D01*
X141694795Y-103191276D01*
X141675841Y-103286564D01*
X141621865Y-103367346D01*
X141584129Y-103398314D01*
X141574307Y-103404877D01*
X141570000Y-103426527D01*
X141570000Y-107393472D01*
X141574069Y-107413930D01*
X141594527Y-107417999D01*
X142611346Y-107417999D01*
X142624792Y-107417271D01*
X142664685Y-107412938D01*
X142694826Y-107405772D01*
X142799850Y-107366400D01*
X142830660Y-107349531D01*
X142873170Y-107317672D01*
X142960787Y-107275693D01*
X143057800Y-107270439D01*
X143149439Y-107302710D01*
X143221752Y-107367594D01*
X143263731Y-107455211D01*
X143271500Y-107516924D01*
X143271500Y-107632019D01*
X143252546Y-107727307D01*
X143198570Y-107808089D01*
X140310002Y-110696657D01*
X140229220Y-110750633D01*
X140189858Y-110760707D01*
X140190393Y-110762957D01*
X140175201Y-110766569D01*
X140159684Y-110768255D01*
X140023295Y-110819385D01*
X139906739Y-110906739D01*
X139819385Y-111023295D01*
X139768255Y-111159684D01*
X139766570Y-111175198D01*
X139766569Y-111175201D01*
X139762227Y-111215169D01*
X139762226Y-111215178D01*
X139761500Y-111221866D01*
X139761500Y-111248992D01*
X139742546Y-111344280D01*
X139725486Y-111377981D01*
X139716779Y-111392358D01*
X139713033Y-111401630D01*
X139713032Y-111401632D01*
X139712730Y-111402379D01*
X139699216Y-111430584D01*
X139693955Y-111439998D01*
X139690537Y-111449390D01*
X139662938Y-111525215D01*
X139659829Y-111533315D01*
X139625845Y-111617429D01*
X139623453Y-111627959D01*
X139614622Y-111657960D01*
X139610930Y-111668105D01*
X139609056Y-111677930D01*
X139609055Y-111677933D01*
X139593935Y-111757200D01*
X139592157Y-111765711D01*
X139574977Y-111841329D01*
X139572065Y-111854144D01*
X139571386Y-111864932D01*
X139567469Y-111895938D01*
X139565444Y-111906553D01*
X139564006Y-111958051D01*
X139562912Y-111997201D01*
X139562519Y-112005854D01*
X139556822Y-112096413D01*
X139557875Y-112107154D01*
X139558968Y-112138410D01*
X139558666Y-112149205D01*
X139568691Y-112224339D01*
X139570661Y-112239102D01*
X139571659Y-112247724D01*
X139580511Y-112338002D01*
X139583270Y-112348444D01*
X139589342Y-112379111D01*
X139590771Y-112389820D01*
X139593660Y-112399389D01*
X139593661Y-112399393D01*
X139616977Y-112476617D01*
X139619344Y-112484981D01*
X139642519Y-112572696D01*
X139646588Y-112581835D01*
X139646916Y-112582573D01*
X139657811Y-112611866D01*
X139660933Y-112622208D01*
X139665315Y-112631192D01*
X139700690Y-112703722D01*
X139704363Y-112711598D01*
X139739973Y-112791579D01*
X139761500Y-112892857D01*
X139761500Y-112918134D01*
X139762226Y-112924822D01*
X139762227Y-112924831D01*
X139766569Y-112964799D01*
X139768255Y-112980316D01*
X139819385Y-113116705D01*
X139906739Y-113233261D01*
X140023295Y-113320615D01*
X140159684Y-113371745D01*
X140175201Y-113373431D01*
X140190393Y-113377043D01*
X140189482Y-113380874D01*
X140253558Y-113401031D01*
X140310002Y-113443343D01*
X140774910Y-113908251D01*
X140828886Y-113989033D01*
X140847840Y-114084321D01*
X140828886Y-114179609D01*
X140774910Y-114260391D01*
X140694128Y-114314367D01*
X140663288Y-114324836D01*
X140631432Y-114333372D01*
X140611079Y-114340780D01*
X140590206Y-114350513D01*
X140573778Y-114362558D01*
X140583385Y-114376279D01*
X141070000Y-114862893D01*
X141777107Y-115570000D01*
X142261782Y-116054676D01*
X142278723Y-116065995D01*
X142288331Y-116052273D01*
X142299220Y-116028921D01*
X142306628Y-116008567D01*
X142315162Y-115976717D01*
X142358131Y-115889581D01*
X142431176Y-115825521D01*
X142523174Y-115794291D01*
X142620121Y-115800644D01*
X142707257Y-115843613D01*
X142731748Y-115865090D01*
X143198570Y-116331912D01*
X143252546Y-116412694D01*
X143271500Y-116507982D01*
X143271500Y-130492500D01*
X143252546Y-130587788D01*
X143198570Y-130668570D01*
X143117788Y-130722546D01*
X143022500Y-130741500D01*
X142687605Y-130741500D01*
X142592317Y-130722546D01*
X142535085Y-130684305D01*
X142533261Y-130686739D01*
X142430898Y-130610022D01*
X142416705Y-130599385D01*
X142280316Y-130548255D01*
X142264802Y-130546570D01*
X142264799Y-130546569D01*
X142224831Y-130542227D01*
X142224822Y-130542226D01*
X142218134Y-130541500D01*
X142177654Y-130541500D01*
X142082366Y-130522546D01*
X142001584Y-130468570D01*
X141947608Y-130387788D01*
X141928654Y-130292500D01*
X141947608Y-130197212D01*
X142001584Y-130116430D01*
X142016769Y-130102455D01*
X142163810Y-129977976D01*
X142170862Y-129972006D01*
X142176950Y-129965064D01*
X142176956Y-129965058D01*
X142332202Y-129788032D01*
X142332203Y-129788030D01*
X142338295Y-129781084D01*
X142475669Y-129567512D01*
X142579967Y-129335980D01*
X142599095Y-129268158D01*
X142646386Y-129100476D01*
X142646387Y-129100472D01*
X142648896Y-129091575D01*
X142680943Y-128839667D01*
X142683291Y-128750000D01*
X142674840Y-128636279D01*
X142665157Y-128505976D01*
X142665157Y-128505975D01*
X142664472Y-128496759D01*
X142608428Y-128249082D01*
X142605082Y-128240479D01*
X142605080Y-128240471D01*
X142519738Y-128021015D01*
X142519736Y-128021011D01*
X142516391Y-128012409D01*
X142433327Y-127867076D01*
X142394964Y-127799954D01*
X142394960Y-127799948D01*
X142390383Y-127791940D01*
X142233171Y-127592517D01*
X142191897Y-127553690D01*
X142067548Y-127436715D01*
X142048209Y-127418523D01*
X141839561Y-127273779D01*
X141741203Y-127225274D01*
X141664125Y-127166130D01*
X141615547Y-127081991D01*
X141602866Y-126985667D01*
X141628012Y-126891823D01*
X141687156Y-126814745D01*
X141744816Y-126778363D01*
X141744429Y-126777619D01*
X141752617Y-126773357D01*
X141761110Y-126769708D01*
X141977047Y-126636082D01*
X141984096Y-126630115D01*
X141984101Y-126630111D01*
X142163810Y-126477976D01*
X142170862Y-126472006D01*
X142176950Y-126465064D01*
X142176956Y-126465058D01*
X142332202Y-126288032D01*
X142332203Y-126288030D01*
X142338295Y-126281084D01*
X142475669Y-126067512D01*
X142579967Y-125835980D01*
X142609164Y-125732454D01*
X142646386Y-125600476D01*
X142646387Y-125600472D01*
X142648896Y-125591575D01*
X142680943Y-125339667D01*
X142683291Y-125250000D01*
X142664472Y-124996759D01*
X142608428Y-124749082D01*
X142605082Y-124740479D01*
X142605080Y-124740471D01*
X142519738Y-124521015D01*
X142519736Y-124521011D01*
X142516391Y-124512409D01*
X142421327Y-124346081D01*
X142394964Y-124299954D01*
X142394960Y-124299948D01*
X142390383Y-124291940D01*
X142233171Y-124092517D01*
X142191897Y-124053690D01*
X142054940Y-123924855D01*
X142048209Y-123918523D01*
X141839561Y-123773779D01*
X141740613Y-123724983D01*
X141663535Y-123665839D01*
X141614957Y-123581700D01*
X141602276Y-123485376D01*
X141627422Y-123391532D01*
X141686566Y-123314454D01*
X141744554Y-123277865D01*
X141744195Y-123277175D01*
X141756878Y-123270573D01*
X141768421Y-123259809D01*
X141766244Y-123253985D01*
X141763832Y-123250939D01*
X140987341Y-122474448D01*
X140970000Y-122462861D01*
X140952659Y-122474448D01*
X140185996Y-123241111D01*
X140174409Y-123258452D01*
X140175385Y-123259912D01*
X140185274Y-123267196D01*
X140207632Y-123278959D01*
X140283135Y-123340101D01*
X140329493Y-123425482D01*
X140339648Y-123522105D01*
X140312054Y-123615259D01*
X140250912Y-123690762D01*
X140195939Y-123725448D01*
X140157315Y-123743254D01*
X140139380Y-123751522D01*
X139927015Y-123890755D01*
X139920121Y-123896908D01*
X139920116Y-123896912D01*
X139823375Y-123983257D01*
X139737562Y-124059848D01*
X139575183Y-124255087D01*
X139570385Y-124262994D01*
X139450348Y-124460810D01*
X139443447Y-124472182D01*
X139439923Y-124480586D01*
X139379802Y-124556845D01*
X139295034Y-124604315D01*
X139218094Y-124616500D01*
X138984264Y-124616500D01*
X138978788Y-124616242D01*
X138970092Y-124614298D01*
X138954434Y-124614790D01*
X138954433Y-124614790D01*
X138903943Y-124616377D01*
X138896121Y-124616500D01*
X138870144Y-124616500D01*
X138862366Y-124617482D01*
X138859861Y-124617640D01*
X138852059Y-124618007D01*
X138810111Y-124619326D01*
X138795065Y-124623697D01*
X138786677Y-124625026D01*
X138774968Y-124627451D01*
X138766741Y-124629563D01*
X138751203Y-124631526D01*
X138736642Y-124637291D01*
X138736638Y-124637292D01*
X138721789Y-124643172D01*
X138715485Y-124645667D01*
X138693312Y-124653259D01*
X138656407Y-124663982D01*
X138642918Y-124671960D01*
X138635132Y-124675329D01*
X138624390Y-124680591D01*
X138616952Y-124684680D01*
X138602383Y-124690448D01*
X138571298Y-124713032D01*
X138551715Y-124725896D01*
X138518638Y-124745458D01*
X138507565Y-124756531D01*
X138500874Y-124761721D01*
X138491744Y-124769518D01*
X138485562Y-124775324D01*
X138472893Y-124784528D01*
X138462911Y-124796594D01*
X138462910Y-124796595D01*
X138448409Y-124814124D01*
X138432621Y-124831475D01*
X136683865Y-126580230D01*
X136683862Y-126580234D01*
X134859553Y-128404542D01*
X134855503Y-128408227D01*
X134847982Y-128413000D01*
X134837264Y-128424413D01*
X134837261Y-128424416D01*
X134802697Y-128461224D01*
X134797253Y-128466842D01*
X134778865Y-128485230D01*
X134774076Y-128491405D01*
X134772387Y-128493320D01*
X134767120Y-128499110D01*
X134738414Y-128529679D01*
X134730868Y-128543405D01*
X134725891Y-128550255D01*
X134719286Y-128560311D01*
X134714985Y-128567583D01*
X134705386Y-128579959D01*
X134690128Y-128615219D01*
X134679810Y-128636279D01*
X134661305Y-128669940D01*
X134657409Y-128685113D01*
X134654294Y-128692981D01*
X134650409Y-128704327D01*
X134648042Y-128712475D01*
X134641819Y-128726855D01*
X134639368Y-128742330D01*
X134635810Y-128764792D01*
X134631054Y-128787757D01*
X134621500Y-128824970D01*
X134621500Y-128840635D01*
X134620437Y-128849049D01*
X134619497Y-128860989D01*
X134619230Y-128869472D01*
X134616780Y-128884943D01*
X134618254Y-128900537D01*
X134618254Y-128900539D01*
X134620395Y-128923185D01*
X134621500Y-128946618D01*
X134621500Y-141874455D01*
X134602546Y-141969743D01*
X134548570Y-142050525D01*
X131255525Y-145343570D01*
X131174743Y-145397546D01*
X131079455Y-145416500D01*
X127013424Y-145416500D01*
X126918136Y-145397546D01*
X126837354Y-145343570D01*
X126809456Y-145310321D01*
X126742437Y-145214609D01*
X126742432Y-145214603D01*
X126736198Y-145205700D01*
X126574300Y-145043802D01*
X126565402Y-145037572D01*
X126565399Y-145037569D01*
X126395652Y-144918711D01*
X126386749Y-144912477D01*
X126179243Y-144815716D01*
X125958087Y-144756457D01*
X125947253Y-144755509D01*
X125947252Y-144755509D01*
X125740836Y-144737450D01*
X125730000Y-144736502D01*
X125719164Y-144737450D01*
X125512748Y-144755509D01*
X125512747Y-144755509D01*
X125501913Y-144756457D01*
X125280757Y-144815716D01*
X125073251Y-144912477D01*
X125064348Y-144918711D01*
X124894601Y-145037569D01*
X124894598Y-145037572D01*
X124885700Y-145043802D01*
X124723802Y-145205700D01*
X124717572Y-145214598D01*
X124717569Y-145214601D01*
X124683828Y-145262788D01*
X124592477Y-145393251D01*
X124495716Y-145600757D01*
X124464339Y-145717857D01*
X124451291Y-145766554D01*
X124436457Y-145821913D01*
X124435509Y-145832747D01*
X124435509Y-145832748D01*
X124428968Y-145907512D01*
X124416502Y-146050000D01*
X124436457Y-146278087D01*
X124461904Y-146373057D01*
X124468259Y-146469999D01*
X124437030Y-146561999D01*
X124372972Y-146635044D01*
X124285837Y-146678015D01*
X124221389Y-146686500D01*
X122285545Y-146686500D01*
X122190257Y-146667546D01*
X122109475Y-146613570D01*
X122008965Y-146513060D01*
X121954989Y-146432278D01*
X121936035Y-146336990D01*
X121939818Y-146293749D01*
X121940726Y-146288601D01*
X121943543Y-146278087D01*
X121963498Y-146050000D01*
X121951032Y-145907512D01*
X121944491Y-145832748D01*
X121944491Y-145832747D01*
X121943543Y-145821913D01*
X121928710Y-145766554D01*
X121915661Y-145717857D01*
X121884284Y-145600757D01*
X121787523Y-145393251D01*
X121696172Y-145262788D01*
X121662431Y-145214601D01*
X121662428Y-145214598D01*
X121656198Y-145205700D01*
X121494300Y-145043802D01*
X121485402Y-145037572D01*
X121485399Y-145037569D01*
X121315652Y-144918711D01*
X121306749Y-144912477D01*
X121099243Y-144815716D01*
X120878087Y-144756457D01*
X120867253Y-144755509D01*
X120867252Y-144755509D01*
X120660836Y-144737450D01*
X120650000Y-144736502D01*
X120639164Y-144737450D01*
X120432748Y-144755509D01*
X120432747Y-144755509D01*
X120421913Y-144756457D01*
X120200757Y-144815716D01*
X119993251Y-144912477D01*
X119984348Y-144918711D01*
X119814601Y-145037569D01*
X119814598Y-145037572D01*
X119805700Y-145043802D01*
X119643802Y-145205700D01*
X119637572Y-145214598D01*
X119637569Y-145214601D01*
X119603828Y-145262788D01*
X119512477Y-145393251D01*
X119415716Y-145600757D01*
X119384339Y-145717857D01*
X119371291Y-145766554D01*
X119356457Y-145821913D01*
X119355509Y-145832747D01*
X119355509Y-145832748D01*
X119348968Y-145907512D01*
X119336502Y-146050000D01*
X119356457Y-146278087D01*
X119415716Y-146499243D01*
X119512477Y-146706749D01*
X119527209Y-146727788D01*
X119637564Y-146885391D01*
X119643802Y-146894300D01*
X119805700Y-147056198D01*
X119814598Y-147062428D01*
X119814601Y-147062431D01*
X119857187Y-147092250D01*
X119993251Y-147187523D01*
X120200757Y-147284284D01*
X120421913Y-147343543D01*
X120432747Y-147344491D01*
X120432748Y-147344491D01*
X120639164Y-147362550D01*
X120650000Y-147363498D01*
X120878087Y-147343543D01*
X120888597Y-147340727D01*
X120893751Y-147339818D01*
X120990883Y-147341937D01*
X121079810Y-147381065D01*
X121113061Y-147408965D01*
X121419541Y-147715445D01*
X121423224Y-147719493D01*
X121428000Y-147727018D01*
X121476255Y-147772333D01*
X121481843Y-147777747D01*
X121500230Y-147796134D01*
X121506412Y-147800929D01*
X121508303Y-147802596D01*
X121514093Y-147807864D01*
X121533259Y-147825862D01*
X121544679Y-147836586D01*
X121558407Y-147844133D01*
X121565267Y-147849117D01*
X121575275Y-147855692D01*
X121582586Y-147860016D01*
X121594959Y-147869613D01*
X121617926Y-147879552D01*
X121630205Y-147884866D01*
X121651262Y-147895182D01*
X121671207Y-147906146D01*
X121671211Y-147906148D01*
X121684940Y-147913695D01*
X121700112Y-147917590D01*
X121707991Y-147920710D01*
X121719348Y-147924598D01*
X121727483Y-147926961D01*
X121741855Y-147933181D01*
X121775272Y-147938474D01*
X121779792Y-147939190D01*
X121802757Y-147943946D01*
X121824795Y-147949604D01*
X121839970Y-147953500D01*
X121855635Y-147953500D01*
X121864049Y-147954563D01*
X121875989Y-147955503D01*
X121884472Y-147955770D01*
X121899943Y-147958220D01*
X121915537Y-147956746D01*
X121915539Y-147956746D01*
X121938185Y-147954605D01*
X121961618Y-147953500D01*
X132005738Y-147953500D01*
X132011213Y-147953758D01*
X132019909Y-147955702D01*
X132035566Y-147955210D01*
X132035568Y-147955210D01*
X132079349Y-147953833D01*
X132086046Y-147953623D01*
X132093868Y-147953500D01*
X132119856Y-147953500D01*
X132127620Y-147952519D01*
X132130168Y-147952359D01*
X132137959Y-147951991D01*
X132179889Y-147950673D01*
X132194931Y-147946303D01*
X132203309Y-147944976D01*
X132215048Y-147942545D01*
X132223256Y-147940437D01*
X132238797Y-147938474D01*
X132274510Y-147924334D01*
X132296708Y-147916734D01*
X132318546Y-147910390D01*
X132318550Y-147910388D01*
X132333593Y-147906018D01*
X132347077Y-147898044D01*
X132354861Y-147894675D01*
X132365610Y-147889409D01*
X132373048Y-147885320D01*
X132387617Y-147879552D01*
X132418702Y-147856968D01*
X132438285Y-147844104D01*
X132471362Y-147824542D01*
X132482435Y-147813469D01*
X132489126Y-147808279D01*
X132498256Y-147800482D01*
X132504438Y-147794676D01*
X132517107Y-147785472D01*
X132528002Y-147772303D01*
X132541591Y-147755876D01*
X132557379Y-147738525D01*
X136920445Y-143375459D01*
X136924493Y-143371776D01*
X136932018Y-143367000D01*
X136977333Y-143318745D01*
X136982747Y-143313157D01*
X137001134Y-143294770D01*
X137005929Y-143288588D01*
X137007596Y-143286697D01*
X137012864Y-143280907D01*
X137030862Y-143261741D01*
X137030863Y-143261740D01*
X137041586Y-143250321D01*
X137049133Y-143236593D01*
X137054117Y-143229733D01*
X137060692Y-143219725D01*
X137065016Y-143212414D01*
X137074613Y-143200041D01*
X137089866Y-143164795D01*
X137100182Y-143143738D01*
X137111146Y-143123793D01*
X137111148Y-143123789D01*
X137118695Y-143110060D01*
X137122590Y-143094888D01*
X137125710Y-143087009D01*
X137129598Y-143075652D01*
X137131961Y-143067517D01*
X137138181Y-143053145D01*
X137144190Y-143015206D01*
X137148946Y-142992243D01*
X137154604Y-142970205D01*
X137154604Y-142970204D01*
X137158500Y-142955030D01*
X137158500Y-142939365D01*
X137159563Y-142930951D01*
X137160503Y-142919011D01*
X137160770Y-142910528D01*
X137163220Y-142895057D01*
X137159605Y-142856814D01*
X137158500Y-142833382D01*
X137158500Y-138054400D01*
X139358242Y-138054400D01*
X139369535Y-138289514D01*
X139371778Y-138307788D01*
X139417701Y-138538659D01*
X139422627Y-138556423D01*
X139502167Y-138777960D01*
X139509663Y-138794795D01*
X139549935Y-138869744D01*
X139563203Y-138885839D01*
X139565415Y-138885162D01*
X139574436Y-138878457D01*
X140345552Y-138107341D01*
X140357139Y-138090000D01*
X141782861Y-138090000D01*
X141794448Y-138107341D01*
X142563835Y-138876728D01*
X142580510Y-138887869D01*
X142590461Y-138873458D01*
X142675699Y-138684236D01*
X142682005Y-138666909D01*
X142745895Y-138440371D01*
X142749570Y-138422307D01*
X142775491Y-138218557D01*
X142806319Y-138126423D01*
X142826952Y-138102687D01*
X142792454Y-138051056D01*
X142774185Y-137974222D01*
X142764660Y-137846054D01*
X142761934Y-137827815D01*
X142709989Y-137598249D01*
X142704597Y-137580613D01*
X142619290Y-137361244D01*
X142611348Y-137344594D01*
X142591209Y-137309359D01*
X142577527Y-137293619D01*
X142573739Y-137294886D01*
X142567312Y-137299795D01*
X141794448Y-138072659D01*
X141782861Y-138090000D01*
X140357139Y-138090000D01*
X140345552Y-138072659D01*
X139576873Y-137303980D01*
X139559532Y-137292393D01*
X139554823Y-137295540D01*
X139551772Y-137299427D01*
X139548684Y-137304516D01*
X139540323Y-137320925D01*
X139449296Y-137538001D01*
X139443447Y-137555483D01*
X139385508Y-137783617D01*
X139382306Y-137801774D01*
X139358724Y-138035965D01*
X139358242Y-138054400D01*
X137158500Y-138054400D01*
X137158500Y-136581162D01*
X140272496Y-136581162D01*
X140282219Y-136595112D01*
X141052659Y-137365552D01*
X141070000Y-137377139D01*
X141087341Y-137365552D01*
X141854574Y-136598319D01*
X141866161Y-136580978D01*
X141866119Y-136580916D01*
X141853605Y-136571948D01*
X141719913Y-136506019D01*
X141702817Y-136499111D01*
X141478645Y-136427353D01*
X141460721Y-136423049D01*
X141228397Y-136385214D01*
X141210046Y-136383608D01*
X140974676Y-136380527D01*
X140956282Y-136381652D01*
X140723041Y-136413395D01*
X140705026Y-136417224D01*
X140479039Y-136483093D01*
X140461774Y-136489548D01*
X140288896Y-136569247D01*
X140272496Y-136581162D01*
X137158500Y-136581162D01*
X137158500Y-131810544D01*
X137177454Y-131715256D01*
X137231430Y-131634474D01*
X139180650Y-129685254D01*
X139261432Y-129631278D01*
X139356720Y-129612324D01*
X139452008Y-129631278D01*
X139532790Y-129685254D01*
X139556232Y-129712342D01*
X139671432Y-129866614D01*
X139671437Y-129866619D01*
X139676963Y-129874020D01*
X139857307Y-130052797D01*
X139864758Y-130058260D01*
X139864767Y-130058268D01*
X139910357Y-130091696D01*
X139975994Y-130163326D01*
X140009223Y-130254622D01*
X140004985Y-130351684D01*
X139963925Y-130439736D01*
X139892295Y-130505373D01*
X139800999Y-130538602D01*
X139763121Y-130541500D01*
X139721866Y-130541500D01*
X139715178Y-130542226D01*
X139715169Y-130542227D01*
X139675201Y-130546569D01*
X139675198Y-130546570D01*
X139659684Y-130548255D01*
X139523295Y-130599385D01*
X139406739Y-130686739D01*
X139319385Y-130803295D01*
X139268255Y-130939684D01*
X139266570Y-130955198D01*
X139266569Y-130955201D01*
X139262227Y-130995169D01*
X139262226Y-130995178D01*
X139261500Y-131001866D01*
X139261500Y-133498134D01*
X139262226Y-133504822D01*
X139262227Y-133504831D01*
X139265991Y-133539474D01*
X139268255Y-133560316D01*
X139319385Y-133696705D01*
X139406739Y-133813261D01*
X139452872Y-133847836D01*
X139491686Y-133876925D01*
X139523295Y-133900615D01*
X139659684Y-133951745D01*
X139675198Y-133953430D01*
X139675201Y-133953431D01*
X139715169Y-133957773D01*
X139715178Y-133957774D01*
X139721866Y-133958500D01*
X142218134Y-133958500D01*
X142224822Y-133957774D01*
X142224831Y-133957773D01*
X142264799Y-133953431D01*
X142264802Y-133953430D01*
X142280316Y-133951745D01*
X142416705Y-133900615D01*
X142448315Y-133876925D01*
X142533261Y-133813261D01*
X142535085Y-133815695D01*
X142592317Y-133777454D01*
X142687605Y-133758500D01*
X143022500Y-133758500D01*
X143117788Y-133777454D01*
X143198570Y-133831430D01*
X143252546Y-133912212D01*
X143271500Y-134007500D01*
X143271500Y-137955768D01*
X143252546Y-138051056D01*
X143220282Y-138099344D01*
X143262732Y-138184487D01*
X143271500Y-138249981D01*
X143271500Y-141449011D01*
X143252546Y-141544299D01*
X143216182Y-141598723D01*
X143219382Y-141601505D01*
X143262732Y-141688452D01*
X143271500Y-141753947D01*
X143271500Y-144949011D01*
X143252546Y-145044299D01*
X143216182Y-145098723D01*
X143219382Y-145101505D01*
X143262732Y-145188452D01*
X143271500Y-145253947D01*
X143271500Y-146832500D01*
X143252546Y-146927788D01*
X143198570Y-147008570D01*
X143117788Y-147062546D01*
X143022500Y-147081500D01*
X142787605Y-147081500D01*
X142692317Y-147062546D01*
X142635085Y-147024305D01*
X142633261Y-147026739D01*
X142530898Y-146950022D01*
X142516705Y-146939385D01*
X142380316Y-146888255D01*
X142364802Y-146886570D01*
X142364799Y-146886569D01*
X142324831Y-146882227D01*
X142324822Y-146882226D01*
X142318134Y-146881500D01*
X142277654Y-146881500D01*
X142182366Y-146862546D01*
X142101584Y-146808570D01*
X142047608Y-146727788D01*
X142028654Y-146632500D01*
X142047608Y-146537212D01*
X142101584Y-146456430D01*
X142116769Y-146442455D01*
X142263810Y-146317976D01*
X142270862Y-146312006D01*
X142276950Y-146305064D01*
X142276956Y-146305058D01*
X142432202Y-146128032D01*
X142432203Y-146128030D01*
X142438295Y-146121084D01*
X142575669Y-145907512D01*
X142679967Y-145675980D01*
X142720175Y-145533414D01*
X142746386Y-145440476D01*
X142746387Y-145440472D01*
X142748896Y-145431575D01*
X142750955Y-145415395D01*
X142775491Y-145222523D01*
X142806319Y-145130389D01*
X142831003Y-145101993D01*
X142792454Y-145044299D01*
X142774185Y-144967464D01*
X142765157Y-144845976D01*
X142765157Y-144845975D01*
X142764472Y-144836759D01*
X142708428Y-144589082D01*
X142705082Y-144580479D01*
X142705080Y-144580471D01*
X142619738Y-144361015D01*
X142619736Y-144361011D01*
X142616391Y-144352409D01*
X142540162Y-144219036D01*
X142494964Y-144139954D01*
X142494960Y-144139948D01*
X142490383Y-144131940D01*
X142333171Y-143932517D01*
X142291897Y-143893690D01*
X142154940Y-143764855D01*
X142148209Y-143758523D01*
X141939561Y-143613779D01*
X141841203Y-143565274D01*
X141764125Y-143506130D01*
X141715547Y-143421991D01*
X141702866Y-143325667D01*
X141728012Y-143231823D01*
X141787156Y-143154745D01*
X141844816Y-143118363D01*
X141844429Y-143117619D01*
X141852617Y-143113357D01*
X141861110Y-143109708D01*
X142077047Y-142976082D01*
X142084096Y-142970115D01*
X142084101Y-142970111D01*
X142263810Y-142817976D01*
X142270862Y-142812006D01*
X142276950Y-142805064D01*
X142276956Y-142805058D01*
X142432202Y-142628032D01*
X142432203Y-142628030D01*
X142438295Y-142621084D01*
X142575669Y-142407512D01*
X142679967Y-142175980D01*
X142748896Y-141931575D01*
X142752705Y-141901639D01*
X142775491Y-141722523D01*
X142806319Y-141630389D01*
X142831003Y-141601993D01*
X142792454Y-141544299D01*
X142774185Y-141467464D01*
X142765157Y-141345976D01*
X142765157Y-141345975D01*
X142764472Y-141336759D01*
X142708428Y-141089082D01*
X142705082Y-141080479D01*
X142705080Y-141080471D01*
X142619738Y-140861015D01*
X142619736Y-140861011D01*
X142616391Y-140852409D01*
X142533623Y-140707595D01*
X142494964Y-140639954D01*
X142494960Y-140639948D01*
X142490383Y-140631940D01*
X142333171Y-140432517D01*
X142291897Y-140393690D01*
X142154940Y-140264855D01*
X142148209Y-140258523D01*
X141939561Y-140113779D01*
X141840613Y-140064983D01*
X141763535Y-140005839D01*
X141714957Y-139921700D01*
X141702276Y-139825376D01*
X141727422Y-139731532D01*
X141786566Y-139654454D01*
X141844554Y-139617865D01*
X141844195Y-139617175D01*
X141856878Y-139610573D01*
X141868421Y-139599809D01*
X141866244Y-139593985D01*
X141863832Y-139590939D01*
X141087341Y-138814448D01*
X141070000Y-138802861D01*
X141052659Y-138814448D01*
X140285996Y-139581111D01*
X140274409Y-139598452D01*
X140275385Y-139599912D01*
X140285274Y-139607196D01*
X140307632Y-139618959D01*
X140383135Y-139680101D01*
X140429493Y-139765482D01*
X140439648Y-139862105D01*
X140412054Y-139955259D01*
X140350912Y-140030762D01*
X140295939Y-140065448D01*
X140250046Y-140086605D01*
X140239380Y-140091522D01*
X140195839Y-140120069D01*
X140068426Y-140203605D01*
X140027015Y-140230755D01*
X140020121Y-140236908D01*
X140020116Y-140236912D01*
X139935105Y-140312788D01*
X139837562Y-140399848D01*
X139831652Y-140406954D01*
X139831651Y-140406955D01*
X139819064Y-140422089D01*
X139675183Y-140595087D01*
X139670385Y-140602994D01*
X139558778Y-140786918D01*
X139543447Y-140812182D01*
X139539875Y-140820699D01*
X139539875Y-140820700D01*
X139497621Y-140921463D01*
X139443292Y-141002009D01*
X139406630Y-141029410D01*
X139407384Y-141030447D01*
X139376314Y-141053021D01*
X139356713Y-141065897D01*
X139323637Y-141085458D01*
X139312562Y-141096533D01*
X139305876Y-141101719D01*
X139296747Y-141109516D01*
X139290564Y-141115322D01*
X139277893Y-141124528D01*
X139267911Y-141136594D01*
X139267910Y-141136595D01*
X139253414Y-141154118D01*
X139237626Y-141171469D01*
X138034553Y-142374542D01*
X138030503Y-142378227D01*
X138022982Y-142383000D01*
X138012264Y-142394413D01*
X138012261Y-142394416D01*
X137977697Y-142431224D01*
X137972253Y-142436842D01*
X137953865Y-142455230D01*
X137949076Y-142461405D01*
X137947387Y-142463320D01*
X137942120Y-142469110D01*
X137913414Y-142499679D01*
X137905868Y-142513405D01*
X137900891Y-142520255D01*
X137894286Y-142530311D01*
X137889985Y-142537583D01*
X137880386Y-142549959D01*
X137865128Y-142585219D01*
X137854810Y-142606279D01*
X137836305Y-142639940D01*
X137832409Y-142655113D01*
X137829294Y-142662981D01*
X137825409Y-142674327D01*
X137823042Y-142682475D01*
X137816819Y-142696855D01*
X137814368Y-142712330D01*
X137810810Y-142734792D01*
X137806054Y-142757757D01*
X137800396Y-142779795D01*
X137796500Y-142794970D01*
X137796500Y-142810638D01*
X137795438Y-142819045D01*
X137794497Y-142830997D01*
X137794231Y-142839470D01*
X137791780Y-142854943D01*
X137793254Y-142870537D01*
X137793254Y-142870539D01*
X137795395Y-142893185D01*
X137796500Y-142916618D01*
X137796500Y-146319455D01*
X137777546Y-146414743D01*
X137723570Y-146495525D01*
X134430525Y-149788570D01*
X134349743Y-149842546D01*
X134254455Y-149861500D01*
X120380545Y-149861500D01*
X120285257Y-149842546D01*
X120204475Y-149788570D01*
X117894770Y-147478865D01*
X117894766Y-147478862D01*
X116928964Y-146513060D01*
X116874989Y-146432279D01*
X116856035Y-146336991D01*
X116859818Y-146293751D01*
X116860727Y-146288597D01*
X116863543Y-146278087D01*
X116883498Y-146050000D01*
X116871032Y-145907512D01*
X116864491Y-145832748D01*
X116864491Y-145832747D01*
X116863543Y-145821913D01*
X116848710Y-145766554D01*
X116835661Y-145717857D01*
X116804284Y-145600757D01*
X116707523Y-145393251D01*
X116616172Y-145262788D01*
X116582431Y-145214601D01*
X116582428Y-145214598D01*
X116576198Y-145205700D01*
X116414300Y-145043802D01*
X116405402Y-145037572D01*
X116405399Y-145037569D01*
X116235652Y-144918711D01*
X116226749Y-144912477D01*
X116019243Y-144815716D01*
X115798087Y-144756457D01*
X115787253Y-144755509D01*
X115787252Y-144755509D01*
X115580836Y-144737450D01*
X115570000Y-144736502D01*
X115559164Y-144737450D01*
X115352748Y-144755509D01*
X115352747Y-144755509D01*
X115341913Y-144756457D01*
X115120757Y-144815716D01*
X114913251Y-144912477D01*
X114904348Y-144918711D01*
X114734601Y-145037569D01*
X114734598Y-145037572D01*
X114725700Y-145043802D01*
X114563802Y-145205700D01*
X114557572Y-145214598D01*
X114557569Y-145214601D01*
X114523828Y-145262788D01*
X114432477Y-145393251D01*
X114335716Y-145600757D01*
X114304339Y-145717857D01*
X114291291Y-145766554D01*
X114276457Y-145821913D01*
X114275509Y-145832748D01*
X114273622Y-145843450D01*
X114270377Y-145842878D01*
X114249247Y-145915346D01*
X114188428Y-145991109D01*
X114103245Y-146037831D01*
X114006666Y-146048398D01*
X113913395Y-146021202D01*
X113852323Y-145976418D01*
X113530458Y-145654553D01*
X113526773Y-145650503D01*
X113522000Y-145642982D01*
X113510587Y-145632264D01*
X113510584Y-145632261D01*
X113473776Y-145597697D01*
X113468158Y-145592253D01*
X113449770Y-145573865D01*
X113443595Y-145569076D01*
X113441680Y-145567387D01*
X113435890Y-145562120D01*
X113416737Y-145544134D01*
X113416736Y-145544133D01*
X113405321Y-145533414D01*
X113391595Y-145525868D01*
X113384745Y-145520891D01*
X113374689Y-145514286D01*
X113367417Y-145509985D01*
X113355041Y-145500386D01*
X113319781Y-145485128D01*
X113298721Y-145474810D01*
X113278788Y-145463852D01*
X113265060Y-145456305D01*
X113249887Y-145452409D01*
X113242019Y-145449294D01*
X113230673Y-145445409D01*
X113222525Y-145443042D01*
X113208145Y-145436819D01*
X113170206Y-145430810D01*
X113147243Y-145426054D01*
X113125205Y-145420396D01*
X113125204Y-145420396D01*
X113110030Y-145416500D01*
X113094365Y-145416500D01*
X113085951Y-145415437D01*
X113074011Y-145414497D01*
X113065528Y-145414230D01*
X113050057Y-145411780D01*
X113034463Y-145413254D01*
X113034461Y-145413254D01*
X113011815Y-145415395D01*
X112988382Y-145416500D01*
X111773424Y-145416500D01*
X111678136Y-145397546D01*
X111597354Y-145343570D01*
X111569456Y-145310321D01*
X111502437Y-145214609D01*
X111502432Y-145214603D01*
X111496198Y-145205700D01*
X111334300Y-145043802D01*
X111325402Y-145037572D01*
X111325399Y-145037569D01*
X111155652Y-144918711D01*
X111146749Y-144912477D01*
X110939243Y-144815716D01*
X110718087Y-144756457D01*
X110707253Y-144755509D01*
X110707252Y-144755509D01*
X110500836Y-144737450D01*
X110490000Y-144736502D01*
X110479164Y-144737450D01*
X110272748Y-144755509D01*
X110272747Y-144755509D01*
X110261913Y-144756457D01*
X110040757Y-144815716D01*
X109833251Y-144912477D01*
X109824348Y-144918711D01*
X109654601Y-145037569D01*
X109654598Y-145037572D01*
X109645700Y-145043802D01*
X109483802Y-145205700D01*
X109477572Y-145214598D01*
X109477569Y-145214601D01*
X109443828Y-145262788D01*
X109352477Y-145393251D01*
X109255716Y-145600757D01*
X109224339Y-145717857D01*
X109211291Y-145766554D01*
X109196457Y-145821913D01*
X109195509Y-145832747D01*
X109195509Y-145832748D01*
X109188968Y-145907512D01*
X109176502Y-146050000D01*
X109196457Y-146278087D01*
X109255716Y-146499243D01*
X109352477Y-146706749D01*
X109367209Y-146727788D01*
X109477564Y-146885391D01*
X109483802Y-146894300D01*
X109645700Y-147056198D01*
X109654598Y-147062428D01*
X109654601Y-147062431D01*
X109697187Y-147092250D01*
X109833251Y-147187523D01*
X110040757Y-147284284D01*
X110261913Y-147343543D01*
X110272747Y-147344491D01*
X110272748Y-147344491D01*
X110479164Y-147362550D01*
X110490000Y-147363498D01*
X110500836Y-147362550D01*
X110707252Y-147344491D01*
X110707253Y-147344491D01*
X110718087Y-147343543D01*
X110939243Y-147284284D01*
X111146749Y-147187523D01*
X111282813Y-147092250D01*
X111325399Y-147062431D01*
X111325402Y-147062428D01*
X111334300Y-147056198D01*
X111496198Y-146894300D01*
X111502432Y-146885397D01*
X111502437Y-146885391D01*
X111569456Y-146789679D01*
X111639637Y-146722495D01*
X111730187Y-146687283D01*
X111773424Y-146683500D01*
X112664456Y-146683500D01*
X112759744Y-146702454D01*
X112840526Y-146756430D01*
X118244541Y-152160445D01*
X118248224Y-152164493D01*
X118253000Y-152172018D01*
X118301255Y-152217333D01*
X118306843Y-152222747D01*
X118325231Y-152241135D01*
X118331418Y-152245934D01*
X118333323Y-152247614D01*
X118339064Y-152252837D01*
X118369679Y-152281586D01*
X118383414Y-152289136D01*
X118390279Y-152294124D01*
X118400279Y-152300693D01*
X118407581Y-152305011D01*
X118419960Y-152314614D01*
X118434337Y-152320835D01*
X118434338Y-152320836D01*
X118455208Y-152329867D01*
X118476276Y-152340188D01*
X118496213Y-152351149D01*
X118496216Y-152351150D01*
X118509940Y-152358695D01*
X118525113Y-152362591D01*
X118532979Y-152365705D01*
X118544327Y-152369591D01*
X118552475Y-152371958D01*
X118566855Y-152378181D01*
X118604792Y-152384190D01*
X118627757Y-152388946D01*
X118649795Y-152394604D01*
X118664970Y-152398500D01*
X118680635Y-152398500D01*
X118689049Y-152399563D01*
X118700989Y-152400503D01*
X118709472Y-152400770D01*
X118724943Y-152403220D01*
X118740537Y-152401746D01*
X118740539Y-152401746D01*
X118763185Y-152399605D01*
X118786618Y-152398500D01*
X135180738Y-152398500D01*
X135186213Y-152398758D01*
X135194909Y-152400702D01*
X135210566Y-152400210D01*
X135210568Y-152400210D01*
X135254349Y-152398833D01*
X135261046Y-152398623D01*
X135268868Y-152398500D01*
X135294856Y-152398500D01*
X135302620Y-152397519D01*
X135305168Y-152397359D01*
X135312959Y-152396991D01*
X135354889Y-152395673D01*
X135369931Y-152391303D01*
X135378309Y-152389976D01*
X135390048Y-152387545D01*
X135398256Y-152385437D01*
X135413797Y-152383474D01*
X135449510Y-152369334D01*
X135471708Y-152361734D01*
X135493546Y-152355390D01*
X135493550Y-152355388D01*
X135508593Y-152351018D01*
X135522077Y-152343044D01*
X135529861Y-152339675D01*
X135540610Y-152334409D01*
X135548048Y-152330320D01*
X135562617Y-152324552D01*
X135593702Y-152301968D01*
X135613285Y-152289104D01*
X135646362Y-152269542D01*
X135657435Y-152258469D01*
X135664126Y-152253279D01*
X135673256Y-152245482D01*
X135679438Y-152239676D01*
X135692107Y-152230472D01*
X135703002Y-152217303D01*
X135716591Y-152200876D01*
X135732379Y-152183525D01*
X138936430Y-148979474D01*
X139017212Y-148925498D01*
X139112500Y-148906544D01*
X139207788Y-148925498D01*
X139288570Y-148979474D01*
X139342546Y-149060256D01*
X139361500Y-149155544D01*
X139361500Y-149838134D01*
X139362226Y-149844822D01*
X139362227Y-149844831D01*
X139364038Y-149861500D01*
X139368255Y-149900316D01*
X139419385Y-150036705D01*
X139506739Y-150153261D01*
X139623295Y-150240615D01*
X139759684Y-150291745D01*
X139775198Y-150293430D01*
X139775201Y-150293431D01*
X139815169Y-150297773D01*
X139815178Y-150297774D01*
X139821866Y-150298500D01*
X142318134Y-150298500D01*
X142324822Y-150297774D01*
X142324831Y-150297773D01*
X142364799Y-150293431D01*
X142364802Y-150293430D01*
X142380316Y-150291745D01*
X142516705Y-150240615D01*
X142633261Y-150153261D01*
X142635085Y-150155695D01*
X142692317Y-150117454D01*
X142787605Y-150098500D01*
X143022500Y-150098500D01*
X143117788Y-150117454D01*
X143198570Y-150171430D01*
X143252546Y-150252212D01*
X143271500Y-150347500D01*
X143271500Y-150402019D01*
X143252546Y-150497307D01*
X143198570Y-150578089D01*
X140418089Y-153358570D01*
X140337307Y-153412546D01*
X140242019Y-153431500D01*
X93437981Y-153431500D01*
X93342693Y-153412546D01*
X93261911Y-153358570D01*
X90481430Y-150578089D01*
X90427454Y-150497307D01*
X90408500Y-150402019D01*
X90408500Y-150268452D01*
X92014409Y-150268452D01*
X92015385Y-150269912D01*
X92025273Y-150277195D01*
X92118850Y-150326428D01*
X92135748Y-150333776D01*
X92357977Y-150411381D01*
X92375773Y-150416150D01*
X92607034Y-150460056D01*
X92625335Y-150462142D01*
X92860547Y-150471383D01*
X92878955Y-150470741D01*
X93112947Y-150445114D01*
X93131063Y-150441757D01*
X93358702Y-150381824D01*
X93376112Y-150375830D01*
X93592392Y-150282908D01*
X93596878Y-150280573D01*
X93608421Y-150269809D01*
X93606244Y-150263985D01*
X93603832Y-150260939D01*
X92827341Y-149484448D01*
X92810000Y-149472861D01*
X92792659Y-149484448D01*
X92025996Y-150251111D01*
X92014409Y-150268452D01*
X90408500Y-150268452D01*
X90408500Y-148724400D01*
X91098242Y-148724400D01*
X91109535Y-148959514D01*
X91111778Y-148977788D01*
X91157701Y-149208659D01*
X91162627Y-149226423D01*
X91242167Y-149447960D01*
X91249663Y-149464795D01*
X91289935Y-149539744D01*
X91303203Y-149555839D01*
X91305415Y-149555162D01*
X91314436Y-149548457D01*
X92085552Y-148777341D01*
X92097139Y-148760000D01*
X93522861Y-148760000D01*
X93534448Y-148777341D01*
X94303835Y-149546728D01*
X94320510Y-149557869D01*
X94330461Y-149543458D01*
X94415699Y-149354236D01*
X94422005Y-149336909D01*
X94485895Y-149110371D01*
X94489570Y-149092307D01*
X94519654Y-148855838D01*
X94520605Y-148843399D01*
X94522626Y-148766240D01*
X94522326Y-148753770D01*
X94504660Y-148516054D01*
X94501934Y-148497815D01*
X94449989Y-148268249D01*
X94444597Y-148250613D01*
X94359290Y-148031244D01*
X94351348Y-148014594D01*
X94331209Y-147979359D01*
X94317527Y-147963619D01*
X94313739Y-147964886D01*
X94307312Y-147969795D01*
X93534448Y-148742659D01*
X93522861Y-148760000D01*
X92097139Y-148760000D01*
X92085552Y-148742659D01*
X91316873Y-147973980D01*
X91299532Y-147962393D01*
X91294823Y-147965540D01*
X91291772Y-147969427D01*
X91288684Y-147974516D01*
X91280323Y-147990925D01*
X91189296Y-148208001D01*
X91183447Y-148225483D01*
X91125508Y-148453617D01*
X91122306Y-148471774D01*
X91098724Y-148705965D01*
X91098242Y-148724400D01*
X90408500Y-148724400D01*
X90408500Y-140017500D01*
X90427454Y-139922212D01*
X90481430Y-139841430D01*
X90562212Y-139787454D01*
X90657500Y-139768500D01*
X91092395Y-139768500D01*
X91187683Y-139787454D01*
X91244915Y-139825695D01*
X91246739Y-139823261D01*
X91363295Y-139910615D01*
X91499684Y-139961745D01*
X91515198Y-139963430D01*
X91515201Y-139963431D01*
X91555169Y-139967773D01*
X91555178Y-139967774D01*
X91561866Y-139968500D01*
X91598395Y-139968500D01*
X91693683Y-139987454D01*
X91774465Y-140041430D01*
X91828441Y-140122212D01*
X91847395Y-140217500D01*
X91828441Y-140312788D01*
X91774465Y-140393570D01*
X91764210Y-140403259D01*
X91577562Y-140569848D01*
X91415183Y-140765087D01*
X91283447Y-140982182D01*
X91279873Y-140990705D01*
X91274306Y-141003982D01*
X91185246Y-141216365D01*
X91122738Y-141462490D01*
X91097296Y-141715151D01*
X91097740Y-141724387D01*
X91108120Y-141940476D01*
X91109480Y-141968798D01*
X91159021Y-142217857D01*
X91162142Y-142226549D01*
X91162142Y-142226550D01*
X91240873Y-142445833D01*
X91244831Y-142456858D01*
X91249207Y-142465002D01*
X91358908Y-142669166D01*
X91365025Y-142680551D01*
X91516963Y-142884020D01*
X91697307Y-143062797D01*
X91704759Y-143068261D01*
X91864881Y-143185667D01*
X91902094Y-143212953D01*
X92047059Y-143289223D01*
X92122561Y-143350363D01*
X92168920Y-143435745D01*
X92179075Y-143532368D01*
X92151482Y-143625522D01*
X92090341Y-143701025D01*
X92035367Y-143735711D01*
X91987776Y-143757651D01*
X91987772Y-143757653D01*
X91979380Y-143761522D01*
X91878578Y-143827611D01*
X91777791Y-143893690D01*
X91767015Y-143900755D01*
X91760121Y-143906908D01*
X91760116Y-143906912D01*
X91663375Y-143993257D01*
X91577562Y-144069848D01*
X91415183Y-144265087D01*
X91283447Y-144482182D01*
X91279873Y-144490705D01*
X91235510Y-144596500D01*
X91185246Y-144716365D01*
X91122738Y-144962490D01*
X91109898Y-145090000D01*
X91098248Y-145205700D01*
X91097296Y-145215151D01*
X91099584Y-145262788D01*
X91108357Y-145445409D01*
X91109480Y-145468798D01*
X91159021Y-145717857D01*
X91162142Y-145726549D01*
X91162142Y-145726550D01*
X91229927Y-145915346D01*
X91244831Y-145956858D01*
X91365025Y-146180551D01*
X91516963Y-146384020D01*
X91697307Y-146562797D01*
X91730284Y-146586977D01*
X91867085Y-146687283D01*
X91902094Y-146712953D01*
X92019735Y-146774847D01*
X92047618Y-146789517D01*
X92123121Y-146850659D01*
X92169479Y-146936041D01*
X92179634Y-147032664D01*
X92152041Y-147125818D01*
X92090899Y-147201321D01*
X92035923Y-147236008D01*
X92028892Y-147239249D01*
X92012496Y-147251162D01*
X92022219Y-147265112D01*
X92792659Y-148035552D01*
X92810000Y-148047139D01*
X92827341Y-148035552D01*
X93594574Y-147268319D01*
X93606161Y-147250978D01*
X93606119Y-147250916D01*
X93593606Y-147241950D01*
X93580597Y-147235534D01*
X93503519Y-147176389D01*
X93454942Y-147092250D01*
X93442261Y-146995927D01*
X93467407Y-146902082D01*
X93526552Y-146825004D01*
X93584771Y-146788270D01*
X93584432Y-146787618D01*
X93592271Y-146783538D01*
X93592430Y-146783437D01*
X93601110Y-146779708D01*
X93608956Y-146774853D01*
X93608967Y-146774847D01*
X93696365Y-146720763D01*
X93787367Y-146686738D01*
X93827393Y-146683500D01*
X105337134Y-146683500D01*
X105342609Y-146683758D01*
X105351305Y-146685702D01*
X105366962Y-146685210D01*
X105366964Y-146685210D01*
X105410745Y-146683833D01*
X105417442Y-146683623D01*
X105425264Y-146683500D01*
X105451252Y-146683500D01*
X105459016Y-146682519D01*
X105461564Y-146682359D01*
X105469355Y-146681991D01*
X105511285Y-146680673D01*
X105526327Y-146676303D01*
X105534705Y-146674976D01*
X105546444Y-146672545D01*
X105554652Y-146670437D01*
X105570193Y-146668474D01*
X105605906Y-146654334D01*
X105628104Y-146646734D01*
X105649942Y-146640390D01*
X105649946Y-146640388D01*
X105664989Y-146636018D01*
X105678473Y-146628044D01*
X105686257Y-146624675D01*
X105697006Y-146619409D01*
X105704444Y-146615320D01*
X105719013Y-146609552D01*
X105750098Y-146586968D01*
X105769681Y-146574104D01*
X105802758Y-146554542D01*
X105813831Y-146543469D01*
X105820522Y-146538279D01*
X105829652Y-146530482D01*
X105835834Y-146524676D01*
X105848503Y-146515472D01*
X105872987Y-146485876D01*
X105888775Y-146468525D01*
X110680871Y-141676430D01*
X110761653Y-141622454D01*
X110856941Y-141603500D01*
X120575738Y-141603500D01*
X120581213Y-141603758D01*
X120589909Y-141605702D01*
X120605566Y-141605210D01*
X120605568Y-141605210D01*
X120649349Y-141603833D01*
X120656046Y-141603623D01*
X120663868Y-141603500D01*
X120689856Y-141603500D01*
X120697620Y-141602519D01*
X120700168Y-141602359D01*
X120707959Y-141601991D01*
X120749889Y-141600673D01*
X120764931Y-141596303D01*
X120773309Y-141594976D01*
X120785048Y-141592545D01*
X120793256Y-141590437D01*
X120808797Y-141588474D01*
X120844510Y-141574334D01*
X120866708Y-141566734D01*
X120888546Y-141560390D01*
X120888550Y-141560388D01*
X120903593Y-141556018D01*
X120917077Y-141548044D01*
X120924861Y-141544675D01*
X120935610Y-141539409D01*
X120943048Y-141535320D01*
X120957617Y-141529552D01*
X120988702Y-141506968D01*
X121008285Y-141494104D01*
X121041362Y-141474542D01*
X121052435Y-141463469D01*
X121059126Y-141458279D01*
X121068256Y-141450482D01*
X121074438Y-141444676D01*
X121087107Y-141435472D01*
X121111591Y-141405876D01*
X121127379Y-141388525D01*
X123585445Y-138930459D01*
X123589493Y-138926776D01*
X123597018Y-138922000D01*
X123642333Y-138873745D01*
X123647747Y-138868157D01*
X123666134Y-138849770D01*
X123670929Y-138843588D01*
X123672596Y-138841697D01*
X123677864Y-138835907D01*
X123695862Y-138816741D01*
X123695863Y-138816740D01*
X123706586Y-138805321D01*
X123714133Y-138791593D01*
X123719117Y-138784733D01*
X123725692Y-138774725D01*
X123730016Y-138767414D01*
X123739613Y-138755041D01*
X123754868Y-138719790D01*
X123765182Y-138698738D01*
X123776146Y-138678793D01*
X123776148Y-138678788D01*
X123783695Y-138665060D01*
X123787590Y-138649888D01*
X123790710Y-138642009D01*
X123794596Y-138630656D01*
X123796959Y-138622523D01*
X123803181Y-138608145D01*
X123809191Y-138570201D01*
X123813944Y-138547249D01*
X123819605Y-138525203D01*
X123819606Y-138525198D01*
X123823500Y-138510030D01*
X123823500Y-138494364D01*
X123824560Y-138485971D01*
X123825502Y-138474009D01*
X123825769Y-138465529D01*
X123828219Y-138450057D01*
X123824605Y-138411822D01*
X123823500Y-138388391D01*
X123823500Y-137173424D01*
X123842454Y-137078136D01*
X123896430Y-136997354D01*
X123929679Y-136969456D01*
X124025391Y-136902437D01*
X124025397Y-136902432D01*
X124034300Y-136896198D01*
X124196198Y-136734300D01*
X124327523Y-136546749D01*
X124424284Y-136339243D01*
X124483543Y-136118087D01*
X124503498Y-135890000D01*
X124483543Y-135661913D01*
X124424284Y-135440757D01*
X124327523Y-135233251D01*
X124226287Y-135088671D01*
X124202431Y-135054601D01*
X124202428Y-135054598D01*
X124196198Y-135045700D01*
X124034300Y-134883802D01*
X124025402Y-134877572D01*
X124025399Y-134877569D01*
X123855652Y-134758711D01*
X123846749Y-134752477D01*
X123639243Y-134655716D01*
X123488973Y-134615451D01*
X123428593Y-134599272D01*
X123428592Y-134599272D01*
X123418087Y-134596457D01*
X123407253Y-134595509D01*
X123407252Y-134595509D01*
X123200836Y-134577450D01*
X123190000Y-134576502D01*
X123179164Y-134577450D01*
X122972748Y-134595509D01*
X122972747Y-134595509D01*
X122961913Y-134596457D01*
X122951408Y-134599272D01*
X122951407Y-134599272D01*
X122891027Y-134615451D01*
X122740757Y-134655716D01*
X122533251Y-134752477D01*
X122524348Y-134758711D01*
X122354601Y-134877569D01*
X122354598Y-134877572D01*
X122345700Y-134883802D01*
X122183802Y-135045700D01*
X122177572Y-135054598D01*
X122177569Y-135054601D01*
X122153713Y-135088671D01*
X122052477Y-135233251D01*
X121955716Y-135440757D01*
X121896457Y-135661913D01*
X121876502Y-135890000D01*
X121896457Y-136118087D01*
X121955716Y-136339243D01*
X122052477Y-136546749D01*
X122183802Y-136734300D01*
X122345700Y-136896198D01*
X122354603Y-136902432D01*
X122354609Y-136902437D01*
X122450321Y-136969456D01*
X122517505Y-137039637D01*
X122552717Y-137130187D01*
X122556500Y-137173424D01*
X122556500Y-138064455D01*
X122537546Y-138159743D01*
X122483570Y-138240525D01*
X122367677Y-138356418D01*
X122286895Y-138410394D01*
X122191607Y-138429348D01*
X122096319Y-138410394D01*
X122015537Y-138356418D01*
X121961561Y-138275636D01*
X121948689Y-138223043D01*
X121946378Y-138223450D01*
X121944491Y-138212748D01*
X121943543Y-138201913D01*
X121934348Y-138167595D01*
X121916955Y-138102687D01*
X121884284Y-137980757D01*
X121787523Y-137773251D01*
X121702414Y-137651703D01*
X121662431Y-137594601D01*
X121662428Y-137594598D01*
X121656198Y-137585700D01*
X121494300Y-137423802D01*
X121485397Y-137417568D01*
X121485391Y-137417563D01*
X121389679Y-137350544D01*
X121322495Y-137280363D01*
X121287283Y-137189813D01*
X121283500Y-137146576D01*
X121283500Y-134985544D01*
X121302454Y-134890256D01*
X121356430Y-134809474D01*
X122109474Y-134056430D01*
X122190256Y-134002454D01*
X122285544Y-133983500D01*
X124935962Y-133983500D01*
X125031250Y-134002454D01*
X125112032Y-134056430D01*
X125166008Y-134137212D01*
X125184962Y-134232500D01*
X125166008Y-134327788D01*
X125154163Y-134352455D01*
X125143852Y-134371210D01*
X125143849Y-134371217D01*
X125136305Y-134384940D01*
X125132410Y-134400112D01*
X125129294Y-134407981D01*
X125125409Y-134419327D01*
X125123042Y-134427475D01*
X125116819Y-134441855D01*
X125114368Y-134457330D01*
X125110810Y-134479792D01*
X125106054Y-134502757D01*
X125100396Y-134524795D01*
X125096500Y-134539970D01*
X125096500Y-134555635D01*
X125095437Y-134564049D01*
X125094497Y-134575989D01*
X125094230Y-134584472D01*
X125091780Y-134599943D01*
X125093254Y-134615537D01*
X125093254Y-134615539D01*
X125095395Y-134638185D01*
X125096500Y-134661618D01*
X125096500Y-137146576D01*
X125077546Y-137241864D01*
X125023570Y-137322646D01*
X124990321Y-137350544D01*
X124894609Y-137417563D01*
X124894603Y-137417568D01*
X124885700Y-137423802D01*
X124723802Y-137585700D01*
X124717572Y-137594598D01*
X124717569Y-137594601D01*
X124677586Y-137651703D01*
X124592477Y-137773251D01*
X124495716Y-137980757D01*
X124463045Y-138102687D01*
X124445653Y-138167595D01*
X124436457Y-138201913D01*
X124416502Y-138430000D01*
X124436457Y-138658087D01*
X124495716Y-138879243D01*
X124592477Y-139086749D01*
X124598711Y-139095652D01*
X124645818Y-139162927D01*
X124723802Y-139274300D01*
X124885700Y-139436198D01*
X124894598Y-139442428D01*
X124894601Y-139442431D01*
X124988435Y-139508134D01*
X125073251Y-139567523D01*
X125280757Y-139664284D01*
X125501913Y-139723543D01*
X125512747Y-139724491D01*
X125512748Y-139724491D01*
X125719164Y-139742550D01*
X125730000Y-139743498D01*
X125740836Y-139742550D01*
X125947252Y-139724491D01*
X125947253Y-139724491D01*
X125958087Y-139723543D01*
X126179243Y-139664284D01*
X126386749Y-139567523D01*
X126471565Y-139508134D01*
X126565399Y-139442431D01*
X126565402Y-139442428D01*
X126574300Y-139436198D01*
X126736198Y-139274300D01*
X126814183Y-139162927D01*
X126861289Y-139095652D01*
X126867523Y-139086749D01*
X126964284Y-138879243D01*
X127008358Y-138714759D01*
X128028105Y-138714759D01*
X128045192Y-138931872D01*
X128048245Y-138951151D01*
X128099088Y-139162927D01*
X128105116Y-139181477D01*
X128188463Y-139382695D01*
X128197319Y-139400077D01*
X128274622Y-139526223D01*
X128308249Y-139617373D01*
X128304435Y-139714453D01*
X128263761Y-139802684D01*
X128211647Y-139855577D01*
X128176739Y-139881739D01*
X128089385Y-139998295D01*
X128038255Y-140134684D01*
X128036570Y-140150198D01*
X128036569Y-140150201D01*
X128032227Y-140190169D01*
X128032226Y-140190178D01*
X128031500Y-140196866D01*
X128031500Y-142293134D01*
X128032226Y-142299822D01*
X128032227Y-142299831D01*
X128036569Y-142339799D01*
X128038255Y-142355316D01*
X128089385Y-142491705D01*
X128176739Y-142608261D01*
X128190936Y-142618901D01*
X128273668Y-142680905D01*
X128293295Y-142695615D01*
X128429684Y-142746745D01*
X128445198Y-142748430D01*
X128445201Y-142748431D01*
X128485169Y-142752773D01*
X128485178Y-142752774D01*
X128491866Y-142753500D01*
X130588134Y-142753500D01*
X130594822Y-142752774D01*
X130594831Y-142752773D01*
X130634799Y-142748431D01*
X130634802Y-142748430D01*
X130650316Y-142746745D01*
X130786705Y-142695615D01*
X130806333Y-142680905D01*
X130889064Y-142618901D01*
X130903261Y-142608261D01*
X130990615Y-142491705D01*
X131041745Y-142355316D01*
X131043431Y-142339799D01*
X131047773Y-142299831D01*
X131047774Y-142299822D01*
X131048500Y-142293134D01*
X131048500Y-140196866D01*
X131047774Y-140190178D01*
X131047773Y-140190169D01*
X131043431Y-140150201D01*
X131043430Y-140150198D01*
X131041745Y-140134684D01*
X130990615Y-139998295D01*
X130903261Y-139881739D01*
X130868353Y-139855577D01*
X130803472Y-139783266D01*
X130771200Y-139691627D01*
X130776453Y-139594614D01*
X130805378Y-139526223D01*
X130882681Y-139400077D01*
X130891537Y-139382695D01*
X130974884Y-139181477D01*
X130980912Y-139162927D01*
X131031755Y-138951151D01*
X131034808Y-138931872D01*
X131051895Y-138714759D01*
X131051895Y-138695241D01*
X131034808Y-138478128D01*
X131031755Y-138458849D01*
X130980912Y-138247073D01*
X130974885Y-138228524D01*
X130910666Y-138073486D01*
X130899960Y-138057463D01*
X130883939Y-138068168D01*
X129716070Y-139236037D01*
X129635288Y-139290013D01*
X129540000Y-139308967D01*
X129444712Y-139290013D01*
X129363930Y-139236037D01*
X128196061Y-138068168D01*
X128180040Y-138057463D01*
X128169334Y-138073486D01*
X128105115Y-138228524D01*
X128099088Y-138247073D01*
X128048245Y-138458849D01*
X128045192Y-138478128D01*
X128028105Y-138695241D01*
X128028105Y-138714759D01*
X127008358Y-138714759D01*
X127023543Y-138658087D01*
X127043498Y-138430000D01*
X127023543Y-138201913D01*
X127014348Y-138167595D01*
X126996955Y-138102687D01*
X126964284Y-137980757D01*
X126867523Y-137773251D01*
X126782414Y-137651703D01*
X126742431Y-137594601D01*
X126742428Y-137594598D01*
X126736198Y-137585700D01*
X126574300Y-137423802D01*
X126565397Y-137417568D01*
X126565391Y-137417563D01*
X126469679Y-137350544D01*
X126402495Y-137280363D01*
X126367283Y-137189813D01*
X126363500Y-137146576D01*
X126363500Y-134985544D01*
X126382454Y-134890256D01*
X126436430Y-134809474D01*
X126914474Y-134331430D01*
X126995256Y-134277454D01*
X127090544Y-134258500D01*
X128019551Y-134258500D01*
X128114839Y-134277454D01*
X128195621Y-134331430D01*
X128231858Y-134377397D01*
X128249925Y-134406880D01*
X128315824Y-134514416D01*
X128322170Y-134521846D01*
X128322172Y-134521849D01*
X128463674Y-134687526D01*
X128470031Y-134694969D01*
X128477474Y-134701326D01*
X128477477Y-134701329D01*
X128482549Y-134705661D01*
X128542696Y-134781960D01*
X128569067Y-134875467D01*
X128557646Y-134971949D01*
X128510173Y-135056715D01*
X128482549Y-135084339D01*
X128477477Y-135088671D01*
X128477474Y-135088674D01*
X128470031Y-135095031D01*
X128463674Y-135102474D01*
X128343565Y-135243104D01*
X128315824Y-135275584D01*
X128191760Y-135478037D01*
X128100895Y-135697406D01*
X128045465Y-135928289D01*
X128026835Y-136165000D01*
X128045465Y-136401711D01*
X128050588Y-136423049D01*
X128097877Y-136620022D01*
X128100895Y-136632594D01*
X128191760Y-136851963D01*
X128315824Y-137054416D01*
X128322170Y-137061846D01*
X128322172Y-137061849D01*
X128431464Y-137189813D01*
X128470031Y-137234969D01*
X128477474Y-137241326D01*
X128627582Y-137369530D01*
X128650584Y-137389176D01*
X128853037Y-137513240D01*
X129072406Y-137604105D01*
X129101246Y-137611029D01*
X129189474Y-137651703D01*
X129219185Y-137677078D01*
X129522659Y-137980552D01*
X129540000Y-137992139D01*
X129557341Y-137980552D01*
X129860815Y-137677078D01*
X129941597Y-137623102D01*
X129978752Y-137611029D01*
X130007594Y-137604105D01*
X130226963Y-137513240D01*
X130429416Y-137389176D01*
X130452419Y-137369530D01*
X130602526Y-137241326D01*
X130609969Y-137234969D01*
X130648536Y-137189813D01*
X130757828Y-137061849D01*
X130757830Y-137061846D01*
X130764176Y-137054416D01*
X130888240Y-136851963D01*
X130979105Y-136632594D01*
X130982124Y-136620022D01*
X131029412Y-136423049D01*
X131034535Y-136401711D01*
X131053165Y-136165000D01*
X131034535Y-135928289D01*
X130979105Y-135697406D01*
X130888240Y-135478037D01*
X130764176Y-135275584D01*
X130736436Y-135243104D01*
X130616326Y-135102474D01*
X130609969Y-135095031D01*
X130602526Y-135088674D01*
X130602523Y-135088671D01*
X130597451Y-135084339D01*
X130537304Y-135008040D01*
X130510933Y-134914533D01*
X130522354Y-134818051D01*
X130569827Y-134733285D01*
X130597451Y-134705661D01*
X130602523Y-134701329D01*
X130602526Y-134701326D01*
X130609969Y-134694969D01*
X130616326Y-134687526D01*
X130757828Y-134521849D01*
X130757830Y-134521846D01*
X130764176Y-134514416D01*
X130888240Y-134311963D01*
X130979105Y-134092594D01*
X130984217Y-134071304D01*
X131011298Y-133958500D01*
X131034535Y-133861711D01*
X131053165Y-133625000D01*
X131034535Y-133388289D01*
X130997195Y-133232757D01*
X130981389Y-133166918D01*
X130981388Y-133166914D01*
X130979105Y-133157406D01*
X130888240Y-132938037D01*
X130764176Y-132735584D01*
X130750292Y-132719327D01*
X130616326Y-132562474D01*
X130609969Y-132555031D01*
X130602526Y-132548674D01*
X130602523Y-132548671D01*
X130597451Y-132544339D01*
X130537304Y-132468040D01*
X130510933Y-132374533D01*
X130522354Y-132278051D01*
X130569827Y-132193285D01*
X130597451Y-132165661D01*
X130602523Y-132161329D01*
X130602526Y-132161326D01*
X130609969Y-132154969D01*
X130673999Y-132080000D01*
X130757828Y-131981849D01*
X130757830Y-131981846D01*
X130764176Y-131974416D01*
X130888240Y-131771963D01*
X130979105Y-131552594D01*
X130993177Y-131493982D01*
X131005975Y-131440673D01*
X131034535Y-131321711D01*
X131053165Y-131085000D01*
X131034535Y-130848289D01*
X130991746Y-130670059D01*
X130981389Y-130626918D01*
X130981388Y-130626914D01*
X130979105Y-130617406D01*
X130888240Y-130398037D01*
X130764176Y-130195584D01*
X130757234Y-130187455D01*
X130616326Y-130022474D01*
X130609969Y-130015031D01*
X130602526Y-130008674D01*
X130602523Y-130008671D01*
X130597451Y-130004339D01*
X130537304Y-129928040D01*
X130510933Y-129834533D01*
X130522354Y-129738051D01*
X130569827Y-129653285D01*
X130597451Y-129625661D01*
X130602523Y-129621329D01*
X130602526Y-129621326D01*
X130609969Y-129614969D01*
X130616326Y-129607526D01*
X130757828Y-129441849D01*
X130757830Y-129441846D01*
X130764176Y-129434416D01*
X130888240Y-129231963D01*
X130979105Y-129012594D01*
X130994945Y-128946618D01*
X131016906Y-128855142D01*
X131034535Y-128781711D01*
X131053165Y-128545000D01*
X131034535Y-128308289D01*
X130991746Y-128130059D01*
X130981389Y-128086918D01*
X130981388Y-128086914D01*
X130979105Y-128077406D01*
X130888240Y-127858037D01*
X130764176Y-127655584D01*
X130736436Y-127623104D01*
X130616326Y-127482474D01*
X130609969Y-127475031D01*
X130602526Y-127468674D01*
X130602523Y-127468671D01*
X130597451Y-127464339D01*
X130537304Y-127388040D01*
X130510933Y-127294533D01*
X130522354Y-127198051D01*
X130569827Y-127113285D01*
X130597451Y-127085661D01*
X130602523Y-127081329D01*
X130602526Y-127081326D01*
X130609969Y-127074969D01*
X130637078Y-127043229D01*
X130757828Y-126901849D01*
X130757830Y-126901846D01*
X130764176Y-126894416D01*
X130888240Y-126691963D01*
X130979105Y-126472594D01*
X131002771Y-126374020D01*
X131020059Y-126302006D01*
X131034535Y-126241711D01*
X131053165Y-126005000D01*
X131034535Y-125768289D01*
X130996426Y-125609553D01*
X130981389Y-125546918D01*
X130981388Y-125546914D01*
X130979105Y-125537406D01*
X130888240Y-125318037D01*
X130764176Y-125115584D01*
X130609969Y-124935031D01*
X130602526Y-124928674D01*
X130602523Y-124928671D01*
X130597451Y-124924339D01*
X130537304Y-124848040D01*
X130510933Y-124754533D01*
X130522354Y-124658051D01*
X130569827Y-124573285D01*
X130597451Y-124545661D01*
X130602523Y-124541329D01*
X130602526Y-124541326D01*
X130609969Y-124534969D01*
X130621887Y-124521015D01*
X130757828Y-124361849D01*
X130757830Y-124361846D01*
X130764176Y-124354416D01*
X130888240Y-124151963D01*
X130979105Y-123932594D01*
X130981525Y-123922517D01*
X131017233Y-123773779D01*
X131034535Y-123701711D01*
X131053165Y-123465000D01*
X131034535Y-123228289D01*
X130996426Y-123069553D01*
X130981389Y-123006918D01*
X130981388Y-123006914D01*
X130979105Y-122997406D01*
X130888240Y-122778037D01*
X130764176Y-122575584D01*
X130738772Y-122545839D01*
X130616326Y-122402474D01*
X130609969Y-122395031D01*
X130602526Y-122388674D01*
X130602523Y-122388671D01*
X130597451Y-122384339D01*
X130537304Y-122308040D01*
X130510933Y-122214533D01*
X130522354Y-122118051D01*
X130569827Y-122033285D01*
X130597451Y-122005661D01*
X130602523Y-122001329D01*
X130602526Y-122001326D01*
X130609969Y-121994969D01*
X130764176Y-121814416D01*
X130825466Y-121714400D01*
X139258242Y-121714400D01*
X139269535Y-121949514D01*
X139271778Y-121967788D01*
X139317701Y-122198659D01*
X139322627Y-122216423D01*
X139402167Y-122437960D01*
X139409663Y-122454795D01*
X139449935Y-122529744D01*
X139463203Y-122545839D01*
X139465415Y-122545162D01*
X139474436Y-122538457D01*
X140245552Y-121767341D01*
X140257139Y-121750000D01*
X141682861Y-121750000D01*
X141694448Y-121767341D01*
X142463835Y-122536728D01*
X142480510Y-122547869D01*
X142490461Y-122533458D01*
X142575699Y-122344236D01*
X142582005Y-122326909D01*
X142645895Y-122100371D01*
X142649570Y-122082307D01*
X142679654Y-121845838D01*
X142680605Y-121833399D01*
X142682626Y-121756240D01*
X142682326Y-121743770D01*
X142664660Y-121506054D01*
X142661934Y-121487815D01*
X142609989Y-121258249D01*
X142604597Y-121240613D01*
X142519290Y-121021244D01*
X142511348Y-121004594D01*
X142491209Y-120969359D01*
X142477527Y-120953619D01*
X142473739Y-120954886D01*
X142467312Y-120959795D01*
X141694448Y-121732659D01*
X141682861Y-121750000D01*
X140257139Y-121750000D01*
X140245552Y-121732659D01*
X139476873Y-120963980D01*
X139459532Y-120952393D01*
X139454823Y-120955540D01*
X139451772Y-120959427D01*
X139448684Y-120964516D01*
X139440323Y-120980925D01*
X139349296Y-121198001D01*
X139343447Y-121215483D01*
X139285508Y-121443617D01*
X139282306Y-121461774D01*
X139258724Y-121695965D01*
X139258242Y-121714400D01*
X130825466Y-121714400D01*
X130888240Y-121611963D01*
X130979105Y-121392594D01*
X131034535Y-121161711D01*
X131053165Y-120925000D01*
X131034535Y-120688289D01*
X130996426Y-120529553D01*
X130981389Y-120466918D01*
X130981388Y-120466914D01*
X130979105Y-120457406D01*
X130889534Y-120241162D01*
X140172496Y-120241162D01*
X140182219Y-120255112D01*
X140952659Y-121025552D01*
X140970000Y-121037139D01*
X140987341Y-121025552D01*
X141754574Y-120258319D01*
X141766161Y-120240978D01*
X141766119Y-120240916D01*
X141753605Y-120231948D01*
X141619913Y-120166019D01*
X141602817Y-120159111D01*
X141378645Y-120087353D01*
X141360721Y-120083049D01*
X141128397Y-120045214D01*
X141110046Y-120043608D01*
X140874676Y-120040527D01*
X140856282Y-120041652D01*
X140623041Y-120073395D01*
X140605026Y-120077224D01*
X140379039Y-120143093D01*
X140361774Y-120149548D01*
X140188896Y-120229247D01*
X140172496Y-120241162D01*
X130889534Y-120241162D01*
X130888240Y-120238037D01*
X130764176Y-120035584D01*
X130609969Y-119855031D01*
X130602526Y-119848674D01*
X130602523Y-119848671D01*
X130597451Y-119844339D01*
X130537304Y-119768040D01*
X130510933Y-119674533D01*
X130522354Y-119578051D01*
X130569827Y-119493285D01*
X130597451Y-119465661D01*
X130602523Y-119461329D01*
X130602526Y-119461326D01*
X130609969Y-119454969D01*
X130764176Y-119274416D01*
X130888240Y-119071963D01*
X130979105Y-118852594D01*
X131034535Y-118621711D01*
X131053165Y-118385000D01*
X131034535Y-118148289D01*
X130979105Y-117917406D01*
X130888240Y-117698037D01*
X130764176Y-117495584D01*
X130730016Y-117455587D01*
X130616326Y-117322474D01*
X130609969Y-117315031D01*
X130602526Y-117308674D01*
X130602523Y-117308671D01*
X130597451Y-117304339D01*
X130537304Y-117228040D01*
X130510933Y-117134533D01*
X130522354Y-117038051D01*
X130569827Y-116953285D01*
X130597451Y-116925661D01*
X130602523Y-116921329D01*
X130602526Y-116921326D01*
X130609969Y-116914969D01*
X130618099Y-116905450D01*
X130726335Y-116778723D01*
X140574004Y-116778723D01*
X140587723Y-116788329D01*
X140611079Y-116799220D01*
X140631426Y-116806626D01*
X140831507Y-116860237D01*
X140852824Y-116863996D01*
X141059176Y-116882049D01*
X141080824Y-116882049D01*
X141287176Y-116863996D01*
X141308493Y-116860237D01*
X141508574Y-116806626D01*
X141528921Y-116799220D01*
X141549794Y-116789487D01*
X141566222Y-116777442D01*
X141556615Y-116763721D01*
X141087342Y-116294449D01*
X141070000Y-116282861D01*
X141052658Y-116294449D01*
X140585324Y-116761782D01*
X140574004Y-116778723D01*
X130726335Y-116778723D01*
X130757828Y-116741849D01*
X130757830Y-116741846D01*
X130764176Y-116734416D01*
X130888240Y-116531963D01*
X130979105Y-116312594D01*
X130983462Y-116294449D01*
X131014052Y-116167028D01*
X131034535Y-116081711D01*
X131053165Y-115845000D01*
X131034535Y-115608289D01*
X131027941Y-115580824D01*
X139757951Y-115580824D01*
X139776004Y-115787176D01*
X139779763Y-115808493D01*
X139833374Y-116008574D01*
X139840780Y-116028921D01*
X139850513Y-116049794D01*
X139862558Y-116066222D01*
X139876279Y-116056615D01*
X140345551Y-115587342D01*
X140357139Y-115570000D01*
X140345551Y-115552658D01*
X139878218Y-115085324D01*
X139861277Y-115074004D01*
X139851671Y-115087723D01*
X139840780Y-115111079D01*
X139833374Y-115131426D01*
X139779763Y-115331507D01*
X139776004Y-115352824D01*
X139757951Y-115559176D01*
X139757951Y-115580824D01*
X131027941Y-115580824D01*
X130979105Y-115377406D01*
X130888240Y-115158037D01*
X130764176Y-114955584D01*
X130731866Y-114917753D01*
X130616326Y-114782474D01*
X130609969Y-114775031D01*
X130602526Y-114768674D01*
X130602523Y-114768671D01*
X130597451Y-114764339D01*
X130537304Y-114688040D01*
X130510933Y-114594533D01*
X130522354Y-114498051D01*
X130569827Y-114413285D01*
X130597451Y-114385661D01*
X130602523Y-114381329D01*
X130602526Y-114381326D01*
X130609969Y-114374969D01*
X130626314Y-114355832D01*
X130757828Y-114201849D01*
X130757830Y-114201846D01*
X130764176Y-114194416D01*
X130888240Y-113991963D01*
X130979105Y-113772594D01*
X131034535Y-113541711D01*
X131053165Y-113305000D01*
X131034535Y-113068289D01*
X130979105Y-112837406D01*
X130888240Y-112618037D01*
X130764176Y-112415584D01*
X130742172Y-112389820D01*
X130616326Y-112242474D01*
X130609969Y-112235031D01*
X130602526Y-112228674D01*
X130602523Y-112228671D01*
X130597451Y-112224339D01*
X130537304Y-112148040D01*
X130510933Y-112054533D01*
X130522354Y-111958051D01*
X130569827Y-111873285D01*
X130597451Y-111845661D01*
X130602523Y-111841329D01*
X130602526Y-111841326D01*
X130609969Y-111834969D01*
X130669121Y-111765711D01*
X130757828Y-111661849D01*
X130757830Y-111661846D01*
X130764176Y-111654416D01*
X130888240Y-111451963D01*
X130979105Y-111232594D01*
X130983289Y-111215169D01*
X131026661Y-111034509D01*
X131034535Y-111001711D01*
X131053165Y-110765000D01*
X131034535Y-110528289D01*
X130979105Y-110297406D01*
X130888240Y-110078037D01*
X130764176Y-109875584D01*
X130609969Y-109695031D01*
X130602526Y-109688674D01*
X130602523Y-109688671D01*
X130597451Y-109684339D01*
X130537304Y-109608040D01*
X130510933Y-109514533D01*
X130522354Y-109418051D01*
X130569827Y-109333285D01*
X130597451Y-109305661D01*
X130602523Y-109301329D01*
X130602526Y-109301326D01*
X130609969Y-109294969D01*
X130645907Y-109252891D01*
X130757828Y-109121849D01*
X130757830Y-109121846D01*
X130764176Y-109114416D01*
X130888240Y-108911963D01*
X130979105Y-108692594D01*
X130987966Y-108655688D01*
X131009531Y-108565862D01*
X131034535Y-108461711D01*
X131053165Y-108225000D01*
X131034535Y-107988289D01*
X130979105Y-107757406D01*
X130888240Y-107538037D01*
X130764176Y-107335584D01*
X130698514Y-107258703D01*
X130616326Y-107162474D01*
X130609969Y-107155031D01*
X130602526Y-107148674D01*
X130602523Y-107148671D01*
X130597451Y-107144339D01*
X130537304Y-107068040D01*
X130510933Y-106974533D01*
X130513678Y-106951346D01*
X139062001Y-106951346D01*
X139062729Y-106964792D01*
X139067062Y-107004685D01*
X139074228Y-107034826D01*
X139113600Y-107139850D01*
X139130469Y-107170660D01*
X139196453Y-107258703D01*
X139221297Y-107283547D01*
X139309340Y-107349531D01*
X139340150Y-107366400D01*
X139445178Y-107405773D01*
X139475309Y-107412938D01*
X139515214Y-107417273D01*
X139528650Y-107418000D01*
X140545473Y-107418000D01*
X140565931Y-107413931D01*
X140570000Y-107393473D01*
X140570000Y-105934527D01*
X140565931Y-105914069D01*
X140545473Y-105910000D01*
X139086528Y-105910000D01*
X139066070Y-105914069D01*
X139062001Y-105934527D01*
X139062001Y-106951346D01*
X130513678Y-106951346D01*
X130522354Y-106878051D01*
X130569827Y-106793285D01*
X130597451Y-106765661D01*
X130602523Y-106761329D01*
X130602526Y-106761326D01*
X130609969Y-106754969D01*
X130621959Y-106740931D01*
X130757828Y-106581849D01*
X130757830Y-106581846D01*
X130764176Y-106574416D01*
X130888240Y-106371963D01*
X130979105Y-106152594D01*
X131034535Y-105921711D01*
X131053165Y-105685000D01*
X131034535Y-105448289D01*
X130979105Y-105217406D01*
X130888240Y-104998037D01*
X130819260Y-104885473D01*
X139062000Y-104885473D01*
X139066069Y-104905931D01*
X139086527Y-104910000D01*
X140545473Y-104910000D01*
X140565931Y-104905931D01*
X140570000Y-104885473D01*
X140570000Y-103426528D01*
X140565931Y-103406070D01*
X140545473Y-103402001D01*
X139528654Y-103402001D01*
X139515208Y-103402729D01*
X139475315Y-103407062D01*
X139445174Y-103414228D01*
X139340150Y-103453600D01*
X139309340Y-103470469D01*
X139221297Y-103536453D01*
X139196453Y-103561297D01*
X139130469Y-103649340D01*
X139113600Y-103680150D01*
X139074227Y-103785178D01*
X139067062Y-103815309D01*
X139062727Y-103855214D01*
X139062000Y-103868650D01*
X139062000Y-104885473D01*
X130819260Y-104885473D01*
X130764176Y-104795584D01*
X130609969Y-104615031D01*
X130429416Y-104460824D01*
X130226963Y-104336760D01*
X130007594Y-104245895D01*
X129998086Y-104243612D01*
X129998082Y-104243611D01*
X129902291Y-104220614D01*
X129776711Y-104190465D01*
X129540000Y-104171835D01*
X129303289Y-104190465D01*
X129177709Y-104220614D01*
X129081918Y-104243611D01*
X129081914Y-104243612D01*
X129072406Y-104245895D01*
X128853037Y-104336760D01*
X128650584Y-104460824D01*
X128470031Y-104615031D01*
X128315824Y-104795584D01*
X128191760Y-104998037D01*
X128100895Y-105217406D01*
X128045465Y-105448289D01*
X128026835Y-105685000D01*
X128045465Y-105921711D01*
X128100895Y-106152594D01*
X128191760Y-106371963D01*
X128315824Y-106574416D01*
X128322170Y-106581846D01*
X128322172Y-106581849D01*
X128458041Y-106740931D01*
X128470031Y-106754969D01*
X128477474Y-106761326D01*
X128477477Y-106761329D01*
X128482549Y-106765661D01*
X128542696Y-106841960D01*
X128569067Y-106935467D01*
X128557646Y-107031949D01*
X128510173Y-107116715D01*
X128482549Y-107144339D01*
X128477477Y-107148671D01*
X128477474Y-107148674D01*
X128470031Y-107155031D01*
X128463674Y-107162474D01*
X128381487Y-107258703D01*
X128315824Y-107335584D01*
X128191760Y-107538037D01*
X128100895Y-107757406D01*
X128045465Y-107988289D01*
X128026835Y-108225000D01*
X128045465Y-108461711D01*
X128070469Y-108565862D01*
X128092035Y-108655688D01*
X128100895Y-108692594D01*
X128191760Y-108911963D01*
X128315824Y-109114416D01*
X128322170Y-109121846D01*
X128322172Y-109121849D01*
X128434093Y-109252891D01*
X128470031Y-109294969D01*
X128477474Y-109301326D01*
X128477477Y-109301329D01*
X128482549Y-109305661D01*
X128542696Y-109381960D01*
X128569067Y-109475467D01*
X128557646Y-109571949D01*
X128510173Y-109656715D01*
X128482549Y-109684339D01*
X128477477Y-109688671D01*
X128477474Y-109688674D01*
X128470031Y-109695031D01*
X128315824Y-109875584D01*
X128191760Y-110078037D01*
X128100895Y-110297406D01*
X128045465Y-110528289D01*
X128026835Y-110765000D01*
X128045465Y-111001711D01*
X128053339Y-111034509D01*
X128096712Y-111215169D01*
X128100895Y-111232594D01*
X128191760Y-111451963D01*
X128315824Y-111654416D01*
X128322170Y-111661846D01*
X128322172Y-111661849D01*
X128410879Y-111765711D01*
X128470031Y-111834969D01*
X128477474Y-111841326D01*
X128477477Y-111841329D01*
X128482549Y-111845661D01*
X128542696Y-111921960D01*
X128569067Y-112015467D01*
X128557646Y-112111949D01*
X128510173Y-112196715D01*
X128482549Y-112224339D01*
X128477477Y-112228671D01*
X128477474Y-112228674D01*
X128470031Y-112235031D01*
X128463674Y-112242474D01*
X128337829Y-112389820D01*
X128315824Y-112415584D01*
X128191760Y-112618037D01*
X128100895Y-112837406D01*
X128045465Y-113068289D01*
X128026835Y-113305000D01*
X128045465Y-113541711D01*
X128100895Y-113772594D01*
X128191760Y-113991963D01*
X128315824Y-114194416D01*
X128322170Y-114201846D01*
X128322172Y-114201849D01*
X128453686Y-114355832D01*
X128470031Y-114374969D01*
X128477474Y-114381326D01*
X128477477Y-114381329D01*
X128482549Y-114385661D01*
X128542696Y-114461960D01*
X128569067Y-114555467D01*
X128557646Y-114651949D01*
X128510173Y-114736715D01*
X128482549Y-114764339D01*
X128477477Y-114768671D01*
X128477474Y-114768674D01*
X128470031Y-114775031D01*
X128463674Y-114782474D01*
X128348135Y-114917753D01*
X128315824Y-114955584D01*
X128191760Y-115158037D01*
X128100895Y-115377406D01*
X128045465Y-115608289D01*
X128026835Y-115845000D01*
X128045465Y-116081711D01*
X128065948Y-116167028D01*
X128096539Y-116294449D01*
X128100895Y-116312594D01*
X128191760Y-116531963D01*
X128315824Y-116734416D01*
X128322170Y-116741846D01*
X128322172Y-116741849D01*
X128461901Y-116905450D01*
X128470031Y-116914969D01*
X128477474Y-116921326D01*
X128477477Y-116921329D01*
X128482549Y-116925661D01*
X128542696Y-117001960D01*
X128569067Y-117095467D01*
X128557646Y-117191949D01*
X128510173Y-117276715D01*
X128482549Y-117304339D01*
X128477477Y-117308671D01*
X128477474Y-117308674D01*
X128470031Y-117315031D01*
X128463674Y-117322474D01*
X128349985Y-117455587D01*
X128315824Y-117495584D01*
X128191760Y-117698037D01*
X128100895Y-117917406D01*
X128045465Y-118148289D01*
X128026835Y-118385000D01*
X128045465Y-118621711D01*
X128100895Y-118852594D01*
X128191760Y-119071963D01*
X128315824Y-119274416D01*
X128470031Y-119454969D01*
X128477474Y-119461326D01*
X128477477Y-119461329D01*
X128482549Y-119465661D01*
X128542696Y-119541960D01*
X128569067Y-119635467D01*
X128557646Y-119731949D01*
X128510173Y-119816715D01*
X128482549Y-119844339D01*
X128477477Y-119848671D01*
X128477474Y-119848674D01*
X128470031Y-119855031D01*
X128315824Y-120035584D01*
X128284100Y-120087353D01*
X128232613Y-120171371D01*
X128166664Y-120242714D01*
X128078433Y-120283388D01*
X128028131Y-120290145D01*
X127998042Y-120291091D01*
X127988939Y-120291377D01*
X127981121Y-120291500D01*
X127955144Y-120291500D01*
X127947366Y-120292482D01*
X127944861Y-120292640D01*
X127937059Y-120293007D01*
X127895111Y-120294326D01*
X127880065Y-120298697D01*
X127871677Y-120300026D01*
X127859968Y-120302451D01*
X127851741Y-120304563D01*
X127836203Y-120306526D01*
X127821642Y-120312291D01*
X127821638Y-120312292D01*
X127806789Y-120318172D01*
X127800485Y-120320667D01*
X127778312Y-120328259D01*
X127741407Y-120338982D01*
X127727918Y-120346960D01*
X127720132Y-120350329D01*
X127709390Y-120355591D01*
X127701952Y-120359680D01*
X127687383Y-120365448D01*
X127656298Y-120388032D01*
X127636715Y-120400896D01*
X127603638Y-120420458D01*
X127592565Y-120431531D01*
X127585874Y-120436721D01*
X127576744Y-120444518D01*
X127570562Y-120450324D01*
X127557893Y-120459528D01*
X127547911Y-120471594D01*
X127547910Y-120471595D01*
X127533409Y-120489124D01*
X127517621Y-120506475D01*
X125334553Y-122689542D01*
X125330503Y-122693227D01*
X125322982Y-122698000D01*
X125312264Y-122709413D01*
X125312261Y-122709416D01*
X125277697Y-122746224D01*
X125272253Y-122751842D01*
X125253865Y-122770230D01*
X125249076Y-122776405D01*
X125247387Y-122778320D01*
X125242120Y-122784110D01*
X125213414Y-122814679D01*
X125205868Y-122828405D01*
X125200891Y-122835255D01*
X125194286Y-122845311D01*
X125189985Y-122852583D01*
X125180386Y-122864959D01*
X125165128Y-122900219D01*
X125154810Y-122921279D01*
X125136305Y-122954940D01*
X125132409Y-122970113D01*
X125129294Y-122977981D01*
X125125409Y-122989327D01*
X125123042Y-122997475D01*
X125116819Y-123011855D01*
X125111211Y-123047261D01*
X125110810Y-123049792D01*
X125106054Y-123072757D01*
X125096500Y-123109970D01*
X125096500Y-123125635D01*
X125095437Y-123134049D01*
X125094497Y-123145989D01*
X125094230Y-123154472D01*
X125091780Y-123169943D01*
X125093254Y-123185537D01*
X125093254Y-123185539D01*
X125095395Y-123208185D01*
X125096500Y-123231618D01*
X125096500Y-129174455D01*
X125077546Y-129269743D01*
X125023570Y-129350525D01*
X124270525Y-130103570D01*
X124189743Y-130157546D01*
X124094455Y-130176500D01*
X113104255Y-130176500D01*
X113098784Y-130176242D01*
X113090091Y-130174299D01*
X113074435Y-130174791D01*
X113023974Y-130176377D01*
X113016152Y-130176500D01*
X112990144Y-130176500D01*
X112982388Y-130177480D01*
X112979832Y-130177641D01*
X112972016Y-130178010D01*
X112950758Y-130178678D01*
X112930110Y-130179327D01*
X112915063Y-130183698D01*
X112906686Y-130185025D01*
X112894951Y-130187455D01*
X112886742Y-130189563D01*
X112871203Y-130191526D01*
X112856641Y-130197292D01*
X112856632Y-130197294D01*
X112835488Y-130205666D01*
X112813291Y-130213266D01*
X112776406Y-130223982D01*
X112762920Y-130231958D01*
X112755155Y-130235318D01*
X112744371Y-130240600D01*
X112736946Y-130244682D01*
X112722383Y-130250448D01*
X112702902Y-130264602D01*
X112691314Y-130273021D01*
X112671713Y-130285897D01*
X112638637Y-130305458D01*
X112627562Y-130316533D01*
X112620876Y-130321719D01*
X112611747Y-130329516D01*
X112605564Y-130335322D01*
X112592893Y-130344528D01*
X112582911Y-130356594D01*
X112582910Y-130356595D01*
X112568414Y-130374118D01*
X112552626Y-130391469D01*
X110094553Y-132849542D01*
X110090503Y-132853227D01*
X110082982Y-132858000D01*
X110072264Y-132869413D01*
X110072261Y-132869416D01*
X110037697Y-132906224D01*
X110032253Y-132911842D01*
X110013865Y-132930230D01*
X110009076Y-132936405D01*
X110007387Y-132938320D01*
X110002120Y-132944110D01*
X109973414Y-132974679D01*
X109965868Y-132988405D01*
X109960891Y-132995255D01*
X109954286Y-133005311D01*
X109949985Y-133012583D01*
X109940386Y-133024959D01*
X109925128Y-133060219D01*
X109914810Y-133081279D01*
X109896305Y-133114940D01*
X109892409Y-133130113D01*
X109889294Y-133137981D01*
X109885409Y-133149327D01*
X109883042Y-133157475D01*
X109876819Y-133171855D01*
X109874368Y-133187330D01*
X109870810Y-133209792D01*
X109866054Y-133232757D01*
X109860396Y-133254795D01*
X109856500Y-133269970D01*
X109856500Y-133285635D01*
X109855437Y-133294049D01*
X109854497Y-133305989D01*
X109854230Y-133314472D01*
X109851780Y-133329943D01*
X109853254Y-133345537D01*
X109853254Y-133345539D01*
X109855395Y-133368185D01*
X109856500Y-133391618D01*
X109856500Y-137146576D01*
X109837546Y-137241864D01*
X109783570Y-137322646D01*
X109750321Y-137350544D01*
X109654609Y-137417563D01*
X109654603Y-137417568D01*
X109645700Y-137423802D01*
X109483802Y-137585700D01*
X109477572Y-137594598D01*
X109477569Y-137594601D01*
X109437586Y-137651703D01*
X109352477Y-137773251D01*
X109255716Y-137980757D01*
X109223045Y-138102687D01*
X109205653Y-138167595D01*
X109196457Y-138201913D01*
X109176502Y-138430000D01*
X109196457Y-138658087D01*
X109255716Y-138879243D01*
X109272236Y-138914670D01*
X109349159Y-139079634D01*
X109372251Y-139174005D01*
X109357471Y-139270029D01*
X109307069Y-139353088D01*
X109299583Y-139360909D01*
X109008566Y-139651926D01*
X108927788Y-139705899D01*
X108832500Y-139724853D01*
X108737212Y-139705899D01*
X108656430Y-139651923D01*
X108602454Y-139571141D01*
X108583500Y-139475853D01*
X108583500Y-137173424D01*
X108602454Y-137078136D01*
X108656430Y-136997354D01*
X108689679Y-136969456D01*
X108785391Y-136902437D01*
X108785397Y-136902432D01*
X108794300Y-136896198D01*
X108956198Y-136734300D01*
X109087523Y-136546749D01*
X109184284Y-136339243D01*
X109243543Y-136118087D01*
X109263498Y-135890000D01*
X109243543Y-135661913D01*
X109184284Y-135440757D01*
X109087523Y-135233251D01*
X108986287Y-135088671D01*
X108962431Y-135054601D01*
X108962428Y-135054598D01*
X108956198Y-135045700D01*
X108794300Y-134883802D01*
X108785402Y-134877572D01*
X108785399Y-134877569D01*
X108615652Y-134758711D01*
X108606749Y-134752477D01*
X108399243Y-134655716D01*
X108248973Y-134615451D01*
X108188593Y-134599272D01*
X108188592Y-134599272D01*
X108178087Y-134596457D01*
X108167253Y-134595509D01*
X108167252Y-134595509D01*
X107960836Y-134577450D01*
X107950000Y-134576502D01*
X107939164Y-134577450D01*
X107732748Y-134595509D01*
X107732747Y-134595509D01*
X107721913Y-134596457D01*
X107711408Y-134599272D01*
X107711407Y-134599272D01*
X107651027Y-134615451D01*
X107500757Y-134655716D01*
X107293251Y-134752477D01*
X107284348Y-134758711D01*
X107114601Y-134877569D01*
X107114598Y-134877572D01*
X107105700Y-134883802D01*
X106943802Y-135045700D01*
X106937572Y-135054598D01*
X106937569Y-135054601D01*
X106913713Y-135088671D01*
X106812477Y-135233251D01*
X106715716Y-135440757D01*
X106656457Y-135661913D01*
X106636502Y-135890000D01*
X106656457Y-136118087D01*
X106715716Y-136339243D01*
X106812477Y-136546749D01*
X106943802Y-136734300D01*
X107105700Y-136896198D01*
X107114603Y-136902432D01*
X107114609Y-136902437D01*
X107210321Y-136969456D01*
X107277505Y-137039637D01*
X107312717Y-137130187D01*
X107316500Y-137173424D01*
X107316500Y-140604455D01*
X107297546Y-140699743D01*
X107243570Y-140780525D01*
X105946386Y-142077709D01*
X105865604Y-142131685D01*
X105770316Y-142150639D01*
X105675028Y-142131685D01*
X105594246Y-142077709D01*
X105540270Y-141996927D01*
X105521316Y-141901639D01*
X105540270Y-141806352D01*
X105575360Y-141721637D01*
X105575363Y-141721629D01*
X105579105Y-141712594D01*
X105634535Y-141481711D01*
X105653165Y-141245000D01*
X105634535Y-141008289D01*
X105586919Y-140809954D01*
X105581389Y-140786918D01*
X105581388Y-140786914D01*
X105579105Y-140777406D01*
X105488240Y-140558037D01*
X105364176Y-140355584D01*
X105331689Y-140317546D01*
X105216326Y-140182474D01*
X105209969Y-140175031D01*
X105133465Y-140109690D01*
X105036849Y-140027172D01*
X105036846Y-140027170D01*
X105029416Y-140020824D01*
X104826963Y-139896760D01*
X104607594Y-139805895D01*
X104578754Y-139798971D01*
X104490526Y-139758297D01*
X104460815Y-139732922D01*
X103432893Y-138705000D01*
X104852861Y-138705000D01*
X104864448Y-138722341D01*
X105483939Y-139341832D01*
X105499960Y-139352537D01*
X105510666Y-139336514D01*
X105574885Y-139181476D01*
X105580912Y-139162927D01*
X105631755Y-138951151D01*
X105634808Y-138931872D01*
X105651895Y-138714759D01*
X105651895Y-138695241D01*
X105634808Y-138478128D01*
X105631755Y-138458849D01*
X105580912Y-138247073D01*
X105574885Y-138228524D01*
X105510666Y-138073486D01*
X105499960Y-138057463D01*
X105483939Y-138068168D01*
X104864448Y-138687659D01*
X104852861Y-138705000D01*
X103432893Y-138705000D01*
X102796061Y-138068168D01*
X102749662Y-138037166D01*
X102719159Y-138024530D01*
X102650461Y-137955830D01*
X102613283Y-137866069D01*
X102608500Y-137817497D01*
X102608500Y-137369530D01*
X102627454Y-137274242D01*
X102681430Y-137193460D01*
X102762212Y-137139484D01*
X102857500Y-137120530D01*
X102952788Y-137139484D01*
X103033570Y-137193460D01*
X103046841Y-137207817D01*
X103070031Y-137234969D01*
X103077474Y-137241326D01*
X103227582Y-137369530D01*
X103250584Y-137389176D01*
X103453037Y-137513240D01*
X103672406Y-137604105D01*
X103701246Y-137611029D01*
X103789474Y-137651703D01*
X103819185Y-137677078D01*
X104122659Y-137980552D01*
X104140000Y-137992139D01*
X104157341Y-137980552D01*
X104460815Y-137677078D01*
X104541597Y-137623102D01*
X104578752Y-137611029D01*
X104607594Y-137604105D01*
X104826963Y-137513240D01*
X105029416Y-137389176D01*
X105052419Y-137369530D01*
X105202526Y-137241326D01*
X105209969Y-137234969D01*
X105248536Y-137189813D01*
X105357828Y-137061849D01*
X105357830Y-137061846D01*
X105364176Y-137054416D01*
X105488240Y-136851963D01*
X105579105Y-136632594D01*
X105582124Y-136620022D01*
X105629412Y-136423049D01*
X105634535Y-136401711D01*
X105653165Y-136165000D01*
X105634535Y-135928289D01*
X105579105Y-135697406D01*
X105488240Y-135478037D01*
X105364176Y-135275584D01*
X105336436Y-135243104D01*
X105216326Y-135102474D01*
X105209969Y-135095031D01*
X105202526Y-135088674D01*
X105202523Y-135088671D01*
X105197451Y-135084339D01*
X105137304Y-135008040D01*
X105110933Y-134914533D01*
X105122354Y-134818051D01*
X105169827Y-134733285D01*
X105197451Y-134705661D01*
X105202523Y-134701329D01*
X105202526Y-134701326D01*
X105209969Y-134694969D01*
X105216326Y-134687526D01*
X105357828Y-134521849D01*
X105357830Y-134521846D01*
X105364176Y-134514416D01*
X105488240Y-134311963D01*
X105579105Y-134092594D01*
X105584217Y-134071304D01*
X105611298Y-133958500D01*
X105634535Y-133861711D01*
X105653165Y-133625000D01*
X105634535Y-133388289D01*
X105597195Y-133232757D01*
X105581389Y-133166918D01*
X105581388Y-133166914D01*
X105579105Y-133157406D01*
X105488240Y-132938037D01*
X105364176Y-132735584D01*
X105350292Y-132719327D01*
X105216326Y-132562474D01*
X105209969Y-132555031D01*
X105202526Y-132548674D01*
X105202523Y-132548671D01*
X105197451Y-132544339D01*
X105137304Y-132468040D01*
X105110933Y-132374533D01*
X105122354Y-132278051D01*
X105169827Y-132193285D01*
X105197451Y-132165661D01*
X105202523Y-132161329D01*
X105202526Y-132161326D01*
X105209969Y-132154969D01*
X105273999Y-132080000D01*
X105357828Y-131981849D01*
X105357830Y-131981846D01*
X105364176Y-131974416D01*
X105488240Y-131771963D01*
X105579105Y-131552594D01*
X105593177Y-131493982D01*
X105605975Y-131440673D01*
X105634535Y-131321711D01*
X105653165Y-131085000D01*
X105634535Y-130848289D01*
X105591746Y-130670059D01*
X105581389Y-130626918D01*
X105581388Y-130626914D01*
X105579105Y-130617406D01*
X105488240Y-130398037D01*
X105364176Y-130195584D01*
X105357234Y-130187455D01*
X105216326Y-130022474D01*
X105209969Y-130015031D01*
X105202526Y-130008674D01*
X105202523Y-130008671D01*
X105197451Y-130004339D01*
X105137304Y-129928040D01*
X105110933Y-129834533D01*
X105122354Y-129738051D01*
X105169827Y-129653285D01*
X105197451Y-129625661D01*
X105202523Y-129621329D01*
X105202526Y-129621326D01*
X105209969Y-129614969D01*
X105216326Y-129607526D01*
X105357828Y-129441849D01*
X105357830Y-129441846D01*
X105364176Y-129434416D01*
X105448142Y-129297397D01*
X105514091Y-129226054D01*
X105602322Y-129185380D01*
X105660449Y-129178500D01*
X106904862Y-129178500D01*
X107000150Y-129197454D01*
X107080932Y-129251430D01*
X107105700Y-129276198D01*
X107114598Y-129282428D01*
X107114601Y-129282431D01*
X107225714Y-129360233D01*
X107293251Y-129407523D01*
X107500757Y-129504284D01*
X107721913Y-129563543D01*
X107732747Y-129564491D01*
X107732748Y-129564491D01*
X107939164Y-129582550D01*
X107950000Y-129583498D01*
X107960836Y-129582550D01*
X108167252Y-129564491D01*
X108167253Y-129564491D01*
X108178087Y-129563543D01*
X108399243Y-129504284D01*
X108606749Y-129407523D01*
X108674286Y-129360233D01*
X108785399Y-129282431D01*
X108785402Y-129282428D01*
X108794300Y-129276198D01*
X108956198Y-129114300D01*
X108970081Y-129094474D01*
X109081289Y-128935652D01*
X109087523Y-128926749D01*
X109184284Y-128719243D01*
X109243543Y-128498087D01*
X109263498Y-128270000D01*
X109255676Y-128180595D01*
X109244491Y-128052748D01*
X109244491Y-128052747D01*
X109243543Y-128041913D01*
X109224859Y-127972182D01*
X109191070Y-127846082D01*
X109184284Y-127820757D01*
X109087523Y-127613251D01*
X108986287Y-127468671D01*
X108962431Y-127434601D01*
X108962428Y-127434598D01*
X108956198Y-127425700D01*
X108794300Y-127263802D01*
X108785402Y-127257572D01*
X108785399Y-127257569D01*
X108615652Y-127138711D01*
X108606749Y-127132477D01*
X108565344Y-127113170D01*
X108486996Y-127055722D01*
X108436595Y-126972663D01*
X108421815Y-126876639D01*
X108444907Y-126782268D01*
X108502356Y-126703918D01*
X108585415Y-126653517D01*
X108670578Y-126638500D01*
X110399456Y-126638500D01*
X110494744Y-126657454D01*
X110575526Y-126711430D01*
X111671035Y-127806939D01*
X111725011Y-127887721D01*
X111743965Y-127983009D01*
X111740182Y-128026249D01*
X111739273Y-128031403D01*
X111736457Y-128041913D01*
X111716502Y-128270000D01*
X111736457Y-128498087D01*
X111795716Y-128719243D01*
X111892477Y-128926749D01*
X111898711Y-128935652D01*
X112009920Y-129094474D01*
X112023802Y-129114300D01*
X112185700Y-129276198D01*
X112194598Y-129282428D01*
X112194601Y-129282431D01*
X112305714Y-129360233D01*
X112373251Y-129407523D01*
X112580757Y-129504284D01*
X112801913Y-129563543D01*
X112812747Y-129564491D01*
X112812748Y-129564491D01*
X113019164Y-129582550D01*
X113030000Y-129583498D01*
X113040836Y-129582550D01*
X113247252Y-129564491D01*
X113247253Y-129564491D01*
X113258087Y-129563543D01*
X113479243Y-129504284D01*
X113686749Y-129407523D01*
X113754286Y-129360233D01*
X113865399Y-129282431D01*
X113865402Y-129282428D01*
X113874300Y-129276198D01*
X114036198Y-129114300D01*
X114050081Y-129094474D01*
X114161289Y-128935652D01*
X114167523Y-128926749D01*
X114264284Y-128719243D01*
X114323543Y-128498087D01*
X114343498Y-128270000D01*
X114335676Y-128180595D01*
X114324491Y-128052748D01*
X114324491Y-128052747D01*
X114323543Y-128041913D01*
X114304859Y-127972182D01*
X114271070Y-127846082D01*
X114264284Y-127820757D01*
X114167523Y-127613251D01*
X114066287Y-127468671D01*
X114042431Y-127434601D01*
X114042428Y-127434598D01*
X114036198Y-127425700D01*
X113874300Y-127263802D01*
X113865402Y-127257572D01*
X113865399Y-127257569D01*
X113695652Y-127138711D01*
X113686749Y-127132477D01*
X113479243Y-127035716D01*
X113328973Y-126995451D01*
X113268593Y-126979272D01*
X113268592Y-126979272D01*
X113258087Y-126976457D01*
X113247253Y-126975509D01*
X113247252Y-126975509D01*
X113040836Y-126957450D01*
X113030000Y-126956502D01*
X112801913Y-126976457D01*
X112791403Y-126979273D01*
X112786249Y-126980182D01*
X112689117Y-126978063D01*
X112600190Y-126938935D01*
X112566939Y-126911035D01*
X111963881Y-126307976D01*
X111265458Y-125609553D01*
X111261773Y-125605503D01*
X111257000Y-125597982D01*
X111245587Y-125587264D01*
X111245584Y-125587261D01*
X111208776Y-125552697D01*
X111203158Y-125547253D01*
X111184770Y-125528865D01*
X111178595Y-125524076D01*
X111176680Y-125522387D01*
X111170890Y-125517120D01*
X111151737Y-125499134D01*
X111151736Y-125499133D01*
X111140321Y-125488414D01*
X111126595Y-125480868D01*
X111119745Y-125475891D01*
X111109689Y-125469286D01*
X111102417Y-125464985D01*
X111090041Y-125455386D01*
X111054781Y-125440128D01*
X111033721Y-125429810D01*
X111013788Y-125418852D01*
X111000060Y-125411305D01*
X110984887Y-125407409D01*
X110977019Y-125404294D01*
X110965673Y-125400409D01*
X110957525Y-125398042D01*
X110943145Y-125391819D01*
X110905206Y-125385810D01*
X110882243Y-125381054D01*
X110860205Y-125375396D01*
X110860204Y-125375396D01*
X110845030Y-125371500D01*
X110829365Y-125371500D01*
X110820951Y-125370437D01*
X110809011Y-125369497D01*
X110800528Y-125369230D01*
X110785057Y-125366780D01*
X110769463Y-125368254D01*
X110769461Y-125368254D01*
X110746815Y-125370395D01*
X110723382Y-125371500D01*
X105660449Y-125371500D01*
X105565161Y-125352546D01*
X105484379Y-125298570D01*
X105448142Y-125252603D01*
X105381868Y-125144455D01*
X105364176Y-125115584D01*
X105209969Y-124935031D01*
X105202526Y-124928674D01*
X105202523Y-124928671D01*
X105197451Y-124924339D01*
X105137304Y-124848040D01*
X105110933Y-124754533D01*
X105122354Y-124658051D01*
X105169827Y-124573285D01*
X105197451Y-124545661D01*
X105202523Y-124541329D01*
X105202526Y-124541326D01*
X105209969Y-124534969D01*
X105221887Y-124521015D01*
X105357828Y-124361849D01*
X105357830Y-124361846D01*
X105364176Y-124354416D01*
X105448142Y-124217397D01*
X105514091Y-124146054D01*
X105602322Y-124105380D01*
X105660449Y-124098500D01*
X112939456Y-124098500D01*
X113034744Y-124117454D01*
X113115526Y-124171430D01*
X116751035Y-127806939D01*
X116805011Y-127887721D01*
X116823965Y-127983009D01*
X116820182Y-128026249D01*
X116819273Y-128031403D01*
X116816457Y-128041913D01*
X116796502Y-128270000D01*
X116816457Y-128498087D01*
X116875716Y-128719243D01*
X116972477Y-128926749D01*
X116978711Y-128935652D01*
X117089920Y-129094474D01*
X117103802Y-129114300D01*
X117265700Y-129276198D01*
X117274598Y-129282428D01*
X117274601Y-129282431D01*
X117385714Y-129360233D01*
X117453251Y-129407523D01*
X117660757Y-129504284D01*
X117881913Y-129563543D01*
X117892747Y-129564491D01*
X117892748Y-129564491D01*
X118099164Y-129582550D01*
X118110000Y-129583498D01*
X118120836Y-129582550D01*
X118327252Y-129564491D01*
X118327253Y-129564491D01*
X118338087Y-129563543D01*
X118559243Y-129504284D01*
X118766749Y-129407523D01*
X118834286Y-129360233D01*
X118945399Y-129282431D01*
X118945402Y-129282428D01*
X118954300Y-129276198D01*
X119116198Y-129114300D01*
X119130081Y-129094474D01*
X119241289Y-128935652D01*
X119247523Y-128926749D01*
X119344284Y-128719243D01*
X119403543Y-128498087D01*
X119423498Y-128270000D01*
X119415676Y-128180595D01*
X119404491Y-128052748D01*
X119404491Y-128052747D01*
X119403543Y-128041913D01*
X119384859Y-127972182D01*
X119351070Y-127846082D01*
X119344284Y-127820757D01*
X119247523Y-127613251D01*
X119146287Y-127468671D01*
X119122431Y-127434601D01*
X119122428Y-127434598D01*
X119116198Y-127425700D01*
X118954300Y-127263802D01*
X118945402Y-127257572D01*
X118945399Y-127257569D01*
X118775652Y-127138711D01*
X118766749Y-127132477D01*
X118559243Y-127035716D01*
X118408973Y-126995451D01*
X118348593Y-126979272D01*
X118348592Y-126979272D01*
X118338087Y-126976457D01*
X118327253Y-126975509D01*
X118327252Y-126975509D01*
X118120836Y-126957450D01*
X118110000Y-126956502D01*
X117881913Y-126976457D01*
X117871399Y-126979274D01*
X117866251Y-126980182D01*
X117769119Y-126978063D01*
X117680192Y-126938936D01*
X117646940Y-126911035D01*
X113805458Y-123069553D01*
X113801773Y-123065503D01*
X113797000Y-123057982D01*
X113785587Y-123047264D01*
X113785584Y-123047261D01*
X113748776Y-123012697D01*
X113743158Y-123007253D01*
X113724770Y-122988865D01*
X113718595Y-122984076D01*
X113716680Y-122982387D01*
X113710890Y-122977120D01*
X113691737Y-122959134D01*
X113691736Y-122959133D01*
X113680321Y-122948414D01*
X113666595Y-122940868D01*
X113659745Y-122935891D01*
X113649689Y-122929286D01*
X113642417Y-122924985D01*
X113630041Y-122915386D01*
X113594781Y-122900128D01*
X113573721Y-122889810D01*
X113553788Y-122878852D01*
X113540060Y-122871305D01*
X113524887Y-122867409D01*
X113517019Y-122864294D01*
X113505673Y-122860409D01*
X113497525Y-122858042D01*
X113483145Y-122851819D01*
X113445206Y-122845810D01*
X113422243Y-122841054D01*
X113400205Y-122835396D01*
X113400204Y-122835396D01*
X113385030Y-122831500D01*
X113369365Y-122831500D01*
X113360951Y-122830437D01*
X113349011Y-122829497D01*
X113340528Y-122829230D01*
X113325057Y-122826780D01*
X113309463Y-122828254D01*
X113309461Y-122828254D01*
X113286815Y-122830395D01*
X113263382Y-122831500D01*
X105660449Y-122831500D01*
X105565161Y-122812546D01*
X105484379Y-122758570D01*
X105448142Y-122712603D01*
X105430075Y-122683120D01*
X105364176Y-122575584D01*
X105338772Y-122545839D01*
X105216326Y-122402474D01*
X105209969Y-122395031D01*
X105202526Y-122388674D01*
X105202523Y-122388671D01*
X105197451Y-122384339D01*
X105137304Y-122308040D01*
X105110933Y-122214533D01*
X105122354Y-122118051D01*
X105169827Y-122033285D01*
X105197451Y-122005661D01*
X105202523Y-122001329D01*
X105202526Y-122001326D01*
X105209969Y-121994969D01*
X105364176Y-121814416D01*
X105448142Y-121677397D01*
X105514091Y-121606054D01*
X105602322Y-121565380D01*
X105660449Y-121558500D01*
X115479456Y-121558500D01*
X115574744Y-121577454D01*
X115655526Y-121631430D01*
X121831035Y-127806939D01*
X121885011Y-127887721D01*
X121903965Y-127983009D01*
X121900182Y-128026249D01*
X121899273Y-128031403D01*
X121896457Y-128041913D01*
X121876502Y-128270000D01*
X121896457Y-128498087D01*
X121955716Y-128719243D01*
X122052477Y-128926749D01*
X122058711Y-128935652D01*
X122169920Y-129094474D01*
X122183802Y-129114300D01*
X122345700Y-129276198D01*
X122354598Y-129282428D01*
X122354601Y-129282431D01*
X122465714Y-129360233D01*
X122533251Y-129407523D01*
X122740757Y-129504284D01*
X122961913Y-129563543D01*
X122972747Y-129564491D01*
X122972748Y-129564491D01*
X123179164Y-129582550D01*
X123190000Y-129583498D01*
X123200836Y-129582550D01*
X123407252Y-129564491D01*
X123407253Y-129564491D01*
X123418087Y-129563543D01*
X123639243Y-129504284D01*
X123846749Y-129407523D01*
X123914286Y-129360233D01*
X124025399Y-129282431D01*
X124025402Y-129282428D01*
X124034300Y-129276198D01*
X124196198Y-129114300D01*
X124210081Y-129094474D01*
X124321289Y-128935652D01*
X124327523Y-128926749D01*
X124424284Y-128719243D01*
X124483543Y-128498087D01*
X124503498Y-128270000D01*
X124495676Y-128180595D01*
X124484491Y-128052748D01*
X124484491Y-128052747D01*
X124483543Y-128041913D01*
X124464859Y-127972182D01*
X124431070Y-127846082D01*
X124424284Y-127820757D01*
X124327523Y-127613251D01*
X124226287Y-127468671D01*
X124202431Y-127434601D01*
X124202428Y-127434598D01*
X124196198Y-127425700D01*
X124034300Y-127263802D01*
X124025402Y-127257572D01*
X124025399Y-127257569D01*
X123855652Y-127138711D01*
X123846749Y-127132477D01*
X123639243Y-127035716D01*
X123488973Y-126995451D01*
X123428593Y-126979272D01*
X123428592Y-126979272D01*
X123418087Y-126976457D01*
X123407253Y-126975509D01*
X123407252Y-126975509D01*
X123200836Y-126957450D01*
X123190000Y-126956502D01*
X122961913Y-126976457D01*
X122951403Y-126979273D01*
X122946249Y-126980182D01*
X122849117Y-126978063D01*
X122760190Y-126938935D01*
X122726939Y-126911035D01*
X119572494Y-123756589D01*
X116345458Y-120529553D01*
X116341773Y-120525503D01*
X116337000Y-120517982D01*
X116325587Y-120507264D01*
X116325584Y-120507261D01*
X116288776Y-120472697D01*
X116283158Y-120467253D01*
X116264770Y-120448865D01*
X116258595Y-120444076D01*
X116256680Y-120442387D01*
X116250890Y-120437120D01*
X116231737Y-120419134D01*
X116231736Y-120419133D01*
X116220321Y-120408414D01*
X116206595Y-120400868D01*
X116199745Y-120395891D01*
X116189689Y-120389286D01*
X116182417Y-120384985D01*
X116170041Y-120375386D01*
X116134781Y-120360128D01*
X116113721Y-120349810D01*
X116101191Y-120342922D01*
X116080060Y-120331305D01*
X116064887Y-120327409D01*
X116057019Y-120324294D01*
X116045673Y-120320409D01*
X116037525Y-120318042D01*
X116023145Y-120311819D01*
X115985206Y-120305810D01*
X115962243Y-120301054D01*
X115940205Y-120295396D01*
X115940204Y-120295396D01*
X115925030Y-120291500D01*
X115909365Y-120291500D01*
X115900951Y-120290437D01*
X115889011Y-120289497D01*
X115880528Y-120289230D01*
X115865057Y-120286780D01*
X115849463Y-120288254D01*
X115849461Y-120288254D01*
X115826815Y-120290395D01*
X115803382Y-120291500D01*
X105660449Y-120291500D01*
X105565161Y-120272546D01*
X105484379Y-120218570D01*
X105448142Y-120172603D01*
X105395900Y-120087353D01*
X105364176Y-120035584D01*
X105209969Y-119855031D01*
X105202526Y-119848674D01*
X105202523Y-119848671D01*
X105197451Y-119844339D01*
X105137304Y-119768040D01*
X105110933Y-119674533D01*
X105122354Y-119578051D01*
X105169827Y-119493285D01*
X105197451Y-119465661D01*
X105202523Y-119461329D01*
X105202526Y-119461326D01*
X105209969Y-119454969D01*
X105364176Y-119274416D01*
X105488240Y-119071963D01*
X105579105Y-118852594D01*
X105634535Y-118621711D01*
X105653165Y-118385000D01*
X105634535Y-118148289D01*
X105579105Y-117917406D01*
X105488240Y-117698037D01*
X105364176Y-117495584D01*
X105330016Y-117455587D01*
X105216326Y-117322474D01*
X105209969Y-117315031D01*
X105202526Y-117308674D01*
X105202523Y-117308671D01*
X105197451Y-117304339D01*
X105137304Y-117228040D01*
X105110933Y-117134533D01*
X105122354Y-117038051D01*
X105169827Y-116953285D01*
X105197451Y-116925661D01*
X105202523Y-116921329D01*
X105202526Y-116921326D01*
X105209969Y-116914969D01*
X105218099Y-116905450D01*
X105357828Y-116741849D01*
X105357830Y-116741846D01*
X105364176Y-116734416D01*
X105488240Y-116531963D01*
X105579105Y-116312594D01*
X105583462Y-116294449D01*
X105614052Y-116167028D01*
X105634535Y-116081711D01*
X105653165Y-115845000D01*
X105634535Y-115608289D01*
X105579105Y-115377406D01*
X105488240Y-115158037D01*
X105364176Y-114955584D01*
X105331866Y-114917753D01*
X105216326Y-114782474D01*
X105209969Y-114775031D01*
X105202526Y-114768674D01*
X105202523Y-114768671D01*
X105197451Y-114764339D01*
X105137304Y-114688040D01*
X105110933Y-114594533D01*
X105122354Y-114498051D01*
X105169827Y-114413285D01*
X105197451Y-114385661D01*
X105202523Y-114381329D01*
X105202526Y-114381326D01*
X105209969Y-114374969D01*
X105226314Y-114355832D01*
X105357828Y-114201849D01*
X105357830Y-114201846D01*
X105364176Y-114194416D01*
X105488240Y-113991963D01*
X105579105Y-113772594D01*
X105634535Y-113541711D01*
X105653165Y-113305000D01*
X105634535Y-113068289D01*
X105579105Y-112837406D01*
X105488240Y-112618037D01*
X105364176Y-112415584D01*
X105342172Y-112389820D01*
X105216326Y-112242474D01*
X105209969Y-112235031D01*
X105202526Y-112228674D01*
X105202523Y-112228671D01*
X105197451Y-112224339D01*
X105137304Y-112148040D01*
X105110933Y-112054533D01*
X105122354Y-111958051D01*
X105169827Y-111873285D01*
X105197451Y-111845661D01*
X105202523Y-111841329D01*
X105202526Y-111841326D01*
X105209969Y-111834969D01*
X105269121Y-111765711D01*
X105357828Y-111661849D01*
X105357830Y-111661846D01*
X105364176Y-111654416D01*
X105488240Y-111451963D01*
X105579105Y-111232594D01*
X105583289Y-111215169D01*
X105626661Y-111034509D01*
X105634535Y-111001711D01*
X105653165Y-110765000D01*
X105634535Y-110528289D01*
X105579105Y-110297406D01*
X105488240Y-110078037D01*
X105364176Y-109875584D01*
X105209969Y-109695031D01*
X105202526Y-109688674D01*
X105202523Y-109688671D01*
X105197451Y-109684339D01*
X105137304Y-109608040D01*
X105110933Y-109514533D01*
X105122354Y-109418051D01*
X105169827Y-109333285D01*
X105197451Y-109305661D01*
X105202523Y-109301329D01*
X105202526Y-109301326D01*
X105209969Y-109294969D01*
X105245907Y-109252891D01*
X105357828Y-109121849D01*
X105357830Y-109121846D01*
X105364176Y-109114416D01*
X105488240Y-108911963D01*
X105579105Y-108692594D01*
X105587966Y-108655688D01*
X105609531Y-108565862D01*
X105634535Y-108461711D01*
X105653165Y-108225000D01*
X105634535Y-107988289D01*
X105579105Y-107757406D01*
X105488240Y-107538037D01*
X105364176Y-107335584D01*
X105298514Y-107258703D01*
X105216326Y-107162474D01*
X105209969Y-107155031D01*
X105202526Y-107148674D01*
X105202523Y-107148671D01*
X105197451Y-107144339D01*
X105137304Y-107068040D01*
X105110933Y-106974533D01*
X105122354Y-106878051D01*
X105169827Y-106793285D01*
X105197451Y-106765661D01*
X105202523Y-106761329D01*
X105202526Y-106761326D01*
X105209969Y-106754969D01*
X105221959Y-106740931D01*
X105357828Y-106581849D01*
X105357830Y-106581846D01*
X105364176Y-106574416D01*
X105488240Y-106371963D01*
X105579105Y-106152594D01*
X105634535Y-105921711D01*
X105653165Y-105685000D01*
X105634535Y-105448289D01*
X105579105Y-105217406D01*
X105488240Y-104998037D01*
X105364176Y-104795584D01*
X105209969Y-104615031D01*
X105029416Y-104460824D01*
X104826963Y-104336760D01*
X104607594Y-104245895D01*
X104598086Y-104243612D01*
X104598082Y-104243611D01*
X104502291Y-104220614D01*
X104376711Y-104190465D01*
X104140000Y-104171835D01*
X103903289Y-104190465D01*
X103777709Y-104220614D01*
X103681918Y-104243611D01*
X103681914Y-104243612D01*
X103672406Y-104245895D01*
X103453037Y-104336760D01*
X103250584Y-104460824D01*
X103070031Y-104615031D01*
X102915824Y-104795584D01*
X102791760Y-104998037D01*
X102700895Y-105217406D01*
X102645465Y-105448289D01*
X102626835Y-105685000D01*
X102645465Y-105921711D01*
X102700895Y-106152594D01*
X102791760Y-106371963D01*
X102915824Y-106574416D01*
X102922170Y-106581846D01*
X102922172Y-106581849D01*
X103058041Y-106740931D01*
X103070031Y-106754969D01*
X103077474Y-106761326D01*
X103077477Y-106761329D01*
X103082549Y-106765661D01*
X103142696Y-106841960D01*
X103169067Y-106935467D01*
X103157646Y-107031949D01*
X103110173Y-107116715D01*
X103082549Y-107144339D01*
X103077477Y-107148671D01*
X103077474Y-107148674D01*
X103070031Y-107155031D01*
X103063674Y-107162474D01*
X102981487Y-107258703D01*
X102915824Y-107335584D01*
X102791760Y-107538037D01*
X102700895Y-107757406D01*
X102645465Y-107988289D01*
X102626835Y-108225000D01*
X102645465Y-108461711D01*
X102670469Y-108565862D01*
X102692035Y-108655688D01*
X102700895Y-108692594D01*
X102791760Y-108911963D01*
X102915824Y-109114416D01*
X102922170Y-109121846D01*
X102922172Y-109121849D01*
X103034093Y-109252891D01*
X103070031Y-109294969D01*
X103077474Y-109301326D01*
X103077477Y-109301329D01*
X103082549Y-109305661D01*
X103142696Y-109381960D01*
X103169067Y-109475467D01*
X103157646Y-109571949D01*
X103110173Y-109656715D01*
X103082549Y-109684339D01*
X103077477Y-109688671D01*
X103077474Y-109688674D01*
X103070031Y-109695031D01*
X102915824Y-109875584D01*
X102791760Y-110078037D01*
X102700895Y-110297406D01*
X102645465Y-110528289D01*
X102626835Y-110765000D01*
X102645465Y-111001711D01*
X102653339Y-111034509D01*
X102696712Y-111215169D01*
X102700895Y-111232594D01*
X102791760Y-111451963D01*
X102915824Y-111654416D01*
X102922170Y-111661846D01*
X102922172Y-111661849D01*
X103010879Y-111765711D01*
X103070031Y-111834969D01*
X103077474Y-111841326D01*
X103077477Y-111841329D01*
X103082549Y-111845661D01*
X103142696Y-111921960D01*
X103169067Y-112015467D01*
X103157646Y-112111949D01*
X103110173Y-112196715D01*
X103082549Y-112224339D01*
X103077477Y-112228671D01*
X103077474Y-112228674D01*
X103070031Y-112235031D01*
X103063674Y-112242474D01*
X102937829Y-112389820D01*
X102915824Y-112415584D01*
X102791760Y-112618037D01*
X102700895Y-112837406D01*
X102645465Y-113068289D01*
X102626835Y-113305000D01*
X102645465Y-113541711D01*
X102700895Y-113772594D01*
X102791760Y-113991963D01*
X102915824Y-114194416D01*
X102922170Y-114201846D01*
X102922172Y-114201849D01*
X103053686Y-114355832D01*
X103070031Y-114374969D01*
X103077474Y-114381326D01*
X103077477Y-114381329D01*
X103082549Y-114385661D01*
X103142696Y-114461960D01*
X103169067Y-114555467D01*
X103157646Y-114651949D01*
X103110173Y-114736715D01*
X103082549Y-114764339D01*
X103077477Y-114768671D01*
X103077474Y-114768674D01*
X103070031Y-114775031D01*
X103063674Y-114782474D01*
X102948135Y-114917753D01*
X102915824Y-114955584D01*
X102791760Y-115158037D01*
X102700895Y-115377406D01*
X102645465Y-115608289D01*
X102626835Y-115845000D01*
X102626657Y-115844986D01*
X102608649Y-115935517D01*
X102554673Y-116016299D01*
X102473891Y-116070275D01*
X102378603Y-116089229D01*
X102283315Y-116070275D01*
X102202533Y-116016299D01*
X100919231Y-114732997D01*
X100901253Y-114712960D01*
X100881709Y-114688652D01*
X100867032Y-114676336D01*
X100854108Y-114665492D01*
X100842137Y-114655447D01*
X100838566Y-114652332D01*
X100835602Y-114649368D01*
X100802887Y-114622495D01*
X100800944Y-114620881D01*
X100738870Y-114568795D01*
X100738865Y-114568791D01*
X100730203Y-114561523D01*
X100725533Y-114558955D01*
X100721416Y-114555574D01*
X100640099Y-114511973D01*
X100637839Y-114510745D01*
X100566806Y-114471694D01*
X100566787Y-114471685D01*
X100556890Y-114466244D01*
X100551808Y-114464632D01*
X100547114Y-114462115D01*
X100536313Y-114458813D01*
X100536308Y-114458811D01*
X100458889Y-114435142D01*
X100456398Y-114434366D01*
X100379150Y-114409861D01*
X100379144Y-114409859D01*
X100368371Y-114406442D01*
X100363075Y-114405848D01*
X100357979Y-114404290D01*
X100346730Y-114403147D01*
X100346728Y-114403147D01*
X100266088Y-114394955D01*
X100263556Y-114394685D01*
X100214450Y-114389177D01*
X100210220Y-114389177D01*
X100205684Y-114388820D01*
X100178256Y-114386034D01*
X100173325Y-114385533D01*
X100173324Y-114385533D01*
X100161215Y-114384303D01*
X100129769Y-114387276D01*
X100121343Y-114388072D01*
X100097910Y-114389177D01*
X98232490Y-114389177D01*
X98137202Y-114370223D01*
X98056420Y-114316247D01*
X97999335Y-114227582D01*
X97976842Y-114167582D01*
X97976841Y-114167581D01*
X97970615Y-114150972D01*
X97883261Y-114034416D01*
X97822707Y-113989033D01*
X97780898Y-113957699D01*
X97766705Y-113947062D01*
X97630316Y-113895932D01*
X97614802Y-113894247D01*
X97614799Y-113894246D01*
X97574831Y-113889904D01*
X97574822Y-113889903D01*
X97568134Y-113889177D01*
X95471866Y-113889177D01*
X95465178Y-113889903D01*
X95465169Y-113889904D01*
X95425201Y-113894246D01*
X95425198Y-113894247D01*
X95409684Y-113895932D01*
X95395068Y-113901411D01*
X95395069Y-113901411D01*
X95324906Y-113927714D01*
X95229028Y-113943415D01*
X95134440Y-113921230D01*
X95055542Y-113864536D01*
X95004345Y-113781965D01*
X94988500Y-113694559D01*
X94988500Y-111757637D01*
X95872463Y-111757637D01*
X95888486Y-111768343D01*
X96043524Y-111832562D01*
X96062073Y-111838589D01*
X96273849Y-111889432D01*
X96293128Y-111892485D01*
X96510241Y-111909572D01*
X96529759Y-111909572D01*
X96746872Y-111892485D01*
X96766151Y-111889432D01*
X96977927Y-111838589D01*
X96996476Y-111832562D01*
X97151514Y-111768343D01*
X97167537Y-111757637D01*
X97156832Y-111741616D01*
X96537341Y-111122125D01*
X96520000Y-111110538D01*
X96502659Y-111122125D01*
X95883168Y-111741616D01*
X95872463Y-111757637D01*
X94988500Y-111757637D01*
X94988500Y-111285180D01*
X95007454Y-111189892D01*
X95061430Y-111109110D01*
X95142212Y-111055134D01*
X95147672Y-111053478D01*
X95176061Y-111034509D01*
X95795552Y-110415018D01*
X95807139Y-110397677D01*
X97232861Y-110397677D01*
X97244448Y-110415018D01*
X97863939Y-111034509D01*
X97879960Y-111045214D01*
X97890666Y-111029191D01*
X97954885Y-110874153D01*
X97960912Y-110855604D01*
X98011755Y-110643828D01*
X98014808Y-110624549D01*
X98031895Y-110407436D01*
X98031895Y-110387918D01*
X98014808Y-110170805D01*
X98011755Y-110151526D01*
X97960912Y-109939750D01*
X97954885Y-109921201D01*
X97890666Y-109766163D01*
X97879960Y-109750140D01*
X97863939Y-109760845D01*
X97244448Y-110380336D01*
X97232861Y-110397677D01*
X95807139Y-110397677D01*
X95795552Y-110380336D01*
X95176061Y-109760845D01*
X95129662Y-109729843D01*
X95099159Y-109717207D01*
X95030461Y-109648507D01*
X94993283Y-109558746D01*
X94988500Y-109510174D01*
X94988500Y-109037717D01*
X95872463Y-109037717D01*
X95883168Y-109053738D01*
X96502659Y-109673229D01*
X96520000Y-109684816D01*
X96537341Y-109673229D01*
X97156832Y-109053738D01*
X97167537Y-109037717D01*
X97151514Y-109027011D01*
X96996476Y-108962792D01*
X96977927Y-108956765D01*
X96766151Y-108905922D01*
X96746872Y-108902869D01*
X96529759Y-108885782D01*
X96510241Y-108885782D01*
X96293128Y-108902869D01*
X96273849Y-108905922D01*
X96062073Y-108956765D01*
X96043524Y-108962792D01*
X95888486Y-109027011D01*
X95872463Y-109037717D01*
X94988500Y-109037717D01*
X94988500Y-103291025D01*
X95007454Y-103195737D01*
X95061430Y-103114955D01*
X95106477Y-103079285D01*
X95118128Y-103072075D01*
X95118131Y-103072073D01*
X95125990Y-103067210D01*
X95331149Y-102893530D01*
X95422109Y-102789810D01*
X95502290Y-102698381D01*
X95502292Y-102698378D01*
X95508382Y-102691434D01*
X95653797Y-102465361D01*
X95681930Y-102402910D01*
X95760403Y-102228705D01*
X95760403Y-102228704D01*
X95764199Y-102220278D01*
X95790777Y-102126042D01*
X95834654Y-101970464D01*
X95837163Y-101961568D01*
X95871086Y-101694915D01*
X95873571Y-101600000D01*
X95855236Y-101353277D01*
X95867076Y-101256847D01*
X95914917Y-101172287D01*
X95927481Y-101158754D01*
X97184685Y-99901550D01*
X97204722Y-99883572D01*
X97229025Y-99864032D01*
X97236854Y-99854702D01*
X97236859Y-99854697D01*
X97262230Y-99824462D01*
X97265348Y-99820887D01*
X97268309Y-99817926D01*
X97295190Y-99785200D01*
X97296699Y-99783382D01*
X97356154Y-99712526D01*
X97358723Y-99707852D01*
X97362102Y-99703739D01*
X97373177Y-99683085D01*
X97405689Y-99622451D01*
X97406932Y-99620161D01*
X97445989Y-99549115D01*
X97451433Y-99539213D01*
X97453045Y-99534131D01*
X97455562Y-99529437D01*
X97482535Y-99441212D01*
X97483311Y-99438721D01*
X97507816Y-99361473D01*
X97507818Y-99361467D01*
X97511235Y-99350694D01*
X97511829Y-99345398D01*
X97513387Y-99340302D01*
X97520857Y-99266769D01*
X97522722Y-99248411D01*
X97522998Y-99245826D01*
X97528500Y-99196773D01*
X97528500Y-99192543D01*
X97528857Y-99188007D01*
X97533374Y-99143538D01*
X97529605Y-99103666D01*
X97528500Y-99080233D01*
X97528500Y-97040875D01*
X97547454Y-96945587D01*
X97601430Y-96864805D01*
X98708799Y-95757436D01*
X105110113Y-95757436D01*
X105111366Y-95766499D01*
X105152905Y-95913783D01*
X105161052Y-95935007D01*
X105244066Y-96103344D01*
X105255948Y-96122734D01*
X105368249Y-96273124D01*
X105383465Y-96290023D01*
X105521295Y-96417431D01*
X105539333Y-96431271D01*
X105698073Y-96531429D01*
X105711010Y-96538021D01*
X105726506Y-96540893D01*
X105730000Y-96522703D01*
X105730000Y-95774527D01*
X105725931Y-95754069D01*
X105705473Y-95750000D01*
X105131240Y-95750000D01*
X105110782Y-95754069D01*
X105110113Y-95757436D01*
X98708799Y-95757436D01*
X100674804Y-93791430D01*
X100755586Y-93737454D01*
X100850874Y-93718500D01*
X105277989Y-93718500D01*
X105373277Y-93737454D01*
X105454059Y-93791430D01*
X105508035Y-93872212D01*
X105526989Y-93967500D01*
X105508035Y-94062788D01*
X105454059Y-94143570D01*
X105442166Y-94154708D01*
X105404105Y-94188086D01*
X105388458Y-94204576D01*
X105272254Y-94351980D01*
X105259874Y-94371043D01*
X105172478Y-94537156D01*
X105163778Y-94558159D01*
X105108295Y-94736842D01*
X105109051Y-94746436D01*
X105120023Y-94750000D01*
X106481000Y-94750000D01*
X106576288Y-94768954D01*
X106657070Y-94822930D01*
X106711046Y-94903712D01*
X106730000Y-94999000D01*
X106730000Y-96523495D01*
X106733760Y-96542395D01*
X106742319Y-96540693D01*
X106896379Y-96449037D01*
X106914781Y-96435667D01*
X106914892Y-96435570D01*
X106915003Y-96435506D01*
X106924010Y-96428962D01*
X106924698Y-96429909D01*
X106999032Y-96386996D01*
X107095356Y-96374318D01*
X107189200Y-96399467D01*
X107225628Y-96422119D01*
X107229370Y-96425578D01*
X107245360Y-96435667D01*
X107397842Y-96531876D01*
X107397846Y-96531878D01*
X107407498Y-96537968D01*
X107603124Y-96616015D01*
X107809697Y-96657105D01*
X107924144Y-96658603D01*
X108008894Y-96659713D01*
X108008897Y-96659713D01*
X108020299Y-96659862D01*
X108031535Y-96657931D01*
X108031539Y-96657931D01*
X108120291Y-96642680D01*
X108227877Y-96624194D01*
X108238587Y-96620243D01*
X108414766Y-96555247D01*
X108414769Y-96555245D01*
X108425480Y-96551294D01*
X108606488Y-96443606D01*
X108615675Y-96435549D01*
X108616282Y-96435199D01*
X108624306Y-96429369D01*
X108624919Y-96430212D01*
X108699810Y-96386972D01*
X108796133Y-96374289D01*
X108889978Y-96399432D01*
X108931433Y-96425210D01*
X108939331Y-96431270D01*
X109098073Y-96531429D01*
X109111010Y-96538021D01*
X109126506Y-96540893D01*
X109130000Y-96522703D01*
X109130000Y-93976505D01*
X109125693Y-93954855D01*
X109123592Y-93953451D01*
X109043731Y-93920372D01*
X108975032Y-93851673D01*
X108942954Y-93782803D01*
X108894307Y-93615358D01*
X108894306Y-93615355D01*
X108890909Y-93603663D01*
X108883193Y-93588776D01*
X108805497Y-93438888D01*
X108799892Y-93428074D01*
X108703262Y-93307027D01*
X107441554Y-92045320D01*
X107423576Y-92025283D01*
X107404032Y-92000975D01*
X107364460Y-91967770D01*
X107360889Y-91964655D01*
X107357925Y-91961691D01*
X107325210Y-91934818D01*
X107323267Y-91933204D01*
X107261193Y-91881118D01*
X107261188Y-91881114D01*
X107252526Y-91873846D01*
X107247856Y-91871278D01*
X107243739Y-91867897D01*
X107229213Y-91860108D01*
X107162454Y-91824313D01*
X107160162Y-91823068D01*
X107089129Y-91784017D01*
X107089110Y-91784008D01*
X107079213Y-91778567D01*
X107074131Y-91776955D01*
X107069437Y-91774438D01*
X107058636Y-91771136D01*
X107058631Y-91771134D01*
X106981212Y-91747465D01*
X106978721Y-91746689D01*
X106901473Y-91722184D01*
X106901467Y-91722182D01*
X106890694Y-91718765D01*
X106885398Y-91718171D01*
X106880302Y-91716613D01*
X106869053Y-91715470D01*
X106869051Y-91715470D01*
X106788411Y-91707278D01*
X106785879Y-91707008D01*
X106736773Y-91701500D01*
X106732543Y-91701500D01*
X106728007Y-91701143D01*
X106700579Y-91698357D01*
X106695648Y-91697856D01*
X106695647Y-91697856D01*
X106683538Y-91696626D01*
X106652092Y-91699599D01*
X106643666Y-91700395D01*
X106620233Y-91701500D01*
X100398516Y-91701500D01*
X100371624Y-91700044D01*
X100369524Y-91699816D01*
X100340612Y-91696675D01*
X100289135Y-91701179D01*
X100284423Y-91701500D01*
X100280231Y-91701500D01*
X100274178Y-91702094D01*
X100274169Y-91702094D01*
X100238253Y-91705616D01*
X100235656Y-91705857D01*
X100154859Y-91712926D01*
X100154844Y-91712928D01*
X100143587Y-91713913D01*
X100138468Y-91715400D01*
X100133167Y-91715920D01*
X100122355Y-91719184D01*
X100122352Y-91719185D01*
X100044840Y-91742587D01*
X100042342Y-91743327D01*
X99964508Y-91765940D01*
X99964500Y-91765943D01*
X99953664Y-91769091D01*
X99948932Y-91771544D01*
X99943831Y-91773084D01*
X99933860Y-91778385D01*
X99933859Y-91778386D01*
X99862309Y-91816429D01*
X99860050Y-91817615D01*
X99778074Y-91860108D01*
X99773911Y-91863431D01*
X99769204Y-91865934D01*
X99697474Y-91924436D01*
X99695736Y-91925837D01*
X99657028Y-91956738D01*
X99654039Y-91959727D01*
X99650573Y-91962687D01*
X99615938Y-91990935D01*
X99608179Y-92000314D01*
X99608177Y-92000316D01*
X99590410Y-92021793D01*
X99574622Y-92039144D01*
X95855320Y-95758446D01*
X95835283Y-95776424D01*
X95810975Y-95795968D01*
X95803147Y-95805297D01*
X95803145Y-95805299D01*
X95777777Y-95835532D01*
X95774655Y-95839111D01*
X95771691Y-95842075D01*
X95744818Y-95874790D01*
X95743204Y-95876733D01*
X95702747Y-95924949D01*
X95683846Y-95947474D01*
X95681278Y-95952144D01*
X95677897Y-95956261D01*
X95648769Y-96010586D01*
X95634313Y-96037546D01*
X95633068Y-96039838D01*
X95594017Y-96110871D01*
X95594008Y-96110890D01*
X95588567Y-96120787D01*
X95586955Y-96125869D01*
X95584438Y-96130563D01*
X95581136Y-96141364D01*
X95581134Y-96141369D01*
X95557465Y-96218788D01*
X95556689Y-96221279D01*
X95537234Y-96282609D01*
X95528765Y-96309306D01*
X95528171Y-96314602D01*
X95526613Y-96319698D01*
X95525470Y-96330947D01*
X95525470Y-96330949D01*
X95517278Y-96411589D01*
X95517008Y-96414121D01*
X95511500Y-96463227D01*
X95511500Y-96467457D01*
X95511143Y-96471993D01*
X95506626Y-96516462D01*
X95509367Y-96545455D01*
X95510395Y-96556334D01*
X95511500Y-96579767D01*
X95511500Y-98619126D01*
X95492546Y-98714414D01*
X95438570Y-98795196D01*
X94499488Y-99734278D01*
X94418706Y-99788254D01*
X94323418Y-99807208D01*
X94283396Y-99803970D01*
X94218063Y-99793330D01*
X94208833Y-99793209D01*
X94208831Y-99793209D01*
X94024994Y-99790803D01*
X93949284Y-99789812D01*
X93940129Y-99791058D01*
X93940128Y-99791058D01*
X93903036Y-99796106D01*
X93682937Y-99826060D01*
X93424874Y-99901278D01*
X93416489Y-99905143D01*
X93416485Y-99905145D01*
X93197715Y-100006000D01*
X93180763Y-100013815D01*
X93151068Y-100033284D01*
X92963694Y-100156131D01*
X92963689Y-100156135D01*
X92955968Y-100161197D01*
X92755426Y-100340188D01*
X92583544Y-100546854D01*
X92562023Y-100582320D01*
X92448885Y-100768763D01*
X92448882Y-100768769D01*
X92444096Y-100776656D01*
X92440527Y-100785167D01*
X92440525Y-100785171D01*
X92416387Y-100842735D01*
X92340148Y-101024545D01*
X92273981Y-101285077D01*
X92247050Y-101552526D01*
X92259947Y-101821019D01*
X92312388Y-102084656D01*
X92403220Y-102337646D01*
X92407592Y-102345783D01*
X92407594Y-102345787D01*
X92471844Y-102465361D01*
X92530450Y-102574431D01*
X92691281Y-102789810D01*
X92882180Y-102979050D01*
X92885437Y-102981438D01*
X92944362Y-103056185D01*
X92970733Y-103149693D01*
X92971500Y-103169227D01*
X92971500Y-114231493D01*
X92970044Y-114258384D01*
X92966676Y-114289388D01*
X92967737Y-114301516D01*
X92967737Y-114301519D01*
X92971177Y-114340840D01*
X92971500Y-114345580D01*
X92971500Y-114349769D01*
X92972093Y-114355822D01*
X92972094Y-114355832D01*
X92975627Y-114391865D01*
X92975867Y-114394448D01*
X92976728Y-114404290D01*
X92982564Y-114470989D01*
X92983913Y-114486413D01*
X92985400Y-114491532D01*
X92985920Y-114496833D01*
X92989184Y-114507645D01*
X92989185Y-114507648D01*
X93012587Y-114585160D01*
X93013327Y-114587658D01*
X93032006Y-114651949D01*
X93039091Y-114676336D01*
X93041544Y-114681068D01*
X93043084Y-114686169D01*
X93048385Y-114696140D01*
X93048386Y-114696141D01*
X93086429Y-114767691D01*
X93087633Y-114769984D01*
X93130108Y-114851926D01*
X93133431Y-114856089D01*
X93135934Y-114860796D01*
X93143070Y-114869546D01*
X93143082Y-114869562D01*
X93194265Y-114932318D01*
X93195902Y-114934347D01*
X93222385Y-114967522D01*
X93222400Y-114967538D01*
X93226738Y-114972973D01*
X93229725Y-114975960D01*
X93232707Y-114979452D01*
X93253236Y-115004623D01*
X93253240Y-115004627D01*
X93260935Y-115014062D01*
X93270314Y-115021821D01*
X93270315Y-115021822D01*
X93291787Y-115039585D01*
X93309138Y-115055373D01*
X93812942Y-115559176D01*
X94316123Y-116062357D01*
X94334101Y-116082394D01*
X94353645Y-116106702D01*
X94362974Y-116114530D01*
X94362976Y-116114532D01*
X94393209Y-116139900D01*
X94396788Y-116143022D01*
X94399752Y-116145986D01*
X94432467Y-116172859D01*
X94434410Y-116174473D01*
X94496484Y-116226559D01*
X94496489Y-116226563D01*
X94505151Y-116233831D01*
X94509821Y-116236399D01*
X94513938Y-116239780D01*
X94523894Y-116245118D01*
X94523900Y-116245122D01*
X94595330Y-116283422D01*
X94597570Y-116284638D01*
X94603820Y-116288074D01*
X94668557Y-116323664D01*
X94668563Y-116323667D01*
X94678464Y-116329110D01*
X94683542Y-116330721D01*
X94688240Y-116333240D01*
X94699049Y-116336545D01*
X94699050Y-116336545D01*
X94776608Y-116360257D01*
X94779033Y-116361012D01*
X94866982Y-116388912D01*
X94866223Y-116391304D01*
X94938124Y-116422190D01*
X95005921Y-116491779D01*
X95030254Y-116539999D01*
X95069385Y-116644382D01*
X95156739Y-116760938D01*
X95273295Y-116848292D01*
X95409684Y-116899422D01*
X95425198Y-116901107D01*
X95425201Y-116901108D01*
X95465169Y-116905450D01*
X95465178Y-116905451D01*
X95471866Y-116906177D01*
X97568134Y-116906177D01*
X97574822Y-116905451D01*
X97574831Y-116905450D01*
X97614799Y-116901108D01*
X97614802Y-116901107D01*
X97630316Y-116899422D01*
X97766705Y-116848292D01*
X97883261Y-116760938D01*
X97970615Y-116644382D01*
X97999335Y-116567772D01*
X98050531Y-116485200D01*
X98129429Y-116428507D01*
X98232490Y-116406177D01*
X99636803Y-116406177D01*
X99732091Y-116425131D01*
X99812872Y-116479107D01*
X100518569Y-117184803D01*
X100572546Y-117265585D01*
X100591500Y-117360873D01*
X100591500Y-127034455D01*
X100572546Y-127129743D01*
X100518570Y-127210525D01*
X100437788Y-127264501D01*
X100342500Y-127283455D01*
X100247212Y-127264501D01*
X100166430Y-127210525D01*
X97640458Y-124684553D01*
X97636773Y-124680503D01*
X97632000Y-124672982D01*
X97620587Y-124662264D01*
X97620584Y-124662261D01*
X97583776Y-124627697D01*
X97578158Y-124622253D01*
X97559770Y-124603865D01*
X97553595Y-124599076D01*
X97551680Y-124597387D01*
X97545890Y-124592120D01*
X97526737Y-124574134D01*
X97526736Y-124574133D01*
X97515321Y-124563414D01*
X97501595Y-124555868D01*
X97494745Y-124550891D01*
X97484689Y-124544286D01*
X97477417Y-124539985D01*
X97465041Y-124530386D01*
X97429781Y-124515128D01*
X97408721Y-124504810D01*
X97388788Y-124493852D01*
X97375060Y-124486305D01*
X97359887Y-124482409D01*
X97352019Y-124479294D01*
X97340673Y-124475409D01*
X97332525Y-124473042D01*
X97318145Y-124466819D01*
X97280206Y-124460810D01*
X97257243Y-124456054D01*
X97235205Y-124450396D01*
X97235204Y-124450396D01*
X97220030Y-124446500D01*
X97204365Y-124446500D01*
X97195951Y-124445437D01*
X97184011Y-124444497D01*
X97175528Y-124444230D01*
X97160057Y-124441780D01*
X97144463Y-124443254D01*
X97144461Y-124443254D01*
X97121815Y-124445395D01*
X97098382Y-124446500D01*
X94660370Y-124446500D01*
X94565082Y-124427546D01*
X94484300Y-124373570D01*
X94444188Y-124321058D01*
X94334964Y-124129954D01*
X94334960Y-124129948D01*
X94330383Y-124121940D01*
X94173171Y-123922517D01*
X93988209Y-123748523D01*
X93978211Y-123741587D01*
X93976976Y-123740308D01*
X93973439Y-123737444D01*
X93973791Y-123737010D01*
X93910722Y-123671699D01*
X93875116Y-123581303D01*
X93876813Y-123484163D01*
X93915555Y-123395067D01*
X93985443Y-123327578D01*
X94075839Y-123291972D01*
X94120143Y-123287999D01*
X94151346Y-123287999D01*
X94164792Y-123287271D01*
X94204685Y-123282938D01*
X94234826Y-123275772D01*
X94339850Y-123236400D01*
X94370660Y-123219531D01*
X94458703Y-123153547D01*
X94483547Y-123128703D01*
X94549531Y-123040660D01*
X94566400Y-123009850D01*
X94605773Y-122904822D01*
X94612938Y-122874691D01*
X94617273Y-122834786D01*
X94618000Y-122821350D01*
X94618000Y-122104527D01*
X94613931Y-122084069D01*
X94593473Y-122080000D01*
X91226528Y-122080000D01*
X91206070Y-122084069D01*
X91202001Y-122104527D01*
X91202001Y-122821346D01*
X91202729Y-122834792D01*
X91207062Y-122874685D01*
X91214228Y-122904826D01*
X91253600Y-123009850D01*
X91270469Y-123040660D01*
X91336453Y-123128703D01*
X91361297Y-123153547D01*
X91449340Y-123219531D01*
X91480150Y-123236400D01*
X91585178Y-123275773D01*
X91615309Y-123282938D01*
X91655214Y-123287273D01*
X91668650Y-123288000D01*
X91698956Y-123288000D01*
X91794244Y-123306954D01*
X91875026Y-123360930D01*
X91929002Y-123441712D01*
X91947956Y-123537000D01*
X91929002Y-123632288D01*
X91875026Y-123713070D01*
X91864786Y-123722745D01*
X91677562Y-123889848D01*
X91671652Y-123896954D01*
X91671651Y-123896955D01*
X91655657Y-123916186D01*
X91515183Y-124085087D01*
X91383447Y-124302182D01*
X91379873Y-124310705D01*
X91295292Y-124512409D01*
X91285246Y-124536365D01*
X91222738Y-124782490D01*
X91208454Y-124924339D01*
X91202070Y-124987745D01*
X91197296Y-125035151D01*
X91197740Y-125044387D01*
X91207124Y-125239743D01*
X91209480Y-125288798D01*
X91259021Y-125537857D01*
X91262142Y-125546549D01*
X91262142Y-125546550D01*
X91310041Y-125679959D01*
X91344831Y-125776858D01*
X91465025Y-126000551D01*
X91616963Y-126204020D01*
X91797307Y-126382797D01*
X92002094Y-126532953D01*
X92147059Y-126609223D01*
X92222561Y-126670363D01*
X92268920Y-126755745D01*
X92279075Y-126852368D01*
X92251482Y-126945522D01*
X92190341Y-127021025D01*
X92135367Y-127055711D01*
X92087776Y-127077651D01*
X92087772Y-127077653D01*
X92079380Y-127081522D01*
X92030934Y-127113285D01*
X91912361Y-127191025D01*
X91867015Y-127220755D01*
X91860121Y-127226908D01*
X91860116Y-127226912D01*
X91763375Y-127313257D01*
X91677562Y-127389848D01*
X91671652Y-127396954D01*
X91671651Y-127396955D01*
X91655657Y-127416186D01*
X91515183Y-127585087D01*
X91383447Y-127802182D01*
X91379873Y-127810705D01*
X91295292Y-128012409D01*
X91285246Y-128036365D01*
X91222738Y-128282490D01*
X91210448Y-128404542D01*
X91198997Y-128518263D01*
X91197296Y-128535151D01*
X91202118Y-128635544D01*
X91208671Y-128771949D01*
X91209480Y-128788798D01*
X91259021Y-129037857D01*
X91262142Y-129046549D01*
X91262142Y-129046550D01*
X91326591Y-129226054D01*
X91344831Y-129276858D01*
X91349207Y-129285002D01*
X91429490Y-129434416D01*
X91465025Y-129500551D01*
X91616963Y-129704020D01*
X91797307Y-129882797D01*
X91804759Y-129888261D01*
X91968978Y-130008671D01*
X92002094Y-130032953D01*
X92050210Y-130058268D01*
X92133593Y-130102138D01*
X92209097Y-130163280D01*
X92255455Y-130248661D01*
X92265610Y-130345284D01*
X92238017Y-130438438D01*
X92176875Y-130513942D01*
X92091494Y-130560300D01*
X92017655Y-130571500D01*
X90830732Y-130571500D01*
X90823779Y-130571403D01*
X90735792Y-130568945D01*
X90735789Y-130568945D01*
X90725795Y-130568666D01*
X90700929Y-130571984D01*
X90651100Y-130578632D01*
X90638140Y-130580017D01*
X90614491Y-130581920D01*
X90563035Y-130586060D01*
X90553335Y-130588443D01*
X90553332Y-130588443D01*
X90549933Y-130589278D01*
X90537596Y-130592308D01*
X90511133Y-130597308D01*
X90495099Y-130599447D01*
X90495093Y-130599448D01*
X90485180Y-130600771D01*
X90413046Y-130622550D01*
X90400484Y-130625986D01*
X90327294Y-130643963D01*
X90318095Y-130647868D01*
X90318085Y-130647871D01*
X90303174Y-130654200D01*
X90277859Y-130663364D01*
X90262364Y-130668042D01*
X90262353Y-130668046D01*
X90252792Y-130670933D01*
X90243810Y-130675314D01*
X90243802Y-130675317D01*
X90185063Y-130703966D01*
X90173206Y-130709370D01*
X90103844Y-130738812D01*
X90095376Y-130744145D01*
X90081688Y-130752765D01*
X90058158Y-130765862D01*
X90034612Y-130777346D01*
X89973031Y-130820787D01*
X89962207Y-130828006D01*
X89929999Y-130848289D01*
X89898433Y-130868167D01*
X89878778Y-130885495D01*
X89857665Y-130902169D01*
X89836253Y-130917274D01*
X89814750Y-130936909D01*
X89777754Y-130973905D01*
X89766350Y-130984613D01*
X89716345Y-131028698D01*
X89710003Y-131036419D01*
X89710002Y-131036420D01*
X89693647Y-131056331D01*
X89677306Y-131074353D01*
X87851492Y-132900167D01*
X87846541Y-132904980D01*
X87775319Y-132972332D01*
X87769244Y-132980278D01*
X87769243Y-132980279D01*
X87729547Y-133032199D01*
X87721361Y-133042344D01*
X87672530Y-133099720D01*
X87667346Y-133108279D01*
X87667345Y-133108281D01*
X87658964Y-133122119D01*
X87643788Y-133144367D01*
X87627880Y-133165174D01*
X87623155Y-133173986D01*
X87592269Y-133231588D01*
X87585826Y-133242884D01*
X87546779Y-133307358D01*
X87543032Y-133316631D01*
X87543031Y-133316634D01*
X87536966Y-133331646D01*
X87525545Y-133356029D01*
X87513169Y-133379109D01*
X87509911Y-133388571D01*
X87488641Y-133450344D01*
X87484077Y-133462552D01*
X87455845Y-133532429D01*
X87453629Y-133542182D01*
X87453628Y-133542186D01*
X87450044Y-133557962D01*
X87442664Y-133583870D01*
X87434138Y-133608631D01*
X87432436Y-133618483D01*
X87432436Y-133618484D01*
X87421309Y-133682904D01*
X87418760Y-133695660D01*
X87402065Y-133769144D01*
X87401437Y-133779122D01*
X87401435Y-133779138D01*
X87400419Y-133795291D01*
X87397278Y-133822033D01*
X87392821Y-133847836D01*
X87392466Y-133855649D01*
X87392466Y-133855651D01*
X87391759Y-133871231D01*
X87391500Y-133876925D01*
X87391500Y-133929230D01*
X87391009Y-133944866D01*
X87386822Y-134011413D01*
X87387797Y-134021356D01*
X87387797Y-134021360D01*
X87390312Y-134047005D01*
X87391500Y-134071304D01*
X87391500Y-138374230D01*
X87391009Y-138389866D01*
X87386822Y-138456413D01*
X87387797Y-138466356D01*
X87387797Y-138466360D01*
X87390312Y-138492005D01*
X87391500Y-138516304D01*
X87391500Y-151104268D01*
X87391403Y-151111221D01*
X87389321Y-151185770D01*
X87388666Y-151209205D01*
X87389989Y-151219119D01*
X87398632Y-151283900D01*
X87400017Y-151296860D01*
X87401856Y-151319709D01*
X87406060Y-151371965D01*
X87408443Y-151381665D01*
X87408443Y-151381668D01*
X87412307Y-151397397D01*
X87417308Y-151423867D01*
X87419447Y-151439901D01*
X87419448Y-151439907D01*
X87420771Y-151449820D01*
X87442546Y-151521940D01*
X87445986Y-151534515D01*
X87463963Y-151607706D01*
X87467868Y-151616905D01*
X87467871Y-151616915D01*
X87474200Y-151631826D01*
X87483364Y-151657141D01*
X87488042Y-151672636D01*
X87488046Y-151672647D01*
X87490933Y-151682208D01*
X87495314Y-151691190D01*
X87495317Y-151691198D01*
X87523966Y-151749937D01*
X87529370Y-151761794D01*
X87558812Y-151831156D01*
X87564145Y-151839624D01*
X87572765Y-151853312D01*
X87585862Y-151876842D01*
X87597346Y-151900388D01*
X87640787Y-151961969D01*
X87648006Y-151972793D01*
X87679559Y-152022897D01*
X87688167Y-152036567D01*
X87705495Y-152056222D01*
X87722169Y-152077335D01*
X87737274Y-152098747D01*
X87756909Y-152120250D01*
X87793905Y-152157246D01*
X87804613Y-152168650D01*
X87848698Y-152218655D01*
X87856419Y-152224997D01*
X87856420Y-152224998D01*
X87876331Y-152241353D01*
X87894353Y-152257694D01*
X88371927Y-152735268D01*
X88425903Y-152816050D01*
X88444857Y-152911338D01*
X88425903Y-153006626D01*
X88371927Y-153087408D01*
X88291145Y-153141384D01*
X88192601Y-153160317D01*
X88166373Y-153159974D01*
X88156121Y-153159840D01*
X87894192Y-153195486D01*
X87640410Y-153269457D01*
X87632031Y-153273320D01*
X87632025Y-153273322D01*
X87408740Y-153376258D01*
X87408737Y-153376259D01*
X87400348Y-153380127D01*
X87392621Y-153385193D01*
X87392614Y-153385197D01*
X87254025Y-153476060D01*
X87163945Y-153512455D01*
X87066793Y-153511607D01*
X86977362Y-153473646D01*
X86909265Y-153404350D01*
X86872870Y-153314270D01*
X86868500Y-153267825D01*
X86868500Y-121055473D01*
X91202000Y-121055473D01*
X91206069Y-121075931D01*
X91226527Y-121080000D01*
X92385473Y-121080000D01*
X92405931Y-121075931D01*
X92410000Y-121055473D01*
X93410000Y-121055473D01*
X93414069Y-121075931D01*
X93434527Y-121080000D01*
X94593472Y-121080000D01*
X94613930Y-121075931D01*
X94617999Y-121055473D01*
X94617999Y-120338654D01*
X94617271Y-120325208D01*
X94612938Y-120285315D01*
X94605772Y-120255174D01*
X94566400Y-120150150D01*
X94549531Y-120119340D01*
X94483547Y-120031297D01*
X94458703Y-120006453D01*
X94370660Y-119940469D01*
X94339850Y-119923600D01*
X94234822Y-119884227D01*
X94204691Y-119877062D01*
X94164786Y-119872727D01*
X94151350Y-119872000D01*
X93434527Y-119872000D01*
X93414069Y-119876069D01*
X93410000Y-119896527D01*
X93410000Y-121055473D01*
X92410000Y-121055473D01*
X92410000Y-119896528D01*
X92405931Y-119876070D01*
X92385473Y-119872001D01*
X91668654Y-119872001D01*
X91655208Y-119872729D01*
X91615315Y-119877062D01*
X91585174Y-119884228D01*
X91480150Y-119923600D01*
X91449340Y-119940469D01*
X91361297Y-120006453D01*
X91336453Y-120031297D01*
X91270469Y-120119340D01*
X91253600Y-120150150D01*
X91214227Y-120255178D01*
X91207062Y-120285309D01*
X91202727Y-120325214D01*
X91202000Y-120338650D01*
X91202000Y-121055473D01*
X86868500Y-121055473D01*
X86868500Y-117788767D01*
X86887454Y-117693479D01*
X86941430Y-117612697D01*
X88046135Y-116507993D01*
X89214129Y-115339999D01*
X89220623Y-115334007D01*
X89232958Y-115326224D01*
X89266046Y-115288759D01*
X89276609Y-115277519D01*
X89285382Y-115268746D01*
X89290696Y-115261657D01*
X89293526Y-115258392D01*
X89301302Y-115248841D01*
X89317634Y-115230348D01*
X89317637Y-115230343D01*
X89329378Y-115217049D01*
X89336917Y-115200992D01*
X89338038Y-115199285D01*
X89338574Y-115198522D01*
X89338978Y-115197726D01*
X89339978Y-115195899D01*
X89350616Y-115181705D01*
X89365504Y-115141991D01*
X89373259Y-115123586D01*
X89391281Y-115085200D01*
X89394010Y-115067676D01*
X89394621Y-115065677D01*
X89394908Y-115064833D01*
X89395076Y-115063937D01*
X89395519Y-115061924D01*
X89401744Y-115045316D01*
X89404886Y-115003041D01*
X89406939Y-114985163D01*
X89407020Y-114984121D01*
X89408500Y-114974614D01*
X89408500Y-114963645D01*
X89409185Y-114945191D01*
X89411224Y-114917753D01*
X89412539Y-114900059D01*
X89408979Y-114883381D01*
X89408500Y-114869306D01*
X89408500Y-94568314D01*
X90927124Y-94568314D01*
X90927568Y-94577549D01*
X90928856Y-94604367D01*
X90928856Y-94604368D01*
X90939130Y-94818255D01*
X90939807Y-94832352D01*
X90991378Y-95091616D01*
X90994499Y-95100308D01*
X90994499Y-95100309D01*
X91074830Y-95324049D01*
X91080704Y-95340410D01*
X91205822Y-95573267D01*
X91363985Y-95785073D01*
X91551718Y-95971174D01*
X91559155Y-95976627D01*
X91559162Y-95976633D01*
X91755764Y-96120787D01*
X91764896Y-96127483D01*
X91773060Y-96131779D01*
X91773066Y-96131782D01*
X91990653Y-96246260D01*
X91990656Y-96246261D01*
X91998836Y-96250565D01*
X92007565Y-96253613D01*
X92007569Y-96253615D01*
X92111827Y-96290023D01*
X92248400Y-96337716D01*
X92398805Y-96366271D01*
X92499027Y-96385299D01*
X92499031Y-96385299D01*
X92508104Y-96387022D01*
X92517330Y-96387385D01*
X92517334Y-96387385D01*
X92626707Y-96391682D01*
X92772243Y-96397401D01*
X92781418Y-96396396D01*
X92781422Y-96396396D01*
X93025834Y-96369628D01*
X93025840Y-96369627D01*
X93035015Y-96368622D01*
X93290647Y-96301320D01*
X93408782Y-96250565D01*
X93525035Y-96200619D01*
X93525038Y-96200618D01*
X93533523Y-96196972D01*
X93638869Y-96131782D01*
X93750457Y-96062729D01*
X93750459Y-96062727D01*
X93758307Y-96057871D01*
X93960063Y-95887073D01*
X94134356Y-95688329D01*
X94277359Y-95466006D01*
X94385930Y-95224988D01*
X94428712Y-95073295D01*
X94455173Y-94979471D01*
X94455174Y-94979467D01*
X94457683Y-94970570D01*
X94462079Y-94936019D01*
X94477919Y-94811500D01*
X94491043Y-94708340D01*
X94492300Y-94660347D01*
X94493324Y-94621240D01*
X94493324Y-94621232D01*
X94493487Y-94615000D01*
X94473897Y-94351384D01*
X94415557Y-94093559D01*
X94412211Y-94084956D01*
X94412209Y-94084948D01*
X94323096Y-93855795D01*
X94323094Y-93855791D01*
X94319749Y-93847189D01*
X94315169Y-93839175D01*
X94193159Y-93625701D01*
X94193155Y-93625695D01*
X94188578Y-93617687D01*
X94182866Y-93610441D01*
X94182861Y-93610434D01*
X94039099Y-93428074D01*
X94024925Y-93410094D01*
X93832385Y-93228970D01*
X93615188Y-93078296D01*
X93378106Y-92961380D01*
X93216948Y-92909793D01*
X93135148Y-92883608D01*
X93135145Y-92883607D01*
X93126347Y-92880791D01*
X93117233Y-92879307D01*
X93117230Y-92879306D01*
X93048797Y-92868161D01*
X92865441Y-92838300D01*
X92856211Y-92838179D01*
X92856209Y-92838179D01*
X92668252Y-92835719D01*
X92601121Y-92834840D01*
X92339192Y-92870486D01*
X92085410Y-92944457D01*
X92077031Y-92948320D01*
X92077025Y-92948322D01*
X91853740Y-93051258D01*
X91853737Y-93051259D01*
X91845348Y-93055127D01*
X91837622Y-93060193D01*
X91837621Y-93060193D01*
X91734815Y-93127596D01*
X91624282Y-93200065D01*
X91427067Y-93376086D01*
X91258036Y-93579324D01*
X91120901Y-93805314D01*
X91117332Y-93813825D01*
X91117330Y-93813829D01*
X91081454Y-93899385D01*
X91018677Y-94049091D01*
X91016403Y-94058045D01*
X91016402Y-94058048D01*
X91005095Y-94102571D01*
X90953608Y-94305301D01*
X90952682Y-94314492D01*
X90952682Y-94314495D01*
X90928147Y-94558159D01*
X90927124Y-94568314D01*
X89408500Y-94568314D01*
X89408500Y-94328400D01*
X89427454Y-94233112D01*
X89481430Y-94152330D01*
X89495453Y-94139345D01*
X93463170Y-90738445D01*
X93547853Y-90690823D01*
X93625217Y-90678500D01*
X139405345Y-90678500D01*
X139500633Y-90697454D01*
G37*
%TD.AperFunction*%
%TD*%
M02*
