%TF.GenerationSoftware,KiCad,Pcbnew,(6.0.9)*%
%TF.CreationDate,2023-01-01T04:27:09+02:00*%
%TF.ProjectId,ESP32_LEDCONTROLLER,45535033-325f-44c4-9544-434f4e54524f,rev?*%
%TF.SameCoordinates,Original*%
%TF.FileFunction,Drillmap*%
%TF.FilePolarity,Positive*%
%FSLAX45Y45*%
G04 Gerber Fmt 4.5, Leading zero omitted, Abs format (unit mm)*
G04 Created by KiCad (PCBNEW (6.0.9)) date 2023-01-01 04:27:09*
%MOMM*%
%LPD*%
G01*
G04 APERTURE LIST*
%ADD10C,0.100000*%
%ADD11C,0.200000*%
G04 APERTURE END LIST*
D10*
X14668500Y-15494000D02*
G75*
G03*
X14668500Y-15494000I-127000J0D01*
G01*
X14160500Y-9461500D02*
G75*
G03*
X14160500Y-9461500I-127000J0D01*
G01*
X9398000Y-9461500D02*
G75*
G03*
X9398000Y-9461500I-127000J0D01*
G01*
X8953500Y-15494000D02*
G75*
G03*
X8953500Y-15494000I-127000J0D01*
G01*
X14732000Y-9715500D02*
X14732000Y-15684500D01*
X8636000Y-15684500D01*
X8636000Y-11747500D01*
X8890000Y-11493500D01*
X8890000Y-9398000D01*
X9334500Y-9017000D01*
X13970000Y-9017000D01*
X14732000Y-9715500D01*
D11*
X8888619Y-15999976D02*
X8888619Y-15799976D01*
X8936238Y-15799976D01*
X8964810Y-15809500D01*
X8983857Y-15828548D01*
X8993381Y-15847595D01*
X9002905Y-15885690D01*
X9002905Y-15914262D01*
X8993381Y-15952357D01*
X8983857Y-15971405D01*
X8964810Y-15990452D01*
X8936238Y-15999976D01*
X8888619Y-15999976D01*
X9088619Y-15999976D02*
X9088619Y-15866643D01*
X9088619Y-15904738D02*
X9098143Y-15885690D01*
X9107667Y-15876167D01*
X9126714Y-15866643D01*
X9145762Y-15866643D01*
X9212429Y-15999976D02*
X9212429Y-15866643D01*
X9212429Y-15799976D02*
X9202905Y-15809500D01*
X9212429Y-15819024D01*
X9221952Y-15809500D01*
X9212429Y-15799976D01*
X9212429Y-15819024D01*
X9336238Y-15999976D02*
X9317190Y-15990452D01*
X9307667Y-15971405D01*
X9307667Y-15799976D01*
X9441000Y-15999976D02*
X9421952Y-15990452D01*
X9412429Y-15971405D01*
X9412429Y-15799976D01*
X9669571Y-15999976D02*
X9669571Y-15799976D01*
X9736238Y-15942833D01*
X9802905Y-15799976D01*
X9802905Y-15999976D01*
X9983857Y-15999976D02*
X9983857Y-15895214D01*
X9974333Y-15876167D01*
X9955286Y-15866643D01*
X9917190Y-15866643D01*
X9898143Y-15876167D01*
X9983857Y-15990452D02*
X9964810Y-15999976D01*
X9917190Y-15999976D01*
X9898143Y-15990452D01*
X9888619Y-15971405D01*
X9888619Y-15952357D01*
X9898143Y-15933309D01*
X9917190Y-15923786D01*
X9964810Y-15923786D01*
X9983857Y-15914262D01*
X10079095Y-15866643D02*
X10079095Y-16066643D01*
X10079095Y-15876167D02*
X10098143Y-15866643D01*
X10136238Y-15866643D01*
X10155286Y-15876167D01*
X10164810Y-15885690D01*
X10174333Y-15904738D01*
X10174333Y-15961881D01*
X10164810Y-15980928D01*
X10155286Y-15990452D01*
X10136238Y-15999976D01*
X10098143Y-15999976D01*
X10079095Y-15990452D01*
X10260048Y-15980928D02*
X10269571Y-15990452D01*
X10260048Y-15999976D01*
X10250524Y-15990452D01*
X10260048Y-15980928D01*
X10260048Y-15999976D01*
X10260048Y-15876167D02*
X10269571Y-15885690D01*
X10260048Y-15895214D01*
X10250524Y-15885690D01*
X10260048Y-15876167D01*
X10260048Y-15895214D01*
M02*
