%TF.GenerationSoftware,KiCad,Pcbnew,(6.0.9)*%
%TF.CreationDate,2023-01-02T17:12:58+02:00*%
%TF.ProjectId,ESP32_LEDCONTROLLER,45535033-325f-44c4-9544-434f4e54524f,rev?*%
%TF.SameCoordinates,Original*%
%TF.FileFunction,Copper,L1,Top*%
%TF.FilePolarity,Positive*%
%FSLAX46Y46*%
G04 Gerber Fmt 4.6, Leading zero omitted, Abs format (unit mm)*
G04 Created by KiCad (PCBNEW (6.0.9)) date 2023-01-02 17:12:58*
%MOMM*%
%LPD*%
G01*
G04 APERTURE LIST*
%TA.AperFunction,Profile*%
%ADD10C,0.100000*%
%TD*%
%TA.AperFunction,ComponentPad*%
%ADD11R,1.600000X1.600000*%
%TD*%
%TA.AperFunction,ComponentPad*%
%ADD12C,1.600000*%
%TD*%
%TA.AperFunction,ComponentPad*%
%ADD13C,2.400000*%
%TD*%
%TA.AperFunction,ComponentPad*%
%ADD14R,2.400000X2.400000*%
%TD*%
%TA.AperFunction,ComponentPad*%
%ADD15O,1.600000X1.600000*%
%TD*%
%TA.AperFunction,ComponentPad*%
%ADD16R,2.000000X2.000000*%
%TD*%
%TA.AperFunction,ComponentPad*%
%ADD17C,2.000000*%
%TD*%
%TA.AperFunction,ComponentPad*%
%ADD18R,1.275000X1.800000*%
%TD*%
%TA.AperFunction,ComponentPad*%
%ADD19O,1.275000X1.800000*%
%TD*%
%TA.AperFunction,ComponentPad*%
%ADD20O,2.400000X2.400000*%
%TD*%
%TA.AperFunction,ComponentPad*%
%ADD21C,2.600000*%
%TD*%
%TA.AperFunction,ComponentPad*%
%ADD22R,3.000000X3.000000*%
%TD*%
%TA.AperFunction,ComponentPad*%
%ADD23C,3.000000*%
%TD*%
%TA.AperFunction,Conductor*%
%ADD24C,2.000000*%
%TD*%
%TA.AperFunction,Conductor*%
%ADD25C,0.250000*%
%TD*%
%TA.AperFunction,Conductor*%
%ADD26C,1.000000*%
%TD*%
%TA.AperFunction,Conductor*%
%ADD27C,0.500000*%
%TD*%
G04 APERTURE END LIST*
D10*
X94488000Y-153543000D02*
G75*
G03*
X94488000Y-153543000I-1270000J0D01*
G01*
X95885000Y-93345000D02*
G75*
G03*
X95885000Y-93345000I-1270000J0D01*
G01*
X142240000Y-153543000D02*
G75*
G03*
X142240000Y-153543000I-1270000J0D01*
G01*
X141986000Y-93980000D02*
X141986000Y-113284000D01*
X142621000Y-113919000D01*
X142621000Y-155194000D01*
X91440000Y-155194000D01*
X91440000Y-117475000D01*
X90805000Y-116840000D01*
X90805000Y-93980000D01*
X94615000Y-90170000D01*
X138176000Y-90170000D01*
X141986000Y-93980000D01*
D11*
%TO.P,C1,1*%
%TO.N,VSS*%
X137160000Y-111760000D03*
D12*
%TO.P,C1,2*%
%TO.N,GND*%
X137160000Y-115260000D03*
%TD*%
D13*
%TO.P,J2,4,Pin_4*%
%TO.N,GND*%
X137060000Y-138133000D03*
%TO.P,J2,3,Pin_3*%
%TO.N,Net-(J2-Pad3)*%
X137060000Y-141633000D03*
%TO.P,J2,2,Pin_2*%
%TO.N,Net-(J2-Pad2)*%
X137060000Y-145133000D03*
D14*
%TO.P,J2,1,Pin_1*%
%TO.N,VSS*%
X137060000Y-148633000D03*
%TD*%
D12*
%TO.P,R5,1*%
%TO.N,Net-(R5-Pad1)*%
X118110000Y-128270000D03*
D15*
%TO.P,R5,2*%
%TO.N,Net-(J4-Pad2)*%
X118110000Y-135890000D03*
%TD*%
D12*
%TO.P,R8,1*%
%TO.N,Net-(R8-Pad1)*%
X123190000Y-128270000D03*
D15*
%TO.P,R8,2*%
%TO.N,Net-(J4-Pad3)*%
X123190000Y-135890000D03*
%TD*%
D16*
%TO.P,U2,1,3V3*%
%TO.N,unconnected-(U2-Pad1)*%
X129540000Y-141245000D03*
D17*
%TO.P,U2,2,GND*%
%TO.N,GND*%
X129540000Y-138705000D03*
%TO.P,U2,3,D15*%
%TO.N,unconnected-(U2-Pad3)*%
X129540000Y-136165000D03*
%TO.P,U2,4,D2*%
%TO.N,Net-(R1-Pad1)*%
X129540000Y-133625000D03*
%TO.P,U2,5,D4*%
%TO.N,Net-(R2-Pad1)*%
X129540000Y-131085000D03*
%TO.P,U2,6,RX2*%
%TO.N,unconnected-(U2-Pad6)*%
X129540000Y-128545000D03*
%TO.P,U2,7,TX2*%
%TO.N,unconnected-(U2-Pad7)*%
X129540000Y-126005000D03*
%TO.P,U2,8,D5*%
%TO.N,Net-(R3-Pad1)*%
X129540000Y-123465000D03*
%TO.P,U2,9,D18*%
%TO.N,Net-(R4-Pad1)*%
X129540000Y-120925000D03*
%TO.P,U2,10,D19*%
%TO.N,unconnected-(U2-Pad10)*%
X129540000Y-118385000D03*
%TO.P,U2,11,D21*%
%TO.N,unconnected-(U2-Pad11)*%
X129540000Y-115845000D03*
%TO.P,U2,12,RX0*%
%TO.N,unconnected-(U2-Pad12)*%
X129540000Y-113305000D03*
%TO.P,U2,13,TX0*%
%TO.N,unconnected-(U2-Pad13)*%
X129540000Y-110765000D03*
%TO.P,U2,14,D22*%
%TO.N,unconnected-(U2-Pad14)*%
X129540000Y-108225000D03*
%TO.P,U2,15,D23*%
%TO.N,unconnected-(U2-Pad15)*%
X129540000Y-105685000D03*
%TO.P,U2,16,EN*%
%TO.N,unconnected-(U2-Pad16)*%
X104140000Y-105685000D03*
%TO.P,U2,17,VP*%
%TO.N,unconnected-(U2-Pad17)*%
X104140000Y-108225000D03*
%TO.P,U2,18,VN*%
%TO.N,unconnected-(U2-Pad18)*%
X104140000Y-110765000D03*
%TO.P,U2,19,D34*%
%TO.N,unconnected-(U2-Pad19)*%
X104140000Y-113305000D03*
%TO.P,U2,20,D35*%
%TO.N,unconnected-(U2-Pad20)*%
X104140000Y-115845000D03*
%TO.P,U2,21,D32*%
%TO.N,unconnected-(U2-Pad21)*%
X104140000Y-118385000D03*
%TO.P,U2,22,D33*%
%TO.N,Net-(R8-Pad1)*%
X104140000Y-120925000D03*
%TO.P,U2,23,D25*%
%TO.N,Net-(R5-Pad1)*%
X104140000Y-123465000D03*
%TO.P,U2,24,D26*%
%TO.N,Net-(R6-Pad1)*%
X104140000Y-126005000D03*
%TO.P,U2,25,D27*%
%TO.N,Net-(R7-Pad1)*%
X104140000Y-128545000D03*
%TO.P,U2,26,D14*%
%TO.N,unconnected-(U2-Pad26)*%
X104140000Y-131085000D03*
%TO.P,U2,27,D12*%
%TO.N,unconnected-(U2-Pad27)*%
X104140000Y-133625000D03*
%TO.P,U2,28,D13*%
%TO.N,unconnected-(U2-Pad28)*%
X104140000Y-136165000D03*
%TO.P,U2,29,GND*%
%TO.N,GND*%
X104140000Y-138705000D03*
%TO.P,U2,30,VIN*%
%TO.N,VCC*%
X104140000Y-141245000D03*
%TD*%
D14*
%TO.P,J5,1,Pin_1*%
%TO.N,VSS*%
X97282000Y-121539000D03*
D13*
%TO.P,J5,2,Pin_2*%
%TO.N,Net-(J5-Pad2)*%
X97282000Y-125039000D03*
%TO.P,J5,3,Pin_3*%
%TO.N,Net-(J5-Pad3)*%
X97282000Y-128539000D03*
%TO.P,J5,4,Pin_4*%
%TO.N,GND*%
X97282000Y-132039000D03*
%TD*%
D18*
%TO.P,U1,1,VIN*%
%TO.N,VSS*%
X113030000Y-95250000D03*
D19*
%TO.P,U1,2,OUT*%
%TO.N,Net-(D1-Pad1)*%
X111330000Y-95250000D03*
%TO.P,U1,3,GND*%
%TO.N,GND*%
X109630000Y-95250000D03*
%TO.P,U1,4,FB*%
%TO.N,VCC*%
X107930000Y-95250000D03*
%TO.P,U1,5,~{ON}/OFF*%
%TO.N,GND*%
X106230000Y-95250000D03*
%TD*%
D12*
%TO.P,R4,1*%
%TO.N,Net-(R4-Pad1)*%
X110490000Y-138430000D03*
D15*
%TO.P,R4,2*%
%TO.N,Net-(J2-Pad2)*%
X110490000Y-146050000D03*
%TD*%
D13*
%TO.P,J4,4,Pin_4*%
%TO.N,GND*%
X97255000Y-148633000D03*
%TO.P,J4,3,Pin_3*%
%TO.N,Net-(J4-Pad3)*%
X97255000Y-145133000D03*
%TO.P,J4,2,Pin_2*%
%TO.N,Net-(J4-Pad2)*%
X97255000Y-141633000D03*
D14*
%TO.P,J4,1,Pin_1*%
%TO.N,VSS*%
X97255000Y-138133000D03*
%TD*%
D12*
%TO.P,R3,1*%
%TO.N,Net-(R3-Pad1)*%
X115570000Y-138430000D03*
D15*
%TO.P,R3,2*%
%TO.N,Net-(J2-Pad3)*%
X115570000Y-146050000D03*
%TD*%
D12*
%TO.P,R1,1*%
%TO.N,Net-(R1-Pad1)*%
X125730000Y-138430000D03*
D15*
%TO.P,R1,2*%
%TO.N,Net-(J3-Pad3)*%
X125730000Y-146050000D03*
%TD*%
D17*
%TO.P,C2,2*%
%TO.N,GND*%
X96520000Y-110397677D03*
D16*
%TO.P,C2,1*%
%TO.N,VCC*%
X96520000Y-115397677D03*
%TD*%
D14*
%TO.P,D1,1,K*%
%TO.N,Net-(D1-Pad1)*%
X135890000Y-94869000D03*
D20*
%TO.P,D1,2,A*%
%TO.N,GND*%
X135890000Y-107569000D03*
%TD*%
D12*
%TO.P,R2,1*%
%TO.N,Net-(R2-Pad1)*%
X120650000Y-138430000D03*
D15*
%TO.P,R2,2*%
%TO.N,Net-(J3-Pad2)*%
X120650000Y-146050000D03*
%TD*%
D21*
%TO.P,L1,1,1*%
%TO.N,Net-(D1-Pad1)*%
X99060000Y-101600000D03*
%TO.P,L1,2,2*%
%TO.N,VCC*%
X94060000Y-101600000D03*
%TD*%
D12*
%TO.P,R6,1*%
%TO.N,Net-(R6-Pad1)*%
X113030000Y-128270000D03*
D15*
%TO.P,R6,2*%
%TO.N,Net-(J5-Pad3)*%
X113030000Y-135890000D03*
%TD*%
D22*
%TO.P,J1,1,Pin_1*%
%TO.N,GND*%
X129794000Y-95631000D03*
D23*
%TO.P,J1,2,Pin_2*%
%TO.N,VSS*%
X124714000Y-95631000D03*
%TD*%
D12*
%TO.P,R7,1*%
%TO.N,Net-(R7-Pad1)*%
X107950000Y-128270000D03*
D15*
%TO.P,R7,2*%
%TO.N,Net-(J5-Pad2)*%
X107950000Y-135890000D03*
%TD*%
D14*
%TO.P,J3,1,Pin_1*%
%TO.N,VSS*%
X137160000Y-132080000D03*
D13*
%TO.P,J3,2,Pin_2*%
%TO.N,Net-(J3-Pad2)*%
X137160000Y-128580000D03*
%TO.P,J3,3,Pin_3*%
%TO.N,Net-(J3-Pad3)*%
X137160000Y-125080000D03*
%TO.P,J3,4,Pin_4*%
%TO.N,GND*%
X137160000Y-121580000D03*
%TD*%
D24*
%TO.N,VSS*%
X96266000Y-121539000D02*
X97282000Y-121539000D01*
X94615000Y-138430000D02*
X94615000Y-123190000D01*
X94615000Y-123190000D02*
X96266000Y-121539000D01*
X94912000Y-138133000D02*
X97255000Y-138133000D01*
X94615000Y-138430000D02*
X94912000Y-138133000D01*
D25*
%TO.N,Net-(J5-Pad2)*%
X100330000Y-127520000D02*
X97849000Y-125039000D01*
X102870000Y-143510000D02*
X100330000Y-140970000D01*
X105410000Y-143510000D02*
X102870000Y-143510000D01*
X100330000Y-140970000D02*
X100330000Y-127520000D01*
X107950000Y-140970000D02*
X105410000Y-143510000D01*
X107950000Y-135890000D02*
X107950000Y-140970000D01*
X97849000Y-125039000D02*
X97282000Y-125039000D01*
%TO.N,Net-(J5-Pad3)*%
X98694000Y-128539000D02*
X97282000Y-128539000D01*
X102683604Y-143960000D02*
X99880000Y-141156396D01*
X99880000Y-141156396D02*
X99880000Y-129725000D01*
X99880000Y-129725000D02*
X98694000Y-128539000D01*
X109855000Y-139701396D02*
X105596396Y-143960000D01*
X105596396Y-143960000D02*
X102683604Y-143960000D01*
%TO.N,Net-(J4-Pad2)*%
X118110000Y-138430000D02*
X118110000Y-135890000D01*
X102373000Y-144410000D02*
X105907000Y-144410000D01*
X105907000Y-144410000D02*
X109982000Y-140335000D01*
X109982000Y-140335000D02*
X116205000Y-140335000D01*
X99596000Y-141633000D02*
X102373000Y-144410000D01*
X116205000Y-140335000D02*
X118110000Y-138430000D01*
X97255000Y-141633000D02*
X99596000Y-141633000D01*
%TO.N,Net-(J4-Pad3)*%
X102136000Y-145133000D02*
X97255000Y-145133000D01*
X102409000Y-144860000D02*
X102136000Y-145133000D01*
X120650000Y-140970000D02*
X109983396Y-140970000D01*
X109983396Y-140970000D02*
X106093396Y-144860000D01*
X123190000Y-135890000D02*
X123190000Y-138430000D01*
X123190000Y-138430000D02*
X120650000Y-140970000D01*
X106093396Y-144860000D02*
X102409000Y-144860000D01*
D24*
%TO.N,VSS*%
X137414000Y-153543000D02*
X140462000Y-150495000D01*
X97028000Y-153543000D02*
X137414000Y-153543000D01*
X140462000Y-150495000D02*
X140462000Y-148463000D01*
X94615000Y-138430000D02*
X94615000Y-151130000D01*
X94615000Y-151130000D02*
X97028000Y-153543000D01*
D25*
%TO.N,Net-(J2-Pad3)*%
X135255000Y-143438000D02*
X137060000Y-141633000D01*
X130175000Y-150495000D02*
X135255000Y-145415000D01*
X137060000Y-141633000D02*
X137060000Y-141760000D01*
X120015000Y-150495000D02*
X130175000Y-150495000D01*
X115570000Y-146050000D02*
X120015000Y-150495000D01*
X135255000Y-145415000D02*
X135255000Y-143438000D01*
%TO.N,Net-(J2-Pad2)*%
X137060000Y-145260000D02*
X137060000Y-145133000D01*
X130555000Y-151765000D02*
X137060000Y-145260000D01*
X118745000Y-151765000D02*
X130555000Y-151765000D01*
X113030000Y-146050000D02*
X118745000Y-151765000D01*
X110490000Y-146050000D02*
X113030000Y-146050000D01*
D24*
%TO.N,VSS*%
X116365000Y-91915000D02*
X124554000Y-91915000D01*
X137254000Y-91915000D02*
X140462000Y-95123000D01*
X137160000Y-132080000D02*
X140335000Y-132080000D01*
X124554000Y-91915000D02*
X137254000Y-91915000D01*
X113167500Y-95112500D02*
X116365000Y-91915000D01*
X137060000Y-148760000D02*
X140165000Y-148760000D01*
X140462000Y-114935000D02*
X140462000Y-132207000D01*
D25*
X140165000Y-148760000D02*
X140462000Y-148463000D01*
D24*
X124714000Y-92075000D02*
X124714000Y-96139000D01*
X140462000Y-108458000D02*
X137160000Y-111760000D01*
X124554000Y-91915000D02*
X124714000Y-92075000D01*
X140462000Y-132207000D02*
X140462000Y-148463000D01*
X139065000Y-113665000D02*
X139192000Y-113665000D01*
X140462000Y-95123000D02*
X140462000Y-108458000D01*
D25*
X140335000Y-132080000D02*
X140462000Y-132207000D01*
D24*
X113167500Y-95250000D02*
X113167500Y-95112500D01*
X137160000Y-111760000D02*
X139065000Y-113665000D01*
X139192000Y-113665000D02*
X140462000Y-114935000D01*
D25*
%TO.N,VCC*%
X107950000Y-93980000D02*
X107930000Y-94000000D01*
D26*
X106680000Y-92710000D02*
X107950000Y-93980000D01*
X93980000Y-101680000D02*
X93980000Y-114300000D01*
X96520000Y-96520000D02*
X100330000Y-92710000D01*
X93980000Y-114300000D02*
X95077677Y-115397677D01*
X96520000Y-99140000D02*
X96520000Y-96520000D01*
X96520000Y-99140000D02*
X93980000Y-101680000D01*
X107930000Y-94000000D02*
X107930000Y-95250000D01*
X95077677Y-115397677D02*
X96520000Y-115397677D01*
X100330000Y-92710000D02*
X106680000Y-92710000D01*
D25*
%TO.N,Net-(J3-Pad2)*%
X134945000Y-128580000D02*
X133350000Y-130175000D01*
X137160000Y-128580000D02*
X134945000Y-128580000D01*
X129686396Y-147175000D02*
X121775000Y-147175000D01*
X133350000Y-143511396D02*
X129686396Y-147175000D01*
X121775000Y-147175000D02*
X120650000Y-146050000D01*
X133350000Y-130175000D02*
X133350000Y-143511396D01*
%TO.N,Net-(R6-Pad1)*%
X110765000Y-126005000D02*
X113030000Y-128270000D01*
X104140000Y-126005000D02*
X110765000Y-126005000D01*
%TO.N,Net-(R8-Pad1)*%
X104140000Y-120925000D02*
X115845000Y-120925000D01*
X115845000Y-120925000D02*
X123190000Y-128270000D01*
D27*
%TO.N,Net-(D1-Pad1)*%
X111330000Y-96950000D02*
X112170000Y-97790000D01*
X111330000Y-95250000D02*
X111330000Y-96950000D01*
X99060000Y-101600000D02*
X104775000Y-101600000D01*
X126746000Y-94107000D02*
X126746000Y-97663000D01*
X125349000Y-99060000D02*
X118110000Y-99060000D01*
X127254000Y-93599000D02*
X126746000Y-94107000D01*
X118110000Y-99060000D02*
X118110000Y-96520000D01*
X113030000Y-97790000D02*
X112170000Y-97790000D01*
X118110000Y-96520000D02*
X114300000Y-96520000D01*
X114300000Y-96520000D02*
X113030000Y-97790000D01*
X135890000Y-94869000D02*
X134620000Y-93599000D01*
X134620000Y-93599000D02*
X127254000Y-93599000D01*
X104775000Y-101600000D02*
X107315000Y-99060000D01*
X107315000Y-99060000D02*
X117983000Y-99060000D01*
X126746000Y-97663000D02*
X125349000Y-99060000D01*
D25*
%TO.N,Net-(R1-Pad1)*%
X126725000Y-133625000D02*
X125730000Y-134620000D01*
X125730000Y-134620000D02*
X125730000Y-138430000D01*
X129540000Y-133625000D02*
X126725000Y-133625000D01*
%TO.N,Net-(R2-Pad1)*%
X121920000Y-133350000D02*
X120650000Y-134620000D01*
X129540000Y-131085000D02*
X128545000Y-132080000D01*
X120650000Y-134620000D02*
X120650000Y-138430000D01*
X128270000Y-132080000D02*
X127000000Y-132080000D01*
X128545000Y-132080000D02*
X128270000Y-132080000D01*
X127000000Y-132080000D02*
X125730000Y-133350000D01*
X125730000Y-133350000D02*
X121920000Y-133350000D01*
%TO.N,Net-(R4-Pad1)*%
X110490000Y-133350000D02*
X110490000Y-138430000D01*
X113030000Y-130810000D02*
X110490000Y-133350000D01*
X125730000Y-123190000D02*
X125730000Y-129540000D01*
X124460000Y-130810000D02*
X113030000Y-130810000D01*
X129540000Y-120925000D02*
X127995000Y-120925000D01*
X125730000Y-129540000D02*
X124460000Y-130810000D01*
X127995000Y-120925000D02*
X125730000Y-123190000D01*
%TO.N,Net-(R5-Pad1)*%
X104140000Y-123465000D02*
X113305000Y-123465000D01*
X113305000Y-123465000D02*
X118110000Y-128270000D01*
%TO.N,Net-(R7-Pad1)*%
X104140000Y-128545000D02*
X107675000Y-128545000D01*
X107675000Y-128545000D02*
X107950000Y-128270000D01*
%TO.N,Net-(R3-Pad1)*%
X118110000Y-132080000D02*
X115570000Y-134620000D01*
X125730000Y-132080000D02*
X118110000Y-132080000D01*
X115570000Y-134620000D02*
X115570000Y-138430000D01*
X129540000Y-123465000D02*
X127000000Y-126005000D01*
X127000000Y-126005000D02*
X127000000Y-130810000D01*
X127000000Y-130810000D02*
X125730000Y-132080000D01*
%TO.N,Net-(J3-Pad3)*%
X125730000Y-146050000D02*
X130175000Y-146050000D01*
X130175000Y-146050000D02*
X132715000Y-143510000D01*
X132715000Y-143510000D02*
X132715000Y-131445000D01*
X132715000Y-131445000D02*
X132715000Y-127635000D01*
X135270000Y-125080000D02*
X137160000Y-125080000D01*
X132715000Y-127635000D02*
X135255000Y-125095000D01*
%TO.N,Net-(J5-Pad3)*%
X113030000Y-135890000D02*
X113030000Y-138430000D01*
X111760000Y-139700000D02*
X109855000Y-139700000D01*
X113030000Y-138430000D02*
X111760000Y-139700000D01*
%TD*%
%TA.AperFunction,Conductor*%
%TO.N,GND*%
G36*
X115623787Y-90439454D02*
G01*
X115704569Y-90493430D01*
X115758545Y-90574212D01*
X115777499Y-90669500D01*
X115758545Y-90764788D01*
X115704569Y-90845570D01*
X115673817Y-90871697D01*
X115660719Y-90881109D01*
X115652167Y-90886986D01*
X115592750Y-90926015D01*
X115592746Y-90926018D01*
X115585116Y-90931030D01*
X115578299Y-90937104D01*
X115569306Y-90945116D01*
X115559758Y-90952765D01*
X115553597Y-90958083D01*
X115544595Y-90964552D01*
X115501838Y-91008674D01*
X115471435Y-91040047D01*
X115468692Y-91042834D01*
X112476410Y-94035116D01*
X112395628Y-94089092D01*
X112348920Y-94103261D01*
X112294760Y-94114034D01*
X112274368Y-94127659D01*
X112274366Y-94127660D01*
X112232295Y-94155771D01*
X112211899Y-94169399D01*
X112193302Y-94197232D01*
X112124607Y-94265929D01*
X112034848Y-94303111D01*
X111937693Y-94303112D01*
X111847933Y-94265935D01*
X111839908Y-94260341D01*
X111787013Y-94221910D01*
X111787004Y-94221905D01*
X111776446Y-94214234D01*
X111605918Y-94138310D01*
X111423333Y-94099500D01*
X111236667Y-94099500D01*
X111054082Y-94138310D01*
X110883555Y-94214234D01*
X110732539Y-94323953D01*
X110664706Y-94399289D01*
X110586864Y-94457418D01*
X110492698Y-94481334D01*
X110396549Y-94467393D01*
X110313053Y-94417719D01*
X110294622Y-94399289D01*
X110235857Y-94334024D01*
X110216566Y-94316654D01*
X110149839Y-94268174D01*
X110132342Y-94260107D01*
X110130519Y-94264062D01*
X110130000Y-94268444D01*
X110130000Y-96221713D01*
X110133760Y-96240613D01*
X110138032Y-96239764D01*
X110141880Y-96237609D01*
X110216566Y-96183346D01*
X110235857Y-96165976D01*
X110294622Y-96100711D01*
X110372468Y-96042581D01*
X110466633Y-96018666D01*
X110562783Y-96032607D01*
X110646279Y-96082282D01*
X110664699Y-96100703D01*
X110732539Y-96176047D01*
X110743094Y-96183716D01*
X110747117Y-96187338D01*
X110805246Y-96265185D01*
X110829159Y-96359351D01*
X110829500Y-96372378D01*
X110829500Y-96887070D01*
X110829167Y-96895368D01*
X110825981Y-96909447D01*
X110827505Y-96934007D01*
X110829022Y-96958461D01*
X110829500Y-96973880D01*
X110829500Y-96985940D01*
X110830754Y-96994698D01*
X110831084Y-96999327D01*
X110832284Y-97011039D01*
X110834859Y-97052538D01*
X110840885Y-97069229D01*
X110841083Y-97070187D01*
X110841371Y-97071832D01*
X110841883Y-97073401D01*
X110842162Y-97074355D01*
X110844677Y-97091918D01*
X110852018Y-97108063D01*
X110852020Y-97108071D01*
X110861890Y-97129778D01*
X110869426Y-97148291D01*
X110883540Y-97187387D01*
X110894005Y-97201712D01*
X110894467Y-97202581D01*
X110895200Y-97204070D01*
X110896131Y-97205430D01*
X110896672Y-97206275D01*
X110904016Y-97222428D01*
X110915597Y-97235868D01*
X110915600Y-97235873D01*
X110931158Y-97253929D01*
X110941969Y-97267543D01*
X110942849Y-97268571D01*
X110948522Y-97276336D01*
X110956049Y-97283863D01*
X110968612Y-97297395D01*
X110997600Y-97331037D01*
X111011758Y-97340214D01*
X111021496Y-97349310D01*
X111771604Y-98099418D01*
X111777229Y-98105514D01*
X111784930Y-98117720D01*
X111798224Y-98129461D01*
X111809726Y-98142976D01*
X111807736Y-98144670D01*
X111850762Y-98201148D01*
X111875581Y-98295080D01*
X111862564Y-98391359D01*
X111813694Y-98475328D01*
X111736411Y-98534203D01*
X111642479Y-98559022D01*
X111627059Y-98559500D01*
X107377918Y-98559500D01*
X107369628Y-98559167D01*
X107355552Y-98555982D01*
X107337848Y-98557080D01*
X107337845Y-98557080D01*
X107306549Y-98559022D01*
X107291131Y-98559500D01*
X107279060Y-98559500D01*
X107270289Y-98560756D01*
X107265652Y-98561086D01*
X107253966Y-98562284D01*
X107212461Y-98564859D01*
X107195776Y-98570882D01*
X107194801Y-98571084D01*
X107193170Y-98571369D01*
X107191599Y-98571882D01*
X107190640Y-98572162D01*
X107173082Y-98574677D01*
X107156933Y-98582020D01*
X107156932Y-98582020D01*
X107135240Y-98591883D01*
X107116730Y-98599419D01*
X107077613Y-98613540D01*
X107063285Y-98624007D01*
X107062422Y-98624466D01*
X107060927Y-98625202D01*
X107059571Y-98626130D01*
X107058723Y-98626672D01*
X107042572Y-98634016D01*
X107029133Y-98645596D01*
X107029128Y-98645599D01*
X107011057Y-98661170D01*
X106997469Y-98671960D01*
X106996433Y-98672847D01*
X106988664Y-98678523D01*
X106981144Y-98686043D01*
X106967612Y-98698606D01*
X106933963Y-98727600D01*
X106924785Y-98741760D01*
X106915683Y-98751504D01*
X104640616Y-101026570D01*
X104559834Y-101080546D01*
X104464546Y-101099500D01*
X100697311Y-101099500D01*
X100602023Y-101080546D01*
X100521241Y-101026570D01*
X100467265Y-100945789D01*
X100445777Y-100893911D01*
X100440660Y-100885560D01*
X100323370Y-100694162D01*
X100318259Y-100685821D01*
X100159759Y-100500241D01*
X99974179Y-100341741D01*
X99832631Y-100255000D01*
X99774440Y-100219340D01*
X99774435Y-100219337D01*
X99766089Y-100214223D01*
X99540612Y-100120828D01*
X99489963Y-100108668D01*
X99312817Y-100066138D01*
X99312812Y-100066137D01*
X99303302Y-100063854D01*
X99293545Y-100063086D01*
X99293544Y-100063086D01*
X99069759Y-100045474D01*
X99060000Y-100044706D01*
X99050241Y-100045474D01*
X98826456Y-100063086D01*
X98826455Y-100063086D01*
X98816698Y-100063854D01*
X98807188Y-100066137D01*
X98807183Y-100066138D01*
X98630037Y-100108668D01*
X98579388Y-100120828D01*
X98353911Y-100214223D01*
X98345565Y-100219337D01*
X98345560Y-100219340D01*
X98287369Y-100255000D01*
X98145821Y-100341741D01*
X97960241Y-100500241D01*
X97801741Y-100685821D01*
X97796630Y-100694162D01*
X97679340Y-100885560D01*
X97679338Y-100885564D01*
X97674223Y-100893911D01*
X97580828Y-101119388D01*
X97578546Y-101128893D01*
X97526140Y-101347178D01*
X97523854Y-101356698D01*
X97504706Y-101600000D01*
X97523854Y-101843302D01*
X97526137Y-101852812D01*
X97526138Y-101852817D01*
X97558601Y-101988031D01*
X97580828Y-102080612D01*
X97674223Y-102306089D01*
X97679337Y-102314435D01*
X97679340Y-102314440D01*
X97746387Y-102423850D01*
X97801741Y-102514179D01*
X97960241Y-102699759D01*
X98145821Y-102858259D01*
X98229501Y-102909538D01*
X98345560Y-102980660D01*
X98345565Y-102980663D01*
X98353911Y-102985777D01*
X98579388Y-103079172D01*
X98588893Y-103081454D01*
X98807183Y-103133862D01*
X98807188Y-103133863D01*
X98816698Y-103136146D01*
X98826455Y-103136914D01*
X98826456Y-103136914D01*
X99050241Y-103154526D01*
X99060000Y-103155294D01*
X99069759Y-103154526D01*
X99293544Y-103136914D01*
X99293545Y-103136914D01*
X99303302Y-103136146D01*
X99312812Y-103133863D01*
X99312817Y-103133862D01*
X99531107Y-103081454D01*
X99540612Y-103079172D01*
X99766089Y-102985777D01*
X99774435Y-102980663D01*
X99774440Y-102980660D01*
X99890499Y-102909538D01*
X99974179Y-102858259D01*
X100159759Y-102699759D01*
X100318259Y-102514179D01*
X100424866Y-102340213D01*
X100440662Y-102314436D01*
X100440662Y-102314435D01*
X100445777Y-102306089D01*
X100467266Y-102254209D01*
X100521242Y-102173430D01*
X100602024Y-102119454D01*
X100697311Y-102100500D01*
X104712070Y-102100500D01*
X104720368Y-102100833D01*
X104734447Y-102104019D01*
X104778600Y-102101280D01*
X104783461Y-102100978D01*
X104798880Y-102100500D01*
X104810940Y-102100500D01*
X104819698Y-102099246D01*
X104824327Y-102098916D01*
X104836039Y-102097716D01*
X104859829Y-102096240D01*
X104859831Y-102096240D01*
X104877538Y-102095141D01*
X104894229Y-102089115D01*
X104895187Y-102088917D01*
X104896832Y-102088629D01*
X104898401Y-102088117D01*
X104899355Y-102087838D01*
X104916918Y-102085323D01*
X104933063Y-102077982D01*
X104933071Y-102077980D01*
X104954778Y-102068110D01*
X104973291Y-102060574D01*
X104995700Y-102052484D01*
X105012387Y-102046460D01*
X105026712Y-102035995D01*
X105027581Y-102035533D01*
X105029070Y-102034800D01*
X105030430Y-102033869D01*
X105031275Y-102033328D01*
X105047428Y-102025984D01*
X105060868Y-102014403D01*
X105060873Y-102014400D01*
X105078929Y-101998842D01*
X105092543Y-101988031D01*
X105093571Y-101987151D01*
X105101336Y-101981478D01*
X105108863Y-101973951D01*
X105122395Y-101961388D01*
X105124017Y-101959991D01*
X105156037Y-101932400D01*
X105165214Y-101918242D01*
X105174310Y-101908504D01*
X107449384Y-99633430D01*
X107530166Y-99579454D01*
X107625454Y-99560500D01*
X118018940Y-99560500D01*
X118018940Y-99560507D01*
X118035255Y-99561138D01*
X118035261Y-99560093D01*
X118068510Y-99560296D01*
X118068524Y-99560297D01*
X118069748Y-99560304D01*
X118069748Y-99560344D01*
X118070090Y-99560357D01*
X118071009Y-99560500D01*
X118101166Y-99560500D01*
X118102687Y-99560505D01*
X118174023Y-99560941D01*
X118174025Y-99560941D01*
X118178624Y-99560969D01*
X118180194Y-99560520D01*
X118180490Y-99560500D01*
X125286070Y-99560500D01*
X125294368Y-99560833D01*
X125308447Y-99564019D01*
X125352600Y-99561280D01*
X125357461Y-99560978D01*
X125372880Y-99560500D01*
X125384940Y-99560500D01*
X125393698Y-99559246D01*
X125398327Y-99558916D01*
X125410039Y-99557716D01*
X125433829Y-99556240D01*
X125433831Y-99556240D01*
X125451538Y-99555141D01*
X125468229Y-99549115D01*
X125469187Y-99548917D01*
X125470832Y-99548629D01*
X125472401Y-99548117D01*
X125473355Y-99547838D01*
X125490918Y-99545323D01*
X125507063Y-99537982D01*
X125507071Y-99537980D01*
X125528778Y-99528110D01*
X125547291Y-99520574D01*
X125569700Y-99512484D01*
X125586387Y-99506460D01*
X125600712Y-99495995D01*
X125601581Y-99495533D01*
X125603070Y-99494800D01*
X125604430Y-99493869D01*
X125605275Y-99493328D01*
X125621428Y-99485984D01*
X125634868Y-99474403D01*
X125634873Y-99474400D01*
X125652929Y-99458842D01*
X125666543Y-99448031D01*
X125667571Y-99447151D01*
X125675336Y-99441478D01*
X125682863Y-99433951D01*
X125696395Y-99421388D01*
X125702329Y-99416275D01*
X125730037Y-99392400D01*
X125739214Y-99378242D01*
X125748310Y-99368504D01*
X127055418Y-98061396D01*
X127061514Y-98055771D01*
X127073720Y-98048070D01*
X127106223Y-98011267D01*
X127116788Y-98000026D01*
X127125320Y-97991494D01*
X127130624Y-97984417D01*
X127133662Y-97980913D01*
X127141095Y-97971782D01*
X127156884Y-97953904D01*
X127168623Y-97940612D01*
X127176160Y-97924560D01*
X127176708Y-97923725D01*
X127177656Y-97922375D01*
X127178408Y-97920894D01*
X127178886Y-97920022D01*
X127189526Y-97905824D01*
X127204122Y-97866890D01*
X127211881Y-97848476D01*
X127222014Y-97826894D01*
X127229553Y-97810837D01*
X127232282Y-97793309D01*
X127232572Y-97792361D01*
X127233107Y-97790788D01*
X127233412Y-97789161D01*
X127233625Y-97788191D01*
X127239852Y-97771581D01*
X127242934Y-97730108D01*
X127244914Y-97712858D01*
X127245019Y-97711506D01*
X127246500Y-97701991D01*
X127246500Y-97691350D01*
X127247185Y-97672898D01*
X127249161Y-97646304D01*
X127250476Y-97628609D01*
X127246953Y-97612107D01*
X127246500Y-97598780D01*
X127246500Y-97143387D01*
X128044000Y-97143387D01*
X128046388Y-97167628D01*
X128053721Y-97204493D01*
X128072129Y-97248934D01*
X128100134Y-97290847D01*
X128134153Y-97324866D01*
X128176066Y-97352871D01*
X128220507Y-97371279D01*
X128257372Y-97378612D01*
X128281613Y-97381000D01*
X129269473Y-97381000D01*
X129289931Y-97376931D01*
X129294000Y-97356473D01*
X130294000Y-97356473D01*
X130298069Y-97376931D01*
X130318527Y-97381000D01*
X131306387Y-97381000D01*
X131330628Y-97378612D01*
X131367493Y-97371279D01*
X131411934Y-97352871D01*
X131453847Y-97324866D01*
X131487866Y-97290847D01*
X131515871Y-97248934D01*
X131534279Y-97204493D01*
X131541612Y-97167628D01*
X131544000Y-97143387D01*
X131544000Y-96155527D01*
X131539931Y-96135069D01*
X131519473Y-96131000D01*
X130318527Y-96131000D01*
X130298069Y-96135069D01*
X130294000Y-96155527D01*
X130294000Y-97356473D01*
X129294000Y-97356473D01*
X129294000Y-96155527D01*
X129289931Y-96135069D01*
X129269473Y-96131000D01*
X128068527Y-96131000D01*
X128048069Y-96135069D01*
X128044000Y-96155527D01*
X128044000Y-97143387D01*
X127246500Y-97143387D01*
X127246500Y-94417454D01*
X127265454Y-94322166D01*
X127319430Y-94241384D01*
X127388384Y-94172430D01*
X127469166Y-94118454D01*
X127564454Y-94099500D01*
X127795000Y-94099500D01*
X127890288Y-94118454D01*
X127971070Y-94172430D01*
X128025046Y-94253212D01*
X128044000Y-94348500D01*
X128044000Y-95106473D01*
X128048069Y-95126931D01*
X128068527Y-95131000D01*
X131519473Y-95131000D01*
X131539931Y-95126931D01*
X131544000Y-95106473D01*
X131544000Y-94348500D01*
X131562954Y-94253212D01*
X131616930Y-94172430D01*
X131697712Y-94118454D01*
X131793000Y-94099500D01*
X134190500Y-94099500D01*
X134285788Y-94118454D01*
X134366570Y-94172430D01*
X134420546Y-94253212D01*
X134439500Y-94348500D01*
X134439500Y-96093674D01*
X134454034Y-96166740D01*
X134467659Y-96187132D01*
X134467660Y-96187134D01*
X134472403Y-96194232D01*
X134509399Y-96249601D01*
X134529795Y-96263229D01*
X134571866Y-96291340D01*
X134571868Y-96291341D01*
X134592260Y-96304966D01*
X134665326Y-96319500D01*
X137114674Y-96319500D01*
X137187740Y-96304966D01*
X137208132Y-96291341D01*
X137208134Y-96291340D01*
X137250205Y-96263229D01*
X137270601Y-96249601D01*
X137307597Y-96194232D01*
X137312340Y-96187134D01*
X137312341Y-96187132D01*
X137325966Y-96166740D01*
X137340500Y-96093674D01*
X137340500Y-94371114D01*
X137359454Y-94275826D01*
X137413430Y-94195044D01*
X137494212Y-94141068D01*
X137589500Y-94122114D01*
X137684788Y-94141068D01*
X137765570Y-94195044D01*
X139138570Y-95568044D01*
X139192546Y-95648826D01*
X139211500Y-95744114D01*
X139211500Y-107836885D01*
X139192546Y-107932173D01*
X139138570Y-108012955D01*
X136514956Y-110636570D01*
X136434174Y-110690546D01*
X136359450Y-110705410D01*
X136359735Y-110708301D01*
X136347564Y-110709500D01*
X136335326Y-110709500D01*
X136262260Y-110724034D01*
X136241868Y-110737659D01*
X136241866Y-110737660D01*
X136217150Y-110754175D01*
X136179399Y-110779399D01*
X136165771Y-110799795D01*
X136137660Y-110841866D01*
X136137659Y-110841868D01*
X136124034Y-110862260D01*
X136109500Y-110935326D01*
X136109500Y-111009610D01*
X136090546Y-111104898D01*
X136080560Y-111126119D01*
X136065788Y-111154020D01*
X136062040Y-111160838D01*
X136018405Y-111237337D01*
X136014702Y-111247794D01*
X136011077Y-111255711D01*
X136007737Y-111263656D01*
X136002550Y-111273453D01*
X135999181Y-111284011D01*
X135999178Y-111284017D01*
X135975769Y-111357370D01*
X135973289Y-111364739D01*
X135943892Y-111447756D01*
X135942100Y-111458698D01*
X135939948Y-111467080D01*
X135938057Y-111475542D01*
X135934684Y-111486109D01*
X135933236Y-111497105D01*
X135933235Y-111497111D01*
X135923185Y-111573440D01*
X135922043Y-111581175D01*
X135921592Y-111583930D01*
X135907818Y-111668046D01*
X135907993Y-111679144D01*
X135907357Y-111687800D01*
X135906996Y-111696421D01*
X135905547Y-111707422D01*
X135909697Y-111795413D01*
X135909941Y-111803193D01*
X135910686Y-111850633D01*
X135911324Y-111891241D01*
X135913459Y-111902124D01*
X135914363Y-111910724D01*
X135915541Y-111919323D01*
X135916063Y-111930398D01*
X135918539Y-111941209D01*
X135918540Y-111941216D01*
X135935719Y-112016223D01*
X135937346Y-112023877D01*
X135950102Y-112088895D01*
X135954299Y-112110288D01*
X135958330Y-112120626D01*
X135960746Y-112128942D01*
X135963420Y-112137173D01*
X135965897Y-112147987D01*
X135978623Y-112177822D01*
X136000450Y-112228994D01*
X136003403Y-112236230D01*
X136035386Y-112318263D01*
X136041177Y-112327713D01*
X136045021Y-112335458D01*
X136049123Y-112343108D01*
X136053476Y-112353313D01*
X136068616Y-112376361D01*
X136105089Y-112466408D01*
X136109500Y-112513068D01*
X136109500Y-112584674D01*
X136124034Y-112657740D01*
X136137659Y-112678132D01*
X136137660Y-112678134D01*
X136143728Y-112687215D01*
X136179399Y-112740601D01*
X136199795Y-112754229D01*
X136241866Y-112782340D01*
X136241868Y-112782341D01*
X136262260Y-112795966D01*
X136335326Y-112810500D01*
X136347564Y-112810500D01*
X136359735Y-112811699D01*
X136359450Y-112814590D01*
X136434174Y-112829454D01*
X136514956Y-112883430D01*
X137417851Y-113786325D01*
X137471827Y-113867107D01*
X137490781Y-113962395D01*
X137471827Y-114057683D01*
X137417851Y-114138465D01*
X137337069Y-114192441D01*
X137241781Y-114211395D01*
X137215752Y-114210031D01*
X137179476Y-114206218D01*
X137155236Y-114206049D01*
X136974431Y-114222503D01*
X136950610Y-114227047D01*
X136884163Y-114246603D01*
X136867094Y-114255546D01*
X136871980Y-114264873D01*
X138149554Y-115542447D01*
X138165575Y-115553152D01*
X138172600Y-115542637D01*
X138185019Y-115505305D01*
X138190387Y-115481677D01*
X138213798Y-115296360D01*
X138214767Y-115282504D01*
X138214984Y-115266956D01*
X138214402Y-115253077D01*
X138195601Y-115061325D01*
X138205167Y-114964642D01*
X138251003Y-114878979D01*
X138326131Y-114817377D01*
X138419115Y-114789215D01*
X138515798Y-114798781D01*
X138601461Y-114844617D01*
X138619483Y-114860957D01*
X139138570Y-115380044D01*
X139192546Y-115460826D01*
X139211500Y-115556114D01*
X139211500Y-130580500D01*
X139192546Y-130675788D01*
X139138570Y-130756570D01*
X139057788Y-130810546D01*
X138962500Y-130829500D01*
X138760624Y-130829500D01*
X138665336Y-130810546D01*
X138584554Y-130756570D01*
X138555044Y-130720610D01*
X138554229Y-130719795D01*
X138540601Y-130699399D01*
X138505264Y-130675788D01*
X138478134Y-130657660D01*
X138478132Y-130657659D01*
X138457740Y-130644034D01*
X138384674Y-130629500D01*
X135935326Y-130629500D01*
X135862260Y-130644034D01*
X135841868Y-130657659D01*
X135841866Y-130657660D01*
X135814736Y-130675788D01*
X135779399Y-130699399D01*
X135765771Y-130719795D01*
X135737660Y-130761866D01*
X135737659Y-130761868D01*
X135724034Y-130782260D01*
X135709500Y-130855326D01*
X135709500Y-133304674D01*
X135724034Y-133377740D01*
X135737659Y-133398132D01*
X135737660Y-133398134D01*
X135754292Y-133423025D01*
X135779399Y-133460601D01*
X135799795Y-133474229D01*
X135841866Y-133502340D01*
X135841868Y-133502341D01*
X135862260Y-133515966D01*
X135935326Y-133530500D01*
X138384674Y-133530500D01*
X138457740Y-133515966D01*
X138478132Y-133502341D01*
X138478134Y-133502340D01*
X138520205Y-133474229D01*
X138540601Y-133460601D01*
X138554229Y-133440205D01*
X138571568Y-133422866D01*
X138571727Y-133423025D01*
X138622282Y-133372468D01*
X138712040Y-133335286D01*
X138760624Y-133330500D01*
X138962500Y-133330500D01*
X139057788Y-133349454D01*
X139138570Y-133403430D01*
X139192546Y-133484212D01*
X139211500Y-133579500D01*
X139211500Y-147260500D01*
X139192546Y-147355788D01*
X139138570Y-147436570D01*
X139057788Y-147490546D01*
X138962500Y-147509500D01*
X138729336Y-147509500D01*
X138634048Y-147490546D01*
X138553266Y-147436570D01*
X138500371Y-147357406D01*
X138495966Y-147335260D01*
X138440601Y-147252399D01*
X138420205Y-147238771D01*
X138378134Y-147210660D01*
X138378132Y-147210659D01*
X138357740Y-147197034D01*
X138284674Y-147182500D01*
X136269677Y-147182500D01*
X136174389Y-147163546D01*
X136093607Y-147109570D01*
X136039631Y-147028788D01*
X136020677Y-146933500D01*
X136039631Y-146838212D01*
X136093607Y-146757430D01*
X136298416Y-146552621D01*
X136379198Y-146498645D01*
X136474486Y-146479691D01*
X136563312Y-146496073D01*
X136653937Y-146530680D01*
X136756309Y-146551508D01*
X136877653Y-146576196D01*
X136877655Y-146576196D01*
X136887666Y-146578233D01*
X136991566Y-146582043D01*
X137115813Y-146586599D01*
X137115818Y-146586599D01*
X137126025Y-146586973D01*
X137136156Y-146585675D01*
X137136160Y-146585675D01*
X137352479Y-146557963D01*
X137352482Y-146557962D01*
X137362609Y-146556665D01*
X137591068Y-146488125D01*
X137805264Y-146383191D01*
X137999445Y-146244683D01*
X138168397Y-146076320D01*
X138307582Y-145882623D01*
X138413263Y-145668795D01*
X138466140Y-145494755D01*
X138479629Y-145450357D01*
X138479630Y-145450353D01*
X138482600Y-145440577D01*
X138509821Y-145233813D01*
X138512869Y-145210663D01*
X138512869Y-145210660D01*
X138513733Y-145204099D01*
X138514026Y-145192141D01*
X138515309Y-145139626D01*
X138515471Y-145133000D01*
X138511335Y-145082687D01*
X138496764Y-144905466D01*
X138495927Y-144895284D01*
X138466761Y-144779167D01*
X138440312Y-144673867D01*
X138440310Y-144673861D01*
X138437821Y-144663952D01*
X138342712Y-144445216D01*
X138213155Y-144244951D01*
X138070643Y-144088333D01*
X138059501Y-144076088D01*
X138059500Y-144076087D01*
X138052629Y-144068536D01*
X137865445Y-143920707D01*
X137673098Y-143814526D01*
X137665577Y-143810374D01*
X137665573Y-143810372D01*
X137656631Y-143805436D01*
X137647005Y-143802027D01*
X137647000Y-143802025D01*
X137441429Y-143729229D01*
X137441430Y-143729229D01*
X137431794Y-143725817D01*
X137374477Y-143715607D01*
X137207035Y-143685780D01*
X137207029Y-143685779D01*
X137196972Y-143683988D01*
X137186751Y-143683863D01*
X137186750Y-143683863D01*
X137055398Y-143682258D01*
X136958471Y-143681074D01*
X136948370Y-143682620D01*
X136948366Y-143682620D01*
X136732798Y-143715607D01*
X136732793Y-143715608D01*
X136722698Y-143717153D01*
X136495982Y-143791255D01*
X136486911Y-143795977D01*
X136459255Y-143810374D01*
X136284414Y-143901390D01*
X136250253Y-143927039D01*
X136101852Y-144038462D01*
X136101848Y-144038465D01*
X136093675Y-144044602D01*
X136086610Y-144051995D01*
X136086609Y-144051996D01*
X136059518Y-144080345D01*
X135979982Y-144136140D01*
X135885148Y-144157251D01*
X135789455Y-144140463D01*
X135707470Y-144088333D01*
X135651675Y-144008797D01*
X135630500Y-143908315D01*
X135630500Y-143696677D01*
X135649454Y-143601389D01*
X135703430Y-143520607D01*
X136206511Y-143017526D01*
X136287293Y-142963550D01*
X136382581Y-142944596D01*
X136471409Y-142960979D01*
X136644388Y-143027034D01*
X136644393Y-143027035D01*
X136653937Y-143030680D01*
X136767226Y-143053729D01*
X136877653Y-143076196D01*
X136877655Y-143076196D01*
X136887666Y-143078233D01*
X136991566Y-143082043D01*
X137115813Y-143086599D01*
X137115818Y-143086599D01*
X137126025Y-143086973D01*
X137136156Y-143085675D01*
X137136160Y-143085675D01*
X137352479Y-143057963D01*
X137352482Y-143057962D01*
X137362609Y-143056665D01*
X137591068Y-142988125D01*
X137805264Y-142883191D01*
X137999445Y-142744683D01*
X138168397Y-142576320D01*
X138307582Y-142382623D01*
X138413263Y-142168795D01*
X138482600Y-141940577D01*
X138513733Y-141704099D01*
X138515471Y-141633000D01*
X138495927Y-141395284D01*
X138464661Y-141270806D01*
X138440312Y-141173867D01*
X138440310Y-141173861D01*
X138437821Y-141163952D01*
X138400784Y-141078772D01*
X138346790Y-140954594D01*
X138346788Y-140954591D01*
X138342712Y-140945216D01*
X138213155Y-140744951D01*
X138052629Y-140568536D01*
X137890872Y-140440788D01*
X137873463Y-140427039D01*
X137873461Y-140427038D01*
X137865445Y-140420707D01*
X137733227Y-140347719D01*
X137665577Y-140310374D01*
X137665573Y-140310372D01*
X137656631Y-140305436D01*
X137647005Y-140302027D01*
X137647000Y-140302025D01*
X137441429Y-140229229D01*
X137441430Y-140229229D01*
X137431794Y-140225817D01*
X137374477Y-140215607D01*
X137207035Y-140185780D01*
X137207029Y-140185779D01*
X137196972Y-140183988D01*
X137186751Y-140183863D01*
X137186750Y-140183863D01*
X137055398Y-140182258D01*
X136958471Y-140181074D01*
X136948370Y-140182620D01*
X136948366Y-140182620D01*
X136732798Y-140215607D01*
X136732793Y-140215608D01*
X136722698Y-140217153D01*
X136495982Y-140291255D01*
X136486911Y-140295977D01*
X136459255Y-140310374D01*
X136284414Y-140401390D01*
X136250253Y-140427039D01*
X136101852Y-140538462D01*
X136101848Y-140538465D01*
X136093675Y-140544602D01*
X136032653Y-140608458D01*
X135945308Y-140699859D01*
X135928887Y-140717042D01*
X135923127Y-140725486D01*
X135854441Y-140826176D01*
X135794475Y-140914082D01*
X135694051Y-141130428D01*
X135691324Y-141140263D01*
X135691322Y-141140267D01*
X135634372Y-141345623D01*
X135630309Y-141360272D01*
X135604963Y-141597440D01*
X135618694Y-141835562D01*
X135671131Y-142068245D01*
X135674972Y-142077704D01*
X135674975Y-142077714D01*
X135731047Y-142215803D01*
X135749335Y-142311221D01*
X135729716Y-142406375D01*
X135676411Y-142485552D01*
X135027093Y-143134870D01*
X135018602Y-143142970D01*
X135016083Y-143145262D01*
X134998790Y-143156428D01*
X134986048Y-143172591D01*
X134986047Y-143172592D01*
X134974305Y-143187487D01*
X134973539Y-143188424D01*
X134967425Y-143194538D01*
X134961452Y-143202897D01*
X134958032Y-143207682D01*
X134950986Y-143217067D01*
X134930098Y-143243562D01*
X134930097Y-143243565D01*
X134921397Y-143254600D01*
X134918395Y-143263149D01*
X134913128Y-143270519D01*
X134899428Y-143316330D01*
X134895813Y-143327452D01*
X134885168Y-143357764D01*
X134885167Y-143357769D01*
X134879977Y-143372548D01*
X134879500Y-143378055D01*
X134879500Y-143382964D01*
X134877310Y-143390287D01*
X134878037Y-143408792D01*
X134878037Y-143408794D01*
X134879308Y-143441137D01*
X134879500Y-143450913D01*
X134879500Y-145156323D01*
X134860546Y-145251611D01*
X134806570Y-145332393D01*
X130092393Y-150046570D01*
X130011611Y-150100546D01*
X129916323Y-150119500D01*
X120273677Y-150119500D01*
X120178389Y-150100546D01*
X120097607Y-150046570D01*
X116642082Y-146591045D01*
X116588106Y-146510263D01*
X116569152Y-146414975D01*
X116581881Y-146336380D01*
X116595507Y-146295419D01*
X116595507Y-146295417D01*
X116599351Y-146283863D01*
X116625171Y-146079474D01*
X116625583Y-146050000D01*
X116624138Y-146035262D01*
X119594520Y-146035262D01*
X119595539Y-146047397D01*
X119595539Y-146047399D01*
X119598573Y-146083529D01*
X119611759Y-146240553D01*
X119668544Y-146438586D01*
X119674110Y-146449416D01*
X119674111Y-146449419D01*
X119757146Y-146610988D01*
X119762712Y-146621818D01*
X119890677Y-146783270D01*
X119899950Y-146791162D01*
X119899952Y-146791164D01*
X120038292Y-146908900D01*
X120047564Y-146916791D01*
X120227398Y-147017297D01*
X120238978Y-147021060D01*
X120238979Y-147021060D01*
X120279251Y-147034145D01*
X120423329Y-147080959D01*
X120435417Y-147082400D01*
X120435420Y-147082401D01*
X120561803Y-147097470D01*
X120627894Y-147105351D01*
X120833300Y-147089546D01*
X120845031Y-147086271D01*
X120845035Y-147086270D01*
X120947382Y-147057694D01*
X121044257Y-147050324D01*
X121136578Y-147080588D01*
X121190414Y-147121451D01*
X121471870Y-147402907D01*
X121479970Y-147411398D01*
X121482262Y-147413917D01*
X121493428Y-147431210D01*
X121509591Y-147443952D01*
X121509592Y-147443953D01*
X121524487Y-147455695D01*
X121525424Y-147456461D01*
X121531538Y-147462575D01*
X121539897Y-147468548D01*
X121544682Y-147471968D01*
X121554067Y-147479014D01*
X121591600Y-147508603D01*
X121600149Y-147511605D01*
X121607519Y-147516872D01*
X121653330Y-147530573D01*
X121664459Y-147534189D01*
X121709548Y-147550023D01*
X121715055Y-147550500D01*
X121719963Y-147550500D01*
X121727286Y-147552690D01*
X121745791Y-147551963D01*
X121745793Y-147551963D01*
X121774993Y-147550816D01*
X121778137Y-147550692D01*
X121787912Y-147550500D01*
X129633193Y-147550500D01*
X129644921Y-147550776D01*
X129648341Y-147550937D01*
X129668462Y-147555269D01*
X129688901Y-147552850D01*
X129688902Y-147552850D01*
X129707717Y-147550623D01*
X129708941Y-147550500D01*
X129717589Y-147550500D01*
X129733559Y-147547842D01*
X129745148Y-147546193D01*
X129778649Y-147542228D01*
X129792606Y-147540576D01*
X129800773Y-147536654D01*
X129809709Y-147535167D01*
X129851777Y-147512468D01*
X129862233Y-147507141D01*
X129891164Y-147493249D01*
X129905296Y-147486463D01*
X129909527Y-147482906D01*
X129912997Y-147479436D01*
X129919725Y-147475806D01*
X129933170Y-147461262D01*
X129954274Y-147438431D01*
X129961051Y-147431382D01*
X133577907Y-143814526D01*
X133586398Y-143806426D01*
X133588917Y-143804134D01*
X133606210Y-143792968D01*
X133630696Y-143761908D01*
X133631461Y-143760972D01*
X133637575Y-143754858D01*
X133646968Y-143741714D01*
X133654014Y-143732329D01*
X133674902Y-143705833D01*
X133683603Y-143694796D01*
X133686605Y-143686247D01*
X133691872Y-143678877D01*
X133705573Y-143633066D01*
X133709190Y-143621934D01*
X133719831Y-143591633D01*
X133719831Y-143591632D01*
X133725023Y-143576848D01*
X133725500Y-143571341D01*
X133725500Y-143566433D01*
X133727690Y-143559110D01*
X133725692Y-143508259D01*
X133725500Y-143498484D01*
X133725500Y-139449710D01*
X136455500Y-139449710D01*
X136472988Y-139461046D01*
X136644526Y-139526551D01*
X136664095Y-139532236D01*
X136877710Y-139575696D01*
X136897937Y-139578108D01*
X137115790Y-139586097D01*
X137136138Y-139585173D01*
X137352369Y-139557472D01*
X137372292Y-139553238D01*
X137581100Y-139490592D01*
X137600057Y-139483163D01*
X137647166Y-139460085D01*
X137663719Y-139447452D01*
X137654638Y-139434744D01*
X137077342Y-138857449D01*
X137060000Y-138845861D01*
X137042658Y-138857449D01*
X136465778Y-139434328D01*
X136455500Y-139449710D01*
X133725500Y-139449710D01*
X133725500Y-138107659D01*
X135606054Y-138107659D01*
X135618603Y-138325288D01*
X135621438Y-138345465D01*
X135669363Y-138558126D01*
X135675455Y-138577563D01*
X135733481Y-138720467D01*
X135743970Y-138736403D01*
X135760359Y-138725535D01*
X136335551Y-138150342D01*
X136347139Y-138133000D01*
X137772861Y-138133000D01*
X137784449Y-138150342D01*
X138359044Y-138724938D01*
X138376386Y-138736526D01*
X138376494Y-138736454D01*
X138385408Y-138724025D01*
X138408270Y-138677768D01*
X138415765Y-138658838D01*
X138479140Y-138450247D01*
X138483444Y-138430340D01*
X138512368Y-138210636D01*
X138513394Y-138197460D01*
X138514807Y-138139626D01*
X138514426Y-138126394D01*
X138496269Y-137905548D01*
X138492943Y-137885455D01*
X138439834Y-137674020D01*
X138433273Y-137654748D01*
X138386105Y-137546271D01*
X138374862Y-137530064D01*
X138359759Y-137540347D01*
X137784449Y-138115658D01*
X137772861Y-138133000D01*
X136347139Y-138133000D01*
X136335551Y-138115658D01*
X135761312Y-137541418D01*
X135744406Y-137530122D01*
X135734752Y-137543935D01*
X135698823Y-137621336D01*
X135691792Y-137640447D01*
X135633533Y-137850523D01*
X135629718Y-137870523D01*
X135606551Y-138087286D01*
X135606054Y-138107659D01*
X133725500Y-138107659D01*
X133725500Y-136817534D01*
X136455397Y-136817534D01*
X136455809Y-136818948D01*
X136463382Y-136829276D01*
X137042658Y-137408551D01*
X137060000Y-137420139D01*
X137077342Y-137408551D01*
X137654273Y-136831621D01*
X137665861Y-136814279D01*
X137664172Y-136811751D01*
X137659353Y-136808127D01*
X137646803Y-136802487D01*
X137441293Y-136729711D01*
X137421607Y-136724510D01*
X137206988Y-136686281D01*
X137186703Y-136684363D01*
X136968732Y-136681700D01*
X136948399Y-136683122D01*
X136732918Y-136716095D01*
X136713097Y-136720817D01*
X136505892Y-136788543D01*
X136487113Y-136796436D01*
X136471663Y-136804479D01*
X136455397Y-136817534D01*
X133725500Y-136817534D01*
X133725500Y-130433677D01*
X133744454Y-130338389D01*
X133798430Y-130257607D01*
X135027608Y-129028430D01*
X135108390Y-128974454D01*
X135203678Y-128955500D01*
X135579234Y-128955500D01*
X135674522Y-128974454D01*
X135755304Y-129028430D01*
X135809940Y-129110821D01*
X135857020Y-129226767D01*
X135857024Y-129226775D01*
X135860867Y-129236239D01*
X135866204Y-129244949D01*
X135866207Y-129244954D01*
X135951699Y-129384463D01*
X135985493Y-129439609D01*
X136141660Y-129619894D01*
X136204639Y-129672180D01*
X136266334Y-129723400D01*
X136325176Y-129772252D01*
X136531112Y-129892591D01*
X136540655Y-129896235D01*
X136540661Y-129896238D01*
X136744388Y-129974034D01*
X136744393Y-129974035D01*
X136753937Y-129977680D01*
X136827266Y-129992599D01*
X136977653Y-130023196D01*
X136977655Y-130023196D01*
X136987666Y-130025233D01*
X137091566Y-130029043D01*
X137215813Y-130033599D01*
X137215818Y-130033599D01*
X137226025Y-130033973D01*
X137236156Y-130032675D01*
X137236160Y-130032675D01*
X137452479Y-130004963D01*
X137452482Y-130004962D01*
X137462609Y-130003665D01*
X137691068Y-129935125D01*
X137905264Y-129830191D01*
X138099445Y-129691683D01*
X138212629Y-129578894D01*
X138261163Y-129530529D01*
X138261164Y-129530528D01*
X138268397Y-129523320D01*
X138407582Y-129329623D01*
X138513263Y-129115795D01*
X138568035Y-128935516D01*
X138579629Y-128897357D01*
X138579630Y-128897353D01*
X138582600Y-128887577D01*
X138605987Y-128709936D01*
X138612869Y-128657663D01*
X138612869Y-128657660D01*
X138613733Y-128651099D01*
X138615471Y-128580000D01*
X138613484Y-128555825D01*
X138596764Y-128352466D01*
X138595927Y-128342284D01*
X138562400Y-128208806D01*
X138540312Y-128120867D01*
X138540310Y-128120861D01*
X138537821Y-128110952D01*
X138453646Y-127917362D01*
X138446790Y-127901594D01*
X138446788Y-127901591D01*
X138442712Y-127892216D01*
X138313155Y-127691951D01*
X138162333Y-127526200D01*
X138159501Y-127523088D01*
X138159500Y-127523087D01*
X138152629Y-127515536D01*
X138024147Y-127414067D01*
X137973463Y-127374039D01*
X137973461Y-127374038D01*
X137965445Y-127367707D01*
X137882232Y-127321771D01*
X137765577Y-127257374D01*
X137765573Y-127257372D01*
X137756631Y-127252436D01*
X137747005Y-127249027D01*
X137747000Y-127249025D01*
X137541429Y-127176229D01*
X137541430Y-127176229D01*
X137531794Y-127172817D01*
X137474477Y-127162607D01*
X137307035Y-127132780D01*
X137307029Y-127132779D01*
X137296972Y-127130988D01*
X137286751Y-127130863D01*
X137286750Y-127130863D01*
X137155398Y-127129258D01*
X137058471Y-127128074D01*
X137048370Y-127129620D01*
X137048366Y-127129620D01*
X136832798Y-127162607D01*
X136832793Y-127162608D01*
X136822698Y-127164153D01*
X136595982Y-127238255D01*
X136586911Y-127242977D01*
X136398349Y-127341136D01*
X136384414Y-127348390D01*
X136356176Y-127369592D01*
X136201852Y-127485462D01*
X136201848Y-127485465D01*
X136193675Y-127491602D01*
X136028887Y-127664042D01*
X136021046Y-127675537D01*
X135906471Y-127843497D01*
X135894475Y-127861082D01*
X135890173Y-127870350D01*
X135890169Y-127870357D01*
X135801984Y-128060337D01*
X135744673Y-128138788D01*
X135661702Y-128189334D01*
X135576130Y-128204500D01*
X134998211Y-128204500D01*
X134986481Y-128204224D01*
X134983057Y-128204062D01*
X134962934Y-128199730D01*
X134942495Y-128202149D01*
X134942494Y-128202149D01*
X134936448Y-128202865D01*
X134923634Y-128204381D01*
X134922453Y-128204500D01*
X134913807Y-128204500D01*
X134903682Y-128206185D01*
X134903674Y-128206186D01*
X134897867Y-128207153D01*
X134886250Y-128208806D01*
X134852748Y-128212771D01*
X134852747Y-128212771D01*
X134838791Y-128214423D01*
X134830622Y-128218346D01*
X134821687Y-128219833D01*
X134803590Y-128229598D01*
X134803584Y-128229600D01*
X134779632Y-128242524D01*
X134769184Y-128247848D01*
X134740762Y-128261497D01*
X134726101Y-128268537D01*
X134721869Y-128272094D01*
X134718399Y-128275564D01*
X134711671Y-128279194D01*
X134699100Y-128292793D01*
X134699098Y-128292795D01*
X134677122Y-128316569D01*
X134670345Y-128323618D01*
X133515570Y-129478393D01*
X133434788Y-129532369D01*
X133339500Y-129551323D01*
X133244212Y-129532369D01*
X133163430Y-129478393D01*
X133109454Y-129397611D01*
X133090500Y-129302323D01*
X133090500Y-127893677D01*
X133109454Y-127798389D01*
X133163430Y-127717607D01*
X135352607Y-125528430D01*
X135433389Y-125474454D01*
X135528677Y-125455500D01*
X135579234Y-125455500D01*
X135674522Y-125474454D01*
X135755304Y-125528430D01*
X135809940Y-125610821D01*
X135857020Y-125726767D01*
X135857024Y-125726775D01*
X135860867Y-125736239D01*
X135866204Y-125744949D01*
X135866207Y-125744954D01*
X135937059Y-125860573D01*
X135985493Y-125939609D01*
X136141660Y-126119894D01*
X136218152Y-126183399D01*
X136278473Y-126233478D01*
X136325176Y-126272252D01*
X136531112Y-126392591D01*
X136540655Y-126396235D01*
X136540661Y-126396238D01*
X136744388Y-126474034D01*
X136744393Y-126474035D01*
X136753937Y-126477680D01*
X136827266Y-126492599D01*
X136977653Y-126523196D01*
X136977655Y-126523196D01*
X136987666Y-126525233D01*
X137091566Y-126529043D01*
X137215813Y-126533599D01*
X137215818Y-126533599D01*
X137226025Y-126533973D01*
X137236156Y-126532675D01*
X137236160Y-126532675D01*
X137452479Y-126504963D01*
X137452482Y-126504962D01*
X137462609Y-126503665D01*
X137691068Y-126435125D01*
X137905264Y-126330191D01*
X138099445Y-126191683D01*
X138212629Y-126078894D01*
X138261163Y-126030529D01*
X138261164Y-126030528D01*
X138268397Y-126023320D01*
X138407582Y-125829623D01*
X138513263Y-125615795D01*
X138582600Y-125387577D01*
X138598429Y-125267347D01*
X138612869Y-125157663D01*
X138612869Y-125157660D01*
X138613733Y-125151099D01*
X138615471Y-125080000D01*
X138595927Y-124842284D01*
X138561742Y-124706187D01*
X138540312Y-124620867D01*
X138540310Y-124620861D01*
X138537821Y-124610952D01*
X138500784Y-124525772D01*
X138446790Y-124401594D01*
X138446788Y-124401591D01*
X138442712Y-124392216D01*
X138313155Y-124191951D01*
X138152629Y-124015536D01*
X138013829Y-123905918D01*
X137973463Y-123874039D01*
X137973461Y-123874038D01*
X137965445Y-123867707D01*
X137882232Y-123821771D01*
X137765577Y-123757374D01*
X137765573Y-123757372D01*
X137756631Y-123752436D01*
X137747005Y-123749027D01*
X137747000Y-123749025D01*
X137541429Y-123676229D01*
X137541430Y-123676229D01*
X137531794Y-123672817D01*
X137474477Y-123662607D01*
X137307035Y-123632780D01*
X137307029Y-123632779D01*
X137296972Y-123630988D01*
X137286751Y-123630863D01*
X137286750Y-123630863D01*
X137155398Y-123629258D01*
X137058471Y-123628074D01*
X137048370Y-123629620D01*
X137048366Y-123629620D01*
X136832798Y-123662607D01*
X136832793Y-123662608D01*
X136822698Y-123664153D01*
X136595982Y-123738255D01*
X136586911Y-123742977D01*
X136399571Y-123840500D01*
X136384414Y-123848390D01*
X136350253Y-123874039D01*
X136201852Y-123985462D01*
X136201848Y-123985465D01*
X136193675Y-123991602D01*
X136028887Y-124164042D01*
X136023127Y-124172486D01*
X135907064Y-124342628D01*
X135894475Y-124361082D01*
X135890173Y-124370350D01*
X135890169Y-124370357D01*
X135801984Y-124560337D01*
X135744673Y-124638788D01*
X135661702Y-124689334D01*
X135576130Y-124704500D01*
X135238807Y-124704500D01*
X135190652Y-124712515D01*
X135166987Y-124716454D01*
X135166986Y-124716454D01*
X135146687Y-124719833D01*
X135128578Y-124729604D01*
X135128575Y-124729605D01*
X135054785Y-124769420D01*
X135054784Y-124769421D01*
X135036671Y-124779194D01*
X135022700Y-124794308D01*
X135002122Y-124816569D01*
X134995345Y-124823618D01*
X132487093Y-127331870D01*
X132478602Y-127339970D01*
X132476083Y-127342262D01*
X132458790Y-127353428D01*
X132446048Y-127369591D01*
X132446047Y-127369592D01*
X132434305Y-127384487D01*
X132433539Y-127385424D01*
X132427425Y-127391538D01*
X132420527Y-127401191D01*
X132418032Y-127404682D01*
X132410986Y-127414067D01*
X132390098Y-127440562D01*
X132390097Y-127440565D01*
X132381397Y-127451600D01*
X132378395Y-127460149D01*
X132373128Y-127467519D01*
X132359428Y-127513330D01*
X132355813Y-127524452D01*
X132345168Y-127554764D01*
X132345167Y-127554769D01*
X132339977Y-127569548D01*
X132339500Y-127575055D01*
X132339500Y-127579964D01*
X132337310Y-127587287D01*
X132338037Y-127605792D01*
X132338037Y-127605794D01*
X132339308Y-127638137D01*
X132339500Y-127647913D01*
X132339500Y-143251323D01*
X132320546Y-143346611D01*
X132266570Y-143427393D01*
X130092393Y-145601570D01*
X130011611Y-145655546D01*
X129916323Y-145674500D01*
X126869773Y-145674500D01*
X126774485Y-145655546D01*
X126693703Y-145601570D01*
X126649921Y-145542401D01*
X126609218Y-145465849D01*
X126597311Y-145451249D01*
X126545685Y-145387950D01*
X126479011Y-145306200D01*
X126320275Y-145174882D01*
X126305191Y-145166726D01*
X126149764Y-145082687D01*
X126149761Y-145082686D01*
X126139055Y-145076897D01*
X126109800Y-145067841D01*
X125953891Y-145019579D01*
X125953889Y-145019579D01*
X125942254Y-145015977D01*
X125737369Y-144994443D01*
X125532203Y-145013114D01*
X125334572Y-145071280D01*
X125152002Y-145166726D01*
X124991447Y-145295815D01*
X124983619Y-145305144D01*
X124983617Y-145305146D01*
X124974817Y-145315634D01*
X124859024Y-145453630D01*
X124853160Y-145464296D01*
X124853159Y-145464298D01*
X124765639Y-145623497D01*
X124759776Y-145634162D01*
X124756098Y-145645756D01*
X124756096Y-145645761D01*
X124710583Y-145789239D01*
X124697484Y-145830532D01*
X124674520Y-146035262D01*
X124675539Y-146047397D01*
X124675539Y-146047399D01*
X124678573Y-146083529D01*
X124691759Y-146240553D01*
X124748544Y-146438586D01*
X124754112Y-146449421D01*
X124757840Y-146458836D01*
X124775295Y-146554410D01*
X124754847Y-146649389D01*
X124699609Y-146729313D01*
X124617990Y-146782014D01*
X124526326Y-146799500D01*
X122033677Y-146799500D01*
X121938389Y-146780546D01*
X121857607Y-146726570D01*
X121722082Y-146591045D01*
X121668106Y-146510263D01*
X121649152Y-146414975D01*
X121661881Y-146336380D01*
X121675507Y-146295419D01*
X121675507Y-146295417D01*
X121679351Y-146283863D01*
X121705171Y-146079474D01*
X121705583Y-146050000D01*
X121685480Y-145844970D01*
X121625935Y-145647749D01*
X121529218Y-145465849D01*
X121517311Y-145451249D01*
X121465685Y-145387950D01*
X121399011Y-145306200D01*
X121240275Y-145174882D01*
X121225191Y-145166726D01*
X121069764Y-145082687D01*
X121069761Y-145082686D01*
X121059055Y-145076897D01*
X121029800Y-145067841D01*
X120873891Y-145019579D01*
X120873889Y-145019579D01*
X120862254Y-145015977D01*
X120657369Y-144994443D01*
X120452203Y-145013114D01*
X120254572Y-145071280D01*
X120072002Y-145166726D01*
X119911447Y-145295815D01*
X119903619Y-145305144D01*
X119903617Y-145305146D01*
X119894817Y-145315634D01*
X119779024Y-145453630D01*
X119773160Y-145464296D01*
X119773159Y-145464298D01*
X119685639Y-145623497D01*
X119679776Y-145634162D01*
X119676098Y-145645756D01*
X119676096Y-145645761D01*
X119630583Y-145789239D01*
X119617484Y-145830532D01*
X119594520Y-146035262D01*
X116624138Y-146035262D01*
X116605480Y-145844970D01*
X116545935Y-145647749D01*
X116449218Y-145465849D01*
X116437311Y-145451249D01*
X116385685Y-145387950D01*
X116319011Y-145306200D01*
X116160275Y-145174882D01*
X116145191Y-145166726D01*
X115989764Y-145082687D01*
X115989761Y-145082686D01*
X115979055Y-145076897D01*
X115949800Y-145067841D01*
X115793891Y-145019579D01*
X115793889Y-145019579D01*
X115782254Y-145015977D01*
X115577369Y-144994443D01*
X115372203Y-145013114D01*
X115174572Y-145071280D01*
X114992002Y-145166726D01*
X114831447Y-145295815D01*
X114823619Y-145305144D01*
X114823617Y-145305146D01*
X114814817Y-145315634D01*
X114699024Y-145453630D01*
X114693160Y-145464296D01*
X114693159Y-145464298D01*
X114605639Y-145623497D01*
X114599776Y-145634162D01*
X114596098Y-145645756D01*
X114596096Y-145645761D01*
X114550583Y-145789239D01*
X114537484Y-145830532D01*
X114514520Y-146035262D01*
X114515539Y-146047397D01*
X114515539Y-146047399D01*
X114518573Y-146083529D01*
X114531759Y-146240553D01*
X114535115Y-146252255D01*
X114535116Y-146252263D01*
X114580018Y-146408854D01*
X114588063Y-146505675D01*
X114558444Y-146598205D01*
X114495670Y-146672357D01*
X114409297Y-146716841D01*
X114312476Y-146724886D01*
X114219946Y-146695267D01*
X114164594Y-146653557D01*
X113333130Y-145822093D01*
X113325030Y-145813602D01*
X113322738Y-145811083D01*
X113311572Y-145793790D01*
X113280512Y-145769304D01*
X113279576Y-145768539D01*
X113273462Y-145762425D01*
X113260318Y-145753032D01*
X113250933Y-145745986D01*
X113224438Y-145725098D01*
X113224435Y-145725097D01*
X113213400Y-145716397D01*
X113204851Y-145713395D01*
X113197481Y-145708128D01*
X113151670Y-145694428D01*
X113140548Y-145690813D01*
X113110236Y-145680168D01*
X113110231Y-145680167D01*
X113095452Y-145674977D01*
X113089945Y-145674500D01*
X113085036Y-145674500D01*
X113077713Y-145672310D01*
X113059208Y-145673037D01*
X113059206Y-145673037D01*
X113026863Y-145674308D01*
X113017087Y-145674500D01*
X111629773Y-145674500D01*
X111534485Y-145655546D01*
X111453703Y-145601570D01*
X111409921Y-145542401D01*
X111369218Y-145465849D01*
X111357311Y-145451249D01*
X111305685Y-145387950D01*
X111239011Y-145306200D01*
X111080275Y-145174882D01*
X111065191Y-145166726D01*
X110909764Y-145082687D01*
X110909761Y-145082686D01*
X110899055Y-145076897D01*
X110869800Y-145067841D01*
X110713891Y-145019579D01*
X110713889Y-145019579D01*
X110702254Y-145015977D01*
X110497369Y-144994443D01*
X110292203Y-145013114D01*
X110094572Y-145071280D01*
X109912002Y-145166726D01*
X109751447Y-145295815D01*
X109743619Y-145305144D01*
X109743617Y-145305146D01*
X109734817Y-145315634D01*
X109619024Y-145453630D01*
X109613160Y-145464296D01*
X109613159Y-145464298D01*
X109525639Y-145623497D01*
X109519776Y-145634162D01*
X109516098Y-145645756D01*
X109516096Y-145645761D01*
X109470583Y-145789239D01*
X109457484Y-145830532D01*
X109434520Y-146035262D01*
X109435539Y-146047397D01*
X109435539Y-146047399D01*
X109438573Y-146083529D01*
X109451759Y-146240553D01*
X109508544Y-146438586D01*
X109514110Y-146449416D01*
X109514111Y-146449419D01*
X109597146Y-146610988D01*
X109602712Y-146621818D01*
X109730677Y-146783270D01*
X109739950Y-146791162D01*
X109739952Y-146791164D01*
X109878292Y-146908900D01*
X109887564Y-146916791D01*
X110067398Y-147017297D01*
X110078978Y-147021060D01*
X110078979Y-147021060D01*
X110119251Y-147034145D01*
X110263329Y-147080959D01*
X110275417Y-147082400D01*
X110275420Y-147082401D01*
X110401803Y-147097470D01*
X110467894Y-147105351D01*
X110673300Y-147089546D01*
X110787382Y-147057694D01*
X110860004Y-147037418D01*
X110860008Y-147037416D01*
X110871725Y-147034145D01*
X110882585Y-147028659D01*
X110882588Y-147028658D01*
X110962285Y-146988400D01*
X111055610Y-146941258D01*
X111065202Y-146933764D01*
X111065205Y-146933762D01*
X111208353Y-146821923D01*
X111208355Y-146821922D01*
X111217951Y-146814424D01*
X111293784Y-146726570D01*
X111344606Y-146667692D01*
X111344608Y-146667689D01*
X111352564Y-146658472D01*
X111386801Y-146598205D01*
X111409661Y-146557963D01*
X111413328Y-146551508D01*
X111476875Y-146478018D01*
X111563709Y-146434440D01*
X111629832Y-146425500D01*
X112771323Y-146425500D01*
X112866611Y-146444454D01*
X112947393Y-146498430D01*
X118316393Y-151867430D01*
X118370369Y-151948212D01*
X118389323Y-152043500D01*
X118370369Y-152138788D01*
X118316393Y-152219570D01*
X118235611Y-152273546D01*
X118140323Y-152292500D01*
X97649114Y-152292500D01*
X97553826Y-152273546D01*
X97473044Y-152219570D01*
X95938430Y-150684956D01*
X95884454Y-150604174D01*
X95865500Y-150508886D01*
X95865500Y-149949710D01*
X96650500Y-149949710D01*
X96667988Y-149961046D01*
X96839526Y-150026551D01*
X96859095Y-150032236D01*
X97072710Y-150075696D01*
X97092937Y-150078108D01*
X97310790Y-150086097D01*
X97331138Y-150085173D01*
X97547369Y-150057472D01*
X97567292Y-150053238D01*
X97776100Y-149990592D01*
X97795057Y-149983163D01*
X97842166Y-149960085D01*
X97858719Y-149947452D01*
X97849638Y-149934744D01*
X97272342Y-149357449D01*
X97255000Y-149345861D01*
X97237658Y-149357449D01*
X96660778Y-149934328D01*
X96650500Y-149949710D01*
X95865500Y-149949710D01*
X95865500Y-149418533D01*
X95884454Y-149323245D01*
X95938430Y-149242464D01*
X96530551Y-148650342D01*
X96542139Y-148633000D01*
X97967861Y-148633000D01*
X97979449Y-148650342D01*
X98554044Y-149224938D01*
X98571386Y-149236526D01*
X98571494Y-149236454D01*
X98580408Y-149224025D01*
X98603270Y-149177768D01*
X98610765Y-149158838D01*
X98674140Y-148950247D01*
X98678444Y-148930340D01*
X98707368Y-148710636D01*
X98708394Y-148697460D01*
X98709807Y-148639626D01*
X98709426Y-148626394D01*
X98691269Y-148405548D01*
X98687943Y-148385455D01*
X98634834Y-148174020D01*
X98628273Y-148154748D01*
X98581105Y-148046271D01*
X98569862Y-148030064D01*
X98554759Y-148040347D01*
X97979449Y-148615658D01*
X97967861Y-148633000D01*
X96542139Y-148633000D01*
X96530551Y-148615658D01*
X95938970Y-148024076D01*
X95942264Y-148020782D01*
X95907432Y-147985934D01*
X95870273Y-147896166D01*
X95865500Y-147847646D01*
X95865500Y-147317534D01*
X96650397Y-147317534D01*
X96650809Y-147318948D01*
X96658382Y-147329276D01*
X97237658Y-147908551D01*
X97255000Y-147920139D01*
X97272342Y-147908551D01*
X97849273Y-147331621D01*
X97860861Y-147314279D01*
X97859172Y-147311751D01*
X97854353Y-147308127D01*
X97841803Y-147302487D01*
X97636293Y-147229711D01*
X97616607Y-147224510D01*
X97401988Y-147186281D01*
X97381703Y-147184363D01*
X97163732Y-147181700D01*
X97143399Y-147183122D01*
X96927918Y-147216095D01*
X96908097Y-147220817D01*
X96700892Y-147288543D01*
X96682113Y-147296436D01*
X96666663Y-147304479D01*
X96650397Y-147317534D01*
X95865500Y-147317534D01*
X95865500Y-146395103D01*
X95884454Y-146299815D01*
X95938430Y-146219033D01*
X96019212Y-146165057D01*
X96114500Y-146146103D01*
X96209788Y-146165057D01*
X96273552Y-146203523D01*
X96420176Y-146325252D01*
X96626112Y-146445591D01*
X96635655Y-146449235D01*
X96635661Y-146449238D01*
X96839388Y-146527034D01*
X96839393Y-146527035D01*
X96848937Y-146530680D01*
X96951309Y-146551508D01*
X97072653Y-146576196D01*
X97072655Y-146576196D01*
X97082666Y-146578233D01*
X97186566Y-146582043D01*
X97310813Y-146586599D01*
X97310818Y-146586599D01*
X97321025Y-146586973D01*
X97331156Y-146585675D01*
X97331160Y-146585675D01*
X97547479Y-146557963D01*
X97547482Y-146557962D01*
X97557609Y-146556665D01*
X97786068Y-146488125D01*
X98000264Y-146383191D01*
X98194445Y-146244683D01*
X98363397Y-146076320D01*
X98502582Y-145882623D01*
X98608263Y-145668795D01*
X98609720Y-145664001D01*
X98661235Y-145584217D01*
X98741159Y-145528979D01*
X98840048Y-145508500D01*
X102082797Y-145508500D01*
X102094525Y-145508776D01*
X102097945Y-145508937D01*
X102118066Y-145513269D01*
X102138505Y-145510850D01*
X102138506Y-145510850D01*
X102157321Y-145508623D01*
X102158545Y-145508500D01*
X102167193Y-145508500D01*
X102183163Y-145505842D01*
X102194752Y-145504193D01*
X102228253Y-145500228D01*
X102242210Y-145498576D01*
X102250377Y-145494654D01*
X102259313Y-145493167D01*
X102301381Y-145470468D01*
X102311837Y-145465141D01*
X102316894Y-145462713D01*
X102354900Y-145444463D01*
X102359131Y-145440906D01*
X102362601Y-145437436D01*
X102369329Y-145433806D01*
X102394154Y-145406951D01*
X102403878Y-145396431D01*
X102410655Y-145389382D01*
X102491607Y-145308430D01*
X102572389Y-145254454D01*
X102667677Y-145235500D01*
X106040193Y-145235500D01*
X106051921Y-145235776D01*
X106055341Y-145235937D01*
X106075462Y-145240269D01*
X106095901Y-145237850D01*
X106095902Y-145237850D01*
X106114717Y-145235623D01*
X106115941Y-145235500D01*
X106124589Y-145235500D01*
X106140559Y-145232842D01*
X106152148Y-145231193D01*
X106185649Y-145227228D01*
X106199606Y-145225576D01*
X106207773Y-145221654D01*
X106216709Y-145220167D01*
X106258777Y-145197468D01*
X106269233Y-145192141D01*
X106298164Y-145178249D01*
X106312296Y-145171463D01*
X106316527Y-145167906D01*
X106319997Y-145164436D01*
X106326725Y-145160806D01*
X106361274Y-145123431D01*
X106368051Y-145116382D01*
X109214760Y-142269674D01*
X128289500Y-142269674D01*
X128304034Y-142342740D01*
X128317659Y-142363132D01*
X128317660Y-142363134D01*
X128345771Y-142405205D01*
X128359399Y-142425601D01*
X128379795Y-142439229D01*
X128421866Y-142467340D01*
X128421868Y-142467341D01*
X128442260Y-142480966D01*
X128515326Y-142495500D01*
X130564674Y-142495500D01*
X130637740Y-142480966D01*
X130658132Y-142467341D01*
X130658134Y-142467340D01*
X130700205Y-142439229D01*
X130720601Y-142425601D01*
X130734229Y-142405205D01*
X130762340Y-142363134D01*
X130762341Y-142363132D01*
X130775966Y-142342740D01*
X130790500Y-142269674D01*
X130790500Y-140220326D01*
X130775966Y-140147260D01*
X130762341Y-140126868D01*
X130762340Y-140126866D01*
X130734229Y-140084795D01*
X130720601Y-140064399D01*
X130700205Y-140050771D01*
X130658134Y-140022660D01*
X130658132Y-140022659D01*
X130637740Y-140009034D01*
X130564674Y-139994500D01*
X130210216Y-139994500D01*
X130114928Y-139975546D01*
X130034146Y-139921570D01*
X130006246Y-139888319D01*
X129982970Y-139855077D01*
X129557341Y-139429448D01*
X129540000Y-139417861D01*
X129522659Y-139429448D01*
X129098965Y-139853142D01*
X129078456Y-139883836D01*
X129009758Y-139952535D01*
X128919998Y-139989715D01*
X128871420Y-139994500D01*
X128515326Y-139994500D01*
X128442260Y-140009034D01*
X128421868Y-140022659D01*
X128421866Y-140022660D01*
X128379795Y-140050771D01*
X128359399Y-140064399D01*
X128345771Y-140084795D01*
X128317660Y-140126866D01*
X128317659Y-140126868D01*
X128304034Y-140147260D01*
X128289500Y-140220326D01*
X128289500Y-142269674D01*
X109214760Y-142269674D01*
X110066004Y-141418430D01*
X110146786Y-141364454D01*
X110242074Y-141345500D01*
X120596797Y-141345500D01*
X120608525Y-141345776D01*
X120611945Y-141345937D01*
X120632066Y-141350269D01*
X120652505Y-141347850D01*
X120652506Y-141347850D01*
X120671321Y-141345623D01*
X120672545Y-141345500D01*
X120681193Y-141345500D01*
X120697163Y-141342842D01*
X120708752Y-141341193D01*
X120742253Y-141337228D01*
X120756210Y-141335576D01*
X120764377Y-141331654D01*
X120773313Y-141330167D01*
X120815381Y-141307468D01*
X120825837Y-141302141D01*
X120854768Y-141288249D01*
X120868900Y-141281463D01*
X120873131Y-141277906D01*
X120876601Y-141274436D01*
X120883329Y-141270806D01*
X120897178Y-141255825D01*
X120917878Y-141233431D01*
X120924655Y-141226382D01*
X123417907Y-138733130D01*
X123426398Y-138725030D01*
X123428917Y-138722738D01*
X123446210Y-138711572D01*
X123459934Y-138694164D01*
X123470695Y-138680513D01*
X123471461Y-138679576D01*
X123477575Y-138673462D01*
X123486968Y-138660318D01*
X123494014Y-138650933D01*
X123514902Y-138624437D01*
X123523603Y-138613400D01*
X123526605Y-138604851D01*
X123531872Y-138597481D01*
X123545573Y-138551670D01*
X123549190Y-138540538D01*
X123559831Y-138510237D01*
X123559831Y-138510236D01*
X123565023Y-138495452D01*
X123565500Y-138489945D01*
X123565500Y-138485037D01*
X123567690Y-138477714D01*
X123566410Y-138445124D01*
X123565692Y-138426864D01*
X123565500Y-138417088D01*
X123565500Y-137030476D01*
X123584454Y-136935188D01*
X123638430Y-136854406D01*
X123702230Y-136808223D01*
X123744740Y-136786749D01*
X123744741Y-136786748D01*
X123755610Y-136781258D01*
X123765202Y-136773764D01*
X123765205Y-136773762D01*
X123908353Y-136661923D01*
X123908355Y-136661922D01*
X123917951Y-136654424D01*
X124052564Y-136498472D01*
X124073387Y-136461818D01*
X124148306Y-136329936D01*
X124148306Y-136329935D01*
X124154323Y-136319344D01*
X124219351Y-136123863D01*
X124245171Y-135919474D01*
X124245583Y-135890000D01*
X124225480Y-135684970D01*
X124165935Y-135487749D01*
X124069218Y-135305849D01*
X123939011Y-135146200D01*
X123780275Y-135014882D01*
X123754749Y-135001080D01*
X123609764Y-134922687D01*
X123609761Y-134922686D01*
X123599055Y-134916897D01*
X123475586Y-134878677D01*
X123413891Y-134859579D01*
X123413889Y-134859579D01*
X123402254Y-134855977D01*
X123197369Y-134834443D01*
X122992203Y-134853114D01*
X122794572Y-134911280D01*
X122612002Y-135006726D01*
X122451447Y-135135815D01*
X122319024Y-135293630D01*
X122313160Y-135304296D01*
X122313159Y-135304298D01*
X122225639Y-135463497D01*
X122219776Y-135474162D01*
X122216098Y-135485756D01*
X122216096Y-135485761D01*
X122196602Y-135547215D01*
X122157484Y-135670532D01*
X122134520Y-135875262D01*
X122135539Y-135887397D01*
X122135539Y-135887399D01*
X122138811Y-135926359D01*
X122151759Y-136080553D01*
X122208544Y-136278586D01*
X122214110Y-136289416D01*
X122214111Y-136289419D01*
X122297146Y-136450988D01*
X122302712Y-136461818D01*
X122430677Y-136623270D01*
X122439950Y-136631162D01*
X122439952Y-136631164D01*
X122578292Y-136748900D01*
X122587564Y-136756791D01*
X122679419Y-136808127D01*
X122686977Y-136812351D01*
X122760909Y-136875384D01*
X122805092Y-136961911D01*
X122814500Y-137029709D01*
X122814500Y-138171323D01*
X122795546Y-138266611D01*
X122741570Y-138347393D01*
X122052440Y-139036523D01*
X121971658Y-139090499D01*
X121876370Y-139109453D01*
X121781082Y-139090499D01*
X121700300Y-139036523D01*
X121646324Y-138955741D01*
X121627370Y-138860453D01*
X121640100Y-138781856D01*
X121663480Y-138711572D01*
X121679351Y-138663863D01*
X121705171Y-138459474D01*
X121705583Y-138430000D01*
X121685480Y-138224970D01*
X121625935Y-138027749D01*
X121529218Y-137845849D01*
X121399011Y-137686200D01*
X121240275Y-137554882D01*
X121156071Y-137509353D01*
X121081265Y-137447359D01*
X121035878Y-137361457D01*
X121025500Y-137290320D01*
X121025500Y-134878677D01*
X121044454Y-134783389D01*
X121098430Y-134702607D01*
X122002607Y-133798430D01*
X122083389Y-133744454D01*
X122178677Y-133725500D01*
X125492323Y-133725500D01*
X125587611Y-133744454D01*
X125668393Y-133798430D01*
X125722369Y-133879212D01*
X125741323Y-133974500D01*
X125722369Y-134069788D01*
X125668393Y-134150570D01*
X125502093Y-134316870D01*
X125493602Y-134324970D01*
X125491083Y-134327262D01*
X125473790Y-134338428D01*
X125461048Y-134354591D01*
X125461047Y-134354592D01*
X125449305Y-134369487D01*
X125448539Y-134370424D01*
X125442425Y-134376538D01*
X125436452Y-134384897D01*
X125433032Y-134389682D01*
X125425986Y-134399067D01*
X125405098Y-134425562D01*
X125405097Y-134425565D01*
X125396397Y-134436600D01*
X125393395Y-134445149D01*
X125388128Y-134452519D01*
X125374428Y-134498330D01*
X125370813Y-134509452D01*
X125360168Y-134539764D01*
X125360167Y-134539769D01*
X125354977Y-134554548D01*
X125354500Y-134560055D01*
X125354500Y-134564964D01*
X125352310Y-134572287D01*
X125353037Y-134590792D01*
X125353037Y-134590794D01*
X125354308Y-134623137D01*
X125354500Y-134632913D01*
X125354500Y-137290063D01*
X125335546Y-137385351D01*
X125281570Y-137466133D01*
X125220864Y-137510726D01*
X125152002Y-137546726D01*
X124991447Y-137675815D01*
X124859024Y-137833630D01*
X124853160Y-137844296D01*
X124853159Y-137844298D01*
X124849737Y-137850523D01*
X124759776Y-138014162D01*
X124756098Y-138025756D01*
X124756096Y-138025761D01*
X124716577Y-138150342D01*
X124697484Y-138210532D01*
X124674520Y-138415262D01*
X124675539Y-138427397D01*
X124675539Y-138427399D01*
X124689936Y-138598839D01*
X124691759Y-138620553D01*
X124748544Y-138818586D01*
X124754110Y-138829416D01*
X124754111Y-138829419D01*
X124774934Y-138869936D01*
X124842712Y-139001818D01*
X124970677Y-139163270D01*
X125127564Y-139296791D01*
X125214606Y-139345437D01*
X125294222Y-139389933D01*
X125307398Y-139397297D01*
X125503329Y-139460959D01*
X125515417Y-139462400D01*
X125515420Y-139462401D01*
X125641803Y-139477470D01*
X125707894Y-139485351D01*
X125913300Y-139469546D01*
X126007751Y-139443175D01*
X126100004Y-139417418D01*
X126100008Y-139417416D01*
X126111725Y-139414145D01*
X126122585Y-139408659D01*
X126122588Y-139408658D01*
X126202285Y-139368400D01*
X126295610Y-139321258D01*
X126305202Y-139313764D01*
X126305205Y-139313762D01*
X126448353Y-139201923D01*
X126448355Y-139201922D01*
X126457951Y-139194424D01*
X126592564Y-139038472D01*
X126607963Y-139011366D01*
X126688306Y-138869936D01*
X126688306Y-138869935D01*
X126694323Y-138859344D01*
X126742062Y-138715836D01*
X128286173Y-138715836D01*
X128303340Y-138912057D01*
X128307101Y-138933387D01*
X128358084Y-139123658D01*
X128364739Y-139141942D01*
X128376203Y-139157577D01*
X128389923Y-139147970D01*
X128815552Y-138722341D01*
X128827139Y-138705000D01*
X130252861Y-138705000D01*
X130264448Y-138722341D01*
X130688139Y-139146032D01*
X130705079Y-139157351D01*
X130714605Y-139143746D01*
X130721916Y-139123658D01*
X130772899Y-138933387D01*
X130776660Y-138912057D01*
X130793827Y-138715836D01*
X130793827Y-138694164D01*
X130776660Y-138497943D01*
X130772899Y-138476613D01*
X130721916Y-138286342D01*
X130715261Y-138268058D01*
X130703797Y-138252423D01*
X130690077Y-138262030D01*
X130264448Y-138687659D01*
X130252861Y-138705000D01*
X128827139Y-138705000D01*
X128815552Y-138687659D01*
X128391861Y-138263968D01*
X128374921Y-138252649D01*
X128365395Y-138266254D01*
X128358084Y-138286342D01*
X128307101Y-138476613D01*
X128303340Y-138497943D01*
X128286173Y-138694164D01*
X128286173Y-138715836D01*
X126742062Y-138715836D01*
X126759351Y-138663863D01*
X126785171Y-138459474D01*
X126785583Y-138430000D01*
X126765480Y-138224970D01*
X126705935Y-138027749D01*
X126609218Y-137845849D01*
X126479011Y-137686200D01*
X126320275Y-137554882D01*
X126236071Y-137509353D01*
X126161265Y-137447359D01*
X126115878Y-137361457D01*
X126105500Y-137290320D01*
X126105500Y-134878677D01*
X126124454Y-134783389D01*
X126178430Y-134702607D01*
X126807607Y-134073430D01*
X126888389Y-134019454D01*
X126983677Y-134000500D01*
X128176694Y-134000500D01*
X128271982Y-134019454D01*
X128352764Y-134073430D01*
X128402364Y-134144268D01*
X128452898Y-134252638D01*
X128578402Y-134431877D01*
X128733123Y-134586598D01*
X128742026Y-134592832D01*
X128742032Y-134592837D01*
X128882269Y-134691033D01*
X128949453Y-134761214D01*
X128984665Y-134851764D01*
X128982546Y-134948895D01*
X128943416Y-135037822D01*
X128882269Y-135098969D01*
X128733123Y-135203402D01*
X128578402Y-135358123D01*
X128452898Y-135537362D01*
X128360425Y-135735670D01*
X128303793Y-135947023D01*
X128284723Y-136165000D01*
X128303793Y-136382977D01*
X128360425Y-136594330D01*
X128365022Y-136604188D01*
X128438952Y-136762730D01*
X128452898Y-136792638D01*
X128578402Y-136971877D01*
X128733123Y-137126598D01*
X128742021Y-137132828D01*
X128742024Y-137132831D01*
X128903462Y-137245871D01*
X128912361Y-137252102D01*
X128922203Y-137256691D01*
X128922211Y-137256696D01*
X128946799Y-137268161D01*
X129025149Y-137325609D01*
X129075551Y-137408668D01*
X129090331Y-137504692D01*
X129087670Y-137531713D01*
X129086501Y-137539309D01*
X129086718Y-137540195D01*
X129097030Y-137554923D01*
X129522659Y-137980552D01*
X129540000Y-137992139D01*
X129557341Y-137980552D01*
X129981032Y-137556861D01*
X129993865Y-137537654D01*
X129994082Y-137536565D01*
X129994083Y-137445316D01*
X130031263Y-137355556D01*
X130099963Y-137286858D01*
X130133064Y-137268225D01*
X130157791Y-137256694D01*
X130167639Y-137252102D01*
X130176538Y-137245871D01*
X130337976Y-137132831D01*
X130337979Y-137132828D01*
X130346877Y-137126598D01*
X130501598Y-136971877D01*
X130627102Y-136792638D01*
X130641049Y-136762730D01*
X130714978Y-136604188D01*
X130719575Y-136594330D01*
X130776207Y-136382977D01*
X130795277Y-136165000D01*
X130776207Y-135947023D01*
X130719575Y-135735670D01*
X130627102Y-135537362D01*
X130501598Y-135358123D01*
X130346877Y-135203402D01*
X130337978Y-135197171D01*
X130337971Y-135197165D01*
X130197732Y-135098969D01*
X130130548Y-135028788D01*
X130095335Y-134938239D01*
X130097454Y-134841107D01*
X130136583Y-134752180D01*
X130197732Y-134691031D01*
X130337971Y-134592835D01*
X130337978Y-134592829D01*
X130346877Y-134586598D01*
X130501598Y-134431877D01*
X130627102Y-134252638D01*
X130719575Y-134054330D01*
X130776207Y-133842977D01*
X130795277Y-133625000D01*
X130776207Y-133407023D01*
X130719575Y-133195670D01*
X130678012Y-133106538D01*
X130631697Y-133007215D01*
X130631695Y-133007211D01*
X130627102Y-132997362D01*
X130501598Y-132818123D01*
X130346877Y-132663402D01*
X130337978Y-132657171D01*
X130337971Y-132657165D01*
X130197732Y-132558969D01*
X130130548Y-132488788D01*
X130095335Y-132398239D01*
X130097454Y-132301107D01*
X130136583Y-132212180D01*
X130197732Y-132151031D01*
X130337971Y-132052835D01*
X130337978Y-132052829D01*
X130346877Y-132046598D01*
X130501598Y-131891877D01*
X130627102Y-131712638D01*
X130639736Y-131685546D01*
X130714978Y-131524188D01*
X130719575Y-131514330D01*
X130776207Y-131302977D01*
X130795277Y-131085000D01*
X130776207Y-130867023D01*
X130719575Y-130655670D01*
X130687880Y-130587700D01*
X130631697Y-130467215D01*
X130631695Y-130467211D01*
X130627102Y-130457362D01*
X130501598Y-130278123D01*
X130346877Y-130123402D01*
X130337978Y-130117171D01*
X130337971Y-130117165D01*
X130197732Y-130018969D01*
X130130548Y-129948788D01*
X130095335Y-129858239D01*
X130097454Y-129761107D01*
X130136583Y-129672180D01*
X130197732Y-129611031D01*
X130337971Y-129512835D01*
X130337978Y-129512829D01*
X130346877Y-129506598D01*
X130501598Y-129351877D01*
X130627102Y-129172638D01*
X130641049Y-129142730D01*
X130714978Y-128984188D01*
X130719575Y-128974330D01*
X130776207Y-128762977D01*
X130795277Y-128545000D01*
X130776207Y-128327023D01*
X130719575Y-128115670D01*
X130627102Y-127917362D01*
X130501598Y-127738123D01*
X130346877Y-127583402D01*
X130337978Y-127577171D01*
X130337971Y-127577165D01*
X130197732Y-127478969D01*
X130130548Y-127408788D01*
X130095335Y-127318239D01*
X130097454Y-127221107D01*
X130136583Y-127132180D01*
X130197732Y-127071031D01*
X130337971Y-126972835D01*
X130337978Y-126972829D01*
X130346877Y-126966598D01*
X130501598Y-126811877D01*
X130627102Y-126632638D01*
X130673111Y-126533973D01*
X130714978Y-126444188D01*
X130719575Y-126434330D01*
X130776207Y-126222977D01*
X130795277Y-126005000D01*
X130776207Y-125787023D01*
X130719575Y-125575670D01*
X130636426Y-125397357D01*
X130631697Y-125387215D01*
X130631695Y-125387211D01*
X130627102Y-125377362D01*
X130501598Y-125198123D01*
X130346877Y-125043402D01*
X130337978Y-125037171D01*
X130337971Y-125037165D01*
X130197732Y-124938969D01*
X130130548Y-124868788D01*
X130095335Y-124778239D01*
X130097454Y-124681107D01*
X130136583Y-124592180D01*
X130197732Y-124531031D01*
X130337971Y-124432835D01*
X130337978Y-124432829D01*
X130346877Y-124426598D01*
X130501598Y-124271877D01*
X130627102Y-124092638D01*
X130663056Y-124015536D01*
X130714978Y-123904188D01*
X130719575Y-123894330D01*
X130776207Y-123682977D01*
X130795277Y-123465000D01*
X130776207Y-123247023D01*
X130719575Y-123035670D01*
X130678012Y-122946538D01*
X130654777Y-122896710D01*
X136555500Y-122896710D01*
X136572988Y-122908046D01*
X136744526Y-122973551D01*
X136764095Y-122979236D01*
X136977710Y-123022696D01*
X136997937Y-123025108D01*
X137215790Y-123033097D01*
X137236138Y-123032173D01*
X137452369Y-123004472D01*
X137472292Y-123000238D01*
X137681100Y-122937592D01*
X137700057Y-122930163D01*
X137747166Y-122907085D01*
X137763719Y-122894452D01*
X137754638Y-122881744D01*
X137177342Y-122304449D01*
X137160000Y-122292861D01*
X137142658Y-122304449D01*
X136565778Y-122881328D01*
X136555500Y-122896710D01*
X130654777Y-122896710D01*
X130631697Y-122847215D01*
X130631695Y-122847211D01*
X130627102Y-122837362D01*
X130501598Y-122658123D01*
X130346877Y-122503402D01*
X130337978Y-122497171D01*
X130337971Y-122497165D01*
X130197732Y-122398969D01*
X130130548Y-122328788D01*
X130095335Y-122238239D01*
X130097454Y-122141107D01*
X130136583Y-122052180D01*
X130197732Y-121991031D01*
X130337971Y-121892835D01*
X130337978Y-121892829D01*
X130346877Y-121886598D01*
X130501598Y-121731877D01*
X130625687Y-121554659D01*
X135706054Y-121554659D01*
X135718603Y-121772288D01*
X135721438Y-121792465D01*
X135769363Y-122005126D01*
X135775455Y-122024563D01*
X135833481Y-122167467D01*
X135843970Y-122183403D01*
X135860359Y-122172535D01*
X136435551Y-121597342D01*
X136447139Y-121580000D01*
X137872861Y-121580000D01*
X137884449Y-121597342D01*
X138459044Y-122171938D01*
X138476386Y-122183526D01*
X138476494Y-122183454D01*
X138485408Y-122171025D01*
X138508270Y-122124768D01*
X138515765Y-122105838D01*
X138579140Y-121897247D01*
X138583444Y-121877340D01*
X138612368Y-121657636D01*
X138613394Y-121644460D01*
X138614807Y-121586626D01*
X138614426Y-121573394D01*
X138596269Y-121352548D01*
X138592943Y-121332455D01*
X138539834Y-121121020D01*
X138533273Y-121101748D01*
X138486105Y-120993271D01*
X138474862Y-120977064D01*
X138459759Y-120987347D01*
X137884449Y-121562658D01*
X137872861Y-121580000D01*
X136447139Y-121580000D01*
X136435551Y-121562658D01*
X135861312Y-120988418D01*
X135844406Y-120977122D01*
X135834752Y-120990935D01*
X135798823Y-121068336D01*
X135791792Y-121087447D01*
X135733533Y-121297523D01*
X135729718Y-121317523D01*
X135706551Y-121534286D01*
X135706054Y-121554659D01*
X130625687Y-121554659D01*
X130627102Y-121552638D01*
X130653155Y-121496769D01*
X130714978Y-121364188D01*
X130719575Y-121354330D01*
X130776207Y-121142977D01*
X130789729Y-120988418D01*
X130794330Y-120935825D01*
X130795277Y-120925000D01*
X130776207Y-120707023D01*
X130719575Y-120495670D01*
X130688078Y-120428125D01*
X130631697Y-120307215D01*
X130631695Y-120307211D01*
X130627102Y-120297362D01*
X130604116Y-120264534D01*
X136555397Y-120264534D01*
X136555809Y-120265948D01*
X136563382Y-120276276D01*
X137142658Y-120855551D01*
X137160000Y-120867139D01*
X137177342Y-120855551D01*
X137754273Y-120278621D01*
X137765861Y-120261279D01*
X137764172Y-120258751D01*
X137759353Y-120255127D01*
X137746803Y-120249487D01*
X137541293Y-120176711D01*
X137521607Y-120171510D01*
X137306988Y-120133281D01*
X137286703Y-120131363D01*
X137068732Y-120128700D01*
X137048399Y-120130122D01*
X136832918Y-120163095D01*
X136813097Y-120167817D01*
X136605892Y-120235543D01*
X136587113Y-120243436D01*
X136571663Y-120251479D01*
X136555397Y-120264534D01*
X130604116Y-120264534D01*
X130501598Y-120118123D01*
X130346877Y-119963402D01*
X130337978Y-119957171D01*
X130337971Y-119957165D01*
X130197732Y-119858969D01*
X130130548Y-119788788D01*
X130095335Y-119698239D01*
X130097454Y-119601107D01*
X130136583Y-119512180D01*
X130197732Y-119451031D01*
X130337971Y-119352835D01*
X130337978Y-119352829D01*
X130346877Y-119346598D01*
X130501598Y-119191877D01*
X130627102Y-119012638D01*
X130719575Y-118814330D01*
X130776207Y-118602977D01*
X130795277Y-118385000D01*
X130776207Y-118167023D01*
X130719575Y-117955670D01*
X130627102Y-117757362D01*
X130501598Y-117578123D01*
X130346877Y-117423402D01*
X130337978Y-117417171D01*
X130337971Y-117417165D01*
X130197732Y-117318969D01*
X130130548Y-117248788D01*
X130095335Y-117158239D01*
X130097454Y-117061107D01*
X130136583Y-116972180D01*
X130197732Y-116911031D01*
X130337971Y-116812835D01*
X130337978Y-116812829D01*
X130346877Y-116806598D01*
X130501598Y-116651877D01*
X130627102Y-116472638D01*
X130644955Y-116434354D01*
X130708702Y-116297647D01*
X130719575Y-116274330D01*
X130721965Y-116265410D01*
X136867013Y-116265410D01*
X136877141Y-116272177D01*
X136921858Y-116286706D01*
X136945529Y-116291910D01*
X137125812Y-116313408D01*
X137150044Y-116313916D01*
X137331067Y-116299987D01*
X137354948Y-116295776D01*
X137435857Y-116273185D01*
X137453052Y-116264481D01*
X137448620Y-116255727D01*
X137177341Y-115984448D01*
X137160000Y-115972861D01*
X137142659Y-115984448D01*
X136877718Y-116249389D01*
X136867013Y-116265410D01*
X130721965Y-116265410D01*
X130776207Y-116062977D01*
X130795277Y-115845000D01*
X130776207Y-115627023D01*
X130719575Y-115415670D01*
X130663940Y-115296360D01*
X130645775Y-115257406D01*
X136106041Y-115257406D01*
X136121233Y-115438327D01*
X136125609Y-115462171D01*
X136146730Y-115535828D01*
X136155553Y-115552959D01*
X136164587Y-115548306D01*
X136435552Y-115277341D01*
X136447139Y-115260000D01*
X136435552Y-115242659D01*
X136170736Y-114977843D01*
X136154715Y-114967138D01*
X136148194Y-114976898D01*
X136131660Y-115029019D01*
X136126617Y-115052747D01*
X136106380Y-115233163D01*
X136106041Y-115257406D01*
X130645775Y-115257406D01*
X130631697Y-115227215D01*
X130631695Y-115227211D01*
X130627102Y-115217362D01*
X130501598Y-115038123D01*
X130346877Y-114883402D01*
X130337978Y-114877171D01*
X130337971Y-114877165D01*
X130197732Y-114778969D01*
X130130548Y-114708788D01*
X130095335Y-114618239D01*
X130097454Y-114521107D01*
X130136583Y-114432180D01*
X130197732Y-114371031D01*
X130337971Y-114272835D01*
X130337978Y-114272829D01*
X130346877Y-114266598D01*
X130501598Y-114111877D01*
X130627102Y-113932638D01*
X130719575Y-113734330D01*
X130776207Y-113522977D01*
X130795277Y-113305000D01*
X130776207Y-113087023D01*
X130719575Y-112875670D01*
X130658470Y-112744631D01*
X130631697Y-112687215D01*
X130631695Y-112687211D01*
X130627102Y-112677362D01*
X130501598Y-112498123D01*
X130346877Y-112343402D01*
X130337978Y-112337171D01*
X130337971Y-112337165D01*
X130197732Y-112238969D01*
X130130548Y-112168788D01*
X130095335Y-112078239D01*
X130097454Y-111981107D01*
X130136583Y-111892180D01*
X130197732Y-111831031D01*
X130337971Y-111732835D01*
X130337978Y-111732829D01*
X130346877Y-111726598D01*
X130501598Y-111571877D01*
X130627102Y-111392638D01*
X130640091Y-111364785D01*
X130714978Y-111204188D01*
X130719575Y-111194330D01*
X130776207Y-110982977D01*
X130795277Y-110765000D01*
X130776207Y-110547023D01*
X130719575Y-110335670D01*
X130651937Y-110190620D01*
X130631697Y-110147215D01*
X130631695Y-110147211D01*
X130627102Y-110137362D01*
X130501598Y-109958123D01*
X130346877Y-109803402D01*
X130337978Y-109797171D01*
X130337971Y-109797165D01*
X130197732Y-109698969D01*
X130130548Y-109628788D01*
X130095335Y-109538239D01*
X130097454Y-109441107D01*
X130136583Y-109352180D01*
X130197732Y-109291031D01*
X130337971Y-109192835D01*
X130337978Y-109192829D01*
X130346877Y-109186598D01*
X130501598Y-109031877D01*
X130627102Y-108852638D01*
X130672952Y-108754314D01*
X130714978Y-108664188D01*
X130719575Y-108654330D01*
X130776207Y-108442977D01*
X130795277Y-108225000D01*
X130781961Y-108072796D01*
X134533410Y-108072796D01*
X134537027Y-108091317D01*
X134587471Y-108215546D01*
X134596653Y-108233724D01*
X134710560Y-108419602D01*
X134722588Y-108436036D01*
X134865320Y-108600810D01*
X134879879Y-108615067D01*
X135047602Y-108754314D01*
X135064282Y-108765994D01*
X135252504Y-108875981D01*
X135270879Y-108884785D01*
X135367088Y-108921524D01*
X135386796Y-108924875D01*
X135389835Y-108908396D01*
X136390000Y-108908396D01*
X136394069Y-108928854D01*
X136396396Y-108929316D01*
X136407409Y-108927700D01*
X136411097Y-108926593D01*
X136430059Y-108919162D01*
X136625836Y-108823252D01*
X136643322Y-108812828D01*
X136820799Y-108686236D01*
X136836362Y-108673084D01*
X136990777Y-108519207D01*
X137003975Y-108503700D01*
X137131194Y-108326655D01*
X137141676Y-108309209D01*
X137238268Y-108113771D01*
X137245766Y-108094833D01*
X137246487Y-108092462D01*
X137248540Y-108071711D01*
X137246645Y-108070697D01*
X137235221Y-108069000D01*
X136414527Y-108069000D01*
X136394069Y-108073069D01*
X136390000Y-108093527D01*
X136390000Y-108908396D01*
X135389835Y-108908396D01*
X135390000Y-108907503D01*
X135390000Y-108093527D01*
X135385931Y-108073069D01*
X135365473Y-108069000D01*
X134552492Y-108069000D01*
X134533410Y-108072796D01*
X130781961Y-108072796D01*
X130776207Y-108007023D01*
X130719575Y-107795670D01*
X130627102Y-107597362D01*
X130501598Y-107418123D01*
X130346877Y-107263402D01*
X130337978Y-107257171D01*
X130337971Y-107257165D01*
X130197732Y-107158969D01*
X130130548Y-107088788D01*
X130121751Y-107066167D01*
X134528864Y-107066167D01*
X134532179Y-107067838D01*
X134540722Y-107069000D01*
X135365473Y-107069000D01*
X135385931Y-107064931D01*
X135390000Y-107044473D01*
X136390000Y-107044473D01*
X136394069Y-107064931D01*
X136414527Y-107069000D01*
X137229290Y-107069000D01*
X137247725Y-107065333D01*
X137243601Y-107045506D01*
X137176341Y-106890819D01*
X137166719Y-106872875D01*
X137048306Y-106689836D01*
X137035883Y-106673703D01*
X136889158Y-106512456D01*
X136874275Y-106498576D01*
X136703188Y-106363459D01*
X136686217Y-106352184D01*
X136495378Y-106246836D01*
X136476789Y-106238482D01*
X136413115Y-106215934D01*
X136392750Y-106212981D01*
X136390000Y-106228987D01*
X136390000Y-107044473D01*
X135390000Y-107044473D01*
X135390000Y-106231384D01*
X135385931Y-106210926D01*
X135385142Y-106210769D01*
X135371271Y-106212979D01*
X135335892Y-106224543D01*
X135317111Y-106232437D01*
X135123743Y-106333098D01*
X135106516Y-106343946D01*
X134932178Y-106474843D01*
X134916948Y-106488364D01*
X134766333Y-106645975D01*
X134753522Y-106661794D01*
X134630664Y-106841898D01*
X134620614Y-106859590D01*
X134529653Y-107055547D01*
X134528864Y-107066167D01*
X130121751Y-107066167D01*
X130095335Y-106998239D01*
X130097454Y-106901107D01*
X130136583Y-106812180D01*
X130197732Y-106751031D01*
X130337971Y-106652835D01*
X130337978Y-106652829D01*
X130346877Y-106646598D01*
X130501598Y-106491877D01*
X130627102Y-106312638D01*
X130666110Y-106228987D01*
X130714978Y-106124188D01*
X130719575Y-106114330D01*
X130776207Y-105902977D01*
X130795277Y-105685000D01*
X130776207Y-105467023D01*
X130719575Y-105255670D01*
X130627102Y-105057362D01*
X130501598Y-104878123D01*
X130346877Y-104723402D01*
X130337979Y-104717172D01*
X130337976Y-104717169D01*
X130176538Y-104604129D01*
X130176537Y-104604128D01*
X130167639Y-104597898D01*
X129969330Y-104505425D01*
X129958827Y-104502611D01*
X129958825Y-104502610D01*
X129878976Y-104481215D01*
X129757977Y-104448793D01*
X129540000Y-104429723D01*
X129322023Y-104448793D01*
X129110670Y-104505425D01*
X129100811Y-104510022D01*
X129100812Y-104510022D01*
X128922215Y-104593303D01*
X128922211Y-104593305D01*
X128912362Y-104597898D01*
X128733123Y-104723402D01*
X128578402Y-104878123D01*
X128452898Y-105057362D01*
X128360425Y-105255670D01*
X128303793Y-105467023D01*
X128284723Y-105685000D01*
X128303793Y-105902977D01*
X128360425Y-106114330D01*
X128365022Y-106124188D01*
X128413891Y-106228987D01*
X128452898Y-106312638D01*
X128578402Y-106491877D01*
X128733123Y-106646598D01*
X128742026Y-106652832D01*
X128742032Y-106652837D01*
X128882269Y-106751033D01*
X128949453Y-106821214D01*
X128984665Y-106911764D01*
X128982546Y-107008895D01*
X128943416Y-107097822D01*
X128882269Y-107158969D01*
X128733123Y-107263402D01*
X128578402Y-107418123D01*
X128452898Y-107597362D01*
X128360425Y-107795670D01*
X128303793Y-108007023D01*
X128284723Y-108225000D01*
X128303793Y-108442977D01*
X128360425Y-108654330D01*
X128365022Y-108664188D01*
X128407049Y-108754314D01*
X128452898Y-108852638D01*
X128578402Y-109031877D01*
X128733123Y-109186598D01*
X128742026Y-109192832D01*
X128742032Y-109192837D01*
X128882269Y-109291033D01*
X128949453Y-109361214D01*
X128984665Y-109451764D01*
X128982546Y-109548895D01*
X128943416Y-109637822D01*
X128882269Y-109698969D01*
X128733123Y-109803402D01*
X128578402Y-109958123D01*
X128452898Y-110137362D01*
X128448305Y-110147211D01*
X128448303Y-110147215D01*
X128428063Y-110190620D01*
X128360425Y-110335670D01*
X128303793Y-110547023D01*
X128284723Y-110765000D01*
X128303793Y-110982977D01*
X128360425Y-111194330D01*
X128365022Y-111204188D01*
X128439910Y-111364785D01*
X128452898Y-111392638D01*
X128578402Y-111571877D01*
X128733123Y-111726598D01*
X128742026Y-111732832D01*
X128742032Y-111732837D01*
X128882269Y-111831033D01*
X128949453Y-111901214D01*
X128984665Y-111991764D01*
X128982546Y-112088895D01*
X128943416Y-112177822D01*
X128882269Y-112238969D01*
X128733123Y-112343402D01*
X128578402Y-112498123D01*
X128452898Y-112677362D01*
X128448305Y-112687211D01*
X128448303Y-112687215D01*
X128421530Y-112744631D01*
X128360425Y-112875670D01*
X128303793Y-113087023D01*
X128284723Y-113305000D01*
X128303793Y-113522977D01*
X128360425Y-113734330D01*
X128452898Y-113932638D01*
X128578402Y-114111877D01*
X128733123Y-114266598D01*
X128742026Y-114272832D01*
X128742032Y-114272837D01*
X128882269Y-114371033D01*
X128949453Y-114441214D01*
X128984665Y-114531764D01*
X128982546Y-114628895D01*
X128943416Y-114717822D01*
X128882269Y-114778969D01*
X128733123Y-114883402D01*
X128578402Y-115038123D01*
X128452898Y-115217362D01*
X128448305Y-115227211D01*
X128448303Y-115227215D01*
X128416060Y-115296360D01*
X128360425Y-115415670D01*
X128303793Y-115627023D01*
X128284723Y-115845000D01*
X128303793Y-116062977D01*
X128360425Y-116274330D01*
X128371298Y-116297647D01*
X128435046Y-116434354D01*
X128452898Y-116472638D01*
X128578402Y-116651877D01*
X128733123Y-116806598D01*
X128742026Y-116812832D01*
X128742032Y-116812837D01*
X128882269Y-116911033D01*
X128949453Y-116981214D01*
X128984665Y-117071764D01*
X128982546Y-117168895D01*
X128943416Y-117257822D01*
X128882269Y-117318969D01*
X128733123Y-117423402D01*
X128578402Y-117578123D01*
X128452898Y-117757362D01*
X128360425Y-117955670D01*
X128303793Y-118167023D01*
X128284723Y-118385000D01*
X128303793Y-118602977D01*
X128360425Y-118814330D01*
X128452898Y-119012638D01*
X128578402Y-119191877D01*
X128733123Y-119346598D01*
X128742026Y-119352832D01*
X128742032Y-119352837D01*
X128882269Y-119451033D01*
X128949453Y-119521214D01*
X128984665Y-119611764D01*
X128982546Y-119708895D01*
X128943416Y-119797822D01*
X128882269Y-119858969D01*
X128733123Y-119963402D01*
X128578402Y-120118123D01*
X128452898Y-120297362D01*
X128448305Y-120307211D01*
X128448303Y-120307215D01*
X128402364Y-120405732D01*
X128344916Y-120484082D01*
X128261857Y-120534484D01*
X128176694Y-120549500D01*
X128048204Y-120549500D01*
X128036476Y-120549224D01*
X128033055Y-120549063D01*
X128012934Y-120544731D01*
X127973672Y-120549377D01*
X127972452Y-120549500D01*
X127963807Y-120549500D01*
X127953680Y-120551185D01*
X127953673Y-120551186D01*
X127947849Y-120552155D01*
X127936241Y-120553807D01*
X127902747Y-120557771D01*
X127902746Y-120557771D01*
X127888791Y-120559423D01*
X127880622Y-120563346D01*
X127871687Y-120564833D01*
X127829619Y-120587532D01*
X127819189Y-120592847D01*
X127776100Y-120613537D01*
X127771869Y-120617094D01*
X127768399Y-120620564D01*
X127761671Y-120624194D01*
X127749100Y-120637793D01*
X127749098Y-120637795D01*
X127727122Y-120661569D01*
X127720345Y-120668618D01*
X125502093Y-122886870D01*
X125493602Y-122894970D01*
X125491083Y-122897262D01*
X125473790Y-122908428D01*
X125461048Y-122924591D01*
X125461047Y-122924592D01*
X125449305Y-122939487D01*
X125448539Y-122940424D01*
X125442425Y-122946538D01*
X125436452Y-122954897D01*
X125433032Y-122959682D01*
X125425986Y-122969067D01*
X125405098Y-122995562D01*
X125405097Y-122995565D01*
X125396397Y-123006600D01*
X125393395Y-123015149D01*
X125388128Y-123022519D01*
X125374428Y-123068330D01*
X125370813Y-123079452D01*
X125360168Y-123109764D01*
X125360167Y-123109769D01*
X125354977Y-123124548D01*
X125354500Y-123130055D01*
X125354500Y-123134964D01*
X125352310Y-123142287D01*
X125353037Y-123160792D01*
X125353037Y-123160794D01*
X125354308Y-123193137D01*
X125354500Y-123202913D01*
X125354500Y-129281323D01*
X125335546Y-129376611D01*
X125281570Y-129457393D01*
X124377393Y-130361570D01*
X124296611Y-130415546D01*
X124201323Y-130434500D01*
X113083188Y-130434500D01*
X113071457Y-130434224D01*
X113068057Y-130434064D01*
X113047933Y-130429731D01*
X113027494Y-130432150D01*
X113027491Y-130432150D01*
X113008678Y-130434377D01*
X113007454Y-130434500D01*
X112998807Y-130434500D01*
X112988676Y-130436186D01*
X112988667Y-130436187D01*
X112982853Y-130437155D01*
X112971240Y-130438808D01*
X112937747Y-130442772D01*
X112923790Y-130444424D01*
X112915623Y-130448346D01*
X112906687Y-130449833D01*
X112874473Y-130467215D01*
X112864621Y-130472531D01*
X112854166Y-130477858D01*
X112811100Y-130498537D01*
X112806869Y-130502094D01*
X112803399Y-130505564D01*
X112796671Y-130509194D01*
X112784100Y-130522793D01*
X112784098Y-130522795D01*
X112762122Y-130546569D01*
X112755345Y-130553618D01*
X110262093Y-133046870D01*
X110253602Y-133054970D01*
X110251083Y-133057262D01*
X110233790Y-133068428D01*
X110221048Y-133084591D01*
X110221047Y-133084592D01*
X110209305Y-133099487D01*
X110208539Y-133100424D01*
X110202425Y-133106538D01*
X110196452Y-133114897D01*
X110193032Y-133119682D01*
X110185986Y-133129067D01*
X110165098Y-133155562D01*
X110165097Y-133155565D01*
X110156397Y-133166600D01*
X110153395Y-133175149D01*
X110148128Y-133182519D01*
X110134428Y-133228330D01*
X110130813Y-133239452D01*
X110120168Y-133269764D01*
X110120167Y-133269769D01*
X110114977Y-133284548D01*
X110114500Y-133290055D01*
X110114500Y-133294964D01*
X110112310Y-133302287D01*
X110113037Y-133320792D01*
X110113037Y-133320794D01*
X110114308Y-133353137D01*
X110114500Y-133362913D01*
X110114500Y-137290063D01*
X110095546Y-137385351D01*
X110041570Y-137466133D01*
X109980864Y-137510726D01*
X109912002Y-137546726D01*
X109751447Y-137675815D01*
X109619024Y-137833630D01*
X109613160Y-137844296D01*
X109613159Y-137844298D01*
X109609737Y-137850523D01*
X109519776Y-138014162D01*
X109516098Y-138025756D01*
X109516096Y-138025761D01*
X109476577Y-138150342D01*
X109457484Y-138210532D01*
X109434520Y-138415262D01*
X109435539Y-138427397D01*
X109435539Y-138427399D01*
X109449936Y-138598839D01*
X109451759Y-138620553D01*
X109508544Y-138818586D01*
X109514110Y-138829416D01*
X109514111Y-138829419D01*
X109534934Y-138869936D01*
X109602712Y-139001818D01*
X109610271Y-139011355D01*
X109610278Y-139011366D01*
X109650779Y-139062465D01*
X109695113Y-139148915D01*
X109702989Y-139245750D01*
X109673208Y-139338228D01*
X109621219Y-139398777D01*
X109621670Y-139399194D01*
X109610297Y-139411497D01*
X109610281Y-139411516D01*
X109607704Y-139414303D01*
X109607698Y-139414308D01*
X109570054Y-139455032D01*
X109563278Y-139462081D01*
X108750570Y-140274789D01*
X108669788Y-140328765D01*
X108574500Y-140347719D01*
X108479212Y-140328765D01*
X108398430Y-140274789D01*
X108344454Y-140194007D01*
X108325500Y-140098719D01*
X108325500Y-137030476D01*
X108344454Y-136935188D01*
X108398430Y-136854406D01*
X108462230Y-136808223D01*
X108504740Y-136786749D01*
X108504741Y-136786748D01*
X108515610Y-136781258D01*
X108525202Y-136773764D01*
X108525205Y-136773762D01*
X108668353Y-136661923D01*
X108668355Y-136661922D01*
X108677951Y-136654424D01*
X108812564Y-136498472D01*
X108833387Y-136461818D01*
X108908306Y-136329936D01*
X108908306Y-136329935D01*
X108914323Y-136319344D01*
X108979351Y-136123863D01*
X109005171Y-135919474D01*
X109005583Y-135890000D01*
X108985480Y-135684970D01*
X108925935Y-135487749D01*
X108829218Y-135305849D01*
X108699011Y-135146200D01*
X108540275Y-135014882D01*
X108514749Y-135001080D01*
X108369764Y-134922687D01*
X108369761Y-134922686D01*
X108359055Y-134916897D01*
X108235586Y-134878677D01*
X108173891Y-134859579D01*
X108173889Y-134859579D01*
X108162254Y-134855977D01*
X107957369Y-134834443D01*
X107752203Y-134853114D01*
X107554572Y-134911280D01*
X107372002Y-135006726D01*
X107211447Y-135135815D01*
X107079024Y-135293630D01*
X107073160Y-135304296D01*
X107073159Y-135304298D01*
X106985639Y-135463497D01*
X106979776Y-135474162D01*
X106976098Y-135485756D01*
X106976096Y-135485761D01*
X106956602Y-135547215D01*
X106917484Y-135670532D01*
X106894520Y-135875262D01*
X106895539Y-135887397D01*
X106895539Y-135887399D01*
X106898811Y-135926359D01*
X106911759Y-136080553D01*
X106968544Y-136278586D01*
X106974110Y-136289416D01*
X106974111Y-136289419D01*
X107057146Y-136450988D01*
X107062712Y-136461818D01*
X107190677Y-136623270D01*
X107199950Y-136631162D01*
X107199952Y-136631164D01*
X107338292Y-136748900D01*
X107347564Y-136756791D01*
X107439419Y-136808127D01*
X107446977Y-136812351D01*
X107520909Y-136875384D01*
X107565092Y-136961911D01*
X107574500Y-137029709D01*
X107574500Y-140711323D01*
X107555546Y-140806611D01*
X107501570Y-140887393D01*
X105327393Y-143061570D01*
X105246611Y-143115546D01*
X105151323Y-143134500D01*
X103128677Y-143134500D01*
X103033389Y-143115546D01*
X102952607Y-143061570D01*
X101136037Y-141245000D01*
X102884723Y-141245000D01*
X102903793Y-141462977D01*
X102960425Y-141674330D01*
X102965022Y-141684188D01*
X103040261Y-141845537D01*
X103052898Y-141872638D01*
X103178402Y-142051877D01*
X103333123Y-142206598D01*
X103342021Y-142212828D01*
X103342024Y-142212831D01*
X103503462Y-142325871D01*
X103512361Y-142332102D01*
X103710670Y-142424575D01*
X103721173Y-142427389D01*
X103721175Y-142427390D01*
X103765359Y-142439229D01*
X103922023Y-142481207D01*
X104140000Y-142500277D01*
X104357977Y-142481207D01*
X104514641Y-142439229D01*
X104558825Y-142427390D01*
X104558827Y-142427389D01*
X104569330Y-142424575D01*
X104767639Y-142332102D01*
X104776538Y-142325871D01*
X104937976Y-142212831D01*
X104937979Y-142212828D01*
X104946877Y-142206598D01*
X105101598Y-142051877D01*
X105227102Y-141872638D01*
X105239740Y-141845537D01*
X105314978Y-141684188D01*
X105319575Y-141674330D01*
X105376207Y-141462977D01*
X105395277Y-141245000D01*
X105376207Y-141027023D01*
X105319575Y-140815670D01*
X105227102Y-140617362D01*
X105101598Y-140438123D01*
X104946877Y-140283402D01*
X104937979Y-140277172D01*
X104937976Y-140277169D01*
X104776538Y-140164129D01*
X104776537Y-140164128D01*
X104767639Y-140157898D01*
X104757796Y-140153308D01*
X104757789Y-140153304D01*
X104733201Y-140141839D01*
X104654851Y-140084391D01*
X104604449Y-140001332D01*
X104589669Y-139905308D01*
X104592330Y-139878287D01*
X104593499Y-139870691D01*
X104593282Y-139869805D01*
X104582970Y-139855077D01*
X104157341Y-139429448D01*
X104140000Y-139417861D01*
X104122659Y-139429448D01*
X103698968Y-139853139D01*
X103686135Y-139872346D01*
X103685918Y-139873435D01*
X103685919Y-139964681D01*
X103648740Y-140054441D01*
X103580042Y-140123141D01*
X103546944Y-140141772D01*
X103512362Y-140157898D01*
X103333123Y-140283402D01*
X103178402Y-140438123D01*
X103052898Y-140617362D01*
X102960425Y-140815670D01*
X102903793Y-141027023D01*
X102884723Y-141245000D01*
X101136037Y-141245000D01*
X100778430Y-140887393D01*
X100724454Y-140806611D01*
X100705500Y-140711323D01*
X100705500Y-138715836D01*
X102886173Y-138715836D01*
X102903340Y-138912057D01*
X102907101Y-138933387D01*
X102958084Y-139123658D01*
X102964739Y-139141942D01*
X102976203Y-139157577D01*
X102989923Y-139147970D01*
X103415552Y-138722341D01*
X103427139Y-138705000D01*
X104852861Y-138705000D01*
X104864448Y-138722341D01*
X105288139Y-139146032D01*
X105305079Y-139157351D01*
X105314605Y-139143746D01*
X105321916Y-139123658D01*
X105372899Y-138933387D01*
X105376660Y-138912057D01*
X105393827Y-138715836D01*
X105393827Y-138694164D01*
X105376660Y-138497943D01*
X105372899Y-138476613D01*
X105321916Y-138286342D01*
X105315261Y-138268058D01*
X105303797Y-138252423D01*
X105290077Y-138262030D01*
X104864448Y-138687659D01*
X104852861Y-138705000D01*
X103427139Y-138705000D01*
X103415552Y-138687659D01*
X102991861Y-138263968D01*
X102974921Y-138252649D01*
X102965395Y-138266254D01*
X102958084Y-138286342D01*
X102907101Y-138476613D01*
X102903340Y-138497943D01*
X102886173Y-138694164D01*
X102886173Y-138715836D01*
X100705500Y-138715836D01*
X100705500Y-136165000D01*
X102884723Y-136165000D01*
X102903793Y-136382977D01*
X102960425Y-136594330D01*
X102965022Y-136604188D01*
X103038952Y-136762730D01*
X103052898Y-136792638D01*
X103178402Y-136971877D01*
X103333123Y-137126598D01*
X103342021Y-137132828D01*
X103342024Y-137132831D01*
X103503462Y-137245871D01*
X103512361Y-137252102D01*
X103522203Y-137256691D01*
X103522211Y-137256696D01*
X103546799Y-137268161D01*
X103625149Y-137325609D01*
X103675551Y-137408668D01*
X103690331Y-137504692D01*
X103687670Y-137531713D01*
X103686501Y-137539309D01*
X103686718Y-137540195D01*
X103697030Y-137554923D01*
X104122659Y-137980552D01*
X104140000Y-137992139D01*
X104157341Y-137980552D01*
X104581032Y-137556861D01*
X104593865Y-137537654D01*
X104594082Y-137536565D01*
X104594083Y-137445316D01*
X104631263Y-137355556D01*
X104699963Y-137286858D01*
X104733064Y-137268225D01*
X104757791Y-137256694D01*
X104767639Y-137252102D01*
X104776538Y-137245871D01*
X104937976Y-137132831D01*
X104937979Y-137132828D01*
X104946877Y-137126598D01*
X105101598Y-136971877D01*
X105227102Y-136792638D01*
X105241049Y-136762730D01*
X105314978Y-136604188D01*
X105319575Y-136594330D01*
X105376207Y-136382977D01*
X105395277Y-136165000D01*
X105376207Y-135947023D01*
X105319575Y-135735670D01*
X105227102Y-135537362D01*
X105101598Y-135358123D01*
X104946877Y-135203402D01*
X104937978Y-135197171D01*
X104937971Y-135197165D01*
X104797732Y-135098969D01*
X104730548Y-135028788D01*
X104695335Y-134938239D01*
X104697454Y-134841107D01*
X104736583Y-134752180D01*
X104797732Y-134691031D01*
X104937971Y-134592835D01*
X104937978Y-134592829D01*
X104946877Y-134586598D01*
X105101598Y-134431877D01*
X105227102Y-134252638D01*
X105319575Y-134054330D01*
X105376207Y-133842977D01*
X105395277Y-133625000D01*
X105376207Y-133407023D01*
X105319575Y-133195670D01*
X105278012Y-133106538D01*
X105231697Y-133007215D01*
X105231695Y-133007211D01*
X105227102Y-132997362D01*
X105101598Y-132818123D01*
X104946877Y-132663402D01*
X104937978Y-132657171D01*
X104937971Y-132657165D01*
X104797732Y-132558969D01*
X104730548Y-132488788D01*
X104695335Y-132398239D01*
X104697454Y-132301107D01*
X104736583Y-132212180D01*
X104797732Y-132151031D01*
X104937971Y-132052835D01*
X104937978Y-132052829D01*
X104946877Y-132046598D01*
X105101598Y-131891877D01*
X105227102Y-131712638D01*
X105239736Y-131685546D01*
X105314978Y-131524188D01*
X105319575Y-131514330D01*
X105376207Y-131302977D01*
X105395277Y-131085000D01*
X105376207Y-130867023D01*
X105319575Y-130655670D01*
X105287880Y-130587700D01*
X105231697Y-130467215D01*
X105231695Y-130467211D01*
X105227102Y-130457362D01*
X105101598Y-130278123D01*
X104946877Y-130123402D01*
X104937978Y-130117171D01*
X104937971Y-130117165D01*
X104797732Y-130018969D01*
X104730548Y-129948788D01*
X104695335Y-129858239D01*
X104697454Y-129761107D01*
X104736583Y-129672180D01*
X104797732Y-129611031D01*
X104937971Y-129512835D01*
X104937978Y-129512829D01*
X104946877Y-129506598D01*
X105101598Y-129351877D01*
X105227102Y-129172638D01*
X105241049Y-129142730D01*
X105277636Y-129064268D01*
X105335084Y-128985918D01*
X105418143Y-128935516D01*
X105503306Y-128920500D01*
X107006705Y-128920500D01*
X107101993Y-128939454D01*
X107184766Y-128995812D01*
X107190677Y-129003270D01*
X107347564Y-129136791D01*
X107394075Y-129162785D01*
X107508557Y-129226767D01*
X107527398Y-129237297D01*
X107538978Y-129241060D01*
X107538979Y-129241060D01*
X107562363Y-129248658D01*
X107723329Y-129300959D01*
X107735417Y-129302400D01*
X107735420Y-129302401D01*
X107861803Y-129317470D01*
X107927894Y-129325351D01*
X108133300Y-129309546D01*
X108234384Y-129281323D01*
X108320004Y-129257418D01*
X108320008Y-129257416D01*
X108331725Y-129254145D01*
X108342585Y-129248659D01*
X108342588Y-129248658D01*
X108448339Y-129195239D01*
X108515610Y-129161258D01*
X108525202Y-129153764D01*
X108525205Y-129153762D01*
X108668353Y-129041923D01*
X108668355Y-129041922D01*
X108677951Y-129034424D01*
X108759926Y-128939454D01*
X108804606Y-128887692D01*
X108804608Y-128887689D01*
X108812564Y-128878472D01*
X108833387Y-128841818D01*
X108908306Y-128709936D01*
X108908306Y-128709935D01*
X108914323Y-128699344D01*
X108979351Y-128503863D01*
X109005171Y-128299474D01*
X109005404Y-128282790D01*
X109005486Y-128276955D01*
X109005486Y-128276951D01*
X109005583Y-128270000D01*
X108985480Y-128064970D01*
X108925935Y-127867749D01*
X108829218Y-127685849D01*
X108699011Y-127526200D01*
X108686121Y-127515536D01*
X108600207Y-127444462D01*
X108540275Y-127394882D01*
X108490016Y-127367707D01*
X108369764Y-127302687D01*
X108369761Y-127302686D01*
X108359055Y-127296897D01*
X108215425Y-127252436D01*
X108173891Y-127239579D01*
X108173889Y-127239579D01*
X108162254Y-127235977D01*
X107957369Y-127214443D01*
X107752203Y-127233114D01*
X107554572Y-127291280D01*
X107372002Y-127386726D01*
X107211447Y-127515815D01*
X107203619Y-127525144D01*
X107203617Y-127525146D01*
X107168078Y-127567500D01*
X107079024Y-127673630D01*
X107073160Y-127684296D01*
X107073159Y-127684298D01*
X106986117Y-127842628D01*
X106979776Y-127854162D01*
X106976095Y-127865767D01*
X106976093Y-127865771D01*
X106934848Y-127995790D01*
X106887969Y-128080887D01*
X106812094Y-128141566D01*
X106718773Y-128168590D01*
X106697504Y-128169500D01*
X105503306Y-128169500D01*
X105408018Y-128150546D01*
X105327236Y-128096570D01*
X105277636Y-128025732D01*
X105231697Y-127927215D01*
X105231695Y-127927211D01*
X105227102Y-127917362D01*
X105101598Y-127738123D01*
X104946877Y-127583402D01*
X104937978Y-127577171D01*
X104937971Y-127577165D01*
X104797732Y-127478969D01*
X104730548Y-127408788D01*
X104695335Y-127318239D01*
X104697454Y-127221107D01*
X104736583Y-127132180D01*
X104797732Y-127071031D01*
X104937971Y-126972835D01*
X104937978Y-126972829D01*
X104946877Y-126966598D01*
X105101598Y-126811877D01*
X105227102Y-126632638D01*
X105273111Y-126533973D01*
X105277636Y-126524268D01*
X105335084Y-126445918D01*
X105418143Y-126395516D01*
X105503306Y-126380500D01*
X110506323Y-126380500D01*
X110601611Y-126399454D01*
X110682393Y-126453430D01*
X111958347Y-127729385D01*
X112012323Y-127810167D01*
X112031277Y-127905455D01*
X112019621Y-127980746D01*
X112001165Y-128038925D01*
X112001164Y-128038931D01*
X111997484Y-128050532D01*
X111974520Y-128255262D01*
X111975539Y-128267397D01*
X111975539Y-128267399D01*
X111990740Y-128448419D01*
X111991759Y-128460553D01*
X112048544Y-128658586D01*
X112054110Y-128669416D01*
X112054111Y-128669419D01*
X112074934Y-128709936D01*
X112142712Y-128841818D01*
X112270677Y-129003270D01*
X112279950Y-129011162D01*
X112279952Y-129011164D01*
X112354719Y-129074795D01*
X112427564Y-129136791D01*
X112474075Y-129162785D01*
X112588557Y-129226767D01*
X112607398Y-129237297D01*
X112618978Y-129241060D01*
X112618979Y-129241060D01*
X112642363Y-129248658D01*
X112803329Y-129300959D01*
X112815417Y-129302400D01*
X112815420Y-129302401D01*
X112941803Y-129317470D01*
X113007894Y-129325351D01*
X113213300Y-129309546D01*
X113314384Y-129281323D01*
X113400004Y-129257418D01*
X113400008Y-129257416D01*
X113411725Y-129254145D01*
X113422585Y-129248659D01*
X113422588Y-129248658D01*
X113528339Y-129195239D01*
X113595610Y-129161258D01*
X113605202Y-129153764D01*
X113605205Y-129153762D01*
X113748353Y-129041923D01*
X113748355Y-129041922D01*
X113757951Y-129034424D01*
X113839926Y-128939454D01*
X113884606Y-128887692D01*
X113884608Y-128887689D01*
X113892564Y-128878472D01*
X113913387Y-128841818D01*
X113988306Y-128709936D01*
X113988306Y-128709935D01*
X113994323Y-128699344D01*
X114059351Y-128503863D01*
X114085171Y-128299474D01*
X114085404Y-128282790D01*
X114085486Y-128276955D01*
X114085486Y-128276951D01*
X114085583Y-128270000D01*
X114065480Y-128064970D01*
X114005935Y-127867749D01*
X113909218Y-127685849D01*
X113779011Y-127526200D01*
X113766121Y-127515536D01*
X113680207Y-127444462D01*
X113620275Y-127394882D01*
X113570016Y-127367707D01*
X113449764Y-127302687D01*
X113449761Y-127302686D01*
X113439055Y-127296897D01*
X113295425Y-127252436D01*
X113253891Y-127239579D01*
X113253889Y-127239579D01*
X113242254Y-127235977D01*
X113037369Y-127214443D01*
X112832203Y-127233114D01*
X112820520Y-127236552D01*
X112820512Y-127236554D01*
X112736029Y-127261419D01*
X112639267Y-127270140D01*
X112546532Y-127241167D01*
X112489657Y-127198620D01*
X111068130Y-125777093D01*
X111060030Y-125768602D01*
X111057738Y-125766083D01*
X111046572Y-125748790D01*
X111015512Y-125724304D01*
X111014576Y-125723539D01*
X111008462Y-125717425D01*
X110995318Y-125708032D01*
X110985933Y-125700986D01*
X110959438Y-125680098D01*
X110959435Y-125680097D01*
X110948400Y-125671397D01*
X110939851Y-125668395D01*
X110932481Y-125663128D01*
X110886670Y-125649428D01*
X110875548Y-125645813D01*
X110845236Y-125635168D01*
X110845231Y-125635167D01*
X110830452Y-125629977D01*
X110824945Y-125629500D01*
X110820036Y-125629500D01*
X110812713Y-125627310D01*
X110794208Y-125628037D01*
X110794206Y-125628037D01*
X110761863Y-125629308D01*
X110752087Y-125629500D01*
X105503306Y-125629500D01*
X105408018Y-125610546D01*
X105327236Y-125556570D01*
X105277636Y-125485732D01*
X105231697Y-125387215D01*
X105231695Y-125387211D01*
X105227102Y-125377362D01*
X105101598Y-125198123D01*
X104946877Y-125043402D01*
X104937978Y-125037171D01*
X104937971Y-125037165D01*
X104797732Y-124938969D01*
X104730548Y-124868788D01*
X104695335Y-124778239D01*
X104697454Y-124681107D01*
X104736583Y-124592180D01*
X104797732Y-124531031D01*
X104937971Y-124432835D01*
X104937978Y-124432829D01*
X104946877Y-124426598D01*
X105101598Y-124271877D01*
X105227102Y-124092638D01*
X105263056Y-124015536D01*
X105277636Y-123984268D01*
X105335084Y-123905918D01*
X105418143Y-123855516D01*
X105503306Y-123840500D01*
X113046323Y-123840500D01*
X113141611Y-123859454D01*
X113222393Y-123913430D01*
X117038347Y-127729384D01*
X117092323Y-127810166D01*
X117111277Y-127905454D01*
X117099622Y-127980744D01*
X117077484Y-128050532D01*
X117054520Y-128255262D01*
X117055539Y-128267397D01*
X117055539Y-128267399D01*
X117070740Y-128448419D01*
X117071759Y-128460553D01*
X117128544Y-128658586D01*
X117134110Y-128669416D01*
X117134111Y-128669419D01*
X117154934Y-128709936D01*
X117222712Y-128841818D01*
X117350677Y-129003270D01*
X117359950Y-129011162D01*
X117359952Y-129011164D01*
X117434719Y-129074795D01*
X117507564Y-129136791D01*
X117554075Y-129162785D01*
X117668557Y-129226767D01*
X117687398Y-129237297D01*
X117698978Y-129241060D01*
X117698979Y-129241060D01*
X117722363Y-129248658D01*
X117883329Y-129300959D01*
X117895417Y-129302400D01*
X117895420Y-129302401D01*
X118021803Y-129317470D01*
X118087894Y-129325351D01*
X118293300Y-129309546D01*
X118394384Y-129281323D01*
X118480004Y-129257418D01*
X118480008Y-129257416D01*
X118491725Y-129254145D01*
X118502585Y-129248659D01*
X118502588Y-129248658D01*
X118608339Y-129195239D01*
X118675610Y-129161258D01*
X118685202Y-129153764D01*
X118685205Y-129153762D01*
X118828353Y-129041923D01*
X118828355Y-129041922D01*
X118837951Y-129034424D01*
X118919926Y-128939454D01*
X118964606Y-128887692D01*
X118964608Y-128887689D01*
X118972564Y-128878472D01*
X118993387Y-128841818D01*
X119068306Y-128709936D01*
X119068306Y-128709935D01*
X119074323Y-128699344D01*
X119139351Y-128503863D01*
X119165171Y-128299474D01*
X119165404Y-128282790D01*
X119165486Y-128276955D01*
X119165486Y-128276951D01*
X119165583Y-128270000D01*
X119145480Y-128064970D01*
X119085935Y-127867749D01*
X118989218Y-127685849D01*
X118859011Y-127526200D01*
X118846121Y-127515536D01*
X118760207Y-127444462D01*
X118700275Y-127394882D01*
X118650016Y-127367707D01*
X118529764Y-127302687D01*
X118529761Y-127302686D01*
X118519055Y-127296897D01*
X118375425Y-127252436D01*
X118333891Y-127239579D01*
X118333889Y-127239579D01*
X118322254Y-127235977D01*
X118117369Y-127214443D01*
X117912203Y-127233114D01*
X117900520Y-127236552D01*
X117900512Y-127236554D01*
X117816029Y-127261419D01*
X117719267Y-127270140D01*
X117626532Y-127241167D01*
X117569657Y-127198620D01*
X113608130Y-123237093D01*
X113600030Y-123228602D01*
X113597738Y-123226083D01*
X113586572Y-123208790D01*
X113566717Y-123193137D01*
X113555513Y-123184305D01*
X113554576Y-123183539D01*
X113548462Y-123177425D01*
X113535318Y-123168032D01*
X113525933Y-123160986D01*
X113499438Y-123140098D01*
X113499435Y-123140097D01*
X113488400Y-123131397D01*
X113479851Y-123128395D01*
X113472481Y-123123128D01*
X113426670Y-123109428D01*
X113415548Y-123105813D01*
X113385236Y-123095168D01*
X113385231Y-123095167D01*
X113370452Y-123089977D01*
X113364945Y-123089500D01*
X113360036Y-123089500D01*
X113352713Y-123087310D01*
X113334208Y-123088037D01*
X113334206Y-123088037D01*
X113301863Y-123089308D01*
X113292087Y-123089500D01*
X105503306Y-123089500D01*
X105408018Y-123070546D01*
X105327236Y-123016570D01*
X105277636Y-122945732D01*
X105231697Y-122847215D01*
X105231695Y-122847211D01*
X105227102Y-122837362D01*
X105101598Y-122658123D01*
X104946877Y-122503402D01*
X104937978Y-122497171D01*
X104937971Y-122497165D01*
X104797732Y-122398969D01*
X104730548Y-122328788D01*
X104695335Y-122238239D01*
X104697454Y-122141107D01*
X104736583Y-122052180D01*
X104797732Y-121991031D01*
X104937971Y-121892835D01*
X104937978Y-121892829D01*
X104946877Y-121886598D01*
X105101598Y-121731877D01*
X105227102Y-121552638D01*
X105253155Y-121496769D01*
X105277636Y-121444268D01*
X105335084Y-121365918D01*
X105418143Y-121315516D01*
X105503306Y-121300500D01*
X115586323Y-121300500D01*
X115681611Y-121319454D01*
X115762393Y-121373430D01*
X122118347Y-127729385D01*
X122172323Y-127810167D01*
X122191277Y-127905455D01*
X122179621Y-127980746D01*
X122161165Y-128038925D01*
X122161164Y-128038931D01*
X122157484Y-128050532D01*
X122134520Y-128255262D01*
X122135539Y-128267397D01*
X122135539Y-128267399D01*
X122150740Y-128448419D01*
X122151759Y-128460553D01*
X122208544Y-128658586D01*
X122214110Y-128669416D01*
X122214111Y-128669419D01*
X122234934Y-128709936D01*
X122302712Y-128841818D01*
X122430677Y-129003270D01*
X122439950Y-129011162D01*
X122439952Y-129011164D01*
X122514719Y-129074795D01*
X122587564Y-129136791D01*
X122634075Y-129162785D01*
X122748557Y-129226767D01*
X122767398Y-129237297D01*
X122778978Y-129241060D01*
X122778979Y-129241060D01*
X122802363Y-129248658D01*
X122963329Y-129300959D01*
X122975417Y-129302400D01*
X122975420Y-129302401D01*
X123101803Y-129317470D01*
X123167894Y-129325351D01*
X123373300Y-129309546D01*
X123474384Y-129281323D01*
X123560004Y-129257418D01*
X123560008Y-129257416D01*
X123571725Y-129254145D01*
X123582585Y-129248659D01*
X123582588Y-129248658D01*
X123688339Y-129195239D01*
X123755610Y-129161258D01*
X123765202Y-129153764D01*
X123765205Y-129153762D01*
X123908353Y-129041923D01*
X123908355Y-129041922D01*
X123917951Y-129034424D01*
X123999926Y-128939454D01*
X124044606Y-128887692D01*
X124044608Y-128887689D01*
X124052564Y-128878472D01*
X124073387Y-128841818D01*
X124148306Y-128709936D01*
X124148306Y-128709935D01*
X124154323Y-128699344D01*
X124219351Y-128503863D01*
X124245171Y-128299474D01*
X124245404Y-128282790D01*
X124245486Y-128276955D01*
X124245486Y-128276951D01*
X124245583Y-128270000D01*
X124225480Y-128064970D01*
X124165935Y-127867749D01*
X124069218Y-127685849D01*
X123939011Y-127526200D01*
X123926121Y-127515536D01*
X123840207Y-127444462D01*
X123780275Y-127394882D01*
X123730016Y-127367707D01*
X123609764Y-127302687D01*
X123609761Y-127302686D01*
X123599055Y-127296897D01*
X123455425Y-127252436D01*
X123413891Y-127239579D01*
X123413889Y-127239579D01*
X123402254Y-127235977D01*
X123197369Y-127214443D01*
X122992203Y-127233114D01*
X122980520Y-127236552D01*
X122980512Y-127236554D01*
X122896029Y-127261419D01*
X122799267Y-127270140D01*
X122706532Y-127241167D01*
X122649657Y-127198620D01*
X116148130Y-120697093D01*
X116140030Y-120688602D01*
X116137738Y-120686083D01*
X116126572Y-120668790D01*
X116095512Y-120644304D01*
X116094576Y-120643539D01*
X116088462Y-120637425D01*
X116075318Y-120628032D01*
X116065933Y-120620986D01*
X116039438Y-120600098D01*
X116039435Y-120600097D01*
X116028400Y-120591397D01*
X116019851Y-120588395D01*
X116012481Y-120583128D01*
X115966670Y-120569428D01*
X115955548Y-120565813D01*
X115925236Y-120555168D01*
X115925231Y-120555167D01*
X115910452Y-120549977D01*
X115904945Y-120549500D01*
X115900036Y-120549500D01*
X115892713Y-120547310D01*
X115874208Y-120548037D01*
X115874206Y-120548037D01*
X115845006Y-120549184D01*
X115844001Y-120549224D01*
X115841863Y-120549308D01*
X115832087Y-120549500D01*
X105503306Y-120549500D01*
X105408018Y-120530546D01*
X105327236Y-120476570D01*
X105277636Y-120405732D01*
X105231697Y-120307215D01*
X105231695Y-120307211D01*
X105227102Y-120297362D01*
X105101598Y-120118123D01*
X104946877Y-119963402D01*
X104937978Y-119957171D01*
X104937971Y-119957165D01*
X104797732Y-119858969D01*
X104730548Y-119788788D01*
X104695335Y-119698239D01*
X104697454Y-119601107D01*
X104736583Y-119512180D01*
X104797732Y-119451031D01*
X104937971Y-119352835D01*
X104937978Y-119352829D01*
X104946877Y-119346598D01*
X105101598Y-119191877D01*
X105227102Y-119012638D01*
X105319575Y-118814330D01*
X105376207Y-118602977D01*
X105395277Y-118385000D01*
X105376207Y-118167023D01*
X105319575Y-117955670D01*
X105227102Y-117757362D01*
X105101598Y-117578123D01*
X104946877Y-117423402D01*
X104937978Y-117417171D01*
X104937971Y-117417165D01*
X104797732Y-117318969D01*
X104730548Y-117248788D01*
X104695335Y-117158239D01*
X104697454Y-117061107D01*
X104736583Y-116972180D01*
X104797732Y-116911031D01*
X104937971Y-116812835D01*
X104937978Y-116812829D01*
X104946877Y-116806598D01*
X105101598Y-116651877D01*
X105227102Y-116472638D01*
X105244955Y-116434354D01*
X105308702Y-116297647D01*
X105319575Y-116274330D01*
X105376207Y-116062977D01*
X105395277Y-115845000D01*
X105376207Y-115627023D01*
X105319575Y-115415670D01*
X105263940Y-115296360D01*
X105231697Y-115227215D01*
X105231695Y-115227211D01*
X105227102Y-115217362D01*
X105101598Y-115038123D01*
X104946877Y-114883402D01*
X104937978Y-114877171D01*
X104937971Y-114877165D01*
X104797732Y-114778969D01*
X104730548Y-114708788D01*
X104695335Y-114618239D01*
X104697454Y-114521107D01*
X104736583Y-114432180D01*
X104797732Y-114371031D01*
X104937971Y-114272835D01*
X104937978Y-114272829D01*
X104946877Y-114266598D01*
X105101598Y-114111877D01*
X105227102Y-113932638D01*
X105319575Y-113734330D01*
X105376207Y-113522977D01*
X105395277Y-113305000D01*
X105376207Y-113087023D01*
X105319575Y-112875670D01*
X105258470Y-112744631D01*
X105231697Y-112687215D01*
X105231695Y-112687211D01*
X105227102Y-112677362D01*
X105101598Y-112498123D01*
X104946877Y-112343402D01*
X104937978Y-112337171D01*
X104937971Y-112337165D01*
X104797732Y-112238969D01*
X104730548Y-112168788D01*
X104695335Y-112078239D01*
X104697454Y-111981107D01*
X104736583Y-111892180D01*
X104797732Y-111831031D01*
X104937971Y-111732835D01*
X104937978Y-111732829D01*
X104946877Y-111726598D01*
X105101598Y-111571877D01*
X105227102Y-111392638D01*
X105240091Y-111364785D01*
X105314978Y-111204188D01*
X105319575Y-111194330D01*
X105376207Y-110982977D01*
X105395277Y-110765000D01*
X105376207Y-110547023D01*
X105319575Y-110335670D01*
X105251937Y-110190620D01*
X105231697Y-110147215D01*
X105231695Y-110147211D01*
X105227102Y-110137362D01*
X105101598Y-109958123D01*
X104946877Y-109803402D01*
X104937978Y-109797171D01*
X104937971Y-109797165D01*
X104797732Y-109698969D01*
X104730548Y-109628788D01*
X104695335Y-109538239D01*
X104697454Y-109441107D01*
X104736583Y-109352180D01*
X104797732Y-109291031D01*
X104937971Y-109192835D01*
X104937978Y-109192829D01*
X104946877Y-109186598D01*
X105101598Y-109031877D01*
X105227102Y-108852638D01*
X105272952Y-108754314D01*
X105314978Y-108664188D01*
X105319575Y-108654330D01*
X105376207Y-108442977D01*
X105395277Y-108225000D01*
X105376207Y-108007023D01*
X105319575Y-107795670D01*
X105227102Y-107597362D01*
X105101598Y-107418123D01*
X104946877Y-107263402D01*
X104937978Y-107257171D01*
X104937971Y-107257165D01*
X104797732Y-107158969D01*
X104730548Y-107088788D01*
X104695335Y-106998239D01*
X104697454Y-106901107D01*
X104736583Y-106812180D01*
X104797732Y-106751031D01*
X104806345Y-106745000D01*
X108060000Y-106745000D01*
X125750000Y-106745000D01*
X125750000Y-100255000D01*
X108060000Y-100255000D01*
X108060000Y-106745000D01*
X104806345Y-106745000D01*
X104937971Y-106652835D01*
X104937978Y-106652829D01*
X104946877Y-106646598D01*
X105101598Y-106491877D01*
X105227102Y-106312638D01*
X105266110Y-106228987D01*
X105314978Y-106124188D01*
X105319575Y-106114330D01*
X105376207Y-105902977D01*
X105395277Y-105685000D01*
X105376207Y-105467023D01*
X105319575Y-105255670D01*
X105227102Y-105057362D01*
X105101598Y-104878123D01*
X104946877Y-104723402D01*
X104937979Y-104717172D01*
X104937976Y-104717169D01*
X104776538Y-104604129D01*
X104776537Y-104604128D01*
X104767639Y-104597898D01*
X104569330Y-104505425D01*
X104558827Y-104502611D01*
X104558825Y-104502610D01*
X104478976Y-104481215D01*
X104357977Y-104448793D01*
X104140000Y-104429723D01*
X103922023Y-104448793D01*
X103710670Y-104505425D01*
X103700811Y-104510022D01*
X103700812Y-104510022D01*
X103522215Y-104593303D01*
X103522211Y-104593305D01*
X103512362Y-104597898D01*
X103333123Y-104723402D01*
X103178402Y-104878123D01*
X103052898Y-105057362D01*
X102960425Y-105255670D01*
X102903793Y-105467023D01*
X102884723Y-105685000D01*
X102903793Y-105902977D01*
X102960425Y-106114330D01*
X102965022Y-106124188D01*
X103013891Y-106228987D01*
X103052898Y-106312638D01*
X103178402Y-106491877D01*
X103333123Y-106646598D01*
X103342026Y-106652832D01*
X103342032Y-106652837D01*
X103482269Y-106751033D01*
X103549453Y-106821214D01*
X103584665Y-106911764D01*
X103582546Y-107008895D01*
X103543416Y-107097822D01*
X103482269Y-107158969D01*
X103333123Y-107263402D01*
X103178402Y-107418123D01*
X103052898Y-107597362D01*
X102960425Y-107795670D01*
X102903793Y-108007023D01*
X102884723Y-108225000D01*
X102903793Y-108442977D01*
X102960425Y-108654330D01*
X102965022Y-108664188D01*
X103007049Y-108754314D01*
X103052898Y-108852638D01*
X103178402Y-109031877D01*
X103333123Y-109186598D01*
X103342026Y-109192832D01*
X103342032Y-109192837D01*
X103482269Y-109291033D01*
X103549453Y-109361214D01*
X103584665Y-109451764D01*
X103582546Y-109548895D01*
X103543416Y-109637822D01*
X103482269Y-109698969D01*
X103333123Y-109803402D01*
X103178402Y-109958123D01*
X103052898Y-110137362D01*
X103048305Y-110147211D01*
X103048303Y-110147215D01*
X103028063Y-110190620D01*
X102960425Y-110335670D01*
X102903793Y-110547023D01*
X102884723Y-110765000D01*
X102903793Y-110982977D01*
X102960425Y-111194330D01*
X102965022Y-111204188D01*
X103039910Y-111364785D01*
X103052898Y-111392638D01*
X103178402Y-111571877D01*
X103333123Y-111726598D01*
X103342026Y-111732832D01*
X103342032Y-111732837D01*
X103482269Y-111831033D01*
X103549453Y-111901214D01*
X103584665Y-111991764D01*
X103582546Y-112088895D01*
X103543416Y-112177822D01*
X103482269Y-112238969D01*
X103333123Y-112343402D01*
X103178402Y-112498123D01*
X103052898Y-112677362D01*
X103048305Y-112687211D01*
X103048303Y-112687215D01*
X103021530Y-112744631D01*
X102960425Y-112875670D01*
X102903793Y-113087023D01*
X102884723Y-113305000D01*
X102903793Y-113522977D01*
X102960425Y-113734330D01*
X103052898Y-113932638D01*
X103178402Y-114111877D01*
X103333123Y-114266598D01*
X103342026Y-114272832D01*
X103342032Y-114272837D01*
X103482269Y-114371033D01*
X103549453Y-114441214D01*
X103584665Y-114531764D01*
X103582546Y-114628895D01*
X103543416Y-114717822D01*
X103482269Y-114778969D01*
X103333123Y-114883402D01*
X103178402Y-115038123D01*
X103052898Y-115217362D01*
X103048305Y-115227211D01*
X103048303Y-115227215D01*
X103016060Y-115296360D01*
X102960425Y-115415670D01*
X102903793Y-115627023D01*
X102884723Y-115845000D01*
X102903793Y-116062977D01*
X102960425Y-116274330D01*
X102971298Y-116297647D01*
X103035046Y-116434354D01*
X103052898Y-116472638D01*
X103178402Y-116651877D01*
X103333123Y-116806598D01*
X103342026Y-116812832D01*
X103342032Y-116812837D01*
X103482269Y-116911033D01*
X103549453Y-116981214D01*
X103584665Y-117071764D01*
X103582546Y-117168895D01*
X103543416Y-117257822D01*
X103482269Y-117318969D01*
X103333123Y-117423402D01*
X103178402Y-117578123D01*
X103052898Y-117757362D01*
X102960425Y-117955670D01*
X102903793Y-118167023D01*
X102884723Y-118385000D01*
X102903793Y-118602977D01*
X102960425Y-118814330D01*
X103052898Y-119012638D01*
X103178402Y-119191877D01*
X103333123Y-119346598D01*
X103342026Y-119352832D01*
X103342032Y-119352837D01*
X103482269Y-119451033D01*
X103549453Y-119521214D01*
X103584665Y-119611764D01*
X103582546Y-119708895D01*
X103543416Y-119797822D01*
X103482269Y-119858969D01*
X103333123Y-119963402D01*
X103178402Y-120118123D01*
X103052898Y-120297362D01*
X103048305Y-120307211D01*
X103048303Y-120307215D01*
X102991922Y-120428125D01*
X102960425Y-120495670D01*
X102903793Y-120707023D01*
X102884723Y-120925000D01*
X102885670Y-120935825D01*
X102890271Y-120988418D01*
X102903793Y-121142977D01*
X102960425Y-121354330D01*
X102965022Y-121364188D01*
X103026846Y-121496769D01*
X103052898Y-121552638D01*
X103178402Y-121731877D01*
X103333123Y-121886598D01*
X103342026Y-121892832D01*
X103342032Y-121892837D01*
X103482269Y-121991033D01*
X103549453Y-122061214D01*
X103584665Y-122151764D01*
X103582546Y-122248895D01*
X103543416Y-122337822D01*
X103482269Y-122398969D01*
X103333123Y-122503402D01*
X103178402Y-122658123D01*
X103052898Y-122837362D01*
X103048305Y-122847211D01*
X103048303Y-122847215D01*
X103001988Y-122946538D01*
X102960425Y-123035670D01*
X102903793Y-123247023D01*
X102884723Y-123465000D01*
X102903793Y-123682977D01*
X102960425Y-123894330D01*
X102965022Y-123904188D01*
X103016945Y-124015536D01*
X103052898Y-124092638D01*
X103178402Y-124271877D01*
X103333123Y-124426598D01*
X103342026Y-124432832D01*
X103342032Y-124432837D01*
X103482269Y-124531033D01*
X103549453Y-124601214D01*
X103584665Y-124691764D01*
X103582546Y-124788895D01*
X103543416Y-124877822D01*
X103482269Y-124938969D01*
X103333123Y-125043402D01*
X103178402Y-125198123D01*
X103052898Y-125377362D01*
X103048305Y-125387211D01*
X103048303Y-125387215D01*
X103043574Y-125397357D01*
X102960425Y-125575670D01*
X102903793Y-125787023D01*
X102884723Y-126005000D01*
X102903793Y-126222977D01*
X102960425Y-126434330D01*
X102965022Y-126444188D01*
X103006890Y-126533973D01*
X103052898Y-126632638D01*
X103178402Y-126811877D01*
X103333123Y-126966598D01*
X103342026Y-126972832D01*
X103342032Y-126972837D01*
X103482269Y-127071033D01*
X103549453Y-127141214D01*
X103584665Y-127231764D01*
X103582546Y-127328895D01*
X103543416Y-127417822D01*
X103482269Y-127478969D01*
X103333123Y-127583402D01*
X103178402Y-127738123D01*
X103052898Y-127917362D01*
X102960425Y-128115670D01*
X102903793Y-128327023D01*
X102884723Y-128545000D01*
X102903793Y-128762977D01*
X102960425Y-128974330D01*
X102965022Y-128984188D01*
X103038952Y-129142730D01*
X103052898Y-129172638D01*
X103178402Y-129351877D01*
X103333123Y-129506598D01*
X103342026Y-129512832D01*
X103342032Y-129512837D01*
X103482269Y-129611033D01*
X103549453Y-129681214D01*
X103584665Y-129771764D01*
X103582546Y-129868895D01*
X103543416Y-129957822D01*
X103482269Y-130018969D01*
X103333123Y-130123402D01*
X103178402Y-130278123D01*
X103052898Y-130457362D01*
X103048305Y-130467211D01*
X103048303Y-130467215D01*
X102992120Y-130587700D01*
X102960425Y-130655670D01*
X102903793Y-130867023D01*
X102884723Y-131085000D01*
X102903793Y-131302977D01*
X102960425Y-131514330D01*
X102965022Y-131524188D01*
X103040265Y-131685546D01*
X103052898Y-131712638D01*
X103178402Y-131891877D01*
X103333123Y-132046598D01*
X103342026Y-132052832D01*
X103342032Y-132052837D01*
X103482269Y-132151033D01*
X103549453Y-132221214D01*
X103584665Y-132311764D01*
X103582546Y-132408895D01*
X103543416Y-132497822D01*
X103482269Y-132558969D01*
X103333123Y-132663402D01*
X103178402Y-132818123D01*
X103052898Y-132997362D01*
X103048305Y-133007211D01*
X103048303Y-133007215D01*
X103001988Y-133106538D01*
X102960425Y-133195670D01*
X102903793Y-133407023D01*
X102884723Y-133625000D01*
X102903793Y-133842977D01*
X102960425Y-134054330D01*
X103052898Y-134252638D01*
X103178402Y-134431877D01*
X103333123Y-134586598D01*
X103342026Y-134592832D01*
X103342032Y-134592837D01*
X103482269Y-134691033D01*
X103549453Y-134761214D01*
X103584665Y-134851764D01*
X103582546Y-134948895D01*
X103543416Y-135037822D01*
X103482269Y-135098969D01*
X103333123Y-135203402D01*
X103178402Y-135358123D01*
X103052898Y-135537362D01*
X102960425Y-135735670D01*
X102903793Y-135947023D01*
X102884723Y-136165000D01*
X100705500Y-136165000D01*
X100705500Y-127573203D01*
X100705776Y-127561475D01*
X100705937Y-127558055D01*
X100710269Y-127537934D01*
X100705620Y-127498652D01*
X100705500Y-127497460D01*
X100705500Y-127488807D01*
X100703813Y-127478668D01*
X100703812Y-127478661D01*
X100702843Y-127472836D01*
X100701192Y-127461237D01*
X100697226Y-127427732D01*
X100695576Y-127413791D01*
X100691655Y-127405625D01*
X100690167Y-127396687D01*
X100667474Y-127354628D01*
X100662155Y-127344189D01*
X100648248Y-127315227D01*
X100648243Y-127315220D01*
X100641463Y-127301100D01*
X100637906Y-127296869D01*
X100634436Y-127293399D01*
X100630806Y-127286671D01*
X100603489Y-127261419D01*
X100593431Y-127252122D01*
X100586382Y-127245345D01*
X98789452Y-125448415D01*
X98735476Y-125367633D01*
X98716522Y-125272345D01*
X98718652Y-125239844D01*
X98734869Y-125116663D01*
X98734869Y-125116660D01*
X98735733Y-125110099D01*
X98737471Y-125039000D01*
X98717927Y-124801284D01*
X98672610Y-124620867D01*
X98662312Y-124579867D01*
X98662310Y-124579861D01*
X98659821Y-124569952D01*
X98597489Y-124426598D01*
X98568790Y-124360594D01*
X98568788Y-124360591D01*
X98564712Y-124351216D01*
X98435155Y-124150951D01*
X98284571Y-123985462D01*
X98281501Y-123982088D01*
X98281500Y-123982087D01*
X98274629Y-123974536D01*
X98122666Y-123854523D01*
X98095463Y-123833039D01*
X98095461Y-123833038D01*
X98087445Y-123826707D01*
X97921457Y-123735077D01*
X97887577Y-123716374D01*
X97887573Y-123716372D01*
X97878631Y-123711436D01*
X97869005Y-123708027D01*
X97869000Y-123708025D01*
X97663429Y-123635229D01*
X97663430Y-123635229D01*
X97653794Y-123631817D01*
X97596477Y-123621607D01*
X97429035Y-123591780D01*
X97429029Y-123591779D01*
X97418972Y-123589988D01*
X97408751Y-123589863D01*
X97408750Y-123589863D01*
X97277398Y-123588258D01*
X97180471Y-123587074D01*
X97170370Y-123588620D01*
X97170366Y-123588620D01*
X96954798Y-123621607D01*
X96954793Y-123621608D01*
X96944698Y-123623153D01*
X96717982Y-123697255D01*
X96708911Y-123701977D01*
X96630151Y-123742977D01*
X96506414Y-123807390D01*
X96472253Y-123833039D01*
X96347633Y-123926607D01*
X96260053Y-123968663D01*
X96163044Y-123974002D01*
X96071377Y-123941811D01*
X95999007Y-123876991D01*
X95956951Y-123789411D01*
X95951612Y-123692402D01*
X95983803Y-123600735D01*
X96022058Y-123551416D01*
X96511044Y-123062430D01*
X96591826Y-123008454D01*
X96687114Y-122989500D01*
X98506674Y-122989500D01*
X98579740Y-122974966D01*
X98600132Y-122961341D01*
X98600134Y-122961340D01*
X98642205Y-122933229D01*
X98662601Y-122919601D01*
X98688174Y-122881328D01*
X98704340Y-122857134D01*
X98704341Y-122857132D01*
X98717966Y-122836740D01*
X98732500Y-122763674D01*
X98732500Y-120314326D01*
X98717966Y-120241260D01*
X98704341Y-120220868D01*
X98704340Y-120220866D01*
X98676229Y-120178795D01*
X98662601Y-120158399D01*
X98625009Y-120133281D01*
X98600134Y-120116660D01*
X98600132Y-120116659D01*
X98579740Y-120103034D01*
X98506674Y-120088500D01*
X96057326Y-120088500D01*
X95984260Y-120103034D01*
X95963868Y-120116659D01*
X95963866Y-120116660D01*
X95938991Y-120133281D01*
X95901399Y-120158399D01*
X95846034Y-120241260D01*
X95841249Y-120265317D01*
X95832210Y-120287138D01*
X95778234Y-120367920D01*
X95699858Y-120420886D01*
X95687602Y-120426114D01*
X95672687Y-120432476D01*
X95663418Y-120438565D01*
X95658520Y-120441191D01*
X95641682Y-120450678D01*
X95636879Y-120453518D01*
X95626871Y-120458292D01*
X95561703Y-120505120D01*
X95553167Y-120510986D01*
X95493750Y-120550015D01*
X95493746Y-120550018D01*
X95486116Y-120555030D01*
X95479299Y-120561104D01*
X95470306Y-120569116D01*
X95460758Y-120576765D01*
X95454597Y-120582083D01*
X95445595Y-120588552D01*
X95380188Y-120656047D01*
X95372435Y-120664047D01*
X95369692Y-120666834D01*
X93800706Y-122235820D01*
X93776227Y-122257287D01*
X93765146Y-122265790D01*
X93757682Y-122273993D01*
X93712634Y-122323500D01*
X93704536Y-122331990D01*
X93690720Y-122345806D01*
X93687171Y-122350051D01*
X93675742Y-122363720D01*
X93668909Y-122371554D01*
X93614914Y-122430893D01*
X93609022Y-122440285D01*
X93605667Y-122444705D01*
X93594278Y-122460381D01*
X93591116Y-122464931D01*
X93584003Y-122473438D01*
X93578508Y-122483071D01*
X93578507Y-122483073D01*
X93544263Y-122543110D01*
X93538944Y-122551999D01*
X93496293Y-122619990D01*
X93492156Y-122630281D01*
X93489636Y-122635227D01*
X93481206Y-122652666D01*
X93478898Y-122657706D01*
X93473405Y-122667337D01*
X93469704Y-122677787D01*
X93469704Y-122677788D01*
X93446635Y-122742933D01*
X93442948Y-122752690D01*
X93418832Y-122812683D01*
X93413034Y-122827105D01*
X93410787Y-122837954D01*
X93409182Y-122843270D01*
X93403975Y-122861921D01*
X93402593Y-122867305D01*
X93398892Y-122877756D01*
X93389094Y-122937592D01*
X93385931Y-122956905D01*
X93384034Y-122967140D01*
X93367767Y-123045690D01*
X93367242Y-123054802D01*
X93366548Y-123066829D01*
X93365205Y-123078996D01*
X93364609Y-123087106D01*
X93362818Y-123098046D01*
X93362992Y-123109130D01*
X93362992Y-123109132D01*
X93364469Y-123203151D01*
X93364500Y-123207062D01*
X93364500Y-138319472D01*
X93364107Y-138330172D01*
X93362818Y-138338046D01*
X93362992Y-138349130D01*
X93362992Y-138349131D01*
X93364469Y-138443151D01*
X93364500Y-138447062D01*
X93364500Y-151031073D01*
X93362370Y-151063574D01*
X93360547Y-151077422D01*
X93361069Y-151088495D01*
X93361069Y-151088500D01*
X93364224Y-151155387D01*
X93364500Y-151167117D01*
X93364500Y-151186630D01*
X93364993Y-151192151D01*
X93364993Y-151192159D01*
X93366577Y-151209909D01*
X93367283Y-151220251D01*
X93371063Y-151300398D01*
X93373540Y-151311212D01*
X93374295Y-151316725D01*
X93377315Y-151335798D01*
X93378303Y-151341288D01*
X93379289Y-151352339D01*
X93382216Y-151363040D01*
X93382217Y-151363043D01*
X93400452Y-151429700D01*
X93402992Y-151439814D01*
X93418420Y-151507173D01*
X93420897Y-151517987D01*
X93425248Y-151528187D01*
X93426969Y-151533484D01*
X93433322Y-151551729D01*
X93435267Y-151556960D01*
X93438192Y-151567651D01*
X93463910Y-151621568D01*
X93472718Y-151640035D01*
X93477010Y-151649542D01*
X93487229Y-151673500D01*
X93507180Y-151768584D01*
X93489225Y-151864066D01*
X93436098Y-151945408D01*
X93355886Y-152000227D01*
X93260802Y-152020178D01*
X93238664Y-152019424D01*
X93218000Y-152017798D01*
X92979406Y-152036576D01*
X92969893Y-152038860D01*
X92969886Y-152038861D01*
X92756199Y-152090163D01*
X92756195Y-152090164D01*
X92746687Y-152092447D01*
X92525573Y-152184035D01*
X92517227Y-152189149D01*
X92517222Y-152189152D01*
X92467585Y-152219570D01*
X92321509Y-152309086D01*
X92139519Y-152464519D01*
X92133163Y-152471961D01*
X92133160Y-152471964D01*
X92128840Y-152477022D01*
X92052542Y-152537169D01*
X91959035Y-152563541D01*
X91862553Y-152552121D01*
X91777786Y-152504648D01*
X91717639Y-152428350D01*
X91691267Y-152334843D01*
X91690500Y-152315308D01*
X91690500Y-117524203D01*
X91690624Y-117522945D01*
X91690624Y-117499055D01*
X91695409Y-117475000D01*
X91675966Y-117377260D01*
X91634578Y-117315317D01*
X91634577Y-117315316D01*
X91620601Y-117294399D01*
X91600205Y-117280771D01*
X91583307Y-117263873D01*
X91582343Y-117263082D01*
X91380368Y-117061107D01*
X91128431Y-116809171D01*
X91074454Y-116728389D01*
X91055500Y-116633101D01*
X91055500Y-101600000D01*
X92504706Y-101600000D01*
X92523854Y-101843302D01*
X92526137Y-101852812D01*
X92526138Y-101852817D01*
X92558601Y-101988031D01*
X92580828Y-102080612D01*
X92674223Y-102306089D01*
X92679337Y-102314435D01*
X92679340Y-102314440D01*
X92746387Y-102423850D01*
X92801741Y-102514179D01*
X92960241Y-102699759D01*
X93142214Y-102855178D01*
X93202361Y-102931474D01*
X93228732Y-103024982D01*
X93229500Y-103044518D01*
X93229500Y-114224244D01*
X93227182Y-114254894D01*
X93227027Y-114259332D01*
X93224852Y-114273630D01*
X93226661Y-114295871D01*
X93228680Y-114320695D01*
X93229033Y-114329386D01*
X93229081Y-114329383D01*
X93229500Y-114336596D01*
X93229500Y-114343822D01*
X93230336Y-114350996D01*
X93230337Y-114351006D01*
X93232508Y-114369629D01*
X93233363Y-114378275D01*
X93237748Y-114432180D01*
X93239039Y-114448059D01*
X93243122Y-114460663D01*
X93244657Y-114473828D01*
X93249591Y-114487422D01*
X93249593Y-114487429D01*
X93268565Y-114539697D01*
X93271387Y-114547914D01*
X93292973Y-114614546D01*
X93299848Y-114625875D01*
X93304369Y-114638331D01*
X93342796Y-114696942D01*
X93347413Y-114704261D01*
X93374122Y-114748275D01*
X93383761Y-114764160D01*
X93391085Y-114772452D01*
X93393797Y-114775164D01*
X93394735Y-114776162D01*
X93400323Y-114784685D01*
X93452971Y-114834559D01*
X93454699Y-114836196D01*
X93459526Y-114840893D01*
X94493430Y-115874798D01*
X94513444Y-115898088D01*
X94516485Y-115901349D01*
X94525060Y-115913001D01*
X94536087Y-115922369D01*
X94561042Y-115943570D01*
X94567437Y-115949465D01*
X94567468Y-115949430D01*
X94572874Y-115954242D01*
X94577980Y-115959348D01*
X94583649Y-115963833D01*
X94583650Y-115963834D01*
X94598342Y-115975458D01*
X94605066Y-115980971D01*
X94647407Y-116016943D01*
X94647409Y-116016945D01*
X94658432Y-116026309D01*
X94670231Y-116032334D01*
X94680626Y-116040558D01*
X94744109Y-116070228D01*
X94751895Y-116074034D01*
X94814293Y-116105896D01*
X94827163Y-116109045D01*
X94839170Y-116114657D01*
X94853335Y-116117603D01*
X94853337Y-116117604D01*
X94882171Y-116123601D01*
X94907763Y-116128925D01*
X94916228Y-116130840D01*
X94973501Y-116144855D01*
X94973515Y-116144857D01*
X94984283Y-116147492D01*
X94995325Y-116148177D01*
X94999202Y-116148177D01*
X95000521Y-116148218D01*
X95010508Y-116150295D01*
X95024967Y-116149904D01*
X95039379Y-116151190D01*
X95039081Y-116154534D01*
X95109538Y-116166580D01*
X95191748Y-116218354D01*
X95247888Y-116297647D01*
X95269500Y-116399116D01*
X95269500Y-116422351D01*
X95284034Y-116495417D01*
X95297659Y-116515809D01*
X95297660Y-116515811D01*
X95325771Y-116557882D01*
X95339399Y-116578278D01*
X95359795Y-116591906D01*
X95401866Y-116620017D01*
X95401868Y-116620018D01*
X95422260Y-116633643D01*
X95495326Y-116648177D01*
X97544674Y-116648177D01*
X97617740Y-116633643D01*
X97638132Y-116620018D01*
X97638134Y-116620017D01*
X97680205Y-116591906D01*
X97700601Y-116578278D01*
X97714229Y-116557882D01*
X97742340Y-116515811D01*
X97742341Y-116515809D01*
X97755966Y-116495417D01*
X97770500Y-116422351D01*
X97770500Y-114373003D01*
X97755966Y-114299937D01*
X97742341Y-114279545D01*
X97742340Y-114279543D01*
X97714229Y-114237472D01*
X97700601Y-114217076D01*
X97680205Y-114203448D01*
X97638134Y-114175337D01*
X97638132Y-114175336D01*
X97617740Y-114161711D01*
X97544674Y-114147177D01*
X95495326Y-114147177D01*
X95422260Y-114161711D01*
X95401868Y-114175336D01*
X95401866Y-114175337D01*
X95359795Y-114203448D01*
X95339399Y-114217076D01*
X95326814Y-114235911D01*
X95247593Y-114288844D01*
X95152305Y-114307798D01*
X95057017Y-114288844D01*
X94976236Y-114234868D01*
X94803431Y-114062064D01*
X94749454Y-113981283D01*
X94730500Y-113885994D01*
X94730500Y-111562756D01*
X96067649Y-111562756D01*
X96081254Y-111572282D01*
X96101342Y-111579593D01*
X96291613Y-111630576D01*
X96312943Y-111634337D01*
X96509164Y-111651504D01*
X96530836Y-111651504D01*
X96727057Y-111634337D01*
X96748387Y-111630576D01*
X96938658Y-111579593D01*
X96956942Y-111572938D01*
X96972577Y-111561474D01*
X96962970Y-111547754D01*
X96537341Y-111122125D01*
X96520000Y-111110538D01*
X96502659Y-111122125D01*
X96078968Y-111545816D01*
X96067649Y-111562756D01*
X94730500Y-111562756D01*
X94730500Y-110408513D01*
X95266173Y-110408513D01*
X95283340Y-110604734D01*
X95287101Y-110626064D01*
X95338084Y-110816335D01*
X95344739Y-110834619D01*
X95356203Y-110850254D01*
X95369923Y-110840647D01*
X95795552Y-110415018D01*
X95807139Y-110397677D01*
X97232861Y-110397677D01*
X97244448Y-110415018D01*
X97668139Y-110838709D01*
X97685079Y-110850028D01*
X97694605Y-110836423D01*
X97701916Y-110816335D01*
X97752899Y-110626064D01*
X97756660Y-110604734D01*
X97773827Y-110408513D01*
X97773827Y-110386841D01*
X97756660Y-110190620D01*
X97752899Y-110169290D01*
X97701916Y-109979019D01*
X97695261Y-109960735D01*
X97683797Y-109945100D01*
X97670077Y-109954707D01*
X97244448Y-110380336D01*
X97232861Y-110397677D01*
X95807139Y-110397677D01*
X95795552Y-110380336D01*
X95371861Y-109956645D01*
X95354921Y-109945326D01*
X95345395Y-109958931D01*
X95338084Y-109979019D01*
X95287101Y-110169290D01*
X95283340Y-110190620D01*
X95266173Y-110386841D01*
X95266173Y-110408513D01*
X94730500Y-110408513D01*
X94730500Y-109233880D01*
X96067423Y-109233880D01*
X96077030Y-109247600D01*
X96502659Y-109673229D01*
X96520000Y-109684816D01*
X96537341Y-109673229D01*
X96961032Y-109249538D01*
X96972351Y-109232598D01*
X96958746Y-109223072D01*
X96938658Y-109215761D01*
X96748387Y-109164778D01*
X96727057Y-109161017D01*
X96530836Y-109143850D01*
X96509164Y-109143850D01*
X96312943Y-109161017D01*
X96291613Y-109164778D01*
X96101342Y-109215761D01*
X96083058Y-109222416D01*
X96067423Y-109233880D01*
X94730500Y-109233880D01*
X94730500Y-103147032D01*
X94749454Y-103051744D01*
X94803430Y-102970962D01*
X94849398Y-102934725D01*
X94890499Y-102909538D01*
X94974179Y-102858259D01*
X95159759Y-102699759D01*
X95318259Y-102514179D01*
X95373613Y-102423850D01*
X95440660Y-102314440D01*
X95440663Y-102314435D01*
X95445777Y-102306089D01*
X95539172Y-102080612D01*
X95561399Y-101988031D01*
X95593862Y-101852817D01*
X95593863Y-101852812D01*
X95596146Y-101843302D01*
X95615294Y-101600000D01*
X95596146Y-101356698D01*
X95593862Y-101347183D01*
X95593861Y-101347178D01*
X95583886Y-101305633D01*
X95580070Y-101208553D01*
X95613696Y-101117402D01*
X95649935Y-101071432D01*
X96997117Y-99724250D01*
X97020421Y-99704223D01*
X97023670Y-99701194D01*
X97035324Y-99692617D01*
X97044689Y-99681593D01*
X97044694Y-99681589D01*
X97065906Y-99656621D01*
X97071788Y-99650241D01*
X97071752Y-99650209D01*
X97076564Y-99644803D01*
X97081670Y-99639697D01*
X97097780Y-99619335D01*
X97103270Y-99612639D01*
X97139266Y-99570269D01*
X97148632Y-99559245D01*
X97154657Y-99547445D01*
X97162881Y-99537051D01*
X97169008Y-99523942D01*
X97169012Y-99523935D01*
X97192549Y-99473575D01*
X97196365Y-99465768D01*
X97221637Y-99416275D01*
X97221638Y-99416272D01*
X97228219Y-99403384D01*
X97231369Y-99390510D01*
X97236979Y-99378507D01*
X97251241Y-99309942D01*
X97253158Y-99301470D01*
X97267178Y-99244171D01*
X97269815Y-99233394D01*
X97270500Y-99222352D01*
X97270500Y-99218508D01*
X97270542Y-99217145D01*
X97272617Y-99207170D01*
X97270591Y-99132285D01*
X97270500Y-99125552D01*
X97270500Y-96934007D01*
X97289454Y-96838719D01*
X97343430Y-96757937D01*
X98346398Y-95754969D01*
X105377885Y-95754969D01*
X105380050Y-95768635D01*
X105410729Y-95863054D01*
X105421289Y-95886772D01*
X105501514Y-96025726D01*
X105516777Y-96046734D01*
X105624143Y-96165976D01*
X105643434Y-96183346D01*
X105710161Y-96231826D01*
X105727658Y-96239893D01*
X105729481Y-96235938D01*
X105730000Y-96231556D01*
X105730000Y-95774527D01*
X105725931Y-95754069D01*
X105705473Y-95750000D01*
X105398522Y-95750000D01*
X105378064Y-95754069D01*
X105377885Y-95754969D01*
X98346398Y-95754969D01*
X99353979Y-94747388D01*
X105379122Y-94747388D01*
X105379920Y-94747835D01*
X105393589Y-94750000D01*
X105705473Y-94750000D01*
X105725931Y-94745931D01*
X105730000Y-94725473D01*
X105730000Y-94278287D01*
X105726240Y-94259387D01*
X105721968Y-94260236D01*
X105718120Y-94262391D01*
X105643434Y-94316654D01*
X105624143Y-94334024D01*
X105516777Y-94453266D01*
X105501514Y-94474274D01*
X105421289Y-94613228D01*
X105410729Y-94636946D01*
X105381573Y-94726677D01*
X105379122Y-94747388D01*
X99353979Y-94747388D01*
X100567938Y-93533430D01*
X100648720Y-93479454D01*
X100744008Y-93460500D01*
X106265993Y-93460500D01*
X106361281Y-93479454D01*
X106442063Y-93533430D01*
X106774954Y-93866321D01*
X106828930Y-93947103D01*
X106847884Y-94042391D01*
X106828930Y-94137679D01*
X106774954Y-94218461D01*
X106767903Y-94225239D01*
X106733946Y-94256628D01*
X106730519Y-94264062D01*
X106730000Y-94268444D01*
X106730000Y-96221713D01*
X106733760Y-96240613D01*
X106738032Y-96239764D01*
X106741880Y-96237609D01*
X106816566Y-96183346D01*
X106835857Y-96165976D01*
X106894622Y-96100711D01*
X106972468Y-96042581D01*
X107066633Y-96018666D01*
X107162783Y-96032607D01*
X107246279Y-96082282D01*
X107264699Y-96100703D01*
X107332539Y-96176047D01*
X107343096Y-96183717D01*
X107343097Y-96183718D01*
X107472992Y-96278093D01*
X107472997Y-96278096D01*
X107483554Y-96285766D01*
X107654082Y-96361690D01*
X107836667Y-96400500D01*
X108023333Y-96400500D01*
X108205918Y-96361690D01*
X108376445Y-96285766D01*
X108482506Y-96208708D01*
X108516903Y-96183718D01*
X108516904Y-96183717D01*
X108527461Y-96176047D01*
X108595294Y-96100711D01*
X108673136Y-96042582D01*
X108767302Y-96018666D01*
X108863451Y-96032607D01*
X108946947Y-96082281D01*
X108965378Y-96100711D01*
X109024143Y-96165976D01*
X109043434Y-96183346D01*
X109110161Y-96231826D01*
X109127658Y-96239893D01*
X109129481Y-96235938D01*
X109130000Y-96231556D01*
X109130000Y-94278287D01*
X109126240Y-94259387D01*
X109121968Y-94260236D01*
X109118118Y-94262392D01*
X109092206Y-94281219D01*
X109003975Y-94321895D01*
X108906895Y-94325710D01*
X108815745Y-94292083D01*
X108744402Y-94226135D01*
X108703726Y-94137904D01*
X108699678Y-94042326D01*
X108701800Y-94028381D01*
X108705148Y-94006370D01*
X108690961Y-93831941D01*
X108686503Y-93818179D01*
X108641487Y-93679220D01*
X108641485Y-93679217D01*
X108637027Y-93665454D01*
X108546239Y-93515840D01*
X108538915Y-93507548D01*
X107264250Y-92232883D01*
X107244223Y-92209579D01*
X107241194Y-92206330D01*
X107232617Y-92194676D01*
X107221593Y-92185311D01*
X107221589Y-92185306D01*
X107196621Y-92164094D01*
X107190241Y-92158212D01*
X107190209Y-92158248D01*
X107184803Y-92153436D01*
X107179697Y-92148330D01*
X107159335Y-92132220D01*
X107152639Y-92126730D01*
X107150159Y-92124623D01*
X107099245Y-92081368D01*
X107087445Y-92075343D01*
X107077051Y-92067119D01*
X107063942Y-92060992D01*
X107063935Y-92060988D01*
X107013575Y-92037451D01*
X107005768Y-92033635D01*
X106956275Y-92008363D01*
X106956272Y-92008362D01*
X106943384Y-92001781D01*
X106930510Y-91998631D01*
X106918507Y-91993021D01*
X106904342Y-91990075D01*
X106904340Y-91990074D01*
X106849922Y-91978755D01*
X106841475Y-91976844D01*
X106773394Y-91960185D01*
X106762352Y-91959500D01*
X106758474Y-91959500D01*
X106757155Y-91959459D01*
X106747169Y-91957382D01*
X106732709Y-91957773D01*
X106732706Y-91957773D01*
X106672263Y-91959409D01*
X106665527Y-91959500D01*
X100405763Y-91959500D01*
X100375091Y-91957180D01*
X100370665Y-91957026D01*
X100356370Y-91954851D01*
X100310870Y-91958552D01*
X100309296Y-91958680D01*
X100300616Y-91959033D01*
X100300619Y-91959081D01*
X100293409Y-91959500D01*
X100286178Y-91959500D01*
X100260357Y-91962510D01*
X100251780Y-91963358D01*
X100181941Y-91969039D01*
X100169337Y-91973122D01*
X100156172Y-91974657D01*
X100142578Y-91979591D01*
X100142571Y-91979593D01*
X100090303Y-91998565D01*
X100082086Y-92001387D01*
X100071610Y-92004781D01*
X100015454Y-92022973D01*
X100004125Y-92029848D01*
X99991669Y-92034369D01*
X99933058Y-92072796D01*
X99925739Y-92077413D01*
X99875325Y-92108005D01*
X99875323Y-92108007D01*
X99865840Y-92113761D01*
X99857548Y-92121084D01*
X99854823Y-92123809D01*
X99853837Y-92124736D01*
X99845315Y-92130323D01*
X99835366Y-92140825D01*
X99835364Y-92140827D01*
X99793821Y-92184681D01*
X99789124Y-92189508D01*
X97910624Y-94068009D01*
X96042883Y-95935750D01*
X96019579Y-95955777D01*
X96016330Y-95958806D01*
X96004676Y-95967383D01*
X95995311Y-95978407D01*
X95995306Y-95978411D01*
X95974094Y-96003379D01*
X95968212Y-96009759D01*
X95968248Y-96009791D01*
X95963436Y-96015197D01*
X95958330Y-96020303D01*
X95942220Y-96040665D01*
X95936737Y-96047352D01*
X95891368Y-96100755D01*
X95885343Y-96112555D01*
X95877119Y-96122949D01*
X95870992Y-96136058D01*
X95870988Y-96136065D01*
X95847451Y-96186425D01*
X95843635Y-96194232D01*
X95818363Y-96243725D01*
X95811781Y-96256616D01*
X95808631Y-96269490D01*
X95803021Y-96281493D01*
X95800075Y-96295658D01*
X95800074Y-96295660D01*
X95788755Y-96350078D01*
X95786844Y-96358525D01*
X95770185Y-96426606D01*
X95769500Y-96437648D01*
X95769500Y-96441526D01*
X95769459Y-96442845D01*
X95767382Y-96452831D01*
X95767773Y-96467291D01*
X95767773Y-96467294D01*
X95769409Y-96527737D01*
X95769500Y-96534473D01*
X95769500Y-98725993D01*
X95750546Y-98821281D01*
X95696570Y-98902063D01*
X94588568Y-100010065D01*
X94507786Y-100064041D01*
X94412498Y-100082995D01*
X94354370Y-100076114D01*
X94338964Y-100072416D01*
X94312822Y-100066139D01*
X94312815Y-100066138D01*
X94303302Y-100063854D01*
X94060000Y-100044706D01*
X94050241Y-100045474D01*
X93826456Y-100063086D01*
X93826455Y-100063086D01*
X93816698Y-100063854D01*
X93807188Y-100066137D01*
X93807183Y-100066138D01*
X93630037Y-100108668D01*
X93579388Y-100120828D01*
X93353911Y-100214223D01*
X93345565Y-100219337D01*
X93345560Y-100219340D01*
X93287369Y-100255000D01*
X93145821Y-100341741D01*
X92960241Y-100500241D01*
X92801741Y-100685821D01*
X92796630Y-100694162D01*
X92679340Y-100885560D01*
X92679338Y-100885564D01*
X92674223Y-100893911D01*
X92580828Y-101119388D01*
X92578546Y-101128893D01*
X92526140Y-101347178D01*
X92523854Y-101356698D01*
X92504706Y-101600000D01*
X91055500Y-101600000D01*
X91055500Y-94186900D01*
X91074454Y-94091612D01*
X91128430Y-94010830D01*
X92986039Y-92153222D01*
X93066821Y-92099246D01*
X93162109Y-92080292D01*
X93257397Y-92099246D01*
X93338179Y-92153222D01*
X93392155Y-92234004D01*
X93411109Y-92329292D01*
X93392155Y-92424580D01*
X93374421Y-92459386D01*
X93256035Y-92652573D01*
X93164447Y-92873687D01*
X93162164Y-92883195D01*
X93162163Y-92883199D01*
X93110861Y-93096886D01*
X93110860Y-93096893D01*
X93108576Y-93106406D01*
X93090918Y-93330766D01*
X93089798Y-93345000D01*
X93108576Y-93583594D01*
X93110860Y-93593107D01*
X93110861Y-93593114D01*
X93160386Y-93799399D01*
X93164447Y-93816313D01*
X93256035Y-94037427D01*
X93261149Y-94045773D01*
X93261152Y-94045778D01*
X93331159Y-94160018D01*
X93381086Y-94241491D01*
X93387434Y-94248924D01*
X93387435Y-94248925D01*
X93491794Y-94371114D01*
X93536519Y-94423481D01*
X93543961Y-94429837D01*
X93639466Y-94511405D01*
X93718509Y-94578914D01*
X93726848Y-94584024D01*
X93914222Y-94698848D01*
X93914227Y-94698851D01*
X93922573Y-94703965D01*
X94143687Y-94795553D01*
X94153195Y-94797836D01*
X94153199Y-94797837D01*
X94366886Y-94849139D01*
X94366893Y-94849140D01*
X94376406Y-94851424D01*
X94615000Y-94870202D01*
X94853594Y-94851424D01*
X94863107Y-94849140D01*
X94863114Y-94849139D01*
X95076801Y-94797837D01*
X95076805Y-94797836D01*
X95086313Y-94795553D01*
X95307427Y-94703965D01*
X95315773Y-94698851D01*
X95315778Y-94698848D01*
X95503152Y-94584024D01*
X95511491Y-94578914D01*
X95590535Y-94511405D01*
X95686039Y-94429837D01*
X95693481Y-94423481D01*
X95738206Y-94371114D01*
X95842565Y-94248925D01*
X95842566Y-94248924D01*
X95848914Y-94241491D01*
X95898841Y-94160018D01*
X95968848Y-94045778D01*
X95968851Y-94045773D01*
X95973965Y-94037427D01*
X96065553Y-93816313D01*
X96069614Y-93799399D01*
X96119139Y-93593114D01*
X96119140Y-93593107D01*
X96121424Y-93583594D01*
X96140202Y-93345000D01*
X96121424Y-93106406D01*
X96119140Y-93096893D01*
X96119139Y-93096886D01*
X96067837Y-92883199D01*
X96067836Y-92883195D01*
X96065553Y-92873687D01*
X95973965Y-92652573D01*
X95968851Y-92644227D01*
X95968848Y-92644222D01*
X95854024Y-92456848D01*
X95848914Y-92448509D01*
X95693481Y-92266519D01*
X95560826Y-92153222D01*
X95518925Y-92117435D01*
X95518924Y-92117434D01*
X95511491Y-92111086D01*
X95429739Y-92060988D01*
X95315778Y-91991152D01*
X95315773Y-91991149D01*
X95307427Y-91986035D01*
X95289852Y-91978755D01*
X95243728Y-91959650D01*
X95086313Y-91894447D01*
X95076805Y-91892164D01*
X95076801Y-91892163D01*
X94863114Y-91840861D01*
X94863107Y-91840860D01*
X94853594Y-91838576D01*
X94615000Y-91819798D01*
X94376406Y-91838576D01*
X94366893Y-91840860D01*
X94366886Y-91840861D01*
X94153199Y-91892163D01*
X94153195Y-91892164D01*
X94143687Y-91894447D01*
X93986272Y-91959650D01*
X93940149Y-91978755D01*
X93922573Y-91986035D01*
X93729391Y-92104417D01*
X93638245Y-92138043D01*
X93541165Y-92134229D01*
X93452934Y-92093555D01*
X93386985Y-92022212D01*
X93353358Y-91931062D01*
X93357172Y-91833982D01*
X93397846Y-91745751D01*
X93423222Y-91716039D01*
X94645831Y-90493430D01*
X94726613Y-90439454D01*
X94821901Y-90420500D01*
X115528499Y-90420500D01*
X115623787Y-90439454D01*
G37*
%TD.AperFunction*%
%TA.AperFunction,Conductor*%
G36*
X98777759Y-129206657D02*
G01*
X98866202Y-129246869D01*
X98896971Y-129273008D01*
X99431570Y-129807607D01*
X99485546Y-129888389D01*
X99504500Y-129983677D01*
X99504500Y-141008500D01*
X99485546Y-141103788D01*
X99431570Y-141184570D01*
X99350788Y-141238546D01*
X99255500Y-141257500D01*
X98836748Y-141257500D01*
X98741460Y-141238546D01*
X98660678Y-141184570D01*
X98608400Y-141107788D01*
X98541790Y-140954594D01*
X98541788Y-140954591D01*
X98537712Y-140945216D01*
X98408155Y-140744951D01*
X98247629Y-140568536D01*
X98085872Y-140440788D01*
X98068463Y-140427039D01*
X98068461Y-140427038D01*
X98060445Y-140420707D01*
X97928227Y-140347719D01*
X97860577Y-140310374D01*
X97860573Y-140310372D01*
X97851631Y-140305436D01*
X97842005Y-140302027D01*
X97842000Y-140302025D01*
X97636429Y-140229229D01*
X97636430Y-140229229D01*
X97626794Y-140225817D01*
X97569477Y-140215607D01*
X97402035Y-140185780D01*
X97402029Y-140185779D01*
X97391972Y-140183988D01*
X97381751Y-140183863D01*
X97381750Y-140183863D01*
X97250398Y-140182258D01*
X97153471Y-140181074D01*
X97143370Y-140182620D01*
X97143366Y-140182620D01*
X96927798Y-140215607D01*
X96927793Y-140215608D01*
X96917698Y-140217153D01*
X96690982Y-140291255D01*
X96681911Y-140295977D01*
X96654255Y-140310374D01*
X96479414Y-140401390D01*
X96288675Y-140544602D01*
X96281616Y-140551989D01*
X96279817Y-140553586D01*
X96195977Y-140602676D01*
X96099732Y-140615946D01*
X96005736Y-140591374D01*
X95928298Y-140532701D01*
X95879208Y-140448861D01*
X95865500Y-140367384D01*
X95865500Y-139832500D01*
X95884454Y-139737212D01*
X95938430Y-139656430D01*
X96019212Y-139602454D01*
X96114500Y-139583500D01*
X98479674Y-139583500D01*
X98552740Y-139568966D01*
X98573132Y-139555341D01*
X98573134Y-139555340D01*
X98615205Y-139527229D01*
X98635601Y-139513601D01*
X98665037Y-139469546D01*
X98677340Y-139451134D01*
X98677341Y-139451132D01*
X98690966Y-139430740D01*
X98705500Y-139357674D01*
X98705500Y-136908326D01*
X98690966Y-136835260D01*
X98677341Y-136814868D01*
X98677340Y-136814866D01*
X98649229Y-136772795D01*
X98635601Y-136752399D01*
X98615205Y-136738771D01*
X98573134Y-136710660D01*
X98573132Y-136710659D01*
X98552740Y-136697034D01*
X98479674Y-136682500D01*
X96114500Y-136682500D01*
X96019212Y-136663546D01*
X95938430Y-136609570D01*
X95884454Y-136528788D01*
X95865500Y-136433500D01*
X95865500Y-133355710D01*
X96677500Y-133355710D01*
X96694988Y-133367046D01*
X96866526Y-133432551D01*
X96886095Y-133438236D01*
X97099710Y-133481696D01*
X97119937Y-133484108D01*
X97337790Y-133492097D01*
X97358138Y-133491173D01*
X97574369Y-133463472D01*
X97594292Y-133459238D01*
X97803100Y-133396592D01*
X97822057Y-133389163D01*
X97869166Y-133366085D01*
X97885719Y-133353452D01*
X97876638Y-133340744D01*
X97299342Y-132763449D01*
X97282000Y-132751861D01*
X97264658Y-132763449D01*
X96687778Y-133340328D01*
X96677500Y-133355710D01*
X95865500Y-133355710D01*
X95865500Y-132842681D01*
X95884454Y-132747393D01*
X95938430Y-132666611D01*
X95976889Y-132635162D01*
X95982360Y-132631534D01*
X96557551Y-132056342D01*
X96569139Y-132039000D01*
X97994861Y-132039000D01*
X98006449Y-132056342D01*
X98581044Y-132630938D01*
X98598386Y-132642526D01*
X98598494Y-132642454D01*
X98607408Y-132630025D01*
X98630270Y-132583768D01*
X98637765Y-132564838D01*
X98701140Y-132356247D01*
X98705444Y-132336340D01*
X98734368Y-132116636D01*
X98735394Y-132103460D01*
X98736807Y-132045626D01*
X98736426Y-132032394D01*
X98718269Y-131811548D01*
X98714943Y-131791455D01*
X98661834Y-131580020D01*
X98655273Y-131560748D01*
X98608105Y-131452271D01*
X98596862Y-131436064D01*
X98581759Y-131446347D01*
X98006449Y-132021658D01*
X97994861Y-132039000D01*
X96569139Y-132039000D01*
X96557551Y-132021658D01*
X95983313Y-131447419D01*
X95976161Y-131442640D01*
X95907463Y-131373940D01*
X95870284Y-131284180D01*
X95865500Y-131235605D01*
X95865500Y-130723534D01*
X96677397Y-130723534D01*
X96677809Y-130724948D01*
X96685382Y-130735276D01*
X97264658Y-131314551D01*
X97282000Y-131326139D01*
X97299342Y-131314551D01*
X97876273Y-130737621D01*
X97887861Y-130720279D01*
X97886172Y-130717751D01*
X97881353Y-130714127D01*
X97868803Y-130708487D01*
X97663293Y-130635711D01*
X97643607Y-130630510D01*
X97428988Y-130592281D01*
X97408703Y-130590363D01*
X97190732Y-130587700D01*
X97170399Y-130589122D01*
X96954918Y-130622095D01*
X96935097Y-130626817D01*
X96727892Y-130694543D01*
X96709113Y-130702436D01*
X96693663Y-130710479D01*
X96677397Y-130723534D01*
X95865500Y-130723534D01*
X95865500Y-129778687D01*
X95884454Y-129683399D01*
X95938430Y-129602617D01*
X96019212Y-129548641D01*
X96114500Y-129529687D01*
X96209788Y-129548641D01*
X96273552Y-129587106D01*
X96384951Y-129679592D01*
X96439134Y-129724575D01*
X96447176Y-129731252D01*
X96653112Y-129851591D01*
X96662655Y-129855235D01*
X96662661Y-129855238D01*
X96866388Y-129933034D01*
X96866393Y-129933035D01*
X96875937Y-129936680D01*
X96979853Y-129957822D01*
X97099653Y-129982196D01*
X97099655Y-129982196D01*
X97109666Y-129984233D01*
X97213566Y-129988043D01*
X97337813Y-129992599D01*
X97337818Y-129992599D01*
X97348025Y-129992973D01*
X97358156Y-129991675D01*
X97358160Y-129991675D01*
X97574479Y-129963963D01*
X97574482Y-129963962D01*
X97584609Y-129962665D01*
X97813068Y-129894125D01*
X98027264Y-129789191D01*
X98221445Y-129650683D01*
X98390397Y-129482320D01*
X98518694Y-129303775D01*
X98589688Y-129237455D01*
X98680661Y-129203351D01*
X98777759Y-129206657D01*
G37*
%TD.AperFunction*%
%TD*%
M02*
