%TF.GenerationSoftware,KiCad,Pcbnew,(6.0.9)*%
%TF.CreationDate,2023-01-02T17:12:58+02:00*%
%TF.ProjectId,ESP32_LEDCONTROLLER,45535033-325f-44c4-9544-434f4e54524f,rev?*%
%TF.SameCoordinates,Original*%
%TF.FileFunction,Legend,Bot*%
%TF.FilePolarity,Positive*%
%FSLAX46Y46*%
G04 Gerber Fmt 4.6, Leading zero omitted, Abs format (unit mm)*
G04 Created by KiCad (PCBNEW (6.0.9)) date 2023-01-02 17:12:58*
%MOMM*%
%LPD*%
G01*
G04 APERTURE LIST*
%TA.AperFunction,Profile*%
%ADD10C,0.100000*%
%TD*%
%ADD11C,0.300000*%
G04 APERTURE END LIST*
D10*
X94488000Y-153543000D02*
G75*
G03*
X94488000Y-153543000I-1270000J0D01*
G01*
X95885000Y-93345000D02*
G75*
G03*
X95885000Y-93345000I-1270000J0D01*
G01*
X142240000Y-153543000D02*
G75*
G03*
X142240000Y-153543000I-1270000J0D01*
G01*
X141986000Y-93980000D02*
X141986000Y-113284000D01*
X142621000Y-113919000D01*
X142621000Y-155194000D01*
X91440000Y-155194000D01*
X91440000Y-117475000D01*
X90805000Y-116840000D01*
X90805000Y-93980000D01*
X94615000Y-90170000D01*
X138176000Y-90170000D01*
X141986000Y-93980000D01*
D11*
%TO.C,G\u002A\u002A\u002A*%
X119717478Y-149469972D02*
X119862621Y-149397400D01*
X120080335Y-149397400D01*
X120298049Y-149469972D01*
X120443192Y-149615114D01*
X120515764Y-149760257D01*
X120588335Y-150050543D01*
X120588335Y-150268257D01*
X120515764Y-150558543D01*
X120443192Y-150703686D01*
X120298049Y-150848829D01*
X120080335Y-150921400D01*
X119935192Y-150921400D01*
X119717478Y-150848829D01*
X119644907Y-150776257D01*
X119644907Y-150268257D01*
X119935192Y-150268257D01*
X118774049Y-149397400D02*
X118774049Y-149760257D01*
X119136907Y-149615114D02*
X118774049Y-149760257D01*
X118411192Y-149615114D01*
X118991764Y-150050543D02*
X118774049Y-149760257D01*
X118556335Y-150050543D01*
X117612907Y-149397400D02*
X117612907Y-149760257D01*
X117975764Y-149615114D02*
X117612907Y-149760257D01*
X117250049Y-149615114D01*
X117830621Y-150050543D02*
X117612907Y-149760257D01*
X117395192Y-150050543D01*
X116451764Y-149397400D02*
X116451764Y-149760257D01*
X116814621Y-149615114D02*
X116451764Y-149760257D01*
X116088907Y-149615114D01*
X116669478Y-150050543D02*
X116451764Y-149760257D01*
X116234049Y-150050543D01*
G36*
X133573006Y-153272161D02*
G01*
X133703058Y-153275706D01*
X133790473Y-153284960D01*
X133835822Y-153299977D01*
X133858565Y-153325228D01*
X133888681Y-153399053D01*
X133907714Y-153508319D01*
X133914648Y-153648534D01*
X133915168Y-153795828D01*
X133302065Y-153795828D01*
X133270102Y-153724908D01*
X133258914Y-153690617D01*
X133247117Y-153612778D01*
X133243641Y-153521440D01*
X133248156Y-153430747D01*
X133260331Y-153354845D01*
X133279838Y-153307875D01*
X133289733Y-153298427D01*
X133318156Y-153285357D01*
X133366306Y-153277308D01*
X133442140Y-153273241D01*
X133553618Y-153272116D01*
X133573006Y-153272161D01*
G37*
G36*
X128360955Y-153273658D02*
G01*
X128440720Y-153281505D01*
X128501504Y-153300326D01*
X128545868Y-153334784D01*
X128576377Y-153389546D01*
X128595594Y-153469276D01*
X128606081Y-153578641D01*
X128610402Y-153722305D01*
X128611120Y-153904934D01*
X128611064Y-153941265D01*
X128609664Y-154120009D01*
X128604648Y-154260529D01*
X128593577Y-154367416D01*
X128574013Y-154445262D01*
X128543517Y-154498658D01*
X128499652Y-154532195D01*
X128439978Y-154550466D01*
X128362056Y-154558062D01*
X128263450Y-154559573D01*
X128173712Y-154558314D01*
X128078885Y-154549972D01*
X128015059Y-154529744D01*
X127974932Y-154492976D01*
X127951203Y-154435012D01*
X127936570Y-154351200D01*
X127928533Y-154265113D01*
X127922134Y-154139101D01*
X127918749Y-153995558D01*
X127918392Y-153846696D01*
X127921076Y-153704729D01*
X127926815Y-153581869D01*
X127935621Y-153490329D01*
X127947926Y-153418553D01*
X127969237Y-153352454D01*
X128003906Y-153309779D01*
X128059472Y-153285510D01*
X128143474Y-153274628D01*
X128263450Y-153272116D01*
X128360955Y-153273658D01*
G37*
G36*
X122857221Y-153954202D02*
G01*
X122955067Y-153960101D01*
X123073763Y-153973634D01*
X123158190Y-153996331D01*
X123214007Y-154032482D01*
X123246870Y-154086381D01*
X123262439Y-154162321D01*
X123266371Y-154264592D01*
X123265762Y-154301150D01*
X123254413Y-154413577D01*
X123229973Y-154496109D01*
X123194086Y-154542429D01*
X123192742Y-154543127D01*
X123157971Y-154549310D01*
X123089763Y-154554397D01*
X122997348Y-154557876D01*
X122889953Y-154559239D01*
X122611732Y-154559573D01*
X122611732Y-153942091D01*
X122857221Y-153954202D01*
G37*
G36*
X117593830Y-153952912D02*
G01*
X117713819Y-153967712D01*
X117809755Y-153992223D01*
X117872116Y-154025023D01*
X117892435Y-154043570D01*
X117913636Y-154071654D01*
X117925229Y-154109279D01*
X117930081Y-154167806D01*
X117931062Y-154258601D01*
X117930797Y-154295956D01*
X117925961Y-154389809D01*
X117913724Y-154454424D01*
X117892371Y-154500524D01*
X117853681Y-154559573D01*
X117264280Y-154559573D01*
X117276422Y-153959487D01*
X117385529Y-153952298D01*
X117459313Y-153949248D01*
X117593830Y-153952912D01*
G37*
G36*
X116130804Y-154563228D02*
G01*
X115869667Y-154555946D01*
X115826030Y-154554625D01*
X115711286Y-154548543D01*
X115631069Y-154536507D01*
X115578421Y-154514389D01*
X115546383Y-154478060D01*
X115528000Y-154423390D01*
X115516313Y-154346250D01*
X115512495Y-154296818D01*
X115509002Y-154205287D01*
X115506882Y-154088187D01*
X115506301Y-153955391D01*
X115507424Y-153816774D01*
X115509036Y-153726031D01*
X115513472Y-153585403D01*
X115520537Y-153479570D01*
X115531175Y-153402764D01*
X115546333Y-153349216D01*
X115566957Y-153313157D01*
X115593993Y-153288816D01*
X115621450Y-153282826D01*
X115684007Y-153277529D01*
X115771531Y-153273884D01*
X115874403Y-153272451D01*
X116130804Y-153272116D01*
X116130804Y-154563228D01*
G37*
G36*
X112310417Y-153272415D02*
G01*
X112413496Y-153276924D01*
X112483616Y-153291815D01*
X112527568Y-153323284D01*
X112552140Y-153377528D01*
X112564122Y-153460741D01*
X112570303Y-153579120D01*
X112579007Y-153795828D01*
X112287337Y-153795494D01*
X112264233Y-153795412D01*
X112156317Y-153793543D01*
X112064936Y-153789604D01*
X111999122Y-153784102D01*
X111967913Y-153777545D01*
X111959719Y-153769235D01*
X111938208Y-153725770D01*
X111920439Y-153663317D01*
X111916519Y-153641712D01*
X111908603Y-153565494D01*
X111910006Y-153503968D01*
X111915981Y-153451731D01*
X111919292Y-153390965D01*
X111920523Y-153366372D01*
X111933233Y-153326224D01*
X111964754Y-153299056D01*
X112021256Y-153282535D01*
X112108907Y-153274333D01*
X112233877Y-153272116D01*
X112310417Y-153272415D01*
G37*
G36*
X109017058Y-153533972D02*
G01*
X108769495Y-153533972D01*
X108670769Y-153533061D01*
X108580640Y-153527420D01*
X108518506Y-153513391D01*
X108475716Y-153487346D01*
X108443622Y-153445659D01*
X108413574Y-153384702D01*
X108407776Y-153368594D01*
X108394507Y-153297318D01*
X108387624Y-153204060D01*
X108387349Y-153104747D01*
X108393905Y-153015309D01*
X108407515Y-152951673D01*
X108433982Y-152899509D01*
X108476783Y-152841146D01*
X108484200Y-152833486D01*
X108508084Y-152814548D01*
X108539595Y-152802442D01*
X108587737Y-152795662D01*
X108661510Y-152792700D01*
X108769917Y-152792048D01*
X109017058Y-152792048D01*
X109017058Y-153533972D01*
G37*
G36*
X105471096Y-153501240D02*
G01*
X105285615Y-153507880D01*
X105161886Y-153509762D01*
X105056356Y-153502453D01*
X104981189Y-153482018D01*
X104929636Y-153445237D01*
X104894948Y-153388890D01*
X104870376Y-153309757D01*
X104860652Y-153258376D01*
X104853863Y-153137027D01*
X104866402Y-153018421D01*
X104896306Y-152915485D01*
X104941608Y-152841146D01*
X104949187Y-152833346D01*
X104973117Y-152814471D01*
X105004710Y-152802407D01*
X105052961Y-152795650D01*
X105126862Y-152792698D01*
X105235406Y-152792048D01*
X105483088Y-152792048D01*
X105471096Y-153501240D01*
G37*
G36*
X105482007Y-154559573D02*
G01*
X105234004Y-154559573D01*
X105130388Y-154558798D01*
X105051017Y-154555362D01*
X104997387Y-154547915D01*
X104960182Y-154535107D01*
X104930086Y-154515590D01*
X104899215Y-154484880D01*
X104852448Y-154399515D01*
X104820025Y-154275896D01*
X104819281Y-154271361D01*
X104816317Y-154199997D01*
X104822400Y-154108744D01*
X104835441Y-154018103D01*
X104853354Y-153948577D01*
X104878559Y-153900089D01*
X104919910Y-153844926D01*
X104930574Y-153834116D01*
X104954418Y-153816568D01*
X104986938Y-153805377D01*
X105036874Y-153799131D01*
X105112966Y-153796418D01*
X105223955Y-153795828D01*
X105482007Y-153795828D01*
X105482007Y-154559573D01*
G37*
G36*
X138585471Y-97715921D02*
G01*
X138599467Y-97739719D01*
X138629134Y-97797387D01*
X138672010Y-97883906D01*
X138725632Y-97994258D01*
X138787537Y-98123425D01*
X138855261Y-98266388D01*
X138860724Y-98277980D01*
X138929321Y-98423047D01*
X138992824Y-98556453D01*
X139048547Y-98672625D01*
X139093806Y-98765993D01*
X139125918Y-98830984D01*
X139142198Y-98862026D01*
X139149613Y-98870460D01*
X139175716Y-98887253D01*
X139221790Y-98907867D01*
X139291532Y-98933551D01*
X139388638Y-98965557D01*
X139516804Y-99005134D01*
X139679725Y-99053534D01*
X139881099Y-99112006D01*
X140010668Y-99149543D01*
X140168328Y-99195797D01*
X140308140Y-99237467D01*
X140425277Y-99273082D01*
X140514913Y-99301171D01*
X140572224Y-99320262D01*
X140592382Y-99328883D01*
X140584542Y-99332893D01*
X140540828Y-99347985D01*
X140463073Y-99372413D01*
X140356218Y-99404693D01*
X140225204Y-99443340D01*
X140074973Y-99486869D01*
X139910466Y-99533796D01*
X139814219Y-99561202D01*
X139653485Y-99607691D01*
X139507934Y-99650683D01*
X139382937Y-99688541D01*
X139283870Y-99719626D01*
X139216104Y-99742301D01*
X139185013Y-99754928D01*
X139184031Y-99755640D01*
X139161864Y-99785490D01*
X139124309Y-99850098D01*
X139073785Y-99944814D01*
X139012713Y-100064985D01*
X138943513Y-100205962D01*
X138868605Y-100363092D01*
X138847873Y-100407115D01*
X138779877Y-100550544D01*
X138718362Y-100678880D01*
X138665718Y-100787230D01*
X138624336Y-100870700D01*
X138596609Y-100924399D01*
X138584928Y-100943434D01*
X138583308Y-100941778D01*
X138566683Y-100912220D01*
X138534717Y-100849421D01*
X138489800Y-100758267D01*
X138434323Y-100643644D01*
X138370676Y-100510440D01*
X138301251Y-100363541D01*
X138296994Y-100354495D01*
X138221866Y-100197117D01*
X138152808Y-100056661D01*
X138092199Y-99937699D01*
X138042415Y-99844801D01*
X138005837Y-99782537D01*
X137984842Y-99755478D01*
X137971944Y-99749638D01*
X137919313Y-99731111D01*
X137833072Y-99703444D01*
X137718594Y-99668278D01*
X137581252Y-99627251D01*
X137426418Y-99582002D01*
X137259464Y-99534170D01*
X137156455Y-99504806D01*
X137000193Y-99459694D01*
X136861254Y-99418888D01*
X136744579Y-99383879D01*
X136655108Y-99356156D01*
X136597784Y-99337210D01*
X136577548Y-99328531D01*
X136589407Y-99322885D01*
X136638372Y-99306078D01*
X136720808Y-99279952D01*
X136831889Y-99245976D01*
X136966790Y-99205625D01*
X137120682Y-99160367D01*
X137288741Y-99111677D01*
X137417219Y-99074560D01*
X137594156Y-99022639D01*
X137734956Y-98980003D01*
X137843343Y-98945393D01*
X137923037Y-98917551D01*
X137977762Y-98895218D01*
X138011239Y-98877137D01*
X138027190Y-98862049D01*
X138027833Y-98860953D01*
X138045366Y-98827012D01*
X138078549Y-98759575D01*
X138124700Y-98664210D01*
X138181137Y-98546487D01*
X138245178Y-98411973D01*
X138314141Y-98266236D01*
X138323428Y-98246567D01*
X138390615Y-98105170D01*
X138451647Y-97978249D01*
X138504059Y-97870817D01*
X138545386Y-97787887D01*
X138573164Y-97734469D01*
X138584928Y-97715577D01*
X138585471Y-97715921D01*
G37*
G36*
X134833242Y-125124849D02*
G01*
X134849806Y-125154370D01*
X134881746Y-125217132D01*
X134926665Y-125308240D01*
X134982169Y-125422799D01*
X135045859Y-125555914D01*
X135115340Y-125702689D01*
X135134034Y-125742309D01*
X135203168Y-125887560D01*
X135266595Y-126018901D01*
X135321776Y-126131199D01*
X135366167Y-126219324D01*
X135397229Y-126278144D01*
X135412418Y-126302528D01*
X135426209Y-126308760D01*
X135478299Y-126326779D01*
X135563796Y-126354020D01*
X135677606Y-126388928D01*
X135814635Y-126429946D01*
X135969789Y-126475521D01*
X136137977Y-126524096D01*
X136258451Y-126558780D01*
X136415625Y-126604593D01*
X136555114Y-126645903D01*
X136672056Y-126681238D01*
X136761589Y-126709122D01*
X136818851Y-126728082D01*
X136838978Y-126736642D01*
X136831108Y-126740636D01*
X136787361Y-126755744D01*
X136709588Y-126780238D01*
X136602732Y-126812628D01*
X136471732Y-126851424D01*
X136321529Y-126895137D01*
X136157063Y-126942277D01*
X136060714Y-126969838D01*
X135900041Y-127016476D01*
X135754545Y-127059546D01*
X135629597Y-127097412D01*
X135530569Y-127128436D01*
X135462829Y-127150981D01*
X135431749Y-127163409D01*
X135410954Y-127189741D01*
X135374260Y-127251821D01*
X135324120Y-127345234D01*
X135262767Y-127465697D01*
X135192430Y-127608930D01*
X135115340Y-127770652D01*
X135094623Y-127814644D01*
X135026624Y-127958092D01*
X134965105Y-128086460D01*
X134912458Y-128194852D01*
X134871074Y-128278372D01*
X134843345Y-128332127D01*
X134831663Y-128351220D01*
X134830043Y-128349579D01*
X134813415Y-128320074D01*
X134781448Y-128257324D01*
X134736531Y-128166214D01*
X134681055Y-128051629D01*
X134617410Y-127918451D01*
X134547986Y-127771567D01*
X134471517Y-127611116D01*
X134401314Y-127468107D01*
X134339960Y-127347565D01*
X134289713Y-127253826D01*
X134252833Y-127191225D01*
X134231577Y-127164100D01*
X134218644Y-127158320D01*
X134165987Y-127139870D01*
X134079738Y-127112229D01*
X133965266Y-127077036D01*
X133827941Y-127035933D01*
X133673132Y-126990558D01*
X133506209Y-126942553D01*
X133403022Y-126913022D01*
X133246805Y-126867787D01*
X133107909Y-126826921D01*
X132991271Y-126791912D01*
X132901830Y-126764251D01*
X132844525Y-126745426D01*
X132824294Y-126736927D01*
X132835070Y-126731826D01*
X132882711Y-126715553D01*
X132963950Y-126689896D01*
X133073933Y-126656332D01*
X133207810Y-126616334D01*
X133360729Y-126571380D01*
X133527840Y-126522944D01*
X133646902Y-126488395D01*
X133806796Y-126441088D01*
X133950094Y-126397635D01*
X134071714Y-126359634D01*
X134166573Y-126328680D01*
X134229591Y-126306371D01*
X134255684Y-126294302D01*
X134257558Y-126291798D01*
X134276530Y-126257911D01*
X134310850Y-126190870D01*
X134357953Y-126095895D01*
X134415269Y-125978205D01*
X134480231Y-125843019D01*
X134550272Y-125695555D01*
X134568342Y-125657347D01*
X134636341Y-125514526D01*
X134697915Y-125386675D01*
X134750649Y-125278706D01*
X134792128Y-125195530D01*
X134819938Y-125142059D01*
X134831663Y-125123205D01*
X134833242Y-125124849D01*
G37*
G36*
X124330160Y-94082979D02*
G01*
X124377118Y-94085406D01*
X124466439Y-94089100D01*
X124587951Y-94093578D01*
X124735555Y-94098631D01*
X124903153Y-94104051D01*
X125084644Y-94109631D01*
X125273931Y-94115163D01*
X125910827Y-94134930D01*
X127147270Y-94182190D01*
X128414952Y-94241838D01*
X129707072Y-94313402D01*
X131016828Y-94396412D01*
X132337417Y-94490399D01*
X133662037Y-94594892D01*
X134983886Y-94709420D01*
X136296160Y-94833514D01*
X137592058Y-94966704D01*
X137821991Y-94991562D01*
X138235883Y-95037411D01*
X138668717Y-95086630D01*
X139115294Y-95138571D01*
X139570419Y-95192585D01*
X140028894Y-95248024D01*
X140485524Y-95304241D01*
X140935110Y-95360588D01*
X141372457Y-95416417D01*
X141792368Y-95471079D01*
X142189645Y-95523928D01*
X142559094Y-95574314D01*
X142895516Y-95621591D01*
X143193715Y-95665110D01*
X143217013Y-95668587D01*
X143346772Y-95687854D01*
X143460222Y-95704538D01*
X143550651Y-95717662D01*
X143611347Y-95726253D01*
X143635596Y-95729333D01*
X143641041Y-95744112D01*
X143645685Y-95791893D01*
X143647470Y-95861249D01*
X143647470Y-95993166D01*
X143576551Y-95981151D01*
X143523580Y-95972451D01*
X143392424Y-95952190D01*
X143224496Y-95927451D01*
X143024079Y-95898806D01*
X142795453Y-95866824D01*
X142542899Y-95832074D01*
X142270700Y-95795127D01*
X141983135Y-95756552D01*
X141684488Y-95716919D01*
X141379039Y-95676797D01*
X141071069Y-95636757D01*
X140764860Y-95597368D01*
X140464694Y-95559200D01*
X140174851Y-95522822D01*
X139899613Y-95488805D01*
X139643261Y-95457718D01*
X139061744Y-95389113D01*
X137544019Y-95220290D01*
X136012417Y-95064364D01*
X134473696Y-94921850D01*
X132934614Y-94793265D01*
X131401929Y-94679122D01*
X129882399Y-94579937D01*
X128382783Y-94496225D01*
X126909838Y-94428502D01*
X125470323Y-94377282D01*
X125365077Y-94374064D01*
X125173377Y-94367977D01*
X124987205Y-94361796D01*
X124814179Y-94355790D01*
X124661919Y-94350225D01*
X124538045Y-94345369D01*
X124450177Y-94341488D01*
X124182866Y-94328375D01*
X124182866Y-94073453D01*
X124330160Y-94082979D01*
G37*
G36*
X124319249Y-105985454D02*
G01*
X124435225Y-105986353D01*
X124622555Y-105989903D01*
X124847055Y-105995979D01*
X125105108Y-106004403D01*
X125393098Y-106014998D01*
X125707410Y-106027586D01*
X126044430Y-106041989D01*
X126400541Y-106058029D01*
X126772127Y-106075528D01*
X127155575Y-106094309D01*
X127547267Y-106114193D01*
X127943589Y-106135003D01*
X128340925Y-106156561D01*
X128735660Y-106178688D01*
X129124179Y-106201208D01*
X129502865Y-106223942D01*
X129868103Y-106246713D01*
X130216279Y-106269342D01*
X130543776Y-106291652D01*
X130614988Y-106296651D01*
X131744443Y-106381188D01*
X132895069Y-106476880D01*
X134060401Y-106582994D01*
X135233976Y-106698798D01*
X136409327Y-106823559D01*
X137579992Y-106956544D01*
X138739505Y-107097020D01*
X139881401Y-107244254D01*
X140999217Y-107397514D01*
X142086487Y-107556066D01*
X143136748Y-107719179D01*
X143205182Y-107730132D01*
X143338914Y-107751397D01*
X143454920Y-107769654D01*
X143546860Y-107783919D01*
X143608394Y-107793201D01*
X143633182Y-107796515D01*
X143639683Y-107810940D01*
X143645307Y-107858383D01*
X143647470Y-107927443D01*
X143646439Y-107986996D01*
X143643046Y-108038540D01*
X143638107Y-108058371D01*
X143622179Y-108056155D01*
X143568212Y-108047883D01*
X143481836Y-108034362D01*
X143368938Y-108016519D01*
X143235403Y-107995281D01*
X143087119Y-107971575D01*
X142593707Y-107893680D01*
X141453378Y-107722097D01*
X140279172Y-107556617D01*
X139077653Y-107397986D01*
X137855385Y-107246944D01*
X136618930Y-107104236D01*
X135374851Y-106970604D01*
X134129712Y-106846790D01*
X132890076Y-106733538D01*
X131662507Y-106631591D01*
X130453566Y-106541691D01*
X130254815Y-106528020D01*
X129841066Y-106500750D01*
X129406853Y-106473573D01*
X128957509Y-106446756D01*
X128498364Y-106420567D01*
X128034750Y-106395276D01*
X127571999Y-106371150D01*
X127115443Y-106348457D01*
X126670414Y-106327467D01*
X126242242Y-106308446D01*
X125836261Y-106291664D01*
X125457801Y-106277390D01*
X125112194Y-106265890D01*
X124804773Y-106257434D01*
X124666648Y-106253898D01*
X124524683Y-106249732D01*
X124401950Y-106245564D01*
X124304548Y-106241620D01*
X124238579Y-106238129D01*
X124210142Y-106235316D01*
X124202198Y-106229403D01*
X124187849Y-106186201D01*
X124182866Y-106106049D01*
X124182866Y-105985347D01*
X124319249Y-105985454D01*
G37*
G36*
X124548373Y-120398692D02*
G01*
X125510467Y-120436652D01*
X127520577Y-120535508D01*
X129502066Y-120660028D01*
X131459825Y-120810716D01*
X133398744Y-120988073D01*
X135323714Y-121192602D01*
X137239626Y-121424806D01*
X139151370Y-121685187D01*
X141063838Y-121974247D01*
X142981921Y-122292489D01*
X143636560Y-122405879D01*
X143643104Y-122531352D01*
X143644364Y-122559266D01*
X143643721Y-122619655D01*
X143634668Y-122649079D01*
X143615134Y-122656824D01*
X143603796Y-122655685D01*
X143552937Y-122648270D01*
X143467515Y-122634722D01*
X143352945Y-122615931D01*
X143214641Y-122592791D01*
X143058017Y-122566194D01*
X142888486Y-122537032D01*
X142697036Y-122504046D01*
X140466313Y-122141436D01*
X138217522Y-121815489D01*
X135955652Y-121526720D01*
X133685694Y-121275641D01*
X131412635Y-121062766D01*
X129141465Y-120888607D01*
X126877172Y-120753678D01*
X124624747Y-120658492D01*
X124182866Y-120643701D01*
X124182866Y-120385388D01*
X124548373Y-120398692D01*
G37*
G36*
X124362891Y-132207713D02*
G01*
X125419149Y-132252908D01*
X126555562Y-132309334D01*
X127660405Y-132372863D01*
X128739798Y-132444012D01*
X129799866Y-132523299D01*
X130846731Y-132611240D01*
X131886515Y-132708353D01*
X132925341Y-132815155D01*
X133969332Y-132932162D01*
X135024610Y-133059893D01*
X136097299Y-133198864D01*
X136267421Y-133221763D01*
X136858325Y-133303709D01*
X137469894Y-133392020D01*
X138096302Y-133485731D01*
X138731721Y-133583879D01*
X139370324Y-133685500D01*
X140006282Y-133789631D01*
X140633769Y-133895307D01*
X141246957Y-134001565D01*
X141840018Y-134107442D01*
X142407126Y-134211974D01*
X142942451Y-134314196D01*
X143440168Y-134413146D01*
X143636560Y-134453082D01*
X143649408Y-134718444D01*
X143337486Y-134655144D01*
X143230893Y-134633775D01*
X143033412Y-134595098D01*
X142803691Y-134550982D01*
X142548289Y-134502640D01*
X142273768Y-134451283D01*
X141986686Y-134398126D01*
X141693605Y-134344379D01*
X141401085Y-134291256D01*
X141115685Y-134239969D01*
X140843966Y-134191731D01*
X140592488Y-134147755D01*
X139635527Y-133986064D01*
X137618049Y-133671706D01*
X135587573Y-133390756D01*
X133550049Y-133143856D01*
X131511429Y-132931650D01*
X129477663Y-132754783D01*
X127454704Y-132613897D01*
X125448501Y-132509636D01*
X125318162Y-132504004D01*
X125126806Y-132495619D01*
X124943078Y-132487440D01*
X124774174Y-132479795D01*
X124627289Y-132473009D01*
X124509618Y-132467409D01*
X124428355Y-132463323D01*
X124182866Y-132450285D01*
X124182866Y-132200559D01*
X124362891Y-132207713D01*
G37*
G36*
X121052837Y-129582459D02*
G01*
X121180967Y-129628209D01*
X121295046Y-129713777D01*
X121358530Y-129792873D01*
X121402507Y-129900132D01*
X121404331Y-130009286D01*
X121364126Y-130115529D01*
X121282019Y-130214058D01*
X121258442Y-130234041D01*
X121139961Y-130302963D01*
X121011449Y-130334489D01*
X120880928Y-130329773D01*
X120756421Y-130289971D01*
X120645951Y-130216239D01*
X120557538Y-130109730D01*
X120550380Y-130097291D01*
X120518608Y-129996787D01*
X120524699Y-129891690D01*
X120565544Y-129790200D01*
X120638037Y-129700518D01*
X120739067Y-129630841D01*
X120776673Y-129613728D01*
X120916218Y-129577355D01*
X121052837Y-129582459D01*
G37*
G36*
X121689878Y-104021316D02*
G01*
X121695429Y-106432456D01*
X119971450Y-108156436D01*
X118247470Y-109880415D01*
X118247470Y-105043029D01*
X121684326Y-101610175D01*
X121689878Y-104021316D01*
G37*
G36*
X120979116Y-101954509D02*
G01*
X120994134Y-101965615D01*
X120989909Y-101971025D01*
X120959743Y-102004221D01*
X120902551Y-102065186D01*
X120820604Y-102151552D01*
X120716176Y-102260946D01*
X120591539Y-102391001D01*
X120448968Y-102539345D01*
X120290735Y-102703609D01*
X120119112Y-102881423D01*
X119936374Y-103070416D01*
X119744793Y-103268220D01*
X119561952Y-103456720D01*
X119356282Y-103668347D01*
X119177474Y-103851744D01*
X119023665Y-104008744D01*
X118892996Y-104141179D01*
X118783605Y-104250883D01*
X118693632Y-104339690D01*
X118621214Y-104409431D01*
X118564492Y-104461940D01*
X118521604Y-104499050D01*
X118490689Y-104522594D01*
X118469887Y-104534405D01*
X118457336Y-104536316D01*
X118420412Y-104530609D01*
X118350917Y-104525627D01*
X118269292Y-104523582D01*
X118127453Y-104523249D01*
X119174876Y-103493085D01*
X119226618Y-103442199D01*
X119412166Y-103259770D01*
X119593922Y-103081146D01*
X119768472Y-102909678D01*
X119932402Y-102748715D01*
X120082297Y-102601609D01*
X120214743Y-102471712D01*
X120326325Y-102362374D01*
X120413630Y-102276946D01*
X120473244Y-102218779D01*
X120724189Y-101974637D01*
X120863206Y-101959073D01*
X120923144Y-101953740D01*
X120979116Y-101954509D01*
G37*
G36*
X121418477Y-93931806D02*
G01*
X121430791Y-93987615D01*
X121442409Y-94080176D01*
X121456502Y-94212752D01*
X121470822Y-94435777D01*
X121457496Y-94770478D01*
X121403952Y-95099595D01*
X121312251Y-95419584D01*
X121184453Y-95726900D01*
X121022616Y-96017999D01*
X120828802Y-96289337D01*
X120605070Y-96537368D01*
X120353479Y-96758550D01*
X120076090Y-96949336D01*
X119774962Y-97106184D01*
X119665497Y-97152233D01*
X119331454Y-97262723D01*
X118990359Y-97332031D01*
X118646488Y-97359466D01*
X118304120Y-97344335D01*
X118196785Y-97331451D01*
X118113240Y-97317513D01*
X118065970Y-97303401D01*
X118051079Y-97288252D01*
X118060395Y-97235154D01*
X118087081Y-97150526D01*
X118127652Y-97043336D01*
X118178616Y-96921598D01*
X118236483Y-96793326D01*
X118297760Y-96666533D01*
X118358955Y-96549231D01*
X118416576Y-96449436D01*
X118512330Y-96302656D01*
X118675875Y-96087604D01*
X118855111Y-95896386D01*
X119057016Y-95722589D01*
X119288569Y-95559801D01*
X119556749Y-95401607D01*
X119661269Y-95343090D01*
X119883376Y-95211022D01*
X120104854Y-95069899D01*
X120312471Y-94928297D01*
X120492991Y-94794796D01*
X120529198Y-94766115D01*
X120660388Y-94655807D01*
X120801030Y-94529361D01*
X120942299Y-94395305D01*
X121075370Y-94262167D01*
X121191418Y-94138474D01*
X121281616Y-94032755D01*
X121298885Y-94010855D01*
X121345672Y-93952274D01*
X121379087Y-93917397D01*
X121402299Y-93909487D01*
X121418477Y-93931806D01*
G37*
G36*
X118072900Y-107007450D02*
G01*
X118072784Y-107176743D01*
X118072211Y-107425428D01*
X118071201Y-107668734D01*
X118069800Y-107901195D01*
X118068055Y-108117346D01*
X118066010Y-108311719D01*
X118063713Y-108478848D01*
X118061210Y-108613268D01*
X118058546Y-108709512D01*
X118044192Y-109105793D01*
X117636474Y-109105793D01*
X117636474Y-105701670D01*
X118072900Y-105701670D01*
X118072900Y-107007450D01*
G37*
G36*
X120316335Y-102122115D02*
G01*
X120135013Y-102295825D01*
X118667531Y-102296685D01*
X117200048Y-102297546D01*
X117200048Y-101948405D01*
X120497656Y-101948405D01*
X120316335Y-102122115D01*
G37*
G36*
X121391326Y-101606097D02*
G01*
X121411560Y-101615079D01*
X121409922Y-101621154D01*
X121385343Y-101652493D01*
X121340641Y-101691463D01*
X121269721Y-101745199D01*
X119224891Y-101759210D01*
X117180060Y-101773221D01*
X117224941Y-101697153D01*
X117269823Y-101621085D01*
X118997006Y-101621013D01*
X119026864Y-101621009D01*
X119307271Y-101620776D01*
X119581957Y-101620198D01*
X119846709Y-101619306D01*
X120097313Y-101618127D01*
X120329555Y-101616692D01*
X120539223Y-101615029D01*
X120722102Y-101613168D01*
X120873980Y-101611138D01*
X120990641Y-101608967D01*
X121067874Y-101606686D01*
X121081524Y-101606128D01*
X121227094Y-101601641D01*
X121330099Y-101601624D01*
X121391326Y-101606097D01*
G37*
G36*
X119259866Y-117176698D02*
G01*
X119607027Y-117241520D01*
X119935425Y-117345111D01*
X120012044Y-117375903D01*
X120261677Y-117495807D01*
X120495254Y-117641379D01*
X120721139Y-117818295D01*
X120947695Y-118032232D01*
X121155065Y-118258535D01*
X121375387Y-118543599D01*
X121559647Y-118841027D01*
X121711164Y-119157034D01*
X121833259Y-119497837D01*
X121929252Y-119869648D01*
X121929871Y-119872544D01*
X121949364Y-119999209D01*
X121962299Y-120156084D01*
X121968681Y-120330943D01*
X121968515Y-120511559D01*
X121961808Y-120685704D01*
X121948563Y-120841151D01*
X121928786Y-120965673D01*
X121904434Y-121068116D01*
X121872176Y-121187568D01*
X121837286Y-121303927D01*
X121802382Y-121409336D01*
X121770079Y-121495941D01*
X121742993Y-121555884D01*
X121723742Y-121581311D01*
X121701226Y-121579474D01*
X121642713Y-121565656D01*
X121556441Y-121541213D01*
X121449659Y-121508214D01*
X121329613Y-121468728D01*
X121131349Y-121400153D01*
X120753849Y-121260453D01*
X120406380Y-121119207D01*
X120091162Y-120977500D01*
X119810418Y-120836416D01*
X119566368Y-120697040D01*
X119361236Y-120560457D01*
X119197241Y-120427751D01*
X119196107Y-120426714D01*
X119133499Y-120365942D01*
X119083219Y-120306604D01*
X119043016Y-120242280D01*
X119010639Y-120166550D01*
X118983835Y-120072992D01*
X118960353Y-119955188D01*
X118937941Y-119806717D01*
X118914348Y-119621159D01*
X118910512Y-119589882D01*
X118890645Y-119439287D01*
X118869435Y-119294500D01*
X118848390Y-119164915D01*
X118829018Y-119059930D01*
X118812829Y-118988939D01*
X118801275Y-118949097D01*
X118708570Y-118712772D01*
X118579596Y-118498614D01*
X118411634Y-118301969D01*
X118407348Y-118297667D01*
X118263450Y-118164026D01*
X118115711Y-118050229D01*
X117951076Y-117947184D01*
X117756491Y-117845803D01*
X117718413Y-117827798D01*
X117627275Y-117786899D01*
X117524080Y-117742721D01*
X117417494Y-117698743D01*
X117316183Y-117658446D01*
X117228811Y-117625310D01*
X117164045Y-117602813D01*
X117130549Y-117594437D01*
X117104175Y-117588197D01*
X117056604Y-117571849D01*
X117017659Y-117553392D01*
X117006649Y-117540372D01*
X117009178Y-117538341D01*
X117045460Y-117520749D01*
X117113987Y-117494025D01*
X117206655Y-117460919D01*
X117315359Y-117424183D01*
X117431995Y-117386568D01*
X117548460Y-117350824D01*
X117656648Y-117319704D01*
X117709712Y-117305389D01*
X118118865Y-117214991D01*
X118514479Y-117163419D01*
X118895248Y-117150660D01*
X119259866Y-117176698D01*
G37*
G36*
X118974864Y-130285779D02*
G01*
X119080985Y-130289980D01*
X119166742Y-130298529D01*
X119243744Y-130312581D01*
X119323602Y-130333294D01*
X119568675Y-130416134D01*
X119805160Y-130527630D01*
X120018895Y-130666294D01*
X120218870Y-130837185D01*
X120401612Y-131037582D01*
X120564928Y-131275036D01*
X120690867Y-131529142D01*
X120778742Y-131795922D01*
X120827867Y-132071396D01*
X120837556Y-132351588D01*
X120807122Y-132632517D01*
X120735878Y-132910206D01*
X120623140Y-133180676D01*
X120573126Y-133275252D01*
X120491535Y-133407186D01*
X120397116Y-133530879D01*
X120278191Y-133662651D01*
X120232191Y-133709320D01*
X120007287Y-133901101D01*
X119761636Y-134054665D01*
X119496519Y-134169433D01*
X119213220Y-134244824D01*
X118913020Y-134280258D01*
X118906411Y-134280574D01*
X118622166Y-134272630D01*
X118346659Y-134224089D01*
X118083329Y-134137619D01*
X117835618Y-134015891D01*
X117606964Y-133861575D01*
X117400809Y-133677341D01*
X117220592Y-133465859D01*
X117069754Y-133229799D01*
X116951735Y-132971831D01*
X116869976Y-132694625D01*
X116866376Y-132677418D01*
X116843575Y-132510035D01*
X116835182Y-132319392D01*
X116840811Y-132121421D01*
X116860073Y-131932053D01*
X116892578Y-131767219D01*
X116975403Y-131525571D01*
X117099531Y-131280143D01*
X117256333Y-131051308D01*
X117441123Y-130844276D01*
X117649213Y-130664261D01*
X117875915Y-130516474D01*
X118116543Y-130406129D01*
X118170555Y-130386734D01*
X118302694Y-130343781D01*
X118421067Y-130314519D01*
X118539980Y-130296537D01*
X118673738Y-130287423D01*
X118836646Y-130284768D01*
X118836768Y-130284768D01*
X118974864Y-130285779D01*
G37*
G36*
X120328288Y-92192903D02*
G01*
X120381325Y-92229591D01*
X120434753Y-92271515D01*
X120616363Y-92437364D01*
X120793969Y-92633575D01*
X120959203Y-92850324D01*
X121103699Y-93077784D01*
X121155427Y-93171931D01*
X121214391Y-93289907D01*
X121260933Y-93395678D01*
X121291478Y-93480979D01*
X121302453Y-93537544D01*
X121287988Y-93582344D01*
X121247474Y-93652352D01*
X121185626Y-93741513D01*
X121107160Y-93843904D01*
X121016791Y-93953602D01*
X120919237Y-94064684D01*
X120819212Y-94171226D01*
X120721433Y-94267305D01*
X120590837Y-94386038D01*
X120416921Y-94533153D01*
X120235414Y-94673362D01*
X120039718Y-94811263D01*
X119823240Y-94951452D01*
X119579382Y-95098528D01*
X119301548Y-95257090D01*
X119287107Y-95265202D01*
X118983510Y-95461220D01*
X118709405Y-95689391D01*
X118464782Y-95949729D01*
X118249629Y-96242248D01*
X118063936Y-96566960D01*
X117907691Y-96923879D01*
X117905291Y-96930213D01*
X117868603Y-97029329D01*
X117838646Y-97114381D01*
X117818450Y-97176498D01*
X117811044Y-97206811D01*
X117810682Y-97212349D01*
X117796733Y-97230277D01*
X117758773Y-97231428D01*
X117691644Y-97215196D01*
X117590187Y-97180981D01*
X117349678Y-97079610D01*
X117093463Y-96937298D01*
X116834541Y-96757055D01*
X116798256Y-96729201D01*
X116735679Y-96680300D01*
X116692461Y-96645319D01*
X116676336Y-96630447D01*
X116683507Y-96608127D01*
X116706323Y-96551425D01*
X116742034Y-96467233D01*
X116787813Y-96361911D01*
X116840831Y-96241824D01*
X116898258Y-96113334D01*
X116957267Y-95982804D01*
X117015028Y-95856597D01*
X117068713Y-95741076D01*
X117115493Y-95642603D01*
X117165904Y-95539274D01*
X117434576Y-95024622D01*
X117714115Y-94547820D01*
X118003956Y-94109535D01*
X118303534Y-93710431D01*
X118612283Y-93351176D01*
X118929641Y-93032436D01*
X119255041Y-92754875D01*
X119587919Y-92519161D01*
X119927711Y-92325960D01*
X119987869Y-92296409D01*
X120081972Y-92252236D01*
X120162821Y-92216639D01*
X120217665Y-92195362D01*
X120243322Y-92187421D01*
X120288868Y-92180223D01*
X120328288Y-92192903D01*
G37*
G36*
X116707799Y-117728400D02*
G01*
X116790637Y-117751121D01*
X116898779Y-117785029D01*
X117024133Y-117827249D01*
X117158608Y-117874904D01*
X117294110Y-117925117D01*
X117422550Y-117975012D01*
X117535834Y-118021712D01*
X117625872Y-118062341D01*
X117778959Y-118142770D01*
X117938914Y-118240147D01*
X118084312Y-118342177D01*
X118206249Y-118442576D01*
X118295822Y-118535061D01*
X118370278Y-118633283D01*
X118444712Y-118752947D01*
X118505720Y-118881880D01*
X118555598Y-119026947D01*
X118596645Y-119195016D01*
X118631157Y-119392952D01*
X118661433Y-119627621D01*
X118684040Y-119821020D01*
X118704779Y-119977291D01*
X118725771Y-120102677D01*
X118749141Y-120203469D01*
X118777013Y-120285954D01*
X118811514Y-120356421D01*
X118854767Y-120421157D01*
X118908897Y-120486453D01*
X118976031Y-120558595D01*
X119026065Y-120608051D01*
X119186689Y-120741939D01*
X119386709Y-120879761D01*
X119623334Y-121020110D01*
X119893774Y-121161576D01*
X120195237Y-121302751D01*
X120524934Y-121442227D01*
X120880074Y-121578594D01*
X121257866Y-121710444D01*
X121627486Y-121833390D01*
X121560121Y-121966885D01*
X121536746Y-122011903D01*
X121403602Y-122234859D01*
X121241252Y-122462554D01*
X121058261Y-122683679D01*
X120863196Y-122886924D01*
X120784432Y-122960406D01*
X120692975Y-123041005D01*
X120606196Y-123113066D01*
X120530833Y-123171205D01*
X120473621Y-123210037D01*
X120441298Y-123224178D01*
X120421309Y-123212055D01*
X120374813Y-123176787D01*
X120309208Y-123123956D01*
X120231625Y-123059175D01*
X120145141Y-122984775D01*
X119761778Y-122630835D01*
X119377231Y-122237382D01*
X118993867Y-121807626D01*
X118614051Y-121344778D01*
X118240149Y-120852047D01*
X117874527Y-120332646D01*
X117519551Y-119789782D01*
X117177586Y-119226668D01*
X116850999Y-118646514D01*
X116542154Y-118052529D01*
X116509642Y-117986256D01*
X116472726Y-117907792D01*
X116447295Y-117849714D01*
X116437528Y-117821264D01*
X116451777Y-117800568D01*
X116495328Y-117772543D01*
X116554428Y-117745544D01*
X116614968Y-117725912D01*
X116662836Y-117719991D01*
X116707799Y-117728400D01*
G37*
G36*
X119661873Y-91820758D02*
G01*
X119739394Y-91846716D01*
X119846266Y-91893735D01*
X120037588Y-91983671D01*
X119797818Y-92108354D01*
X119462101Y-92301687D01*
X119126490Y-92535628D01*
X118802361Y-92804910D01*
X118488694Y-93110688D01*
X118184467Y-93454116D01*
X117888660Y-93836351D01*
X117600253Y-94258547D01*
X117318223Y-94721859D01*
X117041552Y-95227443D01*
X117008012Y-95292832D01*
X116948266Y-95412753D01*
X116883350Y-95546444D01*
X116815961Y-95688017D01*
X116748799Y-95831583D01*
X116684564Y-95971253D01*
X116625955Y-96101137D01*
X116575672Y-96215348D01*
X116536412Y-96307995D01*
X116510878Y-96373190D01*
X116501766Y-96405045D01*
X116501043Y-96414810D01*
X116487557Y-96427034D01*
X116455769Y-96406454D01*
X116404037Y-96351688D01*
X116330717Y-96261356D01*
X116290824Y-96208900D01*
X116102946Y-95921407D01*
X115943910Y-95605228D01*
X115932405Y-95578398D01*
X115900254Y-95497647D01*
X115877757Y-95432270D01*
X115869215Y-95394400D01*
X115873129Y-95382811D01*
X115901270Y-95340154D01*
X115952100Y-95276275D01*
X116020341Y-95197642D01*
X116100714Y-95110723D01*
X116137953Y-95071385D01*
X116383832Y-94798086D01*
X116599927Y-94532992D01*
X116784518Y-94278615D01*
X116935885Y-94037469D01*
X117052307Y-93812064D01*
X117132064Y-93604912D01*
X117169185Y-93443395D01*
X117173958Y-93292672D01*
X117145258Y-93145495D01*
X117117222Y-93013096D01*
X117119983Y-92877115D01*
X117160466Y-92752036D01*
X117240150Y-92634993D01*
X117360516Y-92523120D01*
X117523041Y-92413552D01*
X117539932Y-92403642D01*
X117722988Y-92309325D01*
X117939914Y-92219211D01*
X118192336Y-92132830D01*
X118481879Y-92049710D01*
X118810167Y-91969382D01*
X119178826Y-91891375D01*
X119589481Y-91815218D01*
X119606189Y-91813562D01*
X119661873Y-91820758D01*
G37*
G36*
X118649424Y-91608380D02*
G01*
X118755940Y-91611289D01*
X118852478Y-91616683D01*
X118934229Y-91624196D01*
X118996383Y-91633460D01*
X119034131Y-91644109D01*
X119042664Y-91655775D01*
X119017173Y-91668091D01*
X118952848Y-91680691D01*
X118949983Y-91681116D01*
X118758500Y-91716086D01*
X118547590Y-91765713D01*
X118326203Y-91827024D01*
X118103285Y-91897046D01*
X117887785Y-91972808D01*
X117688649Y-92051336D01*
X117514824Y-92129659D01*
X117375259Y-92204802D01*
X117334411Y-92230343D01*
X117157251Y-92362421D01*
X117019926Y-92504306D01*
X116923182Y-92654578D01*
X116867762Y-92811817D01*
X116854412Y-92974604D01*
X116883875Y-93141521D01*
X116908180Y-93258925D01*
X116908257Y-93413277D01*
X116873946Y-93578807D01*
X116804396Y-93758180D01*
X116698758Y-93954059D01*
X116556183Y-94169109D01*
X116530640Y-94204390D01*
X116450618Y-94310841D01*
X116360980Y-94425276D01*
X116265786Y-94542990D01*
X116169092Y-94659279D01*
X116074957Y-94769437D01*
X115987439Y-94868759D01*
X115910597Y-94952540D01*
X115848487Y-95016076D01*
X115805168Y-95054660D01*
X115784699Y-95063589D01*
X115774376Y-95037075D01*
X115760459Y-94979735D01*
X115746062Y-94904167D01*
X115740605Y-94868422D01*
X115726291Y-94717876D01*
X115720146Y-94543983D01*
X115722100Y-94362000D01*
X115732084Y-94187180D01*
X115750029Y-94034779D01*
X115818752Y-93721636D01*
X115930516Y-93398051D01*
X116078517Y-93092779D01*
X116260029Y-92808457D01*
X116472326Y-92547720D01*
X116712682Y-92313207D01*
X116978372Y-92107554D01*
X117266668Y-91933398D01*
X117574846Y-91793376D01*
X117900179Y-91690124D01*
X118239941Y-91626279D01*
X118318095Y-91618237D01*
X118425692Y-91611487D01*
X118537738Y-91608324D01*
X118649424Y-91608380D01*
G37*
G36*
X115041662Y-119407718D02*
G01*
X115060409Y-119438417D01*
X115092067Y-119499404D01*
X115133021Y-119583536D01*
X115179657Y-119683671D01*
X115270709Y-119879126D01*
X115573441Y-120478830D01*
X115902892Y-121061535D01*
X116256391Y-121623542D01*
X116631267Y-122161149D01*
X117024848Y-122670657D01*
X117434464Y-123148366D01*
X117857442Y-123590576D01*
X118291113Y-123993586D01*
X118432952Y-124117312D01*
X118247470Y-124105643D01*
X118208496Y-124102987D01*
X117903299Y-124068621D01*
X117602263Y-124011778D01*
X117314795Y-123934923D01*
X117050298Y-123840522D01*
X116818175Y-123731038D01*
X116709068Y-123671459D01*
X116692474Y-123422241D01*
X116662346Y-123158160D01*
X116603983Y-122891646D01*
X116520490Y-122648513D01*
X116413673Y-122433946D01*
X116285337Y-122253130D01*
X116190692Y-122140681D01*
X116024073Y-121933341D01*
X115867203Y-121724138D01*
X115714809Y-121505374D01*
X115561620Y-121269351D01*
X115402362Y-121008368D01*
X115231764Y-120714728D01*
X115216199Y-120687407D01*
X115144288Y-120561253D01*
X115076975Y-120443283D01*
X115018508Y-120340933D01*
X114973135Y-120261639D01*
X114945102Y-120212838D01*
X114931076Y-120187717D01*
X114904953Y-120127083D01*
X114895194Y-120065012D01*
X114897547Y-119980758D01*
X114903555Y-119928194D01*
X114917797Y-119844900D01*
X114937515Y-119749092D01*
X114960441Y-119650000D01*
X114984307Y-119556857D01*
X115006846Y-119478897D01*
X115025788Y-119425350D01*
X115038867Y-119405450D01*
X115041662Y-119407718D01*
G37*
G36*
X114851583Y-120564504D02*
G01*
X114866966Y-120589883D01*
X114900206Y-120646416D01*
X114947859Y-120728193D01*
X115006481Y-120829308D01*
X115072628Y-120943852D01*
X115095524Y-120983480D01*
X115265386Y-121270763D01*
X115423222Y-121524565D01*
X115573173Y-121750950D01*
X115719381Y-121955979D01*
X115865989Y-122145713D01*
X116017139Y-122326216D01*
X116062692Y-122380107D01*
X116182647Y-122543350D01*
X116275769Y-122710787D01*
X116345985Y-122891921D01*
X116397223Y-123096253D01*
X116433411Y-123333285D01*
X116435108Y-123348123D01*
X116442656Y-123425107D01*
X116446102Y-123481417D01*
X116444705Y-123505748D01*
X116436625Y-123505495D01*
X116400167Y-123485088D01*
X116341004Y-123443133D01*
X116265334Y-123384710D01*
X116179355Y-123314900D01*
X116089266Y-123238785D01*
X116001265Y-123161446D01*
X115921551Y-123087963D01*
X115856323Y-123023420D01*
X115802838Y-122966762D01*
X115629227Y-122767794D01*
X115479791Y-122568092D01*
X115344556Y-122353479D01*
X115213549Y-122109780D01*
X115123751Y-121916525D01*
X115031305Y-121671258D01*
X114957769Y-121411784D01*
X114900581Y-121128780D01*
X114857179Y-120812924D01*
X114852043Y-120755972D01*
X114847998Y-120685451D01*
X114846288Y-120621762D01*
X114847213Y-120577134D01*
X114851072Y-120563797D01*
X114851583Y-120564504D01*
G37*
G36*
X116444174Y-104693005D02*
G01*
X118208661Y-104702975D01*
X118157147Y-104752404D01*
X118105632Y-104801833D01*
X114528560Y-104827923D01*
X114604123Y-104755478D01*
X114679687Y-104683034D01*
X116444174Y-104693005D01*
G37*
G36*
X117461903Y-109083972D02*
G01*
X116756277Y-109083972D01*
X116733335Y-109083979D01*
X116519191Y-109084564D01*
X116276467Y-109085999D01*
X116018614Y-109088160D01*
X115759084Y-109090919D01*
X115511327Y-109094151D01*
X115288794Y-109097729D01*
X114526938Y-109111486D01*
X114677338Y-108953044D01*
X117461903Y-108953044D01*
X117461903Y-109083972D01*
G37*
G36*
X118072900Y-105520584D02*
G01*
X117576465Y-105535005D01*
X117552258Y-105535701D01*
X117410165Y-105539596D01*
X117234221Y-105544174D01*
X117032540Y-105549237D01*
X116813242Y-105554586D01*
X116584442Y-105560022D01*
X116354257Y-105565348D01*
X116130804Y-105570364D01*
X116064338Y-105571841D01*
X115845472Y-105576840D01*
X115627098Y-105582019D01*
X115416404Y-105587197D01*
X115220582Y-105592191D01*
X115046822Y-105596818D01*
X114902314Y-105600897D01*
X114794249Y-105604245D01*
X114406921Y-105617187D01*
X114406921Y-105003388D01*
X118072900Y-105003388D01*
X118072900Y-105520584D01*
G37*
G36*
X118072900Y-109799011D02*
G01*
X117641929Y-109812751D01*
X117579825Y-109814640D01*
X117443143Y-109818445D01*
X117273937Y-109822835D01*
X117079215Y-109827640D01*
X116865988Y-109832693D01*
X116641263Y-109837826D01*
X116412050Y-109842870D01*
X116185357Y-109847659D01*
X116043608Y-109850635D01*
X115818681Y-109855548D01*
X115597689Y-109860592D01*
X115387249Y-109865603D01*
X115193977Y-109870421D01*
X115024491Y-109874881D01*
X114885405Y-109878822D01*
X114783338Y-109882082D01*
X114406921Y-109895337D01*
X114406921Y-109280364D01*
X118072900Y-109280364D01*
X118072900Y-109799011D01*
G37*
G36*
X115555367Y-114543679D02*
G01*
X115752677Y-114609235D01*
X115961275Y-114710367D01*
X116182292Y-114847765D01*
X116416862Y-115022120D01*
X116666117Y-115234124D01*
X116931190Y-115484466D01*
X117213212Y-115773838D01*
X117253401Y-115816739D01*
X117367012Y-115939770D01*
X117486579Y-116071460D01*
X117608568Y-116207716D01*
X117729443Y-116344447D01*
X117845670Y-116477561D01*
X117953714Y-116602965D01*
X118050040Y-116716568D01*
X118131114Y-116814278D01*
X118193400Y-116892002D01*
X118233364Y-116945649D01*
X118247470Y-116971127D01*
X118241618Y-116975150D01*
X118204265Y-116981025D01*
X118143819Y-116983372D01*
X118140444Y-116983383D01*
X118006124Y-116992170D01*
X117843275Y-117015679D01*
X117663120Y-117051427D01*
X117476882Y-117096933D01*
X117295781Y-117149716D01*
X117131042Y-117207295D01*
X116985661Y-117263566D01*
X116734889Y-116976131D01*
X116732424Y-116973308D01*
X116627350Y-116855755D01*
X116510969Y-116730268D01*
X116387028Y-116600458D01*
X116259272Y-116469935D01*
X116131449Y-116342311D01*
X116007304Y-116221198D01*
X115890584Y-116110205D01*
X115785035Y-116012945D01*
X115694404Y-115933029D01*
X115622436Y-115874068D01*
X115572878Y-115839673D01*
X115549476Y-115833456D01*
X115546912Y-115839815D01*
X115546991Y-115883410D01*
X115555982Y-115961472D01*
X115572743Y-116068286D01*
X115596127Y-116198140D01*
X115624991Y-116345322D01*
X115658190Y-116504119D01*
X115694579Y-116668817D01*
X115733016Y-116833705D01*
X115772354Y-116993068D01*
X115811449Y-117141195D01*
X115843533Y-117256770D01*
X115898667Y-117447425D01*
X115946190Y-117599490D01*
X115987086Y-117715652D01*
X116022337Y-117798602D01*
X116052925Y-117851028D01*
X116079834Y-117875621D01*
X116094785Y-117886207D01*
X116137241Y-117938963D01*
X116193740Y-118032464D01*
X116264080Y-118166385D01*
X116650780Y-118904058D01*
X117074287Y-119641022D01*
X117516273Y-120340911D01*
X117976165Y-121002860D01*
X118453389Y-121626007D01*
X118947371Y-122209487D01*
X119008795Y-122277278D01*
X119130947Y-122407582D01*
X119268949Y-122550351D01*
X119416325Y-122699210D01*
X119566596Y-122847782D01*
X119713285Y-122989691D01*
X119849913Y-123118560D01*
X119970004Y-123228014D01*
X120067080Y-123311675D01*
X120113324Y-123349737D01*
X120189870Y-123412767D01*
X120253460Y-123465162D01*
X120293721Y-123498375D01*
X120348261Y-123543448D01*
X120280310Y-123586471D01*
X120212360Y-123629494D01*
X120504583Y-123850356D01*
X120544723Y-123880458D01*
X120654847Y-123961201D01*
X120775637Y-124047627D01*
X120901966Y-124136278D01*
X121028709Y-124223697D01*
X121150739Y-124306430D01*
X121262930Y-124381018D01*
X121360155Y-124444006D01*
X121437288Y-124491936D01*
X121489204Y-124521353D01*
X121510775Y-124528801D01*
X121512495Y-124524357D01*
X121506675Y-124485991D01*
X121485121Y-124415101D01*
X121450026Y-124317001D01*
X121403586Y-124197005D01*
X121347994Y-124060427D01*
X121285444Y-123912582D01*
X121218131Y-123758785D01*
X121148249Y-123604350D01*
X121077991Y-123454592D01*
X121009554Y-123314824D01*
X120907466Y-123111557D01*
X121046131Y-122955110D01*
X121125768Y-122862960D01*
X121281412Y-122668307D01*
X121418130Y-122477119D01*
X121530637Y-122297028D01*
X121613647Y-122135666D01*
X121656204Y-122040023D01*
X121721350Y-122157487D01*
X121734433Y-122181622D01*
X121771877Y-122252857D01*
X121823096Y-122351989D01*
X121884364Y-122471751D01*
X121951957Y-122604880D01*
X122022149Y-122744109D01*
X122181910Y-123070221D01*
X122348787Y-123434089D01*
X122487856Y-123767502D01*
X122599381Y-124071974D01*
X122683630Y-124349022D01*
X122740868Y-124600159D01*
X122771361Y-124826902D01*
X122775375Y-125030764D01*
X122753177Y-125213261D01*
X122705032Y-125375908D01*
X122631206Y-125520220D01*
X122531965Y-125647712D01*
X122503710Y-125676508D01*
X122356209Y-125790318D01*
X122187038Y-125867773D01*
X121999316Y-125908128D01*
X121796160Y-125910641D01*
X121580688Y-125874568D01*
X121578830Y-125874095D01*
X121471070Y-125836908D01*
X121333928Y-125774128D01*
X121171262Y-125688302D01*
X120986925Y-125581977D01*
X120784776Y-125457699D01*
X120568670Y-125318014D01*
X120342464Y-125165470D01*
X120110012Y-125002613D01*
X119875172Y-124831989D01*
X119641800Y-124656145D01*
X119413751Y-124477628D01*
X119194883Y-124298984D01*
X119137027Y-124251247D01*
X119049598Y-124181408D01*
X118976212Y-124125599D01*
X118923238Y-124088604D01*
X118897047Y-124075209D01*
X118891339Y-124074058D01*
X118853497Y-124054259D01*
X118795179Y-124014981D01*
X118726446Y-123962848D01*
X118642428Y-123894825D01*
X118223942Y-123527407D01*
X117814276Y-123120192D01*
X117415624Y-122676018D01*
X117030179Y-122197725D01*
X116660136Y-121688151D01*
X116307688Y-121150136D01*
X115975030Y-120586520D01*
X115664356Y-120000142D01*
X115634431Y-119939801D01*
X115576451Y-119820271D01*
X115514692Y-119690217D01*
X115451983Y-119555873D01*
X115391155Y-119423474D01*
X115335039Y-119299255D01*
X115286466Y-119189450D01*
X115248266Y-119100296D01*
X115223270Y-119038026D01*
X115214309Y-119008876D01*
X115214301Y-119008583D01*
X115206213Y-118979738D01*
X115185045Y-118919352D01*
X115153947Y-118836092D01*
X115116070Y-118738625D01*
X115084287Y-118657315D01*
X114882405Y-118091950D01*
X114703016Y-117500881D01*
X114549854Y-116896258D01*
X114526783Y-116793660D01*
X114500749Y-116671618D01*
X114477106Y-116551341D01*
X114453759Y-116421580D01*
X114428617Y-116271087D01*
X114399587Y-116088611D01*
X114394705Y-116046631D01*
X114389235Y-115949123D01*
X114387111Y-115828288D01*
X114388082Y-115695281D01*
X114391900Y-115561257D01*
X114398317Y-115437370D01*
X114407084Y-115334778D01*
X114417953Y-115264633D01*
X114465207Y-115110871D01*
X114554603Y-114930301D01*
X114671882Y-114777766D01*
X114813818Y-114656506D01*
X114977188Y-114569759D01*
X115158764Y-114520764D01*
X115190080Y-114516533D01*
X115368212Y-114513009D01*
X115555367Y-114543679D01*
G37*
G36*
X113062406Y-101162838D02*
G01*
X112939307Y-101161624D01*
X112819625Y-101155925D01*
X112731978Y-101144252D01*
X112669991Y-101125186D01*
X112627290Y-101097305D01*
X112597500Y-101059187D01*
X112596039Y-101056059D01*
X112587851Y-101014338D01*
X112581105Y-100940066D01*
X112576464Y-100842743D01*
X112574595Y-100731867D01*
X112573931Y-100442735D01*
X112726680Y-100442735D01*
X112726680Y-100660180D01*
X112727282Y-100734986D01*
X112732792Y-100821805D01*
X112748053Y-100876795D01*
X112777812Y-100907156D01*
X112826817Y-100920092D01*
X112899816Y-100922804D01*
X112988536Y-100922804D01*
X113114539Y-100922804D01*
X113216632Y-100922804D01*
X113252434Y-100922310D01*
X113330403Y-100913075D01*
X113376162Y-100886486D01*
X113397733Y-100835190D01*
X113403141Y-100751830D01*
X113400806Y-100697723D01*
X113391295Y-100634868D01*
X113376955Y-100599848D01*
X113342263Y-100583226D01*
X113280324Y-100574894D01*
X113214109Y-100578496D01*
X113163892Y-100594537D01*
X113150899Y-100609773D01*
X113133537Y-100668443D01*
X113123242Y-100768773D01*
X113114539Y-100922804D01*
X112988536Y-100922804D01*
X112988536Y-100697484D01*
X112988556Y-100671186D01*
X112989625Y-100577287D01*
X112993753Y-100515023D01*
X113002907Y-100474580D01*
X113019051Y-100446148D01*
X113044152Y-100419915D01*
X113055344Y-100409969D01*
X113098944Y-100383133D01*
X113157778Y-100367775D01*
X113245999Y-100359670D01*
X113301409Y-100357446D01*
X113368642Y-100360410D01*
X113418529Y-100374434D01*
X113467242Y-100402660D01*
X113513929Y-100442481D01*
X113548425Y-100496843D01*
X113568294Y-100570569D01*
X113575564Y-100671472D01*
X113572260Y-100807361D01*
X113568489Y-100865874D01*
X113553501Y-100978438D01*
X113527848Y-101057467D01*
X113488722Y-101109728D01*
X113433311Y-101141991D01*
X113423891Y-101144617D01*
X113370275Y-101151783D01*
X113285787Y-101157567D01*
X113179979Y-101161431D01*
X113114539Y-101162214D01*
X113062406Y-101162838D01*
G37*
G36*
X113572440Y-101606493D02*
G01*
X113567690Y-101703380D01*
X113557243Y-101823663D01*
X113538431Y-101915128D01*
X113506215Y-101981714D01*
X113455560Y-102027361D01*
X113381427Y-102056007D01*
X113278781Y-102071592D01*
X113142583Y-102078054D01*
X112967798Y-102079333D01*
X112573931Y-102079333D01*
X112573931Y-101839298D01*
X112954245Y-101839298D01*
X113075144Y-101838899D01*
X113185783Y-101837072D01*
X113264227Y-101833286D01*
X113316722Y-101827024D01*
X113349515Y-101817770D01*
X113368850Y-101805008D01*
X113384557Y-101780372D01*
X113395621Y-101734932D01*
X113401446Y-101662204D01*
X113403141Y-101554063D01*
X113403141Y-101337408D01*
X113584060Y-101337408D01*
X113572440Y-101606493D01*
G37*
G36*
X113218677Y-103058729D02*
G01*
X113064910Y-103061292D01*
X113014405Y-103061062D01*
X112870290Y-103056571D01*
X112762258Y-103045408D01*
X112684707Y-103026353D01*
X112632036Y-102998185D01*
X112598644Y-102959685D01*
X112597793Y-102958050D01*
X112588725Y-102917225D01*
X112581448Y-102841700D01*
X112576545Y-102739690D01*
X112574595Y-102619410D01*
X112573931Y-102319367D01*
X112726680Y-102319367D01*
X112727014Y-102532125D01*
X112727710Y-102587443D01*
X112731479Y-102674658D01*
X112737759Y-102740489D01*
X112745689Y-102773812D01*
X112755161Y-102782349D01*
X112801734Y-102798511D01*
X112870828Y-102806544D01*
X112977625Y-102810347D01*
X112980219Y-102714678D01*
X113119822Y-102714678D01*
X113123976Y-102774572D01*
X113134011Y-102806710D01*
X113162746Y-102817470D01*
X113220443Y-102820693D01*
X113287761Y-102814678D01*
X113347167Y-102799976D01*
X113348898Y-102799314D01*
X113378642Y-102784138D01*
X113394925Y-102760005D01*
X113401755Y-102715360D01*
X113403141Y-102638651D01*
X113402653Y-102593138D01*
X113395480Y-102526652D01*
X113373099Y-102490337D01*
X113327175Y-102475167D01*
X113249375Y-102472116D01*
X113236140Y-102472313D01*
X113175079Y-102483314D01*
X113142053Y-102514324D01*
X113138398Y-102522742D01*
X113127457Y-102573335D01*
X113121124Y-102642456D01*
X113119822Y-102714678D01*
X112980219Y-102714678D01*
X112983246Y-102603044D01*
X112985128Y-102555213D01*
X112992011Y-102463756D01*
X113001763Y-102390855D01*
X113012920Y-102349054D01*
X113028461Y-102324994D01*
X113081891Y-102284131D01*
X113165059Y-102261118D01*
X113283806Y-102253903D01*
X113345592Y-102255016D01*
X113405770Y-102262692D01*
X113450331Y-102281933D01*
X113495537Y-102317634D01*
X113566800Y-102381365D01*
X113566037Y-102639499D01*
X113565863Y-102667498D01*
X113561611Y-102801371D01*
X113551932Y-102895697D01*
X113537004Y-102948577D01*
X113520625Y-102973196D01*
X113480022Y-103008757D01*
X113420191Y-103033905D01*
X113335090Y-103050081D01*
X113220443Y-103058598D01*
X113218677Y-103058729D01*
G37*
G36*
X112972170Y-103194395D02*
G01*
X113089233Y-103195649D01*
X113209804Y-103198310D01*
X113311018Y-103202005D01*
X113384780Y-103206429D01*
X113422995Y-103211280D01*
X113456368Y-103223852D01*
X113504057Y-103261804D01*
X113537341Y-103324478D01*
X113558931Y-103418030D01*
X113571537Y-103548615D01*
X113584123Y-103759573D01*
X113883209Y-103759573D01*
X113883209Y-104021429D01*
X112573931Y-104021429D01*
X112573931Y-103759573D01*
X113403141Y-103759573D01*
X113403141Y-103617195D01*
X113403134Y-103608489D01*
X113401486Y-103534462D01*
X113394215Y-103491582D01*
X113377412Y-103468416D01*
X113347167Y-103453535D01*
X113326386Y-103448906D01*
X113263156Y-103442297D01*
X113170586Y-103437018D01*
X113057461Y-103433520D01*
X112932562Y-103432254D01*
X112573931Y-103432254D01*
X112573931Y-103192219D01*
X112972170Y-103194395D01*
G37*
G36*
X113064910Y-105898061D02*
G01*
X112936900Y-105896762D01*
X112818040Y-105890983D01*
X112731031Y-105879269D01*
X112669512Y-105860209D01*
X112627122Y-105832393D01*
X112597500Y-105794411D01*
X112596039Y-105791283D01*
X112587851Y-105749562D01*
X112581105Y-105675290D01*
X112576464Y-105577966D01*
X112574595Y-105467091D01*
X112573931Y-105177958D01*
X112726680Y-105177958D01*
X112726680Y-105383702D01*
X112727058Y-105436030D01*
X112732448Y-105534243D01*
X112747495Y-105598689D01*
X112776331Y-105636228D01*
X112823089Y-105653721D01*
X112891899Y-105658027D01*
X112988536Y-105658027D01*
X113114539Y-105658027D01*
X113216632Y-105658027D01*
X113252434Y-105657533D01*
X113330403Y-105648298D01*
X113376162Y-105621710D01*
X113397733Y-105570413D01*
X113403141Y-105487053D01*
X113400806Y-105432947D01*
X113391295Y-105370091D01*
X113376955Y-105335072D01*
X113342263Y-105318450D01*
X113280324Y-105310118D01*
X113214109Y-105313720D01*
X113163892Y-105329760D01*
X113150899Y-105344997D01*
X113133537Y-105403666D01*
X113123242Y-105503996D01*
X113114539Y-105658027D01*
X112988536Y-105658027D01*
X112989230Y-105434359D01*
X112992783Y-105315738D01*
X113007052Y-105218842D01*
X113036844Y-105153840D01*
X113086977Y-105114779D01*
X113162273Y-105095707D01*
X113267551Y-105090673D01*
X113335283Y-105094630D01*
X113443125Y-105124109D01*
X113519479Y-105181374D01*
X113562355Y-105265244D01*
X113566439Y-105285006D01*
X113573222Y-105359174D01*
X113574462Y-105454098D01*
X113570795Y-105556912D01*
X113562856Y-105654749D01*
X113551282Y-105734741D01*
X113536708Y-105784022D01*
X113536233Y-105784906D01*
X113507344Y-105825981D01*
X113467193Y-105856089D01*
X113409327Y-105876792D01*
X113327294Y-105889648D01*
X113214639Y-105896218D01*
X113114539Y-105897450D01*
X113064910Y-105898061D01*
G37*
G36*
X113572440Y-106341716D02*
G01*
X113567690Y-106438604D01*
X113557243Y-106558886D01*
X113538431Y-106650351D01*
X113506215Y-106716937D01*
X113455560Y-106762584D01*
X113381427Y-106791230D01*
X113278781Y-106806815D01*
X113142583Y-106813277D01*
X112967798Y-106814556D01*
X112573931Y-106814556D01*
X112573931Y-106574522D01*
X112954245Y-106574522D01*
X113075144Y-106574123D01*
X113185783Y-106572295D01*
X113264227Y-106568509D01*
X113316722Y-106562248D01*
X113349515Y-106552994D01*
X113368850Y-106540231D01*
X113384557Y-106515596D01*
X113395621Y-106470155D01*
X113401446Y-106397427D01*
X113403141Y-106289286D01*
X113403141Y-106072632D01*
X113584060Y-106072632D01*
X113572440Y-106341716D01*
G37*
G36*
X112879429Y-107796515D02*
G01*
X112779662Y-107788660D01*
X112699282Y-107759684D01*
X112623029Y-107702699D01*
X112611891Y-107692032D01*
X112596518Y-107671935D01*
X112585971Y-107644179D01*
X112579345Y-107601569D01*
X112575733Y-107536907D01*
X112574231Y-107442997D01*
X112574085Y-107379576D01*
X112726680Y-107379576D01*
X112727680Y-107446531D01*
X112736421Y-107507850D01*
X112761147Y-107540740D01*
X112810058Y-107554014D01*
X112891357Y-107556481D01*
X112919009Y-107555684D01*
X112976069Y-107543174D01*
X113010596Y-107509730D01*
X113027622Y-107447995D01*
X113032178Y-107350613D01*
X113032178Y-107229161D01*
X112726680Y-107229161D01*
X112726680Y-107379576D01*
X112574085Y-107379576D01*
X112573931Y-107312642D01*
X112573931Y-106967305D01*
X112950349Y-106967427D01*
X113128443Y-106968355D01*
X113269249Y-106973260D01*
X113375907Y-106985497D01*
X113453183Y-107008423D01*
X113505839Y-107045396D01*
X113538641Y-107099773D01*
X113556354Y-107174909D01*
X113563741Y-107274162D01*
X113565567Y-107400889D01*
X113566800Y-107676498D01*
X113485748Y-107683224D01*
X113404695Y-107689950D01*
X113398463Y-107465862D01*
X113392230Y-107241774D01*
X113315855Y-107225302D01*
X113278935Y-107217938D01*
X113234531Y-107215155D01*
X113206888Y-107229676D01*
X113192047Y-107268083D01*
X113186047Y-107336959D01*
X113184928Y-107442885D01*
X113184314Y-107531052D01*
X113180968Y-107602121D01*
X113173014Y-107647844D01*
X113158589Y-107678083D01*
X113135830Y-107702699D01*
X113061787Y-107758441D01*
X112981797Y-107788143D01*
X112891357Y-107795539D01*
X112879429Y-107796515D01*
G37*
G36*
X113070366Y-108870805D02*
G01*
X113566800Y-108876670D01*
X113566800Y-109116704D01*
X112724708Y-109128564D01*
X112731149Y-109275241D01*
X112732748Y-109309952D01*
X112737830Y-109374034D01*
X112748060Y-109409271D01*
X112768211Y-109426321D01*
X112803055Y-109435845D01*
X112824418Y-109438793D01*
X112889847Y-109443494D01*
X112984377Y-109447559D01*
X113098886Y-109450631D01*
X113224255Y-109452352D01*
X113579992Y-109454934D01*
X113566800Y-109684058D01*
X113239481Y-109690732D01*
X113164654Y-109692050D01*
X113003281Y-109692710D01*
X112877797Y-109689012D01*
X112782743Y-109680307D01*
X112712658Y-109665945D01*
X112662083Y-109645276D01*
X112625556Y-109617650D01*
X112611357Y-109602719D01*
X112596041Y-109580788D01*
X112585598Y-109551486D01*
X112579097Y-109507559D01*
X112575606Y-109441751D01*
X112574195Y-109346811D01*
X112573931Y-109215482D01*
X112573931Y-108864940D01*
X113070366Y-108870805D01*
G37*
G36*
X112894400Y-110650920D02*
G01*
X112781692Y-110640774D01*
X112699987Y-110623317D01*
X112643715Y-110597462D01*
X112607306Y-110562117D01*
X112607225Y-110562001D01*
X112593653Y-110520199D01*
X112583289Y-110445629D01*
X112576295Y-110349002D01*
X112572833Y-110241029D01*
X112572857Y-110229591D01*
X112726680Y-110229591D01*
X112727027Y-110261293D01*
X112732599Y-110318627D01*
X112749986Y-110358174D01*
X112785549Y-110383218D01*
X112845650Y-110397042D01*
X112936650Y-110402928D01*
X113064910Y-110404161D01*
X113126334Y-110403982D01*
X113237418Y-110401106D01*
X113314041Y-110392132D01*
X113362564Y-110373777D01*
X113389347Y-110342757D01*
X113400752Y-110295789D01*
X113403141Y-110229591D01*
X113402793Y-110197888D01*
X113397222Y-110140554D01*
X113379835Y-110101007D01*
X113344272Y-110075963D01*
X113284170Y-110062139D01*
X113193170Y-110056253D01*
X113064910Y-110055020D01*
X112947120Y-110056419D01*
X112854459Y-110061508D01*
X112794837Y-110070843D01*
X112762766Y-110084969D01*
X112754002Y-110093878D01*
X112733226Y-110144255D01*
X112726680Y-110229591D01*
X112572857Y-110229591D01*
X112573062Y-110132422D01*
X112577143Y-110033890D01*
X112585239Y-109956146D01*
X112597509Y-109909900D01*
X112607816Y-109893388D01*
X112646176Y-109857850D01*
X112705458Y-109832419D01*
X112791269Y-109815826D01*
X112909218Y-109806801D01*
X113064910Y-109804075D01*
X113154933Y-109804825D01*
X113287189Y-109810563D01*
X113385489Y-109823178D01*
X113455911Y-109844122D01*
X113504533Y-109874842D01*
X113537433Y-109916790D01*
X113540805Y-109923708D01*
X113554934Y-109983988D01*
X113563346Y-110085627D01*
X113566131Y-110229591D01*
X113566029Y-110260545D01*
X113562171Y-110396311D01*
X113552669Y-110489938D01*
X113537433Y-110542392D01*
X113528179Y-110557178D01*
X113489080Y-110596457D01*
X113430991Y-110624374D01*
X113347832Y-110642432D01*
X113233521Y-110652134D01*
X113081977Y-110654984D01*
X113064910Y-110654923D01*
X113043680Y-110654847D01*
X112894400Y-110650920D01*
G37*
G36*
X113544239Y-99551722D02*
G01*
X113652800Y-99553399D01*
X113730099Y-99555854D01*
X113769949Y-99559029D01*
X113774833Y-99560015D01*
X113852918Y-99593894D01*
X113931588Y-99654879D01*
X113997023Y-99730081D01*
X114035404Y-99806610D01*
X114038021Y-99816677D01*
X114051926Y-99896952D01*
X114057658Y-99979032D01*
X114057780Y-100071773D01*
X113883209Y-100071773D01*
X113883209Y-99966048D01*
X113883224Y-99942675D01*
X113881884Y-99897277D01*
X113875180Y-99861043D01*
X113858858Y-99832886D01*
X113828666Y-99811723D01*
X113780351Y-99796468D01*
X113709661Y-99786036D01*
X113612343Y-99779342D01*
X113484144Y-99775302D01*
X113320812Y-99772829D01*
X113118095Y-99770840D01*
X113053407Y-99770237D01*
X112877020Y-99768765D01*
X112737888Y-99768138D01*
X112631168Y-99768612D01*
X112552017Y-99770446D01*
X112495589Y-99773897D01*
X112457043Y-99779223D01*
X112431533Y-99786682D01*
X112414217Y-99796531D01*
X112400250Y-99809028D01*
X112385121Y-99826786D01*
X112362373Y-99880938D01*
X112355718Y-99962666D01*
X112355718Y-100071773D01*
X112174930Y-100071773D01*
X112189070Y-99936490D01*
X112213096Y-99808337D01*
X112265150Y-99688666D01*
X112342406Y-99603852D01*
X112359830Y-99592033D01*
X112382098Y-99581569D01*
X112412516Y-99573415D01*
X112456153Y-99567202D01*
X112518081Y-99562562D01*
X112603369Y-99559124D01*
X112717088Y-99556521D01*
X112864309Y-99554383D01*
X113050101Y-99552340D01*
X113092873Y-99551933D01*
X113258087Y-99550931D01*
X113410606Y-99550880D01*
X113544239Y-99551722D01*
G37*
G36*
X113565890Y-110745660D02*
G01*
X113573994Y-110784548D01*
X113573744Y-110843167D01*
X113566800Y-110927872D01*
X112923836Y-111146596D01*
X113566800Y-111364298D01*
X113573345Y-111489771D01*
X113574672Y-111557296D01*
X113568036Y-111601701D01*
X113551523Y-111614936D01*
X113545136Y-111613778D01*
X113502896Y-111601157D01*
X113428585Y-111576399D01*
X113328574Y-111541701D01*
X113209235Y-111499262D01*
X113076940Y-111451277D01*
X113025596Y-111432568D01*
X112896648Y-111386375D01*
X112782544Y-111346610D01*
X112689796Y-111315476D01*
X112624916Y-111295179D01*
X112594418Y-111287924D01*
X112590189Y-111288227D01*
X112547375Y-111299012D01*
X112479552Y-111322146D01*
X112399361Y-111353388D01*
X112383126Y-111360017D01*
X112305517Y-111389903D01*
X112243646Y-111410914D01*
X112209683Y-111418852D01*
X112195345Y-111413658D01*
X112184770Y-111382921D01*
X112185407Y-111317539D01*
X112192058Y-111216226D01*
X112868519Y-110970150D01*
X112977448Y-110930833D01*
X113132085Y-110876134D01*
X113270467Y-110828510D01*
X113387665Y-110789586D01*
X113478746Y-110760987D01*
X113538779Y-110744339D01*
X113562834Y-110741267D01*
X113565890Y-110745660D01*
G37*
G36*
X114057780Y-111969354D02*
G01*
X114054885Y-112019859D01*
X114026188Y-112139554D01*
X113971807Y-112245253D01*
X113897975Y-112323158D01*
X113887063Y-112330766D01*
X113867575Y-112341478D01*
X113842413Y-112349919D01*
X113806829Y-112356357D01*
X113756078Y-112361064D01*
X113685414Y-112364310D01*
X113590091Y-112366364D01*
X113465364Y-112367496D01*
X113306485Y-112367978D01*
X113108711Y-112368079D01*
X112381055Y-112368079D01*
X112322740Y-112313525D01*
X112282595Y-112272386D01*
X112231270Y-112193999D01*
X112200941Y-112095312D01*
X112190979Y-112020931D01*
X112188615Y-111942563D01*
X112189071Y-111933259D01*
X112196246Y-111887497D01*
X112220011Y-111867278D01*
X112273888Y-111859416D01*
X112355718Y-111852643D01*
X112355718Y-111958212D01*
X112356480Y-111982632D01*
X112368002Y-112058287D01*
X112389687Y-112112278D01*
X112396304Y-112121393D01*
X112407804Y-112133083D01*
X112425065Y-112142196D01*
X112452820Y-112149052D01*
X112495807Y-112153972D01*
X112558759Y-112157278D01*
X112646413Y-112159290D01*
X112763503Y-112160330D01*
X112914765Y-112160718D01*
X113104935Y-112160776D01*
X113223115Y-112160785D01*
X113404504Y-112160445D01*
X113548917Y-112158806D01*
X113660642Y-112154880D01*
X113743964Y-112147678D01*
X113803172Y-112136211D01*
X113842552Y-112119490D01*
X113866392Y-112096527D01*
X113878979Y-112066334D01*
X113884599Y-112027921D01*
X113887540Y-111980301D01*
X113894120Y-111866189D01*
X114057780Y-111852643D01*
X114057780Y-111969354D01*
G37*
G36*
X99699959Y-137856543D02*
G01*
X99716620Y-137886496D01*
X99748816Y-137949713D01*
X99794083Y-138041182D01*
X99849960Y-138155895D01*
X99913984Y-138288839D01*
X99983691Y-138435006D01*
X100052189Y-138577612D01*
X100124812Y-138724626D01*
X100187896Y-138847651D01*
X100239356Y-138942731D01*
X100277105Y-139005911D01*
X100299059Y-139033234D01*
X100312041Y-139038914D01*
X100364783Y-139057202D01*
X100451110Y-139084699D01*
X100565650Y-139119771D01*
X100703029Y-139160783D01*
X100857875Y-139206099D01*
X101024814Y-139254085D01*
X101128042Y-139283622D01*
X101284239Y-139328824D01*
X101423108Y-139369633D01*
X101539714Y-139404563D01*
X101629119Y-139432130D01*
X101686387Y-139450847D01*
X101706580Y-139459230D01*
X101697554Y-139463555D01*
X101652167Y-139478927D01*
X101572922Y-139503644D01*
X101464723Y-139536233D01*
X101332473Y-139575225D01*
X101181075Y-139619148D01*
X101015434Y-139666532D01*
X100910332Y-139696644D01*
X100749446Y-139743740D01*
X100604168Y-139787478D01*
X100479787Y-139826197D01*
X100381593Y-139858240D01*
X100314877Y-139881946D01*
X100284929Y-139895656D01*
X100283519Y-139897006D01*
X100262160Y-139929128D01*
X100225528Y-139994785D01*
X100176398Y-140088580D01*
X100117547Y-140205117D01*
X100051752Y-140338999D01*
X99981788Y-140484831D01*
X99971356Y-140506821D01*
X99903149Y-140649911D01*
X99840880Y-140779415D01*
X99787078Y-140890153D01*
X99744274Y-140976946D01*
X99714998Y-141034613D01*
X99701782Y-141057974D01*
X99698940Y-141056857D01*
X99679655Y-141028549D01*
X99645255Y-140967088D01*
X99598149Y-140877134D01*
X99540745Y-140763350D01*
X99475452Y-140630397D01*
X99404677Y-140482935D01*
X99314460Y-140294801D01*
X99239424Y-140142689D01*
X99179436Y-140026583D01*
X99133400Y-139944431D01*
X99100215Y-139894177D01*
X99078783Y-139873769D01*
X99067297Y-139869892D01*
X99016127Y-139854180D01*
X98931228Y-139828934D01*
X98818023Y-139795739D01*
X98681936Y-139756183D01*
X98528389Y-139711850D01*
X98362806Y-139664328D01*
X98268806Y-139637303D01*
X98113227Y-139591986D01*
X97974779Y-139550919D01*
X97858438Y-139515620D01*
X97769178Y-139487609D01*
X97711974Y-139468403D01*
X97691800Y-139459520D01*
X97704079Y-139453606D01*
X97753528Y-139436472D01*
X97836388Y-139409993D01*
X97947841Y-139375648D01*
X98083070Y-139334918D01*
X98237260Y-139289282D01*
X98405592Y-139240220D01*
X99119384Y-139033714D01*
X99402055Y-138440016D01*
X99429583Y-138382375D01*
X99498798Y-138239064D01*
X99561454Y-138111601D01*
X99615153Y-138004717D01*
X99657499Y-137923144D01*
X99686094Y-137871613D01*
X99698540Y-137854857D01*
X99699959Y-137856543D01*
G37*
G36*
X97508617Y-102526122D02*
G01*
X97512282Y-102531832D01*
X97535178Y-102572001D01*
X97574623Y-102643922D01*
X97627886Y-102742522D01*
X97692235Y-102862728D01*
X97764938Y-102999465D01*
X97843263Y-103147659D01*
X97872753Y-103203488D01*
X97949276Y-103347121D01*
X98019283Y-103476790D01*
X98080042Y-103587547D01*
X98128824Y-103674446D01*
X98162896Y-103732538D01*
X98179529Y-103756876D01*
X98181914Y-103758267D01*
X98217147Y-103770752D01*
X98288889Y-103792392D01*
X98392401Y-103821876D01*
X98522942Y-103857893D01*
X98675772Y-103899131D01*
X98846151Y-103944277D01*
X99029338Y-103992022D01*
X99075520Y-104003980D01*
X99254324Y-104050647D01*
X99418061Y-104093954D01*
X99562195Y-104132663D01*
X99682189Y-104165535D01*
X99773506Y-104191329D01*
X99831610Y-104208807D01*
X99851964Y-104216730D01*
X99850093Y-104218011D01*
X99817920Y-104228855D01*
X99749299Y-104248847D01*
X99648739Y-104276766D01*
X99520751Y-104311387D01*
X99369842Y-104351486D01*
X99200521Y-104395840D01*
X99017299Y-104443226D01*
X98799769Y-104499624D01*
X98602302Y-104552055D01*
X98443746Y-104595747D01*
X98322218Y-104631250D01*
X98235834Y-104659118D01*
X98182708Y-104679902D01*
X98160958Y-104694155D01*
X98157369Y-104700459D01*
X98134898Y-104741618D01*
X98095708Y-104814349D01*
X98042511Y-104913592D01*
X97978016Y-105034284D01*
X97904933Y-105171368D01*
X97825970Y-105319781D01*
X97793787Y-105380267D01*
X97717533Y-105523077D01*
X97648580Y-105651510D01*
X97589551Y-105760724D01*
X97543067Y-105845882D01*
X97511752Y-105902144D01*
X97498226Y-105924671D01*
X97491594Y-105919049D01*
X97466393Y-105881224D01*
X97425144Y-105811965D01*
X97370331Y-105715657D01*
X97304436Y-105596685D01*
X97229939Y-105459433D01*
X97149324Y-105308286D01*
X97097600Y-105210784D01*
X97019984Y-105065605D01*
X96949911Y-104935892D01*
X96889928Y-104826281D01*
X96842579Y-104741411D01*
X96810408Y-104685917D01*
X96795961Y-104664437D01*
X96794925Y-104663948D01*
X96764603Y-104654611D01*
X96697406Y-104635899D01*
X96598073Y-104609071D01*
X96471345Y-104575390D01*
X96321961Y-104536115D01*
X96154660Y-104492508D01*
X95974182Y-104445830D01*
X95950520Y-104439731D01*
X95770707Y-104393248D01*
X95604098Y-104349947D01*
X95455540Y-104311105D01*
X95329876Y-104277996D01*
X95231953Y-104251898D01*
X95166615Y-104234085D01*
X95138708Y-104225834D01*
X95135732Y-104223462D01*
X95140359Y-104217953D01*
X95158755Y-104209529D01*
X95193771Y-104197400D01*
X95248257Y-104180774D01*
X95325065Y-104158861D01*
X95427047Y-104130871D01*
X95557052Y-104096012D01*
X95717933Y-104053494D01*
X95912540Y-104002527D01*
X96143725Y-103942319D01*
X96414338Y-103872081D01*
X96806206Y-103770484D01*
X97144703Y-103130923D01*
X97158589Y-103104698D01*
X97250085Y-102932743D01*
X97323957Y-102795876D01*
X97382195Y-102690786D01*
X97426793Y-102614163D01*
X97459742Y-102562696D01*
X97483034Y-102533074D01*
X97498662Y-102521986D01*
X97508617Y-102526122D01*
G37*
G36*
X95209876Y-116021587D02*
G01*
X95230171Y-116056376D01*
X95267331Y-116123151D01*
X95318689Y-116217023D01*
X95381580Y-116333102D01*
X95453340Y-116466499D01*
X95531301Y-116612323D01*
X95556530Y-116659539D01*
X95634254Y-116803573D01*
X95706054Y-116934560D01*
X95769053Y-117047383D01*
X95820371Y-117136927D01*
X95857131Y-117198077D01*
X95876454Y-117225716D01*
X95901816Y-117237790D01*
X95966312Y-117259832D01*
X96064984Y-117289868D01*
X96193524Y-117326668D01*
X96347627Y-117369001D01*
X96522987Y-117415637D01*
X96715297Y-117465347D01*
X96743459Y-117472535D01*
X96921132Y-117518218D01*
X97084091Y-117560671D01*
X97227735Y-117598658D01*
X97347464Y-117630938D01*
X97438675Y-117656275D01*
X97496767Y-117673429D01*
X97517140Y-117681162D01*
X97516571Y-117681732D01*
X97489649Y-117691066D01*
X97425746Y-117709586D01*
X97329459Y-117736060D01*
X97205384Y-117769257D01*
X97058118Y-117807943D01*
X96892256Y-117850887D01*
X96712396Y-117896858D01*
X96686071Y-117903548D01*
X96506658Y-117949390D01*
X96340946Y-117992137D01*
X96193707Y-118030530D01*
X96069710Y-118063310D01*
X95973726Y-118089216D01*
X95910524Y-118106989D01*
X95884875Y-118115370D01*
X95880069Y-118121047D01*
X95856005Y-118159324D01*
X95815470Y-118229214D01*
X95761134Y-118325937D01*
X95695666Y-118444711D01*
X95621737Y-118580755D01*
X95542018Y-118729289D01*
X95504648Y-118799250D01*
X95427756Y-118942661D01*
X95358300Y-119071479D01*
X95298888Y-119180914D01*
X95252125Y-119266176D01*
X95220618Y-119322475D01*
X95206975Y-119345019D01*
X95203180Y-119342955D01*
X95181297Y-119312385D01*
X95142922Y-119249707D01*
X95090639Y-119159429D01*
X95027032Y-119046056D01*
X94954686Y-118914096D01*
X94876183Y-118768055D01*
X94844192Y-118708107D01*
X94766183Y-118562997D01*
X94694549Y-118431217D01*
X94632087Y-118317822D01*
X94581595Y-118227865D01*
X94545871Y-118166400D01*
X94527711Y-118138483D01*
X94524755Y-118135960D01*
X94484975Y-118117927D01*
X94404228Y-118090826D01*
X94283860Y-118055045D01*
X94125218Y-118010973D01*
X93929650Y-117958998D01*
X93698501Y-117899507D01*
X93678549Y-117894437D01*
X93499832Y-117848840D01*
X93334769Y-117806407D01*
X93188137Y-117768389D01*
X93064713Y-117736038D01*
X92969274Y-117710606D01*
X92906599Y-117693343D01*
X92881464Y-117685501D01*
X92890384Y-117680057D01*
X92935978Y-117664733D01*
X93015533Y-117641196D01*
X93124369Y-117610748D01*
X93257804Y-117574695D01*
X93411157Y-117534340D01*
X93579746Y-117490987D01*
X93694626Y-117461679D01*
X93865839Y-117417666D01*
X94024597Y-117376465D01*
X94164926Y-117339648D01*
X94280854Y-117308783D01*
X94366409Y-117285443D01*
X94415617Y-117271198D01*
X94532647Y-117234230D01*
X94862070Y-116617985D01*
X94909453Y-116529816D01*
X94986565Y-116388434D01*
X95056077Y-116263585D01*
X95115446Y-116159688D01*
X95162130Y-116081162D01*
X95193588Y-116032426D01*
X95207276Y-116017899D01*
X95209876Y-116021587D01*
G37*
G36*
X112835787Y-94436686D02*
G01*
X112633940Y-94449739D01*
X112632516Y-94449830D01*
X112529940Y-94455917D01*
X112400470Y-94462833D01*
X112260543Y-94469736D01*
X112126594Y-94475781D01*
X112012387Y-94480926D01*
X111828753Y-94489938D01*
X111611459Y-94501234D01*
X111366109Y-94514486D01*
X111098308Y-94529365D01*
X110813659Y-94545543D01*
X110517767Y-94562692D01*
X110216236Y-94580482D01*
X109914669Y-94598586D01*
X109618671Y-94616675D01*
X109333847Y-94634421D01*
X109065800Y-94651495D01*
X108820134Y-94667569D01*
X108602453Y-94682315D01*
X107270069Y-94780416D01*
X105425622Y-94935072D01*
X103569471Y-95112096D01*
X101708161Y-95310670D01*
X99848241Y-95529975D01*
X97996259Y-95769192D01*
X96158761Y-96027503D01*
X94342296Y-96304088D01*
X92553411Y-96598129D01*
X90798653Y-96908807D01*
X90688442Y-96928981D01*
X90525266Y-96958595D01*
X90378558Y-96984915D01*
X90253607Y-97007009D01*
X90155702Y-97023944D01*
X90090132Y-97034789D01*
X90062184Y-97038611D01*
X90046736Y-97029485D01*
X90035842Y-96989852D01*
X90032542Y-96913139D01*
X90032563Y-96787666D01*
X90670816Y-96670869D01*
X92447858Y-96356885D01*
X94423668Y-96033050D01*
X96423675Y-95731018D01*
X98440218Y-95451799D01*
X100465635Y-95196401D01*
X102492265Y-94965834D01*
X104512446Y-94761107D01*
X106518519Y-94583230D01*
X106892192Y-94553105D01*
X107365970Y-94516408D01*
X107856695Y-94479899D01*
X108358327Y-94443970D01*
X108864827Y-94409013D01*
X109370156Y-94375421D01*
X109868273Y-94343586D01*
X110353140Y-94313901D01*
X110818717Y-94286758D01*
X111258963Y-94262549D01*
X111667841Y-94241668D01*
X112039309Y-94224505D01*
X112121792Y-94220887D01*
X112275271Y-94213897D01*
X112417981Y-94207082D01*
X112541712Y-94200849D01*
X112638256Y-94195605D01*
X112699403Y-94191757D01*
X112835787Y-94181662D01*
X112835787Y-94436686D01*
G37*
G36*
X111526508Y-106289275D02*
G01*
X111524262Y-106350331D01*
X111517079Y-106401938D01*
X111506670Y-106421773D01*
X111492693Y-106422114D01*
X111433772Y-106424886D01*
X111338497Y-106430187D01*
X111211721Y-106437704D01*
X111058292Y-106447127D01*
X110883063Y-106458142D01*
X110690883Y-106470440D01*
X110486604Y-106483708D01*
X110275075Y-106497634D01*
X110061148Y-106511907D01*
X109849674Y-106526215D01*
X109645502Y-106540247D01*
X109453484Y-106553691D01*
X107695099Y-106688898D01*
X105263532Y-106911055D01*
X102830268Y-107173936D01*
X100399318Y-107476999D01*
X97974697Y-107819700D01*
X95560418Y-108201497D01*
X93160493Y-108621846D01*
X90778937Y-109080204D01*
X90030593Y-109230812D01*
X90037013Y-109097815D01*
X90043433Y-108964817D01*
X91003570Y-108774583D01*
X91427517Y-108691189D01*
X93751676Y-108255669D01*
X96065150Y-107859155D01*
X98373733Y-107500831D01*
X100683221Y-107179886D01*
X102999407Y-106895503D01*
X105328084Y-106646871D01*
X107675048Y-106433175D01*
X107693086Y-106431675D01*
X107903425Y-106414553D01*
X108139414Y-106395933D01*
X108395732Y-106376193D01*
X108667060Y-106355712D01*
X108948078Y-106334871D01*
X109233466Y-106314047D01*
X109517905Y-106293621D01*
X109796074Y-106273972D01*
X110062654Y-106255478D01*
X110312326Y-106238519D01*
X110539769Y-106223475D01*
X110739663Y-106210724D01*
X110906690Y-106200646D01*
X111035529Y-106193619D01*
X111131039Y-106188497D01*
X111244754Y-106181534D01*
X111343094Y-106174617D01*
X111411946Y-106168681D01*
X111526508Y-106156777D01*
X111526508Y-106289275D01*
G37*
G36*
X112810027Y-120519920D02*
G01*
X112826190Y-120535355D01*
X112833850Y-120575297D01*
X112835787Y-120649264D01*
X112835787Y-120780192D01*
X112753213Y-120780192D01*
X112731285Y-120780733D01*
X112665038Y-120783585D01*
X112564798Y-120788606D01*
X112436388Y-120795483D01*
X112285631Y-120803900D01*
X112118350Y-120813544D01*
X111940370Y-120824099D01*
X109910233Y-120961587D01*
X107507502Y-121164326D01*
X105111026Y-121410023D01*
X102721411Y-121698594D01*
X100339261Y-122029952D01*
X97965181Y-122404014D01*
X95599777Y-122820694D01*
X93243654Y-123279907D01*
X90897416Y-123781567D01*
X90856224Y-123790762D01*
X90674918Y-123831101D01*
X90507877Y-123868060D01*
X90359821Y-123900609D01*
X90235470Y-123927717D01*
X90139543Y-123948356D01*
X90076760Y-123961494D01*
X90051840Y-123966103D01*
X90043344Y-123953089D01*
X90035535Y-123907038D01*
X90032522Y-123839191D01*
X90032522Y-123712280D01*
X90779902Y-123544824D01*
X93098621Y-123047394D01*
X95432964Y-122590645D01*
X97779598Y-122175197D01*
X100137034Y-121801259D01*
X102503780Y-121469043D01*
X104878346Y-121178755D01*
X107259242Y-120930606D01*
X109644977Y-120724805D01*
X112034060Y-120561561D01*
X112151642Y-120554609D01*
X112318581Y-120544843D01*
X112469027Y-120536162D01*
X112597566Y-120528874D01*
X112698784Y-120523283D01*
X112767267Y-120519696D01*
X112797599Y-120518419D01*
X112810027Y-120519920D01*
G37*
G36*
X112835787Y-132600935D02*
G01*
X112579386Y-132615659D01*
X112527337Y-132618779D01*
X112418226Y-132625693D01*
X112277771Y-132634887D01*
X112113263Y-132645873D01*
X111931993Y-132658162D01*
X111741251Y-132671266D01*
X111548330Y-132684698D01*
X110843369Y-132736173D01*
X108586190Y-132928762D01*
X106339168Y-133163065D01*
X104100816Y-133439320D01*
X101869647Y-133757764D01*
X99644174Y-134118632D01*
X97422910Y-134522161D01*
X95204368Y-134968589D01*
X92987060Y-135458152D01*
X90769501Y-135991086D01*
X90663964Y-136017412D01*
X90504017Y-136057051D01*
X90360551Y-136092291D01*
X90238733Y-136121879D01*
X90143733Y-136144563D01*
X90080717Y-136159091D01*
X90054853Y-136164213D01*
X90045380Y-136152999D01*
X90036063Y-136107884D01*
X90032522Y-136038413D01*
X90032522Y-135912614D01*
X90627153Y-135763799D01*
X91101105Y-135646126D01*
X93206270Y-135146472D01*
X95301636Y-134687092D01*
X97391214Y-134267319D01*
X99479015Y-133886490D01*
X101569049Y-133543937D01*
X103665329Y-133238995D01*
X105771865Y-132970998D01*
X107892668Y-132739281D01*
X110031749Y-132543178D01*
X110110571Y-132536660D01*
X110299598Y-132521284D01*
X110490280Y-132506168D01*
X110687271Y-132490972D01*
X110895227Y-132475359D01*
X111118804Y-132458990D01*
X111362657Y-132441527D01*
X111631442Y-132422630D01*
X111929813Y-132401961D01*
X112262427Y-132379182D01*
X112633940Y-132353955D01*
X112835787Y-132340294D01*
X112835787Y-132600935D01*
G37*
G36*
X90032522Y-146901977D02*
G01*
X90125263Y-146877416D01*
X90148199Y-146871255D01*
X90219340Y-146851803D01*
X90317603Y-146824677D01*
X90433173Y-146792593D01*
X90556233Y-146758262D01*
X90876919Y-146669528D01*
X91411148Y-146525355D01*
X91976736Y-146376791D01*
X92566557Y-146225614D01*
X93173483Y-146073604D01*
X93790387Y-145922536D01*
X94410140Y-145774189D01*
X95025616Y-145630342D01*
X95629687Y-145492771D01*
X95761722Y-145463205D01*
X97904750Y-145007067D01*
X100057132Y-144593496D01*
X102218257Y-144222571D01*
X104387512Y-143894373D01*
X106564287Y-143608982D01*
X108747967Y-143366481D01*
X110937942Y-143166948D01*
X113133599Y-143010466D01*
X115334326Y-142897113D01*
X115550266Y-142888202D01*
X115888259Y-142874685D01*
X116202962Y-142862768D01*
X116499523Y-142852355D01*
X116783090Y-142843350D01*
X117058812Y-142835659D01*
X117331839Y-142829185D01*
X117607317Y-142823833D01*
X117890397Y-142819506D01*
X118186226Y-142816110D01*
X118499954Y-142813549D01*
X118836728Y-142811727D01*
X119201698Y-142810548D01*
X119600011Y-142809917D01*
X120036818Y-142809738D01*
X120436899Y-142810068D01*
X121002716Y-142811816D01*
X121534777Y-142815204D01*
X122038996Y-142820386D01*
X122521283Y-142827518D01*
X122987552Y-142836753D01*
X123443714Y-142848245D01*
X123895682Y-142862150D01*
X124349367Y-142878621D01*
X124810683Y-142897812D01*
X125285541Y-142919879D01*
X125779853Y-142944976D01*
X126299532Y-142973256D01*
X128378616Y-143108741D01*
X130517518Y-143288467D01*
X132647353Y-143508818D01*
X134770967Y-143770174D01*
X136891206Y-144072913D01*
X139010918Y-144417416D01*
X141132947Y-144804060D01*
X143260142Y-145233227D01*
X143647470Y-145315130D01*
X143647470Y-155279676D01*
X90032522Y-155279676D01*
X90032522Y-154845933D01*
X106202110Y-154845933D01*
X106424564Y-154843250D01*
X107969635Y-154843250D01*
X108384240Y-154843250D01*
X108384240Y-154508660D01*
X108384272Y-154483983D01*
X108387111Y-154305254D01*
X108395213Y-154164102D01*
X108409517Y-154055300D01*
X108430965Y-153973625D01*
X108460496Y-153913850D01*
X108499051Y-153870751D01*
X108504112Y-153866522D01*
X108535824Y-153843187D01*
X108569317Y-153828872D01*
X108615046Y-153821810D01*
X108683464Y-153820232D01*
X108785027Y-153822369D01*
X109006147Y-153828560D01*
X109012005Y-154335905D01*
X109017862Y-154843250D01*
X109453484Y-154843250D01*
X109453484Y-153549290D01*
X111507257Y-153549290D01*
X111519193Y-153695558D01*
X111549982Y-153828546D01*
X111599117Y-153934981D01*
X111626917Y-153971115D01*
X111665535Y-154002911D01*
X111717429Y-154026050D01*
X111788659Y-154041814D01*
X111885288Y-154051485D01*
X112013377Y-154056348D01*
X112178990Y-154057683D01*
X112573931Y-154057683D01*
X112573931Y-154218087D01*
X112570012Y-154325497D01*
X112552490Y-154431955D01*
X112520022Y-154502208D01*
X112471637Y-154539310D01*
X112444881Y-154544549D01*
X112377954Y-154550536D01*
X112282237Y-154555296D01*
X112166094Y-154558439D01*
X112037888Y-154559573D01*
X111657436Y-154559573D01*
X111657436Y-154843250D01*
X113315855Y-154843250D01*
X114777883Y-154843250D01*
X114777883Y-154559573D01*
X114275993Y-154559573D01*
X114275993Y-153973694D01*
X115064573Y-153973694D01*
X115064921Y-154108566D01*
X115066836Y-154228358D01*
X115070406Y-154323645D01*
X115075718Y-154385003D01*
X115088685Y-154454710D01*
X115138018Y-154602976D01*
X115211438Y-154716582D01*
X115308178Y-154794175D01*
X115325173Y-154802353D01*
X115355995Y-154812303D01*
X115398494Y-154820095D01*
X115457996Y-154826091D01*
X115539830Y-154830653D01*
X115649324Y-154834143D01*
X115791804Y-154836923D01*
X115972599Y-154839356D01*
X116567230Y-154846373D01*
X116567230Y-154843250D01*
X116826596Y-154843250D01*
X117400650Y-154843129D01*
X117530018Y-154842571D01*
X117682898Y-154840476D01*
X117818317Y-154837037D01*
X117929730Y-154832476D01*
X118010593Y-154827017D01*
X118054361Y-154820882D01*
X118072797Y-154814840D01*
X118160111Y-154764122D01*
X118240780Y-154684810D01*
X118302322Y-154588596D01*
X118322784Y-154539657D01*
X118357627Y-154399075D01*
X118365902Y-154249672D01*
X118349201Y-154101108D01*
X118309118Y-153963042D01*
X118247246Y-153845135D01*
X118165178Y-153757047D01*
X118150444Y-153745908D01*
X118123774Y-153728045D01*
X118094790Y-153715061D01*
X118056606Y-153706028D01*
X118002333Y-153700017D01*
X117925086Y-153696099D01*
X117817975Y-153693347D01*
X117674115Y-153690830D01*
X117260878Y-153684029D01*
X117268977Y-153523645D01*
X117269332Y-153516605D01*
X117274377Y-153435376D01*
X117283929Y-153374484D01*
X117303578Y-153330997D01*
X117338916Y-153301987D01*
X117395532Y-153284524D01*
X117479018Y-153275678D01*
X117594964Y-153272518D01*
X117748962Y-153272116D01*
X118138364Y-153272116D01*
X118640254Y-153272116D01*
X119231403Y-153272116D01*
X119224961Y-153871457D01*
X119223121Y-154042769D01*
X119220689Y-154195396D01*
X119216517Y-154313237D01*
X119209231Y-154400944D01*
X119197459Y-154463171D01*
X119179827Y-154504569D01*
X119154961Y-154529792D01*
X119121490Y-154543492D01*
X119078039Y-154550322D01*
X119023235Y-154554933D01*
X118902110Y-154564978D01*
X118902110Y-154848629D01*
X119046951Y-154843250D01*
X122150491Y-154843250D01*
X122741864Y-154843250D01*
X122904255Y-154842948D01*
X123076829Y-154840931D01*
X123214750Y-154835767D01*
X123323061Y-154826037D01*
X123406802Y-154810322D01*
X123471015Y-154787203D01*
X123520743Y-154755261D01*
X123561027Y-154713077D01*
X123596909Y-154659231D01*
X123633431Y-154592305D01*
X123644870Y-154569718D01*
X123649117Y-154559573D01*
X123986474Y-154559573D01*
X123986474Y-154843250D01*
X125448501Y-154843250D01*
X125448501Y-154559573D01*
X124924790Y-154559573D01*
X124924790Y-153272116D01*
X125448501Y-153272116D01*
X125448501Y-152988439D01*
X124488364Y-152988439D01*
X124488364Y-154559573D01*
X123986474Y-154559573D01*
X123649117Y-154559573D01*
X123668505Y-154513264D01*
X123682406Y-154454691D01*
X123689091Y-154380176D01*
X123691081Y-154275896D01*
X123690850Y-154228136D01*
X123683854Y-154105644D01*
X123664760Y-154009162D01*
X123630190Y-153925899D01*
X123576765Y-153843068D01*
X123562661Y-153824221D01*
X123522395Y-153776432D01*
X123480418Y-153741185D01*
X123429742Y-153716587D01*
X123363383Y-153700744D01*
X123274355Y-153691761D01*
X123155672Y-153687745D01*
X123000348Y-153686803D01*
X122934668Y-153686566D01*
X122798216Y-153684251D01*
X122694642Y-153679630D01*
X122627524Y-153672906D01*
X122600438Y-153664281D01*
X122595648Y-153634953D01*
X122596069Y-153574689D01*
X122601997Y-153497774D01*
X122610106Y-153428465D01*
X122622000Y-153370550D01*
X122642659Y-153329061D01*
X122677897Y-153301257D01*
X122733526Y-153284399D01*
X122815359Y-153275749D01*
X122929210Y-153272568D01*
X123080890Y-153272116D01*
X123462763Y-153272116D01*
X123462763Y-152988439D01*
X122975039Y-152988439D01*
X122822823Y-152988935D01*
X122664120Y-152991803D01*
X122539534Y-152998590D01*
X122443739Y-153010813D01*
X122371414Y-153029993D01*
X122317233Y-153057647D01*
X122275874Y-153095296D01*
X122242013Y-153144458D01*
X122210325Y-153206652D01*
X122201686Y-153225949D01*
X122191081Y-153254776D01*
X122182583Y-153288716D01*
X122175899Y-153332588D01*
X122170736Y-153391206D01*
X122166799Y-153469386D01*
X122163794Y-153571945D01*
X122161429Y-153703697D01*
X122159410Y-153869460D01*
X122157443Y-154074049D01*
X122150491Y-154843250D01*
X119046951Y-154843250D01*
X119158510Y-154839107D01*
X119246763Y-154834801D01*
X119374652Y-154822116D01*
X119469634Y-154800833D01*
X119538446Y-154768355D01*
X119587823Y-154722085D01*
X119624502Y-154659425D01*
X119629286Y-154648445D01*
X119639994Y-154618008D01*
X119648348Y-154580845D01*
X119654639Y-154531683D01*
X119659160Y-154465248D01*
X119662202Y-154376265D01*
X119664057Y-154259462D01*
X119665018Y-154109565D01*
X119665376Y-153921300D01*
X119665855Y-153272116D01*
X120102281Y-153272116D01*
X120102281Y-152990020D01*
X119889524Y-152983774D01*
X119676766Y-152977529D01*
X119671007Y-152748405D01*
X124444721Y-152748405D01*
X124968433Y-152748405D01*
X124968433Y-152399264D01*
X124444721Y-152399264D01*
X124444721Y-152748405D01*
X119671007Y-152748405D01*
X119664426Y-152486549D01*
X119229429Y-152486549D01*
X119229429Y-152988439D01*
X118640254Y-152988439D01*
X118640254Y-153272116D01*
X118138364Y-153272116D01*
X118138364Y-152985629D01*
X117609197Y-152992490D01*
X117454663Y-152994824D01*
X117303747Y-152998783D01*
X117186540Y-153005278D01*
X117097610Y-153015674D01*
X117031526Y-153031335D01*
X116982856Y-153053625D01*
X116946169Y-153083910D01*
X116916033Y-153123554D01*
X116887017Y-153173920D01*
X116886845Y-153174241D01*
X116874557Y-153198652D01*
X116864571Y-153224704D01*
X116856601Y-153257065D01*
X116850363Y-153300401D01*
X116845570Y-153359379D01*
X116841937Y-153438665D01*
X116839178Y-153542926D01*
X116837009Y-153676829D01*
X116835143Y-153845041D01*
X116833296Y-154052228D01*
X116826596Y-154843250D01*
X116567230Y-154843250D01*
X116567230Y-152399264D01*
X116130804Y-152399264D01*
X116130804Y-152988439D01*
X115764465Y-152988439D01*
X115703487Y-152988498D01*
X115582043Y-152989414D01*
X115492981Y-152992105D01*
X115428315Y-152997418D01*
X115380062Y-153006197D01*
X115340236Y-153019288D01*
X115300852Y-153037537D01*
X115256078Y-153064226D01*
X115177946Y-153141227D01*
X115121856Y-153249124D01*
X115084878Y-153392734D01*
X115083310Y-153403021D01*
X115077123Y-153471914D01*
X115072068Y-153572853D01*
X115068234Y-153696413D01*
X115065707Y-153833168D01*
X115064573Y-153973694D01*
X114275993Y-153973694D01*
X114275993Y-152682941D01*
X114777883Y-152682941D01*
X114777883Y-152399264D01*
X113817745Y-152399264D01*
X113817745Y-154559573D01*
X113315855Y-154559573D01*
X113315855Y-154843250D01*
X111657436Y-154843250D01*
X112142960Y-154843129D01*
X112188888Y-154843021D01*
X112336254Y-154841368D01*
X112469526Y-154837952D01*
X112581316Y-154833072D01*
X112664240Y-154827027D01*
X112710911Y-154820117D01*
X112728508Y-154814352D01*
X112801736Y-154778437D01*
X112868880Y-154730900D01*
X112888214Y-154713124D01*
X112924246Y-154672595D01*
X112952532Y-154625391D01*
X112973975Y-154566233D01*
X112989482Y-154489845D01*
X112999956Y-154390948D01*
X113006303Y-154264265D01*
X113009428Y-154104518D01*
X113010235Y-153906429D01*
X113010232Y-153897198D01*
X113009429Y-153708317D01*
X113006735Y-153557173D01*
X113001428Y-153438123D01*
X112992784Y-153345523D01*
X112980081Y-153273732D01*
X112962597Y-153217105D01*
X112939609Y-153169999D01*
X112910394Y-153126771D01*
X112884113Y-153094868D01*
X112843802Y-153058638D01*
X112794339Y-153031445D01*
X112729988Y-153012192D01*
X112645012Y-152999781D01*
X112533673Y-152993115D01*
X112390234Y-152991098D01*
X112208959Y-152992632D01*
X112132204Y-152993804D01*
X111981466Y-152997167D01*
X111865779Y-153002961D01*
X111779130Y-153013106D01*
X111715504Y-153029522D01*
X111668887Y-153054128D01*
X111633264Y-153088844D01*
X111602623Y-153135590D01*
X111570947Y-153196285D01*
X111541969Y-153270023D01*
X111514680Y-153403020D01*
X111507257Y-153549290D01*
X109453484Y-153549290D01*
X109453484Y-152482193D01*
X108902496Y-152490438D01*
X108755506Y-152492810D01*
X108615719Y-152495788D01*
X108508518Y-152499406D01*
X108427891Y-152504164D01*
X108367830Y-152510560D01*
X108322325Y-152519095D01*
X108285367Y-152530267D01*
X108250946Y-152544576D01*
X108170680Y-152590924D01*
X108085869Y-152675303D01*
X108027518Y-152787431D01*
X107994024Y-152930688D01*
X107983786Y-153108457D01*
X107984547Y-153154690D01*
X107997990Y-153304890D01*
X108030074Y-153423095D01*
X108083351Y-153516280D01*
X108160372Y-153591424D01*
X108252156Y-153661430D01*
X108156634Y-153717410D01*
X108084499Y-153771566D01*
X108015374Y-153867873D01*
X108015341Y-153867941D01*
X107999656Y-153903626D01*
X107988011Y-153941322D01*
X107979814Y-153987967D01*
X107974471Y-154050500D01*
X107971389Y-154135858D01*
X107969975Y-154250980D01*
X107969635Y-154402803D01*
X107969635Y-154843250D01*
X106424564Y-154843250D01*
X106765665Y-154839136D01*
X107329221Y-154832340D01*
X107418503Y-154773214D01*
X107464957Y-154736813D01*
X107523608Y-154667068D01*
X107580505Y-154566388D01*
X107653227Y-154418688D01*
X107653227Y-153687197D01*
X107653218Y-153644344D01*
X107652718Y-153433877D01*
X107650952Y-153261255D01*
X107647237Y-153121576D01*
X107640890Y-153009940D01*
X107631226Y-152921443D01*
X107617563Y-152851186D01*
X107599218Y-152794266D01*
X107575507Y-152745783D01*
X107545746Y-152700834D01*
X107509253Y-152654518D01*
X107474764Y-152613837D01*
X107437822Y-152576582D01*
X107398121Y-152548171D01*
X107349821Y-152527298D01*
X107287081Y-152512658D01*
X107204062Y-152502944D01*
X107094922Y-152496851D01*
X106953821Y-152493072D01*
X106774919Y-152490300D01*
X106245752Y-152483140D01*
X106245752Y-152792048D01*
X107092904Y-152792048D01*
X107148528Y-152858154D01*
X107152525Y-152863057D01*
X107194582Y-152932174D01*
X107221387Y-153005448D01*
X107221781Y-153007367D01*
X107228497Y-153064798D01*
X107233613Y-153156277D01*
X107237187Y-153274742D01*
X107239279Y-153413133D01*
X107239948Y-153564386D01*
X107239253Y-153721440D01*
X107237253Y-153877233D01*
X107234009Y-154024703D01*
X107229579Y-154156788D01*
X107224022Y-154266427D01*
X107217398Y-154346557D01*
X107209765Y-154390117D01*
X107201231Y-154412892D01*
X107168608Y-154475450D01*
X107124381Y-154517740D01*
X107060632Y-154543419D01*
X106969443Y-154556144D01*
X106842895Y-154559573D01*
X106616714Y-154559573D01*
X106616714Y-153795828D01*
X107009498Y-153795828D01*
X107009498Y-153512151D01*
X106202110Y-153512151D01*
X106202110Y-154845933D01*
X90032522Y-154845933D01*
X90032522Y-154843250D01*
X97299017Y-154843250D01*
X98782866Y-154843250D01*
X99544912Y-154843250D01*
X100070323Y-154843250D01*
X100070323Y-154449082D01*
X99813922Y-154455230D01*
X99557522Y-154461378D01*
X99544912Y-154843250D01*
X98782866Y-154843250D01*
X98782866Y-154559573D01*
X98237333Y-154559573D01*
X98237333Y-152999350D01*
X100774763Y-152999350D01*
X101040906Y-153915845D01*
X101307050Y-154832340D01*
X101594270Y-154838428D01*
X101618339Y-154838901D01*
X101721397Y-154840011D01*
X101804974Y-154839446D01*
X101861021Y-154837337D01*
X101881491Y-154833812D01*
X101883594Y-154825260D01*
X101896183Y-154779994D01*
X101919039Y-154699774D01*
X101950907Y-154588955D01*
X101990528Y-154451889D01*
X102036647Y-154292932D01*
X102077877Y-154151242D01*
X104395495Y-154151242D01*
X104400612Y-154325475D01*
X104435696Y-154489796D01*
X104470833Y-154575199D01*
X104543440Y-154686753D01*
X104633345Y-154771032D01*
X104733210Y-154819890D01*
X104749968Y-154823206D01*
X104815476Y-154829766D01*
X104915931Y-154835256D01*
X105045379Y-154839458D01*
X105197868Y-154842155D01*
X105367445Y-154843129D01*
X105918433Y-154843250D01*
X105918433Y-152486549D01*
X105411087Y-152487083D01*
X105337879Y-152487388D01*
X105190515Y-152489371D01*
X105055927Y-152492931D01*
X104941832Y-152497776D01*
X104855945Y-152503611D01*
X104805984Y-152510141D01*
X104696748Y-152550921D01*
X104593018Y-152631063D01*
X104514706Y-152744966D01*
X104462906Y-152890973D01*
X104438709Y-153067428D01*
X104436527Y-153167821D01*
X104449805Y-153317775D01*
X104486216Y-153439921D01*
X104547311Y-153541020D01*
X104613770Y-153624442D01*
X104569080Y-153672012D01*
X104542304Y-153707803D01*
X104502855Y-153774037D01*
X104464286Y-153850445D01*
X104419671Y-153982184D01*
X104395495Y-154151242D01*
X102077877Y-154151242D01*
X102088005Y-154116436D01*
X102143347Y-153926756D01*
X102176001Y-153814808D01*
X102229239Y-153631530D01*
X102277749Y-153463584D01*
X102320268Y-153315393D01*
X102355534Y-153191382D01*
X102382287Y-153095973D01*
X102399263Y-153033591D01*
X102405202Y-153008659D01*
X102401415Y-153004048D01*
X102363668Y-152995967D01*
X102289411Y-152992214D01*
X102183544Y-152993131D01*
X101961886Y-152999350D01*
X101785627Y-153692176D01*
X101757709Y-153801263D01*
X101716720Y-153958986D01*
X101679547Y-154099142D01*
X101647544Y-154216775D01*
X101622067Y-154306932D01*
X101604470Y-154364660D01*
X101596109Y-154385003D01*
X101591952Y-154376752D01*
X101577524Y-154332219D01*
X101554674Y-154253465D01*
X101524766Y-154145453D01*
X101489167Y-154013146D01*
X101449243Y-153861508D01*
X101406359Y-153695502D01*
X101379351Y-153590316D01*
X101338339Y-153431887D01*
X101301336Y-153290501D01*
X101269684Y-153171210D01*
X101244730Y-153079066D01*
X101227817Y-153019120D01*
X101220290Y-152996425D01*
X101208543Y-152993962D01*
X101160763Y-152991698D01*
X101085568Y-152991363D01*
X100992739Y-152993100D01*
X100774763Y-152999350D01*
X98237333Y-152999350D01*
X98237333Y-152792048D01*
X98586474Y-152792048D01*
X98586474Y-152486549D01*
X97800907Y-152486549D01*
X97800907Y-154559573D01*
X97299017Y-154559573D01*
X97299017Y-154843250D01*
X90032522Y-154843250D01*
X90032522Y-152396565D01*
X125754000Y-152396565D01*
X125754000Y-152682941D01*
X125999489Y-152683275D01*
X126086248Y-152684394D01*
X126174332Y-152687890D01*
X126238539Y-152693172D01*
X126268989Y-152699641D01*
X126300519Y-152732691D01*
X126331710Y-152806243D01*
X126343175Y-152899720D01*
X126343175Y-152988439D01*
X125950391Y-152988439D01*
X125950391Y-153272116D01*
X126343175Y-153272116D01*
X126343175Y-154843250D01*
X126801422Y-154843250D01*
X126801422Y-154002969D01*
X127484360Y-154002969D01*
X127485347Y-154153080D01*
X127487743Y-154287325D01*
X127491371Y-154398762D01*
X127496050Y-154480447D01*
X127501602Y-154525439D01*
X127541987Y-154626227D01*
X127613621Y-154723889D01*
X127702679Y-154794175D01*
X127729450Y-154806362D01*
X127764657Y-154816010D01*
X127813337Y-154822984D01*
X127881523Y-154827693D01*
X127975249Y-154830548D01*
X128100547Y-154831960D01*
X128263450Y-154832340D01*
X128266384Y-154832340D01*
X128424675Y-154832182D01*
X128545778Y-154831329D01*
X128636047Y-154829202D01*
X128701832Y-154825222D01*
X128749485Y-154818813D01*
X128785357Y-154809395D01*
X128815801Y-154796392D01*
X128847168Y-154779225D01*
X128920886Y-154723594D01*
X128989006Y-154626476D01*
X128991830Y-154620702D01*
X129006387Y-154588035D01*
X129017657Y-154553548D01*
X129026153Y-154511267D01*
X129032387Y-154455218D01*
X129036870Y-154379426D01*
X129040115Y-154277916D01*
X129040772Y-154243164D01*
X129273626Y-154243164D01*
X129274647Y-154380349D01*
X129293409Y-154521621D01*
X129333706Y-154633025D01*
X129397743Y-154720178D01*
X129487724Y-154788697D01*
X129496366Y-154793624D01*
X129521916Y-154805587D01*
X129553339Y-154814956D01*
X129596030Y-154822129D01*
X129655385Y-154827507D01*
X129736800Y-154831489D01*
X129845670Y-154834475D01*
X129987391Y-154836865D01*
X130167359Y-154839059D01*
X130772900Y-154845779D01*
X130772900Y-154559573D01*
X130260099Y-154559573D01*
X130152677Y-154559488D01*
X130013329Y-154558818D01*
X129908527Y-154557134D01*
X129832677Y-154554030D01*
X129780190Y-154549097D01*
X129745471Y-154541928D01*
X129722931Y-154532115D01*
X129706976Y-154519251D01*
X129676358Y-154472298D01*
X129654460Y-154393975D01*
X129648911Y-154304688D01*
X129659154Y-154217504D01*
X129684630Y-154145485D01*
X129724784Y-154101697D01*
X129741113Y-154097034D01*
X129798958Y-154090010D01*
X129888006Y-154084460D01*
X130000439Y-154080815D01*
X130128438Y-154079505D01*
X130283338Y-154078367D01*
X130403122Y-154073743D01*
X130493477Y-154063856D01*
X130561523Y-154046930D01*
X130614378Y-154021189D01*
X130659162Y-153984858D01*
X130702992Y-153936158D01*
X130730731Y-153898148D01*
X130784186Y-153780437D01*
X130811184Y-153633087D01*
X130812413Y-153453058D01*
X130793507Y-153305141D01*
X130753290Y-153188139D01*
X130689374Y-153100624D01*
X130599161Y-153037537D01*
X130589079Y-153032513D01*
X130557845Y-153018509D01*
X130524606Y-153007832D01*
X130483415Y-153000032D01*
X130428322Y-152994659D01*
X130353380Y-152991263D01*
X130252641Y-152989394D01*
X130120156Y-152988603D01*
X129949977Y-152988439D01*
X129398158Y-152988439D01*
X129398158Y-153272116D01*
X129857840Y-153272116D01*
X129878099Y-153272135D01*
X130023027Y-153273408D01*
X130149867Y-153276484D01*
X130252231Y-153281088D01*
X130323731Y-153286942D01*
X130357982Y-153293770D01*
X130380627Y-153311460D01*
X130415580Y-153371369D01*
X130434361Y-153451417D01*
X130436000Y-153537532D01*
X130419530Y-153615641D01*
X130383982Y-153671672D01*
X130375008Y-153677917D01*
X130343947Y-153688891D01*
X130291835Y-153697257D01*
X130213023Y-153703545D01*
X130101865Y-153708283D01*
X129952714Y-153711997D01*
X129918356Y-153712685D01*
X129786470Y-153715655D01*
X129689287Y-153719122D01*
X129619485Y-153724108D01*
X129569740Y-153731636D01*
X129532730Y-153742726D01*
X129501131Y-153758400D01*
X129467621Y-153779680D01*
X129450359Y-153792066D01*
X129381165Y-153858270D01*
X129328851Y-153932235D01*
X129306360Y-153982970D01*
X129289536Y-154046515D01*
X129279349Y-154129168D01*
X129273626Y-154243164D01*
X129040772Y-154243164D01*
X129042634Y-154144713D01*
X129044939Y-153973844D01*
X129045019Y-153967332D01*
X129046594Y-153765255D01*
X129045511Y-153601392D01*
X129041186Y-153470515D01*
X129033035Y-153367395D01*
X129020475Y-153286804D01*
X129002923Y-153223513D01*
X128979793Y-153172296D01*
X128950504Y-153127922D01*
X128916195Y-153087674D01*
X128875079Y-153053456D01*
X128824279Y-153027870D01*
X128758144Y-153009856D01*
X128671025Y-152998354D01*
X128557272Y-152992306D01*
X128411236Y-152990651D01*
X128227266Y-152992332D01*
X128077849Y-152994647D01*
X127956519Y-152997219D01*
X127866563Y-153000603D01*
X127801680Y-153005488D01*
X127755566Y-153012569D01*
X127721921Y-153022537D01*
X127694442Y-153036084D01*
X127666828Y-153053903D01*
X127645110Y-153070699D01*
X127584804Y-153134491D01*
X127537568Y-153206652D01*
X127532119Y-153217794D01*
X127518431Y-153249309D01*
X127507892Y-153283482D01*
X127500035Y-153326167D01*
X127494397Y-153383219D01*
X127490513Y-153460494D01*
X127487918Y-153563846D01*
X127486147Y-153699130D01*
X127484735Y-153872202D01*
X127484360Y-154002969D01*
X126801422Y-154002969D01*
X126801422Y-153272116D01*
X127216027Y-153272116D01*
X127216027Y-152988439D01*
X126803400Y-152988439D01*
X126802877Y-152984978D01*
X131122041Y-152984978D01*
X131122041Y-153272116D01*
X131535429Y-153272116D01*
X131595292Y-153272131D01*
X131724441Y-153272548D01*
X131819171Y-153274098D01*
X131886153Y-153277523D01*
X131932059Y-153283561D01*
X131963561Y-153292953D01*
X131987332Y-153306439D01*
X132010042Y-153324760D01*
X132071268Y-153377403D01*
X132078509Y-154110327D01*
X132085751Y-154843250D01*
X132518605Y-154843250D01*
X132518605Y-154138019D01*
X132518262Y-153940501D01*
X132516683Y-153756600D01*
X132513226Y-153607529D01*
X132508736Y-153518173D01*
X132846230Y-153518173D01*
X132853060Y-153651986D01*
X132872947Y-153776295D01*
X132904806Y-153880092D01*
X132947552Y-153952369D01*
X132954209Y-153959617D01*
X132985653Y-153989381D01*
X133021102Y-154011754D01*
X133067165Y-154028021D01*
X133130445Y-154039463D01*
X133217549Y-154047366D01*
X133335083Y-154053011D01*
X133489653Y-154057683D01*
X133904257Y-154068594D01*
X133899655Y-154264986D01*
X133897484Y-154338021D01*
X133892514Y-154408001D01*
X133882800Y-154452911D01*
X133865665Y-154483490D01*
X133838429Y-154510475D01*
X133816379Y-154527874D01*
X133791613Y-154540689D01*
X133757485Y-154549490D01*
X133707140Y-154555028D01*
X133633722Y-154558054D01*
X133530374Y-154559319D01*
X133390240Y-154559573D01*
X132998673Y-154559573D01*
X132998673Y-154846659D01*
X133527840Y-154839500D01*
X133640906Y-154837829D01*
X133797476Y-154834410D01*
X133919446Y-154829224D01*
X134012463Y-154821153D01*
X134082176Y-154809079D01*
X134134233Y-154791885D01*
X134174282Y-154768454D01*
X134207972Y-154737668D01*
X134240951Y-154698409D01*
X134241620Y-154697556D01*
X134274623Y-154649701D01*
X134300613Y-154596286D01*
X134320276Y-154531879D01*
X134334302Y-154451046D01*
X134343379Y-154348356D01*
X134348193Y-154218376D01*
X134349434Y-154055674D01*
X134347790Y-153854817D01*
X134346549Y-153760428D01*
X134344263Y-153611452D01*
X134341582Y-153496920D01*
X134337935Y-153410808D01*
X134332749Y-153347093D01*
X134325453Y-153299752D01*
X134317997Y-153272116D01*
X134635271Y-153272116D01*
X135224446Y-153272116D01*
X135224446Y-153858874D01*
X135224392Y-154017995D01*
X135223430Y-154175313D01*
X135220211Y-154297418D01*
X135213381Y-154388937D01*
X135201587Y-154454495D01*
X135183474Y-154498715D01*
X135157690Y-154526223D01*
X135122880Y-154541644D01*
X135077691Y-154549603D01*
X135020769Y-154554724D01*
X134897127Y-154564978D01*
X134897127Y-154848629D01*
X135047593Y-154843250D01*
X136400279Y-154843250D01*
X136839223Y-154843250D01*
X136839223Y-154148225D01*
X136839243Y-154095735D01*
X136839892Y-153893479D01*
X136841790Y-153729558D01*
X136845382Y-153599662D01*
X136851110Y-153499482D01*
X136859421Y-153424707D01*
X136870757Y-153371029D01*
X136885565Y-153334137D01*
X136904287Y-153309723D01*
X136927369Y-153293477D01*
X136958091Y-153285889D01*
X137024893Y-153278749D01*
X137115581Y-153273902D01*
X137219661Y-153272116D01*
X137472041Y-153272116D01*
X137472041Y-154843250D01*
X137908467Y-154843250D01*
X137908467Y-154559573D01*
X138192144Y-154559573D01*
X138192144Y-154843250D01*
X139675993Y-154843250D01*
X139675993Y-154559573D01*
X139152281Y-154559573D01*
X139152281Y-153272116D01*
X139675993Y-153272116D01*
X139675993Y-152988439D01*
X138715855Y-152988439D01*
X138715855Y-154559573D01*
X138192144Y-154559573D01*
X137908467Y-154559573D01*
X137908467Y-152985981D01*
X137281105Y-152992666D01*
X137111834Y-152994640D01*
X136947256Y-152997661D01*
X136817256Y-153002509D01*
X136716915Y-153010338D01*
X136641316Y-153022298D01*
X136585542Y-153039539D01*
X136544675Y-153063214D01*
X136513798Y-153094475D01*
X136487993Y-153134471D01*
X136462342Y-153184354D01*
X136462247Y-153184547D01*
X136449449Y-153211947D01*
X136439068Y-153240064D01*
X136430803Y-153273667D01*
X136424356Y-153317526D01*
X136419424Y-153376410D01*
X136415708Y-153455089D01*
X136412907Y-153558332D01*
X136410721Y-153690908D01*
X136408850Y-153857587D01*
X136406993Y-154063139D01*
X136400279Y-154843250D01*
X135047593Y-154843250D01*
X135153527Y-154839463D01*
X135226309Y-154836139D01*
X135359806Y-154823758D01*
X135459895Y-154802349D01*
X135533420Y-154769295D01*
X135587220Y-154721974D01*
X135628141Y-154657769D01*
X135636061Y-154641015D01*
X135647073Y-154611495D01*
X135655742Y-154575255D01*
X135662433Y-154527019D01*
X135667510Y-154461513D01*
X135671335Y-154373462D01*
X135674274Y-154257593D01*
X135676689Y-154108630D01*
X135678945Y-153921300D01*
X135686108Y-153272116D01*
X136119120Y-153272116D01*
X136119120Y-152988439D01*
X135684123Y-152988439D01*
X135678090Y-152748405D01*
X138672213Y-152748405D01*
X139195924Y-152748405D01*
X139195924Y-152399264D01*
X138672213Y-152399264D01*
X138672213Y-152748405D01*
X135678090Y-152748405D01*
X135677953Y-152742950D01*
X135671783Y-152497460D01*
X135448115Y-152491241D01*
X135224446Y-152485023D01*
X135224446Y-152988439D01*
X134635271Y-152988439D01*
X134635271Y-153272116D01*
X134317997Y-153272116D01*
X134315474Y-153262762D01*
X134302240Y-153230099D01*
X134285179Y-153195742D01*
X134284234Y-153193910D01*
X134250656Y-153133622D01*
X134215948Y-153087211D01*
X134174038Y-153052748D01*
X134118853Y-153028308D01*
X134044320Y-153011961D01*
X133944365Y-153001780D01*
X133812915Y-152995839D01*
X133643897Y-152992209D01*
X133631150Y-152992006D01*
X133493383Y-152990608D01*
X133366909Y-152990686D01*
X133259811Y-152992137D01*
X133180175Y-152994857D01*
X133136085Y-152998741D01*
X133092885Y-153011160D01*
X133002542Y-153066089D01*
X132928073Y-153150948D01*
X132878892Y-153256309D01*
X132876088Y-153266069D01*
X132853544Y-153385865D01*
X132846230Y-153518173D01*
X132508736Y-153518173D01*
X132507252Y-153488635D01*
X132498124Y-153395268D01*
X132485203Y-153322774D01*
X132467850Y-153266501D01*
X132445428Y-153221798D01*
X132417297Y-153184012D01*
X132382819Y-153148492D01*
X132348845Y-153116785D01*
X132304166Y-153079269D01*
X132259388Y-153050641D01*
X132208291Y-153029590D01*
X132144653Y-153014807D01*
X132062256Y-153004983D01*
X131954877Y-152998807D01*
X131816298Y-152994971D01*
X131640297Y-152992164D01*
X131122041Y-152984978D01*
X126802877Y-152984978D01*
X126792675Y-152917520D01*
X126789506Y-152895656D01*
X126779517Y-152820130D01*
X126769795Y-152739390D01*
X126755568Y-152662396D01*
X126704320Y-152545306D01*
X126619872Y-152456098D01*
X126601478Y-152443541D01*
X126573774Y-152430346D01*
X126536569Y-152420787D01*
X126483034Y-152414086D01*
X126406341Y-152409467D01*
X126299662Y-152406154D01*
X126156169Y-152403370D01*
X125754000Y-152396565D01*
X90032522Y-152396565D01*
X90032522Y-146901977D01*
G37*
%TD*%
M02*
