%TF.GenerationSoftware,KiCad,Pcbnew,(6.0.9)*%
%TF.CreationDate,2023-01-02T17:12:58+02:00*%
%TF.ProjectId,ESP32_LEDCONTROLLER,45535033-325f-44c4-9544-434f4e54524f,rev?*%
%TF.SameCoordinates,Original*%
%TF.FileFunction,Legend,Top*%
%TF.FilePolarity,Positive*%
%FSLAX46Y46*%
G04 Gerber Fmt 4.6, Leading zero omitted, Abs format (unit mm)*
G04 Created by KiCad (PCBNEW (6.0.9)) date 2023-01-02 17:12:58*
%MOMM*%
%LPD*%
G01*
G04 APERTURE LIST*
%ADD10C,0.150000*%
%TA.AperFunction,Profile*%
%ADD11C,0.100000*%
%TD*%
%ADD12C,0.120000*%
%ADD13C,0.127000*%
%ADD14C,0.200000*%
G04 APERTURE END LIST*
D10*
X105545714Y-100417380D02*
X105545714Y-101417380D01*
X106117142Y-100417380D01*
X106117142Y-101417380D01*
X106593333Y-101084047D02*
X107021904Y-101084047D01*
X106593333Y-100750714D02*
X106593333Y-101417380D01*
X107021904Y-100750714D02*
X107021904Y-101417380D01*
X107355238Y-100750714D02*
X107831428Y-100750714D01*
X107593333Y-100750714D02*
X107593333Y-101417380D01*
X108545714Y-101369761D02*
X108450476Y-101417380D01*
X108260000Y-101417380D01*
X108164761Y-101369761D01*
X108117142Y-101274523D01*
X108117142Y-100893571D01*
X108164761Y-100798333D01*
X108260000Y-100750714D01*
X108450476Y-100750714D01*
X108545714Y-100798333D01*
X108593333Y-100893571D01*
X108593333Y-100988809D01*
X108117142Y-101084047D01*
X109021904Y-100750714D02*
X109021904Y-101750714D01*
X109021904Y-100798333D02*
X109117142Y-100750714D01*
X109307619Y-100750714D01*
X109402857Y-100798333D01*
X109450476Y-100845952D01*
X109498095Y-100941190D01*
X109498095Y-101226904D01*
X109450476Y-101322142D01*
X109402857Y-101369761D01*
X109307619Y-101417380D01*
X109117142Y-101417380D01*
X109021904Y-101369761D01*
X110498095Y-101322142D02*
X110450476Y-101369761D01*
X110307619Y-101417380D01*
X110212380Y-101417380D01*
X110069523Y-101369761D01*
X109974285Y-101274523D01*
X109926666Y-101179285D01*
X109879047Y-100988809D01*
X109879047Y-100845952D01*
X109926666Y-100655476D01*
X109974285Y-100560238D01*
X110069523Y-100465000D01*
X110212380Y-100417380D01*
X110307619Y-100417380D01*
X110450476Y-100465000D01*
X110498095Y-100512619D01*
X111069523Y-101417380D02*
X110974285Y-101369761D01*
X110926666Y-101322142D01*
X110879047Y-101226904D01*
X110879047Y-100941190D01*
X110926666Y-100845952D01*
X110974285Y-100798333D01*
X111069523Y-100750714D01*
X111212380Y-100750714D01*
X111307619Y-100798333D01*
X111355238Y-100845952D01*
X111402857Y-100941190D01*
X111402857Y-101226904D01*
X111355238Y-101322142D01*
X111307619Y-101369761D01*
X111212380Y-101417380D01*
X111069523Y-101417380D01*
X112117142Y-100417380D02*
X112117142Y-101750714D01*
X112021904Y-100750714D02*
X112212380Y-100750714D01*
X112307619Y-100798333D01*
X112402857Y-100893571D01*
X112450476Y-100988809D01*
X112450476Y-101179285D01*
X112402857Y-101274523D01*
X112307619Y-101369761D01*
X112212380Y-101417380D01*
X112021904Y-101417380D01*
X111926666Y-101369761D01*
X111831428Y-101274523D01*
X111783809Y-101179285D01*
X111783809Y-100988809D01*
X111831428Y-100893571D01*
X111926666Y-100798333D01*
X112021904Y-100750714D01*
X112879047Y-100750714D02*
X112879047Y-101417380D01*
X113355238Y-100750714D01*
X113355238Y-101417380D01*
X114021904Y-101131666D02*
X113783809Y-101417380D01*
X114212380Y-101417380D02*
X114212380Y-100750714D01*
X113926666Y-100750714D01*
X113831428Y-100798333D01*
X113783809Y-100893571D01*
X113783809Y-100988809D01*
X113831428Y-101084047D01*
X113926666Y-101131666D01*
X114212380Y-101131666D01*
X116021904Y-101417380D02*
X115688571Y-100941190D01*
X115450476Y-101417380D02*
X115450476Y-100417380D01*
X115831428Y-100417380D01*
X115926666Y-100465000D01*
X115974285Y-100512619D01*
X116021904Y-100607857D01*
X116021904Y-100750714D01*
X115974285Y-100845952D01*
X115926666Y-100893571D01*
X115831428Y-100941190D01*
X115450476Y-100941190D01*
X116974285Y-100465000D02*
X116879047Y-100417380D01*
X116736190Y-100417380D01*
X116593333Y-100465000D01*
X116498095Y-100560238D01*
X116450476Y-100655476D01*
X116402857Y-100845952D01*
X116402857Y-100988809D01*
X116450476Y-101179285D01*
X116498095Y-101274523D01*
X116593333Y-101369761D01*
X116736190Y-101417380D01*
X116831428Y-101417380D01*
X116974285Y-101369761D01*
X117021904Y-101322142D01*
X117021904Y-100988809D01*
X116831428Y-100988809D01*
X117783809Y-100893571D02*
X117926666Y-100941190D01*
X117974285Y-100988809D01*
X118021904Y-101084047D01*
X118021904Y-101226904D01*
X117974285Y-101322142D01*
X117926666Y-101369761D01*
X117831428Y-101417380D01*
X117450476Y-101417380D01*
X117450476Y-100417380D01*
X117783809Y-100417380D01*
X117879047Y-100465000D01*
X117926666Y-100512619D01*
X117974285Y-100607857D01*
X117974285Y-100703095D01*
X117926666Y-100798333D01*
X117879047Y-100845952D01*
X117783809Y-100893571D01*
X117450476Y-100893571D01*
X106269404Y-104207380D02*
X105697976Y-104207380D01*
X105983690Y-104207380D02*
X105983690Y-103207380D01*
X105888452Y-103350238D01*
X105793214Y-103445476D01*
X105697976Y-103493095D01*
X107793214Y-103540714D02*
X107793214Y-104207380D01*
X107412261Y-103540714D02*
X107412261Y-103778809D01*
X107459880Y-103874047D01*
X107555119Y-103921666D01*
X107793214Y-103921666D01*
X108317023Y-104112142D02*
X108364642Y-104159761D01*
X108317023Y-104207380D01*
X108269404Y-104159761D01*
X108317023Y-104112142D01*
X108317023Y-104207380D01*
X109983690Y-104159761D02*
X109888452Y-104207380D01*
X109697976Y-104207380D01*
X109602738Y-104159761D01*
X109555119Y-104112142D01*
X109507500Y-104016904D01*
X109507500Y-103731190D01*
X109555119Y-103635952D01*
X109602738Y-103588333D01*
X109697976Y-103540714D01*
X109888452Y-103540714D01*
X109983690Y-103588333D01*
X110412261Y-103540714D02*
X110412261Y-104207380D01*
X110888452Y-103540714D01*
X110888452Y-104207380D01*
X111364642Y-103874047D02*
X111793214Y-103874047D01*
X111364642Y-103540714D02*
X111364642Y-104207380D01*
X111793214Y-103540714D02*
X111793214Y-104207380D01*
X112269404Y-103540714D02*
X112269404Y-104207380D01*
X112507500Y-104207380D01*
X112602738Y-104159761D01*
X112650357Y-104064523D01*
X112650357Y-103921666D01*
X112602738Y-103826428D01*
X112507500Y-103778809D01*
X112269404Y-103778809D01*
X113221785Y-104207380D02*
X113126547Y-104159761D01*
X113078928Y-104112142D01*
X113031309Y-104016904D01*
X113031309Y-103731190D01*
X113078928Y-103635952D01*
X113126547Y-103588333D01*
X113221785Y-103540714D01*
X113364642Y-103540714D01*
X113459880Y-103588333D01*
X113507500Y-103635952D01*
X113555119Y-103731190D01*
X113555119Y-104016904D01*
X113507500Y-104112142D01*
X113459880Y-104159761D01*
X113364642Y-104207380D01*
X113221785Y-104207380D01*
X106269404Y-105817380D02*
X105697976Y-105817380D01*
X105983690Y-105817380D02*
X105983690Y-104817380D01*
X105888452Y-104960238D01*
X105793214Y-105055476D01*
X105697976Y-105103095D01*
X107793214Y-105150714D02*
X107793214Y-105817380D01*
X107412261Y-105150714D02*
X107412261Y-105388809D01*
X107459880Y-105484047D01*
X107555119Y-105531666D01*
X107793214Y-105531666D01*
X108317023Y-105722142D02*
X108364642Y-105769761D01*
X108317023Y-105817380D01*
X108269404Y-105769761D01*
X108317023Y-105722142D01*
X108317023Y-105817380D01*
X109650357Y-105484047D02*
X109745595Y-105484047D01*
X109459880Y-105198333D02*
X109555119Y-105150714D01*
X109745595Y-105150714D01*
X109840833Y-105198333D01*
X109888452Y-105293571D01*
X109888452Y-105341190D01*
X109840833Y-105436428D01*
X109745595Y-105484047D01*
X109840833Y-105531666D01*
X109888452Y-105626904D01*
X109888452Y-105674523D01*
X109840833Y-105769761D01*
X109745595Y-105817380D01*
X109555119Y-105817380D01*
X109459880Y-105769761D01*
X110697976Y-105769761D02*
X110602738Y-105817380D01*
X110412261Y-105817380D01*
X110317023Y-105769761D01*
X110269404Y-105674523D01*
X110269404Y-105293571D01*
X110317023Y-105198333D01*
X110412261Y-105150714D01*
X110602738Y-105150714D01*
X110697976Y-105198333D01*
X110745595Y-105293571D01*
X110745595Y-105388809D01*
X110269404Y-105484047D01*
X111555119Y-105817380D02*
X111555119Y-105150714D01*
X111412261Y-105150714D01*
X111317023Y-105198333D01*
X111269404Y-105293571D01*
X111221785Y-105674523D01*
X111174166Y-105769761D01*
X111078928Y-105817380D01*
X112412261Y-105769761D02*
X112317023Y-105817380D01*
X112126547Y-105817380D01*
X112031309Y-105769761D01*
X111983690Y-105674523D01*
X111983690Y-105293571D01*
X112031309Y-105198333D01*
X112126547Y-105150714D01*
X112317023Y-105150714D01*
X112412261Y-105198333D01*
X112459880Y-105293571D01*
X112459880Y-105388809D01*
X111983690Y-105484047D01*
X112888452Y-105484047D02*
X113317023Y-105484047D01*
X112888452Y-105150714D02*
X112888452Y-105817380D01*
X113317023Y-105150714D02*
X113317023Y-105817380D01*
X113936071Y-105817380D02*
X113840833Y-105769761D01*
X113793214Y-105722142D01*
X113745595Y-105626904D01*
X113745595Y-105341190D01*
X113793214Y-105245952D01*
X113840833Y-105198333D01*
X113936071Y-105150714D01*
X114078928Y-105150714D01*
X114174166Y-105198333D01*
X114221785Y-105245952D01*
X114269404Y-105341190D01*
X114269404Y-105626904D01*
X114221785Y-105722142D01*
X114174166Y-105769761D01*
X114078928Y-105817380D01*
X113936071Y-105817380D01*
X106269404Y-107427380D02*
X105697976Y-107427380D01*
X105983690Y-107427380D02*
X105983690Y-106427380D01*
X105888452Y-106570238D01*
X105793214Y-106665476D01*
X105697976Y-106713095D01*
X107793214Y-106760714D02*
X107793214Y-107427380D01*
X107412261Y-106760714D02*
X107412261Y-106998809D01*
X107459880Y-107094047D01*
X107555119Y-107141666D01*
X107793214Y-107141666D01*
X108317023Y-107332142D02*
X108364642Y-107379761D01*
X108317023Y-107427380D01*
X108269404Y-107379761D01*
X108317023Y-107332142D01*
X108317023Y-107427380D01*
X109888452Y-106760714D02*
X109888452Y-107427380D01*
X109507500Y-106760714D02*
X109507500Y-106998809D01*
X109555119Y-107094047D01*
X109650357Y-107141666D01*
X109888452Y-107141666D01*
X110793214Y-107379761D02*
X110697976Y-107427380D01*
X110507500Y-107427380D01*
X110412261Y-107379761D01*
X110364642Y-107284523D01*
X110364642Y-106903571D01*
X110412261Y-106808333D01*
X110507500Y-106760714D01*
X110697976Y-106760714D01*
X110793214Y-106808333D01*
X110840833Y-106903571D01*
X110840833Y-106998809D01*
X110364642Y-107094047D01*
X111269404Y-106760714D02*
X111269404Y-107760714D01*
X111269404Y-106808333D02*
X111364642Y-106760714D01*
X111555119Y-106760714D01*
X111650357Y-106808333D01*
X111697976Y-106855952D01*
X111745595Y-106951190D01*
X111745595Y-107236904D01*
X111697976Y-107332142D01*
X111650357Y-107379761D01*
X111555119Y-107427380D01*
X111364642Y-107427380D01*
X111269404Y-107379761D01*
X112412261Y-107094047D02*
X112555119Y-107141666D01*
X112602738Y-107236904D01*
X112602738Y-107284523D01*
X112555119Y-107379761D01*
X112459880Y-107427380D01*
X112174166Y-107427380D01*
X112174166Y-106760714D01*
X112412261Y-106760714D01*
X112507500Y-106808333D01*
X112555119Y-106903571D01*
X112555119Y-106951190D01*
X112507500Y-107046428D01*
X112412261Y-107094047D01*
X112174166Y-107094047D01*
X113412261Y-107379761D02*
X113317023Y-107427380D01*
X113126547Y-107427380D01*
X113031309Y-107379761D01*
X112983690Y-107284523D01*
X112983690Y-106903571D01*
X113031309Y-106808333D01*
X113126547Y-106760714D01*
X113317023Y-106760714D01*
X113412261Y-106808333D01*
X113459880Y-106903571D01*
X113459880Y-106998809D01*
X112983690Y-107094047D01*
X113888452Y-107094047D02*
X114317023Y-107094047D01*
X113888452Y-106760714D02*
X113888452Y-107427380D01*
X114317023Y-106760714D02*
X114317023Y-107427380D01*
X114936071Y-107427380D02*
X114840833Y-107379761D01*
X114793214Y-107332142D01*
X114745595Y-107236904D01*
X114745595Y-106951190D01*
X114793214Y-106855952D01*
X114840833Y-106808333D01*
X114936071Y-106760714D01*
X115078928Y-106760714D01*
X115174166Y-106808333D01*
X115221785Y-106855952D01*
X115269404Y-106951190D01*
X115269404Y-107236904D01*
X115221785Y-107332142D01*
X115174166Y-107379761D01*
X115078928Y-107427380D01*
X114936071Y-107427380D01*
X106269404Y-109037380D02*
X105697976Y-109037380D01*
X105983690Y-109037380D02*
X105983690Y-108037380D01*
X105888452Y-108180238D01*
X105793214Y-108275476D01*
X105697976Y-108323095D01*
X107936071Y-107989761D02*
X107888452Y-108037380D01*
X107793214Y-108085000D01*
X107602738Y-108085000D01*
X107507500Y-108132619D01*
X107459880Y-108180238D01*
X107412261Y-108275476D01*
X107412261Y-108846904D01*
X107459880Y-108942142D01*
X107507500Y-108989761D01*
X107602738Y-109037380D01*
X107745595Y-109037380D01*
X107840833Y-108989761D01*
X107888452Y-108942142D01*
X107936071Y-108846904D01*
X107936071Y-108561190D01*
X107888452Y-108465952D01*
X107840833Y-108418333D01*
X107745595Y-108370714D01*
X107555119Y-108370714D01*
X107459880Y-108418333D01*
X107412261Y-108465952D01*
X108364642Y-108370714D02*
X108364642Y-109370714D01*
X108364642Y-108418333D02*
X108459880Y-108370714D01*
X108650357Y-108370714D01*
X108745595Y-108418333D01*
X108793214Y-108465952D01*
X108840833Y-108561190D01*
X108840833Y-108846904D01*
X108793214Y-108942142D01*
X108745595Y-108989761D01*
X108650357Y-109037380D01*
X108459880Y-109037380D01*
X108364642Y-108989761D01*
X109269404Y-108942142D02*
X109317023Y-108989761D01*
X109269404Y-109037380D01*
X109221785Y-108989761D01*
X109269404Y-108942142D01*
X109269404Y-109037380D01*
X110507500Y-108513571D02*
X110840833Y-108513571D01*
X110983690Y-109037380D02*
X110507500Y-109037380D01*
X110507500Y-108037380D01*
X110983690Y-108037380D01*
X111364642Y-108989761D02*
X111507500Y-109037380D01*
X111745595Y-109037380D01*
X111840833Y-108989761D01*
X111888452Y-108942142D01*
X111936071Y-108846904D01*
X111936071Y-108751666D01*
X111888452Y-108656428D01*
X111840833Y-108608809D01*
X111745595Y-108561190D01*
X111555119Y-108513571D01*
X111459880Y-108465952D01*
X111412261Y-108418333D01*
X111364642Y-108323095D01*
X111364642Y-108227857D01*
X111412261Y-108132619D01*
X111459880Y-108085000D01*
X111555119Y-108037380D01*
X111793214Y-108037380D01*
X111936071Y-108085000D01*
X112364642Y-109037380D02*
X112364642Y-108037380D01*
X112745595Y-108037380D01*
X112840833Y-108085000D01*
X112888452Y-108132619D01*
X112936071Y-108227857D01*
X112936071Y-108370714D01*
X112888452Y-108465952D01*
X112840833Y-108513571D01*
X112745595Y-108561190D01*
X112364642Y-108561190D01*
X113269404Y-108037380D02*
X113888452Y-108037380D01*
X113555119Y-108418333D01*
X113697976Y-108418333D01*
X113793214Y-108465952D01*
X113840833Y-108513571D01*
X113888452Y-108608809D01*
X113888452Y-108846904D01*
X113840833Y-108942142D01*
X113793214Y-108989761D01*
X113697976Y-109037380D01*
X113412261Y-109037380D01*
X113317023Y-108989761D01*
X113269404Y-108942142D01*
X114269404Y-108132619D02*
X114317023Y-108085000D01*
X114412261Y-108037380D01*
X114650357Y-108037380D01*
X114745595Y-108085000D01*
X114793214Y-108132619D01*
X114840833Y-108227857D01*
X114840833Y-108323095D01*
X114793214Y-108465952D01*
X114221785Y-109037380D01*
X114840833Y-109037380D01*
X115269404Y-108656428D02*
X116031309Y-108656428D01*
X116507500Y-109037380D02*
X116507500Y-108037380D01*
X116745595Y-108037380D01*
X116888452Y-108085000D01*
X116983690Y-108180238D01*
X117031309Y-108275476D01*
X117078928Y-108465952D01*
X117078928Y-108608809D01*
X117031309Y-108799285D01*
X116983690Y-108894523D01*
X116888452Y-108989761D01*
X116745595Y-109037380D01*
X116507500Y-109037380D01*
X117888452Y-108989761D02*
X117793214Y-109037380D01*
X117602738Y-109037380D01*
X117507500Y-108989761D01*
X117459880Y-108894523D01*
X117459880Y-108513571D01*
X117507500Y-108418333D01*
X117602738Y-108370714D01*
X117793214Y-108370714D01*
X117888452Y-108418333D01*
X117936071Y-108513571D01*
X117936071Y-108608809D01*
X117459880Y-108704047D01*
X118269404Y-108370714D02*
X118507500Y-109037380D01*
X118745595Y-108370714D01*
X119126547Y-109037380D02*
X119126547Y-108037380D01*
X119697976Y-109037380D02*
X119269404Y-108465952D01*
X119697976Y-108037380D02*
X119126547Y-108608809D01*
X120126547Y-109037380D02*
X120126547Y-108370714D01*
X120126547Y-108037380D02*
X120078928Y-108085000D01*
X120126547Y-108132619D01*
X120174166Y-108085000D01*
X120126547Y-108037380D01*
X120126547Y-108132619D01*
X120459880Y-108370714D02*
X120840833Y-108370714D01*
X120602738Y-108037380D02*
X120602738Y-108894523D01*
X120650357Y-108989761D01*
X120745595Y-109037380D01*
X120840833Y-109037380D01*
X121174166Y-108656428D02*
X121936071Y-108656428D01*
X122269404Y-108037380D02*
X122602738Y-109037380D01*
X122936071Y-108037380D01*
X123793214Y-109037380D02*
X123221785Y-109037380D01*
X123507500Y-109037380D02*
X123507500Y-108037380D01*
X123412261Y-108180238D01*
X123317023Y-108275476D01*
X123221785Y-108323095D01*
X106269404Y-110647380D02*
X105697976Y-110647380D01*
X105983690Y-110647380D02*
X105983690Y-109647380D01*
X105888452Y-109790238D01*
X105793214Y-109885476D01*
X105697976Y-109933095D01*
X106697976Y-110266428D02*
X107459880Y-110266428D01*
X107840833Y-109647380D02*
X108459880Y-109647380D01*
X108126547Y-110028333D01*
X108269404Y-110028333D01*
X108364642Y-110075952D01*
X108412261Y-110123571D01*
X108459880Y-110218809D01*
X108459880Y-110456904D01*
X108412261Y-110552142D01*
X108364642Y-110599761D01*
X108269404Y-110647380D01*
X107983690Y-110647380D01*
X107888452Y-110599761D01*
X107840833Y-110552142D01*
X109078928Y-109647380D02*
X109174166Y-109647380D01*
X109269404Y-109695000D01*
X109317023Y-109742619D01*
X109364642Y-109837857D01*
X109412261Y-110028333D01*
X109412261Y-110266428D01*
X109364642Y-110456904D01*
X109317023Y-110552142D01*
X109269404Y-110599761D01*
X109174166Y-110647380D01*
X109078928Y-110647380D01*
X108983690Y-110599761D01*
X108936071Y-110552142D01*
X108888452Y-110456904D01*
X108840833Y-110266428D01*
X108840833Y-110028333D01*
X108888452Y-109837857D01*
X108936071Y-109742619D01*
X108983690Y-109695000D01*
X109078928Y-109647380D01*
X110031309Y-109647380D02*
X110126547Y-109647380D01*
X110221785Y-109695000D01*
X110269404Y-109742619D01*
X110317023Y-109837857D01*
X110364642Y-110028333D01*
X110364642Y-110266428D01*
X110317023Y-110456904D01*
X110269404Y-110552142D01*
X110221785Y-110599761D01*
X110126547Y-110647380D01*
X110031309Y-110647380D01*
X109936071Y-110599761D01*
X109888452Y-110552142D01*
X109840833Y-110456904D01*
X109793214Y-110266428D01*
X109793214Y-110028333D01*
X109840833Y-109837857D01*
X109888452Y-109742619D01*
X109936071Y-109695000D01*
X110031309Y-109647380D01*
X110983690Y-109647380D02*
X111078928Y-109647380D01*
X111174166Y-109695000D01*
X111221785Y-109742619D01*
X111269404Y-109837857D01*
X111317023Y-110028333D01*
X111317023Y-110266428D01*
X111269404Y-110456904D01*
X111221785Y-110552142D01*
X111174166Y-110599761D01*
X111078928Y-110647380D01*
X110983690Y-110647380D01*
X110888452Y-110599761D01*
X110840833Y-110552142D01*
X110793214Y-110456904D01*
X110745595Y-110266428D01*
X110745595Y-110028333D01*
X110793214Y-109837857D01*
X110840833Y-109742619D01*
X110888452Y-109695000D01*
X110983690Y-109647380D01*
X112983690Y-109599761D02*
X112936071Y-109647380D01*
X112840833Y-109695000D01*
X112650357Y-109695000D01*
X112555119Y-109742619D01*
X112507500Y-109790238D01*
X112459880Y-109885476D01*
X112459880Y-110456904D01*
X112507500Y-110552142D01*
X112555119Y-110599761D01*
X112650357Y-110647380D01*
X112793214Y-110647380D01*
X112888452Y-110599761D01*
X112936071Y-110552142D01*
X112983690Y-110456904D01*
X112983690Y-110171190D01*
X112936071Y-110075952D01*
X112888452Y-110028333D01*
X112793214Y-109980714D01*
X112602738Y-109980714D01*
X112507500Y-110028333D01*
X112459880Y-110075952D01*
X113412261Y-109980714D02*
X113412261Y-110980714D01*
X113412261Y-110028333D02*
X113507500Y-109980714D01*
X113697976Y-109980714D01*
X113793214Y-110028333D01*
X113840833Y-110075952D01*
X113888452Y-110171190D01*
X113888452Y-110456904D01*
X113840833Y-110552142D01*
X113793214Y-110599761D01*
X113697976Y-110647380D01*
X113507500Y-110647380D01*
X113412261Y-110599761D01*
X114317023Y-110552142D02*
X114364642Y-110599761D01*
X114317023Y-110647380D01*
X114269404Y-110599761D01*
X114317023Y-110552142D01*
X114317023Y-110647380D01*
X115459880Y-109647380D02*
X115697976Y-110647380D01*
X115888452Y-109933095D01*
X116078928Y-110647380D01*
X116317023Y-109647380D01*
X116650357Y-110599761D02*
X116793214Y-110647380D01*
X117031309Y-110647380D01*
X117126547Y-110599761D01*
X117174166Y-110552142D01*
X117221785Y-110456904D01*
X117221785Y-110361666D01*
X117174166Y-110266428D01*
X117126547Y-110218809D01*
X117031309Y-110171190D01*
X116840833Y-110123571D01*
X116745595Y-110075952D01*
X116697976Y-110028333D01*
X116650357Y-109933095D01*
X116650357Y-109837857D01*
X116697976Y-109742619D01*
X116745595Y-109695000D01*
X116840833Y-109647380D01*
X117078928Y-109647380D01*
X117221785Y-109695000D01*
X117602738Y-109742619D02*
X117650357Y-109695000D01*
X117745595Y-109647380D01*
X117983690Y-109647380D01*
X118078928Y-109695000D01*
X118126547Y-109742619D01*
X118174166Y-109837857D01*
X118174166Y-109933095D01*
X118126547Y-110075952D01*
X117555119Y-110647380D01*
X118174166Y-110647380D01*
X118745595Y-110075952D02*
X118650357Y-110028333D01*
X118602738Y-109980714D01*
X118555119Y-109885476D01*
X118555119Y-109837857D01*
X118602738Y-109742619D01*
X118650357Y-109695000D01*
X118745595Y-109647380D01*
X118936071Y-109647380D01*
X119031309Y-109695000D01*
X119078928Y-109742619D01*
X119126547Y-109837857D01*
X119126547Y-109885476D01*
X119078928Y-109980714D01*
X119031309Y-110028333D01*
X118936071Y-110075952D01*
X118745595Y-110075952D01*
X118650357Y-110123571D01*
X118602738Y-110171190D01*
X118555119Y-110266428D01*
X118555119Y-110456904D01*
X118602738Y-110552142D01*
X118650357Y-110599761D01*
X118745595Y-110647380D01*
X118936071Y-110647380D01*
X119031309Y-110599761D01*
X119078928Y-110552142D01*
X119126547Y-110456904D01*
X119126547Y-110266428D01*
X119078928Y-110171190D01*
X119031309Y-110123571D01*
X118936071Y-110075952D01*
X120078928Y-110647380D02*
X119507500Y-110647380D01*
X119793214Y-110647380D02*
X119793214Y-109647380D01*
X119697976Y-109790238D01*
X119602738Y-109885476D01*
X119507500Y-109933095D01*
X120983690Y-109647380D02*
X120507500Y-109647380D01*
X120459880Y-110123571D01*
X120507500Y-110075952D01*
X120602738Y-110028333D01*
X120840833Y-110028333D01*
X120936071Y-110075952D01*
X120983690Y-110123571D01*
X121031309Y-110218809D01*
X121031309Y-110456904D01*
X120983690Y-110552142D01*
X120936071Y-110599761D01*
X120840833Y-110647380D01*
X120602738Y-110647380D01*
X120507500Y-110599761D01*
X120459880Y-110552142D01*
X122221785Y-110314047D02*
X122650357Y-110314047D01*
X122221785Y-109980714D02*
X122221785Y-110647380D01*
X122650357Y-109980714D02*
X122650357Y-110647380D01*
X123555119Y-110647380D02*
X123555119Y-110123571D01*
X123507500Y-110028333D01*
X123412261Y-109980714D01*
X123221785Y-109980714D01*
X123126547Y-110028333D01*
X123555119Y-110599761D02*
X123459880Y-110647380D01*
X123221785Y-110647380D01*
X123126547Y-110599761D01*
X123078928Y-110504523D01*
X123078928Y-110409285D01*
X123126547Y-110314047D01*
X123221785Y-110266428D01*
X123459880Y-110266428D01*
X123555119Y-110218809D01*
X125031309Y-110314047D02*
X125174166Y-110361666D01*
X125221785Y-110456904D01*
X125221785Y-110504523D01*
X125174166Y-110599761D01*
X125078928Y-110647380D01*
X124793214Y-110647380D01*
X124793214Y-109980714D01*
X125031309Y-109980714D01*
X125126547Y-110028333D01*
X125174166Y-110123571D01*
X125174166Y-110171190D01*
X125126547Y-110266428D01*
X125031309Y-110314047D01*
X124793214Y-110314047D01*
X125650357Y-109980714D02*
X125650357Y-110647380D01*
X125745595Y-110266428D02*
X126031309Y-110647380D01*
X126031309Y-109980714D02*
X125650357Y-110361666D01*
X126364642Y-109980714D02*
X126602738Y-110647380D01*
X126840833Y-109980714D02*
X126602738Y-110647380D01*
X126507500Y-110885476D01*
X126459880Y-110933095D01*
X126364642Y-110980714D01*
X127650357Y-110599761D02*
X127555119Y-110647380D01*
X127364642Y-110647380D01*
X127269404Y-110599761D01*
X127221785Y-110552142D01*
X127174166Y-110456904D01*
X127174166Y-110171190D01*
X127221785Y-110075952D01*
X127269404Y-110028333D01*
X127364642Y-109980714D01*
X127555119Y-109980714D01*
X127650357Y-110028333D01*
X106269404Y-112257380D02*
X105697976Y-112257380D01*
X105983690Y-112257380D02*
X105983690Y-111257380D01*
X105888452Y-111400238D01*
X105793214Y-111495476D01*
X105697976Y-111543095D01*
X107936071Y-111209761D02*
X107888452Y-111257380D01*
X107793214Y-111305000D01*
X107602738Y-111305000D01*
X107507500Y-111352619D01*
X107459880Y-111400238D01*
X107412261Y-111495476D01*
X107412261Y-112066904D01*
X107459880Y-112162142D01*
X107507500Y-112209761D01*
X107602738Y-112257380D01*
X107745595Y-112257380D01*
X107840833Y-112209761D01*
X107888452Y-112162142D01*
X107936071Y-112066904D01*
X107936071Y-111781190D01*
X107888452Y-111685952D01*
X107840833Y-111638333D01*
X107745595Y-111590714D01*
X107555119Y-111590714D01*
X107459880Y-111638333D01*
X107412261Y-111685952D01*
X108364642Y-111590714D02*
X108364642Y-112590714D01*
X108364642Y-111638333D02*
X108459880Y-111590714D01*
X108650357Y-111590714D01*
X108745595Y-111638333D01*
X108793214Y-111685952D01*
X108840833Y-111781190D01*
X108840833Y-112066904D01*
X108793214Y-112162142D01*
X108745595Y-112209761D01*
X108650357Y-112257380D01*
X108459880Y-112257380D01*
X108364642Y-112209761D01*
X109269404Y-112162142D02*
X109317023Y-112209761D01*
X109269404Y-112257380D01*
X109221785Y-112209761D01*
X109269404Y-112162142D01*
X109269404Y-112257380D01*
X111269404Y-112495476D02*
X111269404Y-112257380D01*
X110412261Y-112257380D01*
X110412261Y-112495476D01*
X111078928Y-112257380D02*
X111078928Y-111257380D01*
X110840833Y-111257380D01*
X110745595Y-111305000D01*
X110697976Y-111352619D01*
X110650357Y-111447857D01*
X110555119Y-112257380D01*
X111650357Y-111590714D02*
X111650357Y-112590714D01*
X111650357Y-111638333D02*
X111745595Y-111590714D01*
X111936071Y-111590714D01*
X112031309Y-111638333D01*
X112078928Y-111685952D01*
X112126547Y-111781190D01*
X112126547Y-112066904D01*
X112078928Y-112162142D01*
X112031309Y-112209761D01*
X111936071Y-112257380D01*
X111745595Y-112257380D01*
X111650357Y-112209761D01*
X112697976Y-112257380D02*
X112602738Y-112209761D01*
X112555119Y-112162142D01*
X112507500Y-112066904D01*
X112507500Y-111781190D01*
X112555119Y-111685952D01*
X112602738Y-111638333D01*
X112697976Y-111590714D01*
X112840833Y-111590714D01*
X112936071Y-111638333D01*
X112983690Y-111685952D01*
X113031309Y-111781190D01*
X113031309Y-112066904D01*
X112983690Y-112162142D01*
X112936071Y-112209761D01*
X112840833Y-112257380D01*
X112697976Y-112257380D01*
X113888452Y-112209761D02*
X113793214Y-112257380D01*
X113602738Y-112257380D01*
X113507500Y-112209761D01*
X113459880Y-112162142D01*
X113412261Y-112066904D01*
X113412261Y-111781190D01*
X113459880Y-111685952D01*
X113507500Y-111638333D01*
X113602738Y-111590714D01*
X113793214Y-111590714D01*
X113888452Y-111638333D01*
X114697976Y-112209761D02*
X114602738Y-112257380D01*
X114412261Y-112257380D01*
X114317023Y-112209761D01*
X114269404Y-112114523D01*
X114269404Y-111733571D01*
X114317023Y-111638333D01*
X114412261Y-111590714D01*
X114602738Y-111590714D01*
X114697976Y-111638333D01*
X114745595Y-111733571D01*
X114745595Y-111828809D01*
X114269404Y-111924047D01*
X115555119Y-112257380D02*
X115555119Y-111590714D01*
X115412261Y-111590714D01*
X115317023Y-111638333D01*
X115269404Y-111733571D01*
X115221785Y-112114523D01*
X115174166Y-112209761D01*
X115078928Y-112257380D01*
X105697976Y-112962619D02*
X105745595Y-112915000D01*
X105840833Y-112867380D01*
X106078928Y-112867380D01*
X106174166Y-112915000D01*
X106221785Y-112962619D01*
X106269404Y-113057857D01*
X106269404Y-113153095D01*
X106221785Y-113295952D01*
X105650357Y-113867380D01*
X106269404Y-113867380D01*
X107936071Y-112819761D02*
X107888452Y-112867380D01*
X107793214Y-112915000D01*
X107602738Y-112915000D01*
X107507500Y-112962619D01*
X107459880Y-113010238D01*
X107412261Y-113105476D01*
X107412261Y-113676904D01*
X107459880Y-113772142D01*
X107507500Y-113819761D01*
X107602738Y-113867380D01*
X107745595Y-113867380D01*
X107840833Y-113819761D01*
X107888452Y-113772142D01*
X107936071Y-113676904D01*
X107936071Y-113391190D01*
X107888452Y-113295952D01*
X107840833Y-113248333D01*
X107745595Y-113200714D01*
X107555119Y-113200714D01*
X107459880Y-113248333D01*
X107412261Y-113295952D01*
X108364642Y-113200714D02*
X108364642Y-114200714D01*
X108364642Y-113248333D02*
X108459880Y-113200714D01*
X108650357Y-113200714D01*
X108745595Y-113248333D01*
X108793214Y-113295952D01*
X108840833Y-113391190D01*
X108840833Y-113676904D01*
X108793214Y-113772142D01*
X108745595Y-113819761D01*
X108650357Y-113867380D01*
X108459880Y-113867380D01*
X108364642Y-113819761D01*
X109269404Y-113772142D02*
X109317023Y-113819761D01*
X109269404Y-113867380D01*
X109221785Y-113819761D01*
X109269404Y-113772142D01*
X109269404Y-113867380D01*
X110507500Y-113867380D02*
X110507500Y-112867380D01*
X111078928Y-113867380D02*
X110650357Y-113295952D01*
X111078928Y-112867380D02*
X110507500Y-113438809D01*
X111650357Y-113867380D02*
X111555119Y-113819761D01*
X111507500Y-113772142D01*
X111459880Y-113676904D01*
X111459880Y-113391190D01*
X111507500Y-113295952D01*
X111555119Y-113248333D01*
X111650357Y-113200714D01*
X111793214Y-113200714D01*
X111888452Y-113248333D01*
X111936071Y-113295952D01*
X111983690Y-113391190D01*
X111983690Y-113676904D01*
X111936071Y-113772142D01*
X111888452Y-113819761D01*
X111793214Y-113867380D01*
X111650357Y-113867380D01*
X112412261Y-113534047D02*
X112840833Y-113534047D01*
X112412261Y-113200714D02*
X112412261Y-113867380D01*
X112840833Y-113200714D02*
X112840833Y-113867380D01*
X113793214Y-113295952D02*
X113745595Y-113248333D01*
X113650357Y-113200714D01*
X113459880Y-113200714D01*
X113364642Y-113248333D01*
X113317023Y-113295952D01*
X113269404Y-113391190D01*
X113269404Y-113676904D01*
X113317023Y-113772142D01*
X113364642Y-113819761D01*
X113459880Y-113867380D01*
X113602738Y-113867380D01*
X113697976Y-113819761D01*
X113745595Y-113772142D01*
X113793214Y-113676904D01*
X113793214Y-113057857D01*
X113745595Y-112962619D01*
X113697976Y-112915000D01*
X113602738Y-112867380D01*
X113412261Y-112867380D01*
X113317023Y-112915000D01*
X114602738Y-113819761D02*
X114507500Y-113867380D01*
X114317023Y-113867380D01*
X114221785Y-113819761D01*
X114174166Y-113724523D01*
X114174166Y-113343571D01*
X114221785Y-113248333D01*
X114317023Y-113200714D01*
X114507500Y-113200714D01*
X114602738Y-113248333D01*
X114650357Y-113343571D01*
X114650357Y-113438809D01*
X114174166Y-113534047D01*
X115078928Y-113534047D02*
X115507500Y-113534047D01*
X115078928Y-113200714D02*
X115078928Y-113867380D01*
X115507500Y-113200714D02*
X115507500Y-113867380D01*
X116078928Y-113534047D02*
X116174166Y-113534047D01*
X115888452Y-113248333D02*
X115983690Y-113200714D01*
X116174166Y-113200714D01*
X116269404Y-113248333D01*
X116317023Y-113343571D01*
X116317023Y-113391190D01*
X116269404Y-113486428D01*
X116174166Y-113534047D01*
X116269404Y-113581666D01*
X116317023Y-113676904D01*
X116317023Y-113724523D01*
X116269404Y-113819761D01*
X116174166Y-113867380D01*
X115983690Y-113867380D01*
X115888452Y-113819761D01*
X117174166Y-113867380D02*
X117174166Y-113343571D01*
X117126547Y-113248333D01*
X117031309Y-113200714D01*
X116840833Y-113200714D01*
X116745595Y-113248333D01*
X117174166Y-113819761D02*
X117078928Y-113867380D01*
X116840833Y-113867380D01*
X116745595Y-113819761D01*
X116697976Y-113724523D01*
X116697976Y-113629285D01*
X116745595Y-113534047D01*
X116840833Y-113486428D01*
X117078928Y-113486428D01*
X117174166Y-113438809D01*
X117507500Y-113200714D02*
X117983690Y-113200714D01*
X117745595Y-113200714D02*
X117745595Y-113867380D01*
X118459880Y-113867380D02*
X118364642Y-113819761D01*
X118317023Y-113772142D01*
X118269404Y-113676904D01*
X118269404Y-113391190D01*
X118317023Y-113295952D01*
X118364642Y-113248333D01*
X118459880Y-113200714D01*
X118602738Y-113200714D01*
X118697976Y-113248333D01*
X118745595Y-113295952D01*
X118793214Y-113391190D01*
X118793214Y-113676904D01*
X118745595Y-113772142D01*
X118697976Y-113819761D01*
X118602738Y-113867380D01*
X118459880Y-113867380D01*
X119221785Y-113200714D02*
X119221785Y-114200714D01*
X119221785Y-113248333D02*
X119317023Y-113200714D01*
X119507500Y-113200714D01*
X119602738Y-113248333D01*
X119650357Y-113295952D01*
X119697976Y-113391190D01*
X119697976Y-113676904D01*
X119650357Y-113772142D01*
X119602738Y-113819761D01*
X119507500Y-113867380D01*
X119317023Y-113867380D01*
X119221785Y-113819761D01*
X106269404Y-115477380D02*
X105697976Y-115477380D01*
X105983690Y-115477380D02*
X105983690Y-114477380D01*
X105888452Y-114620238D01*
X105793214Y-114715476D01*
X105697976Y-114763095D01*
X107936071Y-114429761D02*
X107888452Y-114477380D01*
X107793214Y-114525000D01*
X107602738Y-114525000D01*
X107507500Y-114572619D01*
X107459880Y-114620238D01*
X107412261Y-114715476D01*
X107412261Y-115286904D01*
X107459880Y-115382142D01*
X107507500Y-115429761D01*
X107602738Y-115477380D01*
X107745595Y-115477380D01*
X107840833Y-115429761D01*
X107888452Y-115382142D01*
X107936071Y-115286904D01*
X107936071Y-115001190D01*
X107888452Y-114905952D01*
X107840833Y-114858333D01*
X107745595Y-114810714D01*
X107555119Y-114810714D01*
X107459880Y-114858333D01*
X107412261Y-114905952D01*
X108364642Y-114810714D02*
X108364642Y-115810714D01*
X108364642Y-114858333D02*
X108459880Y-114810714D01*
X108650357Y-114810714D01*
X108745595Y-114858333D01*
X108793214Y-114905952D01*
X108840833Y-115001190D01*
X108840833Y-115286904D01*
X108793214Y-115382142D01*
X108745595Y-115429761D01*
X108650357Y-115477380D01*
X108459880Y-115477380D01*
X108364642Y-115429761D01*
X109269404Y-115382142D02*
X109317023Y-115429761D01*
X109269404Y-115477380D01*
X109221785Y-115429761D01*
X109269404Y-115382142D01*
X109269404Y-115477380D01*
X110412261Y-114477380D02*
X110650357Y-115477380D01*
X110840833Y-114763095D01*
X111031309Y-115477380D01*
X111269404Y-114477380D01*
X112126547Y-115477380D02*
X111650357Y-115477380D01*
X111650357Y-114477380D01*
X112459880Y-114953571D02*
X112793214Y-114953571D01*
X112936071Y-115477380D02*
X112459880Y-115477380D01*
X112459880Y-114477380D01*
X112936071Y-114477380D01*
X113364642Y-115477380D02*
X113364642Y-114477380D01*
X113602738Y-114477380D01*
X113745595Y-114525000D01*
X113840833Y-114620238D01*
X113888452Y-114715476D01*
X113936071Y-114905952D01*
X113936071Y-115048809D01*
X113888452Y-115239285D01*
X113840833Y-115334523D01*
X113745595Y-115429761D01*
X113602738Y-115477380D01*
X113364642Y-115477380D01*
X115459880Y-114953571D02*
X115126547Y-114953571D01*
X115126547Y-115477380D02*
X115126547Y-114477380D01*
X115602738Y-114477380D01*
X115983690Y-115477380D02*
X115983690Y-114810714D01*
X115983690Y-114477380D02*
X115936071Y-114525000D01*
X115983690Y-114572619D01*
X116031309Y-114525000D01*
X115983690Y-114477380D01*
X115983690Y-114572619D01*
X116459880Y-115477380D02*
X116459880Y-114810714D01*
X116459880Y-115001190D02*
X116507500Y-114905952D01*
X116555119Y-114858333D01*
X116650357Y-114810714D01*
X116745595Y-114810714D01*
X117078928Y-115477380D02*
X117078928Y-114810714D01*
X117078928Y-114905952D02*
X117126547Y-114858333D01*
X117221785Y-114810714D01*
X117364642Y-114810714D01*
X117459880Y-114858333D01*
X117507500Y-114953571D01*
X117507500Y-115477380D01*
X117507500Y-114953571D02*
X117555119Y-114858333D01*
X117650357Y-114810714D01*
X117793214Y-114810714D01*
X117888452Y-114858333D01*
X117936071Y-114953571D01*
X117936071Y-115477380D01*
X118317023Y-114810714D02*
X118507500Y-115477380D01*
X118697976Y-115001190D01*
X118888452Y-115477380D01*
X119078928Y-114810714D01*
X119888452Y-115477380D02*
X119888452Y-114953571D01*
X119840833Y-114858333D01*
X119745595Y-114810714D01*
X119555119Y-114810714D01*
X119459880Y-114858333D01*
X119888452Y-115429761D02*
X119793214Y-115477380D01*
X119555119Y-115477380D01*
X119459880Y-115429761D01*
X119412261Y-115334523D01*
X119412261Y-115239285D01*
X119459880Y-115144047D01*
X119555119Y-115096428D01*
X119793214Y-115096428D01*
X119888452Y-115048809D01*
X120364642Y-115477380D02*
X120364642Y-114810714D01*
X120364642Y-115001190D02*
X120412261Y-114905952D01*
X120459880Y-114858333D01*
X120555119Y-114810714D01*
X120650357Y-114810714D01*
X121364642Y-115429761D02*
X121269404Y-115477380D01*
X121078928Y-115477380D01*
X120983690Y-115429761D01*
X120936071Y-115334523D01*
X120936071Y-114953571D01*
X120983690Y-114858333D01*
X121078928Y-114810714D01*
X121269404Y-114810714D01*
X121364642Y-114858333D01*
X121412261Y-114953571D01*
X121412261Y-115048809D01*
X120936071Y-115144047D01*
X108578095Y-117993571D02*
X108768571Y-117993571D01*
X108435238Y-117565000D02*
X108530476Y-117517380D01*
X108768571Y-117517380D01*
X108863809Y-117565000D01*
X108911428Y-117612619D01*
X108959047Y-117707857D01*
X108959047Y-117803095D01*
X108911428Y-117898333D01*
X108863809Y-117945952D01*
X108768571Y-117993571D01*
X108911428Y-118041190D01*
X108959047Y-118088809D01*
X109006666Y-118184047D01*
X109006666Y-118326904D01*
X108959047Y-118422142D01*
X108911428Y-118469761D01*
X108816190Y-118517380D01*
X108530476Y-118517380D01*
X108435238Y-118469761D01*
X109863809Y-118517380D02*
X109863809Y-117993571D01*
X109816190Y-117898333D01*
X109720952Y-117850714D01*
X109530476Y-117850714D01*
X109435238Y-117898333D01*
X109863809Y-118469761D02*
X109768571Y-118517380D01*
X109530476Y-118517380D01*
X109435238Y-118469761D01*
X109387619Y-118374523D01*
X109387619Y-118279285D01*
X109435238Y-118184047D01*
X109530476Y-118136428D01*
X109768571Y-118136428D01*
X109863809Y-118088809D01*
X110340000Y-118517380D02*
X110340000Y-117850714D01*
X110768571Y-117850714D01*
X110768571Y-118517380D01*
X111387619Y-118517380D02*
X111292380Y-118469761D01*
X111244761Y-118422142D01*
X111197142Y-118326904D01*
X111197142Y-118041190D01*
X111244761Y-117945952D01*
X111292380Y-117898333D01*
X111387619Y-117850714D01*
X111530476Y-117850714D01*
X111625714Y-117898333D01*
X111673333Y-117945952D01*
X111720952Y-118041190D01*
X111720952Y-118326904D01*
X111673333Y-118422142D01*
X111625714Y-118469761D01*
X111530476Y-118517380D01*
X111387619Y-118517380D01*
X112530476Y-118469761D02*
X112435238Y-118517380D01*
X112244761Y-118517380D01*
X112149523Y-118469761D01*
X112101904Y-118374523D01*
X112101904Y-117993571D01*
X112149523Y-117898333D01*
X112244761Y-117850714D01*
X112435238Y-117850714D01*
X112530476Y-117898333D01*
X112578095Y-117993571D01*
X112578095Y-118088809D01*
X112101904Y-118184047D01*
X112863809Y-117850714D02*
X113340000Y-117850714D01*
X113101904Y-117850714D02*
X113101904Y-118517380D01*
X114054285Y-118469761D02*
X113959047Y-118517380D01*
X113768571Y-118517380D01*
X113673333Y-118469761D01*
X113625714Y-118374523D01*
X113625714Y-117993571D01*
X113673333Y-117898333D01*
X113768571Y-117850714D01*
X113959047Y-117850714D01*
X114054285Y-117898333D01*
X114101904Y-117993571D01*
X114101904Y-118088809D01*
X113625714Y-118184047D01*
X115292380Y-117850714D02*
X115292380Y-118517380D01*
X115387619Y-118136428D02*
X115673333Y-118517380D01*
X115673333Y-117850714D02*
X115292380Y-118231666D01*
X116244761Y-118517380D02*
X116149523Y-118469761D01*
X116101904Y-118422142D01*
X116054285Y-118326904D01*
X116054285Y-118041190D01*
X116101904Y-117945952D01*
X116149523Y-117898333D01*
X116244761Y-117850714D01*
X116387619Y-117850714D01*
X116482857Y-117898333D01*
X116530476Y-117945952D01*
X116578095Y-118041190D01*
X116578095Y-118326904D01*
X116530476Y-118422142D01*
X116482857Y-118469761D01*
X116387619Y-118517380D01*
X116244761Y-118517380D01*
X117006666Y-118517380D02*
X117006666Y-117850714D01*
X117292380Y-118374523D01*
X117578095Y-117850714D01*
X117578095Y-118517380D01*
X118054285Y-118517380D02*
X118054285Y-117850714D01*
X118482857Y-117850714D01*
X118482857Y-118517380D01*
X119101904Y-118517380D02*
X119006666Y-118469761D01*
X118959047Y-118422142D01*
X118911428Y-118326904D01*
X118911428Y-118041190D01*
X118959047Y-117945952D01*
X119006666Y-117898333D01*
X119101904Y-117850714D01*
X119244761Y-117850714D01*
X119340000Y-117898333D01*
X119387619Y-117945952D01*
X119435238Y-118041190D01*
X119435238Y-118326904D01*
X119387619Y-118422142D01*
X119340000Y-118469761D01*
X119244761Y-118517380D01*
X119101904Y-118517380D01*
X119863809Y-118184047D02*
X120292380Y-118184047D01*
X119863809Y-117850714D02*
X119863809Y-118517380D01*
X120292380Y-117850714D02*
X120292380Y-118517380D01*
X121149523Y-118469761D02*
X121054285Y-118517380D01*
X120863809Y-118517380D01*
X120768571Y-118469761D01*
X120720952Y-118374523D01*
X120720952Y-117993571D01*
X120768571Y-117898333D01*
X120863809Y-117850714D01*
X121054285Y-117850714D01*
X121149523Y-117898333D01*
X121197142Y-117993571D01*
X121197142Y-118088809D01*
X120720952Y-118184047D01*
X121625714Y-118184047D02*
X122054285Y-118184047D01*
X121625714Y-117850714D02*
X121625714Y-118517380D01*
X122054285Y-117850714D02*
X122054285Y-118517380D01*
X122387619Y-117850714D02*
X122863809Y-117850714D01*
X122625714Y-117850714D02*
X122625714Y-118517380D01*
X123197142Y-117850714D02*
X123197142Y-118517380D01*
X123673333Y-117850714D01*
X123673333Y-118517380D01*
X124006666Y-117850714D02*
X124482857Y-117850714D01*
X124244761Y-117850714D02*
X124244761Y-118517380D01*
X125197142Y-118469761D02*
X125101904Y-118517380D01*
X124911428Y-118517380D01*
X124816190Y-118469761D01*
X124768571Y-118374523D01*
X124768571Y-117993571D01*
X124816190Y-117898333D01*
X124911428Y-117850714D01*
X125101904Y-117850714D01*
X125197142Y-117898333D01*
X125244761Y-117993571D01*
X125244761Y-118088809D01*
X124768571Y-118184047D01*
X106935238Y-119460714D02*
X106935238Y-120127380D01*
X107411428Y-119460714D01*
X107411428Y-120127380D01*
X108792380Y-120127380D02*
X108697142Y-120079761D01*
X108649523Y-120032142D01*
X108601904Y-119936904D01*
X108601904Y-119651190D01*
X108649523Y-119555952D01*
X108697142Y-119508333D01*
X108792380Y-119460714D01*
X108935238Y-119460714D01*
X109030476Y-119508333D01*
X109078095Y-119555952D01*
X109125714Y-119651190D01*
X109125714Y-119936904D01*
X109078095Y-120032142D01*
X109030476Y-120079761D01*
X108935238Y-120127380D01*
X108792380Y-120127380D01*
X109982857Y-120079761D02*
X109887619Y-120127380D01*
X109697142Y-120127380D01*
X109601904Y-120079761D01*
X109554285Y-120032142D01*
X109506666Y-119936904D01*
X109506666Y-119651190D01*
X109554285Y-119555952D01*
X109601904Y-119508333D01*
X109697142Y-119460714D01*
X109887619Y-119460714D01*
X109982857Y-119508333D01*
X110268571Y-119460714D02*
X110744761Y-119460714D01*
X110506666Y-119460714D02*
X110506666Y-120127380D01*
X111506666Y-120127380D02*
X111506666Y-119603571D01*
X111459047Y-119508333D01*
X111363809Y-119460714D01*
X111173333Y-119460714D01*
X111078095Y-119508333D01*
X111506666Y-120079761D02*
X111411428Y-120127380D01*
X111173333Y-120127380D01*
X111078095Y-120079761D01*
X111030476Y-119984523D01*
X111030476Y-119889285D01*
X111078095Y-119794047D01*
X111173333Y-119746428D01*
X111411428Y-119746428D01*
X111506666Y-119698809D01*
X112220952Y-119794047D02*
X112363809Y-119841666D01*
X112411428Y-119936904D01*
X112411428Y-119984523D01*
X112363809Y-120079761D01*
X112268571Y-120127380D01*
X111982857Y-120127380D01*
X111982857Y-119460714D01*
X112220952Y-119460714D01*
X112316190Y-119508333D01*
X112363809Y-119603571D01*
X112363809Y-119651190D01*
X112316190Y-119746428D01*
X112220952Y-119794047D01*
X111982857Y-119794047D01*
X113030476Y-119841666D02*
X112792380Y-120127380D01*
X113220952Y-120127380D02*
X113220952Y-119460714D01*
X112935238Y-119460714D01*
X112840000Y-119508333D01*
X112792380Y-119603571D01*
X112792380Y-119698809D01*
X112840000Y-119794047D01*
X112935238Y-119841666D01*
X113220952Y-119841666D01*
X113554285Y-119460714D02*
X114030476Y-119460714D01*
X113792380Y-119460714D02*
X113792380Y-120127380D01*
X114744761Y-120079761D02*
X114649523Y-120127380D01*
X114459047Y-120127380D01*
X114363809Y-120079761D01*
X114316190Y-119984523D01*
X114316190Y-119603571D01*
X114363809Y-119508333D01*
X114459047Y-119460714D01*
X114649523Y-119460714D01*
X114744761Y-119508333D01*
X114792380Y-119603571D01*
X114792380Y-119698809D01*
X114316190Y-119794047D01*
X116220952Y-119794047D02*
X116363809Y-119841666D01*
X116411428Y-119936904D01*
X116411428Y-119984523D01*
X116363809Y-120079761D01*
X116268571Y-120127380D01*
X115982857Y-120127380D01*
X115982857Y-119460714D01*
X116220952Y-119460714D01*
X116316190Y-119508333D01*
X116363809Y-119603571D01*
X116363809Y-119651190D01*
X116316190Y-119746428D01*
X116220952Y-119794047D01*
X115982857Y-119794047D01*
X117506666Y-120127380D02*
X118030476Y-119460714D01*
X117506666Y-119460714D02*
X118030476Y-120127380D01*
X118792380Y-120127380D02*
X118792380Y-119460714D01*
X118649523Y-119460714D01*
X118554285Y-119508333D01*
X118506666Y-119603571D01*
X118459047Y-119984523D01*
X118411428Y-120079761D01*
X118316190Y-120127380D01*
X119697142Y-120127380D02*
X119697142Y-119603571D01*
X119649523Y-119508333D01*
X119554285Y-119460714D01*
X119363809Y-119460714D01*
X119268571Y-119508333D01*
X119697142Y-120079761D02*
X119601904Y-120127380D01*
X119363809Y-120127380D01*
X119268571Y-120079761D01*
X119220952Y-119984523D01*
X119220952Y-119889285D01*
X119268571Y-119794047D01*
X119363809Y-119746428D01*
X119601904Y-119746428D01*
X119697142Y-119698809D01*
X120649523Y-119555952D02*
X120601904Y-119508333D01*
X120506666Y-119460714D01*
X120316190Y-119460714D01*
X120220952Y-119508333D01*
X120173333Y-119555952D01*
X120125714Y-119651190D01*
X120125714Y-119936904D01*
X120173333Y-120032142D01*
X120220952Y-120079761D01*
X120316190Y-120127380D01*
X120459047Y-120127380D01*
X120554285Y-120079761D01*
X120601904Y-120032142D01*
X120649523Y-119936904D01*
X120649523Y-119317857D01*
X120601904Y-119222619D01*
X120554285Y-119175000D01*
X120459047Y-119127380D01*
X120268571Y-119127380D01*
X120173333Y-119175000D01*
X121078095Y-119460714D02*
X121078095Y-120127380D01*
X121554285Y-119460714D01*
X121554285Y-120127380D01*
X122411428Y-120127380D02*
X122411428Y-119460714D01*
X122268571Y-119460714D01*
X122173333Y-119508333D01*
X122125714Y-119603571D01*
X122078095Y-119984523D01*
X122030476Y-120079761D01*
X121935238Y-120127380D01*
X122887619Y-119794047D02*
X123316190Y-119794047D01*
X122887619Y-119460714D02*
X122887619Y-120127380D01*
X123316190Y-119460714D02*
X123316190Y-120127380D01*
X123792380Y-119460714D02*
X123792380Y-120127380D01*
X124268571Y-119460714D01*
X124268571Y-120127380D01*
X124744761Y-119460714D02*
X124744761Y-120127380D01*
X124839999Y-119746428D02*
X125125714Y-120127380D01*
X125125714Y-119460714D02*
X124744761Y-119841666D01*
X125982857Y-120127380D02*
X125982857Y-119603571D01*
X125935238Y-119508333D01*
X125839999Y-119460714D01*
X125649523Y-119460714D01*
X125554285Y-119508333D01*
X125982857Y-120079761D02*
X125887619Y-120127380D01*
X125649523Y-120127380D01*
X125554285Y-120079761D01*
X125506666Y-119984523D01*
X125506666Y-119889285D01*
X125554285Y-119794047D01*
X125649523Y-119746428D01*
X125887619Y-119746428D01*
X125982857Y-119698809D01*
X109649523Y-121404047D02*
X109744761Y-121404047D01*
X109459047Y-121118333D02*
X109554285Y-121070714D01*
X109744761Y-121070714D01*
X109840000Y-121118333D01*
X109887619Y-121213571D01*
X109887619Y-121261190D01*
X109840000Y-121356428D01*
X109744761Y-121404047D01*
X109840000Y-121451666D01*
X109887619Y-121546904D01*
X109887619Y-121594523D01*
X109840000Y-121689761D01*
X109744761Y-121737380D01*
X109554285Y-121737380D01*
X109459047Y-121689761D01*
X110744761Y-121737380D02*
X110744761Y-121213571D01*
X110697142Y-121118333D01*
X110601904Y-121070714D01*
X110411428Y-121070714D01*
X110316190Y-121118333D01*
X110744761Y-121689761D02*
X110649523Y-121737380D01*
X110411428Y-121737380D01*
X110316190Y-121689761D01*
X110268571Y-121594523D01*
X110268571Y-121499285D01*
X110316190Y-121404047D01*
X110411428Y-121356428D01*
X110649523Y-121356428D01*
X110744761Y-121308809D01*
X112125714Y-121737380D02*
X112030476Y-121689761D01*
X111982857Y-121642142D01*
X111935238Y-121546904D01*
X111935238Y-121261190D01*
X111982857Y-121165952D01*
X112030476Y-121118333D01*
X112125714Y-121070714D01*
X112268571Y-121070714D01*
X112363809Y-121118333D01*
X112411428Y-121165952D01*
X112459047Y-121261190D01*
X112459047Y-121546904D01*
X112411428Y-121642142D01*
X112363809Y-121689761D01*
X112268571Y-121737380D01*
X112125714Y-121737380D01*
X112887619Y-121070714D02*
X112887619Y-121737380D01*
X112982857Y-121356428D02*
X113268571Y-121737380D01*
X113268571Y-121070714D02*
X112887619Y-121451666D01*
X113840000Y-121737380D02*
X113744761Y-121689761D01*
X113697142Y-121642142D01*
X113649523Y-121546904D01*
X113649523Y-121261190D01*
X113697142Y-121165952D01*
X113744761Y-121118333D01*
X113840000Y-121070714D01*
X113982857Y-121070714D01*
X114078095Y-121118333D01*
X114125714Y-121165952D01*
X114173333Y-121261190D01*
X114173333Y-121546904D01*
X114125714Y-121642142D01*
X114078095Y-121689761D01*
X113982857Y-121737380D01*
X113840000Y-121737380D01*
X114982857Y-121737380D02*
X114982857Y-121070714D01*
X114840000Y-121070714D01*
X114744761Y-121118333D01*
X114697142Y-121213571D01*
X114649523Y-121594523D01*
X114601904Y-121689761D01*
X114506666Y-121737380D01*
X115601904Y-121737380D02*
X115506666Y-121689761D01*
X115459047Y-121642142D01*
X115411428Y-121546904D01*
X115411428Y-121261190D01*
X115459047Y-121165952D01*
X115506666Y-121118333D01*
X115601904Y-121070714D01*
X115744761Y-121070714D01*
X115840000Y-121118333D01*
X115887619Y-121165952D01*
X115935238Y-121261190D01*
X115935238Y-121546904D01*
X115887619Y-121642142D01*
X115840000Y-121689761D01*
X115744761Y-121737380D01*
X115601904Y-121737380D01*
X117601904Y-120737380D02*
X117125714Y-120737380D01*
X117078095Y-121213571D01*
X117125714Y-121165952D01*
X117220952Y-121118333D01*
X117459047Y-121118333D01*
X117554285Y-121165952D01*
X117601904Y-121213571D01*
X117649523Y-121308809D01*
X117649523Y-121546904D01*
X117601904Y-121642142D01*
X117554285Y-121689761D01*
X117459047Y-121737380D01*
X117220952Y-121737380D01*
X117125714Y-121689761D01*
X117078095Y-121642142D01*
X118840000Y-121737380D02*
X118840000Y-121070714D01*
X119125714Y-121594523D01*
X119411428Y-121070714D01*
X119411428Y-121737380D01*
X119887619Y-121070714D02*
X119887619Y-121737380D01*
X120363809Y-121070714D01*
X120363809Y-121737380D01*
X120840000Y-121404047D02*
X121268571Y-121404047D01*
X120840000Y-121070714D02*
X120840000Y-121737380D01*
X121268571Y-121070714D02*
X121268571Y-121737380D01*
X121649523Y-121070714D02*
X121887619Y-121737380D01*
X122125714Y-121070714D02*
X121887619Y-121737380D01*
X121792380Y-121975476D01*
X121744761Y-122023095D01*
X121649523Y-122070714D01*
X122363809Y-121070714D02*
X122840000Y-121070714D01*
X122601904Y-121070714D02*
X122601904Y-121737380D01*
X123173333Y-121070714D02*
X123173333Y-121737380D01*
X123649523Y-121070714D01*
X123649523Y-121737380D01*
X124125714Y-121642142D02*
X124173333Y-121689761D01*
X124125714Y-121737380D01*
X124078095Y-121689761D01*
X124125714Y-121642142D01*
X124125714Y-121737380D01*
X107125714Y-124957380D02*
X107125714Y-123957380D01*
X107125714Y-124433571D02*
X107697142Y-124433571D01*
X107697142Y-124957380D02*
X107697142Y-123957380D01*
X108601904Y-124957380D02*
X108601904Y-124433571D01*
X108554285Y-124338333D01*
X108459047Y-124290714D01*
X108268571Y-124290714D01*
X108173333Y-124338333D01*
X108601904Y-124909761D02*
X108506666Y-124957380D01*
X108268571Y-124957380D01*
X108173333Y-124909761D01*
X108125714Y-124814523D01*
X108125714Y-124719285D01*
X108173333Y-124624047D01*
X108268571Y-124576428D01*
X108506666Y-124576428D01*
X108601904Y-124528809D01*
X109506666Y-124909761D02*
X109411428Y-124957380D01*
X109220952Y-124957380D01*
X109125714Y-124909761D01*
X109078095Y-124862142D01*
X109030476Y-124766904D01*
X109030476Y-124481190D01*
X109078095Y-124385952D01*
X109125714Y-124338333D01*
X109220952Y-124290714D01*
X109411428Y-124290714D01*
X109506666Y-124338333D01*
X110316190Y-124957380D02*
X110316190Y-124290714D01*
X110173333Y-124290714D01*
X110078095Y-124338333D01*
X110030476Y-124433571D01*
X109982857Y-124814523D01*
X109935238Y-124909761D01*
X109840000Y-124957380D01*
X111220952Y-124957380D02*
X111220952Y-124433571D01*
X111173333Y-124338333D01*
X111078095Y-124290714D01*
X110887619Y-124290714D01*
X110792380Y-124338333D01*
X111220952Y-124909761D02*
X111125714Y-124957380D01*
X110887619Y-124957380D01*
X110792380Y-124909761D01*
X110744761Y-124814523D01*
X110744761Y-124719285D01*
X110792380Y-124624047D01*
X110887619Y-124576428D01*
X111125714Y-124576428D01*
X111220952Y-124528809D01*
X112173333Y-124385952D02*
X112125714Y-124338333D01*
X112030476Y-124290714D01*
X111840000Y-124290714D01*
X111744761Y-124338333D01*
X111697142Y-124385952D01*
X111649523Y-124481190D01*
X111649523Y-124766904D01*
X111697142Y-124862142D01*
X111744761Y-124909761D01*
X111840000Y-124957380D01*
X111982857Y-124957380D01*
X112078095Y-124909761D01*
X112125714Y-124862142D01*
X112173333Y-124766904D01*
X112173333Y-124147857D01*
X112125714Y-124052619D01*
X112078095Y-124005000D01*
X111982857Y-123957380D01*
X111792380Y-123957380D01*
X111697142Y-124005000D01*
X112982857Y-124909761D02*
X112887619Y-124957380D01*
X112697142Y-124957380D01*
X112601904Y-124909761D01*
X112554285Y-124814523D01*
X112554285Y-124433571D01*
X112601904Y-124338333D01*
X112697142Y-124290714D01*
X112887619Y-124290714D01*
X112982857Y-124338333D01*
X113030476Y-124433571D01*
X113030476Y-124528809D01*
X112554285Y-124624047D01*
X113316190Y-124290714D02*
X113792380Y-124290714D01*
X113554285Y-124290714D02*
X113554285Y-124957380D01*
X114506666Y-124909761D02*
X114411428Y-124957380D01*
X114220952Y-124957380D01*
X114125714Y-124909761D01*
X114078095Y-124814523D01*
X114078095Y-124433571D01*
X114125714Y-124338333D01*
X114220952Y-124290714D01*
X114411428Y-124290714D01*
X114506666Y-124338333D01*
X114554285Y-124433571D01*
X114554285Y-124528809D01*
X114078095Y-124624047D01*
X116173333Y-124909761D02*
X116078095Y-124957380D01*
X115887619Y-124957380D01*
X115792380Y-124909761D01*
X115744761Y-124862142D01*
X115697142Y-124766904D01*
X115697142Y-124481190D01*
X115744761Y-124385952D01*
X115792380Y-124338333D01*
X115887619Y-124290714D01*
X116078095Y-124290714D01*
X116173333Y-124338333D01*
X116982857Y-124909761D02*
X116887619Y-124957380D01*
X116697142Y-124957380D01*
X116601904Y-124909761D01*
X116554285Y-124814523D01*
X116554285Y-124433571D01*
X116601904Y-124338333D01*
X116697142Y-124290714D01*
X116887619Y-124290714D01*
X116982857Y-124338333D01*
X117030476Y-124433571D01*
X117030476Y-124528809D01*
X116554285Y-124624047D01*
X118220952Y-124624047D02*
X118649523Y-124624047D01*
X118220952Y-124290714D02*
X118220952Y-124957380D01*
X118649523Y-124290714D02*
X118649523Y-124957380D01*
X119554285Y-124957380D02*
X119554285Y-124433571D01*
X119506666Y-124338333D01*
X119411428Y-124290714D01*
X119220952Y-124290714D01*
X119125714Y-124338333D01*
X119554285Y-124909761D02*
X119459047Y-124957380D01*
X119220952Y-124957380D01*
X119125714Y-124909761D01*
X119078095Y-124814523D01*
X119078095Y-124719285D01*
X119125714Y-124624047D01*
X119220952Y-124576428D01*
X119459047Y-124576428D01*
X119554285Y-124528809D01*
X121125714Y-124433571D02*
X121268571Y-124481190D01*
X121316190Y-124528809D01*
X121363809Y-124624047D01*
X121363809Y-124766904D01*
X121316190Y-124862142D01*
X121268571Y-124909761D01*
X121173333Y-124957380D01*
X120792380Y-124957380D01*
X120792380Y-123957380D01*
X121125714Y-123957380D01*
X121220952Y-124005000D01*
X121268571Y-124052619D01*
X121316190Y-124147857D01*
X121316190Y-124243095D01*
X121268571Y-124338333D01*
X121220952Y-124385952D01*
X121125714Y-124433571D01*
X120792380Y-124433571D01*
X122220952Y-124957380D02*
X122220952Y-124433571D01*
X122173333Y-124338333D01*
X122078095Y-124290714D01*
X121887619Y-124290714D01*
X121792380Y-124338333D01*
X122220952Y-124909761D02*
X122125714Y-124957380D01*
X121887619Y-124957380D01*
X121792380Y-124909761D01*
X121744761Y-124814523D01*
X121744761Y-124719285D01*
X121792380Y-124624047D01*
X121887619Y-124576428D01*
X122125714Y-124576428D01*
X122220952Y-124528809D01*
X123030476Y-124290714D02*
X123030476Y-124957380D01*
X122697142Y-124290714D02*
X122697142Y-124957380D01*
X123363809Y-124957380D01*
X123363809Y-124290714D01*
X124220952Y-124909761D02*
X124125714Y-124957380D01*
X123935238Y-124957380D01*
X123840000Y-124909761D01*
X123792380Y-124814523D01*
X123792380Y-124433571D01*
X123840000Y-124338333D01*
X123935238Y-124290714D01*
X124125714Y-124290714D01*
X124220952Y-124338333D01*
X124268571Y-124433571D01*
X124268571Y-124528809D01*
X123792380Y-124624047D01*
X124554285Y-124290714D02*
X125030476Y-124290714D01*
X124792380Y-124290714D02*
X124792380Y-124957380D01*
X125506666Y-124957380D02*
X125411428Y-124909761D01*
X125363809Y-124862142D01*
X125316190Y-124766904D01*
X125316190Y-124481190D01*
X125363809Y-124385952D01*
X125411428Y-124338333D01*
X125506666Y-124290714D01*
X125649523Y-124290714D01*
X125744761Y-124338333D01*
X125792380Y-124385952D01*
X125840000Y-124481190D01*
X125840000Y-124766904D01*
X125792380Y-124862142D01*
X125744761Y-124909761D01*
X125649523Y-124957380D01*
X125506666Y-124957380D01*
X115387619Y-126567380D02*
X115054285Y-126091190D01*
X114816190Y-126567380D02*
X114816190Y-125567380D01*
X115197142Y-125567380D01*
X115292380Y-125615000D01*
X115340000Y-125662619D01*
X115387619Y-125757857D01*
X115387619Y-125900714D01*
X115340000Y-125995952D01*
X115292380Y-126043571D01*
X115197142Y-126091190D01*
X114816190Y-126091190D01*
X117101904Y-125615000D02*
X117006666Y-125567380D01*
X116863809Y-125567380D01*
X116720952Y-125615000D01*
X116625714Y-125710238D01*
X116578095Y-125805476D01*
X116530476Y-125995952D01*
X116530476Y-126138809D01*
X116578095Y-126329285D01*
X116625714Y-126424523D01*
X116720952Y-126519761D01*
X116863809Y-126567380D01*
X116959047Y-126567380D01*
X117101904Y-126519761D01*
X117149523Y-126472142D01*
X117149523Y-126138809D01*
X116959047Y-126138809D01*
X118673333Y-126043571D02*
X118816190Y-126091190D01*
X118863809Y-126138809D01*
X118911428Y-126234047D01*
X118911428Y-126376904D01*
X118863809Y-126472142D01*
X118816190Y-126519761D01*
X118720952Y-126567380D01*
X118340000Y-126567380D01*
X118340000Y-125567380D01*
X118673333Y-125567380D01*
X118768571Y-125615000D01*
X118816190Y-125662619D01*
X118863809Y-125757857D01*
X118863809Y-125853095D01*
X118816190Y-125948333D01*
X118768571Y-125995952D01*
X118673333Y-126043571D01*
X118340000Y-126043571D01*
X121110952Y-100417380D02*
X121110952Y-101131666D01*
X121063333Y-101274523D01*
X120968095Y-101369761D01*
X120825238Y-101417380D01*
X120730000Y-101417380D01*
X122063333Y-101417380D02*
X121587142Y-101417380D01*
X121587142Y-100417380D01*
X122968095Y-101322142D02*
X122920476Y-101369761D01*
X122777619Y-101417380D01*
X122682380Y-101417380D01*
X122539523Y-101369761D01*
X122444285Y-101274523D01*
X122396666Y-101179285D01*
X122349047Y-100988809D01*
X122349047Y-100845952D01*
X122396666Y-100655476D01*
X122444285Y-100560238D01*
X122539523Y-100465000D01*
X122682380Y-100417380D01*
X122777619Y-100417380D01*
X122920476Y-100465000D01*
X122968095Y-100512619D01*
X123682380Y-100417380D02*
X123682380Y-101131666D01*
X123634761Y-101274523D01*
X123539523Y-101369761D01*
X123396666Y-101417380D01*
X123301428Y-101417380D01*
X124634761Y-101417380D02*
X124158571Y-101417380D01*
X124158571Y-100417380D01*
X125539523Y-101322142D02*
X125491904Y-101369761D01*
X125349047Y-101417380D01*
X125253809Y-101417380D01*
X125110952Y-101369761D01*
X125015714Y-101274523D01*
X124968095Y-101179285D01*
X124920476Y-100988809D01*
X124920476Y-100845952D01*
X124968095Y-100655476D01*
X125015714Y-100560238D01*
X125110952Y-100465000D01*
X125253809Y-100417380D01*
X125349047Y-100417380D01*
X125491904Y-100465000D01*
X125539523Y-100512619D01*
X126253809Y-100417380D02*
X126253809Y-101131666D01*
X126206190Y-101274523D01*
X126110952Y-101369761D01*
X125968095Y-101417380D01*
X125872857Y-101417380D01*
X127206190Y-101417380D02*
X126730000Y-101417380D01*
X126730000Y-100417380D01*
X128110952Y-101322142D02*
X128063333Y-101369761D01*
X127920476Y-101417380D01*
X127825238Y-101417380D01*
X127682380Y-101369761D01*
X127587142Y-101274523D01*
X127539523Y-101179285D01*
X127491904Y-100988809D01*
X127491904Y-100845952D01*
X127539523Y-100655476D01*
X127587142Y-100560238D01*
X127682380Y-100465000D01*
X127825238Y-100417380D01*
X127920476Y-100417380D01*
X128063333Y-100465000D01*
X128110952Y-100512619D01*
X128825238Y-100417380D02*
X128825238Y-101131666D01*
X128777619Y-101274523D01*
X128682380Y-101369761D01*
X128539523Y-101417380D01*
X128444285Y-101417380D01*
X129777619Y-101417380D02*
X129301428Y-101417380D01*
X129301428Y-100417380D01*
X130682380Y-101322142D02*
X130634761Y-101369761D01*
X130491904Y-101417380D01*
X130396666Y-101417380D01*
X130253809Y-101369761D01*
X130158571Y-101274523D01*
X130110952Y-101179285D01*
X130063333Y-100988809D01*
X130063333Y-100845952D01*
X130110952Y-100655476D01*
X130158571Y-100560238D01*
X130253809Y-100465000D01*
X130396666Y-100417380D01*
X130491904Y-100417380D01*
X130634761Y-100465000D01*
X130682380Y-100512619D01*
D11*
X94488000Y-153543000D02*
G75*
G03*
X94488000Y-153543000I-1270000J0D01*
G01*
X95885000Y-93345000D02*
G75*
G03*
X95885000Y-93345000I-1270000J0D01*
G01*
X142240000Y-153543000D02*
G75*
G03*
X142240000Y-153543000I-1270000J0D01*
G01*
X141986000Y-93980000D02*
X141986000Y-113284000D01*
X142621000Y-113919000D01*
X142621000Y-155194000D01*
X91440000Y-155194000D01*
X91440000Y-117475000D01*
X90805000Y-116840000D01*
X90805000Y-93980000D01*
X94615000Y-90170000D01*
X138176000Y-90170000D01*
X141986000Y-93980000D01*
D10*
X92003619Y-137302952D02*
X92003619Y-136731523D01*
X92003619Y-137017238D02*
X93003619Y-137017238D01*
X92860761Y-136922000D01*
X92765523Y-136826761D01*
X92717904Y-136731523D01*
X92908380Y-137683904D02*
X92956000Y-137731523D01*
X93003619Y-137826761D01*
X93003619Y-138064857D01*
X92956000Y-138160095D01*
X92908380Y-138207714D01*
X92813142Y-138255333D01*
X92717904Y-138255333D01*
X92575047Y-138207714D01*
X92003619Y-137636285D01*
X92003619Y-138255333D01*
X93003619Y-138541047D02*
X92003619Y-138874380D01*
X93003619Y-139207714D01*
X142311380Y-125833095D02*
X141311380Y-125833095D01*
X141311380Y-125595000D01*
X141359000Y-125452142D01*
X141454238Y-125356904D01*
X141549476Y-125309285D01*
X141739952Y-125261666D01*
X141882809Y-125261666D01*
X142073285Y-125309285D01*
X142168523Y-125356904D01*
X142263761Y-125452142D01*
X142311380Y-125595000D01*
X142311380Y-125833095D01*
X141406619Y-124880714D02*
X141359000Y-124833095D01*
X141311380Y-124737857D01*
X141311380Y-124499761D01*
X141359000Y-124404523D01*
X141406619Y-124356904D01*
X141501857Y-124309285D01*
X141597095Y-124309285D01*
X141739952Y-124356904D01*
X142311380Y-124928333D01*
X142311380Y-124309285D01*
X92956000Y-147828095D02*
X93003619Y-147732857D01*
X93003619Y-147590000D01*
X92956000Y-147447142D01*
X92860761Y-147351904D01*
X92765523Y-147304285D01*
X92575047Y-147256666D01*
X92432190Y-147256666D01*
X92241714Y-147304285D01*
X92146476Y-147351904D01*
X92051238Y-147447142D01*
X92003619Y-147590000D01*
X92003619Y-147685238D01*
X92051238Y-147828095D01*
X92098857Y-147875714D01*
X92432190Y-147875714D01*
X92432190Y-147685238D01*
X92003619Y-148304285D02*
X93003619Y-148304285D01*
X92003619Y-148875714D01*
X93003619Y-148875714D01*
X92003619Y-149351904D02*
X93003619Y-149351904D01*
X93003619Y-149590000D01*
X92956000Y-149732857D01*
X92860761Y-149828095D01*
X92765523Y-149875714D01*
X92575047Y-149923333D01*
X92432190Y-149923333D01*
X92241714Y-149875714D01*
X92146476Y-149828095D01*
X92051238Y-149732857D01*
X92003619Y-149590000D01*
X92003619Y-149351904D01*
X92003619Y-124610904D02*
X93003619Y-124610904D01*
X93003619Y-124849000D01*
X92956000Y-124991857D01*
X92860761Y-125087095D01*
X92765523Y-125134714D01*
X92575047Y-125182333D01*
X92432190Y-125182333D01*
X92241714Y-125134714D01*
X92146476Y-125087095D01*
X92051238Y-124991857D01*
X92003619Y-124849000D01*
X92003619Y-124610904D01*
X92003619Y-126134714D02*
X92003619Y-125563285D01*
X92003619Y-125849000D02*
X93003619Y-125849000D01*
X92860761Y-125753761D01*
X92765523Y-125658523D01*
X92717904Y-125563285D01*
X92003619Y-121046952D02*
X92003619Y-120475523D01*
X92003619Y-120761238D02*
X93003619Y-120761238D01*
X92860761Y-120666000D01*
X92765523Y-120570761D01*
X92717904Y-120475523D01*
X92908380Y-121427904D02*
X92956000Y-121475523D01*
X93003619Y-121570761D01*
X93003619Y-121808857D01*
X92956000Y-121904095D01*
X92908380Y-121951714D01*
X92813142Y-121999333D01*
X92717904Y-121999333D01*
X92575047Y-121951714D01*
X92003619Y-121380285D01*
X92003619Y-121999333D01*
X93003619Y-122285047D02*
X92003619Y-122618380D01*
X93003619Y-122951714D01*
X92003619Y-140739904D02*
X93003619Y-140739904D01*
X93003619Y-140978000D01*
X92956000Y-141120857D01*
X92860761Y-141216095D01*
X92765523Y-141263714D01*
X92575047Y-141311333D01*
X92432190Y-141311333D01*
X92241714Y-141263714D01*
X92146476Y-141216095D01*
X92051238Y-141120857D01*
X92003619Y-140978000D01*
X92003619Y-140739904D01*
X92003619Y-142263714D02*
X92003619Y-141692285D01*
X92003619Y-141978000D02*
X93003619Y-141978000D01*
X92860761Y-141882761D01*
X92765523Y-141787523D01*
X92717904Y-141692285D01*
X130428904Y-91432000D02*
X130524142Y-91479619D01*
X130667000Y-91479619D01*
X130809857Y-91432000D01*
X130905095Y-91336761D01*
X130952714Y-91241523D01*
X131000333Y-91051047D01*
X131000333Y-90908190D01*
X130952714Y-90717714D01*
X130905095Y-90622476D01*
X130809857Y-90527238D01*
X130667000Y-90479619D01*
X130571761Y-90479619D01*
X130428904Y-90527238D01*
X130381285Y-90574857D01*
X130381285Y-90908190D01*
X130571761Y-90908190D01*
X129952714Y-90479619D02*
X129952714Y-91479619D01*
X129381285Y-90479619D01*
X129381285Y-91479619D01*
X128905095Y-90479619D02*
X128905095Y-91479619D01*
X128667000Y-91479619D01*
X128524142Y-91432000D01*
X128428904Y-91336761D01*
X128381285Y-91241523D01*
X128333666Y-91051047D01*
X128333666Y-90908190D01*
X128381285Y-90717714D01*
X128428904Y-90622476D01*
X128524142Y-90527238D01*
X128667000Y-90479619D01*
X128905095Y-90479619D01*
X142311380Y-149590047D02*
X142311380Y-150161476D01*
X142311380Y-149875761D02*
X141311380Y-149875761D01*
X141454238Y-149971000D01*
X141549476Y-150066238D01*
X141597095Y-150161476D01*
X141406619Y-149209095D02*
X141359000Y-149161476D01*
X141311380Y-149066238D01*
X141311380Y-148828142D01*
X141359000Y-148732904D01*
X141406619Y-148685285D01*
X141501857Y-148637666D01*
X141597095Y-148637666D01*
X141739952Y-148685285D01*
X142311380Y-149256714D01*
X142311380Y-148637666D01*
X141311380Y-148351952D02*
X142311380Y-148018619D01*
X141311380Y-147685285D01*
X141359000Y-122300904D02*
X141311380Y-122396142D01*
X141311380Y-122539000D01*
X141359000Y-122681857D01*
X141454238Y-122777095D01*
X141549476Y-122824714D01*
X141739952Y-122872333D01*
X141882809Y-122872333D01*
X142073285Y-122824714D01*
X142168523Y-122777095D01*
X142263761Y-122681857D01*
X142311380Y-122539000D01*
X142311380Y-122443761D01*
X142263761Y-122300904D01*
X142216142Y-122253285D01*
X141882809Y-122253285D01*
X141882809Y-122443761D01*
X142311380Y-121824714D02*
X141311380Y-121824714D01*
X142311380Y-121253285D01*
X141311380Y-121253285D01*
X142311380Y-120777095D02*
X141311380Y-120777095D01*
X141311380Y-120539000D01*
X141359000Y-120396142D01*
X141454238Y-120300904D01*
X141549476Y-120253285D01*
X141739952Y-120205666D01*
X141882809Y-120205666D01*
X142073285Y-120253285D01*
X142168523Y-120300904D01*
X142263761Y-120396142D01*
X142311380Y-120539000D01*
X142311380Y-120777095D01*
X92003619Y-144295904D02*
X93003619Y-144295904D01*
X93003619Y-144534000D01*
X92956000Y-144676857D01*
X92860761Y-144772095D01*
X92765523Y-144819714D01*
X92575047Y-144867333D01*
X92432190Y-144867333D01*
X92241714Y-144819714D01*
X92146476Y-144772095D01*
X92051238Y-144676857D01*
X92003619Y-144534000D01*
X92003619Y-144295904D01*
X92908380Y-145248285D02*
X92956000Y-145295904D01*
X93003619Y-145391142D01*
X93003619Y-145629238D01*
X92956000Y-145724476D01*
X92908380Y-145772095D01*
X92813142Y-145819714D01*
X92717904Y-145819714D01*
X92575047Y-145772095D01*
X92003619Y-145200666D01*
X92003619Y-145819714D01*
X141359000Y-139064904D02*
X141311380Y-139160142D01*
X141311380Y-139303000D01*
X141359000Y-139445857D01*
X141454238Y-139541095D01*
X141549476Y-139588714D01*
X141739952Y-139636333D01*
X141882809Y-139636333D01*
X142073285Y-139588714D01*
X142168523Y-139541095D01*
X142263761Y-139445857D01*
X142311380Y-139303000D01*
X142311380Y-139207761D01*
X142263761Y-139064904D01*
X142216142Y-139017285D01*
X141882809Y-139017285D01*
X141882809Y-139207761D01*
X142311380Y-138588714D02*
X141311380Y-138588714D01*
X142311380Y-138017285D01*
X141311380Y-138017285D01*
X142311380Y-137541095D02*
X141311380Y-137541095D01*
X141311380Y-137303000D01*
X141359000Y-137160142D01*
X141454238Y-137064904D01*
X141549476Y-137017285D01*
X141739952Y-136969666D01*
X141882809Y-136969666D01*
X142073285Y-137017285D01*
X142168523Y-137064904D01*
X142263761Y-137160142D01*
X142311380Y-137303000D01*
X142311380Y-137541095D01*
X92956000Y-131572095D02*
X93003619Y-131476857D01*
X93003619Y-131334000D01*
X92956000Y-131191142D01*
X92860761Y-131095904D01*
X92765523Y-131048285D01*
X92575047Y-131000666D01*
X92432190Y-131000666D01*
X92241714Y-131048285D01*
X92146476Y-131095904D01*
X92051238Y-131191142D01*
X92003619Y-131334000D01*
X92003619Y-131429238D01*
X92051238Y-131572095D01*
X92098857Y-131619714D01*
X92432190Y-131619714D01*
X92432190Y-131429238D01*
X92003619Y-132048285D02*
X93003619Y-132048285D01*
X92003619Y-132619714D01*
X93003619Y-132619714D01*
X92003619Y-133095904D02*
X93003619Y-133095904D01*
X93003619Y-133334000D01*
X92956000Y-133476857D01*
X92860761Y-133572095D01*
X92765523Y-133619714D01*
X92575047Y-133667333D01*
X92432190Y-133667333D01*
X92241714Y-133619714D01*
X92146476Y-133572095D01*
X92051238Y-133476857D01*
X92003619Y-133334000D01*
X92003619Y-133095904D01*
X142311380Y-129389095D02*
X141311380Y-129389095D01*
X141311380Y-129151000D01*
X141359000Y-129008142D01*
X141454238Y-128912904D01*
X141549476Y-128865285D01*
X141739952Y-128817666D01*
X141882809Y-128817666D01*
X142073285Y-128865285D01*
X142168523Y-128912904D01*
X142263761Y-129008142D01*
X142311380Y-129151000D01*
X142311380Y-129389095D01*
X142311380Y-127865285D02*
X142311380Y-128436714D01*
X142311380Y-128151000D02*
X141311380Y-128151000D01*
X141454238Y-128246238D01*
X141549476Y-128341476D01*
X141597095Y-128436714D01*
X142184380Y-146153095D02*
X141184380Y-146153095D01*
X141184380Y-145915000D01*
X141232000Y-145772142D01*
X141327238Y-145676904D01*
X141422476Y-145629285D01*
X141612952Y-145581666D01*
X141755809Y-145581666D01*
X141946285Y-145629285D01*
X142041523Y-145676904D01*
X142136761Y-145772142D01*
X142184380Y-145915000D01*
X142184380Y-146153095D01*
X142184380Y-144629285D02*
X142184380Y-145200714D01*
X142184380Y-144915000D02*
X141184380Y-144915000D01*
X141327238Y-145010238D01*
X141422476Y-145105476D01*
X141470095Y-145200714D01*
X125206047Y-90479619D02*
X125777476Y-90479619D01*
X125491761Y-90479619D02*
X125491761Y-91479619D01*
X125587000Y-91336761D01*
X125682238Y-91241523D01*
X125777476Y-91193904D01*
X124825095Y-91384380D02*
X124777476Y-91432000D01*
X124682238Y-91479619D01*
X124444142Y-91479619D01*
X124348904Y-91432000D01*
X124301285Y-91384380D01*
X124253666Y-91289142D01*
X124253666Y-91193904D01*
X124301285Y-91051047D01*
X124872714Y-90479619D01*
X124253666Y-90479619D01*
X123967952Y-91479619D02*
X123634619Y-90479619D01*
X123301285Y-91479619D01*
X92003619Y-128166904D02*
X93003619Y-128166904D01*
X93003619Y-128405000D01*
X92956000Y-128547857D01*
X92860761Y-128643095D01*
X92765523Y-128690714D01*
X92575047Y-128738333D01*
X92432190Y-128738333D01*
X92241714Y-128690714D01*
X92146476Y-128643095D01*
X92051238Y-128547857D01*
X92003619Y-128405000D01*
X92003619Y-128166904D01*
X92908380Y-129119285D02*
X92956000Y-129166904D01*
X93003619Y-129262142D01*
X93003619Y-129500238D01*
X92956000Y-129595476D01*
X92908380Y-129643095D01*
X92813142Y-129690714D01*
X92717904Y-129690714D01*
X92575047Y-129643095D01*
X92003619Y-129071666D01*
X92003619Y-129690714D01*
X142311380Y-142597095D02*
X141311380Y-142597095D01*
X141311380Y-142359000D01*
X141359000Y-142216142D01*
X141454238Y-142120904D01*
X141549476Y-142073285D01*
X141739952Y-142025666D01*
X141882809Y-142025666D01*
X142073285Y-142073285D01*
X142168523Y-142120904D01*
X142263761Y-142216142D01*
X142311380Y-142359000D01*
X142311380Y-142597095D01*
X141406619Y-141644714D02*
X141359000Y-141597095D01*
X141311380Y-141501857D01*
X141311380Y-141263761D01*
X141359000Y-141168523D01*
X141406619Y-141120904D01*
X141501857Y-141073285D01*
X141597095Y-141073285D01*
X141739952Y-141120904D01*
X142311380Y-141692333D01*
X142311380Y-141073285D01*
X142311380Y-132826047D02*
X142311380Y-133397476D01*
X142311380Y-133111761D02*
X141311380Y-133111761D01*
X141454238Y-133207000D01*
X141549476Y-133302238D01*
X141597095Y-133397476D01*
X141406619Y-132445095D02*
X141359000Y-132397476D01*
X141311380Y-132302238D01*
X141311380Y-132064142D01*
X141359000Y-131968904D01*
X141406619Y-131921285D01*
X141501857Y-131873666D01*
X141597095Y-131873666D01*
X141739952Y-131921285D01*
X142311380Y-132492714D01*
X142311380Y-131873666D01*
X141311380Y-131587952D02*
X142311380Y-131254619D01*
X141311380Y-130921285D01*
%TO.C,C1*%
X136993333Y-119102142D02*
X136945714Y-119149761D01*
X136802857Y-119197380D01*
X136707619Y-119197380D01*
X136564761Y-119149761D01*
X136469523Y-119054523D01*
X136421904Y-118959285D01*
X136374285Y-118768809D01*
X136374285Y-118625952D01*
X136421904Y-118435476D01*
X136469523Y-118340238D01*
X136564761Y-118245000D01*
X136707619Y-118197380D01*
X136802857Y-118197380D01*
X136945714Y-118245000D01*
X136993333Y-118292619D01*
X137945714Y-119197380D02*
X137374285Y-119197380D01*
X137660000Y-119197380D02*
X137660000Y-118197380D01*
X137564761Y-118340238D01*
X137469523Y-118435476D01*
X137374285Y-118483095D01*
%TO.C,J2*%
X132052380Y-143716333D02*
X132766666Y-143716333D01*
X132909523Y-143763952D01*
X133004761Y-143859190D01*
X133052380Y-144002047D01*
X133052380Y-144097285D01*
X132147619Y-143287761D02*
X132100000Y-143240142D01*
X132052380Y-143144904D01*
X132052380Y-142906809D01*
X132100000Y-142811571D01*
X132147619Y-142763952D01*
X132242857Y-142716333D01*
X132338095Y-142716333D01*
X132480952Y-142763952D01*
X133052380Y-143335380D01*
X133052380Y-142716333D01*
%TO.C,R5*%
X118562380Y-132246666D02*
X118086190Y-132580000D01*
X118562380Y-132818095D02*
X117562380Y-132818095D01*
X117562380Y-132437142D01*
X117610000Y-132341904D01*
X117657619Y-132294285D01*
X117752857Y-132246666D01*
X117895714Y-132246666D01*
X117990952Y-132294285D01*
X118038571Y-132341904D01*
X118086190Y-132437142D01*
X118086190Y-132818095D01*
X117562380Y-131341904D02*
X117562380Y-131818095D01*
X118038571Y-131865714D01*
X117990952Y-131818095D01*
X117943333Y-131722857D01*
X117943333Y-131484761D01*
X117990952Y-131389523D01*
X118038571Y-131341904D01*
X118133809Y-131294285D01*
X118371904Y-131294285D01*
X118467142Y-131341904D01*
X118514761Y-131389523D01*
X118562380Y-131484761D01*
X118562380Y-131722857D01*
X118514761Y-131818095D01*
X118467142Y-131865714D01*
%TO.C,R8*%
X123642380Y-132246666D02*
X123166190Y-132580000D01*
X123642380Y-132818095D02*
X122642380Y-132818095D01*
X122642380Y-132437142D01*
X122690000Y-132341904D01*
X122737619Y-132294285D01*
X122832857Y-132246666D01*
X122975714Y-132246666D01*
X123070952Y-132294285D01*
X123118571Y-132341904D01*
X123166190Y-132437142D01*
X123166190Y-132818095D01*
X123070952Y-131675238D02*
X123023333Y-131770476D01*
X122975714Y-131818095D01*
X122880476Y-131865714D01*
X122832857Y-131865714D01*
X122737619Y-131818095D01*
X122690000Y-131770476D01*
X122642380Y-131675238D01*
X122642380Y-131484761D01*
X122690000Y-131389523D01*
X122737619Y-131341904D01*
X122832857Y-131294285D01*
X122880476Y-131294285D01*
X122975714Y-131341904D01*
X123023333Y-131389523D01*
X123070952Y-131484761D01*
X123070952Y-131675238D01*
X123118571Y-131770476D01*
X123166190Y-131818095D01*
X123261428Y-131865714D01*
X123451904Y-131865714D01*
X123547142Y-131818095D01*
X123594761Y-131770476D01*
X123642380Y-131675238D01*
X123642380Y-131484761D01*
X123594761Y-131389523D01*
X123547142Y-131341904D01*
X123451904Y-131294285D01*
X123261428Y-131294285D01*
X123166190Y-131341904D01*
X123118571Y-131389523D01*
X123070952Y-131484761D01*
%TO.C,U2*%
X102743095Y-98512380D02*
X102743095Y-99321904D01*
X102790714Y-99417142D01*
X102838333Y-99464761D01*
X102933571Y-99512380D01*
X103124047Y-99512380D01*
X103219285Y-99464761D01*
X103266904Y-99417142D01*
X103314523Y-99321904D01*
X103314523Y-98512380D01*
X103743095Y-98607619D02*
X103790714Y-98560000D01*
X103885952Y-98512380D01*
X104124047Y-98512380D01*
X104219285Y-98560000D01*
X104266904Y-98607619D01*
X104314523Y-98702857D01*
X104314523Y-98798095D01*
X104266904Y-98940952D01*
X103695476Y-99512380D01*
X104314523Y-99512380D01*
%TO.C,J5*%
X101194380Y-127122333D02*
X101908666Y-127122333D01*
X102051523Y-127169952D01*
X102146761Y-127265190D01*
X102194380Y-127408047D01*
X102194380Y-127503285D01*
X101194380Y-126169952D02*
X101194380Y-126646142D01*
X101670571Y-126693761D01*
X101622952Y-126646142D01*
X101575333Y-126550904D01*
X101575333Y-126312809D01*
X101622952Y-126217571D01*
X101670571Y-126169952D01*
X101765809Y-126122333D01*
X102003904Y-126122333D01*
X102099142Y-126169952D01*
X102146761Y-126217571D01*
X102194380Y-126312809D01*
X102194380Y-126550904D01*
X102146761Y-126646142D01*
X102099142Y-126693761D01*
%TO.C,U1*%
X104648095Y-92162380D02*
X104648095Y-92971904D01*
X104695714Y-93067142D01*
X104743333Y-93114761D01*
X104838571Y-93162380D01*
X105029047Y-93162380D01*
X105124285Y-93114761D01*
X105171904Y-93067142D01*
X105219523Y-92971904D01*
X105219523Y-92162380D01*
X106219523Y-93162380D02*
X105648095Y-93162380D01*
X105933809Y-93162380D02*
X105933809Y-92162380D01*
X105838571Y-92305238D01*
X105743333Y-92400476D01*
X105648095Y-92448095D01*
%TO.C,R4*%
X110942380Y-142406666D02*
X110466190Y-142740000D01*
X110942380Y-142978095D02*
X109942380Y-142978095D01*
X109942380Y-142597142D01*
X109990000Y-142501904D01*
X110037619Y-142454285D01*
X110132857Y-142406666D01*
X110275714Y-142406666D01*
X110370952Y-142454285D01*
X110418571Y-142501904D01*
X110466190Y-142597142D01*
X110466190Y-142978095D01*
X110275714Y-141549523D02*
X110942380Y-141549523D01*
X109894761Y-141787619D02*
X110609047Y-142025714D01*
X110609047Y-141406666D01*
%TO.C,J4*%
X101167380Y-143716333D02*
X101881666Y-143716333D01*
X102024523Y-143763952D01*
X102119761Y-143859190D01*
X102167380Y-144002047D01*
X102167380Y-144097285D01*
X101500714Y-142811571D02*
X102167380Y-142811571D01*
X101119761Y-143049666D02*
X101834047Y-143287761D01*
X101834047Y-142668714D01*
%TO.C,R3*%
X116022380Y-142406666D02*
X115546190Y-142740000D01*
X116022380Y-142978095D02*
X115022380Y-142978095D01*
X115022380Y-142597142D01*
X115070000Y-142501904D01*
X115117619Y-142454285D01*
X115212857Y-142406666D01*
X115355714Y-142406666D01*
X115450952Y-142454285D01*
X115498571Y-142501904D01*
X115546190Y-142597142D01*
X115546190Y-142978095D01*
X115022380Y-142073333D02*
X115022380Y-141454285D01*
X115403333Y-141787619D01*
X115403333Y-141644761D01*
X115450952Y-141549523D01*
X115498571Y-141501904D01*
X115593809Y-141454285D01*
X115831904Y-141454285D01*
X115927142Y-141501904D01*
X115974761Y-141549523D01*
X116022380Y-141644761D01*
X116022380Y-141930476D01*
X115974761Y-142025714D01*
X115927142Y-142073333D01*
%TO.C,R1*%
X126182380Y-142406666D02*
X125706190Y-142740000D01*
X126182380Y-142978095D02*
X125182380Y-142978095D01*
X125182380Y-142597142D01*
X125230000Y-142501904D01*
X125277619Y-142454285D01*
X125372857Y-142406666D01*
X125515714Y-142406666D01*
X125610952Y-142454285D01*
X125658571Y-142501904D01*
X125706190Y-142597142D01*
X125706190Y-142978095D01*
X126182380Y-141454285D02*
X126182380Y-142025714D01*
X126182380Y-141740000D02*
X125182380Y-141740000D01*
X125325238Y-141835238D01*
X125420476Y-141930476D01*
X125468095Y-142025714D01*
%TO.C,C2*%
X96203333Y-119102142D02*
X96155714Y-119149761D01*
X96012857Y-119197380D01*
X95917619Y-119197380D01*
X95774761Y-119149761D01*
X95679523Y-119054523D01*
X95631904Y-118959285D01*
X95584285Y-118768809D01*
X95584285Y-118625952D01*
X95631904Y-118435476D01*
X95679523Y-118340238D01*
X95774761Y-118245000D01*
X95917619Y-118197380D01*
X96012857Y-118197380D01*
X96155714Y-118245000D01*
X96203333Y-118292619D01*
X96584285Y-118292619D02*
X96631904Y-118245000D01*
X96727142Y-118197380D01*
X96965238Y-118197380D01*
X97060476Y-118245000D01*
X97108095Y-118292619D01*
X97155714Y-118387857D01*
X97155714Y-118483095D01*
X97108095Y-118625952D01*
X96536666Y-119197380D01*
X97155714Y-119197380D01*
%TO.C,D1*%
X140127380Y-101957095D02*
X139127380Y-101957095D01*
X139127380Y-101719000D01*
X139175000Y-101576142D01*
X139270238Y-101480904D01*
X139365476Y-101433285D01*
X139555952Y-101385666D01*
X139698809Y-101385666D01*
X139889285Y-101433285D01*
X139984523Y-101480904D01*
X140079761Y-101576142D01*
X140127380Y-101719000D01*
X140127380Y-101957095D01*
X140127380Y-100433285D02*
X140127380Y-101004714D01*
X140127380Y-100719000D02*
X139127380Y-100719000D01*
X139270238Y-100814238D01*
X139365476Y-100909476D01*
X139413095Y-101004714D01*
X138542380Y-95130904D02*
X137542380Y-95130904D01*
X138542380Y-94559476D02*
X137970952Y-94988047D01*
X137542380Y-94559476D02*
X138113809Y-95130904D01*
%TO.C,R2*%
X121102380Y-142406666D02*
X120626190Y-142740000D01*
X121102380Y-142978095D02*
X120102380Y-142978095D01*
X120102380Y-142597142D01*
X120150000Y-142501904D01*
X120197619Y-142454285D01*
X120292857Y-142406666D01*
X120435714Y-142406666D01*
X120530952Y-142454285D01*
X120578571Y-142501904D01*
X120626190Y-142597142D01*
X120626190Y-142978095D01*
X120197619Y-142025714D02*
X120150000Y-141978095D01*
X120102380Y-141882857D01*
X120102380Y-141644761D01*
X120150000Y-141549523D01*
X120197619Y-141501904D01*
X120292857Y-141454285D01*
X120388095Y-141454285D01*
X120530952Y-141501904D01*
X121102380Y-142073333D01*
X121102380Y-141454285D01*
%TO.C,L1*%
X96393333Y-102052380D02*
X95917142Y-102052380D01*
X95917142Y-101052380D01*
X97250476Y-102052380D02*
X96679047Y-102052380D01*
X96964761Y-102052380D02*
X96964761Y-101052380D01*
X96869523Y-101195238D01*
X96774285Y-101290476D01*
X96679047Y-101338095D01*
%TO.C,R6*%
X113482380Y-132246666D02*
X113006190Y-132580000D01*
X113482380Y-132818095D02*
X112482380Y-132818095D01*
X112482380Y-132437142D01*
X112530000Y-132341904D01*
X112577619Y-132294285D01*
X112672857Y-132246666D01*
X112815714Y-132246666D01*
X112910952Y-132294285D01*
X112958571Y-132341904D01*
X113006190Y-132437142D01*
X113006190Y-132818095D01*
X112482380Y-131389523D02*
X112482380Y-131580000D01*
X112530000Y-131675238D01*
X112577619Y-131722857D01*
X112720476Y-131818095D01*
X112910952Y-131865714D01*
X113291904Y-131865714D01*
X113387142Y-131818095D01*
X113434761Y-131770476D01*
X113482380Y-131675238D01*
X113482380Y-131484761D01*
X113434761Y-131389523D01*
X113387142Y-131341904D01*
X113291904Y-131294285D01*
X113053809Y-131294285D01*
X112958571Y-131341904D01*
X112910952Y-131389523D01*
X112863333Y-131484761D01*
X112863333Y-131675238D01*
X112910952Y-131770476D01*
X112958571Y-131818095D01*
X113053809Y-131865714D01*
%TO.C,J1*%
X126920666Y-95083380D02*
X126920666Y-95797666D01*
X126873047Y-95940523D01*
X126777809Y-96035761D01*
X126634952Y-96083380D01*
X126539714Y-96083380D01*
X127920666Y-96083380D02*
X127349238Y-96083380D01*
X127634952Y-96083380D02*
X127634952Y-95083380D01*
X127539714Y-95226238D01*
X127444476Y-95321476D01*
X127349238Y-95369095D01*
%TO.C,R7*%
X108402380Y-132246666D02*
X107926190Y-132580000D01*
X108402380Y-132818095D02*
X107402380Y-132818095D01*
X107402380Y-132437142D01*
X107450000Y-132341904D01*
X107497619Y-132294285D01*
X107592857Y-132246666D01*
X107735714Y-132246666D01*
X107830952Y-132294285D01*
X107878571Y-132341904D01*
X107926190Y-132437142D01*
X107926190Y-132818095D01*
X107402380Y-131913333D02*
X107402380Y-131246666D01*
X108402380Y-131675238D01*
%TO.C,J3*%
X132152380Y-127163333D02*
X132866666Y-127163333D01*
X133009523Y-127210952D01*
X133104761Y-127306190D01*
X133152380Y-127449047D01*
X133152380Y-127544285D01*
X132152380Y-126782380D02*
X132152380Y-126163333D01*
X132533333Y-126496666D01*
X132533333Y-126353809D01*
X132580952Y-126258571D01*
X132628571Y-126210952D01*
X132723809Y-126163333D01*
X132961904Y-126163333D01*
X133057142Y-126210952D01*
X133104761Y-126258571D01*
X133152380Y-126353809D01*
X133152380Y-126639523D01*
X133104761Y-126734761D01*
X133057142Y-126782380D01*
D12*
%TO.C,C1*%
X136120000Y-115431000D02*
X133554000Y-115431000D01*
X141023000Y-114831000D02*
X138200000Y-114831000D01*
X136120000Y-114351000D02*
X133166000Y-114351000D01*
X139505000Y-116871000D02*
X134815000Y-116871000D01*
X140826000Y-115311000D02*
X138200000Y-115311000D01*
X141240000Y-113590000D02*
X133080000Y-113590000D01*
X137693000Y-117591000D02*
X136627000Y-117591000D01*
X136120000Y-114911000D02*
X133325000Y-114911000D01*
X140981000Y-114951000D02*
X138200000Y-114951000D01*
X138973000Y-117191000D02*
X135347000Y-117191000D01*
X136120000Y-116071000D02*
X133971000Y-116071000D01*
X136120000Y-116271000D02*
X134141000Y-116271000D01*
X136120000Y-115191000D02*
X133438000Y-115191000D01*
X140722000Y-115511000D02*
X138200000Y-115511000D01*
X137928000Y-117551000D02*
X136392000Y-117551000D01*
X139665000Y-116751000D02*
X134655000Y-116751000D01*
X140027000Y-116431000D02*
X134293000Y-116431000D01*
X136120000Y-116191000D02*
X134070000Y-116191000D01*
X136120000Y-114711000D02*
X133258000Y-114711000D01*
X136120000Y-114671000D02*
X133246000Y-114671000D01*
X139262000Y-117031000D02*
X135058000Y-117031000D01*
X141117000Y-114511000D02*
X138200000Y-114511000D01*
X136120000Y-114551000D02*
X133213000Y-114551000D01*
X136120000Y-114431000D02*
X133184000Y-114431000D01*
X141202000Y-114070000D02*
X133118000Y-114070000D01*
X140316000Y-116111000D02*
X138200000Y-116111000D01*
X139124000Y-117111000D02*
X135196000Y-117111000D01*
X140250000Y-116191000D02*
X138200000Y-116191000D01*
X140950000Y-115031000D02*
X138200000Y-115031000D01*
X141170000Y-114271000D02*
X138200000Y-114271000D01*
X136120000Y-114631000D02*
X133235000Y-114631000D01*
X141037000Y-114791000D02*
X138200000Y-114791000D01*
X139764000Y-116671000D02*
X134556000Y-116671000D01*
X140787000Y-115391000D02*
X138200000Y-115391000D01*
X136120000Y-115151000D02*
X133420000Y-115151000D01*
X141208000Y-114030000D02*
X133112000Y-114030000D01*
X136120000Y-115471000D02*
X133576000Y-115471000D01*
X140677000Y-115591000D02*
X138200000Y-115591000D01*
X136120000Y-115951000D02*
X133880000Y-115951000D01*
X139716000Y-116711000D02*
X134604000Y-116711000D01*
X141190000Y-114150000D02*
X133130000Y-114150000D01*
X140604000Y-115711000D02*
X138200000Y-115711000D01*
X136120000Y-115071000D02*
X133386000Y-115071000D01*
X136120000Y-116031000D02*
X133940000Y-116031000D01*
X141231000Y-113790000D02*
X133089000Y-113790000D01*
X140105000Y-116351000D02*
X134215000Y-116351000D01*
X139811000Y-116631000D02*
X134509000Y-116631000D01*
X139614000Y-116791000D02*
X134706000Y-116791000D01*
X140965000Y-114991000D02*
X138200000Y-114991000D01*
X140284000Y-116151000D02*
X138200000Y-116151000D01*
X141107000Y-114551000D02*
X138200000Y-114551000D01*
X141136000Y-114431000D02*
X138200000Y-114431000D01*
X140179000Y-116271000D02*
X138200000Y-116271000D01*
X136120000Y-115911000D02*
X133851000Y-115911000D01*
X141177000Y-114231000D02*
X138200000Y-114231000D01*
X140807000Y-115351000D02*
X138200000Y-115351000D01*
X140744000Y-115471000D02*
X138200000Y-115471000D01*
X140215000Y-116231000D02*
X138200000Y-116231000D01*
X136120000Y-115551000D02*
X133620000Y-115551000D01*
X141237000Y-113670000D02*
X133083000Y-113670000D01*
X141062000Y-114711000D02*
X138200000Y-114711000D01*
X136120000Y-114311000D02*
X133158000Y-114311000D01*
X140917000Y-115111000D02*
X138200000Y-115111000D01*
X141197000Y-114110000D02*
X133123000Y-114110000D01*
X139560000Y-116831000D02*
X134760000Y-116831000D01*
X136120000Y-115111000D02*
X133403000Y-115111000D01*
X140525000Y-115831000D02*
X138200000Y-115831000D01*
X140846000Y-115271000D02*
X138200000Y-115271000D01*
X139986000Y-116471000D02*
X134334000Y-116471000D01*
X136120000Y-114751000D02*
X133271000Y-114751000D01*
X140143000Y-116311000D02*
X134177000Y-116311000D01*
X136120000Y-115671000D02*
X133691000Y-115671000D01*
X138258000Y-117471000D02*
X136062000Y-117471000D01*
X138712000Y-117311000D02*
X135608000Y-117311000D01*
X141010000Y-114871000D02*
X138200000Y-114871000D01*
X136120000Y-115031000D02*
X133370000Y-115031000D01*
X138805000Y-117271000D02*
X135515000Y-117271000D01*
X140629000Y-115671000D02*
X138200000Y-115671000D01*
X139194000Y-117071000D02*
X135126000Y-117071000D01*
X140995000Y-114911000D02*
X138200000Y-114911000D01*
X140653000Y-115631000D02*
X138200000Y-115631000D01*
X136120000Y-115351000D02*
X133513000Y-115351000D01*
X140469000Y-115911000D02*
X138200000Y-115911000D01*
X139901000Y-116551000D02*
X134419000Y-116551000D01*
X140900000Y-115151000D02*
X138200000Y-115151000D01*
X141085000Y-114631000D02*
X138200000Y-114631000D01*
X138891000Y-117231000D02*
X135429000Y-117231000D01*
X141145000Y-114391000D02*
X138200000Y-114391000D01*
X136120000Y-115271000D02*
X133474000Y-115271000D01*
X136120000Y-115631000D02*
X133667000Y-115631000D01*
X141217000Y-113950000D02*
X133103000Y-113950000D01*
X140578000Y-115751000D02*
X138200000Y-115751000D01*
X139050000Y-117151000D02*
X135270000Y-117151000D01*
X139875000Y-109500302D02*
X139075000Y-109500302D01*
X136120000Y-115871000D02*
X133822000Y-115871000D01*
X136120000Y-114391000D02*
X133175000Y-114391000D01*
X138389000Y-117431000D02*
X135931000Y-117431000D01*
X141228000Y-113830000D02*
X133092000Y-113830000D01*
X136120000Y-115751000D02*
X133742000Y-115751000D01*
X140766000Y-115431000D02*
X138200000Y-115431000D01*
X140349000Y-116071000D02*
X138200000Y-116071000D01*
X138506000Y-117391000D02*
X135814000Y-117391000D01*
X140498000Y-115871000D02*
X138200000Y-115871000D01*
X141221000Y-113910000D02*
X133099000Y-113910000D01*
X136120000Y-115511000D02*
X133598000Y-115511000D01*
X141240000Y-113550000D02*
X133080000Y-113550000D01*
X141074000Y-114671000D02*
X138200000Y-114671000D01*
X140440000Y-115951000D02*
X138200000Y-115951000D01*
X136120000Y-115591000D02*
X133643000Y-115591000D01*
X141225000Y-113870000D02*
X133095000Y-113870000D01*
X136120000Y-115391000D02*
X133533000Y-115391000D01*
X141127000Y-114471000D02*
X138200000Y-114471000D01*
X139944000Y-116511000D02*
X134376000Y-116511000D01*
X136120000Y-114991000D02*
X133355000Y-114991000D01*
X141240000Y-113510000D02*
X133080000Y-113510000D01*
X139326000Y-116991000D02*
X134994000Y-116991000D01*
X136120000Y-115991000D02*
X133910000Y-115991000D01*
X136120000Y-115231000D02*
X133456000Y-115231000D01*
X140934000Y-115071000D02*
X138200000Y-115071000D01*
X141234000Y-113750000D02*
X133086000Y-113750000D01*
X140410000Y-115991000D02*
X138200000Y-115991000D01*
X139388000Y-116951000D02*
X134932000Y-116951000D01*
X141096000Y-114591000D02*
X138200000Y-114591000D01*
X136120000Y-114871000D02*
X133310000Y-114871000D01*
X136120000Y-115311000D02*
X133494000Y-115311000D01*
X139447000Y-116911000D02*
X134873000Y-116911000D01*
X136120000Y-114471000D02*
X133193000Y-114471000D01*
X136120000Y-115711000D02*
X133716000Y-115711000D01*
X136120000Y-114831000D02*
X133297000Y-114831000D01*
X141236000Y-113710000D02*
X133084000Y-113710000D01*
X138108000Y-117511000D02*
X136212000Y-117511000D01*
X139475000Y-109100302D02*
X139475000Y-109900302D01*
X140864000Y-115231000D02*
X138200000Y-115231000D01*
X139857000Y-116591000D02*
X134463000Y-116591000D01*
X141154000Y-114351000D02*
X138200000Y-114351000D01*
X141162000Y-114311000D02*
X138200000Y-114311000D01*
X140380000Y-116031000D02*
X138200000Y-116031000D01*
X136120000Y-116231000D02*
X134105000Y-116231000D01*
X138613000Y-117351000D02*
X135707000Y-117351000D01*
X136120000Y-115831000D02*
X133795000Y-115831000D01*
X140552000Y-115791000D02*
X138200000Y-115791000D01*
X136120000Y-116111000D02*
X134004000Y-116111000D01*
X136120000Y-116151000D02*
X134036000Y-116151000D01*
X136120000Y-114591000D02*
X133224000Y-114591000D01*
X136120000Y-114951000D02*
X133339000Y-114951000D01*
X140700000Y-115551000D02*
X138200000Y-115551000D01*
X136120000Y-114791000D02*
X133283000Y-114791000D01*
X136120000Y-114271000D02*
X133150000Y-114271000D01*
X136120000Y-114231000D02*
X133143000Y-114231000D01*
X136120000Y-114511000D02*
X133203000Y-114511000D01*
X136120000Y-115791000D02*
X133768000Y-115791000D01*
X141212000Y-113990000D02*
X133108000Y-113990000D01*
X140882000Y-115191000D02*
X138200000Y-115191000D01*
X141049000Y-114751000D02*
X138200000Y-114751000D01*
X141239000Y-113630000D02*
X133081000Y-113630000D01*
X141184000Y-114190000D02*
X133136000Y-114190000D01*
X140067000Y-116391000D02*
X134253000Y-116391000D01*
X141280000Y-113510000D02*
G75*
G03*
X141280000Y-113510000I-4120000J0D01*
G01*
%TO.C,J2*%
X138615000Y-138133000D02*
G75*
G03*
X138615000Y-138133000I-1555000J0D01*
G01*
X138615000Y-141633000D02*
G75*
G03*
X138615000Y-141633000I-1555000J0D01*
G01*
X138615000Y-145133000D02*
G75*
G03*
X138615000Y-145133000I-1555000J0D01*
G01*
X137668000Y-147201000D02*
G75*
G03*
X136452258Y-147200891I-607999J-1432003D01*
G01*
X138615000Y-148633000D02*
G75*
G03*
X138491385Y-148025413I-1555000J0D01*
G01*
X138492000Y-149241000D02*
G75*
G03*
X138615493Y-148605989I-1431988J607998D01*
G01*
X136452000Y-150065000D02*
G75*
G03*
X137667742Y-150065109I608000J1432000D01*
G01*
X135628000Y-148025000D02*
G75*
G03*
X135627891Y-149240742I1432000J-608000D01*
G01*
X133600000Y-135973000D02*
X140720000Y-135973000D01*
X133600000Y-150793000D02*
X140720000Y-150793000D01*
X139220000Y-151033000D02*
X140960000Y-151033000D01*
X140960000Y-151033000D02*
X140960000Y-149533000D01*
X139160000Y-150793000D02*
X139160000Y-135973000D01*
X140720000Y-150793000D02*
X140720000Y-135973000D01*
X133600000Y-150793000D02*
X133600000Y-135973000D01*
%TO.C,R5*%
X119480000Y-135350000D02*
X119150000Y-135350000D01*
X119480000Y-128810000D02*
X119480000Y-135350000D01*
X116740000Y-135350000D02*
X117070000Y-135350000D01*
X116740000Y-128810000D02*
X116740000Y-135350000D01*
X119150000Y-128810000D02*
X119480000Y-128810000D01*
X117070000Y-128810000D02*
X116740000Y-128810000D01*
%TO.C,R8*%
X121820000Y-135350000D02*
X122150000Y-135350000D01*
X124560000Y-128810000D02*
X124560000Y-135350000D01*
X124560000Y-135350000D02*
X124230000Y-135350000D01*
X121820000Y-128810000D02*
X121820000Y-135350000D01*
X124230000Y-128810000D02*
X124560000Y-128810000D01*
X122150000Y-128810000D02*
X121820000Y-128810000D01*
D13*
%TO.C,U2*%
X108060000Y-100255000D02*
X102610000Y-100255000D01*
X131120000Y-151205000D02*
X120051000Y-151205000D01*
X131120000Y-151205000D02*
X102610000Y-151205000D01*
X125750000Y-100255000D02*
X108060000Y-100255000D01*
X131120000Y-100255000D02*
X131120000Y-151205000D01*
X102610000Y-100255000D02*
X131120000Y-100255000D01*
X113340000Y-151205000D02*
X102610000Y-151205000D01*
X102610000Y-151205000D02*
X102610000Y-100255000D01*
X131120000Y-100255000D02*
X125750000Y-100255000D01*
X102610000Y-151205000D02*
X102610000Y-100255000D01*
X120051000Y-151205000D02*
X113340000Y-151205000D01*
X131120000Y-100255000D02*
X131120000Y-151205000D01*
D14*
X131790000Y-141245000D02*
G75*
G03*
X131790000Y-141245000I-100000J0D01*
G01*
D12*
%TO.C,J5*%
X95182000Y-119379000D02*
X95182000Y-134199000D01*
X100742000Y-119379000D02*
X100742000Y-134199000D01*
X100742000Y-134199000D02*
X93622000Y-134199000D01*
X100742000Y-119379000D02*
X93622000Y-119379000D01*
X95122000Y-119139000D02*
X93382000Y-119139000D01*
X93622000Y-119379000D02*
X93622000Y-134199000D01*
X93382000Y-119139000D02*
X93382000Y-120639000D01*
X98714000Y-122147000D02*
G75*
G03*
X98714109Y-120931258I-1432000J608000D01*
G01*
X95850000Y-120931000D02*
G75*
G03*
X95726507Y-121566011I1431988J-607998D01*
G01*
X95727000Y-121539000D02*
G75*
G03*
X95850615Y-122146587I1555000J0D01*
G01*
X96674000Y-122971000D02*
G75*
G03*
X97889742Y-122971109I607999J1432003D01*
G01*
X97890000Y-120107000D02*
G75*
G03*
X96674258Y-120106891I-608000J-1432000D01*
G01*
X98837000Y-128539000D02*
G75*
G03*
X98837000Y-128539000I-1555000J0D01*
G01*
X98837000Y-125039000D02*
G75*
G03*
X98837000Y-125039000I-1555000J0D01*
G01*
X98837000Y-132039000D02*
G75*
G03*
X98837000Y-132039000I-1555000J0D01*
G01*
%TO.C,U1*%
X111480000Y-98520000D02*
X111480000Y-97010000D01*
X114751000Y-93879000D02*
X104510000Y-93879000D01*
X107780000Y-98520000D02*
X107780000Y-97010000D01*
X114751000Y-97010000D02*
X104510000Y-97010000D01*
X114751000Y-98520000D02*
X114751000Y-93879000D01*
X104510000Y-98520000D02*
X104510000Y-93879000D01*
X114751000Y-98520000D02*
X104510000Y-98520000D01*
%TO.C,R4*%
X111530000Y-138970000D02*
X111860000Y-138970000D01*
X111860000Y-145510000D02*
X111530000Y-145510000D01*
X111860000Y-138970000D02*
X111860000Y-145510000D01*
X109120000Y-138970000D02*
X109120000Y-145510000D01*
X109450000Y-138970000D02*
X109120000Y-138970000D01*
X109120000Y-145510000D02*
X109450000Y-145510000D01*
%TO.C,J4*%
X98810000Y-148633000D02*
G75*
G03*
X98810000Y-148633000I-1555000J0D01*
G01*
X98810000Y-141633000D02*
G75*
G03*
X98810000Y-141633000I-1555000J0D01*
G01*
X98810000Y-145133000D02*
G75*
G03*
X98810000Y-145133000I-1555000J0D01*
G01*
X97863000Y-136701000D02*
G75*
G03*
X96647258Y-136700891I-608000J-1432000D01*
G01*
X95823000Y-137525000D02*
G75*
G03*
X95699507Y-138160011I1431988J-607998D01*
G01*
X95700000Y-138133000D02*
G75*
G03*
X95823615Y-138740587I1555000J0D01*
G01*
X98687000Y-138741000D02*
G75*
G03*
X98687109Y-137525258I-1432000J608000D01*
G01*
X96647000Y-139565000D02*
G75*
G03*
X97862742Y-139565109I607999J1432003D01*
G01*
X93355000Y-135733000D02*
X93355000Y-137233000D01*
X95095000Y-135733000D02*
X93355000Y-135733000D01*
X93595000Y-135973000D02*
X93595000Y-150793000D01*
X95155000Y-135973000D02*
X95155000Y-150793000D01*
X100715000Y-135973000D02*
X100715000Y-150793000D01*
X100715000Y-135973000D02*
X93595000Y-135973000D01*
X100715000Y-150793000D02*
X93595000Y-150793000D01*
%TO.C,R3*%
X114200000Y-138970000D02*
X114200000Y-145510000D01*
X116940000Y-145510000D02*
X116610000Y-145510000D01*
X114200000Y-145510000D02*
X114530000Y-145510000D01*
X116940000Y-138970000D02*
X116940000Y-145510000D01*
X114530000Y-138970000D02*
X114200000Y-138970000D01*
X116610000Y-138970000D02*
X116940000Y-138970000D01*
%TO.C,R1*%
X126770000Y-138970000D02*
X127100000Y-138970000D01*
X124360000Y-138970000D02*
X124360000Y-145510000D01*
X124360000Y-145510000D02*
X124690000Y-145510000D01*
X124690000Y-138970000D02*
X124360000Y-138970000D01*
X127100000Y-145510000D02*
X126770000Y-145510000D01*
X127100000Y-138970000D02*
X127100000Y-145510000D01*
%TO.C,C2*%
X101640000Y-112897677D02*
G75*
G03*
X101640000Y-112897677I-5120000J0D01*
G01*
X91975000Y-110616677D02*
X95279000Y-110616677D01*
X91455000Y-112497677D02*
X101585000Y-112497677D01*
X91442000Y-112737677D02*
X101598000Y-112737677D01*
X93466000Y-108816677D02*
X99574000Y-108816677D01*
X91782000Y-111056677D02*
X95279000Y-111056677D01*
X93266000Y-108976677D02*
X99774000Y-108976677D01*
X94155000Y-108376677D02*
X98885000Y-108376677D01*
X97761000Y-110976677D02*
X101227000Y-110976677D01*
X97761000Y-111616677D02*
X101438000Y-111616677D01*
X93645000Y-118377323D02*
X93645000Y-117377323D01*
X91452000Y-112537677D02*
X101588000Y-112537677D01*
X97761000Y-111016677D02*
X101243000Y-111016677D01*
X97761000Y-110376677D02*
X100937000Y-110376677D01*
X94311000Y-108296677D02*
X98729000Y-108296677D01*
X93811000Y-108576677D02*
X99229000Y-108576677D01*
X92841000Y-109376677D02*
X95279000Y-109376677D01*
X97761000Y-110616677D02*
X101065000Y-110616677D01*
X97761000Y-111176677D02*
X101303000Y-111176677D01*
X92354000Y-109976677D02*
X95279000Y-109976677D01*
X91523000Y-111976677D02*
X101517000Y-111976677D01*
X93128000Y-109096677D02*
X99912000Y-109096677D01*
X92731000Y-109496677D02*
X95279000Y-109496677D01*
X97761000Y-109296677D02*
X100121000Y-109296677D01*
X91917000Y-110736677D02*
X95279000Y-110736677D01*
X91502000Y-112096677D02*
X101538000Y-112096677D01*
X97761000Y-111336677D02*
X101357000Y-111336677D01*
X97761000Y-109376677D02*
X100199000Y-109376677D01*
X97761000Y-110096677D02*
X100767000Y-110096677D01*
X97761000Y-109456677D02*
X100273000Y-109456677D01*
X91546000Y-111856677D02*
X101494000Y-111856677D01*
X97761000Y-109976677D02*
X100686000Y-109976677D01*
X92326000Y-110016677D02*
X95279000Y-110016677D01*
X93042000Y-109176677D02*
X95279000Y-109176677D01*
X97761000Y-109176677D02*
X99998000Y-109176677D01*
X92080000Y-110416677D02*
X95279000Y-110416677D01*
X91899000Y-110776677D02*
X95279000Y-110776677D01*
X97761000Y-110936677D02*
X101210000Y-110936677D01*
X95458000Y-107896677D02*
X97582000Y-107896677D01*
X92662000Y-109576677D02*
X95279000Y-109576677D01*
X97761000Y-111136677D02*
X101288000Y-111136677D01*
X91646000Y-111456677D02*
X95279000Y-111456677D01*
X94395000Y-108256677D02*
X98645000Y-108256677D01*
X91564000Y-111776677D02*
X101476000Y-111776677D01*
X94010000Y-108456677D02*
X99030000Y-108456677D01*
X97761000Y-110776677D02*
X101141000Y-110776677D01*
X91936000Y-110696677D02*
X95279000Y-110696677D01*
X93875000Y-108536677D02*
X99165000Y-108536677D01*
X97761000Y-109816677D02*
X100570000Y-109816677D01*
X91696000Y-111296677D02*
X95279000Y-111296677D01*
X93690000Y-108656677D02*
X99350000Y-108656677D01*
X97761000Y-109536677D02*
X100344000Y-109536677D01*
X93414000Y-108856677D02*
X99626000Y-108856677D01*
X92197000Y-110216677D02*
X95279000Y-110216677D01*
X92595000Y-109656677D02*
X95279000Y-109656677D01*
X91441000Y-112777677D02*
X101599000Y-112777677D01*
X91475000Y-112297677D02*
X101565000Y-112297677D01*
X95658000Y-107856677D02*
X97382000Y-107856677D01*
X91635000Y-111496677D02*
X95279000Y-111496677D01*
X97761000Y-109496677D02*
X100309000Y-109496677D01*
X92173000Y-110256677D02*
X95279000Y-110256677D01*
X93631000Y-108696677D02*
X99409000Y-108696677D01*
X91846000Y-110896677D02*
X95279000Y-110896677D01*
X97761000Y-109696677D02*
X100477000Y-109696677D01*
X97761000Y-110176677D02*
X100818000Y-110176677D01*
X97761000Y-111576677D02*
X101427000Y-111576677D01*
X97761000Y-111096677D02*
X101274000Y-111096677D01*
X92696000Y-109536677D02*
X95279000Y-109536677D01*
X97761000Y-109656677D02*
X100445000Y-109656677D01*
X94231000Y-108336677D02*
X98809000Y-108336677D01*
X97761000Y-110656677D02*
X101084000Y-110656677D01*
X91766000Y-111096677D02*
X95279000Y-111096677D01*
X92058000Y-110456677D02*
X95279000Y-110456677D01*
X91881000Y-110816677D02*
X95279000Y-110816677D01*
X92299000Y-110056677D02*
X95279000Y-110056677D01*
X91509000Y-112056677D02*
X101531000Y-112056677D01*
X97761000Y-109416677D02*
X100236000Y-109416677D01*
X91752000Y-111136677D02*
X95279000Y-111136677D01*
X92959000Y-109256677D02*
X95279000Y-109256677D01*
X91462000Y-112417677D02*
X101578000Y-112417677D01*
X97761000Y-111056677D02*
X101258000Y-111056677D01*
X97761000Y-110736677D02*
X101123000Y-110736677D01*
X91582000Y-111696677D02*
X101458000Y-111696677D01*
X92804000Y-109416677D02*
X95279000Y-109416677D01*
X97761000Y-110816677D02*
X101159000Y-110816677D01*
X91623000Y-111536677D02*
X95279000Y-111536677D01*
X97761000Y-111496677D02*
X101405000Y-111496677D01*
X92500000Y-109776677D02*
X95279000Y-109776677D01*
X91683000Y-111336677D02*
X95279000Y-111336677D01*
X97761000Y-109216677D02*
X100040000Y-109216677D01*
X94890000Y-108056677D02*
X98150000Y-108056677D01*
X97761000Y-109776677D02*
X100540000Y-109776677D01*
X91480000Y-112257677D02*
X101560000Y-112257677D01*
X93084000Y-109136677D02*
X99956000Y-109136677D01*
X91555000Y-111816677D02*
X101485000Y-111816677D01*
X94483000Y-108216677D02*
X98557000Y-108216677D01*
X92016000Y-110536677D02*
X95279000Y-110536677D01*
X91496000Y-112136677D02*
X101544000Y-112136677D01*
X91443000Y-112697677D02*
X101597000Y-112697677D01*
X91863000Y-110856677D02*
X95279000Y-110856677D01*
X95921000Y-107816677D02*
X97119000Y-107816677D01*
X91737000Y-111176677D02*
X95279000Y-111176677D01*
X97761000Y-110536677D02*
X101024000Y-110536677D01*
X91450000Y-112577677D02*
X101590000Y-112577677D01*
X93520000Y-108776677D02*
X99520000Y-108776677D01*
X97761000Y-109336677D02*
X100160000Y-109336677D01*
X92149000Y-110296677D02*
X95279000Y-110296677D01*
X92919000Y-109296677D02*
X95279000Y-109296677D01*
X91490000Y-112176677D02*
X101550000Y-112176677D01*
X91995000Y-110576677D02*
X95279000Y-110576677D01*
X97761000Y-110056677D02*
X100741000Y-110056677D01*
X91447000Y-112617677D02*
X101593000Y-112617677D01*
X91440000Y-112857677D02*
X101600000Y-112857677D01*
X92880000Y-109336677D02*
X95279000Y-109336677D01*
X92563000Y-109696677D02*
X95279000Y-109696677D01*
X92531000Y-109736677D02*
X95279000Y-109736677D01*
X91956000Y-110656677D02*
X95279000Y-110656677D01*
X91466000Y-112377677D02*
X101574000Y-112377677D01*
X93000000Y-109216677D02*
X95279000Y-109216677D01*
X91658000Y-111416677D02*
X95279000Y-111416677D01*
X92767000Y-109456677D02*
X95279000Y-109456677D01*
X93364000Y-108896677D02*
X99676000Y-108896677D01*
X93145000Y-117877323D02*
X94145000Y-117877323D01*
X91830000Y-110936677D02*
X95279000Y-110936677D01*
X91723000Y-111216677D02*
X95279000Y-111216677D01*
X97761000Y-110416677D02*
X100960000Y-110416677D01*
X97761000Y-111416677D02*
X101382000Y-111416677D01*
X97761000Y-110016677D02*
X100714000Y-110016677D01*
X97761000Y-110136677D02*
X100793000Y-110136677D01*
X97761000Y-110256677D02*
X100867000Y-110256677D01*
X97761000Y-111376677D02*
X101370000Y-111376677D01*
X95142000Y-107976677D02*
X97898000Y-107976677D01*
X97761000Y-111216677D02*
X101317000Y-111216677D01*
X97761000Y-111256677D02*
X101331000Y-111256677D01*
X95010000Y-108016677D02*
X98030000Y-108016677D01*
X97761000Y-111456677D02*
X101394000Y-111456677D01*
X91813000Y-110976677D02*
X95279000Y-110976677D01*
X91670000Y-111376677D02*
X95279000Y-111376677D01*
X97761000Y-109936677D02*
X100658000Y-109936677D01*
X91470000Y-112337677D02*
X101570000Y-112337677D01*
X92470000Y-109816677D02*
X95279000Y-109816677D01*
X94778000Y-108096677D02*
X98262000Y-108096677D01*
X91797000Y-111016677D02*
X95279000Y-111016677D01*
X91458000Y-112457677D02*
X101582000Y-112457677D01*
X91602000Y-111616677D02*
X95279000Y-111616677D01*
X91440000Y-112817677D02*
X101600000Y-112817677D01*
X97761000Y-110856677D02*
X101177000Y-110856677D01*
X95290000Y-107936677D02*
X97750000Y-107936677D01*
X94576000Y-108176677D02*
X98464000Y-108176677D01*
X97761000Y-110576677D02*
X101045000Y-110576677D01*
X92410000Y-109896677D02*
X95279000Y-109896677D01*
X91485000Y-112217677D02*
X101555000Y-112217677D01*
X91445000Y-112657677D02*
X101595000Y-112657677D01*
X97761000Y-109576677D02*
X100378000Y-109576677D01*
X91573000Y-111736677D02*
X101467000Y-111736677D01*
X93941000Y-108496677D02*
X99099000Y-108496677D01*
X94081000Y-108416677D02*
X98959000Y-108416677D01*
X92440000Y-109856677D02*
X95279000Y-109856677D01*
X92103000Y-110376677D02*
X95279000Y-110376677D01*
X97761000Y-111296677D02*
X101344000Y-111296677D01*
X92247000Y-110136677D02*
X95279000Y-110136677D01*
X91530000Y-111936677D02*
X101510000Y-111936677D01*
X97761000Y-110336677D02*
X100915000Y-110336677D01*
X91613000Y-111576677D02*
X95279000Y-111576677D01*
X91592000Y-111656677D02*
X101448000Y-111656677D01*
X91516000Y-112016677D02*
X101524000Y-112016677D01*
X97761000Y-109616677D02*
X100412000Y-109616677D01*
X97761000Y-110456677D02*
X100982000Y-110456677D01*
X97761000Y-110216677D02*
X100843000Y-110216677D01*
X92222000Y-110176677D02*
X95279000Y-110176677D01*
X91538000Y-111896677D02*
X101502000Y-111896677D01*
X91709000Y-111256677D02*
X95279000Y-111256677D01*
X92628000Y-109616677D02*
X95279000Y-109616677D01*
X92382000Y-109936677D02*
X95279000Y-109936677D01*
X91440000Y-112897677D02*
X101600000Y-112897677D01*
X97761000Y-110496677D02*
X101003000Y-110496677D01*
X93219000Y-109016677D02*
X99821000Y-109016677D01*
X97761000Y-109736677D02*
X100509000Y-109736677D01*
X92273000Y-110096677D02*
X95279000Y-110096677D01*
X93575000Y-108736677D02*
X99465000Y-108736677D01*
X97761000Y-110696677D02*
X101104000Y-110696677D01*
X92037000Y-110496677D02*
X95279000Y-110496677D01*
X97761000Y-109856677D02*
X100600000Y-109856677D01*
X93750000Y-108616677D02*
X99290000Y-108616677D01*
X92125000Y-110336677D02*
X95279000Y-110336677D01*
X97761000Y-109256677D02*
X100081000Y-109256677D01*
X94674000Y-108136677D02*
X98366000Y-108136677D01*
X93173000Y-109056677D02*
X99867000Y-109056677D01*
X93314000Y-108936677D02*
X99726000Y-108936677D01*
X97761000Y-110896677D02*
X101194000Y-110896677D01*
X97761000Y-109896677D02*
X100630000Y-109896677D01*
X97761000Y-110296677D02*
X100891000Y-110296677D01*
X97761000Y-111536677D02*
X101417000Y-111536677D01*
%TO.C,D1*%
X138675000Y-97767000D02*
X133105000Y-97767000D01*
X138675000Y-97887000D02*
X133105000Y-97887000D01*
X133105000Y-106099000D02*
X138675000Y-106099000D01*
X135890000Y-96309000D02*
X135890000Y-96339000D01*
X133105000Y-96339000D02*
X133105000Y-106099000D01*
X135890000Y-106129000D02*
X135890000Y-106099000D01*
X138675000Y-96339000D02*
X133105000Y-96339000D01*
X138675000Y-98007000D02*
X133105000Y-98007000D01*
X138675000Y-106099000D02*
X138675000Y-96339000D01*
%TO.C,R2*%
X119280000Y-138970000D02*
X119280000Y-145510000D01*
X122020000Y-138970000D02*
X122020000Y-145510000D01*
X122020000Y-145510000D02*
X121690000Y-145510000D01*
X119280000Y-145510000D02*
X119610000Y-145510000D01*
X119610000Y-138970000D02*
X119280000Y-138970000D01*
X121690000Y-138970000D02*
X122020000Y-138970000D01*
%TO.C,L1*%
X101430000Y-101600000D02*
G75*
G03*
X101430000Y-101600000I-4870000J0D01*
G01*
%TO.C,R6*%
X114400000Y-128810000D02*
X114400000Y-135350000D01*
X111990000Y-128810000D02*
X111660000Y-128810000D01*
X111660000Y-135350000D02*
X111990000Y-135350000D01*
X111660000Y-128810000D02*
X111660000Y-135350000D01*
X114070000Y-128810000D02*
X114400000Y-128810000D01*
X114400000Y-135350000D02*
X114070000Y-135350000D01*
%TO.C,J1*%
X132334000Y-99441000D02*
X132334000Y-91821000D01*
X122174000Y-91821000D02*
X122174000Y-99441000D01*
X122174000Y-93091000D02*
X132334000Y-93091000D01*
X132334000Y-91821000D02*
X122174000Y-91821000D01*
X122174000Y-99441000D02*
X132334000Y-99441000D01*
%TO.C,R7*%
X106910000Y-128810000D02*
X106580000Y-128810000D01*
X109320000Y-135350000D02*
X108990000Y-135350000D01*
X108990000Y-128810000D02*
X109320000Y-128810000D01*
X106580000Y-128810000D02*
X106580000Y-135350000D01*
X106580000Y-135350000D02*
X106910000Y-135350000D01*
X109320000Y-128810000D02*
X109320000Y-135350000D01*
%TO.C,J3*%
X140820000Y-134240000D02*
X140820000Y-119420000D01*
X133700000Y-119420000D02*
X140820000Y-119420000D01*
X141060000Y-134480000D02*
X141060000Y-132980000D01*
X139260000Y-134240000D02*
X139260000Y-119420000D01*
X133700000Y-134240000D02*
X140820000Y-134240000D01*
X133700000Y-134240000D02*
X133700000Y-119420000D01*
X139320000Y-134480000D02*
X141060000Y-134480000D01*
X136552000Y-133512000D02*
G75*
G03*
X137767742Y-133512109I608000J1432000D01*
G01*
X137768000Y-130648000D02*
G75*
G03*
X136552258Y-130647891I-607999J-1432003D01*
G01*
X135728000Y-131472000D02*
G75*
G03*
X135727891Y-132687742I1432000J-608000D01*
G01*
X138715000Y-132080000D02*
G75*
G03*
X138591385Y-131472413I-1555000J0D01*
G01*
X138592000Y-132688000D02*
G75*
G03*
X138715493Y-132052989I-1431988J607998D01*
G01*
X138715000Y-128580000D02*
G75*
G03*
X138715000Y-128580000I-1555000J0D01*
G01*
X138715000Y-121580000D02*
G75*
G03*
X138715000Y-121580000I-1555000J0D01*
G01*
X138715000Y-125080000D02*
G75*
G03*
X138715000Y-125080000I-1555000J0D01*
G01*
%TD*%
M02*
