%TF.GenerationSoftware,KiCad,Pcbnew,(6.0.9)*%
%TF.CreationDate,2023-01-02T17:12:58+02:00*%
%TF.ProjectId,ESP32_LEDCONTROLLER,45535033-325f-44c4-9544-434f4e54524f,rev?*%
%TF.SameCoordinates,Original*%
%TF.FileFunction,Soldermask,Top*%
%TF.FilePolarity,Negative*%
%FSLAX46Y46*%
G04 Gerber Fmt 4.6, Leading zero omitted, Abs format (unit mm)*
G04 Created by KiCad (PCBNEW (6.0.9)) date 2023-01-02 17:12:58*
%MOMM*%
%LPD*%
G01*
G04 APERTURE LIST*
%TA.AperFunction,Profile*%
%ADD10C,0.100000*%
%TD*%
%ADD11R,1.600000X1.600000*%
%ADD12C,1.600000*%
%ADD13C,2.400000*%
%ADD14R,2.400000X2.400000*%
%ADD15O,1.600000X1.600000*%
%ADD16R,2.000000X2.000000*%
%ADD17C,2.000000*%
%ADD18R,1.275000X1.800000*%
%ADD19O,1.275000X1.800000*%
%ADD20O,2.400000X2.400000*%
%ADD21C,2.600000*%
%ADD22R,3.000000X3.000000*%
%ADD23C,3.000000*%
G04 APERTURE END LIST*
D10*
X94488000Y-153543000D02*
G75*
G03*
X94488000Y-153543000I-1270000J0D01*
G01*
X95885000Y-93345000D02*
G75*
G03*
X95885000Y-93345000I-1270000J0D01*
G01*
X142240000Y-153543000D02*
G75*
G03*
X142240000Y-153543000I-1270000J0D01*
G01*
X141986000Y-93980000D02*
X141986000Y-113284000D01*
X142621000Y-113919000D01*
X142621000Y-155194000D01*
X91440000Y-155194000D01*
X91440000Y-117475000D01*
X90805000Y-116840000D01*
X90805000Y-93980000D01*
X94615000Y-90170000D01*
X138176000Y-90170000D01*
X141986000Y-93980000D01*
D11*
%TO.C,C1*%
X137160000Y-111760000D03*
D12*
X137160000Y-115260000D03*
%TD*%
D13*
%TO.C,J2*%
X137060000Y-138133000D03*
X137060000Y-141633000D03*
X137060000Y-145133000D03*
D14*
X137060000Y-148633000D03*
%TD*%
D12*
%TO.C,R5*%
X118110000Y-128270000D03*
D15*
X118110000Y-135890000D03*
%TD*%
D12*
%TO.C,R8*%
X123190000Y-128270000D03*
D15*
X123190000Y-135890000D03*
%TD*%
D16*
%TO.C,U2*%
X129540000Y-141245000D03*
D17*
X129540000Y-138705000D03*
X129540000Y-136165000D03*
X129540000Y-133625000D03*
X129540000Y-131085000D03*
X129540000Y-128545000D03*
X129540000Y-126005000D03*
X129540000Y-123465000D03*
X129540000Y-120925000D03*
X129540000Y-118385000D03*
X129540000Y-115845000D03*
X129540000Y-113305000D03*
X129540000Y-110765000D03*
X129540000Y-108225000D03*
X129540000Y-105685000D03*
X104140000Y-105685000D03*
X104140000Y-108225000D03*
X104140000Y-110765000D03*
X104140000Y-113305000D03*
X104140000Y-115845000D03*
X104140000Y-118385000D03*
X104140000Y-120925000D03*
X104140000Y-123465000D03*
X104140000Y-126005000D03*
X104140000Y-128545000D03*
X104140000Y-131085000D03*
X104140000Y-133625000D03*
X104140000Y-136165000D03*
X104140000Y-138705000D03*
X104140000Y-141245000D03*
%TD*%
D14*
%TO.C,J5*%
X97282000Y-121539000D03*
D13*
X97282000Y-125039000D03*
X97282000Y-128539000D03*
X97282000Y-132039000D03*
%TD*%
D18*
%TO.C,U1*%
X113030000Y-95250000D03*
D19*
X111330000Y-95250000D03*
X109630000Y-95250000D03*
X107930000Y-95250000D03*
X106230000Y-95250000D03*
%TD*%
D12*
%TO.C,R4*%
X110490000Y-138430000D03*
D15*
X110490000Y-146050000D03*
%TD*%
D13*
%TO.C,J4*%
X97255000Y-148633000D03*
X97255000Y-145133000D03*
X97255000Y-141633000D03*
D14*
X97255000Y-138133000D03*
%TD*%
D12*
%TO.C,R3*%
X115570000Y-138430000D03*
D15*
X115570000Y-146050000D03*
%TD*%
D12*
%TO.C,R1*%
X125730000Y-138430000D03*
D15*
X125730000Y-146050000D03*
%TD*%
D17*
%TO.C,C2*%
X96520000Y-110397677D03*
D16*
X96520000Y-115397677D03*
%TD*%
D14*
%TO.C,D1*%
X135890000Y-94869000D03*
D20*
X135890000Y-107569000D03*
%TD*%
D12*
%TO.C,R2*%
X120650000Y-138430000D03*
D15*
X120650000Y-146050000D03*
%TD*%
D21*
%TO.C,L1*%
X99060000Y-101600000D03*
X94060000Y-101600000D03*
%TD*%
D12*
%TO.C,R6*%
X113030000Y-128270000D03*
D15*
X113030000Y-135890000D03*
%TD*%
D22*
%TO.C,J1*%
X129794000Y-95631000D03*
D23*
X124714000Y-95631000D03*
%TD*%
D12*
%TO.C,R7*%
X107950000Y-128270000D03*
D15*
X107950000Y-135890000D03*
%TD*%
D14*
%TO.C,J3*%
X137160000Y-132080000D03*
D13*
X137160000Y-128580000D03*
X137160000Y-125080000D03*
X137160000Y-121580000D03*
%TD*%
M02*
