M48
; DRILL file {KiCad (6.0.9)} date Sun Jan  1 06:14:29 2023
; FORMAT={-:-/ absolute / inch / decimal}
; #@! TF.CreationDate,2023-01-01T06:14:29+02:00
; #@! TF.GenerationSoftware,Kicad,Pcbnew,(6.0.9)
; #@! TF.FileFunction,Plated,1,2,PTH
FMAT,2
INCH
; #@! TA.AperFunction,Plated,PTH,ComponentDrill
T1C0.0315
; #@! TA.AperFunction,Plated,PTH,ComponentDrill
T2C0.0394
; #@! TA.AperFunction,Plated,PTH,ComponentDrill
T3C0.0402
; #@! TA.AperFunction,Plated,PTH,ComponentDrill
T4C0.0433
; #@! TA.AperFunction,Plated,PTH,ComponentDrill
T5C0.0472
; #@! TA.AperFunction,Plated,PTH,ComponentDrill
T6C0.0512
; #@! TA.AperFunction,Plated,PTH,ComponentDrill
T7C0.0598
%
G90
G05
T1
X4.25Y-5.05
X4.25Y-5.35
X4.35Y-5.45
X4.35Y-5.75
X4.45Y-5.05
X4.45Y-5.35
X4.55Y-5.45
X4.55Y-5.75
X4.65Y-5.05
X4.65Y-5.35
X4.75Y-5.45
X4.75Y-5.75
X4.85Y-5.05
X4.85Y-5.35
X4.95Y-5.45
X4.95Y-5.75
X5.4Y-4.4
X5.4Y-4.5378
T2
X3.8Y-4.3464
X3.8Y-4.5432
T3
X4.1Y-4.1608
X4.1Y-4.2608
X4.1Y-4.3608
X4.1Y-4.4608
X4.1Y-4.5608
X4.1Y-4.6608
X4.1Y-4.7608
X4.1Y-4.8608
X4.1Y-4.9608
X4.1Y-5.0608
X4.1Y-5.1608
X4.1Y-5.2608
X4.1Y-5.3608
X4.1Y-5.4608
X4.1Y-5.5608
X5.1Y-4.1608
X5.1Y-4.2608
X5.1Y-4.3608
X5.1Y-4.4608
X5.1Y-4.5608
X5.1Y-4.6608
X5.1Y-4.7608
X5.1Y-4.8608
X5.1Y-4.9608
X5.1Y-5.0608
X5.1Y-5.1608
X5.1Y-5.2608
X5.1Y-5.3608
X5.1Y-5.4608
X5.1Y-5.5608
T4
X4.1823Y-3.75
X4.2492Y-3.75
X4.3161Y-3.75
X4.3831Y-3.75
X4.45Y-3.75
T5
X3.7539Y-4.7866
X3.7539Y-4.9244
X3.7539Y-5.0622
X3.7539Y-5.2
X3.7539Y-5.4383
X3.7539Y-5.5761
X3.7539Y-5.7139
X3.7539Y-5.8517
X4.65Y-3.8
X5.15Y-3.8
X5.3961Y-5.4433
X5.3961Y-5.5811
X5.3961Y-5.7189
X5.3961Y-5.8567
X5.4Y-4.7866
X5.4Y-4.9244
X5.4Y-5.0622
X5.4Y-5.2
T6
X3.7031Y-4.0
X3.9Y-4.0
T7
X5.4Y-3.9378
X5.4Y-4.1378
T0
M30
