%TF.GenerationSoftware,KiCad,Pcbnew,(6.0.9)*%
%TF.CreationDate,2023-01-01T06:14:26+02:00*%
%TF.ProjectId,ESP32_LEDCONTROLLER,45535033-325f-44c4-9544-434f4e54524f,rev?*%
%TF.SameCoordinates,Original*%
%TF.FileFunction,Copper,L1,Top*%
%TF.FilePolarity,Positive*%
%FSLAX46Y46*%
G04 Gerber Fmt 4.6, Leading zero omitted, Abs format (unit mm)*
G04 Created by KiCad (PCBNEW (6.0.9)) date 2023-01-01 06:14:26*
%MOMM*%
%LPD*%
G01*
G04 APERTURE LIST*
%TA.AperFunction,ComponentPad*%
%ADD10R,2.400000X2.400000*%
%TD*%
%TA.AperFunction,ComponentPad*%
%ADD11C,2.400000*%
%TD*%
%TA.AperFunction,ComponentPad*%
%ADD12C,2.000000*%
%TD*%
%TA.AperFunction,ComponentPad*%
%ADD13R,2.000000X2.000000*%
%TD*%
%TA.AperFunction,ComponentPad*%
%ADD14C,2.600000*%
%TD*%
%TA.AperFunction,ComponentPad*%
%ADD15R,1.275000X1.800000*%
%TD*%
%TA.AperFunction,ComponentPad*%
%ADD16O,1.275000X1.800000*%
%TD*%
%TA.AperFunction,ComponentPad*%
%ADD17O,1.600000X1.600000*%
%TD*%
%TA.AperFunction,ComponentPad*%
%ADD18C,1.600000*%
%TD*%
%TA.AperFunction,ComponentPad*%
%ADD19R,1.600000X1.600000*%
%TD*%
%TA.AperFunction,ComponentPad*%
%ADD20O,2.400000X2.400000*%
%TD*%
%TA.AperFunction,ComponentPad*%
%ADD21R,3.000000X3.000000*%
%TD*%
%TA.AperFunction,ComponentPad*%
%ADD22C,3.000000*%
%TD*%
%TA.AperFunction,Conductor*%
%ADD23C,2.000000*%
%TD*%
%TA.AperFunction,Conductor*%
%ADD24C,0.250000*%
%TD*%
%TA.AperFunction,Conductor*%
%ADD25C,1.000000*%
%TD*%
%TA.AperFunction,Conductor*%
%ADD26C,0.500000*%
%TD*%
G04 APERTURE END LIST*
D10*
%TO.P,J3,1,Pin_1*%
%TO.N,VSS*%
X137160000Y-132080000D03*
D11*
%TO.P,J3,2,Pin_2*%
%TO.N,Net-(J3-Pad2)*%
X137160000Y-128580000D03*
%TO.P,J3,3,Pin_3*%
%TO.N,Net-(J3-Pad3)*%
X137160000Y-125080000D03*
%TO.P,J3,4,Pin_4*%
%TO.N,GND*%
X137160000Y-121580000D03*
%TD*%
D12*
%TO.P,U2,30,VIN*%
%TO.N,VCC*%
X104140000Y-141245000D03*
%TO.P,U2,29,GND*%
%TO.N,GND*%
X104140000Y-138705000D03*
%TO.P,U2,28,D13*%
%TO.N,unconnected-(U2-Pad28)*%
X104140000Y-136165000D03*
%TO.P,U2,27,D12*%
%TO.N,unconnected-(U2-Pad27)*%
X104140000Y-133625000D03*
%TO.P,U2,26,D14*%
%TO.N,unconnected-(U2-Pad26)*%
X104140000Y-131085000D03*
%TO.P,U2,25,D27*%
%TO.N,Net-(U2-Pad25)*%
X104140000Y-128545000D03*
%TO.P,U2,24,D26*%
%TO.N,Net-(R6-Pad1)*%
X104140000Y-126005000D03*
%TO.P,U2,23,D25*%
%TO.N,Net-(U2-Pad23)*%
X104140000Y-123465000D03*
%TO.P,U2,22,D33*%
%TO.N,Net-(R8-Pad1)*%
X104140000Y-120925000D03*
%TO.P,U2,21,D32*%
%TO.N,unconnected-(U2-Pad21)*%
X104140000Y-118385000D03*
%TO.P,U2,20,D35*%
%TO.N,unconnected-(U2-Pad20)*%
X104140000Y-115845000D03*
%TO.P,U2,19,D34*%
%TO.N,unconnected-(U2-Pad19)*%
X104140000Y-113305000D03*
%TO.P,U2,18,VN*%
%TO.N,unconnected-(U2-Pad18)*%
X104140000Y-110765000D03*
%TO.P,U2,17,VP*%
%TO.N,unconnected-(U2-Pad17)*%
X104140000Y-108225000D03*
%TO.P,U2,16,EN*%
%TO.N,unconnected-(U2-Pad16)*%
X104140000Y-105685000D03*
%TO.P,U2,15,D23*%
%TO.N,unconnected-(U2-Pad15)*%
X129540000Y-105685000D03*
%TO.P,U2,14,D22*%
%TO.N,unconnected-(U2-Pad14)*%
X129540000Y-108225000D03*
%TO.P,U2,13,TX0*%
%TO.N,unconnected-(U2-Pad13)*%
X129540000Y-110765000D03*
%TO.P,U2,12,RX0*%
%TO.N,unconnected-(U2-Pad12)*%
X129540000Y-113305000D03*
%TO.P,U2,11,D21*%
%TO.N,unconnected-(U2-Pad11)*%
X129540000Y-115845000D03*
%TO.P,U2,10,D19*%
%TO.N,unconnected-(U2-Pad10)*%
X129540000Y-118385000D03*
%TO.P,U2,9,D18*%
%TO.N,Net-(R4-Pad1)*%
X129540000Y-120925000D03*
%TO.P,U2,8,D5*%
%TO.N,Net-(R3-Pad1)*%
X129540000Y-123465000D03*
%TO.P,U2,7,TX2*%
%TO.N,unconnected-(U2-Pad7)*%
X129540000Y-126005000D03*
%TO.P,U2,6,RX2*%
%TO.N,unconnected-(U2-Pad6)*%
X129540000Y-128545000D03*
%TO.P,U2,5,D4*%
%TO.N,Net-(R2-Pad1)*%
X129540000Y-131085000D03*
%TO.P,U2,4,D2*%
%TO.N,Net-(R1-Pad1)*%
X129540000Y-133625000D03*
%TO.P,U2,3,D15*%
%TO.N,unconnected-(U2-Pad3)*%
X129540000Y-136165000D03*
%TO.P,U2,2,GND*%
%TO.N,GND*%
X129540000Y-138705000D03*
D13*
%TO.P,U2,1,3V3*%
%TO.N,unconnected-(U2-Pad1)*%
X129540000Y-141245000D03*
%TD*%
D12*
%TO.P,C2,2*%
%TO.N,GND*%
X96520000Y-110397677D03*
D13*
%TO.P,C2,1*%
%TO.N,VCC*%
X96520000Y-115397677D03*
%TD*%
D14*
%TO.P,L1,1,1*%
%TO.N,Net-(D1-Pad1)*%
X99060000Y-101600000D03*
%TO.P,L1,2,2*%
%TO.N,VCC*%
X94060000Y-101600000D03*
%TD*%
D15*
%TO.P,U1,1,VIN*%
%TO.N,VSS*%
X113030000Y-95250000D03*
D16*
%TO.P,U1,2,OUT*%
%TO.N,Net-(D1-Pad1)*%
X111330000Y-95250000D03*
%TO.P,U1,3,GND*%
%TO.N,GND*%
X109630000Y-95250000D03*
%TO.P,U1,4,FB*%
%TO.N,VCC*%
X107930000Y-95250000D03*
%TO.P,U1,5,~{ON}/OFF*%
%TO.N,GND*%
X106230000Y-95250000D03*
%TD*%
D17*
%TO.P,R8,2*%
%TO.N,Net-(J4-Pad3)*%
X123190000Y-135890000D03*
D18*
%TO.P,R8,1*%
%TO.N,Net-(R8-Pad1)*%
X123190000Y-128270000D03*
%TD*%
D10*
%TO.P,J5,1,Pin_1*%
%TO.N,GND*%
X95350000Y-121580000D03*
D11*
%TO.P,J5,2,Pin_2*%
%TO.N,Net-(J5-Pad2)*%
X95350000Y-125080000D03*
%TO.P,J5,3,Pin_3*%
%TO.N,Net-(J5-Pad3)*%
X95350000Y-128580000D03*
%TO.P,J5,4,Pin_4*%
%TO.N,VSS*%
X95350000Y-132080000D03*
%TD*%
%TO.P,J4,4,Pin_4*%
%TO.N,GND*%
X95350000Y-148633000D03*
%TO.P,J4,3,Pin_3*%
%TO.N,Net-(J4-Pad3)*%
X95350000Y-145133000D03*
%TO.P,J4,2,Pin_2*%
%TO.N,Net-(J4-Pad2)*%
X95350000Y-141633000D03*
D10*
%TO.P,J4,1,Pin_1*%
%TO.N,VSS*%
X95350000Y-138133000D03*
%TD*%
D11*
%TO.P,J2,4,Pin_4*%
%TO.N,GND*%
X137060000Y-138260000D03*
%TO.P,J2,3,Pin_3*%
%TO.N,Net-(J2-Pad3)*%
X137060000Y-141760000D03*
%TO.P,J2,2,Pin_2*%
%TO.N,Net-(J2-Pad2)*%
X137060000Y-145260000D03*
D10*
%TO.P,J2,1,Pin_1*%
%TO.N,VSS*%
X137060000Y-148760000D03*
%TD*%
D19*
%TO.P,C1,1*%
%TO.N,VSS*%
X137160000Y-111760000D03*
D18*
%TO.P,C1,2*%
%TO.N,GND*%
X137160000Y-115260000D03*
%TD*%
D17*
%TO.P,R5,2*%
%TO.N,Net-(J4-Pad2)*%
X118110000Y-135890000D03*
D18*
%TO.P,R5,1*%
%TO.N,Net-(U2-Pad23)*%
X118110000Y-128270000D03*
%TD*%
%TO.P,R4,1*%
%TO.N,Net-(R4-Pad1)*%
X110490000Y-138430000D03*
D17*
%TO.P,R4,2*%
%TO.N,Net-(J2-Pad2)*%
X110490000Y-146050000D03*
%TD*%
D18*
%TO.P,R3,1*%
%TO.N,Net-(R3-Pad1)*%
X115570000Y-138430000D03*
D17*
%TO.P,R3,2*%
%TO.N,Net-(J2-Pad3)*%
X115570000Y-146050000D03*
%TD*%
D18*
%TO.P,R1,1*%
%TO.N,Net-(R1-Pad1)*%
X125730000Y-138430000D03*
D17*
%TO.P,R1,2*%
%TO.N,Net-(J3-Pad3)*%
X125730000Y-146050000D03*
%TD*%
D20*
%TO.P,D1,2,A*%
%TO.N,GND*%
X130810000Y-96520000D03*
D10*
%TO.P,D1,1,K*%
%TO.N,Net-(D1-Pad1)*%
X118110000Y-96520000D03*
%TD*%
D18*
%TO.P,R2,1*%
%TO.N,Net-(R2-Pad1)*%
X120650000Y-138430000D03*
D17*
%TO.P,R2,2*%
%TO.N,Net-(J3-Pad2)*%
X120650000Y-146050000D03*
%TD*%
%TO.P,R6,2*%
%TO.N,Net-(J5-Pad3)*%
X113030000Y-135890000D03*
D18*
%TO.P,R6,1*%
%TO.N,Net-(R6-Pad1)*%
X113030000Y-128270000D03*
%TD*%
D21*
%TO.P,J1,1,Pin_1*%
%TO.N,GND*%
X137160000Y-105100000D03*
D22*
%TO.P,J1,2,Pin_2*%
%TO.N,VSS*%
X137160000Y-100020000D03*
%TD*%
D17*
%TO.P,R7,2*%
%TO.N,Net-(J5-Pad2)*%
X107950000Y-135890000D03*
D18*
%TO.P,R7,1*%
%TO.N,Net-(U2-Pad25)*%
X107950000Y-128270000D03*
%TD*%
D23*
%TO.N,VSS*%
X95350000Y-138133000D02*
X92032000Y-138133000D01*
X91694000Y-137795000D02*
X91694000Y-135736000D01*
X91694000Y-149987000D02*
X91694000Y-137795000D01*
D24*
X92032000Y-138133000D02*
X91694000Y-137795000D01*
D23*
X91694000Y-135736000D02*
X95350000Y-132080000D01*
X95250000Y-153543000D02*
X91694000Y-149987000D01*
X137414000Y-153543000D02*
X95250000Y-153543000D01*
X140462000Y-148463000D02*
X140462000Y-150495000D01*
X140462000Y-150495000D02*
X137414000Y-153543000D01*
D24*
X140165000Y-148760000D02*
X140462000Y-148463000D01*
D23*
X140462000Y-132207000D02*
X140462000Y-148463000D01*
X137060000Y-148760000D02*
X140165000Y-148760000D01*
D24*
X140335000Y-132080000D02*
X140462000Y-132207000D01*
D23*
X137160000Y-132080000D02*
X140335000Y-132080000D01*
X140462000Y-114935000D02*
X140462000Y-132207000D01*
D24*
%TO.N,Net-(J4-Pad3)*%
X102409000Y-144860000D02*
X102136000Y-145133000D01*
X109983396Y-140970000D02*
X106093396Y-144860000D01*
X120650000Y-140970000D02*
X109983396Y-140970000D01*
X102136000Y-145133000D02*
X95350000Y-145133000D01*
X123190000Y-138430000D02*
X120650000Y-140970000D01*
X123190000Y-135890000D02*
X123190000Y-138430000D01*
X106093396Y-144860000D02*
X102409000Y-144860000D01*
%TO.N,Net-(J4-Pad2)*%
X116205000Y-140335000D02*
X118110000Y-138430000D01*
X109982000Y-140335000D02*
X116205000Y-140335000D01*
X105907000Y-144410000D02*
X109982000Y-140335000D01*
X118110000Y-138430000D02*
X118110000Y-135890000D01*
X99596000Y-141633000D02*
X102373000Y-144410000D01*
X102373000Y-144410000D02*
X105907000Y-144410000D01*
X95350000Y-141633000D02*
X99596000Y-141633000D01*
%TO.N,Net-(J5-Pad3)*%
X96830000Y-128580000D02*
X95350000Y-128580000D01*
X99880000Y-131630000D02*
X96830000Y-128580000D01*
X102683604Y-143960000D02*
X99880000Y-141156396D01*
X99880000Y-141156396D02*
X99880000Y-131630000D01*
X105596396Y-143960000D02*
X102683604Y-143960000D01*
X109855000Y-139701396D02*
X105596396Y-143960000D01*
%TO.N,Net-(J5-Pad2)*%
X100330000Y-140970000D02*
X100330000Y-128270000D01*
X105410000Y-143510000D02*
X102870000Y-143510000D01*
X97140000Y-125080000D02*
X95350000Y-125080000D01*
X107950000Y-140970000D02*
X105410000Y-143510000D01*
X102870000Y-143510000D02*
X100330000Y-140970000D01*
X107950000Y-135890000D02*
X107950000Y-140970000D01*
X100330000Y-128270000D02*
X97140000Y-125080000D01*
D23*
%TO.N,VSS*%
X139065000Y-113665000D02*
X139192000Y-113665000D01*
X139192000Y-113665000D02*
X140462000Y-114935000D01*
X137160000Y-111760000D02*
X139065000Y-113665000D01*
D24*
%TO.N,Net-(J3-Pad3)*%
X132715000Y-127635000D02*
X135255000Y-125095000D01*
X132715000Y-131445000D02*
X132715000Y-127635000D01*
%TO.N,Net-(J3-Pad2)*%
X121775000Y-147175000D02*
X120650000Y-146050000D01*
X129686396Y-147175000D02*
X121775000Y-147175000D01*
X133350000Y-143511396D02*
X129686396Y-147175000D01*
X133350000Y-130175000D02*
X133350000Y-143511396D01*
X134945000Y-128580000D02*
X133350000Y-130175000D01*
X137160000Y-128580000D02*
X134945000Y-128580000D01*
%TO.N,Net-(J3-Pad3)*%
X132715000Y-143510000D02*
X132715000Y-131445000D01*
X130175000Y-146050000D02*
X132715000Y-143510000D01*
X135270000Y-125080000D02*
X137160000Y-125080000D01*
X125730000Y-146050000D02*
X130175000Y-146050000D01*
%TO.N,Net-(J2-Pad3)*%
X135255000Y-142875000D02*
X136370000Y-141760000D01*
X135255000Y-145415000D02*
X135255000Y-142875000D01*
X130175000Y-150495000D02*
X135255000Y-145415000D01*
X120015000Y-150495000D02*
X130175000Y-150495000D01*
X136370000Y-141760000D02*
X137060000Y-141760000D01*
X115570000Y-146050000D02*
X120015000Y-150495000D01*
%TO.N,Net-(J2-Pad2)*%
X130555000Y-151765000D02*
X137060000Y-145260000D01*
X118745000Y-151765000D02*
X130555000Y-151765000D01*
D23*
%TO.N,VSS*%
X140335000Y-100965000D02*
X140335000Y-108585000D01*
X140335000Y-108585000D02*
X137160000Y-111760000D01*
X139390000Y-100020000D02*
X140335000Y-100965000D01*
X137160000Y-100020000D02*
X139390000Y-100020000D01*
D25*
X137160000Y-96420000D02*
X133450000Y-92710000D01*
X137160000Y-100020000D02*
X137160000Y-96420000D01*
D26*
%TO.N,Net-(D1-Pad1)*%
X111330000Y-96950000D02*
X112170000Y-97790000D01*
X111330000Y-95250000D02*
X111330000Y-96950000D01*
X118110000Y-99060000D02*
X118110000Y-96520000D01*
X107315000Y-99060000D02*
X118110000Y-99060000D01*
X104775000Y-101600000D02*
X107315000Y-99060000D01*
X99060000Y-101600000D02*
X104775000Y-101600000D01*
D24*
%TO.N,Net-(J2-Pad2)*%
X113030000Y-146050000D02*
X118745000Y-151765000D01*
X110490000Y-146050000D02*
X113030000Y-146050000D01*
%TO.N,Net-(J5-Pad3)*%
X111760000Y-139700000D02*
X109855000Y-139700000D01*
X113030000Y-138430000D02*
X111760000Y-139700000D01*
X113030000Y-135890000D02*
X113030000Y-138430000D01*
D26*
%TO.N,Net-(D1-Pad1)*%
X113030000Y-97790000D02*
X112170000Y-97790000D01*
X114300000Y-96520000D02*
X113030000Y-97790000D01*
X118110000Y-96520000D02*
X114300000Y-96520000D01*
D25*
%TO.N,VCC*%
X101600000Y-138705000D02*
X104140000Y-141245000D01*
X101600000Y-116840000D02*
X101600000Y-138705000D01*
X100157677Y-115397677D02*
X101600000Y-116840000D01*
X96520000Y-115397677D02*
X100157677Y-115397677D01*
X95077677Y-115397677D02*
X96520000Y-115397677D01*
X93980000Y-114300000D02*
X95077677Y-115397677D01*
X93980000Y-101680000D02*
X93980000Y-114300000D01*
X96520000Y-99140000D02*
X93980000Y-101680000D01*
X106680000Y-92710000D02*
X107950000Y-93980000D01*
D24*
X107950000Y-93980000D02*
X107930000Y-94000000D01*
D25*
X100330000Y-92710000D02*
X106680000Y-92710000D01*
X96520000Y-96520000D02*
X100330000Y-92710000D01*
X96520000Y-99140000D02*
X96520000Y-96520000D01*
X107930000Y-94000000D02*
X107930000Y-95250000D01*
%TO.N,VSS*%
X115570000Y-92710000D02*
X113030000Y-95250000D01*
X133450000Y-92710000D02*
X115570000Y-92710000D01*
D24*
%TO.N,Net-(U2-Pad23)*%
X104140000Y-123465000D02*
X113305000Y-123465000D01*
X113305000Y-123465000D02*
X118110000Y-128270000D01*
%TO.N,Net-(R8-Pad1)*%
X115845000Y-120925000D02*
X123190000Y-128270000D01*
%TO.N,Net-(R6-Pad1)*%
X104140000Y-126005000D02*
X110765000Y-126005000D01*
X110765000Y-126005000D02*
X113030000Y-128270000D01*
%TO.N,Net-(R8-Pad1)*%
X104140000Y-120925000D02*
X115845000Y-120925000D01*
%TO.N,Net-(U2-Pad25)*%
X104140000Y-128545000D02*
X107675000Y-128545000D01*
%TO.N,Net-(R4-Pad1)*%
X125730000Y-123190000D02*
X125730000Y-129540000D01*
%TO.N,Net-(R3-Pad1)*%
X127000000Y-126005000D02*
X127000000Y-130810000D01*
%TO.N,Net-(R4-Pad1)*%
X127995000Y-120925000D02*
X125730000Y-123190000D01*
%TO.N,Net-(R3-Pad1)*%
X129540000Y-123465000D02*
X127000000Y-126005000D01*
%TO.N,Net-(R4-Pad1)*%
X129540000Y-120925000D02*
X127995000Y-120925000D01*
X125730000Y-129540000D02*
X124460000Y-130810000D01*
%TO.N,Net-(R1-Pad1)*%
X126725000Y-133625000D02*
X125730000Y-134620000D01*
X129540000Y-133625000D02*
X126725000Y-133625000D01*
%TO.N,Net-(R3-Pad1)*%
X127000000Y-130810000D02*
X125730000Y-132080000D01*
X125730000Y-132080000D02*
X118110000Y-132080000D01*
%TO.N,Net-(R2-Pad1)*%
X127000000Y-132080000D02*
X125730000Y-133350000D01*
X125730000Y-133350000D02*
X121920000Y-133350000D01*
X128270000Y-132080000D02*
X127000000Y-132080000D01*
%TO.N,Net-(R1-Pad1)*%
X125730000Y-134620000D02*
X125730000Y-138430000D01*
%TO.N,Net-(R2-Pad1)*%
X128545000Y-132080000D02*
X128270000Y-132080000D01*
X129540000Y-131085000D02*
X128545000Y-132080000D01*
X120650000Y-134620000D02*
X120650000Y-138430000D01*
X121920000Y-133350000D02*
X120650000Y-134620000D01*
%TO.N,Net-(R3-Pad1)*%
X118110000Y-132080000D02*
X115570000Y-134620000D01*
X115570000Y-134620000D02*
X115570000Y-138430000D01*
%TO.N,Net-(R4-Pad1)*%
X110490000Y-133350000D02*
X110490000Y-138430000D01*
X113030000Y-130810000D02*
X110490000Y-133350000D01*
X124460000Y-130810000D02*
X113030000Y-130810000D01*
%TO.N,Net-(U2-Pad25)*%
X107675000Y-128545000D02*
X107950000Y-128270000D01*
%TD*%
%TA.AperFunction,Conductor*%
%TO.N,GND*%
G36*
X138064388Y-90185454D02*
G01*
X138145170Y-90239430D01*
X141662570Y-93756831D01*
X141716546Y-93837613D01*
X141735500Y-93932901D01*
X141735500Y-99997953D01*
X141716546Y-100093241D01*
X141662570Y-100174023D01*
X141581788Y-100227999D01*
X141486500Y-100246953D01*
X141391212Y-100227999D01*
X141310430Y-100174023D01*
X141298007Y-100160654D01*
X141291923Y-100153606D01*
X141285448Y-100144595D01*
X141209952Y-100071434D01*
X141207166Y-100068692D01*
X140344180Y-99205706D01*
X140322713Y-99181227D01*
X140314210Y-99170146D01*
X140256500Y-99117634D01*
X140248010Y-99109536D01*
X140234194Y-99095720D01*
X140216271Y-99080734D01*
X140208446Y-99073909D01*
X140149107Y-99019914D01*
X140139715Y-99014022D01*
X140135295Y-99010667D01*
X140119619Y-98999278D01*
X140115069Y-98996116D01*
X140106562Y-98989003D01*
X140036876Y-98949255D01*
X140028001Y-98943944D01*
X139960010Y-98901293D01*
X139949719Y-98897156D01*
X139944773Y-98894636D01*
X139927334Y-98886206D01*
X139922294Y-98883898D01*
X139912663Y-98878405D01*
X139837064Y-98851634D01*
X139827310Y-98847948D01*
X139763182Y-98822169D01*
X139763179Y-98822168D01*
X139752895Y-98818034D01*
X139742046Y-98815787D01*
X139736730Y-98814182D01*
X139718079Y-98808975D01*
X139712695Y-98807593D01*
X139702244Y-98803892D01*
X139623089Y-98790930D01*
X139612860Y-98789034D01*
X139534310Y-98772767D01*
X139514680Y-98771635D01*
X139513171Y-98771548D01*
X139501004Y-98770205D01*
X139492894Y-98769609D01*
X139481954Y-98767818D01*
X139470870Y-98767992D01*
X139470868Y-98767992D01*
X139376849Y-98769469D01*
X139372938Y-98769500D01*
X138484301Y-98769500D01*
X138389013Y-98750546D01*
X138313690Y-98701864D01*
X138271438Y-98662117D01*
X138271436Y-98662115D01*
X138264714Y-98655792D01*
X138257135Y-98650534D01*
X138257131Y-98650531D01*
X138058531Y-98512757D01*
X138058529Y-98512756D01*
X138050937Y-98507489D01*
X138042645Y-98503400D01*
X138034693Y-98498716D01*
X138036014Y-98496473D01*
X137972272Y-98447549D01*
X137923704Y-98363404D01*
X137910500Y-98283395D01*
X137910500Y-96495756D01*
X137912818Y-96465106D01*
X137912973Y-96460668D01*
X137915148Y-96446370D01*
X137911320Y-96399305D01*
X137910967Y-96390614D01*
X137910919Y-96390617D01*
X137910500Y-96383404D01*
X137910500Y-96376178D01*
X137909664Y-96369004D01*
X137909663Y-96368994D01*
X137907492Y-96350371D01*
X137906637Y-96341725D01*
X137902134Y-96286358D01*
X137902133Y-96286354D01*
X137900961Y-96271941D01*
X137896878Y-96259337D01*
X137895343Y-96246172D01*
X137890409Y-96232578D01*
X137890407Y-96232571D01*
X137871435Y-96180303D01*
X137868613Y-96172086D01*
X137862293Y-96152577D01*
X137847027Y-96105454D01*
X137840152Y-96094125D01*
X137835631Y-96081669D01*
X137797204Y-96023058D01*
X137792587Y-96015739D01*
X137761995Y-95965325D01*
X137761993Y-95965323D01*
X137756239Y-95955840D01*
X137748915Y-95947548D01*
X137746203Y-95944836D01*
X137745265Y-95943838D01*
X137739677Y-95935315D01*
X137685300Y-95883803D01*
X137680473Y-95879106D01*
X136968181Y-95166814D01*
X136914205Y-95086032D01*
X136895251Y-94990744D01*
X136914205Y-94895456D01*
X136968181Y-94814674D01*
X137048963Y-94760698D01*
X137144251Y-94741744D01*
X137239539Y-94760698D01*
X137323687Y-94795553D01*
X137333195Y-94797836D01*
X137333199Y-94797837D01*
X137546886Y-94849139D01*
X137546893Y-94849140D01*
X137556406Y-94851424D01*
X137795000Y-94870202D01*
X138033594Y-94851424D01*
X138043107Y-94849140D01*
X138043114Y-94849139D01*
X138256801Y-94797837D01*
X138256805Y-94797836D01*
X138266313Y-94795553D01*
X138487427Y-94703965D01*
X138495773Y-94698851D01*
X138495778Y-94698848D01*
X138683152Y-94584024D01*
X138691491Y-94578914D01*
X138770535Y-94511405D01*
X138866039Y-94429837D01*
X138873481Y-94423481D01*
X138894520Y-94398847D01*
X139022565Y-94248925D01*
X139022566Y-94248924D01*
X139028914Y-94241491D01*
X139073708Y-94168394D01*
X139148848Y-94045778D01*
X139148851Y-94045773D01*
X139153965Y-94037427D01*
X139245553Y-93816313D01*
X139247837Y-93806801D01*
X139299139Y-93593114D01*
X139299140Y-93593107D01*
X139301424Y-93583594D01*
X139320202Y-93345000D01*
X139301424Y-93106406D01*
X139299140Y-93096893D01*
X139299139Y-93096886D01*
X139247837Y-92883199D01*
X139247836Y-92883195D01*
X139245553Y-92873687D01*
X139153965Y-92652573D01*
X139148851Y-92644227D01*
X139148848Y-92644222D01*
X139034024Y-92456848D01*
X139028914Y-92448509D01*
X138873481Y-92266519D01*
X138745894Y-92157550D01*
X138698925Y-92117435D01*
X138698924Y-92117434D01*
X138691491Y-92111086D01*
X138609739Y-92060988D01*
X138495778Y-91991152D01*
X138495773Y-91991149D01*
X138487427Y-91986035D01*
X138469852Y-91978755D01*
X138431383Y-91962821D01*
X138266313Y-91894447D01*
X138256805Y-91892164D01*
X138256801Y-91892163D01*
X138043114Y-91840861D01*
X138043107Y-91840860D01*
X138033594Y-91838576D01*
X137795000Y-91819798D01*
X137556406Y-91838576D01*
X137546893Y-91840860D01*
X137546886Y-91840861D01*
X137333199Y-91892163D01*
X137333195Y-91892164D01*
X137323687Y-91894447D01*
X137158617Y-91962821D01*
X137120149Y-91978755D01*
X137102573Y-91986035D01*
X137094227Y-91991149D01*
X137094222Y-91991152D01*
X136980261Y-92060988D01*
X136898509Y-92111086D01*
X136891076Y-92117434D01*
X136891075Y-92117435D01*
X136844106Y-92157550D01*
X136716519Y-92266519D01*
X136561086Y-92448509D01*
X136555976Y-92456848D01*
X136441152Y-92644222D01*
X136441149Y-92644227D01*
X136436035Y-92652573D01*
X136344447Y-92873687D01*
X136342164Y-92883195D01*
X136342163Y-92883199D01*
X136290861Y-93096886D01*
X136290860Y-93096893D01*
X136288576Y-93106406D01*
X136270918Y-93330766D01*
X136269798Y-93345000D01*
X136288576Y-93583594D01*
X136290860Y-93593107D01*
X136290861Y-93593114D01*
X136342163Y-93806801D01*
X136344447Y-93816313D01*
X136353270Y-93837613D01*
X136379302Y-93900461D01*
X136398256Y-93995750D01*
X136379302Y-94091038D01*
X136325325Y-94171819D01*
X136244544Y-94225795D01*
X136149255Y-94244749D01*
X136053967Y-94225795D01*
X135973186Y-94171819D01*
X134034250Y-92232883D01*
X134014223Y-92209579D01*
X134011194Y-92206330D01*
X134002617Y-92194676D01*
X133991593Y-92185311D01*
X133991589Y-92185306D01*
X133966621Y-92164094D01*
X133960241Y-92158212D01*
X133960209Y-92158248D01*
X133954803Y-92153436D01*
X133949697Y-92148330D01*
X133929335Y-92132220D01*
X133922639Y-92126730D01*
X133920157Y-92124621D01*
X133869245Y-92081368D01*
X133857445Y-92075343D01*
X133847051Y-92067119D01*
X133833942Y-92060992D01*
X133833935Y-92060988D01*
X133783575Y-92037451D01*
X133775768Y-92033635D01*
X133726275Y-92008363D01*
X133726272Y-92008362D01*
X133713384Y-92001781D01*
X133700510Y-91998631D01*
X133688507Y-91993021D01*
X133674342Y-91990075D01*
X133674340Y-91990074D01*
X133619922Y-91978755D01*
X133611475Y-91976844D01*
X133543394Y-91960185D01*
X133532352Y-91959500D01*
X133528474Y-91959500D01*
X133527155Y-91959459D01*
X133517169Y-91957382D01*
X133502709Y-91957773D01*
X133502706Y-91957773D01*
X133442263Y-91959409D01*
X133435527Y-91959500D01*
X115645756Y-91959500D01*
X115615106Y-91957182D01*
X115610668Y-91957027D01*
X115596370Y-91954852D01*
X115550879Y-91958552D01*
X115549305Y-91958680D01*
X115540614Y-91959033D01*
X115540617Y-91959081D01*
X115533404Y-91959500D01*
X115526178Y-91959500D01*
X115519004Y-91960336D01*
X115518994Y-91960337D01*
X115500371Y-91962508D01*
X115491725Y-91963363D01*
X115436358Y-91967866D01*
X115436354Y-91967867D01*
X115421941Y-91969039D01*
X115409337Y-91973122D01*
X115396172Y-91974657D01*
X115382578Y-91979591D01*
X115382571Y-91979593D01*
X115330303Y-91998565D01*
X115322086Y-92001387D01*
X115311610Y-92004781D01*
X115255454Y-92022973D01*
X115244125Y-92029848D01*
X115231669Y-92034369D01*
X115219573Y-92042300D01*
X115219572Y-92042300D01*
X115202559Y-92053454D01*
X115174390Y-92071923D01*
X115173075Y-92072785D01*
X115165727Y-92077421D01*
X115118671Y-92105976D01*
X115105840Y-92113762D01*
X115097548Y-92121085D01*
X115094819Y-92123814D01*
X115093841Y-92124733D01*
X115085315Y-92130323D01*
X115075365Y-92140826D01*
X115075363Y-92140828D01*
X115033803Y-92184700D01*
X115029106Y-92189527D01*
X113192063Y-94026570D01*
X113111281Y-94080546D01*
X113015993Y-94099500D01*
X112367826Y-94099500D01*
X112294760Y-94114034D01*
X112274368Y-94127659D01*
X112274366Y-94127660D01*
X112232295Y-94155771D01*
X112211899Y-94169399D01*
X112193302Y-94197232D01*
X112124607Y-94265929D01*
X112034848Y-94303111D01*
X111937693Y-94303112D01*
X111847933Y-94265935D01*
X111839908Y-94260341D01*
X111787013Y-94221910D01*
X111787004Y-94221905D01*
X111776446Y-94214234D01*
X111605918Y-94138310D01*
X111423333Y-94099500D01*
X111236667Y-94099500D01*
X111054082Y-94138310D01*
X110883555Y-94214234D01*
X110732539Y-94323953D01*
X110664706Y-94399289D01*
X110586864Y-94457418D01*
X110492698Y-94481334D01*
X110396549Y-94467393D01*
X110313053Y-94417719D01*
X110294622Y-94399289D01*
X110235857Y-94334024D01*
X110216566Y-94316654D01*
X110149839Y-94268174D01*
X110132342Y-94260107D01*
X110130519Y-94264062D01*
X110130000Y-94268444D01*
X110130000Y-96221713D01*
X110133760Y-96240613D01*
X110138032Y-96239764D01*
X110141880Y-96237609D01*
X110216566Y-96183346D01*
X110235857Y-96165976D01*
X110294622Y-96100711D01*
X110372468Y-96042581D01*
X110466633Y-96018666D01*
X110562783Y-96032607D01*
X110646279Y-96082282D01*
X110664699Y-96100703D01*
X110732539Y-96176047D01*
X110743094Y-96183716D01*
X110747117Y-96187338D01*
X110805246Y-96265185D01*
X110829159Y-96359351D01*
X110829500Y-96372378D01*
X110829500Y-96887070D01*
X110829167Y-96895368D01*
X110825981Y-96909447D01*
X110827080Y-96927154D01*
X110829022Y-96958461D01*
X110829500Y-96973880D01*
X110829500Y-96985940D01*
X110830754Y-96994698D01*
X110831084Y-96999327D01*
X110832284Y-97011039D01*
X110833760Y-97034829D01*
X110834859Y-97052538D01*
X110840885Y-97069229D01*
X110841083Y-97070187D01*
X110841371Y-97071832D01*
X110841883Y-97073401D01*
X110842162Y-97074355D01*
X110844677Y-97091918D01*
X110852018Y-97108063D01*
X110852020Y-97108071D01*
X110861890Y-97129778D01*
X110869426Y-97148291D01*
X110883540Y-97187387D01*
X110894005Y-97201712D01*
X110894467Y-97202581D01*
X110895200Y-97204070D01*
X110896131Y-97205430D01*
X110896672Y-97206275D01*
X110904016Y-97222428D01*
X110915597Y-97235868D01*
X110915600Y-97235873D01*
X110931158Y-97253929D01*
X110941969Y-97267543D01*
X110942849Y-97268571D01*
X110948522Y-97276336D01*
X110956049Y-97283863D01*
X110968612Y-97297395D01*
X110997600Y-97331037D01*
X111011758Y-97340214D01*
X111021496Y-97349310D01*
X111771604Y-98099418D01*
X111777229Y-98105514D01*
X111784930Y-98117720D01*
X111798224Y-98129461D01*
X111809726Y-98142976D01*
X111807736Y-98144670D01*
X111850762Y-98201148D01*
X111875581Y-98295080D01*
X111862564Y-98391359D01*
X111813694Y-98475328D01*
X111736411Y-98534203D01*
X111642479Y-98559022D01*
X111627059Y-98559500D01*
X107377918Y-98559500D01*
X107369628Y-98559167D01*
X107355552Y-98555982D01*
X107337848Y-98557080D01*
X107337845Y-98557080D01*
X107306549Y-98559022D01*
X107291131Y-98559500D01*
X107279060Y-98559500D01*
X107270289Y-98560756D01*
X107265652Y-98561086D01*
X107253966Y-98562284D01*
X107212461Y-98564859D01*
X107195776Y-98570882D01*
X107194801Y-98571084D01*
X107193170Y-98571369D01*
X107191599Y-98571882D01*
X107190640Y-98572162D01*
X107173082Y-98574677D01*
X107156933Y-98582020D01*
X107156932Y-98582020D01*
X107135240Y-98591883D01*
X107116730Y-98599419D01*
X107077613Y-98613540D01*
X107063285Y-98624007D01*
X107062422Y-98624466D01*
X107060927Y-98625202D01*
X107059571Y-98626130D01*
X107058723Y-98626672D01*
X107042572Y-98634016D01*
X107029133Y-98645596D01*
X107029128Y-98645599D01*
X107011057Y-98661170D01*
X106997469Y-98671960D01*
X106996433Y-98672847D01*
X106988664Y-98678523D01*
X106981144Y-98686043D01*
X106967612Y-98698606D01*
X106933963Y-98727600D01*
X106924785Y-98741760D01*
X106915683Y-98751504D01*
X104640616Y-101026570D01*
X104559834Y-101080546D01*
X104464546Y-101099500D01*
X100697311Y-101099500D01*
X100602023Y-101080546D01*
X100521241Y-101026570D01*
X100467265Y-100945789D01*
X100462283Y-100933761D01*
X100445777Y-100893911D01*
X100440660Y-100885560D01*
X100369180Y-100768916D01*
X100318259Y-100685821D01*
X100159759Y-100500241D01*
X99974179Y-100341741D01*
X99839271Y-100259069D01*
X99774440Y-100219340D01*
X99774435Y-100219337D01*
X99766089Y-100214223D01*
X99540612Y-100120828D01*
X99489963Y-100108668D01*
X99312817Y-100066138D01*
X99312812Y-100066137D01*
X99303302Y-100063854D01*
X99293545Y-100063086D01*
X99293544Y-100063086D01*
X99069759Y-100045474D01*
X99060000Y-100044706D01*
X99050241Y-100045474D01*
X98826456Y-100063086D01*
X98826455Y-100063086D01*
X98816698Y-100063854D01*
X98807188Y-100066137D01*
X98807183Y-100066138D01*
X98630037Y-100108668D01*
X98579388Y-100120828D01*
X98353911Y-100214223D01*
X98345565Y-100219337D01*
X98345560Y-100219340D01*
X98280729Y-100259069D01*
X98145821Y-100341741D01*
X97960241Y-100500241D01*
X97801741Y-100685821D01*
X97796630Y-100694162D01*
X97679340Y-100885560D01*
X97679338Y-100885564D01*
X97674223Y-100893911D01*
X97580828Y-101119388D01*
X97578546Y-101128893D01*
X97526140Y-101347178D01*
X97523854Y-101356698D01*
X97504706Y-101600000D01*
X97523854Y-101843302D01*
X97526137Y-101852812D01*
X97526138Y-101852817D01*
X97558601Y-101988031D01*
X97580828Y-102080612D01*
X97674223Y-102306089D01*
X97679337Y-102314435D01*
X97679340Y-102314440D01*
X97746387Y-102423850D01*
X97801741Y-102514179D01*
X97960241Y-102699759D01*
X98145821Y-102858259D01*
X98229501Y-102909538D01*
X98345560Y-102980660D01*
X98345565Y-102980663D01*
X98353911Y-102985777D01*
X98579388Y-103079172D01*
X98588893Y-103081454D01*
X98807183Y-103133862D01*
X98807188Y-103133863D01*
X98816698Y-103136146D01*
X98826455Y-103136914D01*
X98826456Y-103136914D01*
X99050241Y-103154526D01*
X99060000Y-103155294D01*
X99069759Y-103154526D01*
X99293544Y-103136914D01*
X99293545Y-103136914D01*
X99303302Y-103136146D01*
X99312812Y-103133863D01*
X99312817Y-103133862D01*
X99531107Y-103081454D01*
X99540612Y-103079172D01*
X99766089Y-102985777D01*
X99774435Y-102980663D01*
X99774440Y-102980660D01*
X99890499Y-102909538D01*
X99974179Y-102858259D01*
X100159759Y-102699759D01*
X100318259Y-102514179D01*
X100424866Y-102340213D01*
X100440662Y-102314436D01*
X100440662Y-102314435D01*
X100445777Y-102306089D01*
X100467266Y-102254209D01*
X100521242Y-102173430D01*
X100602024Y-102119454D01*
X100697311Y-102100500D01*
X104712070Y-102100500D01*
X104720368Y-102100833D01*
X104734447Y-102104019D01*
X104778600Y-102101280D01*
X104783461Y-102100978D01*
X104798880Y-102100500D01*
X104810940Y-102100500D01*
X104819698Y-102099246D01*
X104824327Y-102098916D01*
X104836039Y-102097716D01*
X104859829Y-102096240D01*
X104859831Y-102096240D01*
X104877538Y-102095141D01*
X104894229Y-102089115D01*
X104895187Y-102088917D01*
X104896832Y-102088629D01*
X104898401Y-102088117D01*
X104899355Y-102087838D01*
X104916918Y-102085323D01*
X104933063Y-102077982D01*
X104933071Y-102077980D01*
X104954778Y-102068110D01*
X104973291Y-102060574D01*
X104995700Y-102052484D01*
X105012387Y-102046460D01*
X105026712Y-102035995D01*
X105027581Y-102035533D01*
X105029070Y-102034800D01*
X105030430Y-102033869D01*
X105031275Y-102033328D01*
X105047428Y-102025984D01*
X105060868Y-102014403D01*
X105060873Y-102014400D01*
X105078929Y-101998842D01*
X105092543Y-101988031D01*
X105093571Y-101987151D01*
X105101336Y-101981478D01*
X105108863Y-101973951D01*
X105122395Y-101961388D01*
X105124017Y-101959991D01*
X105156037Y-101932400D01*
X105165214Y-101918242D01*
X105174310Y-101908504D01*
X107449384Y-99633430D01*
X107530166Y-99579454D01*
X107625454Y-99560500D01*
X118101166Y-99560500D01*
X118102687Y-99560505D01*
X118160883Y-99560861D01*
X118160886Y-99560861D01*
X118178624Y-99560969D01*
X118195681Y-99556094D01*
X118195687Y-99556093D01*
X118198416Y-99555313D01*
X118231539Y-99548242D01*
X118234358Y-99547838D01*
X118234361Y-99547837D01*
X118251918Y-99545323D01*
X118268059Y-99537984D01*
X118269897Y-99537447D01*
X118297667Y-99527229D01*
X118299416Y-99526446D01*
X118316471Y-99521572D01*
X118333886Y-99510584D01*
X118363685Y-99494506D01*
X118382428Y-99485984D01*
X118395869Y-99474402D01*
X118397480Y-99473372D01*
X118421254Y-99455781D01*
X118422716Y-99454536D01*
X118437720Y-99445070D01*
X118451352Y-99429634D01*
X118475440Y-99405839D01*
X118491037Y-99392400D01*
X118500687Y-99377511D01*
X118501943Y-99376072D01*
X118519827Y-99352512D01*
X118520881Y-99350907D01*
X118532623Y-99337612D01*
X118541373Y-99318976D01*
X118557813Y-99289379D01*
X118559364Y-99286986D01*
X118559366Y-99286982D01*
X118569015Y-99272095D01*
X118574098Y-99255097D01*
X118574902Y-99253358D01*
X118585453Y-99225728D01*
X118586013Y-99223897D01*
X118593553Y-99207837D01*
X118596722Y-99187487D01*
X118604195Y-99154462D01*
X118605011Y-99151734D01*
X118605011Y-99151732D01*
X118610093Y-99134739D01*
X118610304Y-99100252D01*
X118610344Y-99100252D01*
X118610357Y-99099910D01*
X118610500Y-99098991D01*
X118610500Y-99068834D01*
X118610505Y-99067313D01*
X118610941Y-98995977D01*
X118610941Y-98995975D01*
X118610969Y-98991376D01*
X118610520Y-98989806D01*
X118610500Y-98989510D01*
X118610500Y-98219500D01*
X118629454Y-98124212D01*
X118683430Y-98043430D01*
X118764212Y-97989454D01*
X118859500Y-97970500D01*
X119334674Y-97970500D01*
X119407740Y-97955966D01*
X119428132Y-97942341D01*
X119428134Y-97942340D01*
X119470205Y-97914229D01*
X119490601Y-97900601D01*
X119504229Y-97880205D01*
X119532340Y-97838134D01*
X119532341Y-97838132D01*
X119545966Y-97817740D01*
X119560500Y-97744674D01*
X119560500Y-97023796D01*
X129453410Y-97023796D01*
X129457027Y-97042317D01*
X129507471Y-97166546D01*
X129516653Y-97184724D01*
X129630560Y-97370602D01*
X129642588Y-97387036D01*
X129785320Y-97551810D01*
X129799879Y-97566067D01*
X129967602Y-97705314D01*
X129984282Y-97716994D01*
X130172504Y-97826981D01*
X130190879Y-97835785D01*
X130287088Y-97872524D01*
X130306796Y-97875875D01*
X130309835Y-97859396D01*
X131310000Y-97859396D01*
X131314069Y-97879854D01*
X131316396Y-97880316D01*
X131327409Y-97878700D01*
X131331097Y-97877593D01*
X131350059Y-97870162D01*
X131545836Y-97774252D01*
X131563322Y-97763828D01*
X131740799Y-97637236D01*
X131756362Y-97624084D01*
X131910777Y-97470207D01*
X131923975Y-97454700D01*
X132051194Y-97277655D01*
X132061676Y-97260209D01*
X132158268Y-97064771D01*
X132165766Y-97045833D01*
X132166487Y-97043462D01*
X132168540Y-97022711D01*
X132166645Y-97021697D01*
X132155221Y-97020000D01*
X131334527Y-97020000D01*
X131314069Y-97024069D01*
X131310000Y-97044527D01*
X131310000Y-97859396D01*
X130309835Y-97859396D01*
X130310000Y-97858503D01*
X130310000Y-97044527D01*
X130305931Y-97024069D01*
X130285473Y-97020000D01*
X129472492Y-97020000D01*
X129453410Y-97023796D01*
X119560500Y-97023796D01*
X119560500Y-96017167D01*
X129448864Y-96017167D01*
X129452179Y-96018838D01*
X129460722Y-96020000D01*
X130285473Y-96020000D01*
X130305931Y-96015931D01*
X130310000Y-95995473D01*
X131310000Y-95995473D01*
X131314069Y-96015931D01*
X131334527Y-96020000D01*
X132149290Y-96020000D01*
X132167725Y-96016333D01*
X132163601Y-95996506D01*
X132096341Y-95841819D01*
X132086719Y-95823875D01*
X131968306Y-95640836D01*
X131955883Y-95624703D01*
X131809158Y-95463456D01*
X131794275Y-95449576D01*
X131623188Y-95314459D01*
X131606217Y-95303184D01*
X131415378Y-95197836D01*
X131396789Y-95189482D01*
X131333115Y-95166934D01*
X131312750Y-95163981D01*
X131310000Y-95179987D01*
X131310000Y-95995473D01*
X130310000Y-95995473D01*
X130310000Y-95182384D01*
X130305931Y-95161926D01*
X130305142Y-95161769D01*
X130291271Y-95163979D01*
X130255892Y-95175543D01*
X130237111Y-95183437D01*
X130043743Y-95284098D01*
X130026516Y-95294946D01*
X129852178Y-95425843D01*
X129836948Y-95439364D01*
X129686333Y-95596975D01*
X129673522Y-95612794D01*
X129550664Y-95792898D01*
X129540614Y-95810590D01*
X129449653Y-96006547D01*
X129448864Y-96017167D01*
X119560500Y-96017167D01*
X119560500Y-95295326D01*
X119545966Y-95222260D01*
X119532341Y-95201868D01*
X119532340Y-95201866D01*
X119504229Y-95159795D01*
X119490601Y-95139399D01*
X119470205Y-95125771D01*
X119428134Y-95097660D01*
X119428132Y-95097659D01*
X119407740Y-95084034D01*
X119334674Y-95069500D01*
X116885326Y-95069500D01*
X116812260Y-95084034D01*
X116791868Y-95097659D01*
X116791866Y-95097660D01*
X116749795Y-95125771D01*
X116729399Y-95139399D01*
X116715771Y-95159795D01*
X116687660Y-95201866D01*
X116687659Y-95201868D01*
X116674034Y-95222260D01*
X116659500Y-95295326D01*
X116659500Y-95770500D01*
X116640546Y-95865788D01*
X116586570Y-95946570D01*
X116505788Y-96000546D01*
X116410500Y-96019500D01*
X114362923Y-96019500D01*
X114354627Y-96019167D01*
X114340552Y-96015982D01*
X114322850Y-96017080D01*
X114322848Y-96017080D01*
X114291550Y-96019022D01*
X114276132Y-96019500D01*
X114264060Y-96019500D01*
X114255289Y-96020756D01*
X114250652Y-96021086D01*
X114238966Y-96022284D01*
X114220380Y-96023437D01*
X114197461Y-96024859D01*
X114197373Y-96023437D01*
X114120341Y-96024041D01*
X114030293Y-95987568D01*
X113961057Y-95919410D01*
X113923173Y-95829945D01*
X113918000Y-95779452D01*
X113918000Y-95526507D01*
X113936954Y-95431219D01*
X113990930Y-95350437D01*
X115807937Y-93533430D01*
X115888719Y-93479454D01*
X115984007Y-93460500D01*
X133035993Y-93460500D01*
X133131281Y-93479454D01*
X133212063Y-93533430D01*
X136336570Y-96657937D01*
X136390546Y-96738719D01*
X136409500Y-96834007D01*
X136409500Y-98284276D01*
X136390546Y-98379564D01*
X136336570Y-98460346D01*
X136297024Y-98492512D01*
X136099101Y-98622275D01*
X136099095Y-98622279D01*
X136091375Y-98627341D01*
X135897265Y-98800591D01*
X135730895Y-99000629D01*
X135682281Y-99080742D01*
X135600709Y-99215168D01*
X135600706Y-99215174D01*
X135595920Y-99223061D01*
X135592351Y-99231572D01*
X135592349Y-99231576D01*
X135554619Y-99321552D01*
X135495305Y-99463001D01*
X135493032Y-99471951D01*
X135493030Y-99471957D01*
X135468063Y-99570269D01*
X135431261Y-99715177D01*
X135405194Y-99974049D01*
X135417677Y-100233930D01*
X135419476Y-100242975D01*
X135419477Y-100242982D01*
X135445078Y-100371687D01*
X135468435Y-100489112D01*
X135471556Y-100497804D01*
X135471558Y-100497812D01*
X135529887Y-100660269D01*
X135556355Y-100733989D01*
X135560727Y-100742126D01*
X135560729Y-100742130D01*
X135663697Y-100933761D01*
X135679504Y-100963180D01*
X135835177Y-101171651D01*
X136019954Y-101354823D01*
X136027406Y-101360287D01*
X136142965Y-101445018D01*
X136229775Y-101508670D01*
X136237940Y-101512966D01*
X136237945Y-101512969D01*
X136359774Y-101577066D01*
X136460033Y-101629815D01*
X136705667Y-101715594D01*
X136865894Y-101746014D01*
X136952206Y-101762401D01*
X136952208Y-101762401D01*
X136961282Y-101764124D01*
X136970507Y-101764486D01*
X136970512Y-101764487D01*
X137078796Y-101768741D01*
X137221263Y-101774339D01*
X137230438Y-101773334D01*
X137230444Y-101773334D01*
X137470713Y-101747020D01*
X137470714Y-101747020D01*
X137479898Y-101746014D01*
X137488834Y-101743661D01*
X137488836Y-101743661D01*
X137722562Y-101682126D01*
X137722568Y-101682124D01*
X137731505Y-101679771D01*
X137970557Y-101577066D01*
X138191803Y-101440155D01*
X138198851Y-101434188D01*
X138198864Y-101434179D01*
X138322569Y-101329455D01*
X138407543Y-101282353D01*
X138483453Y-101270500D01*
X138768886Y-101270500D01*
X138864174Y-101289454D01*
X138944956Y-101343430D01*
X139011570Y-101410044D01*
X139065546Y-101490826D01*
X139084500Y-101586114D01*
X139084500Y-103132458D01*
X139065546Y-103227746D01*
X139011570Y-103308528D01*
X138930788Y-103362504D01*
X138835500Y-103381458D01*
X138740214Y-103362505D01*
X138733491Y-103359720D01*
X138696628Y-103352388D01*
X138672387Y-103350000D01*
X137684527Y-103350000D01*
X137664069Y-103354069D01*
X137660000Y-103374527D01*
X137660000Y-106825473D01*
X137664069Y-106845931D01*
X137684527Y-106850000D01*
X138672387Y-106850000D01*
X138696628Y-106847612D01*
X138733491Y-106840280D01*
X138740214Y-106837495D01*
X138835503Y-106818542D01*
X138930791Y-106837497D01*
X139011571Y-106891474D01*
X139065547Y-106972256D01*
X139084500Y-107067542D01*
X139084500Y-107963886D01*
X139065546Y-108059174D01*
X139011570Y-108139956D01*
X136514956Y-110636570D01*
X136434174Y-110690546D01*
X136359450Y-110705410D01*
X136359735Y-110708301D01*
X136347564Y-110709500D01*
X136335326Y-110709500D01*
X136262260Y-110724034D01*
X136241868Y-110737659D01*
X136241866Y-110737660D01*
X136217150Y-110754175D01*
X136179399Y-110779399D01*
X136165771Y-110799795D01*
X136137660Y-110841866D01*
X136137659Y-110841868D01*
X136124034Y-110862260D01*
X136109500Y-110935326D01*
X136109500Y-111009610D01*
X136090546Y-111104898D01*
X136080560Y-111126119D01*
X136065788Y-111154020D01*
X136062040Y-111160838D01*
X136018405Y-111237337D01*
X136014702Y-111247794D01*
X136011077Y-111255711D01*
X136007737Y-111263656D01*
X136002550Y-111273453D01*
X135999181Y-111284011D01*
X135999178Y-111284017D01*
X135975769Y-111357370D01*
X135973289Y-111364739D01*
X135943892Y-111447756D01*
X135942100Y-111458698D01*
X135939948Y-111467080D01*
X135938057Y-111475542D01*
X135934684Y-111486109D01*
X135933236Y-111497105D01*
X135933235Y-111497111D01*
X135923185Y-111573440D01*
X135922043Y-111581175D01*
X135921592Y-111583930D01*
X135907818Y-111668046D01*
X135907993Y-111679144D01*
X135907357Y-111687800D01*
X135906996Y-111696421D01*
X135905547Y-111707422D01*
X135909697Y-111795413D01*
X135909941Y-111803193D01*
X135910686Y-111850633D01*
X135911324Y-111891241D01*
X135913459Y-111902124D01*
X135914363Y-111910724D01*
X135915541Y-111919323D01*
X135916063Y-111930398D01*
X135918539Y-111941209D01*
X135918540Y-111941216D01*
X135935719Y-112016223D01*
X135937346Y-112023877D01*
X135950102Y-112088895D01*
X135954299Y-112110288D01*
X135958330Y-112120626D01*
X135960746Y-112128942D01*
X135963420Y-112137173D01*
X135965897Y-112147987D01*
X135978623Y-112177822D01*
X136000450Y-112228994D01*
X136003403Y-112236230D01*
X136035386Y-112318263D01*
X136041177Y-112327713D01*
X136045021Y-112335458D01*
X136049123Y-112343108D01*
X136053476Y-112353313D01*
X136068616Y-112376361D01*
X136105089Y-112466408D01*
X136109500Y-112513068D01*
X136109500Y-112584674D01*
X136124034Y-112657740D01*
X136137659Y-112678132D01*
X136137660Y-112678134D01*
X136143728Y-112687215D01*
X136179399Y-112740601D01*
X136199795Y-112754229D01*
X136241866Y-112782340D01*
X136241868Y-112782341D01*
X136262260Y-112795966D01*
X136335326Y-112810500D01*
X136347564Y-112810500D01*
X136359735Y-112811699D01*
X136359450Y-112814590D01*
X136434174Y-112829454D01*
X136514956Y-112883430D01*
X137417851Y-113786325D01*
X137471827Y-113867107D01*
X137490781Y-113962395D01*
X137471827Y-114057683D01*
X137417851Y-114138465D01*
X137337069Y-114192441D01*
X137241781Y-114211395D01*
X137215752Y-114210031D01*
X137179476Y-114206218D01*
X137155236Y-114206049D01*
X136974431Y-114222503D01*
X136950610Y-114227047D01*
X136884163Y-114246603D01*
X136867094Y-114255546D01*
X136871980Y-114264873D01*
X138149554Y-115542447D01*
X138165575Y-115553152D01*
X138172600Y-115542637D01*
X138185019Y-115505305D01*
X138190387Y-115481677D01*
X138213798Y-115296360D01*
X138214767Y-115282504D01*
X138214984Y-115266956D01*
X138214402Y-115253077D01*
X138195601Y-115061325D01*
X138205167Y-114964642D01*
X138251003Y-114878979D01*
X138326131Y-114817377D01*
X138419115Y-114789215D01*
X138515798Y-114798781D01*
X138601461Y-114844617D01*
X138619483Y-114860957D01*
X139138570Y-115380044D01*
X139192546Y-115460826D01*
X139211500Y-115556114D01*
X139211500Y-130580500D01*
X139192546Y-130675788D01*
X139138570Y-130756570D01*
X139057788Y-130810546D01*
X138962500Y-130829500D01*
X138760624Y-130829500D01*
X138665336Y-130810546D01*
X138584554Y-130756570D01*
X138555044Y-130720610D01*
X138554229Y-130719795D01*
X138540601Y-130699399D01*
X138500818Y-130672817D01*
X138478134Y-130657660D01*
X138478132Y-130657659D01*
X138457740Y-130644034D01*
X138384674Y-130629500D01*
X135935326Y-130629500D01*
X135862260Y-130644034D01*
X135841868Y-130657659D01*
X135841866Y-130657660D01*
X135819182Y-130672817D01*
X135779399Y-130699399D01*
X135765771Y-130719795D01*
X135737660Y-130761866D01*
X135737659Y-130761868D01*
X135724034Y-130782260D01*
X135709500Y-130855326D01*
X135709500Y-133304674D01*
X135724034Y-133377740D01*
X135737659Y-133398132D01*
X135737660Y-133398134D01*
X135765771Y-133440205D01*
X135779399Y-133460601D01*
X135799795Y-133474229D01*
X135841866Y-133502340D01*
X135841868Y-133502341D01*
X135862260Y-133515966D01*
X135935326Y-133530500D01*
X138384674Y-133530500D01*
X138457740Y-133515966D01*
X138478132Y-133502341D01*
X138478134Y-133502340D01*
X138520205Y-133474229D01*
X138540601Y-133460601D01*
X138554229Y-133440205D01*
X138571568Y-133422866D01*
X138571727Y-133423025D01*
X138622282Y-133372468D01*
X138712040Y-133335286D01*
X138760624Y-133330500D01*
X138962500Y-133330500D01*
X139057788Y-133349454D01*
X139138570Y-133403430D01*
X139192546Y-133484212D01*
X139211500Y-133579500D01*
X139211500Y-147260500D01*
X139192546Y-147355788D01*
X139138570Y-147436570D01*
X139057788Y-147490546D01*
X138962500Y-147509500D01*
X138660624Y-147509500D01*
X138565336Y-147490546D01*
X138484554Y-147436570D01*
X138455044Y-147400610D01*
X138454229Y-147399795D01*
X138440601Y-147379399D01*
X138405264Y-147355788D01*
X138378134Y-147337660D01*
X138378132Y-147337659D01*
X138357740Y-147324034D01*
X138284674Y-147309500D01*
X136142677Y-147309500D01*
X136047389Y-147290546D01*
X135966607Y-147236570D01*
X135912631Y-147155788D01*
X135893677Y-147060500D01*
X135912631Y-146965212D01*
X135966607Y-146884430D01*
X136206511Y-146644526D01*
X136287293Y-146590550D01*
X136382581Y-146571596D01*
X136471409Y-146587979D01*
X136644388Y-146654034D01*
X136644393Y-146654035D01*
X136653937Y-146657680D01*
X136767226Y-146680729D01*
X136877653Y-146703196D01*
X136877655Y-146703196D01*
X136887666Y-146705233D01*
X136991566Y-146709043D01*
X137115813Y-146713599D01*
X137115818Y-146713599D01*
X137126025Y-146713973D01*
X137136156Y-146712675D01*
X137136160Y-146712675D01*
X137352479Y-146684963D01*
X137352482Y-146684962D01*
X137362609Y-146683665D01*
X137591068Y-146615125D01*
X137805264Y-146510191D01*
X137999445Y-146371683D01*
X138087572Y-146283863D01*
X138161163Y-146210529D01*
X138161164Y-146210528D01*
X138168397Y-146203320D01*
X138307582Y-146009623D01*
X138413263Y-145795795D01*
X138458846Y-145645761D01*
X138479629Y-145577357D01*
X138479630Y-145577353D01*
X138482600Y-145567577D01*
X138513733Y-145331099D01*
X138514368Y-145305146D01*
X138515309Y-145266626D01*
X138515471Y-145260000D01*
X138513480Y-145235776D01*
X138499955Y-145071280D01*
X138495927Y-145022284D01*
X138452759Y-144850423D01*
X138440312Y-144800867D01*
X138440310Y-144800861D01*
X138437821Y-144790952D01*
X138375304Y-144647173D01*
X138346790Y-144581594D01*
X138346788Y-144581591D01*
X138342712Y-144572216D01*
X138213155Y-144371951D01*
X138065474Y-144209652D01*
X138059501Y-144203088D01*
X138059500Y-144203087D01*
X138052629Y-144195536D01*
X137865445Y-144047707D01*
X137791055Y-144006642D01*
X137665577Y-143937374D01*
X137665573Y-143937372D01*
X137656631Y-143932436D01*
X137647005Y-143929027D01*
X137647000Y-143929025D01*
X137441429Y-143856229D01*
X137441430Y-143856229D01*
X137431794Y-143852817D01*
X137374477Y-143842607D01*
X137207035Y-143812780D01*
X137207029Y-143812779D01*
X137196972Y-143810988D01*
X137186751Y-143810863D01*
X137186750Y-143810863D01*
X137055398Y-143809258D01*
X136958471Y-143808074D01*
X136948370Y-143809620D01*
X136948366Y-143809620D01*
X136732798Y-143842607D01*
X136732793Y-143842608D01*
X136722698Y-143844153D01*
X136495982Y-143918255D01*
X136486911Y-143922977D01*
X136459255Y-143937374D01*
X136284414Y-144028390D01*
X136252974Y-144051996D01*
X136101852Y-144165462D01*
X136101848Y-144165465D01*
X136093675Y-144171602D01*
X136086610Y-144178995D01*
X136086609Y-144178996D01*
X136059518Y-144207345D01*
X135979982Y-144263140D01*
X135885148Y-144284251D01*
X135789455Y-144267463D01*
X135707470Y-144215333D01*
X135651675Y-144135797D01*
X135630500Y-144035315D01*
X135630500Y-143133677D01*
X135649454Y-143038389D01*
X135703430Y-142957607D01*
X135782537Y-142878500D01*
X135863319Y-142824524D01*
X135958607Y-142805570D01*
X136053895Y-142824524D01*
X136117655Y-142862987D01*
X136225176Y-142952252D01*
X136431112Y-143072591D01*
X136440655Y-143076235D01*
X136440661Y-143076238D01*
X136644388Y-143154034D01*
X136644393Y-143154035D01*
X136653937Y-143157680D01*
X136767226Y-143180729D01*
X136877653Y-143203196D01*
X136877655Y-143203196D01*
X136887666Y-143205233D01*
X136991566Y-143209043D01*
X137115813Y-143213599D01*
X137115818Y-143213599D01*
X137126025Y-143213973D01*
X137136156Y-143212675D01*
X137136160Y-143212675D01*
X137352479Y-143184963D01*
X137352482Y-143184962D01*
X137362609Y-143183665D01*
X137591068Y-143115125D01*
X137805264Y-143010191D01*
X137999445Y-142871683D01*
X138107051Y-142764452D01*
X138161163Y-142710529D01*
X138161164Y-142710528D01*
X138168397Y-142703320D01*
X138307582Y-142509623D01*
X138413263Y-142295795D01*
X138452747Y-142165837D01*
X138479629Y-142077357D01*
X138479630Y-142077353D01*
X138482600Y-142067577D01*
X138508264Y-141872638D01*
X138512869Y-141837663D01*
X138512869Y-141837660D01*
X138513733Y-141831099D01*
X138515471Y-141760000D01*
X138495927Y-141522284D01*
X138452759Y-141350423D01*
X138440312Y-141300867D01*
X138440310Y-141300861D01*
X138437821Y-141290952D01*
X138391565Y-141184570D01*
X138346790Y-141081594D01*
X138346788Y-141081591D01*
X138342712Y-141072216D01*
X138213155Y-140871951D01*
X138052629Y-140695536D01*
X137865445Y-140547707D01*
X137791055Y-140506642D01*
X137665577Y-140437374D01*
X137665573Y-140437372D01*
X137656631Y-140432436D01*
X137647005Y-140429027D01*
X137647000Y-140429025D01*
X137441429Y-140356229D01*
X137441430Y-140356229D01*
X137431794Y-140352817D01*
X137398775Y-140346935D01*
X137207035Y-140312780D01*
X137207029Y-140312779D01*
X137196972Y-140310988D01*
X137186751Y-140310863D01*
X137186750Y-140310863D01*
X137055398Y-140309258D01*
X136958471Y-140308074D01*
X136948370Y-140309620D01*
X136948366Y-140309620D01*
X136732798Y-140342607D01*
X136732793Y-140342608D01*
X136722698Y-140344153D01*
X136495982Y-140418255D01*
X136486911Y-140422977D01*
X136440704Y-140447031D01*
X136284414Y-140528390D01*
X136252974Y-140551996D01*
X136101852Y-140665462D01*
X136101848Y-140665465D01*
X136093675Y-140671602D01*
X135928887Y-140844042D01*
X135923127Y-140852486D01*
X135811229Y-141016522D01*
X135794475Y-141041082D01*
X135694051Y-141257428D01*
X135691324Y-141267263D01*
X135691322Y-141267267D01*
X135637047Y-141462977D01*
X135630309Y-141487272D01*
X135625479Y-141532466D01*
X135609265Y-141684188D01*
X135604963Y-141724440D01*
X135605552Y-141734647D01*
X135613232Y-141867844D01*
X135599795Y-141964065D01*
X135550558Y-142047820D01*
X135540715Y-142058248D01*
X135027093Y-142571870D01*
X135018602Y-142579970D01*
X135016083Y-142582262D01*
X134998790Y-142593428D01*
X134986048Y-142609591D01*
X134986047Y-142609592D01*
X134974305Y-142624487D01*
X134973539Y-142625424D01*
X134967425Y-142631538D01*
X134961452Y-142639897D01*
X134958032Y-142644682D01*
X134950986Y-142654067D01*
X134930098Y-142680562D01*
X134930097Y-142680565D01*
X134921397Y-142691600D01*
X134918395Y-142700149D01*
X134913128Y-142707519D01*
X134899428Y-142753330D01*
X134895813Y-142764452D01*
X134885168Y-142794764D01*
X134885167Y-142794769D01*
X134879977Y-142809548D01*
X134879500Y-142815055D01*
X134879500Y-142819964D01*
X134877310Y-142827287D01*
X134878037Y-142845792D01*
X134878037Y-142845794D01*
X134879308Y-142878137D01*
X134879500Y-142887913D01*
X134879500Y-145156323D01*
X134860546Y-145251611D01*
X134806570Y-145332393D01*
X130092393Y-150046570D01*
X130011611Y-150100546D01*
X129916323Y-150119500D01*
X120273677Y-150119500D01*
X120178389Y-150100546D01*
X120097607Y-150046570D01*
X116642082Y-146591045D01*
X116588106Y-146510263D01*
X116569152Y-146414975D01*
X116581881Y-146336380D01*
X116595507Y-146295419D01*
X116595507Y-146295417D01*
X116599351Y-146283863D01*
X116625171Y-146079474D01*
X116625583Y-146050000D01*
X116624138Y-146035262D01*
X119594520Y-146035262D01*
X119595539Y-146047397D01*
X119595539Y-146047399D01*
X119598573Y-146083529D01*
X119611759Y-146240553D01*
X119668544Y-146438586D01*
X119674110Y-146449416D01*
X119674111Y-146449419D01*
X119757146Y-146610988D01*
X119762712Y-146621818D01*
X119890677Y-146783270D01*
X120047564Y-146916791D01*
X120227398Y-147017297D01*
X120423329Y-147080959D01*
X120435417Y-147082400D01*
X120435420Y-147082401D01*
X120561803Y-147097470D01*
X120627894Y-147105351D01*
X120833300Y-147089546D01*
X120845031Y-147086271D01*
X120845035Y-147086270D01*
X120947382Y-147057694D01*
X121044257Y-147050324D01*
X121136578Y-147080588D01*
X121190414Y-147121451D01*
X121471870Y-147402907D01*
X121479970Y-147411398D01*
X121482262Y-147413917D01*
X121493428Y-147431210D01*
X121509591Y-147443952D01*
X121509592Y-147443953D01*
X121524487Y-147455695D01*
X121525424Y-147456461D01*
X121531538Y-147462575D01*
X121539897Y-147468548D01*
X121544682Y-147471968D01*
X121554067Y-147479014D01*
X121591600Y-147508603D01*
X121600149Y-147511605D01*
X121607519Y-147516872D01*
X121653330Y-147530573D01*
X121664459Y-147534189D01*
X121709548Y-147550023D01*
X121715055Y-147550500D01*
X121719963Y-147550500D01*
X121727286Y-147552690D01*
X121745791Y-147551963D01*
X121745793Y-147551963D01*
X121774993Y-147550816D01*
X121778137Y-147550692D01*
X121787912Y-147550500D01*
X129633193Y-147550500D01*
X129644921Y-147550776D01*
X129648341Y-147550937D01*
X129668462Y-147555269D01*
X129688901Y-147552850D01*
X129688902Y-147552850D01*
X129707717Y-147550623D01*
X129708941Y-147550500D01*
X129717589Y-147550500D01*
X129733559Y-147547842D01*
X129745148Y-147546193D01*
X129778649Y-147542228D01*
X129792606Y-147540576D01*
X129800773Y-147536654D01*
X129809709Y-147535167D01*
X129851777Y-147512468D01*
X129862233Y-147507141D01*
X129891164Y-147493249D01*
X129905296Y-147486463D01*
X129909527Y-147482906D01*
X129912997Y-147479436D01*
X129919725Y-147475806D01*
X129933170Y-147461262D01*
X129954274Y-147438431D01*
X129961051Y-147431382D01*
X133577907Y-143814526D01*
X133586398Y-143806426D01*
X133588917Y-143804134D01*
X133606210Y-143792968D01*
X133630696Y-143761908D01*
X133631461Y-143760972D01*
X133637575Y-143754858D01*
X133646968Y-143741714D01*
X133654014Y-143732329D01*
X133674902Y-143705833D01*
X133683603Y-143694796D01*
X133686605Y-143686247D01*
X133691872Y-143678877D01*
X133705573Y-143633066D01*
X133709190Y-143621934D01*
X133719831Y-143591633D01*
X133719831Y-143591632D01*
X133725023Y-143576848D01*
X133725500Y-143571341D01*
X133725500Y-143566433D01*
X133727690Y-143559110D01*
X133725692Y-143508259D01*
X133725500Y-143498484D01*
X133725500Y-139576710D01*
X136455500Y-139576710D01*
X136472988Y-139588046D01*
X136644526Y-139653551D01*
X136664095Y-139659236D01*
X136877710Y-139702696D01*
X136897937Y-139705108D01*
X137115790Y-139713097D01*
X137136138Y-139712173D01*
X137352369Y-139684472D01*
X137372292Y-139680238D01*
X137581100Y-139617592D01*
X137600057Y-139610163D01*
X137647166Y-139587085D01*
X137663719Y-139574452D01*
X137654638Y-139561744D01*
X137077342Y-138984449D01*
X137060000Y-138972861D01*
X137042658Y-138984449D01*
X136465778Y-139561328D01*
X136455500Y-139576710D01*
X133725500Y-139576710D01*
X133725500Y-138234659D01*
X135606054Y-138234659D01*
X135618603Y-138452288D01*
X135621438Y-138472465D01*
X135669363Y-138685126D01*
X135675455Y-138704563D01*
X135733481Y-138847467D01*
X135743970Y-138863403D01*
X135760359Y-138852535D01*
X136335551Y-138277342D01*
X136347139Y-138260000D01*
X137772861Y-138260000D01*
X137784449Y-138277342D01*
X138359044Y-138851938D01*
X138376386Y-138863526D01*
X138376494Y-138863454D01*
X138385408Y-138851025D01*
X138408270Y-138804768D01*
X138415765Y-138785838D01*
X138479140Y-138577247D01*
X138483444Y-138557340D01*
X138512368Y-138337636D01*
X138513394Y-138324460D01*
X138514807Y-138266611D01*
X138514426Y-138253394D01*
X138496269Y-138032548D01*
X138492943Y-138012455D01*
X138439834Y-137801020D01*
X138433273Y-137781748D01*
X138386105Y-137673271D01*
X138374862Y-137657064D01*
X138359759Y-137667347D01*
X137784449Y-138242658D01*
X137772861Y-138260000D01*
X136347139Y-138260000D01*
X136335551Y-138242658D01*
X135761312Y-137668418D01*
X135744406Y-137657122D01*
X135734752Y-137670935D01*
X135698823Y-137748336D01*
X135691792Y-137767447D01*
X135633533Y-137977523D01*
X135629718Y-137997523D01*
X135606551Y-138214286D01*
X135606054Y-138234659D01*
X133725500Y-138234659D01*
X133725500Y-136944534D01*
X136455397Y-136944534D01*
X136455809Y-136945948D01*
X136463382Y-136956276D01*
X137042658Y-137535551D01*
X137060000Y-137547139D01*
X137077342Y-137535551D01*
X137654273Y-136958621D01*
X137665861Y-136941279D01*
X137664172Y-136938751D01*
X137659353Y-136935127D01*
X137646803Y-136929487D01*
X137441293Y-136856711D01*
X137421607Y-136851510D01*
X137206988Y-136813281D01*
X137186703Y-136811363D01*
X136968732Y-136808700D01*
X136948399Y-136810122D01*
X136732918Y-136843095D01*
X136713097Y-136847817D01*
X136505892Y-136915543D01*
X136487113Y-136923436D01*
X136471663Y-136931479D01*
X136455397Y-136944534D01*
X133725500Y-136944534D01*
X133725500Y-130433677D01*
X133744454Y-130338389D01*
X133798430Y-130257607D01*
X135027608Y-129028430D01*
X135108390Y-128974454D01*
X135203678Y-128955500D01*
X135579234Y-128955500D01*
X135674522Y-128974454D01*
X135755304Y-129028430D01*
X135809940Y-129110821D01*
X135857020Y-129226767D01*
X135857022Y-129226771D01*
X135860867Y-129236239D01*
X135866204Y-129244949D01*
X135866207Y-129244954D01*
X135951699Y-129384463D01*
X135985493Y-129439609D01*
X136141660Y-129619894D01*
X136204639Y-129672180D01*
X136266334Y-129723400D01*
X136325176Y-129772252D01*
X136531112Y-129892591D01*
X136540655Y-129896235D01*
X136540661Y-129896238D01*
X136744388Y-129974034D01*
X136744393Y-129974035D01*
X136753937Y-129977680D01*
X136853311Y-129997898D01*
X136977653Y-130023196D01*
X136977655Y-130023196D01*
X136987666Y-130025233D01*
X137091566Y-130029043D01*
X137215813Y-130033599D01*
X137215818Y-130033599D01*
X137226025Y-130033973D01*
X137236156Y-130032675D01*
X137236160Y-130032675D01*
X137452479Y-130004963D01*
X137452482Y-130004962D01*
X137462609Y-130003665D01*
X137691068Y-129935125D01*
X137905264Y-129830191D01*
X138099445Y-129691683D01*
X138203778Y-129587714D01*
X138261163Y-129530529D01*
X138261164Y-129530528D01*
X138268397Y-129523320D01*
X138407582Y-129329623D01*
X138513263Y-129115795D01*
X138568035Y-128935516D01*
X138579629Y-128897357D01*
X138579630Y-128897353D01*
X138582600Y-128887577D01*
X138605987Y-128709936D01*
X138612869Y-128657663D01*
X138612869Y-128657660D01*
X138613733Y-128651099D01*
X138615471Y-128580000D01*
X138613484Y-128555825D01*
X138596764Y-128352466D01*
X138595927Y-128342284D01*
X138562400Y-128208806D01*
X138540312Y-128120867D01*
X138540310Y-128120861D01*
X138537821Y-128110952D01*
X138453646Y-127917362D01*
X138446790Y-127901594D01*
X138446788Y-127901591D01*
X138442712Y-127892216D01*
X138313155Y-127691951D01*
X138162333Y-127526200D01*
X138159501Y-127523088D01*
X138159500Y-127523087D01*
X138152629Y-127515536D01*
X138024147Y-127414067D01*
X137973463Y-127374039D01*
X137973461Y-127374038D01*
X137965445Y-127367707D01*
X137891055Y-127326642D01*
X137765577Y-127257374D01*
X137765573Y-127257372D01*
X137756631Y-127252436D01*
X137747005Y-127249027D01*
X137747000Y-127249025D01*
X137541429Y-127176229D01*
X137541430Y-127176229D01*
X137531794Y-127172817D01*
X137474477Y-127162607D01*
X137307035Y-127132780D01*
X137307029Y-127132779D01*
X137296972Y-127130988D01*
X137286751Y-127130863D01*
X137286750Y-127130863D01*
X137155398Y-127129258D01*
X137058471Y-127128074D01*
X137048370Y-127129620D01*
X137048366Y-127129620D01*
X136832798Y-127162607D01*
X136832793Y-127162608D01*
X136822698Y-127164153D01*
X136595982Y-127238255D01*
X136586911Y-127242977D01*
X136398349Y-127341136D01*
X136384414Y-127348390D01*
X136356176Y-127369592D01*
X136201852Y-127485462D01*
X136201848Y-127485465D01*
X136193675Y-127491602D01*
X136028887Y-127664042D01*
X136020451Y-127676409D01*
X135906471Y-127843497D01*
X135894475Y-127861082D01*
X135890173Y-127870350D01*
X135890169Y-127870357D01*
X135801984Y-128060337D01*
X135744673Y-128138788D01*
X135661702Y-128189334D01*
X135576130Y-128204500D01*
X134998211Y-128204500D01*
X134986481Y-128204224D01*
X134983057Y-128204062D01*
X134962934Y-128199730D01*
X134942495Y-128202149D01*
X134942494Y-128202149D01*
X134936448Y-128202865D01*
X134923634Y-128204381D01*
X134922453Y-128204500D01*
X134913807Y-128204500D01*
X134903682Y-128206185D01*
X134903674Y-128206186D01*
X134897867Y-128207153D01*
X134886250Y-128208806D01*
X134852748Y-128212771D01*
X134852747Y-128212771D01*
X134838791Y-128214423D01*
X134830622Y-128218346D01*
X134821687Y-128219833D01*
X134803590Y-128229598D01*
X134803584Y-128229600D01*
X134779632Y-128242524D01*
X134769184Y-128247848D01*
X134740762Y-128261497D01*
X134726101Y-128268537D01*
X134721869Y-128272094D01*
X134718399Y-128275564D01*
X134711671Y-128279194D01*
X134699100Y-128292793D01*
X134699098Y-128292795D01*
X134677122Y-128316569D01*
X134670345Y-128323618D01*
X133515570Y-129478393D01*
X133434788Y-129532369D01*
X133339500Y-129551323D01*
X133244212Y-129532369D01*
X133163430Y-129478393D01*
X133109454Y-129397611D01*
X133090500Y-129302323D01*
X133090500Y-127893677D01*
X133109454Y-127798389D01*
X133163430Y-127717607D01*
X135352607Y-125528430D01*
X135433389Y-125474454D01*
X135528677Y-125455500D01*
X135579234Y-125455500D01*
X135674522Y-125474454D01*
X135755304Y-125528430D01*
X135809940Y-125610821D01*
X135857020Y-125726767D01*
X135857022Y-125726771D01*
X135860867Y-125736239D01*
X135866204Y-125744949D01*
X135866207Y-125744954D01*
X135937059Y-125860573D01*
X135985493Y-125939609D01*
X136141660Y-126119894D01*
X136219445Y-126184472D01*
X136278473Y-126233478D01*
X136325176Y-126272252D01*
X136531112Y-126392591D01*
X136540655Y-126396235D01*
X136540661Y-126396238D01*
X136744388Y-126474034D01*
X136744393Y-126474035D01*
X136753937Y-126477680D01*
X136867226Y-126500729D01*
X136977653Y-126523196D01*
X136977655Y-126523196D01*
X136987666Y-126525233D01*
X137091566Y-126529043D01*
X137215813Y-126533599D01*
X137215818Y-126533599D01*
X137226025Y-126533973D01*
X137236156Y-126532675D01*
X137236160Y-126532675D01*
X137452479Y-126504963D01*
X137452482Y-126504962D01*
X137462609Y-126503665D01*
X137691068Y-126435125D01*
X137905264Y-126330191D01*
X138099445Y-126191683D01*
X138268397Y-126023320D01*
X138407582Y-125829623D01*
X138513263Y-125615795D01*
X138582600Y-125387577D01*
X138613733Y-125151099D01*
X138615471Y-125080000D01*
X138595927Y-124842284D01*
X138561351Y-124704629D01*
X138540312Y-124620867D01*
X138540310Y-124620861D01*
X138537821Y-124610952D01*
X138500784Y-124525772D01*
X138446790Y-124401594D01*
X138446788Y-124401591D01*
X138442712Y-124392216D01*
X138313155Y-124191951D01*
X138152629Y-124015536D01*
X138013829Y-123905918D01*
X137973463Y-123874039D01*
X137973461Y-123874038D01*
X137965445Y-123867707D01*
X137891055Y-123826642D01*
X137765577Y-123757374D01*
X137765573Y-123757372D01*
X137756631Y-123752436D01*
X137747005Y-123749027D01*
X137747000Y-123749025D01*
X137541429Y-123676229D01*
X137541430Y-123676229D01*
X137531794Y-123672817D01*
X137474477Y-123662607D01*
X137307035Y-123632780D01*
X137307029Y-123632779D01*
X137296972Y-123630988D01*
X137286751Y-123630863D01*
X137286750Y-123630863D01*
X137155398Y-123629258D01*
X137058471Y-123628074D01*
X137048370Y-123629620D01*
X137048366Y-123629620D01*
X136832798Y-123662607D01*
X136832793Y-123662608D01*
X136822698Y-123664153D01*
X136595982Y-123738255D01*
X136586911Y-123742977D01*
X136399571Y-123840500D01*
X136384414Y-123848390D01*
X136350253Y-123874039D01*
X136201852Y-123985462D01*
X136201848Y-123985465D01*
X136193675Y-123991602D01*
X136028887Y-124164042D01*
X136023127Y-124172486D01*
X135950084Y-124279563D01*
X135894475Y-124361082D01*
X135890173Y-124370350D01*
X135890169Y-124370357D01*
X135801984Y-124560337D01*
X135744673Y-124638788D01*
X135661702Y-124689334D01*
X135576130Y-124704500D01*
X135238807Y-124704500D01*
X135204754Y-124710168D01*
X135166987Y-124716454D01*
X135166986Y-124716454D01*
X135146687Y-124719833D01*
X135128578Y-124729604D01*
X135128575Y-124729605D01*
X135054785Y-124769420D01*
X135054784Y-124769421D01*
X135036671Y-124779194D01*
X135004198Y-124814323D01*
X135002122Y-124816569D01*
X134995345Y-124823618D01*
X132487093Y-127331870D01*
X132478602Y-127339970D01*
X132476083Y-127342262D01*
X132458790Y-127353428D01*
X132446048Y-127369591D01*
X132446047Y-127369592D01*
X132434305Y-127384487D01*
X132433539Y-127385424D01*
X132427425Y-127391538D01*
X132421452Y-127399897D01*
X132418032Y-127404682D01*
X132410986Y-127414067D01*
X132390098Y-127440562D01*
X132390097Y-127440565D01*
X132381397Y-127451600D01*
X132378395Y-127460149D01*
X132373128Y-127467519D01*
X132359428Y-127513330D01*
X132355813Y-127524452D01*
X132345168Y-127554764D01*
X132345167Y-127554769D01*
X132339977Y-127569548D01*
X132339500Y-127575055D01*
X132339500Y-127579964D01*
X132337310Y-127587287D01*
X132338037Y-127605792D01*
X132338037Y-127605794D01*
X132339308Y-127638137D01*
X132339500Y-127647913D01*
X132339500Y-143251323D01*
X132320546Y-143346611D01*
X132266570Y-143427393D01*
X130092393Y-145601570D01*
X130011611Y-145655546D01*
X129916323Y-145674500D01*
X126869773Y-145674500D01*
X126774485Y-145655546D01*
X126693703Y-145601570D01*
X126649921Y-145542401D01*
X126609218Y-145465849D01*
X126597311Y-145451249D01*
X126546853Y-145389382D01*
X126479011Y-145306200D01*
X126320275Y-145174882D01*
X126305191Y-145166726D01*
X126149764Y-145082687D01*
X126149761Y-145082686D01*
X126139055Y-145076897D01*
X126109800Y-145067841D01*
X125953891Y-145019579D01*
X125953889Y-145019579D01*
X125942254Y-145015977D01*
X125737369Y-144994443D01*
X125532203Y-145013114D01*
X125334572Y-145071280D01*
X125323776Y-145076924D01*
X125284533Y-145097440D01*
X125152002Y-145166726D01*
X124991447Y-145295815D01*
X124983619Y-145305144D01*
X124983617Y-145305146D01*
X124974817Y-145315634D01*
X124859024Y-145453630D01*
X124853160Y-145464296D01*
X124853159Y-145464298D01*
X124765639Y-145623497D01*
X124759776Y-145634162D01*
X124756098Y-145645756D01*
X124756096Y-145645761D01*
X124710583Y-145789239D01*
X124697484Y-145830532D01*
X124674520Y-146035262D01*
X124675539Y-146047397D01*
X124675539Y-146047399D01*
X124678573Y-146083529D01*
X124691759Y-146240553D01*
X124748544Y-146438586D01*
X124754112Y-146449421D01*
X124757840Y-146458836D01*
X124775295Y-146554410D01*
X124754847Y-146649389D01*
X124699609Y-146729313D01*
X124617990Y-146782014D01*
X124526326Y-146799500D01*
X122033677Y-146799500D01*
X121938389Y-146780546D01*
X121857607Y-146726570D01*
X121722082Y-146591045D01*
X121668106Y-146510263D01*
X121649152Y-146414975D01*
X121661881Y-146336380D01*
X121675507Y-146295419D01*
X121675507Y-146295417D01*
X121679351Y-146283863D01*
X121705171Y-146079474D01*
X121705583Y-146050000D01*
X121685480Y-145844970D01*
X121625935Y-145647749D01*
X121529218Y-145465849D01*
X121517311Y-145451249D01*
X121466853Y-145389382D01*
X121399011Y-145306200D01*
X121240275Y-145174882D01*
X121225191Y-145166726D01*
X121069764Y-145082687D01*
X121069761Y-145082686D01*
X121059055Y-145076897D01*
X121029800Y-145067841D01*
X120873891Y-145019579D01*
X120873889Y-145019579D01*
X120862254Y-145015977D01*
X120657369Y-144994443D01*
X120452203Y-145013114D01*
X120254572Y-145071280D01*
X120243776Y-145076924D01*
X120204533Y-145097440D01*
X120072002Y-145166726D01*
X119911447Y-145295815D01*
X119903619Y-145305144D01*
X119903617Y-145305146D01*
X119894817Y-145315634D01*
X119779024Y-145453630D01*
X119773160Y-145464296D01*
X119773159Y-145464298D01*
X119685639Y-145623497D01*
X119679776Y-145634162D01*
X119676098Y-145645756D01*
X119676096Y-145645761D01*
X119630583Y-145789239D01*
X119617484Y-145830532D01*
X119594520Y-146035262D01*
X116624138Y-146035262D01*
X116605480Y-145844970D01*
X116545935Y-145647749D01*
X116449218Y-145465849D01*
X116437311Y-145451249D01*
X116386853Y-145389382D01*
X116319011Y-145306200D01*
X116160275Y-145174882D01*
X116145191Y-145166726D01*
X115989764Y-145082687D01*
X115989761Y-145082686D01*
X115979055Y-145076897D01*
X115949800Y-145067841D01*
X115793891Y-145019579D01*
X115793889Y-145019579D01*
X115782254Y-145015977D01*
X115577369Y-144994443D01*
X115372203Y-145013114D01*
X115174572Y-145071280D01*
X115163776Y-145076924D01*
X115124533Y-145097440D01*
X114992002Y-145166726D01*
X114831447Y-145295815D01*
X114823619Y-145305144D01*
X114823617Y-145305146D01*
X114814817Y-145315634D01*
X114699024Y-145453630D01*
X114693160Y-145464296D01*
X114693159Y-145464298D01*
X114605639Y-145623497D01*
X114599776Y-145634162D01*
X114596098Y-145645756D01*
X114596096Y-145645761D01*
X114550583Y-145789239D01*
X114537484Y-145830532D01*
X114514520Y-146035262D01*
X114515539Y-146047397D01*
X114515539Y-146047399D01*
X114518573Y-146083529D01*
X114531759Y-146240553D01*
X114535115Y-146252255D01*
X114535116Y-146252263D01*
X114580018Y-146408854D01*
X114588063Y-146505675D01*
X114558444Y-146598205D01*
X114495670Y-146672357D01*
X114409297Y-146716841D01*
X114312476Y-146724886D01*
X114219946Y-146695267D01*
X114164594Y-146653557D01*
X113333130Y-145822093D01*
X113325030Y-145813602D01*
X113322738Y-145811083D01*
X113311572Y-145793790D01*
X113280512Y-145769304D01*
X113279576Y-145768539D01*
X113273462Y-145762425D01*
X113260318Y-145753032D01*
X113250933Y-145745986D01*
X113224438Y-145725098D01*
X113224435Y-145725097D01*
X113213400Y-145716397D01*
X113204851Y-145713395D01*
X113197481Y-145708128D01*
X113151670Y-145694428D01*
X113140548Y-145690813D01*
X113110236Y-145680168D01*
X113110231Y-145680167D01*
X113095452Y-145674977D01*
X113089945Y-145674500D01*
X113085036Y-145674500D01*
X113077713Y-145672310D01*
X113059208Y-145673037D01*
X113059206Y-145673037D01*
X113026863Y-145674308D01*
X113017087Y-145674500D01*
X111629773Y-145674500D01*
X111534485Y-145655546D01*
X111453703Y-145601570D01*
X111409921Y-145542401D01*
X111369218Y-145465849D01*
X111357311Y-145451249D01*
X111306853Y-145389382D01*
X111239011Y-145306200D01*
X111080275Y-145174882D01*
X111065191Y-145166726D01*
X110909764Y-145082687D01*
X110909761Y-145082686D01*
X110899055Y-145076897D01*
X110869800Y-145067841D01*
X110713891Y-145019579D01*
X110713889Y-145019579D01*
X110702254Y-145015977D01*
X110497369Y-144994443D01*
X110292203Y-145013114D01*
X110094572Y-145071280D01*
X110083776Y-145076924D01*
X110044533Y-145097440D01*
X109912002Y-145166726D01*
X109751447Y-145295815D01*
X109743619Y-145305144D01*
X109743617Y-145305146D01*
X109734817Y-145315634D01*
X109619024Y-145453630D01*
X109613160Y-145464296D01*
X109613159Y-145464298D01*
X109525639Y-145623497D01*
X109519776Y-145634162D01*
X109516098Y-145645756D01*
X109516096Y-145645761D01*
X109470583Y-145789239D01*
X109457484Y-145830532D01*
X109434520Y-146035262D01*
X109435539Y-146047397D01*
X109435539Y-146047399D01*
X109438573Y-146083529D01*
X109451759Y-146240553D01*
X109508544Y-146438586D01*
X109514110Y-146449416D01*
X109514111Y-146449419D01*
X109597146Y-146610988D01*
X109602712Y-146621818D01*
X109730677Y-146783270D01*
X109887564Y-146916791D01*
X110067398Y-147017297D01*
X110263329Y-147080959D01*
X110275417Y-147082400D01*
X110275420Y-147082401D01*
X110401803Y-147097470D01*
X110467894Y-147105351D01*
X110673300Y-147089546D01*
X110787382Y-147057694D01*
X110860004Y-147037418D01*
X110860008Y-147037416D01*
X110871725Y-147034145D01*
X110882585Y-147028659D01*
X110882588Y-147028658D01*
X111008189Y-146965212D01*
X111055610Y-146941258D01*
X111065202Y-146933764D01*
X111065205Y-146933762D01*
X111208353Y-146821923D01*
X111208355Y-146821922D01*
X111217951Y-146814424D01*
X111293784Y-146726570D01*
X111344606Y-146667692D01*
X111344608Y-146667689D01*
X111352564Y-146658472D01*
X111360487Y-146644526D01*
X111401351Y-146572591D01*
X111413328Y-146551508D01*
X111476875Y-146478018D01*
X111563709Y-146434440D01*
X111629832Y-146425500D01*
X112771323Y-146425500D01*
X112866611Y-146444454D01*
X112947393Y-146498430D01*
X118316393Y-151867430D01*
X118370369Y-151948212D01*
X118389323Y-152043500D01*
X118370369Y-152138788D01*
X118316393Y-152219570D01*
X118235611Y-152273546D01*
X118140323Y-152292500D01*
X95871114Y-152292500D01*
X95775826Y-152273546D01*
X95695044Y-152219570D01*
X93425184Y-149949710D01*
X94745500Y-149949710D01*
X94762988Y-149961046D01*
X94934526Y-150026551D01*
X94954095Y-150032236D01*
X95167710Y-150075696D01*
X95187937Y-150078108D01*
X95405790Y-150086097D01*
X95426138Y-150085173D01*
X95642369Y-150057472D01*
X95662292Y-150053238D01*
X95871100Y-149990592D01*
X95890057Y-149983163D01*
X95937166Y-149960085D01*
X95953719Y-149947452D01*
X95944638Y-149934744D01*
X95367342Y-149357449D01*
X95350000Y-149345861D01*
X95332658Y-149357449D01*
X94755778Y-149934328D01*
X94745500Y-149949710D01*
X93425184Y-149949710D01*
X93017430Y-149541956D01*
X92963454Y-149461174D01*
X92944500Y-149365886D01*
X92944500Y-148607659D01*
X93896054Y-148607659D01*
X93908603Y-148825288D01*
X93911438Y-148845465D01*
X93959363Y-149058126D01*
X93965455Y-149077563D01*
X94023481Y-149220467D01*
X94033970Y-149236403D01*
X94050359Y-149225535D01*
X94625551Y-148650342D01*
X94637139Y-148633000D01*
X96062861Y-148633000D01*
X96074449Y-148650342D01*
X96649044Y-149224938D01*
X96666386Y-149236526D01*
X96666494Y-149236454D01*
X96675408Y-149224025D01*
X96698270Y-149177768D01*
X96705765Y-149158838D01*
X96769140Y-148950247D01*
X96773444Y-148930340D01*
X96802368Y-148710636D01*
X96803394Y-148697460D01*
X96804807Y-148639626D01*
X96804426Y-148626394D01*
X96786269Y-148405548D01*
X96782943Y-148385455D01*
X96729834Y-148174020D01*
X96723273Y-148154748D01*
X96676105Y-148046271D01*
X96664862Y-148030064D01*
X96649759Y-148040347D01*
X96074449Y-148615658D01*
X96062861Y-148633000D01*
X94637139Y-148633000D01*
X94625551Y-148615658D01*
X94051312Y-148041418D01*
X94034406Y-148030122D01*
X94024752Y-148043935D01*
X93988823Y-148121336D01*
X93981792Y-148140447D01*
X93923533Y-148350523D01*
X93919718Y-148370523D01*
X93896551Y-148587286D01*
X93896054Y-148607659D01*
X92944500Y-148607659D01*
X92944500Y-147317534D01*
X94745397Y-147317534D01*
X94745809Y-147318948D01*
X94753382Y-147329276D01*
X95332658Y-147908551D01*
X95350000Y-147920139D01*
X95367342Y-147908551D01*
X95944273Y-147331621D01*
X95955861Y-147314279D01*
X95954172Y-147311751D01*
X95949353Y-147308127D01*
X95936803Y-147302487D01*
X95731293Y-147229711D01*
X95711607Y-147224510D01*
X95496988Y-147186281D01*
X95476703Y-147184363D01*
X95258732Y-147181700D01*
X95238399Y-147183122D01*
X95022918Y-147216095D01*
X95003097Y-147220817D01*
X94795892Y-147288543D01*
X94777113Y-147296436D01*
X94761663Y-147304479D01*
X94745397Y-147317534D01*
X92944500Y-147317534D01*
X92944500Y-139632500D01*
X92963454Y-139537212D01*
X93017430Y-139456430D01*
X93098212Y-139402454D01*
X93193500Y-139383500D01*
X93749376Y-139383500D01*
X93844664Y-139402454D01*
X93925446Y-139456430D01*
X93954956Y-139492390D01*
X93955771Y-139493205D01*
X93969399Y-139513601D01*
X93989795Y-139527229D01*
X94031866Y-139555340D01*
X94031868Y-139555341D01*
X94052260Y-139568966D01*
X94125326Y-139583500D01*
X96574674Y-139583500D01*
X96647740Y-139568966D01*
X96668132Y-139555341D01*
X96668134Y-139555340D01*
X96710205Y-139527229D01*
X96730601Y-139513601D01*
X96744229Y-139493205D01*
X96772340Y-139451134D01*
X96772341Y-139451132D01*
X96785966Y-139430740D01*
X96800500Y-139357674D01*
X96800500Y-136908326D01*
X96785966Y-136835260D01*
X96772341Y-136814868D01*
X96772340Y-136814866D01*
X96744229Y-136772795D01*
X96730601Y-136752399D01*
X96695264Y-136728788D01*
X96668134Y-136710660D01*
X96668132Y-136710659D01*
X96647740Y-136697034D01*
X96574674Y-136682500D01*
X94125326Y-136682500D01*
X94052260Y-136697034D01*
X94031868Y-136710659D01*
X94031866Y-136710660D01*
X94004736Y-136728788D01*
X93969399Y-136752399D01*
X93955771Y-136772795D01*
X93938432Y-136790134D01*
X93938273Y-136789975D01*
X93887718Y-136840532D01*
X93797960Y-136877714D01*
X93749376Y-136882500D01*
X93193500Y-136882500D01*
X93098212Y-136863546D01*
X93017430Y-136809570D01*
X92963454Y-136728788D01*
X92944500Y-136633500D01*
X92944500Y-136357114D01*
X92963454Y-136261826D01*
X93017430Y-136181044D01*
X95668508Y-133529966D01*
X95749290Y-133475990D01*
X95773023Y-133467539D01*
X95881068Y-133435125D01*
X95890239Y-133430632D01*
X95890242Y-133430631D01*
X96047311Y-133353683D01*
X96095264Y-133330191D01*
X96289445Y-133191683D01*
X96381964Y-133099487D01*
X96451163Y-133030529D01*
X96451164Y-133030528D01*
X96458397Y-133023320D01*
X96597582Y-132829623D01*
X96703263Y-132615795D01*
X96755025Y-132445425D01*
X96769629Y-132397357D01*
X96769630Y-132397353D01*
X96772600Y-132387577D01*
X96803733Y-132151099D01*
X96805471Y-132080000D01*
X96785927Y-131842284D01*
X96753355Y-131712607D01*
X96730312Y-131620867D01*
X96730310Y-131620861D01*
X96727821Y-131610952D01*
X96685809Y-131514330D01*
X96636790Y-131401594D01*
X96636788Y-131401591D01*
X96632712Y-131392216D01*
X96503155Y-131191951D01*
X96382820Y-131059705D01*
X96349501Y-131023088D01*
X96349500Y-131023087D01*
X96342629Y-131015536D01*
X96155445Y-130867707D01*
X96036375Y-130801977D01*
X95955577Y-130757374D01*
X95955573Y-130757372D01*
X95946631Y-130752436D01*
X95937005Y-130749027D01*
X95937000Y-130749025D01*
X95731429Y-130676229D01*
X95731430Y-130676229D01*
X95721794Y-130672817D01*
X95664477Y-130662607D01*
X95497035Y-130632780D01*
X95497029Y-130632779D01*
X95486972Y-130630988D01*
X95476751Y-130630863D01*
X95476750Y-130630863D01*
X95345398Y-130629258D01*
X95248471Y-130628074D01*
X95238370Y-130629620D01*
X95238366Y-130629620D01*
X95022798Y-130662607D01*
X95022793Y-130662608D01*
X95012698Y-130664153D01*
X94785982Y-130738255D01*
X94776911Y-130742977D01*
X94584148Y-130843323D01*
X94574414Y-130848390D01*
X94507946Y-130898296D01*
X94391852Y-130985462D01*
X94391848Y-130985465D01*
X94383675Y-130991602D01*
X94218887Y-131164042D01*
X94211019Y-131175576D01*
X94116956Y-131313467D01*
X94084475Y-131361082D01*
X93984051Y-131577428D01*
X93981322Y-131587267D01*
X93981322Y-131587268D01*
X93963177Y-131652696D01*
X93919447Y-131739454D01*
X93899303Y-131762223D01*
X90879706Y-134781820D01*
X90855227Y-134803287D01*
X90844146Y-134811790D01*
X90836682Y-134819993D01*
X90791634Y-134869500D01*
X90783536Y-134877990D01*
X90769720Y-134891806D01*
X90766171Y-134896051D01*
X90754742Y-134909720D01*
X90747888Y-134917577D01*
X90726668Y-134940897D01*
X90648519Y-134998619D01*
X90554229Y-135022041D01*
X90458154Y-135007596D01*
X90374920Y-134957485D01*
X90317198Y-134879336D01*
X90293776Y-134785046D01*
X90293500Y-134773317D01*
X90293500Y-122792387D01*
X93900000Y-122792387D01*
X93902388Y-122816628D01*
X93909721Y-122853493D01*
X93928129Y-122897934D01*
X93956134Y-122939847D01*
X93990153Y-122973866D01*
X94032066Y-123001871D01*
X94076507Y-123020279D01*
X94113372Y-123027612D01*
X94137613Y-123030000D01*
X94825473Y-123030000D01*
X94845931Y-123025931D01*
X94850000Y-123005473D01*
X95850000Y-123005473D01*
X95854069Y-123025931D01*
X95874527Y-123030000D01*
X96562387Y-123030000D01*
X96586628Y-123027612D01*
X96623493Y-123020279D01*
X96667934Y-123001871D01*
X96709847Y-122973866D01*
X96743866Y-122939847D01*
X96771871Y-122897934D01*
X96790279Y-122853493D01*
X96797612Y-122816628D01*
X96800000Y-122792387D01*
X96800000Y-122104527D01*
X96795931Y-122084069D01*
X96775473Y-122080000D01*
X95874527Y-122080000D01*
X95854069Y-122084069D01*
X95850000Y-122104527D01*
X95850000Y-123005473D01*
X94850000Y-123005473D01*
X94850000Y-122104527D01*
X94845931Y-122084069D01*
X94825473Y-122080000D01*
X93924527Y-122080000D01*
X93904069Y-122084069D01*
X93900000Y-122104527D01*
X93900000Y-122792387D01*
X90293500Y-122792387D01*
X90293500Y-121055473D01*
X93900000Y-121055473D01*
X93904069Y-121075931D01*
X93924527Y-121080000D01*
X94825473Y-121080000D01*
X94845931Y-121075931D01*
X94850000Y-121055473D01*
X95850000Y-121055473D01*
X95854069Y-121075931D01*
X95874527Y-121080000D01*
X96775473Y-121080000D01*
X96795931Y-121075931D01*
X96800000Y-121055473D01*
X96800000Y-120367613D01*
X96797612Y-120343372D01*
X96790279Y-120306507D01*
X96771871Y-120262066D01*
X96743866Y-120220153D01*
X96709847Y-120186134D01*
X96667934Y-120158129D01*
X96623493Y-120139721D01*
X96586628Y-120132388D01*
X96562387Y-120130000D01*
X95874527Y-120130000D01*
X95854069Y-120134069D01*
X95850000Y-120154527D01*
X95850000Y-121055473D01*
X94850000Y-121055473D01*
X94850000Y-120154527D01*
X94845931Y-120134069D01*
X94825473Y-120130000D01*
X94137613Y-120130000D01*
X94113372Y-120132388D01*
X94076507Y-120139721D01*
X94032066Y-120158129D01*
X93990153Y-120186134D01*
X93956134Y-120220153D01*
X93928129Y-120262066D01*
X93909721Y-120306507D01*
X93902388Y-120343372D01*
X93900000Y-120367613D01*
X93900000Y-121055473D01*
X90293500Y-121055473D01*
X90293500Y-101600000D01*
X92504706Y-101600000D01*
X92523854Y-101843302D01*
X92526137Y-101852812D01*
X92526138Y-101852817D01*
X92558601Y-101988031D01*
X92580828Y-102080612D01*
X92674223Y-102306089D01*
X92679337Y-102314435D01*
X92679340Y-102314440D01*
X92746387Y-102423850D01*
X92801741Y-102514179D01*
X92960241Y-102699759D01*
X93142214Y-102855178D01*
X93202361Y-102931474D01*
X93228732Y-103024982D01*
X93229500Y-103044518D01*
X93229500Y-114224244D01*
X93227182Y-114254894D01*
X93227027Y-114259332D01*
X93224852Y-114273630D01*
X93226661Y-114295871D01*
X93228680Y-114320695D01*
X93229033Y-114329386D01*
X93229081Y-114329383D01*
X93229500Y-114336596D01*
X93229500Y-114343822D01*
X93230336Y-114350996D01*
X93230337Y-114351006D01*
X93232508Y-114369629D01*
X93233363Y-114378275D01*
X93237748Y-114432180D01*
X93239039Y-114448059D01*
X93243122Y-114460663D01*
X93244657Y-114473828D01*
X93249591Y-114487422D01*
X93249593Y-114487429D01*
X93268565Y-114539697D01*
X93271387Y-114547914D01*
X93292973Y-114614546D01*
X93299848Y-114625875D01*
X93304369Y-114638331D01*
X93342796Y-114696942D01*
X93347413Y-114704261D01*
X93374122Y-114748275D01*
X93383761Y-114764160D01*
X93391085Y-114772452D01*
X93393797Y-114775164D01*
X93394735Y-114776162D01*
X93400323Y-114784685D01*
X93452971Y-114834559D01*
X93454699Y-114836196D01*
X93459526Y-114840893D01*
X94493430Y-115874798D01*
X94513444Y-115898088D01*
X94516485Y-115901349D01*
X94525060Y-115913001D01*
X94536087Y-115922369D01*
X94561042Y-115943570D01*
X94567437Y-115949465D01*
X94567468Y-115949430D01*
X94572874Y-115954242D01*
X94577980Y-115959348D01*
X94583649Y-115963833D01*
X94583650Y-115963834D01*
X94598342Y-115975458D01*
X94605066Y-115980971D01*
X94647407Y-116016943D01*
X94647409Y-116016945D01*
X94658432Y-116026309D01*
X94670231Y-116032334D01*
X94680626Y-116040558D01*
X94744109Y-116070228D01*
X94751895Y-116074034D01*
X94814293Y-116105896D01*
X94827163Y-116109045D01*
X94839170Y-116114657D01*
X94853335Y-116117603D01*
X94853337Y-116117604D01*
X94882171Y-116123601D01*
X94907763Y-116128925D01*
X94916228Y-116130840D01*
X94973501Y-116144855D01*
X94973515Y-116144857D01*
X94984283Y-116147492D01*
X94995325Y-116148177D01*
X94999202Y-116148177D01*
X95000521Y-116148218D01*
X95010508Y-116150295D01*
X95024967Y-116149904D01*
X95039379Y-116151190D01*
X95039081Y-116154534D01*
X95109538Y-116166580D01*
X95191748Y-116218354D01*
X95247888Y-116297647D01*
X95269500Y-116399116D01*
X95269500Y-116422351D01*
X95284034Y-116495417D01*
X95297659Y-116515809D01*
X95297660Y-116515811D01*
X95325771Y-116557882D01*
X95339399Y-116578278D01*
X95359795Y-116591906D01*
X95401866Y-116620017D01*
X95401868Y-116620018D01*
X95422260Y-116633643D01*
X95495326Y-116648177D01*
X97544674Y-116648177D01*
X97617740Y-116633643D01*
X97638132Y-116620018D01*
X97638134Y-116620017D01*
X97680205Y-116591906D01*
X97700601Y-116578278D01*
X97714229Y-116557882D01*
X97742340Y-116515811D01*
X97742341Y-116515809D01*
X97755966Y-116495417D01*
X97770500Y-116422351D01*
X97770500Y-116397177D01*
X97789454Y-116301889D01*
X97843430Y-116221107D01*
X97924212Y-116167131D01*
X98019500Y-116148177D01*
X99743670Y-116148177D01*
X99838958Y-116167131D01*
X99919740Y-116221108D01*
X100776570Y-117077939D01*
X100830546Y-117158720D01*
X100849500Y-117254008D01*
X100849500Y-127657323D01*
X100830546Y-127752611D01*
X100776570Y-127833393D01*
X100695788Y-127887369D01*
X100600500Y-127906323D01*
X100505212Y-127887369D01*
X100424430Y-127833393D01*
X97443130Y-124852093D01*
X97435030Y-124843602D01*
X97432738Y-124841083D01*
X97421572Y-124823790D01*
X97390512Y-124799304D01*
X97389576Y-124798539D01*
X97383462Y-124792425D01*
X97370318Y-124783032D01*
X97360933Y-124775986D01*
X97334438Y-124755098D01*
X97334435Y-124755097D01*
X97323400Y-124746397D01*
X97314851Y-124743395D01*
X97307481Y-124738128D01*
X97261670Y-124724428D01*
X97250548Y-124720813D01*
X97220236Y-124710168D01*
X97220231Y-124710167D01*
X97205452Y-124704977D01*
X97199945Y-124704500D01*
X97195036Y-124704500D01*
X97187713Y-124702310D01*
X97169208Y-124703037D01*
X97169206Y-124703037D01*
X97136863Y-124704308D01*
X97127087Y-124704500D01*
X96931748Y-124704500D01*
X96836460Y-124685546D01*
X96755678Y-124631570D01*
X96703400Y-124554788D01*
X96636790Y-124401594D01*
X96636788Y-124401591D01*
X96632712Y-124392216D01*
X96503155Y-124191951D01*
X96342629Y-124015536D01*
X96203829Y-123905918D01*
X96163463Y-123874039D01*
X96163461Y-123874038D01*
X96155445Y-123867707D01*
X96081055Y-123826642D01*
X95955577Y-123757374D01*
X95955573Y-123757372D01*
X95946631Y-123752436D01*
X95937005Y-123749027D01*
X95937000Y-123749025D01*
X95731429Y-123676229D01*
X95731430Y-123676229D01*
X95721794Y-123672817D01*
X95664477Y-123662607D01*
X95497035Y-123632780D01*
X95497029Y-123632779D01*
X95486972Y-123630988D01*
X95476751Y-123630863D01*
X95476750Y-123630863D01*
X95345398Y-123629258D01*
X95248471Y-123628074D01*
X95238370Y-123629620D01*
X95238366Y-123629620D01*
X95022798Y-123662607D01*
X95022793Y-123662608D01*
X95012698Y-123664153D01*
X94785982Y-123738255D01*
X94776911Y-123742977D01*
X94589571Y-123840500D01*
X94574414Y-123848390D01*
X94540253Y-123874039D01*
X94391852Y-123985462D01*
X94391848Y-123985465D01*
X94383675Y-123991602D01*
X94218887Y-124164042D01*
X94213127Y-124172486D01*
X94140084Y-124279563D01*
X94084475Y-124361082D01*
X93984051Y-124577428D01*
X93981324Y-124587263D01*
X93981322Y-124587267D01*
X93928096Y-124779194D01*
X93920309Y-124807272D01*
X93915519Y-124852093D01*
X93906235Y-124938970D01*
X93894963Y-125044440D01*
X93895552Y-125054647D01*
X93904339Y-125207031D01*
X93908694Y-125282562D01*
X93961131Y-125515245D01*
X93964974Y-125524709D01*
X94047021Y-125726767D01*
X94050867Y-125736239D01*
X94056204Y-125744949D01*
X94056207Y-125744954D01*
X94127059Y-125860573D01*
X94175493Y-125939609D01*
X94331660Y-126119894D01*
X94409445Y-126184472D01*
X94468473Y-126233478D01*
X94515176Y-126272252D01*
X94721112Y-126392591D01*
X94730655Y-126396235D01*
X94730661Y-126396238D01*
X94934388Y-126474034D01*
X94934393Y-126474035D01*
X94943937Y-126477680D01*
X95057226Y-126500729D01*
X95167653Y-126523196D01*
X95167655Y-126523196D01*
X95177666Y-126525233D01*
X95281566Y-126529043D01*
X95405813Y-126533599D01*
X95405818Y-126533599D01*
X95416025Y-126533973D01*
X95426156Y-126532675D01*
X95426160Y-126532675D01*
X95642479Y-126504963D01*
X95642482Y-126504962D01*
X95652609Y-126503665D01*
X95881068Y-126435125D01*
X96095264Y-126330191D01*
X96289445Y-126191683D01*
X96458397Y-126023320D01*
X96597582Y-125829623D01*
X96695476Y-125631551D01*
X96754686Y-125554526D01*
X96838868Y-125506022D01*
X96935202Y-125493424D01*
X97029025Y-125518652D01*
X97094770Y-125565807D01*
X99881570Y-128352607D01*
X99935546Y-128433389D01*
X99954500Y-128528677D01*
X99954500Y-130572323D01*
X99935546Y-130667611D01*
X99881570Y-130748393D01*
X99800788Y-130802369D01*
X99705500Y-130821323D01*
X99610212Y-130802369D01*
X99529430Y-130748393D01*
X97133130Y-128352093D01*
X97125030Y-128343602D01*
X97122738Y-128341083D01*
X97111572Y-128323790D01*
X97080512Y-128299304D01*
X97079576Y-128298539D01*
X97073462Y-128292425D01*
X97060318Y-128283032D01*
X97050933Y-128275986D01*
X97024438Y-128255098D01*
X97024435Y-128255097D01*
X97013400Y-128246397D01*
X97004851Y-128243395D01*
X96997481Y-128238128D01*
X96951670Y-128224428D01*
X96940548Y-128220813D01*
X96910236Y-128210168D01*
X96910231Y-128210167D01*
X96895452Y-128204977D01*
X96889945Y-128204500D01*
X96885036Y-128204500D01*
X96877713Y-128202310D01*
X96877668Y-128202312D01*
X96792390Y-128165413D01*
X96724775Y-128095647D01*
X96705604Y-128059857D01*
X96702757Y-128053308D01*
X96643646Y-127917362D01*
X96636790Y-127901594D01*
X96636788Y-127901591D01*
X96632712Y-127892216D01*
X96503155Y-127691951D01*
X96352333Y-127526200D01*
X96349501Y-127523088D01*
X96349500Y-127523087D01*
X96342629Y-127515536D01*
X96214147Y-127414067D01*
X96163463Y-127374039D01*
X96163461Y-127374038D01*
X96155445Y-127367707D01*
X96081055Y-127326642D01*
X95955577Y-127257374D01*
X95955573Y-127257372D01*
X95946631Y-127252436D01*
X95937005Y-127249027D01*
X95937000Y-127249025D01*
X95731429Y-127176229D01*
X95731430Y-127176229D01*
X95721794Y-127172817D01*
X95664477Y-127162607D01*
X95497035Y-127132780D01*
X95497029Y-127132779D01*
X95486972Y-127130988D01*
X95476751Y-127130863D01*
X95476750Y-127130863D01*
X95345398Y-127129258D01*
X95248471Y-127128074D01*
X95238370Y-127129620D01*
X95238366Y-127129620D01*
X95022798Y-127162607D01*
X95022793Y-127162608D01*
X95012698Y-127164153D01*
X94785982Y-127238255D01*
X94776911Y-127242977D01*
X94588349Y-127341136D01*
X94574414Y-127348390D01*
X94546176Y-127369592D01*
X94391852Y-127485462D01*
X94391848Y-127485465D01*
X94383675Y-127491602D01*
X94218887Y-127664042D01*
X94210451Y-127676409D01*
X94096471Y-127843497D01*
X94084475Y-127861082D01*
X93984051Y-128077428D01*
X93981324Y-128087263D01*
X93981322Y-128087267D01*
X93924324Y-128292795D01*
X93920309Y-128307272D01*
X93915519Y-128352093D01*
X93896648Y-128528677D01*
X93894963Y-128544440D01*
X93895552Y-128554647D01*
X93907565Y-128762977D01*
X93908694Y-128782562D01*
X93961131Y-129015245D01*
X93964974Y-129024709D01*
X94047021Y-129226767D01*
X94050867Y-129236239D01*
X94056204Y-129244949D01*
X94056207Y-129244954D01*
X94141699Y-129384463D01*
X94175493Y-129439609D01*
X94331660Y-129619894D01*
X94394639Y-129672180D01*
X94456334Y-129723400D01*
X94515176Y-129772252D01*
X94721112Y-129892591D01*
X94730655Y-129896235D01*
X94730661Y-129896238D01*
X94934388Y-129974034D01*
X94934393Y-129974035D01*
X94943937Y-129977680D01*
X95043311Y-129997898D01*
X95167653Y-130023196D01*
X95167655Y-130023196D01*
X95177666Y-130025233D01*
X95281566Y-130029043D01*
X95405813Y-130033599D01*
X95405818Y-130033599D01*
X95416025Y-130033973D01*
X95426156Y-130032675D01*
X95426160Y-130032675D01*
X95642479Y-130004963D01*
X95642482Y-130004962D01*
X95652609Y-130003665D01*
X95881068Y-129935125D01*
X96095264Y-129830191D01*
X96289445Y-129691683D01*
X96393778Y-129587714D01*
X96451163Y-129530529D01*
X96451164Y-129530528D01*
X96458397Y-129523320D01*
X96597582Y-129329623D01*
X96602107Y-129320468D01*
X96667432Y-129248553D01*
X96755305Y-129207111D01*
X96852348Y-129202452D01*
X96943787Y-129235284D01*
X96991609Y-129272646D01*
X99431570Y-131712607D01*
X99485546Y-131793389D01*
X99504500Y-131888677D01*
X99504500Y-141008500D01*
X99485546Y-141103788D01*
X99431570Y-141184570D01*
X99350788Y-141238546D01*
X99255500Y-141257500D01*
X96931748Y-141257500D01*
X96836460Y-141238546D01*
X96755678Y-141184570D01*
X96703400Y-141107788D01*
X96636790Y-140954594D01*
X96636788Y-140954591D01*
X96632712Y-140945216D01*
X96503155Y-140744951D01*
X96342629Y-140568536D01*
X96180872Y-140440788D01*
X96163463Y-140427039D01*
X96163461Y-140427038D01*
X96155445Y-140420707D01*
X96023227Y-140347719D01*
X95955577Y-140310374D01*
X95955573Y-140310372D01*
X95946631Y-140305436D01*
X95937005Y-140302027D01*
X95937000Y-140302025D01*
X95731429Y-140229229D01*
X95731430Y-140229229D01*
X95721794Y-140225817D01*
X95664477Y-140215607D01*
X95497035Y-140185780D01*
X95497029Y-140185779D01*
X95486972Y-140183988D01*
X95476751Y-140183863D01*
X95476750Y-140183863D01*
X95345398Y-140182258D01*
X95248471Y-140181074D01*
X95238370Y-140182620D01*
X95238366Y-140182620D01*
X95022798Y-140215607D01*
X95022793Y-140215608D01*
X95012698Y-140217153D01*
X94785982Y-140291255D01*
X94776911Y-140295977D01*
X94661168Y-140356229D01*
X94574414Y-140401390D01*
X94545663Y-140422977D01*
X94391852Y-140538462D01*
X94391848Y-140538465D01*
X94383675Y-140544602D01*
X94322653Y-140608458D01*
X94235308Y-140699859D01*
X94218887Y-140717042D01*
X94213127Y-140725486D01*
X94107361Y-140880533D01*
X94084475Y-140914082D01*
X93984051Y-141130428D01*
X93981324Y-141140263D01*
X93981322Y-141140267D01*
X93924372Y-141345623D01*
X93920309Y-141360272D01*
X93919223Y-141370437D01*
X93901907Y-141532466D01*
X93894963Y-141597440D01*
X93908694Y-141835562D01*
X93961131Y-142068245D01*
X93964974Y-142077709D01*
X94042923Y-142269674D01*
X94050867Y-142289239D01*
X94056204Y-142297949D01*
X94056207Y-142297954D01*
X94148550Y-142448643D01*
X94175493Y-142492609D01*
X94331660Y-142672894D01*
X94371721Y-142706153D01*
X94502894Y-142815055D01*
X94515176Y-142825252D01*
X94721112Y-142945591D01*
X94730655Y-142949235D01*
X94730661Y-142949238D01*
X94934388Y-143027034D01*
X94934393Y-143027035D01*
X94943937Y-143030680D01*
X94981828Y-143038389D01*
X95167653Y-143076196D01*
X95167655Y-143076196D01*
X95177666Y-143078233D01*
X95281566Y-143082043D01*
X95405813Y-143086599D01*
X95405818Y-143086599D01*
X95416025Y-143086973D01*
X95426156Y-143085675D01*
X95426160Y-143085675D01*
X95642479Y-143057963D01*
X95642482Y-143057962D01*
X95652609Y-143056665D01*
X95881068Y-142988125D01*
X96095264Y-142883191D01*
X96289445Y-142744683D01*
X96409251Y-142625295D01*
X96451163Y-142583529D01*
X96451164Y-142583528D01*
X96458397Y-142576320D01*
X96597582Y-142382623D01*
X96703263Y-142168795D01*
X96704720Y-142164001D01*
X96756235Y-142084217D01*
X96836159Y-142028979D01*
X96935048Y-142008500D01*
X99337323Y-142008500D01*
X99432611Y-142027454D01*
X99513393Y-142081430D01*
X101764393Y-144332430D01*
X101818369Y-144413212D01*
X101837323Y-144508500D01*
X101818369Y-144603788D01*
X101764393Y-144684570D01*
X101683611Y-144738546D01*
X101588323Y-144757500D01*
X96931748Y-144757500D01*
X96836460Y-144738546D01*
X96755678Y-144684570D01*
X96703400Y-144607788D01*
X96636790Y-144454594D01*
X96636788Y-144454591D01*
X96632712Y-144445216D01*
X96503155Y-144244951D01*
X96342629Y-144068536D01*
X96176549Y-143937374D01*
X96163463Y-143927039D01*
X96163461Y-143927038D01*
X96155445Y-143920707D01*
X96029214Y-143851024D01*
X95955577Y-143810374D01*
X95955573Y-143810372D01*
X95946631Y-143805436D01*
X95937005Y-143802027D01*
X95937000Y-143802025D01*
X95731429Y-143729229D01*
X95731430Y-143729229D01*
X95721794Y-143725817D01*
X95664477Y-143715607D01*
X95497035Y-143685780D01*
X95497029Y-143685779D01*
X95486972Y-143683988D01*
X95476751Y-143683863D01*
X95476750Y-143683863D01*
X95345398Y-143682258D01*
X95248471Y-143681074D01*
X95238370Y-143682620D01*
X95238366Y-143682620D01*
X95022798Y-143715607D01*
X95022793Y-143715608D01*
X95012698Y-143717153D01*
X94785982Y-143791255D01*
X94776911Y-143795977D01*
X94661168Y-143856229D01*
X94574414Y-143901390D01*
X94545663Y-143922977D01*
X94391852Y-144038462D01*
X94391848Y-144038465D01*
X94383675Y-144044602D01*
X94218887Y-144217042D01*
X94213127Y-144225486D01*
X94107361Y-144380533D01*
X94084475Y-144414082D01*
X93984051Y-144630428D01*
X93981324Y-144640263D01*
X93981322Y-144640267D01*
X93936784Y-144800867D01*
X93920309Y-144860272D01*
X93919223Y-144870437D01*
X93896540Y-145082687D01*
X93894963Y-145097440D01*
X93908694Y-145335562D01*
X93961131Y-145568245D01*
X93964974Y-145577709D01*
X94042773Y-145769305D01*
X94050867Y-145789239D01*
X94056204Y-145797949D01*
X94056207Y-145797954D01*
X94128693Y-145916239D01*
X94175493Y-145992609D01*
X94331660Y-146172894D01*
X94515176Y-146325252D01*
X94721112Y-146445591D01*
X94730655Y-146449235D01*
X94730661Y-146449238D01*
X94934388Y-146527034D01*
X94934393Y-146527035D01*
X94943937Y-146530680D01*
X95046309Y-146551508D01*
X95167653Y-146576196D01*
X95167655Y-146576196D01*
X95177666Y-146578233D01*
X95281566Y-146582043D01*
X95405813Y-146586599D01*
X95405818Y-146586599D01*
X95416025Y-146586973D01*
X95426156Y-146585675D01*
X95426160Y-146585675D01*
X95642479Y-146557963D01*
X95642482Y-146557962D01*
X95652609Y-146556665D01*
X95881068Y-146488125D01*
X96095264Y-146383191D01*
X96289445Y-146244683D01*
X96458397Y-146076320D01*
X96597582Y-145882623D01*
X96703263Y-145668795D01*
X96704720Y-145664001D01*
X96756235Y-145584217D01*
X96836159Y-145528979D01*
X96935048Y-145508500D01*
X102082797Y-145508500D01*
X102094525Y-145508776D01*
X102097945Y-145508937D01*
X102118066Y-145513269D01*
X102138505Y-145510850D01*
X102138506Y-145510850D01*
X102157321Y-145508623D01*
X102158545Y-145508500D01*
X102167193Y-145508500D01*
X102183163Y-145505842D01*
X102194752Y-145504193D01*
X102228253Y-145500228D01*
X102242210Y-145498576D01*
X102250377Y-145494654D01*
X102259313Y-145493167D01*
X102301381Y-145470468D01*
X102311837Y-145465141D01*
X102340768Y-145451249D01*
X102354900Y-145444463D01*
X102359131Y-145440906D01*
X102362601Y-145437436D01*
X102369329Y-145433806D01*
X102403878Y-145396431D01*
X102410655Y-145389382D01*
X102491607Y-145308430D01*
X102572389Y-145254454D01*
X102667677Y-145235500D01*
X106040193Y-145235500D01*
X106051921Y-145235776D01*
X106055341Y-145235937D01*
X106075462Y-145240269D01*
X106095901Y-145237850D01*
X106095902Y-145237850D01*
X106114717Y-145235623D01*
X106115941Y-145235500D01*
X106124589Y-145235500D01*
X106140559Y-145232842D01*
X106152148Y-145231193D01*
X106185649Y-145227228D01*
X106199606Y-145225576D01*
X106207773Y-145221654D01*
X106216709Y-145220167D01*
X106258777Y-145197468D01*
X106269233Y-145192141D01*
X106298164Y-145178249D01*
X106312296Y-145171463D01*
X106316527Y-145167906D01*
X106319997Y-145164436D01*
X106326725Y-145160806D01*
X106361274Y-145123431D01*
X106368051Y-145116382D01*
X109214760Y-142269674D01*
X128289500Y-142269674D01*
X128304034Y-142342740D01*
X128317659Y-142363132D01*
X128317660Y-142363134D01*
X128345771Y-142405205D01*
X128359399Y-142425601D01*
X128379795Y-142439229D01*
X128421866Y-142467340D01*
X128421868Y-142467341D01*
X128442260Y-142480966D01*
X128515326Y-142495500D01*
X130564674Y-142495500D01*
X130637740Y-142480966D01*
X130658132Y-142467341D01*
X130658134Y-142467340D01*
X130700205Y-142439229D01*
X130720601Y-142425601D01*
X130734229Y-142405205D01*
X130762340Y-142363134D01*
X130762341Y-142363132D01*
X130775966Y-142342740D01*
X130790500Y-142269674D01*
X130790500Y-140220326D01*
X130775966Y-140147260D01*
X130762341Y-140126868D01*
X130762340Y-140126866D01*
X130734229Y-140084795D01*
X130720601Y-140064399D01*
X130700205Y-140050771D01*
X130658134Y-140022660D01*
X130658132Y-140022659D01*
X130637740Y-140009034D01*
X130564674Y-139994500D01*
X130210216Y-139994500D01*
X130114928Y-139975546D01*
X130034146Y-139921570D01*
X130006246Y-139888319D01*
X129982970Y-139855077D01*
X129557341Y-139429448D01*
X129540000Y-139417861D01*
X129522659Y-139429448D01*
X129098965Y-139853142D01*
X129078456Y-139883836D01*
X129009758Y-139952535D01*
X128919998Y-139989715D01*
X128871420Y-139994500D01*
X128515326Y-139994500D01*
X128442260Y-140009034D01*
X128421868Y-140022659D01*
X128421866Y-140022660D01*
X128379795Y-140050771D01*
X128359399Y-140064399D01*
X128345771Y-140084795D01*
X128317660Y-140126866D01*
X128317659Y-140126868D01*
X128304034Y-140147260D01*
X128289500Y-140220326D01*
X128289500Y-142269674D01*
X109214760Y-142269674D01*
X110066004Y-141418430D01*
X110146786Y-141364454D01*
X110242074Y-141345500D01*
X120596797Y-141345500D01*
X120608525Y-141345776D01*
X120611945Y-141345937D01*
X120632066Y-141350269D01*
X120652505Y-141347850D01*
X120652506Y-141347850D01*
X120671321Y-141345623D01*
X120672545Y-141345500D01*
X120681193Y-141345500D01*
X120697163Y-141342842D01*
X120708752Y-141341193D01*
X120742253Y-141337228D01*
X120756210Y-141335576D01*
X120764377Y-141331654D01*
X120773313Y-141330167D01*
X120815381Y-141307468D01*
X120825837Y-141302141D01*
X120854768Y-141288249D01*
X120868900Y-141281463D01*
X120873131Y-141277906D01*
X120876601Y-141274436D01*
X120883329Y-141270806D01*
X120897176Y-141255827D01*
X120917878Y-141233431D01*
X120924655Y-141226382D01*
X123417907Y-138733130D01*
X123426398Y-138725030D01*
X123428917Y-138722738D01*
X123446210Y-138711572D01*
X123459934Y-138694164D01*
X123470695Y-138680513D01*
X123471461Y-138679576D01*
X123477575Y-138673462D01*
X123486968Y-138660318D01*
X123494014Y-138650933D01*
X123514902Y-138624437D01*
X123523603Y-138613400D01*
X123526605Y-138604851D01*
X123531872Y-138597481D01*
X123545573Y-138551670D01*
X123549190Y-138540538D01*
X123559831Y-138510237D01*
X123559831Y-138510236D01*
X123565023Y-138495452D01*
X123565500Y-138489945D01*
X123565500Y-138485037D01*
X123567690Y-138477714D01*
X123565691Y-138426837D01*
X123565500Y-138417088D01*
X123565500Y-137030476D01*
X123584454Y-136935188D01*
X123638430Y-136854406D01*
X123702230Y-136808223D01*
X123744740Y-136786749D01*
X123744741Y-136786748D01*
X123755610Y-136781258D01*
X123765202Y-136773764D01*
X123765205Y-136773762D01*
X123908353Y-136661923D01*
X123908355Y-136661922D01*
X123917951Y-136654424D01*
X124052564Y-136498472D01*
X124073387Y-136461818D01*
X124148306Y-136329936D01*
X124148306Y-136329935D01*
X124154323Y-136319344D01*
X124219351Y-136123863D01*
X124245171Y-135919474D01*
X124245583Y-135890000D01*
X124225480Y-135684970D01*
X124165935Y-135487749D01*
X124069218Y-135305849D01*
X124059434Y-135293852D01*
X123993767Y-135213337D01*
X123939011Y-135146200D01*
X123780275Y-135014882D01*
X123750197Y-134998619D01*
X123609764Y-134922687D01*
X123609761Y-134922686D01*
X123599055Y-134916897D01*
X123569800Y-134907841D01*
X123413891Y-134859579D01*
X123413889Y-134859579D01*
X123402254Y-134855977D01*
X123197369Y-134834443D01*
X122992203Y-134853114D01*
X122794572Y-134911280D01*
X122612002Y-135006726D01*
X122451447Y-135135815D01*
X122319024Y-135293630D01*
X122313160Y-135304296D01*
X122313159Y-135304298D01*
X122275332Y-135373105D01*
X122219776Y-135474162D01*
X122216098Y-135485756D01*
X122216096Y-135485761D01*
X122165886Y-135644046D01*
X122157484Y-135670532D01*
X122134520Y-135875262D01*
X122135539Y-135887397D01*
X122135539Y-135887399D01*
X122138811Y-135926359D01*
X122151759Y-136080553D01*
X122208544Y-136278586D01*
X122214110Y-136289416D01*
X122214111Y-136289419D01*
X122256630Y-136372152D01*
X122302712Y-136461818D01*
X122430677Y-136623270D01*
X122439950Y-136631162D01*
X122439952Y-136631164D01*
X122578292Y-136748900D01*
X122587564Y-136756791D01*
X122685209Y-136811363D01*
X122686977Y-136812351D01*
X122760909Y-136875384D01*
X122805092Y-136961911D01*
X122814500Y-137029709D01*
X122814500Y-138171323D01*
X122795546Y-138266611D01*
X122741570Y-138347393D01*
X122052440Y-139036523D01*
X121971658Y-139090499D01*
X121876370Y-139109453D01*
X121781082Y-139090499D01*
X121700300Y-139036523D01*
X121646324Y-138955741D01*
X121627370Y-138860453D01*
X121640100Y-138781856D01*
X121663480Y-138711572D01*
X121679351Y-138663863D01*
X121705171Y-138459474D01*
X121705583Y-138430000D01*
X121685480Y-138224970D01*
X121625935Y-138027749D01*
X121529218Y-137845849D01*
X121399011Y-137686200D01*
X121240275Y-137554882D01*
X121156071Y-137509353D01*
X121081265Y-137447359D01*
X121035878Y-137361457D01*
X121025500Y-137290320D01*
X121025500Y-134878677D01*
X121044454Y-134783389D01*
X121098430Y-134702607D01*
X122002607Y-133798430D01*
X122083389Y-133744454D01*
X122178677Y-133725500D01*
X125492323Y-133725500D01*
X125587611Y-133744454D01*
X125668393Y-133798430D01*
X125722369Y-133879212D01*
X125741323Y-133974500D01*
X125722369Y-134069788D01*
X125668393Y-134150570D01*
X125502093Y-134316870D01*
X125493602Y-134324970D01*
X125491083Y-134327262D01*
X125473790Y-134338428D01*
X125461048Y-134354591D01*
X125461047Y-134354592D01*
X125449305Y-134369487D01*
X125448539Y-134370424D01*
X125442425Y-134376538D01*
X125436452Y-134384897D01*
X125433032Y-134389682D01*
X125425986Y-134399067D01*
X125405098Y-134425562D01*
X125405097Y-134425565D01*
X125396397Y-134436600D01*
X125393395Y-134445149D01*
X125388128Y-134452519D01*
X125374428Y-134498330D01*
X125370813Y-134509452D01*
X125360168Y-134539764D01*
X125360167Y-134539769D01*
X125354977Y-134554548D01*
X125354500Y-134560055D01*
X125354500Y-134564964D01*
X125352310Y-134572287D01*
X125353037Y-134590792D01*
X125353037Y-134590794D01*
X125354308Y-134623137D01*
X125354500Y-134632913D01*
X125354500Y-137290063D01*
X125335546Y-137385351D01*
X125281570Y-137466133D01*
X125220864Y-137510726D01*
X125152002Y-137546726D01*
X124991447Y-137675815D01*
X124859024Y-137833630D01*
X124853160Y-137844296D01*
X124853159Y-137844298D01*
X124846392Y-137856607D01*
X124759776Y-138014162D01*
X124756098Y-138025756D01*
X124756096Y-138025761D01*
X124751765Y-138039415D01*
X124697484Y-138210532D01*
X124674520Y-138415262D01*
X124675539Y-138427397D01*
X124675539Y-138427399D01*
X124689936Y-138598839D01*
X124691759Y-138620553D01*
X124748544Y-138818586D01*
X124754110Y-138829416D01*
X124754111Y-138829419D01*
X124837146Y-138990988D01*
X124842712Y-139001818D01*
X124970677Y-139163270D01*
X124979950Y-139171162D01*
X124979952Y-139171164D01*
X125007283Y-139194424D01*
X125127564Y-139296791D01*
X125214606Y-139345437D01*
X125294222Y-139389933D01*
X125307398Y-139397297D01*
X125318978Y-139401060D01*
X125318979Y-139401060D01*
X125336285Y-139406683D01*
X125503329Y-139460959D01*
X125515417Y-139462400D01*
X125515420Y-139462401D01*
X125604370Y-139473007D01*
X125707894Y-139485351D01*
X125913300Y-139469546D01*
X126007751Y-139443175D01*
X126100004Y-139417418D01*
X126100008Y-139417416D01*
X126111725Y-139414145D01*
X126122585Y-139408659D01*
X126122588Y-139408658D01*
X126202285Y-139368400D01*
X126295610Y-139321258D01*
X126305202Y-139313764D01*
X126305205Y-139313762D01*
X126448353Y-139201923D01*
X126448355Y-139201922D01*
X126457951Y-139194424D01*
X126592564Y-139038472D01*
X126603316Y-139019546D01*
X126688306Y-138869936D01*
X126688306Y-138869935D01*
X126694323Y-138859344D01*
X126742062Y-138715836D01*
X128286173Y-138715836D01*
X128303340Y-138912057D01*
X128307101Y-138933387D01*
X128358084Y-139123658D01*
X128364739Y-139141942D01*
X128376203Y-139157577D01*
X128389923Y-139147970D01*
X128815552Y-138722341D01*
X128827139Y-138705000D01*
X130252861Y-138705000D01*
X130264448Y-138722341D01*
X130688139Y-139146032D01*
X130705079Y-139157351D01*
X130714605Y-139143746D01*
X130721916Y-139123658D01*
X130772899Y-138933387D01*
X130776660Y-138912057D01*
X130793827Y-138715836D01*
X130793827Y-138694164D01*
X130776660Y-138497943D01*
X130772899Y-138476613D01*
X130721916Y-138286342D01*
X130715261Y-138268058D01*
X130703797Y-138252423D01*
X130690077Y-138262030D01*
X130264448Y-138687659D01*
X130252861Y-138705000D01*
X128827139Y-138705000D01*
X128815552Y-138687659D01*
X128391861Y-138263968D01*
X128374921Y-138252649D01*
X128365395Y-138266254D01*
X128358084Y-138286342D01*
X128307101Y-138476613D01*
X128303340Y-138497943D01*
X128286173Y-138694164D01*
X128286173Y-138715836D01*
X126742062Y-138715836D01*
X126759351Y-138663863D01*
X126785171Y-138459474D01*
X126785583Y-138430000D01*
X126765480Y-138224970D01*
X126705935Y-138027749D01*
X126609218Y-137845849D01*
X126479011Y-137686200D01*
X126320275Y-137554882D01*
X126236071Y-137509353D01*
X126161265Y-137447359D01*
X126115878Y-137361457D01*
X126105500Y-137290320D01*
X126105500Y-134878677D01*
X126124454Y-134783389D01*
X126178430Y-134702607D01*
X126807607Y-134073430D01*
X126888389Y-134019454D01*
X126983677Y-134000500D01*
X128176694Y-134000500D01*
X128271982Y-134019454D01*
X128352764Y-134073430D01*
X128402364Y-134144268D01*
X128452898Y-134252638D01*
X128578402Y-134431877D01*
X128733123Y-134586598D01*
X128742026Y-134592832D01*
X128742032Y-134592837D01*
X128882269Y-134691033D01*
X128949453Y-134761214D01*
X128984665Y-134851764D01*
X128982546Y-134948895D01*
X128943416Y-135037822D01*
X128882269Y-135098969D01*
X128733123Y-135203402D01*
X128578402Y-135358123D01*
X128452898Y-135537362D01*
X128360425Y-135735670D01*
X128303793Y-135947023D01*
X128284723Y-136165000D01*
X128303793Y-136382977D01*
X128360425Y-136594330D01*
X128365022Y-136604188D01*
X128438952Y-136762730D01*
X128452898Y-136792638D01*
X128578402Y-136971877D01*
X128733123Y-137126598D01*
X128742021Y-137132828D01*
X128742024Y-137132831D01*
X128903462Y-137245871D01*
X128912361Y-137252102D01*
X128922203Y-137256691D01*
X128922211Y-137256696D01*
X128946799Y-137268161D01*
X129025149Y-137325609D01*
X129075551Y-137408668D01*
X129090331Y-137504692D01*
X129087670Y-137531713D01*
X129086501Y-137539309D01*
X129086718Y-137540195D01*
X129097030Y-137554923D01*
X129522659Y-137980552D01*
X129540000Y-137992139D01*
X129557341Y-137980552D01*
X129981032Y-137556861D01*
X129993865Y-137537654D01*
X129994082Y-137536565D01*
X129994083Y-137445316D01*
X130031263Y-137355556D01*
X130099963Y-137286858D01*
X130133064Y-137268225D01*
X130157791Y-137256694D01*
X130167639Y-137252102D01*
X130176538Y-137245871D01*
X130337976Y-137132831D01*
X130337979Y-137132828D01*
X130346877Y-137126598D01*
X130501598Y-136971877D01*
X130627102Y-136792638D01*
X130641049Y-136762730D01*
X130714978Y-136604188D01*
X130719575Y-136594330D01*
X130776207Y-136382977D01*
X130795277Y-136165000D01*
X130776207Y-135947023D01*
X130719575Y-135735670D01*
X130627102Y-135537362D01*
X130501598Y-135358123D01*
X130346877Y-135203402D01*
X130337978Y-135197171D01*
X130337971Y-135197165D01*
X130197732Y-135098969D01*
X130130548Y-135028788D01*
X130095335Y-134938239D01*
X130097454Y-134841107D01*
X130136583Y-134752180D01*
X130197732Y-134691031D01*
X130337971Y-134592835D01*
X130337978Y-134592829D01*
X130346877Y-134586598D01*
X130501598Y-134431877D01*
X130627102Y-134252638D01*
X130719575Y-134054330D01*
X130776207Y-133842977D01*
X130795277Y-133625000D01*
X130776207Y-133407023D01*
X130719575Y-133195670D01*
X130678012Y-133106538D01*
X130631697Y-133007215D01*
X130631695Y-133007211D01*
X130627102Y-132997362D01*
X130501598Y-132818123D01*
X130346877Y-132663402D01*
X130337978Y-132657171D01*
X130337971Y-132657165D01*
X130197732Y-132558969D01*
X130130548Y-132488788D01*
X130095335Y-132398239D01*
X130097454Y-132301107D01*
X130136583Y-132212180D01*
X130197732Y-132151031D01*
X130337971Y-132052835D01*
X130337978Y-132052829D01*
X130346877Y-132046598D01*
X130501598Y-131891877D01*
X130627102Y-131712638D01*
X130639736Y-131685546D01*
X130714978Y-131524188D01*
X130719575Y-131514330D01*
X130776207Y-131302977D01*
X130795277Y-131085000D01*
X130776207Y-130867023D01*
X130719575Y-130655670D01*
X130697819Y-130609014D01*
X130631697Y-130467215D01*
X130631695Y-130467211D01*
X130627102Y-130457362D01*
X130501598Y-130278123D01*
X130346877Y-130123402D01*
X130337978Y-130117171D01*
X130337971Y-130117165D01*
X130197732Y-130018969D01*
X130130548Y-129948788D01*
X130095335Y-129858239D01*
X130097454Y-129761107D01*
X130136583Y-129672180D01*
X130197732Y-129611031D01*
X130337971Y-129512835D01*
X130337978Y-129512829D01*
X130346877Y-129506598D01*
X130501598Y-129351877D01*
X130627102Y-129172638D01*
X130641049Y-129142730D01*
X130714978Y-128984188D01*
X130719575Y-128974330D01*
X130776207Y-128762977D01*
X130795277Y-128545000D01*
X130776207Y-128327023D01*
X130719575Y-128115670D01*
X130627102Y-127917362D01*
X130501598Y-127738123D01*
X130346877Y-127583402D01*
X130337978Y-127577171D01*
X130337971Y-127577165D01*
X130197732Y-127478969D01*
X130130548Y-127408788D01*
X130095335Y-127318239D01*
X130097454Y-127221107D01*
X130136583Y-127132180D01*
X130197732Y-127071031D01*
X130337971Y-126972835D01*
X130337978Y-126972829D01*
X130346877Y-126966598D01*
X130501598Y-126811877D01*
X130627102Y-126632638D01*
X130673111Y-126533973D01*
X130714978Y-126444188D01*
X130719575Y-126434330D01*
X130776207Y-126222977D01*
X130795277Y-126005000D01*
X130776207Y-125787023D01*
X130719575Y-125575670D01*
X130714976Y-125565807D01*
X130631697Y-125387215D01*
X130631695Y-125387211D01*
X130627102Y-125377362D01*
X130501598Y-125198123D01*
X130346877Y-125043402D01*
X130337978Y-125037171D01*
X130337971Y-125037165D01*
X130197732Y-124938969D01*
X130130548Y-124868788D01*
X130095335Y-124778239D01*
X130097454Y-124681107D01*
X130136583Y-124592180D01*
X130197732Y-124531031D01*
X130337971Y-124432835D01*
X130337978Y-124432829D01*
X130346877Y-124426598D01*
X130501598Y-124271877D01*
X130627102Y-124092638D01*
X130663056Y-124015536D01*
X130714978Y-123904188D01*
X130719575Y-123894330D01*
X130776207Y-123682977D01*
X130795277Y-123465000D01*
X130776207Y-123247023D01*
X130719575Y-123035670D01*
X130678012Y-122946538D01*
X130654777Y-122896710D01*
X136555500Y-122896710D01*
X136572988Y-122908046D01*
X136744526Y-122973551D01*
X136764095Y-122979236D01*
X136977710Y-123022696D01*
X136997937Y-123025108D01*
X137215790Y-123033097D01*
X137236138Y-123032173D01*
X137452369Y-123004472D01*
X137472292Y-123000238D01*
X137681100Y-122937592D01*
X137700057Y-122930163D01*
X137747166Y-122907085D01*
X137763719Y-122894452D01*
X137754638Y-122881744D01*
X137177342Y-122304449D01*
X137160000Y-122292861D01*
X137142658Y-122304449D01*
X136565778Y-122881328D01*
X136555500Y-122896710D01*
X130654777Y-122896710D01*
X130631697Y-122847215D01*
X130631695Y-122847211D01*
X130627102Y-122837362D01*
X130501598Y-122658123D01*
X130346877Y-122503402D01*
X130337978Y-122497171D01*
X130337971Y-122497165D01*
X130197732Y-122398969D01*
X130130548Y-122328788D01*
X130095335Y-122238239D01*
X130097454Y-122141107D01*
X130136583Y-122052180D01*
X130197732Y-121991031D01*
X130337971Y-121892835D01*
X130337978Y-121892829D01*
X130346877Y-121886598D01*
X130501598Y-121731877D01*
X130625687Y-121554659D01*
X135706054Y-121554659D01*
X135718603Y-121772288D01*
X135721438Y-121792465D01*
X135769363Y-122005126D01*
X135775455Y-122024563D01*
X135833481Y-122167467D01*
X135843970Y-122183403D01*
X135860359Y-122172535D01*
X136435551Y-121597342D01*
X136447139Y-121580000D01*
X137872861Y-121580000D01*
X137884449Y-121597342D01*
X138459044Y-122171938D01*
X138476386Y-122183526D01*
X138476494Y-122183454D01*
X138485408Y-122171025D01*
X138508270Y-122124768D01*
X138515765Y-122105838D01*
X138579140Y-121897247D01*
X138583444Y-121877340D01*
X138612368Y-121657636D01*
X138613394Y-121644460D01*
X138614807Y-121586626D01*
X138614426Y-121573394D01*
X138596269Y-121352548D01*
X138592943Y-121332455D01*
X138539834Y-121121020D01*
X138533273Y-121101748D01*
X138486105Y-120993271D01*
X138474862Y-120977064D01*
X138459759Y-120987347D01*
X137884449Y-121562658D01*
X137872861Y-121580000D01*
X136447139Y-121580000D01*
X136435551Y-121562658D01*
X135861312Y-120988418D01*
X135844406Y-120977122D01*
X135834752Y-120990935D01*
X135798823Y-121068336D01*
X135791792Y-121087447D01*
X135733533Y-121297523D01*
X135729718Y-121317523D01*
X135706551Y-121534286D01*
X135706054Y-121554659D01*
X130625687Y-121554659D01*
X130627102Y-121552638D01*
X130653155Y-121496769D01*
X130714978Y-121364188D01*
X130719575Y-121354330D01*
X130776207Y-121142977D01*
X130789729Y-120988418D01*
X130794330Y-120935825D01*
X130795277Y-120925000D01*
X130776207Y-120707023D01*
X130719575Y-120495670D01*
X130627102Y-120297362D01*
X130604116Y-120264534D01*
X136555397Y-120264534D01*
X136555809Y-120265948D01*
X136563382Y-120276276D01*
X137142658Y-120855551D01*
X137160000Y-120867139D01*
X137177342Y-120855551D01*
X137754273Y-120278621D01*
X137765861Y-120261279D01*
X137764172Y-120258751D01*
X137759353Y-120255127D01*
X137746803Y-120249487D01*
X137541293Y-120176711D01*
X137521607Y-120171510D01*
X137306988Y-120133281D01*
X137286703Y-120131363D01*
X137068732Y-120128700D01*
X137048399Y-120130122D01*
X136832918Y-120163095D01*
X136813097Y-120167817D01*
X136605892Y-120235543D01*
X136587113Y-120243436D01*
X136571663Y-120251479D01*
X136555397Y-120264534D01*
X130604116Y-120264534D01*
X130501598Y-120118123D01*
X130346877Y-119963402D01*
X130337978Y-119957171D01*
X130337971Y-119957165D01*
X130197732Y-119858969D01*
X130130548Y-119788788D01*
X130095335Y-119698239D01*
X130097454Y-119601107D01*
X130136583Y-119512180D01*
X130197732Y-119451031D01*
X130337971Y-119352835D01*
X130337978Y-119352829D01*
X130346877Y-119346598D01*
X130501598Y-119191877D01*
X130627102Y-119012638D01*
X130719575Y-118814330D01*
X130776207Y-118602977D01*
X130795277Y-118385000D01*
X130776207Y-118167023D01*
X130719575Y-117955670D01*
X130627102Y-117757362D01*
X130501598Y-117578123D01*
X130346877Y-117423402D01*
X130337978Y-117417171D01*
X130337971Y-117417165D01*
X130197732Y-117318969D01*
X130130548Y-117248788D01*
X130095335Y-117158239D01*
X130097454Y-117061107D01*
X130136583Y-116972180D01*
X130197732Y-116911031D01*
X130337971Y-116812835D01*
X130337978Y-116812829D01*
X130346877Y-116806598D01*
X130501598Y-116651877D01*
X130627102Y-116472638D01*
X130644309Y-116435739D01*
X130708702Y-116297647D01*
X130719575Y-116274330D01*
X130721965Y-116265410D01*
X136867013Y-116265410D01*
X136877141Y-116272177D01*
X136921858Y-116286706D01*
X136945529Y-116291910D01*
X137125812Y-116313408D01*
X137150044Y-116313916D01*
X137331067Y-116299987D01*
X137354948Y-116295776D01*
X137435857Y-116273185D01*
X137453052Y-116264481D01*
X137448620Y-116255727D01*
X137177341Y-115984448D01*
X137160000Y-115972861D01*
X137142659Y-115984448D01*
X136877718Y-116249389D01*
X136867013Y-116265410D01*
X130721965Y-116265410D01*
X130776207Y-116062977D01*
X130795277Y-115845000D01*
X130776207Y-115627023D01*
X130719575Y-115415670D01*
X130663940Y-115296360D01*
X130645775Y-115257406D01*
X136106041Y-115257406D01*
X136121233Y-115438327D01*
X136125609Y-115462171D01*
X136146730Y-115535828D01*
X136155553Y-115552959D01*
X136164587Y-115548306D01*
X136435552Y-115277341D01*
X136447139Y-115260000D01*
X136435552Y-115242659D01*
X136170736Y-114977843D01*
X136154715Y-114967138D01*
X136148194Y-114976898D01*
X136131660Y-115029019D01*
X136126617Y-115052747D01*
X136106380Y-115233163D01*
X136106041Y-115257406D01*
X130645775Y-115257406D01*
X130631697Y-115227215D01*
X130631695Y-115227211D01*
X130627102Y-115217362D01*
X130501598Y-115038123D01*
X130346877Y-114883402D01*
X130337978Y-114877171D01*
X130337971Y-114877165D01*
X130197732Y-114778969D01*
X130130548Y-114708788D01*
X130095335Y-114618239D01*
X130097454Y-114521107D01*
X130136583Y-114432180D01*
X130197732Y-114371031D01*
X130337971Y-114272835D01*
X130337978Y-114272829D01*
X130346877Y-114266598D01*
X130501598Y-114111877D01*
X130627102Y-113932638D01*
X130719575Y-113734330D01*
X130776207Y-113522977D01*
X130795277Y-113305000D01*
X130776207Y-113087023D01*
X130719575Y-112875670D01*
X130658470Y-112744631D01*
X130631697Y-112687215D01*
X130631695Y-112687211D01*
X130627102Y-112677362D01*
X130501598Y-112498123D01*
X130346877Y-112343402D01*
X130337978Y-112337171D01*
X130337971Y-112337165D01*
X130197732Y-112238969D01*
X130130548Y-112168788D01*
X130095335Y-112078239D01*
X130097454Y-111981107D01*
X130136583Y-111892180D01*
X130197732Y-111831031D01*
X130337971Y-111732835D01*
X130337978Y-111732829D01*
X130346877Y-111726598D01*
X130501598Y-111571877D01*
X130627102Y-111392638D01*
X130640091Y-111364785D01*
X130714978Y-111204188D01*
X130719575Y-111194330D01*
X130776207Y-110982977D01*
X130795277Y-110765000D01*
X130776207Y-110547023D01*
X130719575Y-110335670D01*
X130651937Y-110190620D01*
X130631697Y-110147215D01*
X130631695Y-110147211D01*
X130627102Y-110137362D01*
X130501598Y-109958123D01*
X130346877Y-109803402D01*
X130337978Y-109797171D01*
X130337971Y-109797165D01*
X130197732Y-109698969D01*
X130130548Y-109628788D01*
X130095335Y-109538239D01*
X130097454Y-109441107D01*
X130136583Y-109352180D01*
X130197732Y-109291031D01*
X130337971Y-109192835D01*
X130337978Y-109192829D01*
X130346877Y-109186598D01*
X130501598Y-109031877D01*
X130627102Y-108852638D01*
X130719575Y-108654330D01*
X130776207Y-108442977D01*
X130795277Y-108225000D01*
X130776207Y-108007023D01*
X130719575Y-107795670D01*
X130627102Y-107597362D01*
X130501598Y-107418123D01*
X130346877Y-107263402D01*
X130337978Y-107257171D01*
X130337971Y-107257165D01*
X130197732Y-107158969D01*
X130130548Y-107088788D01*
X130095335Y-106998239D01*
X130097454Y-106901107D01*
X130136583Y-106812180D01*
X130197732Y-106751031D01*
X130337971Y-106652835D01*
X130337978Y-106652829D01*
X130346877Y-106646598D01*
X130381088Y-106612387D01*
X135410000Y-106612387D01*
X135412388Y-106636628D01*
X135419721Y-106673493D01*
X135438129Y-106717934D01*
X135466134Y-106759847D01*
X135500153Y-106793866D01*
X135542066Y-106821871D01*
X135586507Y-106840279D01*
X135623372Y-106847612D01*
X135647613Y-106850000D01*
X136635473Y-106850000D01*
X136655931Y-106845931D01*
X136660000Y-106825473D01*
X136660000Y-105624527D01*
X136655931Y-105604069D01*
X136635473Y-105600000D01*
X135434527Y-105600000D01*
X135414069Y-105604069D01*
X135410000Y-105624527D01*
X135410000Y-106612387D01*
X130381088Y-106612387D01*
X130501598Y-106491877D01*
X130627102Y-106312638D01*
X130719575Y-106114330D01*
X130776207Y-105902977D01*
X130795277Y-105685000D01*
X130776207Y-105467023D01*
X130719575Y-105255670D01*
X130627102Y-105057362D01*
X130501598Y-104878123D01*
X130346877Y-104723402D01*
X130337979Y-104717172D01*
X130337976Y-104717169D01*
X130176538Y-104604129D01*
X130176537Y-104604128D01*
X130167639Y-104597898D01*
X130119548Y-104575473D01*
X135410000Y-104575473D01*
X135414069Y-104595931D01*
X135434527Y-104600000D01*
X136635473Y-104600000D01*
X136655931Y-104595931D01*
X136660000Y-104575473D01*
X136660000Y-103374527D01*
X136655931Y-103354069D01*
X136635473Y-103350000D01*
X135647613Y-103350000D01*
X135623372Y-103352388D01*
X135586507Y-103359721D01*
X135542066Y-103378129D01*
X135500153Y-103406134D01*
X135466134Y-103440153D01*
X135438129Y-103482066D01*
X135419721Y-103526507D01*
X135412388Y-103563372D01*
X135410000Y-103587613D01*
X135410000Y-104575473D01*
X130119548Y-104575473D01*
X129969330Y-104505425D01*
X129958827Y-104502611D01*
X129958825Y-104502610D01*
X129878976Y-104481215D01*
X129757977Y-104448793D01*
X129540000Y-104429723D01*
X129322023Y-104448793D01*
X129110670Y-104505425D01*
X129100811Y-104510022D01*
X129100812Y-104510022D01*
X128922215Y-104593303D01*
X128922211Y-104593305D01*
X128912362Y-104597898D01*
X128733123Y-104723402D01*
X128578402Y-104878123D01*
X128452898Y-105057362D01*
X128360425Y-105255670D01*
X128303793Y-105467023D01*
X128284723Y-105685000D01*
X128303793Y-105902977D01*
X128360425Y-106114330D01*
X128452898Y-106312638D01*
X128578402Y-106491877D01*
X128733123Y-106646598D01*
X128742026Y-106652832D01*
X128742032Y-106652837D01*
X128882269Y-106751033D01*
X128949453Y-106821214D01*
X128984665Y-106911764D01*
X128982546Y-107008895D01*
X128943416Y-107097822D01*
X128882269Y-107158969D01*
X128733123Y-107263402D01*
X128578402Y-107418123D01*
X128452898Y-107597362D01*
X128360425Y-107795670D01*
X128303793Y-108007023D01*
X128284723Y-108225000D01*
X128303793Y-108442977D01*
X128360425Y-108654330D01*
X128452898Y-108852638D01*
X128578402Y-109031877D01*
X128733123Y-109186598D01*
X128742026Y-109192832D01*
X128742032Y-109192837D01*
X128882269Y-109291033D01*
X128949453Y-109361214D01*
X128984665Y-109451764D01*
X128982546Y-109548895D01*
X128943416Y-109637822D01*
X128882269Y-109698969D01*
X128733123Y-109803402D01*
X128578402Y-109958123D01*
X128452898Y-110137362D01*
X128448305Y-110147211D01*
X128448303Y-110147215D01*
X128428063Y-110190620D01*
X128360425Y-110335670D01*
X128303793Y-110547023D01*
X128284723Y-110765000D01*
X128303793Y-110982977D01*
X128360425Y-111194330D01*
X128365022Y-111204188D01*
X128439910Y-111364785D01*
X128452898Y-111392638D01*
X128578402Y-111571877D01*
X128733123Y-111726598D01*
X128742026Y-111732832D01*
X128742032Y-111732837D01*
X128882269Y-111831033D01*
X128949453Y-111901214D01*
X128984665Y-111991764D01*
X128982546Y-112088895D01*
X128943416Y-112177822D01*
X128882269Y-112238969D01*
X128733123Y-112343402D01*
X128578402Y-112498123D01*
X128452898Y-112677362D01*
X128448305Y-112687211D01*
X128448303Y-112687215D01*
X128421530Y-112744631D01*
X128360425Y-112875670D01*
X128303793Y-113087023D01*
X128284723Y-113305000D01*
X128303793Y-113522977D01*
X128360425Y-113734330D01*
X128452898Y-113932638D01*
X128578402Y-114111877D01*
X128733123Y-114266598D01*
X128742026Y-114272832D01*
X128742032Y-114272837D01*
X128882269Y-114371033D01*
X128949453Y-114441214D01*
X128984665Y-114531764D01*
X128982546Y-114628895D01*
X128943416Y-114717822D01*
X128882269Y-114778969D01*
X128733123Y-114883402D01*
X128578402Y-115038123D01*
X128452898Y-115217362D01*
X128448305Y-115227211D01*
X128448303Y-115227215D01*
X128416060Y-115296360D01*
X128360425Y-115415670D01*
X128303793Y-115627023D01*
X128284723Y-115845000D01*
X128303793Y-116062977D01*
X128360425Y-116274330D01*
X128371298Y-116297647D01*
X128435692Y-116435739D01*
X128452898Y-116472638D01*
X128578402Y-116651877D01*
X128733123Y-116806598D01*
X128742026Y-116812832D01*
X128742032Y-116812837D01*
X128882269Y-116911033D01*
X128949453Y-116981214D01*
X128984665Y-117071764D01*
X128982546Y-117168895D01*
X128943416Y-117257822D01*
X128882269Y-117318969D01*
X128733123Y-117423402D01*
X128578402Y-117578123D01*
X128452898Y-117757362D01*
X128360425Y-117955670D01*
X128303793Y-118167023D01*
X128284723Y-118385000D01*
X128303793Y-118602977D01*
X128360425Y-118814330D01*
X128452898Y-119012638D01*
X128578402Y-119191877D01*
X128733123Y-119346598D01*
X128742026Y-119352832D01*
X128742032Y-119352837D01*
X128882269Y-119451033D01*
X128949453Y-119521214D01*
X128984665Y-119611764D01*
X128982546Y-119708895D01*
X128943416Y-119797822D01*
X128882269Y-119858969D01*
X128733123Y-119963402D01*
X128578402Y-120118123D01*
X128452898Y-120297362D01*
X128448305Y-120307211D01*
X128448303Y-120307215D01*
X128402364Y-120405732D01*
X128344916Y-120484082D01*
X128261857Y-120534484D01*
X128176694Y-120549500D01*
X128048204Y-120549500D01*
X128036476Y-120549224D01*
X128033055Y-120549063D01*
X128012934Y-120544731D01*
X127973672Y-120549377D01*
X127972452Y-120549500D01*
X127963807Y-120549500D01*
X127953680Y-120551185D01*
X127953673Y-120551186D01*
X127947849Y-120552155D01*
X127936241Y-120553807D01*
X127902747Y-120557771D01*
X127902746Y-120557771D01*
X127888791Y-120559423D01*
X127880622Y-120563346D01*
X127871687Y-120564833D01*
X127829619Y-120587532D01*
X127819189Y-120592847D01*
X127776100Y-120613537D01*
X127771869Y-120617094D01*
X127768399Y-120620564D01*
X127761671Y-120624194D01*
X127749100Y-120637793D01*
X127749098Y-120637795D01*
X127727122Y-120661569D01*
X127720345Y-120668618D01*
X125502093Y-122886870D01*
X125493602Y-122894970D01*
X125491083Y-122897262D01*
X125473790Y-122908428D01*
X125461048Y-122924591D01*
X125461047Y-122924592D01*
X125449305Y-122939487D01*
X125448539Y-122940424D01*
X125442425Y-122946538D01*
X125436452Y-122954897D01*
X125433032Y-122959682D01*
X125425986Y-122969067D01*
X125405098Y-122995562D01*
X125405097Y-122995565D01*
X125396397Y-123006600D01*
X125393395Y-123015149D01*
X125388128Y-123022519D01*
X125374428Y-123068330D01*
X125370813Y-123079452D01*
X125360168Y-123109764D01*
X125360167Y-123109769D01*
X125354977Y-123124548D01*
X125354500Y-123130055D01*
X125354500Y-123134964D01*
X125352310Y-123142287D01*
X125353037Y-123160792D01*
X125353037Y-123160794D01*
X125354308Y-123193137D01*
X125354500Y-123202913D01*
X125354500Y-129281323D01*
X125335546Y-129376611D01*
X125281570Y-129457393D01*
X124377393Y-130361570D01*
X124296611Y-130415546D01*
X124201323Y-130434500D01*
X113083188Y-130434500D01*
X113071457Y-130434224D01*
X113068057Y-130434064D01*
X113047933Y-130429731D01*
X113027494Y-130432150D01*
X113027491Y-130432150D01*
X113008678Y-130434377D01*
X113007454Y-130434500D01*
X112998807Y-130434500D01*
X112988676Y-130436186D01*
X112988667Y-130436187D01*
X112982853Y-130437155D01*
X112971240Y-130438808D01*
X112937747Y-130442772D01*
X112923790Y-130444424D01*
X112915623Y-130448346D01*
X112906687Y-130449833D01*
X112874473Y-130467215D01*
X112864621Y-130472531D01*
X112854166Y-130477858D01*
X112811100Y-130498537D01*
X112806869Y-130502094D01*
X112803399Y-130505564D01*
X112796671Y-130509194D01*
X112784100Y-130522793D01*
X112784098Y-130522795D01*
X112762122Y-130546569D01*
X112755345Y-130553618D01*
X110262093Y-133046870D01*
X110253602Y-133054970D01*
X110251083Y-133057262D01*
X110233790Y-133068428D01*
X110221048Y-133084591D01*
X110221047Y-133084592D01*
X110209305Y-133099487D01*
X110208539Y-133100424D01*
X110202425Y-133106538D01*
X110196452Y-133114897D01*
X110193032Y-133119682D01*
X110185986Y-133129067D01*
X110165098Y-133155562D01*
X110165097Y-133155565D01*
X110156397Y-133166600D01*
X110153395Y-133175149D01*
X110148128Y-133182519D01*
X110134428Y-133228330D01*
X110130813Y-133239452D01*
X110120168Y-133269764D01*
X110120167Y-133269769D01*
X110114977Y-133284548D01*
X110114500Y-133290055D01*
X110114500Y-133294964D01*
X110112310Y-133302287D01*
X110113037Y-133320792D01*
X110113037Y-133320794D01*
X110114308Y-133353137D01*
X110114500Y-133362913D01*
X110114500Y-137290063D01*
X110095546Y-137385351D01*
X110041570Y-137466133D01*
X109980864Y-137510726D01*
X109912002Y-137546726D01*
X109751447Y-137675815D01*
X109619024Y-137833630D01*
X109613160Y-137844296D01*
X109613159Y-137844298D01*
X109606392Y-137856607D01*
X109519776Y-138014162D01*
X109516098Y-138025756D01*
X109516096Y-138025761D01*
X109511765Y-138039415D01*
X109457484Y-138210532D01*
X109434520Y-138415262D01*
X109435539Y-138427397D01*
X109435539Y-138427399D01*
X109449936Y-138598839D01*
X109451759Y-138620553D01*
X109508544Y-138818586D01*
X109514110Y-138829416D01*
X109514111Y-138829419D01*
X109597146Y-138990988D01*
X109602712Y-139001818D01*
X109610271Y-139011355D01*
X109610278Y-139011366D01*
X109650779Y-139062465D01*
X109695113Y-139148915D01*
X109702989Y-139245750D01*
X109673208Y-139338228D01*
X109621219Y-139398777D01*
X109621670Y-139399194D01*
X109610297Y-139411497D01*
X109610281Y-139411516D01*
X109607704Y-139414303D01*
X109607698Y-139414308D01*
X109570054Y-139455032D01*
X109563278Y-139462081D01*
X108750570Y-140274789D01*
X108669788Y-140328765D01*
X108574500Y-140347719D01*
X108479212Y-140328765D01*
X108398430Y-140274789D01*
X108344454Y-140194007D01*
X108325500Y-140098719D01*
X108325500Y-137030476D01*
X108344454Y-136935188D01*
X108398430Y-136854406D01*
X108462230Y-136808223D01*
X108504740Y-136786749D01*
X108504741Y-136786748D01*
X108515610Y-136781258D01*
X108525202Y-136773764D01*
X108525205Y-136773762D01*
X108668353Y-136661923D01*
X108668355Y-136661922D01*
X108677951Y-136654424D01*
X108812564Y-136498472D01*
X108833387Y-136461818D01*
X108908306Y-136329936D01*
X108908306Y-136329935D01*
X108914323Y-136319344D01*
X108979351Y-136123863D01*
X109005171Y-135919474D01*
X109005583Y-135890000D01*
X108985480Y-135684970D01*
X108925935Y-135487749D01*
X108829218Y-135305849D01*
X108819434Y-135293852D01*
X108753767Y-135213337D01*
X108699011Y-135146200D01*
X108540275Y-135014882D01*
X108510197Y-134998619D01*
X108369764Y-134922687D01*
X108369761Y-134922686D01*
X108359055Y-134916897D01*
X108329800Y-134907841D01*
X108173891Y-134859579D01*
X108173889Y-134859579D01*
X108162254Y-134855977D01*
X107957369Y-134834443D01*
X107752203Y-134853114D01*
X107554572Y-134911280D01*
X107372002Y-135006726D01*
X107211447Y-135135815D01*
X107079024Y-135293630D01*
X107073160Y-135304296D01*
X107073159Y-135304298D01*
X107035332Y-135373105D01*
X106979776Y-135474162D01*
X106976098Y-135485756D01*
X106976096Y-135485761D01*
X106925886Y-135644046D01*
X106917484Y-135670532D01*
X106894520Y-135875262D01*
X106895539Y-135887397D01*
X106895539Y-135887399D01*
X106898811Y-135926359D01*
X106911759Y-136080553D01*
X106968544Y-136278586D01*
X106974110Y-136289416D01*
X106974111Y-136289419D01*
X107016630Y-136372152D01*
X107062712Y-136461818D01*
X107190677Y-136623270D01*
X107199950Y-136631162D01*
X107199952Y-136631164D01*
X107338292Y-136748900D01*
X107347564Y-136756791D01*
X107445209Y-136811363D01*
X107446977Y-136812351D01*
X107520909Y-136875384D01*
X107565092Y-136961911D01*
X107574500Y-137029709D01*
X107574500Y-140711323D01*
X107555546Y-140806611D01*
X107501570Y-140887393D01*
X105327393Y-143061570D01*
X105246611Y-143115546D01*
X105151323Y-143134500D01*
X103128677Y-143134500D01*
X103033389Y-143115546D01*
X102952607Y-143061570D01*
X100778430Y-140887393D01*
X100724454Y-140806611D01*
X100705500Y-140711323D01*
X100705500Y-139473007D01*
X100724454Y-139377719D01*
X100778430Y-139296937D01*
X100859212Y-139242961D01*
X100954500Y-139224007D01*
X101049788Y-139242961D01*
X101130570Y-139296937D01*
X102818221Y-140984588D01*
X102872197Y-141065370D01*
X102891151Y-141160658D01*
X102890205Y-141182344D01*
X102884723Y-141245000D01*
X102885670Y-141255825D01*
X102885670Y-141255827D01*
X102893721Y-141347850D01*
X102903793Y-141462977D01*
X102960425Y-141674330D01*
X102965022Y-141684188D01*
X103040261Y-141845537D01*
X103052898Y-141872638D01*
X103178402Y-142051877D01*
X103333123Y-142206598D01*
X103342021Y-142212828D01*
X103342024Y-142212831D01*
X103503462Y-142325871D01*
X103512361Y-142332102D01*
X103710670Y-142424575D01*
X103721173Y-142427389D01*
X103721175Y-142427390D01*
X103765359Y-142439229D01*
X103922023Y-142481207D01*
X104140000Y-142500277D01*
X104357977Y-142481207D01*
X104514641Y-142439229D01*
X104558825Y-142427390D01*
X104558827Y-142427389D01*
X104569330Y-142424575D01*
X104767639Y-142332102D01*
X104776538Y-142325871D01*
X104937976Y-142212831D01*
X104937979Y-142212828D01*
X104946877Y-142206598D01*
X105101598Y-142051877D01*
X105227102Y-141872638D01*
X105239740Y-141845537D01*
X105314978Y-141684188D01*
X105319575Y-141674330D01*
X105376207Y-141462977D01*
X105395277Y-141245000D01*
X105376207Y-141027023D01*
X105319575Y-140815670D01*
X105265571Y-140699859D01*
X105231697Y-140627215D01*
X105231695Y-140627211D01*
X105227102Y-140617362D01*
X105101598Y-140438123D01*
X104946877Y-140283402D01*
X104937979Y-140277172D01*
X104937976Y-140277169D01*
X104776538Y-140164129D01*
X104776537Y-140164128D01*
X104767639Y-140157898D01*
X104757797Y-140153309D01*
X104757789Y-140153304D01*
X104733201Y-140141839D01*
X104654851Y-140084391D01*
X104604449Y-140001332D01*
X104589669Y-139905308D01*
X104592330Y-139878287D01*
X104593499Y-139870691D01*
X104593282Y-139869805D01*
X104582970Y-139855077D01*
X103432893Y-138705000D01*
X104852861Y-138705000D01*
X104864448Y-138722341D01*
X105288139Y-139146032D01*
X105305079Y-139157351D01*
X105314605Y-139143746D01*
X105321916Y-139123658D01*
X105372899Y-138933387D01*
X105376660Y-138912057D01*
X105393827Y-138715836D01*
X105393827Y-138694164D01*
X105376660Y-138497943D01*
X105372899Y-138476613D01*
X105321916Y-138286342D01*
X105315261Y-138268058D01*
X105303797Y-138252423D01*
X105290077Y-138262030D01*
X104864448Y-138687659D01*
X104852861Y-138705000D01*
X103432893Y-138705000D01*
X102991861Y-138263968D01*
X102974921Y-138252649D01*
X102965395Y-138266254D01*
X102958084Y-138286342D01*
X102918531Y-138433954D01*
X102875560Y-138521090D01*
X102802515Y-138585148D01*
X102710516Y-138616378D01*
X102613569Y-138610024D01*
X102526433Y-138567053D01*
X102501945Y-138545578D01*
X102423430Y-138467063D01*
X102369454Y-138386281D01*
X102350500Y-138290993D01*
X102350500Y-136165000D01*
X102884723Y-136165000D01*
X102903793Y-136382977D01*
X102960425Y-136594330D01*
X102965022Y-136604188D01*
X103038952Y-136762730D01*
X103052898Y-136792638D01*
X103178402Y-136971877D01*
X103333123Y-137126598D01*
X103342021Y-137132828D01*
X103342024Y-137132831D01*
X103503462Y-137245871D01*
X103512361Y-137252102D01*
X103522203Y-137256691D01*
X103522211Y-137256696D01*
X103546799Y-137268161D01*
X103625149Y-137325609D01*
X103675551Y-137408668D01*
X103690331Y-137504692D01*
X103687670Y-137531713D01*
X103686501Y-137539309D01*
X103686718Y-137540195D01*
X103697030Y-137554923D01*
X104122659Y-137980552D01*
X104140000Y-137992139D01*
X104157341Y-137980552D01*
X104581032Y-137556861D01*
X104593865Y-137537654D01*
X104594082Y-137536565D01*
X104594083Y-137445316D01*
X104631263Y-137355556D01*
X104699963Y-137286858D01*
X104733064Y-137268225D01*
X104757791Y-137256694D01*
X104767639Y-137252102D01*
X104776538Y-137245871D01*
X104937976Y-137132831D01*
X104937979Y-137132828D01*
X104946877Y-137126598D01*
X105101598Y-136971877D01*
X105227102Y-136792638D01*
X105241049Y-136762730D01*
X105314978Y-136604188D01*
X105319575Y-136594330D01*
X105376207Y-136382977D01*
X105395277Y-136165000D01*
X105376207Y-135947023D01*
X105319575Y-135735670D01*
X105227102Y-135537362D01*
X105101598Y-135358123D01*
X104946877Y-135203402D01*
X104937978Y-135197171D01*
X104937971Y-135197165D01*
X104797732Y-135098969D01*
X104730548Y-135028788D01*
X104695335Y-134938239D01*
X104697454Y-134841107D01*
X104736583Y-134752180D01*
X104797732Y-134691031D01*
X104937971Y-134592835D01*
X104937978Y-134592829D01*
X104946877Y-134586598D01*
X105101598Y-134431877D01*
X105227102Y-134252638D01*
X105319575Y-134054330D01*
X105376207Y-133842977D01*
X105395277Y-133625000D01*
X105376207Y-133407023D01*
X105319575Y-133195670D01*
X105278012Y-133106538D01*
X105231697Y-133007215D01*
X105231695Y-133007211D01*
X105227102Y-132997362D01*
X105101598Y-132818123D01*
X104946877Y-132663402D01*
X104937978Y-132657171D01*
X104937971Y-132657165D01*
X104797732Y-132558969D01*
X104730548Y-132488788D01*
X104695335Y-132398239D01*
X104697454Y-132301107D01*
X104736583Y-132212180D01*
X104797732Y-132151031D01*
X104937971Y-132052835D01*
X104937978Y-132052829D01*
X104946877Y-132046598D01*
X105101598Y-131891877D01*
X105227102Y-131712638D01*
X105239736Y-131685546D01*
X105314978Y-131524188D01*
X105319575Y-131514330D01*
X105376207Y-131302977D01*
X105395277Y-131085000D01*
X105376207Y-130867023D01*
X105319575Y-130655670D01*
X105297819Y-130609014D01*
X105231697Y-130467215D01*
X105231695Y-130467211D01*
X105227102Y-130457362D01*
X105101598Y-130278123D01*
X104946877Y-130123402D01*
X104937978Y-130117171D01*
X104937971Y-130117165D01*
X104797732Y-130018969D01*
X104730548Y-129948788D01*
X104695335Y-129858239D01*
X104697454Y-129761107D01*
X104736583Y-129672180D01*
X104797732Y-129611031D01*
X104937971Y-129512835D01*
X104937978Y-129512829D01*
X104946877Y-129506598D01*
X105101598Y-129351877D01*
X105227102Y-129172638D01*
X105241049Y-129142730D01*
X105277636Y-129064268D01*
X105335084Y-128985918D01*
X105418143Y-128935516D01*
X105503306Y-128920500D01*
X107006705Y-128920500D01*
X107101993Y-128939454D01*
X107184766Y-128995812D01*
X107190677Y-129003270D01*
X107347564Y-129136791D01*
X107394075Y-129162785D01*
X107508557Y-129226767D01*
X107527398Y-129237297D01*
X107723329Y-129300959D01*
X107735417Y-129302400D01*
X107735420Y-129302401D01*
X107861803Y-129317470D01*
X107927894Y-129325351D01*
X108133300Y-129309546D01*
X108265462Y-129272646D01*
X108320004Y-129257418D01*
X108320008Y-129257416D01*
X108331725Y-129254145D01*
X108342585Y-129248659D01*
X108342588Y-129248658D01*
X108434060Y-129202452D01*
X108515610Y-129161258D01*
X108525202Y-129153764D01*
X108525205Y-129153762D01*
X108668353Y-129041923D01*
X108668355Y-129041922D01*
X108677951Y-129034424D01*
X108759926Y-128939454D01*
X108804606Y-128887692D01*
X108804608Y-128887689D01*
X108812564Y-128878472D01*
X108833387Y-128841818D01*
X108908306Y-128709936D01*
X108908306Y-128709935D01*
X108914323Y-128699344D01*
X108979351Y-128503863D01*
X109005171Y-128299474D01*
X109005449Y-128279618D01*
X109005486Y-128276955D01*
X109005486Y-128276951D01*
X109005583Y-128270000D01*
X108985480Y-128064970D01*
X108925935Y-127867749D01*
X108829218Y-127685849D01*
X108699011Y-127526200D01*
X108686121Y-127515536D01*
X108608835Y-127451600D01*
X108540275Y-127394882D01*
X108490016Y-127367707D01*
X108369764Y-127302687D01*
X108369761Y-127302686D01*
X108359055Y-127296897D01*
X108215425Y-127252436D01*
X108173891Y-127239579D01*
X108173889Y-127239579D01*
X108162254Y-127235977D01*
X107957369Y-127214443D01*
X107752203Y-127233114D01*
X107554572Y-127291280D01*
X107372002Y-127386726D01*
X107211447Y-127515815D01*
X107079024Y-127673630D01*
X107073160Y-127684296D01*
X107073159Y-127684298D01*
X106985639Y-127843497D01*
X106979776Y-127854162D01*
X106976095Y-127865767D01*
X106976093Y-127865771D01*
X106934848Y-127995790D01*
X106887969Y-128080887D01*
X106812094Y-128141566D01*
X106718773Y-128168590D01*
X106697504Y-128169500D01*
X105503306Y-128169500D01*
X105408018Y-128150546D01*
X105327236Y-128096570D01*
X105277636Y-128025732D01*
X105231697Y-127927215D01*
X105231695Y-127927211D01*
X105227102Y-127917362D01*
X105101598Y-127738123D01*
X104946877Y-127583402D01*
X104937978Y-127577171D01*
X104937971Y-127577165D01*
X104797732Y-127478969D01*
X104730548Y-127408788D01*
X104695335Y-127318239D01*
X104697454Y-127221107D01*
X104736583Y-127132180D01*
X104797732Y-127071031D01*
X104937971Y-126972835D01*
X104937978Y-126972829D01*
X104946877Y-126966598D01*
X105101598Y-126811877D01*
X105227102Y-126632638D01*
X105273111Y-126533973D01*
X105277636Y-126524268D01*
X105335084Y-126445918D01*
X105418143Y-126395516D01*
X105503306Y-126380500D01*
X110506323Y-126380500D01*
X110601611Y-126399454D01*
X110682393Y-126453430D01*
X111958347Y-127729385D01*
X112012323Y-127810167D01*
X112031277Y-127905455D01*
X112019621Y-127980746D01*
X112001165Y-128038925D01*
X112001164Y-128038931D01*
X111997484Y-128050532D01*
X111974520Y-128255262D01*
X111975539Y-128267397D01*
X111975539Y-128267399D01*
X111982694Y-128352607D01*
X111991759Y-128460553D01*
X112048544Y-128658586D01*
X112054110Y-128669416D01*
X112054111Y-128669419D01*
X112117385Y-128792537D01*
X112142712Y-128841818D01*
X112270677Y-129003270D01*
X112279950Y-129011162D01*
X112279952Y-129011164D01*
X112391406Y-129106018D01*
X112427564Y-129136791D01*
X112474075Y-129162785D01*
X112588557Y-129226767D01*
X112607398Y-129237297D01*
X112803329Y-129300959D01*
X112815417Y-129302400D01*
X112815420Y-129302401D01*
X112941803Y-129317470D01*
X113007894Y-129325351D01*
X113213300Y-129309546D01*
X113345462Y-129272646D01*
X113400004Y-129257418D01*
X113400008Y-129257416D01*
X113411725Y-129254145D01*
X113422585Y-129248659D01*
X113422588Y-129248658D01*
X113514060Y-129202452D01*
X113595610Y-129161258D01*
X113605202Y-129153764D01*
X113605205Y-129153762D01*
X113748353Y-129041923D01*
X113748355Y-129041922D01*
X113757951Y-129034424D01*
X113839926Y-128939454D01*
X113884606Y-128887692D01*
X113884608Y-128887689D01*
X113892564Y-128878472D01*
X113913387Y-128841818D01*
X113988306Y-128709936D01*
X113988306Y-128709935D01*
X113994323Y-128699344D01*
X114059351Y-128503863D01*
X114085171Y-128299474D01*
X114085449Y-128279618D01*
X114085486Y-128276955D01*
X114085486Y-128276951D01*
X114085583Y-128270000D01*
X114065480Y-128064970D01*
X114005935Y-127867749D01*
X113909218Y-127685849D01*
X113779011Y-127526200D01*
X113766121Y-127515536D01*
X113688835Y-127451600D01*
X113620275Y-127394882D01*
X113570016Y-127367707D01*
X113449764Y-127302687D01*
X113449761Y-127302686D01*
X113439055Y-127296897D01*
X113295425Y-127252436D01*
X113253891Y-127239579D01*
X113253889Y-127239579D01*
X113242254Y-127235977D01*
X113037369Y-127214443D01*
X112832203Y-127233114D01*
X112820520Y-127236552D01*
X112820512Y-127236554D01*
X112736029Y-127261419D01*
X112639267Y-127270140D01*
X112546532Y-127241167D01*
X112489657Y-127198620D01*
X111068130Y-125777093D01*
X111060030Y-125768602D01*
X111057738Y-125766083D01*
X111046572Y-125748790D01*
X111015512Y-125724304D01*
X111014576Y-125723539D01*
X111008462Y-125717425D01*
X110995318Y-125708032D01*
X110985933Y-125700986D01*
X110959438Y-125680098D01*
X110959435Y-125680097D01*
X110948400Y-125671397D01*
X110939851Y-125668395D01*
X110932481Y-125663128D01*
X110886670Y-125649428D01*
X110875548Y-125645813D01*
X110845236Y-125635168D01*
X110845231Y-125635167D01*
X110830452Y-125629977D01*
X110824945Y-125629500D01*
X110820036Y-125629500D01*
X110812713Y-125627310D01*
X110794208Y-125628037D01*
X110794206Y-125628037D01*
X110761863Y-125629308D01*
X110752087Y-125629500D01*
X105503306Y-125629500D01*
X105408018Y-125610546D01*
X105327236Y-125556570D01*
X105277636Y-125485732D01*
X105231697Y-125387215D01*
X105231695Y-125387211D01*
X105227102Y-125377362D01*
X105101598Y-125198123D01*
X104946877Y-125043402D01*
X104937978Y-125037171D01*
X104937971Y-125037165D01*
X104797732Y-124938969D01*
X104730548Y-124868788D01*
X104695335Y-124778239D01*
X104697454Y-124681107D01*
X104736583Y-124592180D01*
X104797732Y-124531031D01*
X104937971Y-124432835D01*
X104937978Y-124432829D01*
X104946877Y-124426598D01*
X105101598Y-124271877D01*
X105227102Y-124092638D01*
X105263056Y-124015536D01*
X105277636Y-123984268D01*
X105335084Y-123905918D01*
X105418143Y-123855516D01*
X105503306Y-123840500D01*
X113046323Y-123840500D01*
X113141611Y-123859454D01*
X113222393Y-123913430D01*
X117038347Y-127729384D01*
X117092323Y-127810166D01*
X117111277Y-127905454D01*
X117099622Y-127980744D01*
X117077484Y-128050532D01*
X117054520Y-128255262D01*
X117055539Y-128267397D01*
X117055539Y-128267399D01*
X117062694Y-128352607D01*
X117071759Y-128460553D01*
X117128544Y-128658586D01*
X117134110Y-128669416D01*
X117134111Y-128669419D01*
X117197385Y-128792537D01*
X117222712Y-128841818D01*
X117350677Y-129003270D01*
X117359950Y-129011162D01*
X117359952Y-129011164D01*
X117471406Y-129106018D01*
X117507564Y-129136791D01*
X117554075Y-129162785D01*
X117668557Y-129226767D01*
X117687398Y-129237297D01*
X117883329Y-129300959D01*
X117895417Y-129302400D01*
X117895420Y-129302401D01*
X118021803Y-129317470D01*
X118087894Y-129325351D01*
X118293300Y-129309546D01*
X118425462Y-129272646D01*
X118480004Y-129257418D01*
X118480008Y-129257416D01*
X118491725Y-129254145D01*
X118502585Y-129248659D01*
X118502588Y-129248658D01*
X118594060Y-129202452D01*
X118675610Y-129161258D01*
X118685202Y-129153764D01*
X118685205Y-129153762D01*
X118828353Y-129041923D01*
X118828355Y-129041922D01*
X118837951Y-129034424D01*
X118919926Y-128939454D01*
X118964606Y-128887692D01*
X118964608Y-128887689D01*
X118972564Y-128878472D01*
X118993387Y-128841818D01*
X119068306Y-128709936D01*
X119068306Y-128709935D01*
X119074323Y-128699344D01*
X119139351Y-128503863D01*
X119165171Y-128299474D01*
X119165449Y-128279618D01*
X119165486Y-128276955D01*
X119165486Y-128276951D01*
X119165583Y-128270000D01*
X119145480Y-128064970D01*
X119085935Y-127867749D01*
X118989218Y-127685849D01*
X118859011Y-127526200D01*
X118846121Y-127515536D01*
X118768835Y-127451600D01*
X118700275Y-127394882D01*
X118650016Y-127367707D01*
X118529764Y-127302687D01*
X118529761Y-127302686D01*
X118519055Y-127296897D01*
X118375425Y-127252436D01*
X118333891Y-127239579D01*
X118333889Y-127239579D01*
X118322254Y-127235977D01*
X118117369Y-127214443D01*
X117912203Y-127233114D01*
X117900520Y-127236552D01*
X117900512Y-127236554D01*
X117816029Y-127261419D01*
X117719267Y-127270140D01*
X117626532Y-127241167D01*
X117569657Y-127198620D01*
X113608130Y-123237093D01*
X113600030Y-123228602D01*
X113597738Y-123226083D01*
X113586572Y-123208790D01*
X113566717Y-123193137D01*
X113555513Y-123184305D01*
X113554576Y-123183539D01*
X113548462Y-123177425D01*
X113535318Y-123168032D01*
X113525933Y-123160986D01*
X113499438Y-123140098D01*
X113499435Y-123140097D01*
X113488400Y-123131397D01*
X113479851Y-123128395D01*
X113472481Y-123123128D01*
X113426670Y-123109428D01*
X113415548Y-123105813D01*
X113385236Y-123095168D01*
X113385231Y-123095167D01*
X113370452Y-123089977D01*
X113364945Y-123089500D01*
X113360036Y-123089500D01*
X113352713Y-123087310D01*
X113334208Y-123088037D01*
X113334206Y-123088037D01*
X113301863Y-123089308D01*
X113292087Y-123089500D01*
X105503306Y-123089500D01*
X105408018Y-123070546D01*
X105327236Y-123016570D01*
X105277636Y-122945732D01*
X105231697Y-122847215D01*
X105231695Y-122847211D01*
X105227102Y-122837362D01*
X105101598Y-122658123D01*
X104946877Y-122503402D01*
X104937978Y-122497171D01*
X104937971Y-122497165D01*
X104797732Y-122398969D01*
X104730548Y-122328788D01*
X104695335Y-122238239D01*
X104697454Y-122141107D01*
X104736583Y-122052180D01*
X104797732Y-121991031D01*
X104937971Y-121892835D01*
X104937978Y-121892829D01*
X104946877Y-121886598D01*
X105101598Y-121731877D01*
X105227102Y-121552638D01*
X105253155Y-121496769D01*
X105277636Y-121444268D01*
X105335084Y-121365918D01*
X105418143Y-121315516D01*
X105503306Y-121300500D01*
X115586323Y-121300500D01*
X115681611Y-121319454D01*
X115762393Y-121373430D01*
X122118347Y-127729385D01*
X122172323Y-127810167D01*
X122191277Y-127905455D01*
X122179621Y-127980746D01*
X122161165Y-128038925D01*
X122161164Y-128038931D01*
X122157484Y-128050532D01*
X122134520Y-128255262D01*
X122135539Y-128267397D01*
X122135539Y-128267399D01*
X122142694Y-128352607D01*
X122151759Y-128460553D01*
X122208544Y-128658586D01*
X122214110Y-128669416D01*
X122214111Y-128669419D01*
X122277385Y-128792537D01*
X122302712Y-128841818D01*
X122430677Y-129003270D01*
X122439950Y-129011162D01*
X122439952Y-129011164D01*
X122551406Y-129106018D01*
X122587564Y-129136791D01*
X122634075Y-129162785D01*
X122748557Y-129226767D01*
X122767398Y-129237297D01*
X122963329Y-129300959D01*
X122975417Y-129302400D01*
X122975420Y-129302401D01*
X123101803Y-129317470D01*
X123167894Y-129325351D01*
X123373300Y-129309546D01*
X123505462Y-129272646D01*
X123560004Y-129257418D01*
X123560008Y-129257416D01*
X123571725Y-129254145D01*
X123582585Y-129248659D01*
X123582588Y-129248658D01*
X123674060Y-129202452D01*
X123755610Y-129161258D01*
X123765202Y-129153764D01*
X123765205Y-129153762D01*
X123908353Y-129041923D01*
X123908355Y-129041922D01*
X123917951Y-129034424D01*
X123999926Y-128939454D01*
X124044606Y-128887692D01*
X124044608Y-128887689D01*
X124052564Y-128878472D01*
X124073387Y-128841818D01*
X124148306Y-128709936D01*
X124148306Y-128709935D01*
X124154323Y-128699344D01*
X124219351Y-128503863D01*
X124245171Y-128299474D01*
X124245449Y-128279618D01*
X124245486Y-128276955D01*
X124245486Y-128276951D01*
X124245583Y-128270000D01*
X124225480Y-128064970D01*
X124165935Y-127867749D01*
X124069218Y-127685849D01*
X123939011Y-127526200D01*
X123926121Y-127515536D01*
X123848835Y-127451600D01*
X123780275Y-127394882D01*
X123730016Y-127367707D01*
X123609764Y-127302687D01*
X123609761Y-127302686D01*
X123599055Y-127296897D01*
X123455425Y-127252436D01*
X123413891Y-127239579D01*
X123413889Y-127239579D01*
X123402254Y-127235977D01*
X123197369Y-127214443D01*
X122992203Y-127233114D01*
X122980520Y-127236552D01*
X122980512Y-127236554D01*
X122896029Y-127261419D01*
X122799267Y-127270140D01*
X122706532Y-127241167D01*
X122649657Y-127198620D01*
X116148130Y-120697093D01*
X116140030Y-120688602D01*
X116137738Y-120686083D01*
X116126572Y-120668790D01*
X116095512Y-120644304D01*
X116094576Y-120643539D01*
X116088462Y-120637425D01*
X116075318Y-120628032D01*
X116065933Y-120620986D01*
X116039438Y-120600098D01*
X116039435Y-120600097D01*
X116028400Y-120591397D01*
X116019851Y-120588395D01*
X116012481Y-120583128D01*
X115966670Y-120569428D01*
X115955548Y-120565813D01*
X115925236Y-120555168D01*
X115925231Y-120555167D01*
X115910452Y-120549977D01*
X115904945Y-120549500D01*
X115900036Y-120549500D01*
X115892713Y-120547310D01*
X115874208Y-120548037D01*
X115874206Y-120548037D01*
X115845006Y-120549184D01*
X115844001Y-120549224D01*
X115841863Y-120549308D01*
X115832087Y-120549500D01*
X105503306Y-120549500D01*
X105408018Y-120530546D01*
X105327236Y-120476570D01*
X105277636Y-120405732D01*
X105231697Y-120307215D01*
X105231695Y-120307211D01*
X105227102Y-120297362D01*
X105101598Y-120118123D01*
X104946877Y-119963402D01*
X104937978Y-119957171D01*
X104937971Y-119957165D01*
X104797732Y-119858969D01*
X104730548Y-119788788D01*
X104695335Y-119698239D01*
X104697454Y-119601107D01*
X104736583Y-119512180D01*
X104797732Y-119451031D01*
X104937971Y-119352835D01*
X104937978Y-119352829D01*
X104946877Y-119346598D01*
X105101598Y-119191877D01*
X105227102Y-119012638D01*
X105319575Y-118814330D01*
X105376207Y-118602977D01*
X105395277Y-118385000D01*
X105376207Y-118167023D01*
X105319575Y-117955670D01*
X105227102Y-117757362D01*
X105101598Y-117578123D01*
X104946877Y-117423402D01*
X104937978Y-117417171D01*
X104937971Y-117417165D01*
X104797732Y-117318969D01*
X104730548Y-117248788D01*
X104695335Y-117158239D01*
X104697454Y-117061107D01*
X104736583Y-116972180D01*
X104797732Y-116911031D01*
X104937971Y-116812835D01*
X104937978Y-116812829D01*
X104946877Y-116806598D01*
X105101598Y-116651877D01*
X105227102Y-116472638D01*
X105244309Y-116435739D01*
X105308702Y-116297647D01*
X105319575Y-116274330D01*
X105376207Y-116062977D01*
X105395277Y-115845000D01*
X105376207Y-115627023D01*
X105319575Y-115415670D01*
X105263940Y-115296360D01*
X105231697Y-115227215D01*
X105231695Y-115227211D01*
X105227102Y-115217362D01*
X105101598Y-115038123D01*
X104946877Y-114883402D01*
X104937978Y-114877171D01*
X104937971Y-114877165D01*
X104797732Y-114778969D01*
X104730548Y-114708788D01*
X104695335Y-114618239D01*
X104697454Y-114521107D01*
X104736583Y-114432180D01*
X104797732Y-114371031D01*
X104937971Y-114272835D01*
X104937978Y-114272829D01*
X104946877Y-114266598D01*
X105101598Y-114111877D01*
X105227102Y-113932638D01*
X105319575Y-113734330D01*
X105376207Y-113522977D01*
X105395277Y-113305000D01*
X105376207Y-113087023D01*
X105319575Y-112875670D01*
X105258470Y-112744631D01*
X105231697Y-112687215D01*
X105231695Y-112687211D01*
X105227102Y-112677362D01*
X105101598Y-112498123D01*
X104946877Y-112343402D01*
X104937978Y-112337171D01*
X104937971Y-112337165D01*
X104797732Y-112238969D01*
X104730548Y-112168788D01*
X104695335Y-112078239D01*
X104697454Y-111981107D01*
X104736583Y-111892180D01*
X104797732Y-111831031D01*
X104937971Y-111732835D01*
X104937978Y-111732829D01*
X104946877Y-111726598D01*
X105101598Y-111571877D01*
X105227102Y-111392638D01*
X105240091Y-111364785D01*
X105314978Y-111204188D01*
X105319575Y-111194330D01*
X105376207Y-110982977D01*
X105395277Y-110765000D01*
X105376207Y-110547023D01*
X105319575Y-110335670D01*
X105251937Y-110190620D01*
X105231697Y-110147215D01*
X105231695Y-110147211D01*
X105227102Y-110137362D01*
X105101598Y-109958123D01*
X104946877Y-109803402D01*
X104937978Y-109797171D01*
X104937971Y-109797165D01*
X104797732Y-109698969D01*
X104730548Y-109628788D01*
X104695335Y-109538239D01*
X104697454Y-109441107D01*
X104736583Y-109352180D01*
X104797732Y-109291031D01*
X104937971Y-109192835D01*
X104937978Y-109192829D01*
X104946877Y-109186598D01*
X105101598Y-109031877D01*
X105227102Y-108852638D01*
X105319575Y-108654330D01*
X105376207Y-108442977D01*
X105395277Y-108225000D01*
X105376207Y-108007023D01*
X105319575Y-107795670D01*
X105227102Y-107597362D01*
X105101598Y-107418123D01*
X104946877Y-107263402D01*
X104937978Y-107257171D01*
X104937971Y-107257165D01*
X104797732Y-107158969D01*
X104730548Y-107088788D01*
X104695335Y-106998239D01*
X104697454Y-106901107D01*
X104736583Y-106812180D01*
X104797732Y-106751031D01*
X104806345Y-106745000D01*
X108060000Y-106745000D01*
X125750000Y-106745000D01*
X125750000Y-100255000D01*
X108060000Y-100255000D01*
X108060000Y-106745000D01*
X104806345Y-106745000D01*
X104937971Y-106652835D01*
X104937978Y-106652829D01*
X104946877Y-106646598D01*
X105101598Y-106491877D01*
X105227102Y-106312638D01*
X105319575Y-106114330D01*
X105376207Y-105902977D01*
X105395277Y-105685000D01*
X105376207Y-105467023D01*
X105319575Y-105255670D01*
X105227102Y-105057362D01*
X105101598Y-104878123D01*
X104946877Y-104723402D01*
X104937979Y-104717172D01*
X104937976Y-104717169D01*
X104776538Y-104604129D01*
X104776537Y-104604128D01*
X104767639Y-104597898D01*
X104569330Y-104505425D01*
X104558827Y-104502611D01*
X104558825Y-104502610D01*
X104478976Y-104481215D01*
X104357977Y-104448793D01*
X104140000Y-104429723D01*
X103922023Y-104448793D01*
X103710670Y-104505425D01*
X103700811Y-104510022D01*
X103700812Y-104510022D01*
X103522215Y-104593303D01*
X103522211Y-104593305D01*
X103512362Y-104597898D01*
X103333123Y-104723402D01*
X103178402Y-104878123D01*
X103052898Y-105057362D01*
X102960425Y-105255670D01*
X102903793Y-105467023D01*
X102884723Y-105685000D01*
X102903793Y-105902977D01*
X102960425Y-106114330D01*
X103052898Y-106312638D01*
X103178402Y-106491877D01*
X103333123Y-106646598D01*
X103342026Y-106652832D01*
X103342032Y-106652837D01*
X103482269Y-106751033D01*
X103549453Y-106821214D01*
X103584665Y-106911764D01*
X103582546Y-107008895D01*
X103543416Y-107097822D01*
X103482269Y-107158969D01*
X103333123Y-107263402D01*
X103178402Y-107418123D01*
X103052898Y-107597362D01*
X102960425Y-107795670D01*
X102903793Y-108007023D01*
X102884723Y-108225000D01*
X102903793Y-108442977D01*
X102960425Y-108654330D01*
X103052898Y-108852638D01*
X103178402Y-109031877D01*
X103333123Y-109186598D01*
X103342026Y-109192832D01*
X103342032Y-109192837D01*
X103482269Y-109291033D01*
X103549453Y-109361214D01*
X103584665Y-109451764D01*
X103582546Y-109548895D01*
X103543416Y-109637822D01*
X103482269Y-109698969D01*
X103333123Y-109803402D01*
X103178402Y-109958123D01*
X103052898Y-110137362D01*
X103048305Y-110147211D01*
X103048303Y-110147215D01*
X103028063Y-110190620D01*
X102960425Y-110335670D01*
X102903793Y-110547023D01*
X102884723Y-110765000D01*
X102903793Y-110982977D01*
X102960425Y-111194330D01*
X102965022Y-111204188D01*
X103039910Y-111364785D01*
X103052898Y-111392638D01*
X103178402Y-111571877D01*
X103333123Y-111726598D01*
X103342026Y-111732832D01*
X103342032Y-111732837D01*
X103482269Y-111831033D01*
X103549453Y-111901214D01*
X103584665Y-111991764D01*
X103582546Y-112088895D01*
X103543416Y-112177822D01*
X103482269Y-112238969D01*
X103333123Y-112343402D01*
X103178402Y-112498123D01*
X103052898Y-112677362D01*
X103048305Y-112687211D01*
X103048303Y-112687215D01*
X103021530Y-112744631D01*
X102960425Y-112875670D01*
X102903793Y-113087023D01*
X102884723Y-113305000D01*
X102903793Y-113522977D01*
X102960425Y-113734330D01*
X103052898Y-113932638D01*
X103178402Y-114111877D01*
X103333123Y-114266598D01*
X103342026Y-114272832D01*
X103342032Y-114272837D01*
X103482269Y-114371033D01*
X103549453Y-114441214D01*
X103584665Y-114531764D01*
X103582546Y-114628895D01*
X103543416Y-114717822D01*
X103482269Y-114778969D01*
X103333123Y-114883402D01*
X103178402Y-115038123D01*
X103052898Y-115217362D01*
X103048305Y-115227211D01*
X103048303Y-115227215D01*
X103016060Y-115296360D01*
X102960425Y-115415670D01*
X102903793Y-115627023D01*
X102884723Y-115845000D01*
X102903793Y-116062977D01*
X102960425Y-116274330D01*
X102971298Y-116297647D01*
X103035692Y-116435739D01*
X103052898Y-116472638D01*
X103178402Y-116651877D01*
X103333123Y-116806598D01*
X103342026Y-116812832D01*
X103342032Y-116812837D01*
X103482269Y-116911033D01*
X103549453Y-116981214D01*
X103584665Y-117071764D01*
X103582546Y-117168895D01*
X103543416Y-117257822D01*
X103482269Y-117318969D01*
X103333123Y-117423402D01*
X103178402Y-117578123D01*
X103052898Y-117757362D01*
X102960425Y-117955670D01*
X102903793Y-118167023D01*
X102884723Y-118385000D01*
X102903793Y-118602977D01*
X102960425Y-118814330D01*
X103052898Y-119012638D01*
X103178402Y-119191877D01*
X103333123Y-119346598D01*
X103342026Y-119352832D01*
X103342032Y-119352837D01*
X103482269Y-119451033D01*
X103549453Y-119521214D01*
X103584665Y-119611764D01*
X103582546Y-119708895D01*
X103543416Y-119797822D01*
X103482269Y-119858969D01*
X103333123Y-119963402D01*
X103178402Y-120118123D01*
X103052898Y-120297362D01*
X102960425Y-120495670D01*
X102903793Y-120707023D01*
X102884723Y-120925000D01*
X102885670Y-120935825D01*
X102890271Y-120988418D01*
X102903793Y-121142977D01*
X102960425Y-121354330D01*
X102965022Y-121364188D01*
X103026846Y-121496769D01*
X103052898Y-121552638D01*
X103178402Y-121731877D01*
X103333123Y-121886598D01*
X103342026Y-121892832D01*
X103342032Y-121892837D01*
X103482269Y-121991033D01*
X103549453Y-122061214D01*
X103584665Y-122151764D01*
X103582546Y-122248895D01*
X103543416Y-122337822D01*
X103482269Y-122398969D01*
X103333123Y-122503402D01*
X103178402Y-122658123D01*
X103052898Y-122837362D01*
X103048305Y-122847211D01*
X103048303Y-122847215D01*
X103001988Y-122946538D01*
X102960425Y-123035670D01*
X102903793Y-123247023D01*
X102884723Y-123465000D01*
X102903793Y-123682977D01*
X102960425Y-123894330D01*
X102965022Y-123904188D01*
X103016945Y-124015536D01*
X103052898Y-124092638D01*
X103178402Y-124271877D01*
X103333123Y-124426598D01*
X103342026Y-124432832D01*
X103342032Y-124432837D01*
X103482269Y-124531033D01*
X103549453Y-124601214D01*
X103584665Y-124691764D01*
X103582546Y-124788895D01*
X103543416Y-124877822D01*
X103482269Y-124938969D01*
X103333123Y-125043402D01*
X103178402Y-125198123D01*
X103052898Y-125377362D01*
X103048305Y-125387211D01*
X103048303Y-125387215D01*
X102965024Y-125565807D01*
X102960425Y-125575670D01*
X102903793Y-125787023D01*
X102884723Y-126005000D01*
X102903793Y-126222977D01*
X102960425Y-126434330D01*
X102965022Y-126444188D01*
X103006890Y-126533973D01*
X103052898Y-126632638D01*
X103178402Y-126811877D01*
X103333123Y-126966598D01*
X103342026Y-126972832D01*
X103342032Y-126972837D01*
X103482269Y-127071033D01*
X103549453Y-127141214D01*
X103584665Y-127231764D01*
X103582546Y-127328895D01*
X103543416Y-127417822D01*
X103482269Y-127478969D01*
X103333123Y-127583402D01*
X103178402Y-127738123D01*
X103052898Y-127917362D01*
X102960425Y-128115670D01*
X102903793Y-128327023D01*
X102884723Y-128545000D01*
X102903793Y-128762977D01*
X102960425Y-128974330D01*
X102965022Y-128984188D01*
X103038952Y-129142730D01*
X103052898Y-129172638D01*
X103178402Y-129351877D01*
X103333123Y-129506598D01*
X103342026Y-129512832D01*
X103342032Y-129512837D01*
X103482269Y-129611033D01*
X103549453Y-129681214D01*
X103584665Y-129771764D01*
X103582546Y-129868895D01*
X103543416Y-129957822D01*
X103482269Y-130018969D01*
X103333123Y-130123402D01*
X103178402Y-130278123D01*
X103052898Y-130457362D01*
X103048305Y-130467211D01*
X103048303Y-130467215D01*
X102982181Y-130609014D01*
X102960425Y-130655670D01*
X102903793Y-130867023D01*
X102884723Y-131085000D01*
X102903793Y-131302977D01*
X102960425Y-131514330D01*
X102965022Y-131524188D01*
X103040265Y-131685546D01*
X103052898Y-131712638D01*
X103178402Y-131891877D01*
X103333123Y-132046598D01*
X103342026Y-132052832D01*
X103342032Y-132052837D01*
X103482269Y-132151033D01*
X103549453Y-132221214D01*
X103584665Y-132311764D01*
X103582546Y-132408895D01*
X103543416Y-132497822D01*
X103482269Y-132558969D01*
X103333123Y-132663402D01*
X103178402Y-132818123D01*
X103052898Y-132997362D01*
X103048305Y-133007211D01*
X103048303Y-133007215D01*
X103001988Y-133106538D01*
X102960425Y-133195670D01*
X102903793Y-133407023D01*
X102884723Y-133625000D01*
X102903793Y-133842977D01*
X102960425Y-134054330D01*
X103052898Y-134252638D01*
X103178402Y-134431877D01*
X103333123Y-134586598D01*
X103342026Y-134592832D01*
X103342032Y-134592837D01*
X103482269Y-134691033D01*
X103549453Y-134761214D01*
X103584665Y-134851764D01*
X103582546Y-134948895D01*
X103543416Y-135037822D01*
X103482269Y-135098969D01*
X103333123Y-135203402D01*
X103178402Y-135358123D01*
X103052898Y-135537362D01*
X102960425Y-135735670D01*
X102903793Y-135947023D01*
X102884723Y-136165000D01*
X102350500Y-136165000D01*
X102350500Y-116915763D01*
X102352820Y-116885091D01*
X102352974Y-116880665D01*
X102355149Y-116866370D01*
X102351320Y-116819296D01*
X102350967Y-116810616D01*
X102350919Y-116810619D01*
X102350500Y-116803409D01*
X102350500Y-116796178D01*
X102347490Y-116770357D01*
X102346640Y-116761759D01*
X102342134Y-116706363D01*
X102340961Y-116691941D01*
X102336878Y-116679337D01*
X102335343Y-116666172D01*
X102330409Y-116652578D01*
X102330407Y-116652571D01*
X102311435Y-116600303D01*
X102308613Y-116592086D01*
X102297532Y-116557882D01*
X102287027Y-116525454D01*
X102280152Y-116514125D01*
X102275631Y-116501669D01*
X102237204Y-116443058D01*
X102232587Y-116435739D01*
X102201995Y-116385325D01*
X102201993Y-116385323D01*
X102196239Y-116375840D01*
X102188915Y-116367548D01*
X102186203Y-116364836D01*
X102185265Y-116363838D01*
X102179677Y-116355315D01*
X102125300Y-116303803D01*
X102120473Y-116299106D01*
X100741927Y-114920560D01*
X100721900Y-114897256D01*
X100718871Y-114894007D01*
X100710294Y-114882353D01*
X100699270Y-114872988D01*
X100699266Y-114872983D01*
X100674298Y-114851771D01*
X100667918Y-114845889D01*
X100667886Y-114845925D01*
X100662480Y-114841113D01*
X100657374Y-114836007D01*
X100637012Y-114819897D01*
X100630316Y-114814407D01*
X100611923Y-114798781D01*
X100576922Y-114769045D01*
X100565122Y-114763020D01*
X100554728Y-114754796D01*
X100541619Y-114748669D01*
X100541612Y-114748665D01*
X100491252Y-114725128D01*
X100483445Y-114721312D01*
X100433952Y-114696040D01*
X100433949Y-114696039D01*
X100421061Y-114689458D01*
X100408187Y-114686308D01*
X100396184Y-114680698D01*
X100382019Y-114677752D01*
X100382017Y-114677751D01*
X100327599Y-114666432D01*
X100319152Y-114664521D01*
X100251071Y-114647862D01*
X100240029Y-114647177D01*
X100236151Y-114647177D01*
X100234832Y-114647136D01*
X100224846Y-114645059D01*
X100210386Y-114645450D01*
X100210383Y-114645450D01*
X100149940Y-114647086D01*
X100143204Y-114647177D01*
X98019500Y-114647177D01*
X97924212Y-114628223D01*
X97843430Y-114574247D01*
X97789454Y-114493465D01*
X97770500Y-114398177D01*
X97770500Y-114373003D01*
X97755966Y-114299937D01*
X97742341Y-114279545D01*
X97742340Y-114279543D01*
X97714229Y-114237472D01*
X97700601Y-114217076D01*
X97680205Y-114203448D01*
X97638134Y-114175337D01*
X97638132Y-114175336D01*
X97617740Y-114161711D01*
X97544674Y-114147177D01*
X95495326Y-114147177D01*
X95422260Y-114161711D01*
X95401868Y-114175336D01*
X95401866Y-114175337D01*
X95359795Y-114203448D01*
X95339399Y-114217076D01*
X95326814Y-114235911D01*
X95247593Y-114288844D01*
X95152305Y-114307798D01*
X95057017Y-114288844D01*
X94976236Y-114234868D01*
X94803431Y-114062064D01*
X94749454Y-113981283D01*
X94730500Y-113885994D01*
X94730500Y-111562756D01*
X96067649Y-111562756D01*
X96081254Y-111572282D01*
X96101342Y-111579593D01*
X96291613Y-111630576D01*
X96312943Y-111634337D01*
X96509164Y-111651504D01*
X96530836Y-111651504D01*
X96727057Y-111634337D01*
X96748387Y-111630576D01*
X96938658Y-111579593D01*
X96956942Y-111572938D01*
X96972577Y-111561474D01*
X96962970Y-111547754D01*
X96537341Y-111122125D01*
X96520000Y-111110538D01*
X96502659Y-111122125D01*
X96078968Y-111545816D01*
X96067649Y-111562756D01*
X94730500Y-111562756D01*
X94730500Y-110408513D01*
X95266173Y-110408513D01*
X95283340Y-110604734D01*
X95287101Y-110626064D01*
X95338084Y-110816335D01*
X95344739Y-110834619D01*
X95356203Y-110850254D01*
X95369923Y-110840647D01*
X95795552Y-110415018D01*
X95807139Y-110397677D01*
X97232861Y-110397677D01*
X97244448Y-110415018D01*
X97668139Y-110838709D01*
X97685079Y-110850028D01*
X97694605Y-110836423D01*
X97701916Y-110816335D01*
X97752899Y-110626064D01*
X97756660Y-110604734D01*
X97773827Y-110408513D01*
X97773827Y-110386841D01*
X97756660Y-110190620D01*
X97752899Y-110169290D01*
X97701916Y-109979019D01*
X97695261Y-109960735D01*
X97683797Y-109945100D01*
X97670077Y-109954707D01*
X97244448Y-110380336D01*
X97232861Y-110397677D01*
X95807139Y-110397677D01*
X95795552Y-110380336D01*
X95371861Y-109956645D01*
X95354921Y-109945326D01*
X95345395Y-109958931D01*
X95338084Y-109979019D01*
X95287101Y-110169290D01*
X95283340Y-110190620D01*
X95266173Y-110386841D01*
X95266173Y-110408513D01*
X94730500Y-110408513D01*
X94730500Y-109233880D01*
X96067423Y-109233880D01*
X96077030Y-109247600D01*
X96502659Y-109673229D01*
X96520000Y-109684816D01*
X96537341Y-109673229D01*
X96961032Y-109249538D01*
X96972351Y-109232598D01*
X96958746Y-109223072D01*
X96938658Y-109215761D01*
X96748387Y-109164778D01*
X96727057Y-109161017D01*
X96530836Y-109143850D01*
X96509164Y-109143850D01*
X96312943Y-109161017D01*
X96291613Y-109164778D01*
X96101342Y-109215761D01*
X96083058Y-109222416D01*
X96067423Y-109233880D01*
X94730500Y-109233880D01*
X94730500Y-103147032D01*
X94749454Y-103051744D01*
X94803430Y-102970962D01*
X94849398Y-102934725D01*
X94890499Y-102909538D01*
X94974179Y-102858259D01*
X95159759Y-102699759D01*
X95318259Y-102514179D01*
X95373613Y-102423850D01*
X95440660Y-102314440D01*
X95440663Y-102314435D01*
X95445777Y-102306089D01*
X95539172Y-102080612D01*
X95561399Y-101988031D01*
X95593862Y-101852817D01*
X95593863Y-101852812D01*
X95596146Y-101843302D01*
X95615294Y-101600000D01*
X95596146Y-101356698D01*
X95593862Y-101347183D01*
X95593861Y-101347178D01*
X95583886Y-101305633D01*
X95580070Y-101208553D01*
X95613696Y-101117402D01*
X95649935Y-101071432D01*
X96997117Y-99724250D01*
X97020421Y-99704223D01*
X97023670Y-99701194D01*
X97035324Y-99692617D01*
X97044689Y-99681593D01*
X97044694Y-99681589D01*
X97065906Y-99656621D01*
X97071788Y-99650241D01*
X97071752Y-99650209D01*
X97076564Y-99644803D01*
X97081670Y-99639697D01*
X97097780Y-99619335D01*
X97103270Y-99612639D01*
X97139266Y-99570269D01*
X97148632Y-99559245D01*
X97154657Y-99547445D01*
X97162881Y-99537051D01*
X97169008Y-99523942D01*
X97169012Y-99523935D01*
X97192549Y-99473575D01*
X97196365Y-99465768D01*
X97221637Y-99416275D01*
X97221638Y-99416272D01*
X97228219Y-99403384D01*
X97231369Y-99390510D01*
X97236979Y-99378507D01*
X97251241Y-99309942D01*
X97253158Y-99301470D01*
X97267178Y-99244171D01*
X97269815Y-99233394D01*
X97270500Y-99222352D01*
X97270500Y-99218508D01*
X97270542Y-99217145D01*
X97272617Y-99207170D01*
X97270591Y-99132285D01*
X97270500Y-99125552D01*
X97270500Y-96934007D01*
X97289454Y-96838719D01*
X97343430Y-96757937D01*
X98346398Y-95754969D01*
X105377885Y-95754969D01*
X105380050Y-95768635D01*
X105410729Y-95863054D01*
X105421289Y-95886772D01*
X105501514Y-96025726D01*
X105516777Y-96046734D01*
X105624143Y-96165976D01*
X105643434Y-96183346D01*
X105710161Y-96231826D01*
X105727658Y-96239893D01*
X105729481Y-96235938D01*
X105730000Y-96231556D01*
X105730000Y-95774527D01*
X105725931Y-95754069D01*
X105705473Y-95750000D01*
X105398522Y-95750000D01*
X105378064Y-95754069D01*
X105377885Y-95754969D01*
X98346398Y-95754969D01*
X99353979Y-94747388D01*
X105379122Y-94747388D01*
X105379920Y-94747835D01*
X105393589Y-94750000D01*
X105705473Y-94750000D01*
X105725931Y-94745931D01*
X105730000Y-94725473D01*
X105730000Y-94278287D01*
X105726240Y-94259387D01*
X105721968Y-94260236D01*
X105718120Y-94262391D01*
X105643434Y-94316654D01*
X105624143Y-94334024D01*
X105516777Y-94453266D01*
X105501514Y-94474274D01*
X105421289Y-94613228D01*
X105410729Y-94636946D01*
X105381573Y-94726677D01*
X105379122Y-94747388D01*
X99353979Y-94747388D01*
X100567938Y-93533430D01*
X100648720Y-93479454D01*
X100744008Y-93460500D01*
X106265993Y-93460500D01*
X106361281Y-93479454D01*
X106442063Y-93533430D01*
X106774954Y-93866321D01*
X106828930Y-93947103D01*
X106847884Y-94042391D01*
X106828930Y-94137679D01*
X106774954Y-94218461D01*
X106767903Y-94225239D01*
X106733946Y-94256628D01*
X106730519Y-94264062D01*
X106730000Y-94268444D01*
X106730000Y-96221713D01*
X106733760Y-96240613D01*
X106738032Y-96239764D01*
X106741880Y-96237609D01*
X106816566Y-96183346D01*
X106835857Y-96165976D01*
X106894622Y-96100711D01*
X106972468Y-96042581D01*
X107066633Y-96018666D01*
X107162783Y-96032607D01*
X107246279Y-96082282D01*
X107264699Y-96100703D01*
X107332539Y-96176047D01*
X107343096Y-96183717D01*
X107343097Y-96183718D01*
X107472992Y-96278093D01*
X107472997Y-96278096D01*
X107483554Y-96285766D01*
X107654082Y-96361690D01*
X107836667Y-96400500D01*
X108023333Y-96400500D01*
X108205918Y-96361690D01*
X108376445Y-96285766D01*
X108500732Y-96195467D01*
X108516903Y-96183718D01*
X108516904Y-96183717D01*
X108527461Y-96176047D01*
X108595294Y-96100711D01*
X108673136Y-96042582D01*
X108767302Y-96018666D01*
X108863451Y-96032607D01*
X108946947Y-96082281D01*
X108965378Y-96100711D01*
X109024143Y-96165976D01*
X109043434Y-96183346D01*
X109110161Y-96231826D01*
X109127658Y-96239893D01*
X109129481Y-96235938D01*
X109130000Y-96231556D01*
X109130000Y-94278287D01*
X109126240Y-94259387D01*
X109121968Y-94260236D01*
X109118118Y-94262392D01*
X109092206Y-94281219D01*
X109003975Y-94321895D01*
X108906895Y-94325710D01*
X108815745Y-94292083D01*
X108744402Y-94226135D01*
X108703726Y-94137904D01*
X108699678Y-94042326D01*
X108701800Y-94028381D01*
X108705148Y-94006370D01*
X108690961Y-93831941D01*
X108686503Y-93818179D01*
X108641487Y-93679220D01*
X108641485Y-93679217D01*
X108637027Y-93665454D01*
X108546239Y-93515840D01*
X108538915Y-93507548D01*
X107264250Y-92232883D01*
X107244223Y-92209579D01*
X107241194Y-92206330D01*
X107232617Y-92194676D01*
X107221593Y-92185311D01*
X107221589Y-92185306D01*
X107196621Y-92164094D01*
X107190241Y-92158212D01*
X107190209Y-92158248D01*
X107184803Y-92153436D01*
X107179697Y-92148330D01*
X107159335Y-92132220D01*
X107152639Y-92126730D01*
X107150157Y-92124621D01*
X107099245Y-92081368D01*
X107087445Y-92075343D01*
X107077051Y-92067119D01*
X107063942Y-92060992D01*
X107063935Y-92060988D01*
X107013575Y-92037451D01*
X107005768Y-92033635D01*
X106956275Y-92008363D01*
X106956272Y-92008362D01*
X106943384Y-92001781D01*
X106930510Y-91998631D01*
X106918507Y-91993021D01*
X106904342Y-91990075D01*
X106904340Y-91990074D01*
X106849922Y-91978755D01*
X106841475Y-91976844D01*
X106773394Y-91960185D01*
X106762352Y-91959500D01*
X106758474Y-91959500D01*
X106757155Y-91959459D01*
X106747169Y-91957382D01*
X106732709Y-91957773D01*
X106732706Y-91957773D01*
X106672263Y-91959409D01*
X106665527Y-91959500D01*
X100405763Y-91959500D01*
X100375091Y-91957180D01*
X100370665Y-91957026D01*
X100356370Y-91954851D01*
X100310870Y-91958552D01*
X100309296Y-91958680D01*
X100300616Y-91959033D01*
X100300619Y-91959081D01*
X100293409Y-91959500D01*
X100286178Y-91959500D01*
X100260357Y-91962510D01*
X100251780Y-91963358D01*
X100181941Y-91969039D01*
X100169337Y-91973122D01*
X100156172Y-91974657D01*
X100142578Y-91979591D01*
X100142571Y-91979593D01*
X100090303Y-91998565D01*
X100082086Y-92001387D01*
X100071610Y-92004781D01*
X100015454Y-92022973D01*
X100004125Y-92029848D01*
X99991669Y-92034369D01*
X99933058Y-92072796D01*
X99925739Y-92077413D01*
X99875325Y-92108005D01*
X99875324Y-92108006D01*
X99865840Y-92113761D01*
X99857548Y-92121084D01*
X99854823Y-92123809D01*
X99853837Y-92124736D01*
X99845315Y-92130323D01*
X99835366Y-92140825D01*
X99835364Y-92140827D01*
X99793821Y-92184681D01*
X99789124Y-92189508D01*
X96042883Y-95935750D01*
X96019579Y-95955777D01*
X96016330Y-95958806D01*
X96004676Y-95967383D01*
X95995311Y-95978407D01*
X95995306Y-95978411D01*
X95974094Y-96003379D01*
X95968212Y-96009759D01*
X95968248Y-96009791D01*
X95963436Y-96015197D01*
X95958330Y-96020303D01*
X95942220Y-96040665D01*
X95936737Y-96047352D01*
X95891368Y-96100755D01*
X95885343Y-96112555D01*
X95877119Y-96122949D01*
X95870992Y-96136058D01*
X95870988Y-96136065D01*
X95847451Y-96186425D01*
X95843635Y-96194232D01*
X95818363Y-96243725D01*
X95811781Y-96256616D01*
X95808631Y-96269490D01*
X95803021Y-96281493D01*
X95800075Y-96295658D01*
X95800074Y-96295660D01*
X95788755Y-96350078D01*
X95786844Y-96358525D01*
X95770185Y-96426606D01*
X95769500Y-96437648D01*
X95769500Y-96441526D01*
X95769459Y-96442845D01*
X95767382Y-96452831D01*
X95767773Y-96467291D01*
X95767773Y-96467294D01*
X95769409Y-96527737D01*
X95769500Y-96534473D01*
X95769500Y-98725993D01*
X95750546Y-98821281D01*
X95696570Y-98902063D01*
X94588568Y-100010065D01*
X94507786Y-100064041D01*
X94412498Y-100082995D01*
X94354370Y-100076114D01*
X94334879Y-100071435D01*
X94312822Y-100066139D01*
X94312815Y-100066138D01*
X94303302Y-100063854D01*
X94060000Y-100044706D01*
X94050241Y-100045474D01*
X93826456Y-100063086D01*
X93826455Y-100063086D01*
X93816698Y-100063854D01*
X93807188Y-100066137D01*
X93807183Y-100066138D01*
X93630037Y-100108668D01*
X93579388Y-100120828D01*
X93353911Y-100214223D01*
X93345565Y-100219337D01*
X93345560Y-100219340D01*
X93280729Y-100259069D01*
X93145821Y-100341741D01*
X92960241Y-100500241D01*
X92801741Y-100685821D01*
X92796630Y-100694162D01*
X92679340Y-100885560D01*
X92679338Y-100885564D01*
X92674223Y-100893911D01*
X92580828Y-101119388D01*
X92578546Y-101128893D01*
X92526140Y-101347178D01*
X92523854Y-101356698D01*
X92504706Y-101600000D01*
X90293500Y-101600000D01*
X90293500Y-93932900D01*
X90312454Y-93837612D01*
X90366430Y-93756830D01*
X90778260Y-93345000D01*
X92454798Y-93345000D01*
X92473576Y-93583594D01*
X92475860Y-93593107D01*
X92475861Y-93593114D01*
X92527163Y-93806801D01*
X92529447Y-93816313D01*
X92621035Y-94037427D01*
X92626149Y-94045773D01*
X92626152Y-94045778D01*
X92701292Y-94168394D01*
X92746086Y-94241491D01*
X92752434Y-94248924D01*
X92752435Y-94248925D01*
X92880480Y-94398847D01*
X92901519Y-94423481D01*
X92908961Y-94429837D01*
X93004466Y-94511405D01*
X93083509Y-94578914D01*
X93091848Y-94584024D01*
X93279222Y-94698848D01*
X93279227Y-94698851D01*
X93287573Y-94703965D01*
X93508687Y-94795553D01*
X93518195Y-94797836D01*
X93518199Y-94797837D01*
X93731886Y-94849139D01*
X93731893Y-94849140D01*
X93741406Y-94851424D01*
X93980000Y-94870202D01*
X94218594Y-94851424D01*
X94228107Y-94849140D01*
X94228114Y-94849139D01*
X94441801Y-94797837D01*
X94441805Y-94797836D01*
X94451313Y-94795553D01*
X94672427Y-94703965D01*
X94680773Y-94698851D01*
X94680778Y-94698848D01*
X94868152Y-94584024D01*
X94876491Y-94578914D01*
X94955535Y-94511405D01*
X95051039Y-94429837D01*
X95058481Y-94423481D01*
X95079520Y-94398847D01*
X95207565Y-94248925D01*
X95207566Y-94248924D01*
X95213914Y-94241491D01*
X95258708Y-94168394D01*
X95333848Y-94045778D01*
X95333851Y-94045773D01*
X95338965Y-94037427D01*
X95430553Y-93816313D01*
X95432837Y-93806801D01*
X95484139Y-93593114D01*
X95484140Y-93593107D01*
X95486424Y-93583594D01*
X95505202Y-93345000D01*
X95486424Y-93106406D01*
X95484140Y-93096893D01*
X95484139Y-93096886D01*
X95432837Y-92883199D01*
X95432836Y-92883195D01*
X95430553Y-92873687D01*
X95338965Y-92652573D01*
X95333851Y-92644227D01*
X95333848Y-92644222D01*
X95219024Y-92456848D01*
X95213914Y-92448509D01*
X95058481Y-92266519D01*
X94930894Y-92157550D01*
X94883925Y-92117435D01*
X94883924Y-92117434D01*
X94876491Y-92111086D01*
X94794739Y-92060988D01*
X94680778Y-91991152D01*
X94680773Y-91991149D01*
X94672427Y-91986035D01*
X94654852Y-91978755D01*
X94616383Y-91962821D01*
X94451313Y-91894447D01*
X94441805Y-91892164D01*
X94441801Y-91892163D01*
X94228114Y-91840861D01*
X94228107Y-91840860D01*
X94218594Y-91838576D01*
X93980000Y-91819798D01*
X93741406Y-91838576D01*
X93731893Y-91840860D01*
X93731886Y-91840861D01*
X93518199Y-91892163D01*
X93518195Y-91892164D01*
X93508687Y-91894447D01*
X93343617Y-91962821D01*
X93305149Y-91978755D01*
X93287573Y-91986035D01*
X93279227Y-91991149D01*
X93279222Y-91991152D01*
X93165261Y-92060988D01*
X93083509Y-92111086D01*
X93076076Y-92117434D01*
X93076075Y-92117435D01*
X93029106Y-92157550D01*
X92901519Y-92266519D01*
X92746086Y-92448509D01*
X92740976Y-92456848D01*
X92626152Y-92644222D01*
X92626149Y-92644227D01*
X92621035Y-92652573D01*
X92529447Y-92873687D01*
X92527164Y-92883195D01*
X92527163Y-92883199D01*
X92475861Y-93096886D01*
X92475860Y-93096893D01*
X92473576Y-93106406D01*
X92455918Y-93330766D01*
X92454798Y-93345000D01*
X90778260Y-93345000D01*
X93883831Y-90239430D01*
X93964613Y-90185454D01*
X94059901Y-90166500D01*
X137969100Y-90166500D01*
X138064388Y-90185454D01*
G37*
%TD.AperFunction*%
%TD*%
M02*
